<svg width="1440" height="640" viewBox="0 0 1440 640" fill="none" xmlns="http://www.w3.org/2000/svg">
<g clip-path="url(#clip0_18619_14109)">
<rect width="1440" height="640" fill="#FEC100"/>
<path d="M790.357 875.833C821.026 663.604 673.848 455.064 539.574 398.481C384.831 333.301 284.604 485.694 180.219 379.611C84.9465 282.864 119.768 106.414 47.6119 44.2202C-18.7024 -12.932 -157.922 41.4144 -469.451 477.658" stroke="#FEDA66" stroke-width="5.45956" stroke-miterlimit="10"/>
<path d="M-467.478 509.224C-160.02 79.5148 -19.7747 21.148 48.6672 74.096C99.3644 113.458 100.331 207.048 127.224 291.781C140.403 335.104 160.603 371.536 186.011 397.808C269.209 483.981 348.502 409.92 458.745 411.908C486.874 412.29 514.551 417.877 541.205 428.555C676.801 482.098 826.087 672.466 799.929 878.455" stroke="#FEDA66" stroke-width="5.45956" stroke-miterlimit="10"/>
<path d="M-465.455 540.723C-162.075 117.551 -20.878 55.1651 49.5302 103.879C101.284 139.696 104.446 229.815 132.219 311.236C146.195 353.563 166.504 389.356 191.597 415.887C273.268 502.201 350.217 437.935 460.341 442.053C488.348 443.012 515.929 448.541 542.643 458.552C679.425 509.736 830.964 681.229 809.316 880.992" stroke="#FEDA66" stroke-width="5.45956" stroke-miterlimit="10"/>
<path d="M-463.428 572.107C-164.191 155.542 -21.9835 89.1979 50.5032 133.612C103.34 165.974 108.626 252.516 137.337 330.692C152.068 371.984 172.461 407.145 197.218 433.932C277.448 520.428 351.867 465.832 461.973 472.162C489.89 473.61 517.414 479.058 544.208 488.436C682.244 536.865 835.944 689.875 818.805 883.419" stroke="#FEDA66" stroke-width="5.45956" stroke-miterlimit="10"/>
<path d="M-461.448 603.671C-166.25 193.481 -23.1338 123.201 51.4968 163.347C105.343 192.261 112.861 275.282 142.512 350.102C158.008 390.387 178.528 424.964 202.995 452.022C281.783 538.707 353.729 493.84 463.87 502.366C491.623 504.378 519.024 509.765 545.831 518.479C685.144 564.163 840.995 698.734 828.383 886.084" stroke="#FEDA66" stroke-width="5.45956" stroke-miterlimit="10"/>
<path d="M-459.53 635.103C-168.309 231.338 -23.3842 153.728 52.5231 192.963C106.729 220.871 117.177 297.726 147.656 369.46C163.92 408.682 184.563 442.676 208.726 470.024C286.072 556.905 355.503 521.746 465.518 532.433C493.149 534.925 520.471 540.231 547.317 548.318C687.942 591.117 845.919 707.359 837.8 888.56" stroke="#FEDA66" stroke-width="5.45956" stroke-miterlimit="10"/>
<path d="M-457.411 666.593C-170.345 269.186 -25.4311 191.224 53.5835 222.329C109.284 244.743 121.501 320.338 152.827 388.803C169.834 426.941 190.602 460.368 214.462 488.006C290.364 575.088 357.353 549.631 467.266 562.491C494.765 565.505 522.008 570.755 548.886 578.218C690.79 618.273 850.953 715.935 847.308 891.065" stroke="#FEDA66" stroke-width="5.45956" stroke-miterlimit="10"/>
<path d="M-455.401 698.036C-172.439 306.975 -26.5505 225.004 54.5727 252.094C111.274 270.898 125.943 342.649 158.015 408.07C175.753 445.089 196.659 477.943 220.232 505.841C294.66 593.149 359.19 577.472 469.045 592.409C494.596 595.929 521.694 600.447 550.496 607.943C693.725 645.155 855.963 724.605 856.836 893.483" stroke="#FEDA66" stroke-width="5.45956" stroke-miterlimit="10"/>
<path d="M-453.382 729.436C-174.407 344.743 -27.7301 259.047 55.64 281.44C113.289 296.96 130.432 364.884 163.287 427.206C181.759 463.097 202.807 495.432 226.08 523.672C299.063 611.192 361.114 605.173 470.893 622.373C496.454 626.365 523.47 630.924 552.196 637.724C696.549 672.041 861.015 733.144 866.393 895.826" stroke="#FEDA66" stroke-width="5.45956" stroke-miterlimit="10"/>
<path d="M-451.327 760.794C-176.403 382.433 -28.8849 292.989 56.6964 310.937C115.264 323.196 135.023 387.197 168.435 446.359C187.613 481.092 208.797 512.919 231.76 541.502C303.32 629.247 362.895 632.973 472.636 652.182C498.096 656.597 525.135 661.165 553.778 667.303C699.622 698.691 866.13 741.425 875.997 897.98" stroke="#FEDA66" stroke-width="5.45956" stroke-miterlimit="10"/>
<path d="M-449.298 792.153C-178.405 420.04 -30.0344 326.91 57.7364 340.203C117.215 349.231 139.52 409.205 173.63 465.427C193.521 498.951 214.861 530.268 237.525 559.195C307.614 647.155 364.721 660.601 474.361 682.184C499.814 687.142 526.797 691.645 555.326 697.147C702.512 725.534 871.115 749.979 885.52 900.403" stroke="#FEDA66" stroke-width="5.45956" stroke-miterlimit="10"/>
<path d="M-447.261 823.477C-180.379 457.631 -31.1221 360.773 58.9058 369.432C119.31 375.271 144.2 431.154 178.92 484.399C198.883 514.991 219.393 546.021 243.398 576.842C312.047 664.998 366.665 688.248 476.232 711.986C501.643 717.432 528.592 721.88 557.074 726.773C705.603 752.156 876.329 758.297 895.198 902.601" stroke="#FEDA66" stroke-width="5.45956" stroke-miterlimit="10"/>
<path d="M-445.219 854.781C-182.361 495.266 -32.357 394.556 60.0261 398.576C121.367 401.185 148.924 452.935 184.216 503.265C205.041 532.971 225.746 563.484 249.253 594.38C316.426 682.884 368.573 715.768 478.081 741.709C503.441 747.68 530.378 752.082 558.712 756.282C708.582 778.574 881.443 766.461 904.798 904.66" stroke="#FEDA66" stroke-width="5.45956" stroke-miterlimit="10"/>
<path d="M-443.213 886.032C-184.293 532.581 -33.3413 428.399 61.1685 427.628C123.422 427.105 153.682 474.577 189.53 522.062C211.254 550.821 232.125 580.846 255.037 611.817C320.805 700.473 370.397 743.249 479.933 771.436C505.28 777.872 532.161 782.208 560.396 785.814C711.648 804.947 886.633 774.534 914.472 906.63" stroke="#FEDA66" stroke-width="5.45956" stroke-miterlimit="10"/>
<path d="M-441.077 917.243C-186.203 569.909 -34.4617 462.113 62.3785 456.508C125.577 452.82 158.527 495.965 194.879 540.622C217.513 568.401 238.575 598.03 261.053 629.112C325.323 718.012 372.474 770.602 481.841 800.953C508.312 807.838 535.129 812.539 562.186 815.038C714.737 831.162 891.919 782.547 924.203 908.41" stroke="#FEDA66" stroke-width="5.45956" stroke-miterlimit="10"/>
<path d="M-439.008 948.424C-188.102 607.193 -35.3569 495.69 63.5313 485.226C127.67 478.398 163.35 517.15 200.299 559.096C223.85 585.86 245.06 615.077 267.008 646.272C329.843 735.456 374.472 797.897 483.723 830.401C510.046 837.816 536.82 842.49 563.877 844.396C717.906 857.068 897.135 790.28 934.025 909.945" stroke="#FEDA66" stroke-width="5.45956" stroke-miterlimit="10"/>
<path d="M-436.929 979.56C-189.994 644.339 -36.2802 529.389 64.8728 513.866C129.895 503.938 168.363 538.157 205.727 577.349C230.203 603.062 251.536 631.978 272.982 663.264C334.335 752.727 376.489 825.038 485.723 859.787C511.908 867.687 538.651 872.299 565.713 873.584C721.031 883.1 902.46 797.899 943.811 911.575" stroke="#FEDA66" stroke-width="5.45956" stroke-miterlimit="10"/>
<path d="M-434.557 1009.5C-191.227 678.855 -36.4937 559.427 67.0458 538.832C133.12 525.657 174.292 555.344 212.095 592.035C237.591 616.746 258.964 645.433 279.88 676.963C339.734 766.979 379.277 849.594 488.463 886.638C514.515 895.012 541.239 899.56 568.312 900.225C725.07 906.302 908.862 802.135 954.625 910.119" stroke="#FEDA66" stroke-width="5.45956" stroke-miterlimit="10"/>
<path d="M-432.201 1039.41C-192.499 713.033 -36.5846 589.576 69.2412 563.832C136.317 547.423 180.225 572.449 218.493 606.736C244.835 630.47 266.44 658.933 286.791 690.657C345.109 781.379 382.07 874.29 491.209 913.537C517.127 922.393 543.836 926.875 570.918 926.912C729.138 929.473 915.413 806.344 965.525 908.406" stroke="#FEDA66" stroke-width="5.45956" stroke-miterlimit="10"/>
<path d="M-429.848 1069.33C-193.643 747.595 -36.6705 619.819 71.4734 588.595C139.612 568.9 186.268 589.121 225.026 620.901C252.36 643.346 273.991 671.846 293.824 703.865C350.602 795.216 384.948 898.572 494.014 940.237C519.792 949.599 546.493 954.015 573.586 953.398C733.283 952.285 921.926 809.759 976.585 906.088" stroke="#FEDA66" stroke-width="5.45956" stroke-miterlimit="10"/>
<path d="M-427.476 1099.27C-194.911 782.281 -36.8417 650.433 73.5854 613.572C142.756 590.624 192.17 605.896 231.4 635.243C259.723 656.416 281.443 684.894 300.75 717.041C356.024 809.067 387.722 923.004 496.717 966.99C522.367 976.826 549.068 981.18 576.173 979.947C737.318 974.784 928.435 813.319 987.634 903.645" stroke="#FEDA66" stroke-width="5.45956" stroke-miterlimit="10"/>
<path d="M-425.167 1129.28C-53.6828 622.698 134.44 579.45 237.969 649.692C350.987 726.365 352.549 931.398 499.552 994.026C672.008 1067.45 924.359 802.54 998.814 901.083" stroke="#FEDA66" stroke-width="5.45956" stroke-miterlimit="10"/>
</g>
<defs>
<clipPath id="clip0_18619_14109">
<rect width="1440" height="640" fill="white"/>
</clipPath>
</defs>
</svg>
