<svg width="1440" height="753" viewBox="0 0 1440 753" fill="none" xmlns="http://www.w3.org/2000/svg">
<path d="M1399.05 1136.59C1422.09 890.227 1126.93 651.806 877.759 589.063C590.609 516.789 433.899 695.311 230.85 574.638C45.539 464.586 81.4034 259.56 -57.2781 189.038C-184.731 124.233 -426.079 190.035 -918.8 701.584" stroke="#FEDA66" stroke-width="5" stroke-miterlimit="10"/>
<path d="M-908.745 733.245C-422.34 229.307 -179.76 158.822 -49.126 218.718C47.6602 263.249 63.4728 371.601 124.421 469.162C154.559 519.055 196.245 560.824 245.737 590.72C407.816 688.784 538.79 601.386 736.677 601.408C787.15 601.268 837.596 607.166 886.974 618.979C1138.06 678.176 1434.26 895.525 1418.37 1134.59" stroke="#FEDA66" stroke-width="5" stroke-miterlimit="10"/>
<path d="M-898.63 764.834C-418.549 268.545 -174.867 193.385 -41.3462 248.338C56.8001 288.741 76.0249 393.031 138.054 486.739C169.47 535.462 211.254 576.49 260.221 606.692C419.584 704.952 547.831 628.943 745.825 631.434C796.165 631.965 846.431 637.797 895.817 648.837C1148.67 705.278 1446.07 900.726 1437.33 1132.49" stroke="#FEDA66" stroke-width="5" stroke-miterlimit="10"/>
<path d="M-888.535 796.326C-414.888 307.786 -169.993 228.024 -33.3936 277.954C66.1747 314.334 88.6688 414.436 151.89 504.364C184.503 551.873 226.345 592.165 274.746 622.671C431.556 721.169 556.721 656.412 755.015 661.466C805.269 662.566 855.421 668.304 904.853 678.61C1159.54 731.834 1458.04 905.832 1456.44 1130.3" stroke="#FEDA66" stroke-width="5" stroke-miterlimit="10"/>
<path d="M-878.492 828.022C-411.139 347.004 -165.212 262.679 -25.4114 307.619C75.4476 339.984 101.414 435.952 165.815 521.967C199.652 568.289 241.631 607.899 289.555 638.722C443.81 737.46 566.006 684.028 764.692 691.625C814.736 693.382 864.657 699.054 914.013 708.589C1170.58 758.606 1470.16 911.196 1475.74 1128.37" stroke="#FEDA66" stroke-width="5" stroke-miterlimit="10"/>
<path d="M-868.589 859.589C-407.428 386.204 -159.367 293.38 -17.4159 337.234C83.9361 368.424 114.231 457.174 179.654 539.584C214.708 584.651 256.824 623.576 304.246 654.736C455.948 753.714 575.093 711.585 773.878 721.691C823.774 724.007 873.542 729.586 922.873 738.395C1181.35 785.042 1481.99 916.348 1494.71 1126.27" stroke="#FEDA66" stroke-width="5" stroke-miterlimit="10"/>
<path d="M-858.322 891.249C-403.686 425.45 -155.709 332.253 -9.41283 366.628C93.7908 391.424 127.07 478.657 193.525 557.246C229.749 601.033 272.004 639.291 318.928 670.786C468.077 770.005 584.302 739.17 783.227 751.796C832.966 754.72 882.581 760.236 931.877 768.322C1192.23 811.763 1493.99 921.497 1513.83 1124.24" stroke="#FEDA66" stroke-width="5" stroke-miterlimit="10"/>
<path d="M-848.259 922.855C-400.056 464.624 -150.946 366.802 -1.47555 396.484C102.977 417.08 140.078 499.793 207.414 574.826C244.781 617.294 287.199 654.876 333.649 686.671C480.194 786.161 593.481 766.703 792.614 781.737C838.936 785.287 888.181 789.96 940.929 798.043C1203.23 838.167 1505.96 926.768 1532.97 1122.14" stroke="#FEDA66" stroke-width="5" stroke-miterlimit="10"/>
<path d="M-838.194 954.456C-396.231 503.882 -146.286 401.789 6.50132 425.989C112.156 442.765 153.12 520.97 221.398 592.376C259.914 633.508 302.51 670.475 348.475 702.661C492.468 802.392 602.764 794.168 802.099 811.826C848.508 815.922 897.613 820.644 950.12 827.923C1213.99 864.673 1517.95 931.991 1552.12 1120.02" stroke="#FEDA66" stroke-width="5" stroke-miterlimit="10"/>
<path d="M-828.078 986.023C-392.477 543.074 -141.606 436.691 14.4722 455.706C121.28 468.692 166.348 542.278 235.151 609.992C274.76 649.754 317.526 686.118 362.991 718.695C504.471 818.679 611.798 821.78 811.362 841.765C857.656 846.353 906.801 851.087 959.058 857.603C1225.16 890.934 1530.01 936.964 1571.31 1117.74" stroke="#FEDA66" stroke-width="5" stroke-miterlimit="10"/>
<path d="M-818.015 1017.62C-388.764 582.248 -136.945 471.667 22.3501 485.26C130.301 494.495 179.33 563.338 248.946 627.61C289.654 665.941 332.626 701.695 377.609 734.661C516.495 834.877 620.863 849.265 820.6 871.997C866.962 877.213 915.996 881.874 967.952 887.656C1236 917.495 1541.83 942.349 1590.36 1115.85" stroke="#FEDA66" stroke-width="5" stroke-miterlimit="10"/>
<path d="M-807.951 1049.21C-385.02 621.467 -132.202 506.656 30.4327 514.858C139.557 520.396 192.608 584.424 262.875 645.21C303.272 680.134 344.715 715.554 392.39 750.662C528.734 851.081 630.123 876.837 830.051 902.061C876.41 907.843 925.373 912.441 977.15 917.523C1247.15 943.868 1554.01 947.555 1609.64 1113.8" stroke="#FEDA66" stroke-width="5" stroke-miterlimit="10"/>
<path d="M-797.885 1080.79C-381.301 660.803 -127.759 541.644 38.3878 544.457C148.696 546.256 205.91 605.419 276.767 662.791C318.578 696.654 360.298 731.451 407.096 766.633C540.858 867.419 639.277 904.331 839.428 932.097C885.773 938.486 934.706 943.033 986.112 947.319C1258.03 970.079 1565.94 952.69 1628.71 1111.68" stroke="#FEDA66" stroke-width="5" stroke-miterlimit="10"/>
<path d="M-787.902 1112.35C-377.557 699.833 -122.88 576.782 46.3421 574.047C157.806 572.229 219.221 626.363 290.65 680.404C333.935 713.133 375.882 747.338 421.63 782.594C552.91 883.512 648.25 931.856 848.785 962.21C895.178 969.135 943.999 973.608 995.136 977.213C1269.04 996.315 1577.97 957.837 1647.87 1109.57" stroke="#FEDA66" stroke-width="5" stroke-miterlimit="10"/>
<path d="M-777.705 1143.91C-373.799 738.987 -118.301 611.915 54.3514 603.593C167.021 598.127 232.607 647.181 304.517 697.909C349.286 729.465 391.522 763.183 436.514 798.545C565.161 899.689 657.623 959.346 858.179 992.191C906.652 999.61 955.412 1004.51 1004.27 1006.86C1280.03 1022.49 1590.1 963.086 1667.05 1107.42" stroke="#FEDA66" stroke-width="5" stroke-miterlimit="10"/>
<path d="M-767.641 1175.48C-370.051 778.171 -113.369 646.999 62.1986 633.083C176.065 624.011 245.882 667.912 318.457 715.464C364.72 745.805 407.163 779.013 451.228 814.482C577.364 915.883 666.817 986.866 867.485 1022.18C915.771 1030.21 964.447 1035.08 1013.21 1036.76C1291.08 1048.41 1602.01 968.176 1686.31 1105.13" stroke="#FEDA66" stroke-width="5" stroke-miterlimit="10"/>
<path d="M-757.577 1207.04C-366.333 817.294 -108.501 682.357 70.3332 662.635C185.297 650.015 259.424 688.61 332.33 732.941C380.097 762.026 422.719 794.849 465.906 830.393C589.45 932.033 675.986 1014.32 876.96 1052.21C925.07 1060.79 973.68 1065.6 1022.35 1066.57C1302.03 1074.6 1614.05 973.324 1705.45 1103.16" stroke="#FEDA66" stroke-width="5" stroke-miterlimit="10"/>
<path d="M-747.471 1238.43C-362.589 856.332 -103.874 717.163 78.3671 691.831C194.659 675.63 272.952 708.844 346.288 750.121C395.744 777.92 438.427 810.335 480.731 846.007C601.754 947.844 685.268 1041.58 886.484 1082.02C934.424 1091.14 982.977 1095.87 1031.56 1096.16C1313.2 1100.39 1626.3 978.161 1724.85 1100.78" stroke="#FEDA66" stroke-width="5" stroke-miterlimit="10"/>
<path d="M-737.407 1269.79C-358.96 894.943 -99.0202 752.106 86.4168 721.148C203.938 701.423 286.417 729.17 360.236 767.536C411.069 794.095 454.157 826.106 495.506 861.844C613.969 964.044 694.542 1069.07 895.99 1111.94C943.757 1121.6 992.262 1126.26 1040.75 1125.87C1324.36 1126.26 1638.7 983.308 1744.23 1098.53" stroke="#FEDA66" stroke-width="5" stroke-miterlimit="10"/>
<path d="M-727.343 1301.16C-355.015 933.86 -94.1249 787.061 94.4964 750.164C213.339 726.892 299.984 749.075 374.305 784.445C426.725 809.426 469.888 841.337 510.385 877.256C626.266 979.726 703.887 1096.1 905.56 1141.62C953.15 1151.83 1001.62 1156.43 1050 1155.34C1335.58 1151.73 1650.83 987.79 1763.7 1095.92" stroke="#FEDA66" stroke-width="5" stroke-miterlimit="10"/>
<path d="M-717.228 1332.5C-351.222 972.708 -89.2762 822.235 102.428 779.279C222.533 752.529 313.324 769.05 388.119 801.544C442.116 824.987 485.455 856.738 525.056 892.651C638.427 995.454 713.086 1123.23 914.974 1171.26C962.402 1181.98 1010.85 1186.52 1059.13 1184.77C1346.55 1176.8 1662.94 992.557 1783.06 1093.4" stroke="#FEDA66" stroke-width="5" stroke-miterlimit="10"/>
<path d="M-707.206 1363.87C-123.454 792.078 206.034 741.351 402.297 818.739C616.546 903.213 651.899 1132.78 924.681 1201.11C1244.69 1281.22 1653.81 981.501 1802.59 1090.93" stroke="#FEDA66" stroke-width="5" stroke-miterlimit="10"/>
</svg>
