<svg width="482" height="525" viewBox="0 0 482 525" fill="none" xmlns="http://www.w3.org/2000/svg">
<g clip-path="url(#clip0_18607_13862)">
<rect x="0.623047" y="0.871582" width="480.441" height="524.118" rx="43.6765" fill="#FEC100"/>
<path d="M1011.15 670.245C992.851 456.255 785.226 283.192 627.988 256.029C446.788 224.754 376.282 394.821 239.094 312.978C113.902 238.353 108.661 58.4835 16.5111 12.7998C-68.1765 -29.1788 -203.995 53.1828 -432.156 545.185" stroke="#FEDA66" stroke-width="5.45956" stroke-miterlimit="10"/>
<path d="M-422.436 575.642C-197.063 90.8843 -61.1176 4.37548 24.8335 41.7961C88.5345 69.6534 112.103 160.979 161.27 238.203C185.796 277.806 216.174 309.198 249.675 329.559C359.409 396.377 426.384 307.31 544.772 286.121C574.95 280.592 605.897 280.249 636.976 285.099C794.895 309.01 1000.4 463.861 1022.02 670.801" stroke="#FEDA66" stroke-width="5.45956" stroke-miterlimit="10"/>
<path d="M-412.688 606.024C-190.102 128.514 -54.1065 37.875 32.9283 70.7426C96.9056 94.9106 121.987 182.382 171.297 256.181C196.437 294.644 226.777 325.387 260.003 346.068C368.138 413.344 434.964 334.348 553.739 315.267C583.924 310.329 614.755 309.949 645.738 314.133C804.357 335.489 1007.73 471.408 1032.68 671.313" stroke="#FEDA66" stroke-width="5.45956" stroke-miterlimit="10"/>
<path d="M-402.963 636.291C-183.218 166.112 -47.0949 71.39 41.1277 99.6163C105.432 120.178 131.923 203.706 181.455 274.135C207.153 311.427 237.431 341.534 270.359 362.536C376.997 430.292 443.445 361.284 562.733 344.371C592.94 339.93 623.691 339.481 654.606 343.031C813.904 361.429 1015.14 478.818 1043.41 671.696" stroke="#FEDA66" stroke-width="5.45956" stroke-miterlimit="10"/>
<path d="M-393.245 666.744C-176.284 203.647 -40.1375 104.886 49.3502 128.487C113.904 145.466 141.935 225.081 191.663 292.032C217.938 328.177 248.21 357.687 280.894 379.015C386.035 447.259 452.181 388.284 572.035 373.511C602.203 369.656 632.807 369.175 663.576 372.072C823.579 387.517 1022.67 486.422 1054.29 672.292" stroke="#FEDA66" stroke-width="5.45956" stroke-miterlimit="10"/>
<path d="M-383.626 697.081C-169.372 241.103 -33.0554 134.792 57.5786 157.236C122.274 173.155 151.955 246.125 201.826 309.884C228.665 344.829 258.93 373.743 291.358 395.418C395.003 464.156 460.797 415.203 581.037 402.57C611.189 399.21 641.69 398.666 672.35 400.942C833.061 413.291 1030.01 493.825 1064.96 672.738" stroke="#FEDA66" stroke-width="5.45956" stroke-miterlimit="10"/>
<path d="M-373.777 727.433C-162.436 278.544 -26.2158 171.892 65.784 185.732C130.756 195.965 162.024 267.332 212.014 327.715C239.388 361.445 269.649 389.778 301.823 411.801C403.972 481.038 469.491 442.086 590.144 431.6C620.282 428.777 650.683 428.195 681.228 429.854C842.646 439.251 1037.46 501.155 1075.74 673.193" stroke="#FEDA66" stroke-width="5.45956" stroke-miterlimit="10"/>
<path d="M-364.056 757.762C-155.576 315.941 -19.2787 205.163 74.0095 214.634C139.182 221.127 172.148 288.219 222.203 345.469C250.089 377.952 280.36 405.695 312.289 428.032C412.917 497.8 478.159 468.928 599.252 460.485C627.427 458.567 657.497 457.299 690.107 458.587C852.259 464.926 1044.91 508.583 1086.51 673.558" stroke="#FEDA66" stroke-width="5.45956" stroke-miterlimit="10"/>
<path d="M-354.335 788.046C-148.587 353.289 -12.3435 238.704 82.2168 243.11C147.612 246.191 182.303 309.022 232.449 363.078C260.848 394.302 291.146 421.509 322.837 444.244C421.97 514.522 486.887 495.615 608.443 489.402C636.742 487.942 666.735 486.732 699.097 487.354C861.752 490.626 1052.37 515.873 1097.29 673.844" stroke="#FEDA66" stroke-width="5.45956" stroke-miterlimit="10"/>
<path d="M-344.587 818.282C-141.647 390.568 -5.40581 272.141 90.4493 271.736C156.041 271.435 192.586 329.881 242.567 380.729C271.442 410.672 301.763 437.354 333.206 460.489C430.87 531.286 495.486 522.429 617.484 518.189C645.778 517.164 675.798 515.958 707.911 515.951C871.456 516.045 1059.83 522.899 1108.08 673.935" stroke="#FEDA66" stroke-width="5.45956" stroke-miterlimit="10"/>
<path d="M-334.866 848.525C-134.732 427.767 1.53278 305.556 98.6086 300.138C164.398 296.488 202.695 350.46 252.715 398.287C282.061 426.899 312.426 453.048 343.632 476.583C439.775 547.898 504.092 549.066 626.554 547.168C654.971 546.676 684.915 545.418 716.753 544.812C881.011 541.69 1067.23 530.219 1118.85 674.307" stroke="#FEDA66" stroke-width="5.45956" stroke-miterlimit="10"/>
<path d="M-325.145 878.732C-127.792 464.944 8.52317 338.901 106.897 328.478C172.909 321.515 212.986 370.944 262.942 415.731C291.659 441.46 321.066 467.503 354.162 492.609C448.812 564.418 512.828 575.696 635.731 575.92C664.221 575.915 694.115 574.61 725.755 573.419C890.727 567.077 1074.8 537.26 1129.73 674.425" stroke="#FEDA66" stroke-width="5.45956" stroke-miterlimit="10"/>
<path d="M-315.423 908.918C-120.85 502.167 15.3369 372.199 115.113 356.746C181.348 346.426 223.283 391.254 273.148 433.07C302.574 457.752 332.067 483.249 364.648 508.532C457.803 580.991 521.495 602.209 644.866 604.6C673.427 605.119 703.297 603.772 734.613 601.934C900.274 592.288 1082.24 544.17 1140.5 674.425" stroke="#FEDA66" stroke-width="5.45956" stroke-miterlimit="10"/>
<path d="M-305.753 939.06C-113.932 539.065 22.4329 405.503 123.33 384.918C189.787 371.344 233.582 411.421 283.357 450.338C313.518 473.905 343.07 498.89 375.033 524.371C466.722 597.274 530.062 628.703 654.003 633.284C682.664 634.26 712.458 632.86 743.525 630.462C909.903 617.437 1089.74 550.977 1151.32 674.322" stroke="#FEDA66" stroke-width="5.45956" stroke-miterlimit="10"/>
<path d="M-295.954 969.135C-106.986 575.971 29.3521 438.709 131.578 412.908C198.284 396.04 243.915 431.321 293.547 467.367C324.444 489.784 354.106 514.342 385.631 540.023C475.777 613.479 538.87 655.017 663.152 661.751C693.122 662.93 722.935 661.9 752.476 658.667C919.519 642.426 1097.32 557.704 1162.15 674.021" stroke="#FEDA66" stroke-width="5.45956" stroke-miterlimit="10"/>
<path d="M-286.233 999.195C-100.04 612.832 36.48 471.735 139.726 440.752C206.682 420.616 254.175 451.028 303.793 484.297C335.426 505.529 365.147 529.653 396.132 555.555C484.811 629.59 547.58 681.291 672.256 690.155C702.195 691.884 731.956 690.837 761.354 687.023C929.147 667.097 1104.76 564.173 1173.03 673.461" stroke="#FEDA66" stroke-width="5.45956" stroke-miterlimit="10"/>
<path d="M-276.512 1029.21C-93.1191 649.557 43.6067 504.885 148.057 468.48C215.211 445.127 264.594 470.52 313.993 501.009C346.364 521.02 376.142 544.822 406.613 570.919C493.775 645.538 556.272 707.411 681.47 718.475C711.379 720.706 741.092 719.606 770.346 715.184C938.757 691.899 1112.29 570.506 1183.89 673.002" stroke="#FEDA66" stroke-width="5.45956" stroke-miterlimit="10"/>
<path d="M-266.765 1057.99C-86.127 683.572 50.6113 534.307 156.393 492.44C223.89 465.691 275.074 486.085 324.341 514.035C357.56 532.852 387.327 556.422 417.29 582.87C502.981 658.343 565.167 730.842 690.867 744.159C720.747 746.883 750.425 745.722 779.54 740.692C948.664 713.743 1120.16 573.305 1195.1 669.309" stroke="#FEDA66" stroke-width="5.45956" stroke-miterlimit="10"/>
<path d="M-257.044 1086.75C-79.2581 717.264 57.7729 563.811 164.76 516.428C232.55 486.307 285.538 501.568 334.723 527.07C368.612 544.754 398.573 568.056 427.978 594.811C512.197 671.299 574.1 754.408 700.28 769.89C730.132 773.112 759.778 771.891 788.753 766.244C958.594 735.55 1128.18 576.048 1206.35 665.346" stroke="#FEDA66" stroke-width="5.45956" stroke-miterlimit="10"/>
<path d="M-247.323 1115.52C-72.1592 751.305 64.9636 593.406 173.11 540.177C241.246 506.619 296.016 516.604 345.121 539.552C379.761 555.768 409.759 579.101 438.681 606.253C521.404 683.678 583.025 777.551 709.71 795.413C739.535 799.159 769.155 797.876 797.984 791.588C968.521 756.99 1135.97 578.02 1217.62 660.758" stroke="#FEDA66" stroke-width="5.45956" stroke-miterlimit="10"/>
<path d="M-237.575 1144.3C-65.1634 785.492 72.1522 623.381 181.384 564.162C249.84 527.205 306.368 531.771 355.392 552.241C390.784 567.004 420.871 590.297 449.262 617.685C530.538 696.086 591.876 800.862 719.043 821.01C748.844 825.247 778.451 823.902 807.144 817.009C978.253 778.146 1143.78 580.136 1228.85 656.051" stroke="#FEDA66" stroke-width="5.45956" stroke-miterlimit="10"/>
<path d="M-227.88 1173.17C47.4616 599.791 238.254 518.022 365.897 564.993C505.238 616.263 556.277 816.452 728.584 846.855C930.715 882.479 1136.83 570.45 1240.19 651.199" stroke="#FEDA66" stroke-width="5.45956" stroke-miterlimit="10"/>
</g>
<rect x="1.169" y="1.41754" width="479.349" height="523.026" rx="43.1305" stroke="#E1E1E1" stroke-width="1.09191"/>
<defs>
<clipPath id="clip0_18607_13862">
<rect x="0.623047" y="0.871582" width="480.441" height="524.118" rx="43.6765" fill="white"/>
</clipPath>
</defs>
</svg>
