<svg width="180" height="167" viewBox="0 0 180 167" fill="none" xmlns="http://www.w3.org/2000/svg">
<path d="M28.4125 158.073C37.786 166.064 55.371 164.732 62.9917 163.067L79.8527 160.57L87.5688 154.188C100.143 153.078 120.033 139.205 129.864 136.985C142.153 134.21 152.441 112.013 152.726 102.856C153.012 93.6995 149.011 79.826 149.583 72.3342C150.04 66.3408 157.966 56.3333 161.871 52.0788L173.874 14.8976C172.35 12.0303 164.043 5.96296 143.01 4.6311C116.718 2.96627 97.2853 13.7877 82.9963 21.8343C71.5651 28.2717 82.4247 34.3206 79.8527 37.0953C80.4243 40.1475 68.0786 44.0876 51.8464 52.0788C31.556 62.0678 13.5519 78.1611 6.69323 99.8039C-0.165477 121.447 16.6955 148.084 28.4125 158.073Z" fill="#CD966D"/>
<path d="M65.2853 44.4498C66.7598 44.6505 68.2609 44.6915 69.7473 44.5847C71.2338 44.4773 72.705 44.2221 74.1204 43.8293C75.5357 43.437 76.8942 42.9077 78.1544 42.2532C79.4146 41.5987 80.5772 40.819 81.5992 39.9261C82.6218 39.0325 83.4963 38.0327 84.213 36.9601C84.929 35.8874 85.4862 34.743 85.8735 33.5608C86.2609 32.3786 86.4773 31.1592 86.5126 29.9371C86.5479 28.7149 86.4014 27.4901 86.0618 26.2977C85.8893 25.6912 85.5301 25.1419 85.0457 24.6747C84.5607 24.2074 83.9504 23.8221 83.2744 23.5437C82.5985 23.2653 81.8564 23.0943 81.1099 23.0543C80.3629 23.0149 79.611 23.1067 78.9139 23.3554C77.965 23.6937 77.014 24.0337 76.0696 24.386C75.1251 24.7383 74.1876 25.1031 73.2676 25.491C72.3475 25.879 71.4448 26.2907 70.5687 26.7369C69.6931 27.1831 68.8446 27.6639 68.0336 28.1899C67.2225 28.716 66.45 29.2955 65.7388 29.9209C65.0282 30.5462 64.3788 31.218 63.8151 31.9286C63.2515 32.6397 62.7735 33.3897 62.4041 34.1727C62.0347 34.9556 61.7748 35.7709 61.6473 36.612C61.5198 37.4532 61.5415 38.344 61.681 39.2127C61.8204 40.0809 62.0781 40.9264 62.4231 41.6764C62.7676 42.4264 63.1994 43.0809 63.6866 43.5676C64.1737 44.0543 64.7168 44.3721 65.2853 44.4498Z" fill="#B07066"/>
<path d="M149.48 68.5037C147.143 69.667 144.645 68.705 142.262 66.3702C139.881 64.0355 137.616 60.3277 135.746 55.9992C133.876 51.6708 132.401 46.7225 131.6 41.9063C130.798 37.0901 130.669 32.4056 131.493 28.6065C132.387 24.4788 135.205 20.8351 139.019 17.9258C142.833 15.0164 147.646 12.8414 152.529 11.6522C157.413 10.4625 162.368 10.2585 166.47 11.2902C170.571 12.3218 173.818 14.5902 175.285 18.3456C175.745 19.5207 176.027 21.5873 176.069 24.2533C176.111 26.9193 175.913 30.1853 175.411 33.7594C174.909 37.3335 174.104 41.2167 172.931 45.1173C171.759 49.0172 170.22 52.935 168.251 56.5787C167.548 57.8802 166.483 59.0467 165.167 60.1221C163.851 61.1974 162.282 62.1816 160.572 63.1177C158.861 64.0539 157.009 64.942 155.123 65.8253C153.239 66.7091 151.321 67.587 149.48 68.5037Z" fill="#B07066"/>
<path d="M88.3945 41.2774C88.3945 39.2658 88.8231 37.3498 89.5989 35.6065C90.3746 33.8632 91.4965 32.2941 92.8831 30.9759C94.2697 29.6578 95.9211 28.5911 97.7547 27.854C99.5884 27.117 101.604 26.709 103.72 26.709C105.836 26.709 107.852 27.1164 109.685 27.854C111.519 28.5916 113.17 29.6578 114.557 30.9759C115.944 32.2941 117.066 33.8637 117.841 35.6065C118.616 37.3493 119.045 39.2658 119.045 41.2774C119.045 43.2889 118.616 45.2049 117.841 46.9482C117.065 48.691 115.944 50.2606 114.557 51.5787C113.17 52.8969 111.519 53.9636 109.685 54.7007C107.852 55.4377 105.836 55.8457 103.72 55.8457C101.604 55.8457 99.5884 55.4383 97.7547 54.7007C95.9211 53.9636 94.2703 52.8969 92.8831 51.5787C91.4965 50.2606 90.3741 48.691 89.5989 46.9482C88.8236 45.2054 88.3945 43.2889 88.3945 41.2774Z" fill="#B07066"/>
<path d="M144.083 77.158C144.058 77.158 144.033 77.1575 144.008 77.1559C143.983 77.1542 143.958 77.1521 143.933 77.1494C143.908 77.1467 143.882 77.1429 143.857 77.1386C143.831 77.1343 143.806 77.1294 143.781 77.1235C143.598 77.0825 143.433 77.0064 143.29 76.9039C143.147 76.8014 143.026 76.673 142.934 76.5267C142.842 76.3805 142.777 76.217 142.746 76.0443C142.715 75.8717 142.718 75.6904 142.759 75.5086C143.099 74.0204 143.746 72.6791 144.574 71.4866C145.402 70.2942 146.411 69.2512 147.475 68.3609C148.539 67.4701 149.658 66.732 150.706 66.1487C151.754 65.5654 152.732 65.1376 153.513 64.8683C157.088 63.6359 160.056 62.2109 162.536 60.3877C165.016 58.5645 167.007 56.3426 168.629 53.5153C170.251 50.6879 171.503 47.2558 172.504 43.011C173.505 38.7668 174.255 33.7105 174.873 27.6355C175.149 24.9134 175.053 22.4977 174.565 20.367C174.076 18.2362 173.197 16.3898 171.908 14.8057C170.618 13.2215 168.918 11.8985 166.79 10.8156C164.662 9.73212 162.106 8.88823 159.102 8.26072C149.618 6.27835 141.31 5.5305 134.005 5.63302C126.7 5.73608 120.398 6.6895 114.925 8.1118C109.452 9.53409 104.807 11.4247 100.817 13.4006C96.8273 15.3765 93.4926 17.4382 90.6385 19.2026C89.7277 19.7659 88.8646 20.299 88.041 20.7943C87.217 21.2896 86.432 21.7467 85.6769 22.1567C84.9217 22.5668 84.1969 22.9299 83.4928 23.2375C82.7892 23.545 82.1062 23.797 81.4356 23.9848C79.0584 24.6501 76.8445 25.3013 74.8253 26.0135C72.8062 26.7258 70.9823 27.5001 69.3852 28.4114C67.7886 29.3227 66.4194 30.3716 65.3094 31.6337C64.1995 32.8963 63.3494 34.372 62.7912 36.1369C62.6664 36.5319 62.6029 36.9797 62.6083 37.4534C62.6138 37.9272 62.6875 38.4268 62.8362 38.9265C62.9848 39.4261 63.2083 39.9252 63.5138 40.3979C63.8192 40.8705 64.206 41.3162 64.6812 41.7085C65.1163 42.0678 65.706 42.445 66.4812 42.7369C67.2564 43.0288 68.2172 43.2354 69.3944 43.2532C70.5716 43.2716 71.9653 43.1011 73.6063 42.6387C75.2474 42.1768 77.1364 41.423 79.3031 40.2743C79.468 40.1869 79.6438 40.1367 79.819 40.1211C79.9942 40.1054 80.17 40.1243 80.336 40.1745C80.502 40.2247 80.6582 40.3067 80.7955 40.4167C80.9322 40.5268 81.0499 40.666 81.1383 40.8301C81.2262 40.9946 81.2767 41.1689 81.2924 41.3432C81.3081 41.518 81.2892 41.6923 81.2387 41.8574C81.1883 42.0225 81.1058 42.1779 80.9951 42.3144C80.8845 42.4504 80.7445 42.5675 80.5796 42.6549C78.0624 43.9887 75.8436 44.8434 73.8955 45.3452C71.9474 45.847 70.2705 45.9964 68.8373 45.9209C67.404 45.8453 66.2148 45.5443 65.2427 45.1455C64.2705 44.7468 63.5148 44.2498 62.949 43.7826C62.2107 43.1729 61.6237 42.4876 61.1696 41.7651C60.7156 41.0426 60.3944 40.2835 60.1894 39.5265C59.9843 38.7695 59.8942 38.0151 59.9029 37.3018C59.9111 36.5885 60.0179 35.9173 60.2045 35.3265C60.9158 33.077 62.0355 31.2252 63.4443 29.6777C64.8526 28.1303 66.5507 26.886 68.4174 25.8506C70.2846 24.8152 72.3212 23.9886 74.4082 23.2763C76.4951 22.5641 78.6326 21.9657 80.7011 21.3868C81.2788 21.2249 81.8832 20.9983 82.519 20.715C83.1548 20.4317 83.821 20.0934 84.5235 19.7082C85.226 19.3229 85.9644 18.8907 86.7434 18.4213C87.5224 17.9519 88.3421 17.4452 89.2074 16.9105C92.1483 15.0927 95.5839 12.9684 99.6928 10.9326C103.802 8.89686 108.584 6.94848 114.218 5.48194C119.852 4.0154 126.337 3.03123 133.851 2.92278C141.366 2.81432 149.909 3.58159 159.66 5.61899C162.983 6.31341 165.842 7.29003 168.242 8.55531C170.641 9.8206 172.581 11.374 174.067 13.2226C175.553 15.0711 176.584 17.2148 177.166 19.6596C177.748 22.1049 177.881 24.8513 177.571 27.9063C176.927 34.2409 176.12 39.5459 175.03 44.0232C173.94 48.5 172.567 52.1496 170.794 55.1728C169.021 58.196 166.848 60.5933 164.155 62.5671C161.462 64.5402 158.25 66.0899 154.401 67.4172C153.636 67.6811 152.755 68.0776 151.847 68.5946C150.94 69.1109 150.006 69.7471 149.136 70.4895C148.266 71.2314 147.461 72.0801 146.808 73.0206C146.156 73.9611 145.658 74.9949 145.404 76.1069C145.368 76.2634 145.306 76.4069 145.224 76.5348C145.142 76.6627 145.039 76.7744 144.922 76.8667C144.804 76.9589 144.672 77.0312 144.531 77.0809C144.389 77.131 144.238 77.158 144.083 77.158Z" fill="#652815"/>
<path d="M117.546 33.4431C117.506 33.4431 117.467 33.4415 117.427 33.4377C117.388 33.434 117.348 33.4291 117.308 33.4221C117.268 33.4151 117.228 33.4059 117.189 33.3951C117.149 33.3843 117.109 33.3719 117.07 33.3568L113.564 32.0494L110.057 30.7421L106.55 29.4347L103.044 28.1273C102.868 28.062 102.714 27.9644 102.587 27.844C102.459 27.7237 102.357 27.5802 102.285 27.4226C102.213 27.2656 102.172 27.0946 102.164 26.9198C102.157 26.7444 102.184 26.5653 102.25 26.391C102.316 26.2167 102.414 26.0635 102.535 25.9367C102.656 25.8099 102.8 25.7079 102.958 25.6367C103.116 25.5655 103.288 25.5239 103.464 25.5164C103.64 25.5093 103.82 25.5358 103.996 25.6016L107.502 26.909L111.009 28.2163L114.516 29.5237L118.022 30.8311C118.198 30.8964 118.352 30.994 118.479 31.1144C118.607 31.2347 118.709 31.3782 118.781 31.5358C118.852 31.6928 118.894 31.8638 118.902 32.0386C118.909 32.2135 118.882 32.3931 118.816 32.5674C118.765 32.7029 118.695 32.8253 118.609 32.9327C118.523 33.0401 118.422 33.1329 118.31 33.2084C118.199 33.284 118.076 33.3428 117.948 33.3827C117.818 33.4226 117.683 33.4431 117.546 33.4431Z" fill="#652815"/>
<path d="M158.064 33.8366C157.962 33.8366 157.861 33.8252 157.761 33.8026C157.662 33.7799 157.566 33.7465 157.473 33.7022C157.381 33.658 157.292 33.6029 157.211 33.5371C157.129 33.4713 157.054 33.3952 156.987 33.3083C156.313 32.4337 155.526 31.6659 154.626 31.0049C153.727 30.344 152.717 29.7904 151.597 29.3447C150.477 28.899 149.247 28.5612 147.911 28.3319C146.574 28.1031 145.129 27.9828 143.579 27.972C143.392 27.9709 143.214 27.9316 143.052 27.8625C142.891 27.7929 142.745 27.6931 142.623 27.5706C142.501 27.4476 142.403 27.3019 142.336 27.14C142.268 26.9781 142.231 26.8006 142.232 26.6139C142.234 26.4278 142.275 26.2508 142.346 26.09C142.418 25.9292 142.521 25.7846 142.646 25.6638C142.771 25.5429 142.919 25.4447 143.08 25.3778C143.242 25.3103 143.417 25.2736 143.598 25.2747C145.369 25.2871 147.023 25.4307 148.559 25.7048C150.095 25.9789 151.513 26.3835 152.812 26.9172C154.11 27.4513 155.288 28.1145 156.343 28.9066C157.398 29.6986 158.331 30.6191 159.139 31.667C159.253 31.8148 159.331 31.9783 159.375 32.1483C159.42 32.3177 159.43 32.4931 159.407 32.6646C159.384 32.8362 159.329 33.0024 159.241 33.1551C159.154 33.3073 159.036 33.4454 158.888 33.5587C158.826 33.6056 158.762 33.6466 158.696 33.6812C158.629 33.7163 158.561 33.7449 158.491 33.7681C158.422 33.7913 158.351 33.8085 158.279 33.8199C158.208 33.8312 158.136 33.8366 158.064 33.8366Z" fill="#652815"/>
<path d="M171.191 29.8714C171.185 29.8714 171.179 29.8714 171.174 29.8714C171.168 29.8714 171.162 29.8714 171.156 29.8708C171.15 29.8708 171.144 29.8703 171.138 29.8703C171.132 29.8697 171.126 29.8697 171.12 29.8692C170.933 29.8595 170.758 29.8131 170.599 29.7365C170.44 29.6599 170.299 29.5541 170.183 29.4257C170.067 29.2973 169.975 29.1473 169.915 28.9827C169.855 28.8181 169.826 28.639 169.836 28.4528C169.894 27.3197 170.036 26.2622 170.263 25.2732C170.49 24.2841 170.804 23.3631 171.208 22.5025C171.613 21.6419 172.106 20.8422 172.694 20.0955C173.282 19.3487 173.963 18.6548 174.742 18.0063C174.885 17.887 175.047 17.8018 175.215 17.7505C175.384 17.6993 175.56 17.6815 175.732 17.6966C175.905 17.7117 176.075 17.7597 176.232 17.8396C176.389 17.9194 176.532 18.0311 176.652 18.1735C176.773 18.3165 176.858 18.4768 176.909 18.6441C176.961 18.8119 176.979 18.9867 176.963 19.1583C176.948 19.3304 176.9 19.4993 176.819 19.6552C176.739 19.8111 176.627 19.9541 176.483 20.0734C175.851 20.6 175.3 21.1595 174.828 21.7611C174.355 22.3627 173.96 23.007 173.638 23.7036C173.316 24.4002 173.067 25.1491 172.886 25.96C172.706 26.771 172.593 27.6446 172.545 28.5904C172.535 28.7706 172.491 28.9406 172.418 29.0944C172.345 29.2482 172.245 29.3857 172.123 29.5007C172.001 29.6156 171.858 29.7079 171.7 29.7715C171.542 29.8363 171.37 29.8714 171.191 29.8714Z" fill="#652815"/>
<path d="M146.36 61.6593C146.249 61.6593 146.139 61.6458 146.031 61.6188C145.923 61.5924 145.818 61.5524 145.72 61.5001C145.622 61.4477 145.529 61.383 145.445 61.3064C145.361 61.2298 145.285 61.1413 145.22 61.0415C145.118 60.885 145.053 60.7155 145.023 60.5429C144.992 60.3702 144.997 60.1943 145.033 60.026C145.069 59.8571 145.138 59.6952 145.237 59.5506C145.337 59.406 145.466 59.2776 145.623 59.1767C146.535 58.5918 147.469 58.0803 148.408 57.6271C149.347 57.1744 150.291 56.78 151.222 56.4292C152.153 56.0785 153.071 55.772 153.958 55.4947C154.844 55.2174 155.701 54.9686 156.507 54.7345C157.282 54.5089 158.031 54.2915 158.73 54.0708C159.43 53.8501 160.078 53.6262 160.654 53.3888C161.23 53.1514 161.731 52.8994 162.136 52.6231C162.541 52.3469 162.848 52.0458 163.035 51.7096C163.154 51.496 163.312 51.0077 163.471 50.3256C163.63 49.6436 163.791 48.7679 163.915 47.7805C164.039 46.7926 164.128 45.6929 164.142 44.562C164.156 43.4311 164.097 42.2694 163.925 41.1579C163.897 40.9739 163.907 40.7926 163.951 40.6226C163.994 40.4527 164.07 40.294 164.173 40.1548C164.275 40.0156 164.405 39.8958 164.555 39.8041C164.704 39.7124 164.875 39.6482 165.06 39.6201C165.246 39.5921 165.428 39.6023 165.599 39.6455C165.77 39.6886 165.929 39.7642 166.069 39.8662C166.209 39.9681 166.329 40.0971 166.421 40.246C166.513 40.3949 166.578 40.5649 166.606 40.7489C166.795 41.9764 166.868 43.2611 166.857 44.5215C166.847 45.782 166.754 47.0176 166.61 48.148C166.466 49.2784 166.273 50.303 166.061 51.1409C165.85 51.9789 165.621 52.6301 165.408 53.0132C165.087 53.5927 164.656 54.0827 164.131 54.5084C163.607 54.9341 162.988 55.2961 162.29 55.6204C161.592 55.9447 160.815 56.2312 159.973 56.5064C159.13 56.7816 158.223 57.0449 157.266 57.3228C156.462 57.5564 155.631 57.7976 154.786 58.0614C153.941 58.3253 153.08 58.6118 152.216 58.935C151.352 59.2587 150.486 59.6192 149.628 60.0325C148.771 60.4452 147.922 60.9103 147.093 61.4418C147.036 61.4785 146.978 61.5098 146.918 61.5373C146.858 61.5648 146.797 61.587 146.735 61.6048C146.673 61.6226 146.611 61.6361 146.548 61.6447C146.486 61.6549 146.423 61.6593 146.36 61.6593Z" fill="#652815"/>
<path d="M168.344 55.9196C168.13 55.9196 167.914 55.9078 167.698 55.8835C167.481 55.8598 167.263 55.8236 167.044 55.7756C166.826 55.7276 166.607 55.6677 166.388 55.5959C166.17 55.5241 165.952 55.4405 165.735 55.345C165.398 55.1966 165.079 55.0251 164.783 54.8367C164.488 54.6484 164.217 54.4434 163.976 54.2276C163.736 54.0117 163.527 53.7846 163.354 53.552C163.182 53.32 163.047 53.0826 162.956 52.8457C162.888 52.672 162.86 52.4929 162.866 52.3175C162.872 52.1427 162.912 51.9711 162.983 51.8136C163.053 51.656 163.154 51.5114 163.281 51.39C163.408 51.2686 163.561 51.1693 163.736 51.1029C163.91 51.0366 164.09 51.0085 164.266 51.0144C164.441 51.0204 164.613 51.0603 164.771 51.1299C164.93 51.1995 165.074 51.2993 165.197 51.4251C165.319 51.5508 165.418 51.7019 165.486 51.8756C165.546 52.0073 165.715 52.1853 165.957 52.3682C166.199 52.5511 166.515 52.74 166.872 52.8932C167.23 53.0465 167.629 53.1641 168.037 53.2056C168.445 53.2472 168.862 53.2126 169.255 53.061C169.43 52.9936 169.61 52.965 169.786 52.9704C169.962 52.9758 170.134 53.0152 170.293 53.0848C170.452 53.1544 170.598 53.2542 170.72 53.3799C170.843 53.5056 170.943 53.6572 171.01 53.831C171.078 54.0047 171.107 54.1839 171.102 54.3587C171.096 54.534 171.057 54.7051 170.987 54.8632C170.917 55.0213 170.816 55.1659 170.69 55.2878C170.563 55.4098 170.411 55.509 170.236 55.5765C170.088 55.6337 169.936 55.6839 169.782 55.727C169.628 55.7702 169.472 55.8058 169.314 55.8344C169.156 55.863 168.996 55.8846 168.834 55.8986C168.672 55.9126 168.508 55.9196 168.344 55.9196Z" fill="#652815"/>
<path d="M116.451 143.371C116.292 143.371 116.137 143.343 115.992 143.291C115.848 143.239 115.713 143.163 115.595 143.067C115.476 142.971 115.373 142.854 115.293 142.721C115.212 142.589 115.153 142.44 115.121 142.278C115.085 142.095 115.089 141.914 115.126 141.743C115.162 141.571 115.232 141.41 115.329 141.267C115.426 141.124 115.551 140.999 115.697 140.901C115.843 140.804 116.011 140.733 116.195 140.697C122.177 139.545 127.52 137.537 132.115 134.821C136.71 132.105 140.557 128.679 143.545 124.692C146.533 120.704 148.663 116.154 149.826 111.187C150.988 106.22 151.183 100.837 150.301 95.1844C150.249 94.8564 150.196 94.5245 150.14 94.1889C150.084 93.8533 150.025 93.5139 149.965 93.1702C149.905 92.8265 149.843 92.4785 149.78 92.1262C149.717 91.7733 149.652 91.4166 149.587 91.054C149.226 89.0576 148.854 86.9954 148.558 84.9078C148.262 82.8202 148.044 80.7078 147.993 78.6116C147.941 76.5159 148.056 74.4365 148.427 72.4158C148.798 70.3951 149.424 68.4327 150.396 66.5701C150.482 66.4045 150.598 66.2647 150.733 66.1525C150.869 66.0408 151.025 65.9572 151.19 65.9048C151.356 65.853 151.531 65.832 151.707 65.846C151.882 65.86 152.058 65.9081 152.224 65.9938C152.39 66.0796 152.531 66.1946 152.643 66.3295C152.756 66.4644 152.84 66.6187 152.892 66.7832C152.944 66.9478 152.965 67.1221 152.951 67.2969C152.937 67.4717 152.889 67.6465 152.802 67.8117C151.937 69.4703 151.385 71.2498 151.064 73.1043C150.744 74.9588 150.656 76.8882 150.718 78.8463C150.78 80.8044 150.994 82.7922 151.277 84.7621C151.561 86.7321 151.914 88.6853 152.255 90.576C152.321 90.9423 152.386 91.3033 152.45 91.66C152.514 92.0166 152.577 92.369 152.638 92.7175C152.699 93.0661 152.758 93.4109 152.815 93.7524C152.872 94.094 152.928 94.4328 152.98 94.769C153.424 97.6114 153.601 100.432 153.522 103.2C153.442 105.968 153.103 108.682 152.514 111.312C151.925 113.942 151.085 116.487 150 118.916C148.916 121.344 147.588 123.656 146.022 125.82C144.389 128.077 142.531 130.148 140.465 132.024C138.399 133.9 136.124 135.58 133.658 137.054C131.193 138.528 128.536 139.796 125.705 140.848C122.875 141.9 119.87 142.735 116.709 143.345C116.687 143.349 116.666 143.353 116.644 143.355C116.622 143.359 116.601 143.361 116.579 143.363C116.557 143.365 116.535 143.367 116.514 143.368C116.494 143.37 116.473 143.371 116.451 143.371Z" fill="#652815"/>
<path d="M47.0957 130.001C46.667 129.811 46.1602 129.992 45.9638 130.407C45.7378 130.884 45.3216 131.501 44.8431 131.859C44.6116 132.033 44.4103 132.112 44.2443 132.129C44.0983 132.143 43.908 132.118 43.6542 131.943C42.2204 130.954 41.5615 129.527 41.4268 129.015L41.4077 128.951C41.2984 128.642 41.0081 128.421 40.6663 128.395C40.3245 128.369 40.0023 128.543 39.8444 128.833L39.8149 128.892C39.5097 129.579 38.9628 130.541 38.3338 131.215C38.0178 131.554 37.7281 131.768 37.4888 131.867C37.2801 131.952 37.1379 131.944 36.994 131.872C36.4477 131.598 36.0085 131.003 35.6942 130.226C35.3868 129.466 35.2524 128.661 35.225 128.174C35.1992 127.719 34.7967 127.37 34.3258 127.394C33.855 127.419 33.4942 127.808 33.5199 128.264C33.5556 128.898 33.7203 129.879 34.1037 130.827C34.4803 131.759 35.1243 132.796 36.2097 133.339C36.8815 133.675 37.5654 133.631 38.1572 133.387C38.7184 133.157 39.2039 132.749 39.6018 132.322C39.9524 131.946 40.2718 131.516 40.5491 131.085C41.0197 131.821 41.7078 132.629 42.6631 133.287C43.223 133.673 43.8229 133.832 44.4204 133.772C44.9978 133.714 45.4935 133.462 45.8894 133.166C46.6656 132.584 47.2264 131.707 47.5161 131.096C47.7125 130.681 47.5244 130.191 47.0957 130.001Z" fill="#652815"/>
<path d="M49.6881 143.185C49.3676 143.043 48.9887 143.179 48.8419 143.489C48.6729 143.845 48.3617 144.306 48.0039 144.574C47.8309 144.704 47.6804 144.764 47.5563 144.776C47.4471 144.787 47.3048 144.768 47.1151 144.637C46.0431 143.898 45.5504 142.83 45.4497 142.448L45.4354 142.4C45.3537 142.169 45.1367 142.004 44.8811 141.984C44.6256 141.965 44.3847 142.095 44.2666 142.311L44.2446 142.356C44.0164 142.869 43.6075 143.589 43.1372 144.093C42.901 144.346 42.6844 144.506 42.5054 144.58C42.3494 144.644 42.2431 144.637 42.1355 144.584C41.727 144.379 41.3987 143.934 41.1637 143.353C40.9338 142.785 40.8334 142.183 40.8129 141.819C40.7936 141.479 40.4927 141.218 40.1406 141.236C39.7886 141.255 39.5188 141.546 39.538 141.886C39.5648 142.361 39.6879 143.094 39.9746 143.803C40.2561 144.499 40.7376 145.275 41.5491 145.681C42.0514 145.932 42.5627 145.899 43.0052 145.717C43.4248 145.545 43.7878 145.239 44.0852 144.921C44.3474 144.64 44.5862 144.318 44.7935 143.996C45.1454 144.546 45.6598 145.15 46.3741 145.642C46.7926 145.931 47.2412 146.049 47.6879 146.004C48.1196 145.961 48.4902 145.773 48.7862 145.551C49.3666 145.116 49.7859 144.461 50.0025 144.004C50.1493 143.694 50.0087 143.327 49.6881 143.185Z" fill="#652815"/>
<path d="M151.253 72.3054L128.24 68.1018L105.23 72.3054V75.9882L128.24 81.1226L151.253 75.9882V72.3054Z" fill="url(#paint0_linear_125_19663)"/>
<path d="M151.253 72.3054L128.24 68.1018L105.23 72.3054V75.9882L128.24 81.1226L151.253 75.9882V72.3054Z" fill="#9E740B"/>
<path d="M128.24 68.1018L105.231 72.3053V75.988L128.24 81.1226L151.253 75.988V72.3053L128.24 68.1018ZM153.254 77.5347L128.24 83.1156L103.23 77.5347V70.6944L128.24 66.1253L153.254 70.6944V77.5347Z" fill="#652815"/>
<path d="M97.0281 75.9845C90.8573 75.9845 85.8545 80.5021 85.8545 86.0687V154.301C85.8545 159.872 90.8573 164.386 97.0243 164.386H159.577C165.744 164.386 170.747 159.872 170.747 154.301V86.0724C170.747 80.5021 165.744 75.9882 159.577 75.9882L97.0281 75.9845Z" fill="url(#paint1_linear_125_19663)"/>
<path d="M97.0281 75.9845C90.8573 75.9845 85.8545 80.5021 85.8545 86.0687V154.301C85.8545 159.872 90.8573 164.386 97.0243 164.386H159.577C165.744 164.386 170.747 159.872 170.747 154.301V86.0724C170.747 80.5021 165.744 75.9882 159.577 75.9882L97.0281 75.9845Z" fill="url(#paint2_radial_125_19663)"/>
<path d="M97.0281 75.9845C90.8573 75.9845 85.8545 80.5021 85.8545 86.0687V154.301C85.8545 159.872 90.8573 164.386 97.0243 164.386H159.577C165.744 164.386 170.747 159.872 170.747 154.301V86.0724C170.747 80.5021 165.744 75.9882 159.577 75.9882L97.0281 75.9845Z" fill="#B0E5EC"/>
<path d="M159.577 162.443V164.386H97.0244V162.443H159.577ZM85.8545 154.301V86.0686C85.8546 80.502 90.8573 75.9845 97.0281 75.9845L159.577 75.9883C165.744 75.9883 170.747 80.5021 170.747 86.0724V154.301L170.743 154.562C170.59 160.012 165.648 164.386 159.577 164.386V162.443C164.779 162.443 168.746 158.668 168.746 154.301V86.0724C168.746 81.7057 164.779 77.9306 159.577 77.9306L97.0281 77.9268C91.8223 77.9268 87.855 81.7057 87.8549 86.0686V154.301C87.855 158.668 91.8224 162.443 97.0244 162.443V164.386L96.7362 164.382C90.798 164.246 86.0086 159.925 85.8581 154.562L85.8545 154.301Z" fill="#0E69B3"/>
<path d="M97.6597 66.6318C97.6597 63.4957 100.273 60.958 103.503 60.958H152.923C154.446 60.9958 155.894 61.6099 156.958 62.6695C158.022 63.7291 158.617 65.1502 158.617 66.6299C158.617 68.1096 158.022 69.5308 156.958 70.5904C155.894 71.6499 154.446 72.2641 152.923 72.3018H103.499C101.95 72.3018 100.465 71.7046 99.3688 70.6413C98.273 69.5781 97.6607 68.1359 97.6597 66.6318Z" fill="url(#paint3_linear_125_19663)"/>
<path d="M97.6597 66.6318C97.6597 63.4957 100.273 60.958 103.503 60.958H152.923C154.446 60.9958 155.894 61.6099 156.958 62.6695C158.022 63.7291 158.617 65.1502 158.617 66.6299C158.617 68.1096 158.022 69.5308 156.958 70.5904C155.894 71.6499 154.446 72.2641 152.923 72.3018H103.499C101.95 72.3018 100.465 71.7046 99.3688 70.6413C98.273 69.5781 97.6607 68.1359 97.6597 66.6318Z" fill="#E2A610"/>
<path d="M156.617 66.6299C156.617 65.6568 156.225 64.7222 155.526 64.0254C154.83 63.3322 153.884 62.9289 152.887 62.9003H103.503C101.378 62.9004 99.6601 64.5685 99.6601 66.6318C99.6611 67.6238 100.065 68.5709 100.783 69.2675C101.504 69.9667 102.481 70.3595 103.499 70.3595V72.3019L103.354 72.3C101.906 72.2651 100.522 71.709 99.4726 70.7397L99.3688 70.6414C98.273 69.5781 97.6607 68.1359 97.6597 66.6318C97.6597 63.5447 100.192 61.0374 103.352 60.9599L103.503 60.958H152.923C154.446 60.9958 155.894 61.6099 156.958 62.6695C158.022 63.729 158.617 65.1502 158.617 66.6299L158.615 66.7684C158.58 68.1981 157.989 69.5639 156.958 70.5904L156.857 70.6885C155.838 71.6556 154.489 72.2277 153.065 72.2967L152.923 72.3019H103.499V70.3595H152.887C153.884 70.3309 154.83 69.9277 155.526 69.2345C156.204 68.5594 156.592 67.6612 156.616 66.721L156.617 66.6299Z" fill="#652815"/>
<path d="M81.6245 158.934C80.8927 158.077 80.2517 157.144 79.7083 156.155C79.165 155.166 78.7188 154.121 78.3777 153.043C78.0361 151.965 77.7991 150.853 77.6731 149.728C77.5471 148.604 77.5327 147.467 77.6355 146.339C77.739 145.211 77.9598 144.097 78.2875 143.015C78.6153 141.933 79.0505 140.884 79.5817 139.887C80.1135 138.891 80.7412 137.948 81.4551 137.077C82.169 136.207 82.9684 135.408 83.8429 134.703C84.1331 134.469 84.4354 134.243 84.7481 134.035C85.0608 133.826 85.3845 133.636 85.7186 133.471C86.0521 133.305 86.3961 133.166 86.7487 133.062C87.1013 132.958 87.4637 132.887 87.8336 132.861C88.2041 132.835 88.5827 132.862 88.9509 132.939C89.3191 133.016 89.6769 133.144 90.0052 133.319C90.3335 133.494 90.6324 133.716 90.8827 133.982C91.133 134.247 91.3347 134.557 91.4694 134.907C91.9017 136.033 92.2214 137.2 92.4283 138.389C92.6352 139.577 92.7295 140.786 92.7115 141.993C92.6936 143.2 92.5636 144.405 92.3214 145.587C92.0792 146.768 91.7249 147.926 91.2596 149.037C90.7937 150.148 90.218 151.21 89.5509 152.207C88.8839 153.203 88.1267 154.133 87.2978 154.98C86.4689 155.827 85.5689 156.591 84.6169 157.256C83.6649 157.92 82.6609 158.485 81.6245 158.934Z" fill="#B07066"/>
<path d="M36.2513 92.2813C35.8718 92.2604 35.5367 92.022 35.4041 91.6703C35.2626 91.295 35.3831 90.8746 35.7035 90.6262C36.3476 90.1268 37.3967 89.3529 38.4634 88.6443C39.495 87.9591 40.6568 87.2571 41.4868 86.9881C41.9896 86.8251 42.5865 86.7932 43.1501 86.811C43.7316 86.8294 44.363 86.9044 44.9774 87.0044C46.0527 87.1795 47.1319 87.4413 47.9003 87.6579L48.2096 87.7477C48.5797 87.8582 48.8454 88.1741 48.8834 88.5483C48.9213 88.9225 48.7238 89.2812 48.3827 89.457C47.3999 89.9634 44.9184 91.111 42.9009 91.595C40.888 92.0779 37.6624 92.2527 36.328 92.2828L36.2513 92.2813ZM39.4711 90.2313C40.5313 90.131 41.6144 89.9877 42.4354 89.7908C43.2634 89.5921 44.2047 89.2575 45.0703 88.9074C44.9367 88.8829 44.8027 88.8592 44.669 88.8375C44.1044 88.7455 43.5634 88.6833 43.0958 88.6685C42.6102 88.6532 42.2811 88.6924 42.0984 88.7516C41.5572 88.927 40.6027 89.4786 39.5465 90.1801C39.5212 90.197 39.4964 90.2144 39.4711 90.2313Z" fill="#662425"/>
<path d="M114.057 92.0852C112.965 91.2646 94.98 80.4757 86.1241 75.1838L55.6671 87.815C56.7675 91.2253 59.9468 98.3602 63.8616 99.6166C68.7551 101.187 95.7224 112.152 104.526 111.404C113.33 110.657 116.067 107.371 122.817 103.44C129.567 99.5098 131.332 95.6242 127.442 93.2253C123.552 90.8264 115.423 93.1109 114.057 92.0852Z" fill="#CD966D"/>
<path d="M104.58 103.094C102.404 103.094 100.639 104.774 100.639 106.85V125.619C100.639 127.691 102.404 129.372 104.58 129.372H151.907C154.076 129.372 155.841 127.691 155.841 125.619V106.85C155.841 104.774 154.08 103.094 151.903 103.094H104.58Z" fill="#52B3D3"/>
<path d="M113.225 92.0409C106.623 91.7854 96.1184 103.372 91.6916 109.197C93.971 110.12 99.7423 111.879 104.592 111.527C110.654 111.086 115.442 108.005 121.121 104.78C126.8 101.555 130.601 97.2534 128.874 94.3736C127.146 91.4939 121.477 92.3603 113.225 92.0409Z" fill="#B07066"/>
<path d="M51.0733 89.1293C50.861 88.4713 51.2382 87.7707 51.9159 87.5645C52.5937 87.3584 53.3153 87.7249 53.5276 88.3829C53.7391 89.0382 54.2555 89.9326 55.0514 90.9687C55.833 91.9862 56.8293 93.0699 57.9209 94.098C60.1474 96.1951 62.5913 97.894 64.2648 98.4311L64.5171 98.5138C65.8577 98.9609 68.3817 99.9095 71.4982 101.059C74.8489 102.295 78.9394 103.784 83.148 105.2C87.3602 106.617 91.6707 107.954 95.4625 108.888C99.3029 109.835 102.451 110.327 104.414 110.16C112.829 109.446 115.17 106.437 122.155 102.37C125.475 100.436 127.31 98.6498 127.942 97.2557C128.238 96.6012 128.242 96.0993 128.096 95.6946C127.943 95.2723 127.562 94.7787 126.752 94.2792C126.016 93.8252 125.001 93.5503 123.764 93.4208C122.538 93.2926 121.196 93.3168 119.873 93.3872C118.618 93.454 117.235 93.5744 116.22 93.6068C115.692 93.6237 115.172 93.6218 114.717 93.5708C114.334 93.5279 113.804 93.4329 113.358 93.135L113.27 93.0729C113.061 92.9158 111.811 92.134 109.791 90.899C107.817 89.6916 105.192 88.1022 102.323 86.372C98.0197 83.7769 93.1703 80.8673 89.1469 78.4586L85.4495 76.2473L85.3941 76.2123C84.8334 75.838 84.6678 75.0983 85.0285 74.5294C85.3891 73.9605 86.1438 73.7708 86.7405 74.0881L86.7975 74.1205L90.4964 76.3328C94.5217 78.7426 99.3737 81.6538 103.68 84.2506C106.551 85.9817 109.18 87.5741 111.162 88.7858C112.989 89.9032 114.346 90.7453 114.777 91.0492C114.806 91.0571 114.878 91.0748 115.012 91.0898C115.278 91.1195 115.648 91.1262 116.135 91.1106C117.15 91.0782 118.299 90.9697 119.732 90.8934C121.098 90.8208 122.604 90.7878 124.039 90.938C125.463 91.0869 126.923 91.426 128.131 92.1715C129.266 92.8714 130.123 93.7631 130.522 94.8669C130.928 95.9883 130.798 97.1533 130.296 98.2613C129.33 100.392 126.907 102.514 123.478 104.511C116.963 108.305 113.83 111.868 104.638 112.648C102.199 112.855 98.6741 112.257 94.8292 111.309C90.9358 110.349 86.5479 108.986 82.3061 107.559C78.0608 106.131 73.9417 104.632 70.5846 103.393C67.4126 102.223 64.968 101.305 63.6961 100.88L63.4576 100.802C61.2163 100.083 58.4299 98.0566 56.1299 95.8902C54.9582 94.7866 53.8671 93.6038 52.9897 92.4616C52.1265 91.3379 51.412 90.1791 51.0733 89.1293Z" fill="#652815"/>
<path d="M170.449 125.609C171.259 124.966 172.006 124.16 172.674 123.225C173.342 122.29 173.932 121.228 174.427 120.074C174.923 118.921 175.324 117.676 175.615 116.378C175.906 115.08 176.088 113.727 176.143 112.357C176.198 110.987 176.127 109.612 175.942 108.27C175.757 106.928 175.459 105.621 175.06 104.386C174.661 103.152 174.161 101.991 173.573 100.943C172.984 99.8941 172.308 98.9584 171.556 98.1748C170.951 97.5447 170.269 97.1907 169.562 97.0732C168.855 96.9564 168.123 97.0754 167.421 97.3934C166.718 97.7107 166.044 98.2262 165.454 98.8997C164.863 99.5731 164.354 100.406 163.982 101.358C163.609 102.31 163.353 103.333 163.198 104.392C163.043 105.453 162.99 106.551 163.026 107.652C163.06 108.755 163.183 109.861 163.38 110.938C163.577 112.016 163.848 113.064 164.179 114.049C164.51 115.035 164.892 115.971 165.324 116.891C165.756 117.81 166.237 118.713 166.763 119.633C167.29 120.552 167.863 121.488 168.478 122.473C169.093 123.458 169.752 124.493 170.449 125.609Z" fill="#B07066"/>
<path d="M167.42 97.3935C168.123 97.0755 168.854 96.9564 169.562 97.0732C170.268 97.1907 170.951 97.5448 171.555 98.1749C172.307 98.9585 172.984 99.8941 173.572 100.943C174.161 101.991 174.66 103.152 175.06 104.387C175.459 105.621 175.757 106.928 175.942 108.27C176.126 109.612 176.198 110.987 176.143 112.357C176.088 113.727 175.906 115.08 175.615 116.378L175.559 116.621C175.274 117.832 174.892 118.993 174.427 120.074C173.932 121.228 173.341 122.29 172.673 123.225L172.547 123.399C171.912 124.26 171.208 125.006 170.449 125.609C169.752 124.493 169.093 123.458 168.477 122.473C167.939 121.611 167.434 120.787 166.963 119.979L166.763 119.633C166.303 118.828 165.877 118.036 165.489 117.235L165.324 116.891C164.946 116.086 164.606 115.269 164.305 114.416L164.179 114.049C163.889 113.187 163.646 112.277 163.458 111.341L163.38 110.938C163.183 109.861 163.06 108.755 163.026 107.653C162.993 106.62 163.037 105.59 163.17 104.592L163.198 104.392C163.343 103.399 163.577 102.438 163.913 101.537L163.982 101.358C164.331 100.465 164.799 99.6778 165.344 99.0279L165.454 98.8998C166.007 98.2684 166.634 97.7758 167.289 97.4552L167.42 97.3935ZM169.226 98.9881C168.994 98.9498 168.698 98.9726 168.338 99.1222L168.265 99.1539L168.264 99.1545C167.864 99.3353 167.412 99.6621 166.977 100.159L166.976 100.159C166.543 100.652 166.148 101.289 165.852 102.048C165.559 102.796 165.344 103.617 165.205 104.49L165.179 104.665C165.059 105.486 165.007 106.344 165.017 107.217L165.025 107.592V107.593L165.041 107.97C165.086 108.849 165.192 109.732 165.35 110.599C165.531 111.589 165.779 112.55 166.081 113.447C166.386 114.357 166.74 115.225 167.144 116.085C167.549 116.946 168.004 117.802 168.511 118.689H168.511C168.893 119.355 169.302 120.034 169.74 120.744L170.188 121.466L170.189 121.466L170.664 122.224C170.708 122.294 170.751 122.364 170.796 122.434C170.874 122.331 170.953 122.226 171.03 122.118C171.609 121.307 172.134 120.368 172.581 119.327L172.581 119.326L172.664 119.13C173.073 118.145 173.411 117.08 173.661 115.965C173.927 114.776 174.093 113.536 174.144 112.282V112.281L174.152 112.046C174.186 110.869 174.118 109.686 173.959 108.528L173.926 108.296C173.755 107.143 173.492 106.024 173.151 104.968V104.968C172.787 103.842 172.336 102.799 171.816 101.872L171.816 101.872C171.295 100.944 170.712 100.146 170.092 99.4989L170.091 99.4983C169.757 99.1496 169.459 99.027 169.226 98.9878V98.9881Z" fill="#652815"/>
<path d="M135.026 155.248C133.995 150.902 137.512 146.19 142.946 144.975L143.201 144.92C148.546 143.846 153.747 146.601 154.761 150.879L154.806 151.083C155.674 155.357 151.945 159.499 146.596 160.695L146.418 159.943C151.625 158.779 154.879 154.812 153.987 151.052C153.08 147.228 148.251 144.58 143.125 145.726C137.999 146.872 134.893 151.251 135.8 155.075C136.697 158.856 141.239 161.101 146.418 159.943L146.596 160.695L146.341 160.749C141.088 161.82 136.199 159.599 135.077 155.45L135.026 155.248Z" fill="url(#paint4_linear_125_19663)"/>
<path d="M154.538 149.142C156.242 154.471 153.293 158.858 146.915 160.652C140.501 162.146 135.565 159.125 134.276 154.537C132.986 149.95 136.5 144.647 142.154 143.383C147.807 142.118 153.47 144.641 154.538 149.142Z" fill="url(#paint5_linear_125_19663)"/>
<path d="M134.054 153.185C133.023 148.839 136.661 144.1 142.244 142.852L142.505 142.796C147.997 141.69 153.315 144.417 154.33 148.696L154.375 148.899C155.239 153.175 151.387 157.344 145.891 158.573L145.713 157.821C148.357 157.23 150.567 155.926 151.984 154.298C153.398 152.674 154.004 150.759 153.556 148.869C152.653 145.062 147.718 142.419 142.422 143.603C137.126 144.788 133.925 149.206 134.828 153.012C135.721 156.778 140.364 159.017 145.713 157.821L145.891 158.573L145.63 158.629C140.233 159.731 135.23 157.536 134.105 153.388L134.054 153.185Z" fill="url(#paint6_linear_125_19663)"/>
<path d="M154.082 148.163C155.071 152.334 151.366 156.723 145.806 157.966C140.246 159.21 134.937 156.836 133.948 152.666C132.958 148.495 136.663 144.106 142.223 142.862C147.783 141.619 153.092 143.992 154.082 148.163Z" fill="#FFD93B"/>
<path d="M151.931 148.644C151.327 146.095 147.639 143.85 142.718 144.95C137.797 146.051 135.493 149.636 136.098 152.185C136.703 154.734 140.39 156.979 145.311 155.879L145.806 157.966L145.546 158.022C140.168 159.117 135.085 156.845 133.997 152.86L133.948 152.666C132.958 148.495 136.663 144.106 142.223 142.862L142.484 142.807C147.948 141.694 153.108 144.058 154.082 148.163L154.124 148.359C154.955 152.47 151.279 156.742 145.806 157.966L145.311 155.879C150.232 154.778 152.536 151.193 151.931 148.644Z" fill="url(#paint7_linear_125_19663)"/>
<path d="M151.55 148.732C151.223 147.354 150.114 146.255 148.521 145.612C146.929 144.971 144.881 144.8 142.76 145.275C140.638 145.749 138.873 146.772 137.731 148.025C136.588 149.279 136.086 150.739 136.413 152.117C136.74 153.495 137.849 154.595 139.442 155.237C141.033 155.879 143.081 156.049 145.203 155.575L145.282 155.909L145.078 155.952C140.852 156.82 136.904 155.227 136.105 152.335L136.069 152.194C135.351 149.165 138.311 145.918 142.681 144.941L142.885 144.897C147.178 144.016 151.187 145.674 151.894 148.655L151.925 148.797C152.519 151.785 149.584 154.947 145.282 155.909L145.203 155.575C147.325 155.1 149.089 154.077 150.232 152.824C151.375 151.57 151.877 150.11 151.55 148.732Z" fill="url(#paint8_linear_125_19663)"/>
<g filter="url(#filter0_f_125_19663)">
<path d="M153.397 153.699L153.787 156.039C155.077 154.078 155.004 152.054 154.89 151.455C154.838 150.893 154.651 150.057 154.408 149.125C153.912 146.309 151.695 143.069 146.266 142.581C139.747 142.146 135.911 145.85 134.848 147.745L153.005 153.283L153.397 153.699Z" fill="url(#paint9_linear_125_19663)" fill-opacity="0.3"/>
</g>
<path d="M121.958 152.837C122.103 148.379 117.714 144.417 112.141 144.245L111.88 144.24C106.422 144.189 101.868 147.868 101.725 152.256L101.721 152.464C101.721 156.821 106.205 160.184 111.691 160.354L111.716 159.583C106.375 159.418 102.392 156.137 102.518 152.281C102.647 148.359 106.858 144.853 112.115 145.016C117.373 145.178 121.292 148.89 121.164 152.812C121.037 156.691 117.028 159.747 111.716 159.583L111.691 160.354L111.952 160.359C117.319 160.423 121.674 157.326 121.947 153.045L121.958 152.837Z" fill="url(#paint10_linear_125_19663)"/>
<path d="M101.598 150.51C100.987 156.058 104.755 159.809 111.369 160.371C117.959 160.633 122.201 156.742 122.552 151.999C122.903 147.257 118.399 142.713 112.601 142.534C106.802 142.355 101.749 145.893 101.598 150.51Z" fill="url(#paint11_linear_125_19663)"/>
<path d="M122.5 150.631C122.646 146.173 118.133 142.207 112.406 142.03L112.139 142.025C106.531 141.97 101.856 145.645 101.713 150.033L101.709 150.241C101.713 154.598 106.322 157.965 111.959 158.139L111.984 157.368C109.273 157.285 106.845 156.421 105.13 155.089C103.419 153.761 102.443 151.996 102.506 150.058C102.634 146.153 106.949 142.634 112.381 142.801C117.813 142.969 121.834 146.702 121.706 150.607C121.58 154.469 117.47 157.538 111.984 157.368L111.959 158.139L112.227 158.145C117.741 158.214 122.212 155.12 122.49 150.839L122.5 150.631Z" fill="url(#paint12_linear_125_19663)"/>
<path d="M101.85 149.464C101.71 153.742 106.22 157.352 111.922 157.528C117.625 157.704 122.361 154.379 122.501 150.101C122.641 145.823 118.132 142.213 112.429 142.037C106.727 141.861 101.99 145.186 101.85 149.464Z" fill="#FFD93B"/>
<path d="M104.056 149.532C104.141 146.918 107.312 144.022 112.359 144.178C117.406 144.334 120.381 147.419 120.295 150.033C120.21 152.647 117.04 155.543 111.992 155.387L111.922 157.528L112.189 157.534C117.683 157.599 122.217 154.416 122.491 150.301L122.501 150.101C122.641 145.823 118.132 142.213 112.429 142.037L112.162 142.031C106.58 141.965 101.988 145.253 101.85 149.464L101.847 149.664C101.852 153.854 106.309 157.355 111.922 157.528L111.992 155.387C106.945 155.231 103.97 152.146 104.056 149.532Z" fill="url(#paint13_linear_125_19663)"/>
<path d="M104.448 149.547C104.494 148.133 105.364 146.846 106.798 145.917C108.232 144.989 110.208 144.437 112.384 144.504C114.56 144.571 116.495 145.243 117.865 146.259C119.236 147.274 120.02 148.612 119.973 150.026C119.927 151.439 119.058 152.726 117.623 153.655C116.189 154.584 114.214 155.136 112.038 155.068L112.027 155.411L112.236 155.416C116.554 155.473 120.112 153.169 120.319 150.182L120.326 150.036C120.428 146.93 116.877 144.3 112.395 144.161L112.185 144.157C107.798 144.099 104.195 146.478 104.095 149.536L104.093 149.681C104.105 152.724 107.615 155.275 112.027 155.411L112.038 155.068C109.862 155.001 107.927 154.329 106.556 153.314C105.185 152.298 104.402 150.96 104.448 149.547Z" fill="url(#paint14_linear_125_19663)"/>
<g filter="url(#filter1_f_125_19663)">
<path d="M103.624 154.767L103.708 157.136C102.051 155.454 101.72 153.455 101.713 152.845C101.652 152.284 101.669 151.429 101.722 150.469C101.647 147.613 103.177 144.017 108.406 142.52C114.715 140.869 119.217 143.783 120.637 145.442L103.926 154.285L103.624 154.767Z" fill="url(#paint15_linear_125_19663)" fill-opacity="0.3"/>
</g>
<path d="M162.697 86.6976C162.697 84.5882 161.546 82.8782 160.125 82.8782C158.705 82.8782 157.553 84.5882 157.553 86.6976V155.918C157.553 158.028 158.705 159.738 160.125 159.738C161.546 159.738 162.697 158.028 162.697 155.918V86.6976Z" fill="white"/>
<path d="M130.81 154.005C125.363 153.895 120.803 148.6 120.94 142.179L120.95 141.88C121.229 135.599 126.001 130.592 131.363 130.701L131.617 130.71C136.932 130.981 140.755 136.347 140.619 142.667L139.677 142.648C139.809 136.496 136.055 131.711 131.343 131.615C126.551 131.518 122.012 136.142 121.882 142.199C121.752 148.255 126.037 152.993 130.829 153.09C135.569 153.186 139.546 148.767 139.677 142.648L140.619 142.667L140.61 142.967C140.353 149.144 136.303 153.958 131.064 154.006L130.81 154.005Z" fill="url(#paint16_linear_125_19663)"/>
<path d="M129.24 130.446C136.047 130.09 140.388 134.657 140.661 142.298C140.569 149.893 135.558 154.528 129.75 154.637C123.943 154.745 118.681 149.282 118.824 142.602C118.968 135.923 123.599 130.332 129.24 130.446Z" fill="url(#paint17_linear_125_19663)"/>
<path d="M128.085 154.491C122.638 154.381 118.08 148.944 118.222 142.347L118.232 142.039C118.515 135.587 123.289 130.44 128.651 130.548L128.905 130.557C134.221 130.833 138.04 136.345 137.901 142.838L136.959 142.819C137.026 139.695 136.124 136.849 134.606 134.794C133.093 132.744 131.001 131.511 128.632 131.463C123.861 131.367 119.298 136.109 119.164 142.367C119.03 148.623 123.333 153.48 128.104 153.577C132.824 153.672 136.823 149.138 136.959 142.819L137.901 142.838L137.891 143.146C137.631 149.492 133.579 154.441 128.339 154.493L128.085 154.491Z" fill="url(#paint18_linear_125_19663)"/>
<path d="M127.949 130.671C133.176 130.777 137.299 136.188 137.158 142.757C137.017 149.326 132.665 154.565 127.438 154.459C122.211 154.353 118.087 148.943 118.228 142.374C118.369 135.805 122.721 130.565 127.949 130.671Z" fill="#FFD93B"/>
<path d="M127.894 133.212C124.699 133.147 120.97 136.613 120.845 142.427C120.72 148.241 124.298 151.854 127.493 151.919C130.687 151.983 134.417 148.518 134.542 142.704L137.158 142.757L137.149 143.064C136.885 149.386 132.719 154.402 127.682 154.46L127.438 154.459C122.211 154.353 118.087 148.943 118.228 142.374L118.238 142.067C118.506 135.642 122.803 130.567 127.949 130.671L128.193 130.68C133.304 130.946 137.297 136.29 137.158 142.757L134.542 142.704C134.666 136.89 131.089 133.276 127.894 133.212Z" fill="url(#paint19_linear_125_19663)"/>
<path d="M127.887 133.664C126.16 133.629 124.536 134.548 123.313 136.14C122.091 137.731 121.295 139.969 121.241 142.475C121.187 144.982 121.886 147.249 123.039 148.888C124.193 150.528 125.776 151.513 127.503 151.548C129.231 151.583 130.855 150.663 132.078 149.071C133.3 147.48 134.096 145.243 134.15 142.736L134.568 142.745L134.561 142.986C134.362 147.955 131.33 151.903 127.672 151.955L127.495 151.954C123.699 151.877 120.711 147.63 120.822 142.467L120.83 142.226C121.032 137.176 124.159 133.182 127.896 133.257L128.073 133.264C131.784 133.467 134.677 137.663 134.568 142.745L134.15 142.736C134.203 140.23 133.504 137.962 132.351 136.323C131.198 134.683 129.615 133.699 127.887 133.664Z" fill="url(#paint20_linear_125_19663)"/>
<g filter="url(#filter2_f_125_19663)">
<path d="M134.308 133.043L137.192 133.286C135.244 131.276 132.826 130.771 132.082 130.724C131.402 130.62 130.358 130.586 129.183 130.586C125.704 130.322 121.222 131.858 119.069 137.778C116.662 144.931 119.936 150.289 121.871 152.026L133.701 133.36L134.308 133.043Z" fill="url(#paint21_linear_125_19663)" fill-opacity="0.3"/>
</g>
<path d="M146.761 119.504V113.342H147.364L147.62 114.31V119.504H146.761ZM151.15 119.504L147.255 114.452L147.364 113.342L151.269 118.386L151.15 119.504ZM151.15 119.504L150.894 118.59V113.342H151.754V119.504H151.15Z" fill="white"/>
<path d="M142.391 119.593C141.939 119.593 141.519 119.513 141.129 119.354C140.738 119.188 140.397 118.96 140.104 118.67C139.812 118.374 139.583 118.033 139.418 117.649C139.26 117.264 139.181 116.853 139.181 116.415C139.181 115.971 139.26 115.559 139.418 115.18C139.583 114.796 139.809 114.458 140.095 114.168C140.388 113.878 140.726 113.653 141.11 113.493C141.5 113.333 141.921 113.254 142.372 113.254C142.823 113.254 143.241 113.333 143.625 113.493C144.015 113.653 144.357 113.878 144.649 114.168C144.942 114.458 145.171 114.796 145.335 115.18C145.5 115.565 145.582 115.979 145.582 116.423C145.582 116.861 145.5 117.273 145.335 117.658C145.171 118.042 144.942 118.38 144.649 118.67C144.363 118.96 144.024 119.188 143.634 119.354C143.25 119.513 142.836 119.593 142.391 119.593ZM142.372 118.794C142.829 118.794 143.229 118.694 143.57 118.492C143.918 118.285 144.192 118.004 144.393 117.649C144.594 117.288 144.695 116.876 144.695 116.415C144.695 116.071 144.637 115.757 144.521 115.473C144.405 115.183 144.244 114.932 144.037 114.719C143.829 114.506 143.585 114.343 143.305 114.23C143.025 114.112 142.714 114.053 142.372 114.053C141.921 114.053 141.522 114.153 141.174 114.355C140.833 114.556 140.562 114.834 140.36 115.189C140.165 115.544 140.068 115.953 140.068 116.415C140.068 116.758 140.123 117.078 140.232 117.373C140.348 117.664 140.507 117.915 140.708 118.128C140.915 118.335 141.159 118.498 141.439 118.617C141.726 118.735 142.037 118.794 142.372 118.794Z" fill="white"/>
<path d="M137.143 119.504V113.342H138.002V119.504H137.143Z" fill="white"/>
<path d="M133.11 119.504V113.52H133.969V119.504H133.11ZM130.952 114.106V113.342H136.119V114.106H130.952Z" fill="white"/>
<path d="M125.522 119.504L128.12 113.342H128.741L131.33 119.504H130.397L128.266 114.292H128.586L126.437 119.504H125.522ZM126.757 118.11V117.382H130.095V118.11H126.757Z" fill="white"/>
<path d="M119.496 119.504V113.342H120.1L120.356 114.31V119.504H119.496ZM123.886 119.504L119.99 114.452L120.1 113.342L124.005 118.386L123.886 119.504ZM123.886 119.504L123.63 118.59V113.342H124.489V119.504H123.886Z" fill="white"/>
<path d="M115.125 119.593C114.674 119.593 114.254 119.513 113.863 119.354C113.473 119.188 113.132 118.96 112.839 118.67C112.547 118.374 112.318 118.033 112.153 117.649C111.995 117.264 111.916 116.853 111.916 116.415C111.916 115.971 111.995 115.559 112.153 115.18C112.318 114.796 112.543 114.458 112.83 114.168C113.123 113.878 113.461 113.653 113.845 113.493C114.235 113.333 114.656 113.254 115.107 113.254C115.558 113.254 115.976 113.333 116.36 113.493C116.75 113.653 117.092 113.878 117.384 114.168C117.677 114.458 117.905 114.796 118.07 115.18C118.235 115.565 118.317 115.979 118.317 116.423C118.317 116.861 118.235 117.273 118.07 117.658C117.905 118.042 117.677 118.38 117.384 118.67C117.098 118.96 116.759 119.188 116.369 119.354C115.985 119.513 115.57 119.593 115.125 119.593ZM115.107 118.794C115.564 118.794 115.964 118.694 116.305 118.492C116.653 118.285 116.927 118.004 117.128 117.649C117.329 117.288 117.43 116.876 117.43 116.415C117.43 116.071 117.372 115.757 117.256 115.473C117.14 115.183 116.979 114.932 116.771 114.719C116.564 114.506 116.32 114.343 116.04 114.23C115.759 114.112 115.449 114.053 115.107 114.053C114.656 114.053 114.257 114.153 113.909 114.355C113.568 114.556 113.296 114.834 113.095 115.189C112.9 115.544 112.803 115.953 112.803 116.415C112.803 116.758 112.857 117.078 112.967 117.373C113.083 117.664 113.242 117.915 113.443 118.128C113.65 118.335 113.894 118.498 114.174 118.617C114.461 118.735 114.772 118.794 115.107 118.794Z" fill="white"/>
<path d="M106.033 119.504V118.741H107.798C108.267 118.741 108.679 118.643 109.032 118.448C109.386 118.247 109.66 117.971 109.855 117.622C110.057 117.273 110.157 116.87 110.157 116.415C110.157 115.965 110.057 115.565 109.855 115.216C109.654 114.867 109.377 114.594 109.023 114.399C108.67 114.204 108.261 114.106 107.798 114.106H106.042V113.342H107.816C108.279 113.342 108.706 113.419 109.096 113.573C109.493 113.727 109.834 113.943 110.121 114.221C110.413 114.5 110.639 114.825 110.797 115.198C110.962 115.571 111.044 115.979 111.044 116.423C111.044 116.861 110.962 117.27 110.797 117.649C110.639 118.022 110.416 118.347 110.13 118.625C109.843 118.904 109.502 119.12 109.106 119.274C108.715 119.428 108.292 119.504 107.834 119.504H106.033ZM105.466 119.504V113.342H106.325V119.504H105.466Z" fill="white"/>
<path d="M51.1163 121.008C54.1961 119.963 61.2414 118.446 69.6623 122.111L69.8359 122.188C73.4575 123.833 75.9367 127.141 77.5684 130.433C78.5167 132.347 79.2089 134.316 79.6853 136.074C80.0026 135.496 80.287 134.983 80.4483 134.706L80.5074 134.607C81.7715 132.532 84.5743 130.852 87.3603 130.812C88.8287 130.79 90.332 131.225 91.5797 132.33C92.8156 133.424 93.6918 135.079 94.1205 137.311C94.977 141.772 93.6828 146.675 91.4067 150.916C89.1275 155.161 85.7707 158.919 82.2537 161.072C80.3857 162.215 77.5213 162.992 74.316 163.541C71.0675 164.097 67.3057 164.443 63.527 164.644C55.9708 165.045 48.2362 164.871 44.1819 164.59C40.1436 164.31 37.3218 163.848 34.9011 162.825C32.4631 161.794 30.5399 160.239 28.2179 157.985C24.7803 154.647 20.9827 150.797 18.8547 148.518L18.452 148.083L18.4091 148.035C17.9819 147.52 18.0408 146.766 18.5539 146.321C19.067 145.875 19.8459 145.903 20.3244 146.373L20.3699 146.42L20.7642 146.845C22.8514 149.08 26.6156 152.897 30.0367 156.219C32.2871 158.404 33.9363 159.693 35.9278 160.535C37.9366 161.385 40.4019 161.825 44.3653 162.1C48.3129 162.373 55.9392 162.546 63.3864 162.15C67.1093 161.952 70.7598 161.614 73.8698 161.081C77.023 160.542 79.4634 159.827 80.882 158.959C83.9378 157.089 87.0111 153.701 89.1258 149.761C91.2435 145.816 92.3072 141.494 91.592 137.769C91.2348 135.909 90.5591 134.806 89.8466 134.175C89.1459 133.554 88.3039 133.295 87.3991 133.308C85.5428 133.335 83.5981 134.509 82.7646 135.809L82.6873 135.935C82.4395 136.36 81.8427 137.451 81.2964 138.457C81.0258 138.955 80.7711 139.425 80.5842 139.771C80.4907 139.944 80.4143 140.086 80.3612 140.185C80.3346 140.234 80.3139 140.272 80.2998 140.299C80.2928 140.312 80.2875 140.322 80.2839 140.328C80.2821 140.332 80.2806 140.334 80.2797 140.336C80.2793 140.336 80.2788 140.337 80.2786 140.338V140.338L80.2783 140.338C80.0182 140.821 79.4654 141.085 78.9128 140.989C78.3601 140.893 77.935 140.46 77.8631 139.92C77.5924 137.882 76.7832 134.608 75.2507 131.516C73.7317 128.451 71.5925 125.744 68.7464 124.45L68.6105 124.39C60.9744 121.066 54.6445 122.456 51.9675 123.364L51.7199 123.451C49.7343 124.161 48.2993 125.269 47.8979 125.659L46.0791 123.894C46.7257 123.266 48.4727 121.951 50.8308 121.107L51.1163 121.008ZM13.409 130.706C13.4343 131.566 13.4325 132.94 13.5315 134.364C13.6343 135.841 13.833 137.076 14.1388 137.691L14.2814 137.971C15.7204 140.739 17.5147 142.367 18.2017 142.84L18.2667 142.883L18.3209 142.92C18.8671 143.314 19.005 144.059 18.6234 144.615C18.2417 145.17 17.4803 145.333 16.8959 144.995L16.8401 144.961L16.7368 144.892C15.6722 144.165 13.6017 142.207 11.9829 139.092L11.8227 138.776C11.2713 137.667 11.0651 135.965 10.9654 134.532C10.862 133.046 10.8602 131.537 10.8379 130.778L13.409 130.706ZM4.12176 108.267C4.12176 103.807 4.58951 99.3963 7.94462 91.9504L8.09253 91.6277C11.2517 84.8428 17.7186 77.7614 21.0933 74.6233L21.1424 74.58C21.6569 74.1479 22.4356 74.1791 22.9115 74.6616C23.4027 75.1596 23.3853 75.9499 22.8724 76.4269L22.5512 76.7288C19.1995 79.9121 13.3046 86.4989 10.4393 92.6493L10.3009 92.9514C7.09885 100.058 6.69378 104.125 6.69378 108.267C6.69378 110.645 6.05841 112.519 5.40777 113.968C5.0923 114.671 4.75212 115.316 4.51778 115.791C4.4874 115.852 4.45875 115.911 4.4321 115.966C4.48593 115.962 4.54267 115.959 4.60234 115.954C5.08223 115.914 5.77836 115.849 6.37925 115.916C6.92061 115.977 7.94495 116.217 8.31998 117.24L8.35403 117.342L8.39059 117.472C8.55365 118.119 8.42491 118.688 8.25552 119.135C8.16892 119.364 8.06356 119.582 7.97225 119.766C7.87367 119.965 7.791 120.126 7.70712 120.309C7.41644 120.94 7.17337 121.685 7.50925 122.935L7.57344 123.167C8.21371 125.438 9.47794 128.436 10.1619 129.939L10.2948 130.228L10.3204 130.287C10.5687 130.902 10.2791 131.605 9.65204 131.88C9.02497 132.155 8.29053 131.901 7.9795 131.314L7.95076 131.256L7.81457 130.96C7.11176 129.417 5.78264 126.276 5.0899 123.817L5.02068 123.565C4.49924 121.625 4.89916 120.288 5.35865 119.29C5.46229 119.065 5.57389 118.846 5.65448 118.684C5.71395 118.564 5.75981 118.467 5.79597 118.384C5.54221 118.385 5.22336 118.409 4.81974 118.442C4.36132 118.48 3.64958 118.547 3.07856 118.439C2.78019 118.382 2.30092 118.242 1.93907 117.827C1.53225 117.361 1.48841 116.806 1.5704 116.368L1.59217 116.261C1.71065 115.727 1.96481 115.185 2.19833 114.712C2.47301 114.155 2.75804 113.62 3.04981 112.971C3.61371 111.714 4.12176 110.19 4.12176 108.267ZM12.0867 129.494C12.7967 129.474 13.3887 130.017 13.409 130.706L10.8379 130.778C10.8176 130.088 11.3768 129.514 12.0867 129.494ZM47.8979 125.659C47.3957 126.147 46.5813 126.147 46.0791 125.659C45.577 125.172 45.577 124.381 46.0791 123.894L47.8979 125.659ZM27.71 69.5882C28.3746 69.4468 29.0438 69.8351 29.2248 70.4797C29.4117 71.145 29.0078 71.8314 28.3226 72.0128L18.8919 74.5101C18.2067 74.6915 17.4997 74.2991 17.3128 73.6338C17.126 72.9685 17.5299 72.2821 18.2151 72.1006L27.6458 69.6034L27.71 69.5882ZM24.917 69.4023C24.2172 69.5199 23.5517 69.0646 23.4306 68.3851C23.3094 67.7056 23.7787 67.0595 24.4785 66.9419L24.917 69.4023ZM31.9741 65.6838C32.6495 65.6042 33.2778 66.0523 33.3952 66.7105C33.5163 67.39 33.0471 68.0361 32.3472 68.1537L24.917 69.4023L24.4785 66.9419L31.9088 65.6933L31.9741 65.6838ZM27.8596 62.8286C27.9792 62.1489 28.6437 61.6921 29.3437 61.8082L35.2022 62.7793L35.2672 62.7918C35.9312 62.9358 36.3693 63.5618 36.2535 64.2203C36.1377 64.8788 35.5105 65.328 34.8349 65.25L34.7694 65.2408L28.9109 64.2696C28.2108 64.1536 27.7401 63.5084 27.8596 62.8286ZM37.2501 62.1425C36.5763 62.3606 35.8479 62.0069 35.6233 61.3527C35.3988 60.6985 35.7628 59.9913 36.4366 59.7732L37.2501 62.1425ZM71.2763 43.3704C71.9391 43.2212 72.613 43.6016 72.802 44.244C72.9971 44.907 72.6016 45.5982 71.9187 45.7877L71.7069 45.8487C70.478 46.2108 66.7646 47.4231 62.5569 48.9794C58.1973 50.592 53.4205 52.5327 50.3625 54.2381L50.0719 54.4023C47.6158 55.8115 45.5063 57.3578 43.432 58.7771C41.4011 60.1668 39.3776 61.454 37.2501 62.1425L36.4366 59.7732C38.1672 59.2131 39.9161 58.1279 41.9504 56.7359C43.9413 55.3736 46.1898 53.729 48.7633 52.2525L49.0734 52.0771C52.3307 50.2599 57.2802 48.2589 61.6413 46.6458C66.1552 44.9762 70.1601 43.6783 71.2124 43.3864L71.2763 43.3704Z" fill="#652815"/>
<defs>
<filter id="filter0_f_125_19663" x="134.749" y="142.447" width="20.2973" height="13.6913" filterUnits="userSpaceOnUse" color-interpolation-filters="sRGB">
<feFlood flood-opacity="0" result="BackgroundImageFix"/>
<feBlend mode="normal" in="SourceGraphic" in2="BackgroundImageFix" result="shape"/>
<feGaussianBlur stdDeviation="0.0495426" result="effect1_foregroundBlur_125_19663"/>
</filter>
<filter id="filter1_f_125_19663" x="101.575" y="141.931" width="19.1611" height="15.3042" filterUnits="userSpaceOnUse" color-interpolation-filters="sRGB">
<feFlood flood-opacity="0" result="BackgroundImageFix"/>
<feBlend mode="normal" in="SourceGraphic" in2="BackgroundImageFix" result="shape"/>
<feGaussianBlur stdDeviation="0.0495426" result="effect1_foregroundBlur_125_19663"/>
</filter>
<filter id="filter2_f_125_19663" x="118.102" y="130.441" width="19.2077" height="21.7028" filterUnits="userSpaceOnUse" color-interpolation-filters="sRGB">
<feFlood flood-opacity="0" result="BackgroundImageFix"/>
<feBlend mode="normal" in="SourceGraphic" in2="BackgroundImageFix" result="shape"/>
<feGaussianBlur stdDeviation="0.0587612" result="effect1_foregroundBlur_125_19663"/>
</filter>
<linearGradient id="paint0_linear_125_19663" x1="106.6" y1="76.5866" x2="151.253" y2="76.5866" gradientUnits="userSpaceOnUse">
<stop stop-color="#9E9EA2"/>
<stop offset="0.262" stop-color="#7D808A"/>
<stop offset="1" stop-color="#9F9FA3"/>
</linearGradient>
<linearGradient id="paint1_linear_125_19663" x1="85.8545" y1="120.185" x2="170.747" y2="120.185" gradientUnits="userSpaceOnUse">
<stop stop-color="#BCDDFB"/>
<stop offset="0.228" stop-color="#BEEFFF"/>
<stop offset="0.89" stop-color="#C5F8FF"/>
<stop offset="1" stop-color="#B2D7F7"/>
</linearGradient>
<radialGradient id="paint2_radial_125_19663" cx="0" cy="0" r="1" gradientUnits="userSpaceOnUse" gradientTransform="translate(146.181 81.4477) rotate(90) scale(4.86202 29.0916)">
<stop stop-color="#D0FFFF"/>
<stop offset="1" stop-color="#D1FFFF" stop-opacity="0"/>
</radialGradient>
<linearGradient id="paint3_linear_125_19663" x1="128.209" y1="60.958" x2="128.209" y2="72.3018" gradientUnits="userSpaceOnUse">
<stop stop-color="#C3C4C8"/>
<stop offset="0.276" stop-color="#C7CDD6"/>
<stop offset="0.684" stop-color="#AAB6C8"/>
<stop offset="1" stop-color="#81849A"/>
</linearGradient>
<linearGradient id="paint4_linear_125_19663" x1="154.569" y1="150.045" x2="136.336" y2="158.976" gradientUnits="userSpaceOnUse">
<stop stop-color="#FDF8CE"/>
<stop offset="0.0550575" stop-color="#F2E158"/>
<stop offset="0.170676" stop-color="#FCF5AF"/>
<stop offset="0.309086" stop-color="#ECD42F"/>
<stop offset="0.491314" stop-color="#E9B00C"/>
<stop offset="0.704021" stop-color="#ECB600"/>
<stop offset="0.78935" stop-color="#E8CF29"/>
<stop offset="0.843399" stop-color="#EBD431"/>
<stop offset="0.909367" stop-color="#E2C317"/>
<stop offset="1" stop-color="#E9D14F"/>
</linearGradient>
<linearGradient id="paint5_linear_125_19663" x1="154.455" y1="150.125" x2="134.682" y2="158.505" gradientUnits="userSpaceOnUse">
<stop stop-color="#EEBB5C"/>
<stop offset="0.0550575" stop-color="#FDEE48"/>
<stop offset="0.170676" stop-color="#E8BB06"/>
<stop offset="0.309086" stop-color="#D57B01"/>
<stop offset="0.491314" stop-color="#C86101"/>
<stop offset="0.660555" stop-color="#D88C2D"/>
<stop offset="0.771761" stop-color="#E8BE29"/>
<stop offset="0.815114" stop-color="#E8BE29"/>
<stop offset="0.881945" stop-color="#E8AE0E"/>
<stop offset="0.930202" stop-color="#D98317"/>
<stop offset="1" stop-color="#EBAE4E"/>
</linearGradient>
<linearGradient id="paint6_linear_125_19663" x1="154.138" y1="147.862" x2="135.486" y2="157.134" gradientUnits="userSpaceOnUse">
<stop stop-color="#FDF8CE"/>
<stop offset="0.0550575" stop-color="#F2E158"/>
<stop offset="0.170676" stop-color="#FCF5AF"/>
<stop offset="0.309086" stop-color="#ECD42F"/>
<stop offset="0.491314" stop-color="#E9B00C"/>
<stop offset="0.704021" stop-color="#ECB600"/>
<stop offset="0.78935" stop-color="#E8CF29"/>
<stop offset="0.843399" stop-color="#EBD431"/>
<stop offset="0.909367" stop-color="#E2C317"/>
<stop offset="1" stop-color="#E9D14F"/>
</linearGradient>
<linearGradient id="paint7_linear_125_19663" x1="151.101" y1="143.854" x2="138.31" y2="157.776" gradientUnits="userSpaceOnUse">
<stop stop-color="#FFDC5E"/>
<stop offset="0.417119" stop-color="#FFED97"/>
<stop offset="1" stop-color="#FFF27B"/>
</linearGradient>
<linearGradient id="paint8_linear_125_19663" x1="142.903" y1="144.65" x2="145.681" y2="156.008" gradientUnits="userSpaceOnUse">
<stop stop-color="#E4991A"/>
<stop offset="0.474971" stop-color="#EAAA2E" stop-opacity="0"/>
<stop offset="1" stop-color="#FFF27B" stop-opacity="0"/>
</linearGradient>
<linearGradient id="paint9_linear_125_19663" x1="141.524" y1="149.626" x2="144.933" y2="140.624" gradientUnits="userSpaceOnUse">
<stop stop-color="white"/>
<stop offset="0.105858" stop-color="white"/>
<stop offset="0.21696" stop-color="white" stop-opacity="0.961194"/>
<stop offset="1" stop-color="white" stop-opacity="0"/>
</linearGradient>
<linearGradient id="paint10_linear_125_19663" x1="101.747" y1="151.402" x2="121.46" y2="156.571" gradientUnits="userSpaceOnUse">
<stop stop-color="#FDF8CE"/>
<stop offset="0.0550575" stop-color="#F2E158"/>
<stop offset="0.170676" stop-color="#FCF5AF"/>
<stop offset="0.309086" stop-color="#ECD42F"/>
<stop offset="0.491314" stop-color="#E9B00C"/>
<stop offset="0.704021" stop-color="#ECB600"/>
<stop offset="0.78935" stop-color="#E8CF29"/>
<stop offset="0.843399" stop-color="#EBD431"/>
<stop offset="0.909367" stop-color="#E2C317"/>
<stop offset="1" stop-color="#E9D14F"/>
</linearGradient>
<linearGradient id="paint11_linear_125_19663" x1="101.874" y1="151.458" x2="122.984" y2="155.771" gradientUnits="userSpaceOnUse">
<stop stop-color="#EEBB5C"/>
<stop offset="0.0550575" stop-color="#FDEE48"/>
<stop offset="0.170676" stop-color="#E8BB06"/>
<stop offset="0.309086" stop-color="#D57B01"/>
<stop offset="0.491314" stop-color="#C86101"/>
<stop offset="0.660555" stop-color="#D88C2D"/>
<stop offset="0.771761" stop-color="#E8BE29"/>
<stop offset="0.815114" stop-color="#E8BE29"/>
<stop offset="0.881945" stop-color="#E8AE0E"/>
<stop offset="0.930202" stop-color="#D98317"/>
<stop offset="1" stop-color="#EBAE4E"/>
</linearGradient>
<linearGradient id="paint12_linear_125_19663" x1="101.735" y1="149.179" x2="121.928" y2="154.602" gradientUnits="userSpaceOnUse">
<stop stop-color="#FDF8CE"/>
<stop offset="0.0550575" stop-color="#F2E158"/>
<stop offset="0.170676" stop-color="#FCF5AF"/>
<stop offset="0.309086" stop-color="#ECD42F"/>
<stop offset="0.491314" stop-color="#E9B00C"/>
<stop offset="0.704021" stop-color="#ECB600"/>
<stop offset="0.78935" stop-color="#E8CF29"/>
<stop offset="0.843399" stop-color="#EBD431"/>
<stop offset="0.909367" stop-color="#E2C317"/>
<stop offset="1" stop-color="#E9D14F"/>
</linearGradient>
<linearGradient id="paint13_linear_125_19663" x1="103.916" y1="144.676" x2="119.252" y2="155.915" gradientUnits="userSpaceOnUse">
<stop stop-color="#FFDC5E"/>
<stop offset="0.417119" stop-color="#FFED97"/>
<stop offset="1" stop-color="#FFF27B"/>
</linearGradient>
<linearGradient id="paint14_linear_125_19663" x1="112.118" y1="143.919" x2="111.527" y2="155.577" gradientUnits="userSpaceOnUse">
<stop stop-color="#E4991A"/>
<stop offset="0.474971" stop-color="#EAAA2E" stop-opacity="0"/>
<stop offset="1" stop-color="#FFF27B" stop-opacity="0"/>
</linearGradient>
<linearGradient id="paint15_linear_125_19663" x1="114.462" y1="148.541" x2="109.382" y2="140.314" gradientUnits="userSpaceOnUse">
<stop stop-color="white"/>
<stop offset="0.105858" stop-color="white"/>
<stop offset="0.21696" stop-color="white" stop-opacity="0.961194"/>
<stop offset="1" stop-color="white" stop-opacity="0"/>
</linearGradient>
<linearGradient id="paint16_linear_125_19663" x1="130.319" y1="130.673" x2="134.79" y2="153.782" gradientUnits="userSpaceOnUse">
<stop stop-color="#FDF8CE"/>
<stop offset="0.0550575" stop-color="#F2E158"/>
<stop offset="0.170676" stop-color="#FCF5AF"/>
<stop offset="0.309086" stop-color="#ECD42F"/>
<stop offset="0.491314" stop-color="#E9B00C"/>
<stop offset="0.704021" stop-color="#ECB600"/>
<stop offset="0.78935" stop-color="#E8CF29"/>
<stop offset="0.843399" stop-color="#EBD431"/>
<stop offset="0.909367" stop-color="#E2C317"/>
<stop offset="1" stop-color="#E9D14F"/>
</linearGradient>
<linearGradient id="paint17_linear_125_19663" x1="130.38" y1="130.823" x2="133.826" y2="155.438" gradientUnits="userSpaceOnUse">
<stop stop-color="#EEBB5C"/>
<stop offset="0.0550575" stop-color="#FDEE48"/>
<stop offset="0.170676" stop-color="#E8BB06"/>
<stop offset="0.309086" stop-color="#D57B01"/>
<stop offset="0.491314" stop-color="#C86101"/>
<stop offset="0.660555" stop-color="#D88C2D"/>
<stop offset="0.771761" stop-color="#E8BE29"/>
<stop offset="0.815114" stop-color="#E8BE29"/>
<stop offset="0.881945" stop-color="#E8AE0E"/>
<stop offset="0.930202" stop-color="#D98317"/>
<stop offset="1" stop-color="#EBAE4E"/>
</linearGradient>
<linearGradient id="paint18_linear_125_19663" x1="127.608" y1="130.521" x2="132.329" y2="154.208" gradientUnits="userSpaceOnUse">
<stop stop-color="#FDF8CE"/>
<stop offset="0.0550575" stop-color="#F2E158"/>
<stop offset="0.170676" stop-color="#FCF5AF"/>
<stop offset="0.309086" stop-color="#ECD42F"/>
<stop offset="0.491314" stop-color="#E9B00C"/>
<stop offset="0.704021" stop-color="#ECB600"/>
<stop offset="0.78935" stop-color="#E8CF29"/>
<stop offset="0.843399" stop-color="#EBD431"/>
<stop offset="0.909367" stop-color="#E2C317"/>
<stop offset="1" stop-color="#E9D14F"/>
</linearGradient>
<linearGradient id="paint19_linear_125_19663" x1="121.979" y1="132.748" x2="133.685" y2="151.732" gradientUnits="userSpaceOnUse">
<stop stop-color="#FFDC5E"/>
<stop offset="0.417119" stop-color="#FFED97"/>
<stop offset="1" stop-color="#FFF27B"/>
</linearGradient>
<linearGradient id="paint20_linear_125_19663" x1="120.543" y1="142.134" x2="134.802" y2="142.14" gradientUnits="userSpaceOnUse">
<stop stop-color="#E4991A"/>
<stop offset="0.474971" stop-color="#EAAA2E" stop-opacity="0"/>
<stop offset="1" stop-color="#FFF27B" stop-opacity="0"/>
</linearGradient>
<linearGradient id="paint21_linear_125_19663" x1="126.037" y1="145.118" x2="116.689" y2="138.258" gradientUnits="userSpaceOnUse">
<stop stop-color="white"/>
<stop offset="0.105858" stop-color="white"/>
<stop offset="0.21696" stop-color="white" stop-opacity="0.961194"/>
<stop offset="1" stop-color="white" stop-opacity="0"/>
</linearGradient>
</defs>
</svg>
