<svg width="432" height="400" viewBox="0 0 432 400" fill="none" xmlns="http://www.w3.org/2000/svg">
<path d="M250.4 28.1C252.585 19.4978 258.997 12.0113 267.3 8.36716C269.772 7.28211 272.64 6.52734 275.166 7.48884C277.298 8.30233 278.777 10.1801 280.089 12.0064C285.381 19.3792 289.795 27.3489 293.215 35.7027C290.122 36.893 287.238 38.5958 284.724 40.7157C273.155 35.1669 261.22 30.3349 250.4 28.1Z" fill="#B07066"/>
<path d="M292.135 34.2059L317.167 39.4036L322.531 55.8632C320.743 68.5688 337.282 90.8613 358.739 130.364C385.559 179.743 401.988 188.403 418.974 265.503C432.563 327.183 396.734 376.68 376.172 391.984C299.287 392.562 141.404 393.37 124.954 391.984C104.392 390.251 82.9357 327.012 111.544 284.564C140.152 242.116 154.457 223.057 145.517 191.871C136.576 160.684 112.438 150.722 99.922 138.594C87.4059 126.466 84.2768 86.6165 85.1708 71.8895C86.0649 57.1626 85.6177 50.6654 133 34.2059C180.259 17.7895 201.727 21.1935 250.624 28.947L251.01 29.0081C290.347 35.2454 294.817 35.0722 292.135 34.2059Z" fill="#CD966D"/>
<path d="M100.562 363.393C98.9651 357.498 95.2728 352.159 90.2602 348.499C87.4961 346.482 83.6014 344.981 80.6989 346.803C77.9939 348.502 77.599 352.172 77.8405 355.295C78.4378 363.006 81.1743 370.393 84.1044 377.58C85.694 381.477 87.4973 385.546 90.9531 388.052C93.638 390.001 97.0221 390.774 100.335 391.254C107.304 392.263 114.438 392.176 121.379 390.996C111.538 383.842 103.374 373.78 100.562 363.393Z" fill="#B07066"/>
<path d="M155.729 140.796C153.59 133.77 159.168 113.509 173.773 111.178C176.175 108.091 189.39 85.3393 187.046 67.9613C185.426 55.956 171.51 36.9498 135.226 33.7497C119.245 32.3392 95.01 47.6658 87.8319 59.2564C84.4276 64.7538 84.7785 94.1249 88.4305 110.107C90.2401 118.029 94.9308 131.55 100.639 135.713C102.93 137.385 108.706 131.089 113.143 126.692C112.231 135.653 120.799 143.444 129.899 145.093C138.996 146.741 148.265 143.821 155.729 140.796Z" fill="#B07066"/>
<path d="M98.7202 394.631C98.6712 394.631 98.6209 394.63 98.5718 394.627C87.1431 394.109 78.1377 377.119 75.3949 365.22C73.0357 354.986 74.6655 347.575 79.8668 344.891C82.9768 343.285 86.2628 343.035 89.3753 344.176C96.4139 346.748 101.244 355.846 104.056 363.024C104.675 364.602 103.861 366.37 102.238 366.971C100.618 367.571 98.7982 366.782 98.1808 365.204C94.9035 356.84 90.8881 351.263 87.1632 349.902C85.7296 349.377 84.3475 349.503 82.8145 350.293C80.4906 351.492 79.9624 357.081 81.5293 363.881C84.4381 376.495 92.7003 388.238 98.8636 388.518C100.598 388.597 101.938 390.028 101.858 391.715C101.781 393.354 100.39 394.631 98.7202 394.631Z" fill="#652815"/>
<path d="M191.3 19.912C173.493 20.1332 155.983 23.4614 132.096 31.7592C108.468 39.967 96.1884 45.8605 89.7923 51.8244C83.0233 58.1361 82.9349 64.4659 82.4936 71.7364C82.0335 79.3151 82.6078 93.1522 84.87 106.633C86.0027 113.383 87.5713 120.12 89.6788 125.981C91.7672 131.788 94.4728 136.989 98.0253 140.431C101.297 143.602 105.297 146.603 109.426 149.703C113.599 152.838 117.973 156.125 122.227 159.983C130.682 167.651 138.626 177.544 142.932 192.566C147.229 207.554 145.958 219.518 140.137 232.991C134.223 246.682 123.68 261.803 109.298 283.143C94.5027 305.096 92.729 332.264 97.1793 354.046C99.4075 364.953 103.224 374.663 107.893 381.825C112.392 388.726 118.095 393.867 124.42 394.544L124.722 394.573C133.102 395.279 176.87 395.42 227.905 395.319C279.049 395.218 337.747 394.872 376.192 394.583L377.092 394.576L377.806 394.045C387.64 386.725 400.571 372.119 410.347 352.453L410.81 351.513L410.866 351.39C411.406 350.119 410.829 348.647 409.532 348.053C408.235 347.458 406.694 347.96 406.023 349.171L405.961 349.291L405.512 350.201C396.286 368.759 384.243 382.454 375.237 389.391C336.786 389.678 278.622 390.021 227.894 390.121C176.655 390.222 133.257 390.074 125.187 389.394L124.825 389.355C121.065 388.858 116.636 385.503 112.429 379.05C108.186 372.541 104.571 363.463 102.441 353.037C98.175 332.155 99.9775 306.48 113.79 285.985C128.016 264.877 138.93 249.245 145.085 234.998C151.334 220.533 152.744 207.374 148.1 191.175C143.467 175.011 134.871 164.33 125.893 156.188C121.431 152.141 116.864 148.714 112.713 145.595C108.516 142.443 104.805 139.65 101.819 136.756C99.1133 134.135 96.734 129.806 94.7435 124.27C92.7721 118.788 91.2675 112.368 90.1651 105.799C87.9573 92.6419 87.4141 79.1899 87.848 72.0418C88.3007 64.5855 88.4362 60.3028 93.5124 55.5695C98.9621 50.4883 110.151 44.904 133.905 36.6524C157.4 28.4908 174.31 25.3217 191.369 25.1098C206.375 24.9234 221.577 27.0182 241.658 30.1637L250.577 31.5731C270.249 34.6924 281.256 36.2171 287.026 36.8529C289.821 37.161 291.605 37.2874 292.543 37.2294C292.67 37.2215 292.975 37.2024 293.331 37.1118L315.08 41.6277L319.8 56.1101C318.966 63.4031 321.861 69.4466 328.659 81.7765L328.727 81.8933C329.458 83.0716 331.022 83.4993 332.288 82.8442C333.594 82.1678 334.088 80.5933 333.39 79.3274L332.11 76.9916C326.017 65.7831 324.447 61.4817 325.188 56.2142L325.27 55.6364L319.255 37.1786L292.696 31.6645L291.293 36.6473C291.273 36.6355 291.248 36.6253 291.224 36.6101C291.159 36.5695 290.866 36.3869 290.595 36.0323C290.295 35.6399 289.782 34.6602 290.304 33.5003C290.715 32.5872 291.494 32.258 291.648 32.1941C292.05 32.0269 292.353 32.0333 292.201 32.0426C291.826 32.0658 290.536 32.0081 287.633 31.6882C282.003 31.0678 271.107 29.5609 251.444 26.443L242.546 25.037C222.451 21.8875 206.802 19.7194 191.3 19.912Z" fill="#652815"/>
<path d="M413.273 345.637C413.273 345.321 413.42 344.739 413.958 343.838C414.478 342.967 415.236 342.007 416.152 340.98C417.064 339.957 418.054 338.954 419.027 337.958C419.846 337.118 420.688 336.25 421.367 335.446L421.649 335.105C422.913 333.53 423.301 331.683 423.31 329.962C423.319 328.261 422.958 326.491 422.519 324.846C422.081 323.206 421.504 321.478 421.03 319.963C420.535 318.385 420.14 316.997 419.948 315.788C419.756 314.578 419.827 313.939 419.93 313.593C420.011 313.318 420.151 313.088 420.515 312.779C420.955 312.407 421.59 312.025 422.655 311.432C423.66 310.873 424.951 310.175 426.383 309.25C428.668 307.774 429.556 305.296 429.842 303.007C430.134 300.676 429.874 298.038 429.374 295.501C428.373 290.421 426.269 285.08 424.575 282.033C422.904 279.025 421.966 277.486 421.553 276.374C421.488 276.2 421.456 276.077 421.437 275.997C422.368 275.095 423.675 273.765 423.879 271.588C424.063 269.625 423.304 267.438 421.931 264.776C421.509 263.959 420.897 262.293 420.181 259.996C419.484 257.757 418.738 255.085 418.031 252.372C416.607 246.912 415.385 241.454 415.033 239.139L415.01 239.007C414.733 237.658 413.409 236.744 411.989 236.946C410.524 237.155 409.511 238.475 409.726 239.895L409.81 240.417C410.28 243.197 411.49 248.505 412.83 253.646C413.549 256.405 414.317 259.158 415.046 261.497C415.756 263.777 416.482 265.839 417.133 267.101C418.441 269.637 418.576 270.698 418.537 271.118C418.518 271.316 418.492 271.501 417.635 272.331C416.893 273.05 416.287 273.966 416.104 275.141C415.932 276.243 416.184 277.27 416.505 278.135C417.098 279.73 418.394 281.873 419.852 284.496C421.287 287.079 423.207 291.918 424.105 296.475C424.555 298.757 424.715 300.803 424.517 302.383C424.315 304.006 423.805 304.669 423.408 304.925C422.158 305.732 421.047 306.333 419.984 306.925C418.981 307.483 417.884 308.103 416.983 308.867C416.006 309.695 415.196 310.739 414.775 312.155C414.375 313.501 414.391 314.974 414.646 316.579C414.901 318.185 415.399 319.883 415.897 321.473C416.414 323.125 416.926 324.646 417.326 326.147C417.725 327.642 417.951 328.903 417.946 329.937C417.941 330.95 417.715 331.539 417.414 331.914L417.204 332.169C416.685 332.782 415.983 333.512 415.13 334.386C414.192 335.347 413.104 336.45 412.094 337.582C411.087 338.71 410.08 339.954 409.315 341.235C408.568 342.486 407.909 344.005 407.909 345.637C407.909 347.073 409.11 348.236 410.591 348.236C412.073 348.236 413.273 347.073 413.273 345.637ZM409.697 232.153C409.697 228.11 409.811 222.883 409.411 217.563C409.011 212.243 408.086 206.607 405.905 201.676L405.731 201.294C403.888 197.356 400.536 193.502 397.341 189.888C393.917 186.014 390.57 182.311 388.345 178.47L388.274 178.355C387.518 177.192 385.944 176.796 384.693 177.476C383.401 178.179 382.943 179.764 383.668 181.015L384.159 181.835C386.679 185.919 390.177 189.774 393.267 193.269C396.582 197.019 399.377 200.306 400.837 203.422L400.975 203.723C402.816 207.887 403.679 212.864 404.061 217.94C404.443 223.015 404.333 227.967 404.333 232.153C404.333 233.589 405.534 234.752 407.015 234.752C408.496 234.752 409.697 233.589 409.697 232.153ZM365.28 137.376C364.38 136.314 362.768 136.111 361.614 136.937C360.424 137.791 360.172 139.418 361.052 140.572L361.253 140.842C363.298 143.655 364.413 147.28 365.259 151.076C365.723 153.159 366.004 154.768 366.425 156.72C366.803 158.473 367.246 160.238 367.896 161.708C368.646 163.403 369.968 164.869 371.292 166.086C372.64 167.324 374.191 168.482 375.58 169.502C377.026 170.564 378.251 171.446 379.179 172.253C379.634 172.65 379.94 172.963 380.127 173.2C380.209 173.303 380.249 173.369 380.266 173.398C380.588 174.751 381.958 175.628 383.379 175.366C384.834 175.097 385.789 173.736 385.512 172.326C385.328 171.389 384.84 170.616 384.386 170.04C383.916 169.446 383.342 168.89 382.764 168.387C381.625 167.395 380.161 166.343 378.821 165.359C377.423 164.333 376.091 163.331 374.984 162.314C373.853 161.275 373.149 160.391 372.826 159.661C372.403 158.705 372.048 157.38 371.676 155.656C371.346 154.13 370.924 151.873 370.501 149.978C369.602 145.942 368.258 141.274 365.366 137.482L365.28 137.376ZM348.705 121.082C347.365 120.471 345.768 121.029 345.137 122.327C344.506 123.626 345.081 125.174 346.421 125.786L369.219 136.181C370.559 136.792 372.157 136.235 372.788 134.936C373.418 133.637 372.843 132.089 371.503 131.477L348.705 121.082ZM339.514 100.335C338.692 99.1408 337.027 98.818 335.795 99.6142C334.562 100.41 334.229 102.024 335.051 103.218C335.4 103.725 335.915 104.244 336.385 104.688C336.896 105.17 337.524 105.718 338.22 106.306C339.612 107.481 341.386 108.902 343.26 110.406C347.061 113.455 351.288 116.857 354.16 119.64C355.208 120.655 356.905 120.655 357.953 119.64C359 118.625 359 116.98 357.953 115.965C354.865 112.973 350.42 109.402 346.682 106.402C344.786 104.882 343.073 103.508 341.743 102.386C341.078 101.825 340.534 101.348 340.126 100.963C339.922 100.771 339.767 100.616 339.654 100.495C339.533 100.365 339.501 100.317 339.514 100.335ZM333.189 86.9261C331.939 86.274 330.368 86.6794 329.625 87.8685C328.881 89.0576 329.237 90.5946 330.412 91.3658L330.528 91.4377L345.28 100.101C346.546 100.845 348.195 100.452 348.963 99.225C349.731 97.9975 349.326 96.3997 348.059 95.6558L333.308 86.9929L333.189 86.9261Z" fill="#652815"/>
<path d="M247.543 76.7822C320.356 76.7822 291.111 137.538 236.94 121.693C211.967 114.388 200.225 76.7822 247.543 76.7822Z" fill="#B07066"/>
<path d="M298.11 30.9972C291.28 42.2466 291.346 57.1364 298.275 68.3282C300.351 71.6813 303.229 74.863 307.104 75.9175C312.228 77.312 317.632 74.6159 321.57 71.1369C330.924 62.8736 335.177 49.8811 333.792 37.6641C333.333 33.6224 332.202 29.451 329.331 26.4955C325.167 22.2116 318.192 21.5229 312.4 23.2599C306.606 24.9982 300.288 27.4081 298.11 30.9972Z" fill="#B07066"/>
<path d="M200.662 387.918C193.38 378.737 190.631 366.302 193.39 355.021C193.976 352.625 194.825 350.23 196.407 348.307C197.989 346.384 200.413 344.988 202.943 345.11C207.154 345.316 209.981 349.339 211.689 353.089C213.805 357.738 215.287 362.661 216.08 367.688C216.861 372.644 216.919 377.948 214.557 382.403C212.195 386.86 206.832 390.108 200.662 387.918Z" fill="#B07066"/>
<path d="M256.416 89.2221C255.217 87.2477 256.518 83.8824 262.216 84.5956C268.431 85.3736 269.497 89.6343 268.713 90.7707C266.656 93.7555 257.592 91.1585 256.416 89.2221Z" fill="#EDAE84"/>
<path d="M225.152 81.1157C223.759 81.1157 222.485 80.2081 222.114 78.8355C221.671 77.2024 222.674 75.529 224.354 75.0996C233.023 72.8781 242.439 72.6384 252.336 74.3901C254.044 74.6923 255.177 76.285 254.866 77.9462C254.555 79.6074 252.919 80.7133 251.21 80.4075C242.227 78.8184 233.731 79.0227 225.956 81.0142C225.687 81.0827 225.416 81.1157 225.152 81.1157Z" fill="#652815"/>
<path d="M139.65 83.7482C138.545 83.7482 137.472 83.1806 136.899 82.1739C136.056 80.6961 136.605 78.8343 138.122 78.0159C145.963 73.7833 155.027 71.294 165.061 70.6187C166.801 70.5111 168.294 71.7747 168.415 73.4592C168.534 75.1436 167.228 76.6042 165.495 76.7205C156.386 77.3333 148.203 79.5683 141.175 83.3641C140.689 83.6247 140.166 83.7482 139.65 83.7482Z" fill="#652815"/>
<path d="M97.423 78.0744C96.3327 78.0744 95.2725 77.5215 94.6915 76.5355C92.2267 72.347 89.0124 68.3884 85.1416 64.7699C83.8891 63.6005 83.8501 61.664 85.0523 60.4456C86.2545 59.2285 88.2453 59.1893 89.4978 60.3588C93.8012 64.3809 97.3852 68.8007 100.148 73.4956C101.011 74.9611 100.489 76.8303 98.9824 77.6695C98.4894 77.9435 97.9511 78.0744 97.423 78.0744Z" fill="#652815"/>
<path d="M135.758 148.405C129.928 148.405 123.92 147.091 118.807 143.032C108.646 134.967 109.282 126.691 110.439 111.667C110.575 109.894 110.721 108.01 110.858 105.998C110.974 104.314 112.466 103.052 114.205 103.15C115.938 103.263 117.249 104.721 117.133 106.407C116.993 108.435 116.846 110.336 116.709 112.123C115.583 126.765 115.161 132.243 122.782 138.292C131.541 145.246 145.188 141.363 152.518 139.278L153.606 138.969C155.276 138.501 157.017 139.437 157.5 141.059C157.981 142.681 157.02 144.376 155.352 144.846L154.283 145.149C149.654 146.466 142.838 148.405 135.758 148.405Z" fill="#652815"/>
<path d="M166.277 160.524C165.776 160.524 165.267 160.406 164.794 160.16C156.754 155.971 152.28 146.472 153.119 135.372C154.03 123.311 160.972 113.296 170.804 109.859C172.436 109.285 174.238 110.113 174.826 111.702C175.413 113.291 174.564 115.043 172.93 115.614C163.822 118.8 159.944 128.489 159.39 135.819C158.877 142.604 160.809 151.143 167.763 154.768C169.294 155.566 169.869 157.419 169.05 158.908C168.484 159.938 167.398 160.524 166.277 160.524Z" fill="#652815"/>
<path d="M311.162 79.3595C309.77 79.3595 308.499 78.4542 308.125 77.0841C307.68 75.4511 308.679 73.7776 310.358 73.3446C324.586 69.6747 330.269 56.1953 330.843 44.8041C331.337 34.9701 327.994 26.4903 322.894 24.6395C315.645 22.0143 298.475 35.1132 287.115 43.7839C282.898 47.0023 278.915 50.0422 275.766 52.09C274.323 53.0307 272.371 52.6503 271.405 51.2472C270.441 49.8428 270.829 47.9431 272.272 47.0048C275.222 45.0867 279.113 42.1165 283.232 38.9727C297.904 27.7723 314.531 15.077 325.091 18.9096C332.931 21.755 337.768 32.2826 337.122 45.105C336.47 58.0352 329.493 74.7379 311.968 79.2579C311.7 79.3264 311.428 79.3595 311.162 79.3595Z" fill="#652815"/>
<path d="M292.579 38.7722C291.303 38.7722 290.103 38.0113 289.633 36.7795C287.324 30.7401 280.297 12.3615 273.298 10.918C266.648 9.54061 257.262 17.9446 252.818 29.26C252.198 30.8392 250.378 31.6282 248.758 31.0252C247.136 30.4221 246.323 28.6544 246.943 27.0776C251.918 14.4142 263.615 2.66575 274.602 4.93372C283.727 6.81636 290.051 20.3263 295.526 34.6461C296.131 36.229 295.303 37.9893 293.675 38.579C293.314 38.7111 292.944 38.7722 292.579 38.7722Z" fill="#652815"/>
<path d="M205.728 393.845C205.679 393.845 205.628 393.843 205.579 393.841C198.694 393.529 193.34 387.243 190.885 376.595C188.023 364.175 189.869 348.221 197.845 344.105C202.033 341.942 205.313 342.6 207.324 343.536C212.174 345.787 215.585 352.131 217.75 362.933C218.082 364.591 216.97 366.197 215.265 366.521C213.571 366.843 211.91 365.763 211.577 364.104C209.22 352.346 205.924 349.663 204.616 349.056C203.95 348.746 202.827 348.457 200.792 349.507C196.413 351.767 194.544 364.521 197.019 375.258C198.379 381.155 201.418 387.53 205.871 387.732C207.607 387.81 208.946 389.241 208.865 390.928C208.787 392.567 207.397 393.845 205.728 393.845Z" fill="#652815"/>
<path d="M95.8992 391.551L95.6896 394.142L95.6975 394.142C95.7028 394.142 95.7109 394.143 95.7211 394.144C95.7415 394.145 95.7718 394.148 95.811 394.15C95.8896 394.156 96.0051 394.165 96.1541 394.176C96.4527 394.198 96.886 394.229 97.4261 394.267C98.5062 394.343 100.016 394.444 101.735 394.548C104.731 394.729 108.399 394.92 111.542 394.992L112.852 395.016C116.105 395.054 122.607 395.054 128.276 395.045C131.114 395.04 133.752 395.033 135.678 395.027C136.642 395.024 137.428 395.021 137.973 395.019C138.245 395.018 138.458 395.017 138.602 395.017C138.674 395.016 138.729 395.016 138.766 395.016L138.822 395.016C138.822 395.016 138.823 395.016 138.812 392.417L138.8 389.818L138.745 389.818C138.708 389.818 138.653 389.819 138.581 389.819C138.437 389.82 138.225 389.821 137.953 389.822C137.408 389.823 136.623 389.826 135.661 389.829C133.736 389.835 131.102 389.842 128.267 389.847C122.588 389.856 116.127 389.856 112.919 389.818L111.659 389.796C108.632 389.727 105.05 389.541 102.068 389.36C100.371 389.258 98.879 389.158 97.812 389.083C97.2789 389.046 96.8522 389.015 96.5592 388.993C96.4127 388.983 96.2992 388.974 96.2231 388.969C96.1853 388.966 96.1566 388.963 96.1375 388.962C96.1279 388.961 96.1204 388.961 96.1157 388.96C96.1134 388.96 96.1115 388.96 96.1105 388.96L96.1096 388.959C96.1096 388.959 96.1093 388.96 95.8992 391.551Z" fill="#652815"/>
<path d="M209.611 350.599C209.521 350.599 209.432 350.596 209.341 350.588C207.611 350.446 206.328 348.966 206.474 347.283C208.432 324.789 224.832 309.609 252.652 304.543C254.357 304.227 256.001 305.326 256.32 306.986C256.641 308.644 255.515 310.243 253.809 310.554C236.275 313.748 214.915 322.804 212.741 347.799C212.601 349.394 211.227 350.599 209.611 350.599Z" fill="#652815"/>
<path d="M113.486 103.408C115.047 103.418 116.323 104.577 116.468 106.053L116.483 106.353L116.483 106.427C116.483 106.473 116.481 106.541 116.48 106.629C116.478 106.806 116.474 107.063 116.468 107.391C116.457 108.046 116.438 108.984 116.402 110.119C116.331 112.385 116.197 115.454 115.948 118.644C115.7 121.819 115.331 125.186 114.777 128.021C114.501 129.435 114.166 130.79 113.746 131.953C113.357 133.034 112.777 134.298 111.83 135.217C109.577 137.403 107.273 138.54 105.468 139.124C104.571 139.414 103.803 139.564 103.232 139.643C102.947 139.682 102.709 139.705 102.528 139.716C102.437 139.722 102.359 139.726 102.297 139.728C102.267 139.729 102.24 139.73 102.216 139.731L102.16 139.731C102.158 139.73 102.157 139.67 102.157 136.805L102.157 139.731C100.492 139.731 99.1411 138.421 99.1411 136.805C99.1411 135.189 100.492 133.879 102.157 133.879L102.125 133.879C102.165 133.877 102.252 133.871 102.378 133.853C102.632 133.818 103.043 133.739 103.559 133.572C104.581 133.242 106.048 132.551 107.564 131.08C107.522 131.12 107.741 130.888 108.053 130.023C108.335 129.239 108.603 128.196 108.85 126.933C109.343 124.411 109.691 121.292 109.933 118.203C110.173 115.129 110.302 112.152 110.372 109.94C110.407 108.836 110.427 107.926 110.438 107.293C110.444 106.977 110.446 106.731 110.448 106.565C110.449 106.482 110.45 106.418 110.45 106.377L110.45 106.315L110.468 106.017C110.631 104.543 111.925 103.399 113.486 103.408Z" fill="#652815"/>
<path d="M26.5684 217.52C26.5684 217.52 -2.34705 144.66 8.38838 138.417C19.1238 132.174 21.6986 133.3 28.2569 134.129C34.8151 134.958 79.9383 146.234 86.1936 153.298C92.449 160.363 129.53 268.515 131.688 295.533C133.845 322.551 58.489 305.964 58.489 305.964L26.5684 217.52Z" fill="#6495FE"/>
<path d="M29.0276 216.114C25.6873 207.741 22.616 199.257 19.698 190.737C15.0706 177.223 10.0677 163.092 8.52498 148.89C8.28106 146.635 8.03431 144.139 8.4856 141.904C9.03726 139.18 10.949 138.718 13.4644 137.475C19.7136 134.393 25.5235 135.183 32.1318 136.706C47.3898 140.22 63.4088 144.354 77.6261 151.05C81.5661 152.907 83.5215 154.124 85.2549 157.588C87.3079 161.691 88.9943 165.977 90.683 170.228C96.3884 184.608 101.487 199.219 106.421 213.854C111.989 230.364 117.298 246.968 122.012 263.718C123.89 270.391 125.682 277.089 127.194 283.843C128.211 288.384 129.933 293.858 129.384 298.53C127.972 310.512 106.821 309.483 98.256 309.149C86.197 308.681 74.1035 306.907 62.2765 304.403C61.546 304.248 60.8189 304.092 60.0928 303.925C60.6034 304.474 61.1182 305.026 61.6287 305.575C52.1724 279.614 42.7169 253.657 33.2606 227.696C31.9233 224.021 30.5818 220.344 29.2445 216.669C28.2678 213.989 23.8438 214.885 24.832 217.597C35.3384 246.442 45.8449 275.286 56.3514 304.131C56.6883 305.057 57.0363 306.808 57.7768 307.539C58.77 308.519 60.7249 308.59 62.0024 308.853C69.8109 310.464 77.6947 311.754 85.6102 312.629C95.4799 313.725 105.686 314.374 115.498 312.845C122.38 311.773 130.688 309.142 133.21 302.04C135.372 295.957 132.759 287.955 131.369 281.875C129.096 271.942 126.302 262.116 123.393 252.338C116.582 229.44 109.008 206.721 100.772 184.257C97.8145 176.197 94.8164 168.131 91.3929 160.243C89.4963 155.873 87.9274 151.856 83.6749 149.238C74.7858 143.759 63.8176 140.887 53.9038 137.941C45.4132 135.419 36.7462 132.79 27.9966 131.366C22.8473 130.526 18.4167 130.447 13.5728 132.474C9.96304 133.986 5.7189 135.567 4.41466 139.507C2.20788 146.177 4.72468 154.902 6.28101 161.505C10.5226 179.514 16.919 197.131 23.5928 214.43C24.0738 215.677 24.554 216.921 25.0513 218.161C26.1108 220.841 30.0857 218.773 29.0276 216.114Z" fill="#366BD0"/>
<path d="M141.376 314.152C140.594 313.806 139.67 314.137 139.311 314.893C138.899 315.762 138.14 316.885 137.267 317.539C136.845 317.855 136.478 318 136.175 318.03C135.909 318.056 135.562 318.01 135.099 317.691C132.484 315.889 131.282 313.288 131.036 312.356L131.001 312.241C130.802 311.676 130.273 311.274 129.649 311.226C129.026 311.179 128.438 311.496 128.15 312.024L128.096 312.132C127.54 313.384 126.542 315.137 125.395 316.366C124.819 316.983 124.29 317.373 123.854 317.552C123.473 317.708 123.214 317.692 122.951 317.561C121.955 317.063 121.154 315.979 120.581 314.563C120.02 313.177 119.775 311.712 119.725 310.824C119.678 309.994 118.944 309.358 118.085 309.403C117.226 309.448 116.568 310.157 116.615 310.987C116.68 312.144 116.98 313.931 117.68 315.659C118.367 317.355 119.541 319.245 121.521 320.235C122.746 320.847 123.994 320.766 125.073 320.323C126.096 319.903 126.982 319.159 127.708 318.382C128.347 317.698 128.93 316.914 129.435 316.129C130.294 317.47 131.549 318.941 133.291 320.141C134.312 320.844 135.407 321.132 136.496 321.024C137.549 320.919 138.453 320.459 139.176 319.919C140.591 318.859 141.614 317.262 142.143 316.148C142.501 315.392 142.158 314.499 141.376 314.152Z" fill="#652815"/>
<path d="M309.104 142.709C308.256 142.843 307.679 143.618 307.817 144.438C307.975 145.383 307.991 146.725 307.642 147.739C307.474 148.23 307.252 148.548 307.018 148.737C306.812 148.903 306.497 149.052 305.93 149.037C302.722 148.954 300.228 147.445 299.488 146.803L299.392 146.726C298.902 146.365 298.231 146.317 297.686 146.615C297.141 146.912 296.836 147.493 296.901 148.087L296.918 148.205C297.176 149.545 297.357 151.54 297.112 153.18C296.988 154.003 296.774 154.613 296.515 154.997C296.289 155.332 296.064 155.459 295.771 155.492C294.657 155.617 293.368 155.15 292.077 154.284C290.815 153.437 289.768 152.352 289.216 151.643C288.7 150.979 287.724 150.848 287.037 151.349C286.35 151.85 286.212 152.794 286.728 153.458C287.448 154.383 288.725 155.704 290.3 156.761C291.846 157.798 293.909 158.733 296.122 158.485C297.491 158.331 298.48 157.59 299.121 156.639C299.729 155.737 300.036 154.641 300.192 153.604C300.329 152.69 300.361 151.725 300.329 150.8C301.814 151.449 303.702 151.993 305.839 152.048C307.091 152.08 308.165 151.728 309.008 151.049C309.821 150.393 310.307 149.523 310.596 148.684C311.161 147.04 311.092 145.161 310.889 143.951C310.752 143.13 309.953 142.574 309.104 142.709Z" fill="#652815"/>
<path d="M304.501 167.083C302.959 167.329 301.911 168.736 302.16 170.228C302.448 171.944 302.477 174.384 301.844 176.227C301.537 177.119 301.135 177.698 300.709 178.04C300.335 178.342 299.763 178.612 298.731 178.586C292.901 178.436 288.368 175.691 287.022 174.526L286.849 174.386C285.957 173.729 284.738 173.643 283.748 174.183C282.757 174.724 282.203 175.779 282.32 176.858L282.352 177.074C282.821 179.509 283.15 183.135 282.703 186.115C282.479 187.612 282.09 188.72 281.619 189.419C281.208 190.028 280.8 190.259 280.267 190.318C278.242 190.545 275.9 189.696 273.554 188.122C271.259 186.582 269.357 184.612 268.353 183.321C267.414 182.116 265.641 181.876 264.392 182.787C263.144 183.699 262.892 185.415 263.831 186.621C265.139 188.302 267.461 190.704 270.323 192.624C273.134 194.51 276.883 196.208 280.904 195.757C283.394 195.478 285.191 194.131 286.356 192.402C287.461 190.764 288.02 188.772 288.302 186.887C288.551 185.226 288.61 183.471 288.552 181.79C291.25 182.97 294.682 183.958 298.566 184.058C300.842 184.117 302.794 183.477 304.325 182.243C305.804 181.05 306.688 179.469 307.212 177.945C308.24 174.956 308.113 171.542 307.745 169.341C307.495 167.849 306.043 166.839 304.501 167.083Z" fill="#652815"/>
<path d="M364.575 181.059C362.505 181.388 361.098 183.277 361.433 185.28C361.819 187.584 361.858 190.86 361.007 193.334C360.596 194.531 360.056 195.308 359.485 195.768C358.983 196.173 358.214 196.536 356.829 196.5C349.003 196.299 342.917 192.615 341.11 191.05L340.877 190.862C339.681 189.981 338.044 189.864 336.714 190.59C335.385 191.315 334.64 192.733 334.798 194.181L334.84 194.471C335.47 197.74 335.912 202.608 335.313 206.608C335.012 208.618 334.489 210.105 333.857 211.043C333.305 211.861 332.757 212.171 332.041 212.251C329.324 212.556 326.179 211.415 323.029 209.302C319.949 207.235 317.395 204.59 316.047 202.858C314.787 201.239 312.407 200.918 310.73 202.141C309.054 203.364 308.717 205.668 309.977 207.287C311.732 209.544 314.85 212.768 318.692 215.346C322.466 217.878 327.498 220.158 332.897 219.553C336.239 219.178 338.652 217.369 340.216 215.049C341.7 212.848 342.449 210.175 342.828 207.644C343.162 205.414 343.242 203.058 343.164 200.802C346.786 202.387 351.393 203.712 356.607 203.847C359.663 203.925 362.284 203.066 364.339 201.41C366.325 199.809 367.511 197.686 368.215 195.64C369.595 191.627 369.424 187.044 368.93 184.089C368.595 182.087 366.646 180.73 364.575 181.059Z" fill="#652815"/>
<path d="M178.925 333.211C178.143 332.864 177.218 333.196 176.86 333.951C176.448 334.82 175.689 335.944 174.816 336.597C174.394 336.913 174.027 337.058 173.724 337.088C173.458 337.115 173.111 337.068 172.648 336.749C170.033 334.948 168.831 332.347 168.585 331.414L168.55 331.299C168.351 330.734 167.821 330.332 167.198 330.285C166.575 330.237 165.987 330.554 165.699 331.082L165.645 331.19C165.089 332.442 164.091 334.196 162.944 335.424C162.367 336.041 161.839 336.431 161.403 336.611C161.022 336.767 160.763 336.751 160.5 336.62C159.504 336.121 158.703 335.037 158.129 333.621C157.569 332.236 157.324 330.77 157.274 329.882C157.227 329.053 156.493 328.416 155.634 328.461C154.775 328.506 154.117 329.216 154.164 330.045C154.229 331.202 154.529 332.989 155.229 334.717C155.916 336.414 157.09 338.304 159.07 339.293C160.295 339.906 161.542 339.825 162.622 339.382C163.645 338.961 164.531 338.218 165.256 337.441C165.896 336.756 166.479 335.972 166.984 335.187C167.843 336.528 169.098 337.999 170.84 339.199C171.861 339.903 172.955 340.191 174.045 340.082C175.098 339.977 176.002 339.518 176.724 338.977C178.14 337.918 179.163 336.321 179.691 335.206C180.05 334.451 179.706 333.557 178.925 333.211Z" fill="#652815"/>
<path d="M158.37 358.668C157.113 358.111 155.627 358.644 155.051 359.858C154.388 361.256 153.168 363.062 151.764 364.112C151.086 364.62 150.495 364.853 150.009 364.902C149.581 364.944 149.022 364.869 148.278 364.357C144.074 361.461 142.142 357.279 141.747 355.78L141.691 355.595C141.37 354.687 140.519 354.04 139.517 353.964C138.515 353.888 137.57 354.398 137.107 355.246L137.021 355.42C136.126 357.432 134.522 360.252 132.678 362.227C131.751 363.219 130.902 363.846 130.2 364.134C129.588 364.385 129.171 364.359 128.749 364.148C127.147 363.348 125.859 361.604 124.938 359.328C124.036 357.101 123.642 354.745 123.562 353.317C123.486 351.983 122.306 350.961 120.925 351.033C119.545 351.105 118.487 352.245 118.562 353.579C118.667 355.439 119.15 358.312 120.274 361.09C121.378 363.818 123.267 366.856 126.449 368.447C128.419 369.432 130.425 369.301 132.16 368.589C133.805 367.913 135.229 366.718 136.396 365.469C137.424 364.368 138.36 363.107 139.173 361.845C140.553 364.001 142.571 366.366 145.372 368.296C147.014 369.427 148.773 369.89 150.525 369.716C152.218 369.547 153.671 368.808 154.832 367.939C157.108 366.235 158.753 363.668 159.602 361.876C160.178 360.661 159.627 359.225 158.37 358.668Z" fill="#652815"/>
<path d="M215.309 265.648C214.698 265.081 214.486 264.209 214.785 263.43C215.104 262.598 215.933 262.056 216.844 262.086C218.676 262.144 221.6 262.307 224.457 262.604C227.22 262.891 230.228 263.333 232.032 264.041C233.124 264.47 234.18 265.252 235.107 266.071C236.063 266.917 237.018 267.928 237.908 268.957C239.466 270.759 240.901 272.712 241.878 274.154L242.267 274.739C242.728 275.444 242.708 276.35 242.216 277.035C241.723 277.72 240.856 278.049 240.018 277.868C237.603 277.347 231.702 275.81 227.571 273.802C223.45 271.798 217.737 267.576 215.436 265.758L215.309 265.648ZM223.801 266.695C225.742 268.011 227.787 269.286 229.467 270.103C231.162 270.927 233.251 271.68 235.235 272.301C235.046 272.073 234.855 271.845 234.661 271.621C233.843 270.675 233.021 269.812 232.253 269.132C231.455 268.427 230.84 268.032 230.443 267.876C229.267 267.414 226.833 267.009 224.004 266.715C223.937 266.708 223.869 266.702 223.801 266.695Z" fill="#662425"/>
<path d="M271.632 309.829C271.021 309.262 270.809 308.39 271.108 307.611C271.427 306.779 272.256 306.237 273.167 306.267C274.999 306.325 277.923 306.487 280.78 306.785C283.543 307.072 286.551 307.514 288.354 308.222C289.447 308.651 290.503 309.433 291.43 310.252C292.385 311.098 293.341 312.109 294.231 313.138C295.789 314.94 297.224 316.893 298.201 318.335L298.59 318.92C299.051 319.625 299.031 320.531 298.539 321.216C298.046 321.901 297.179 322.23 296.341 322.049C293.926 321.528 288.024 319.991 283.894 317.983C279.773 315.979 274.06 311.757 271.759 309.939L271.632 309.829ZM280.124 310.876C282.065 312.192 284.109 313.467 285.79 314.284C287.485 315.108 289.574 315.861 291.558 316.482C291.369 316.254 291.178 316.026 290.984 315.802C290.166 314.856 289.344 313.993 288.575 313.313C287.777 312.607 287.163 312.213 286.766 312.057C285.59 311.595 283.156 311.19 280.327 310.895C280.259 310.888 280.191 310.883 280.124 310.876Z" fill="#662425"/>
<path d="M87.4059 235.618L163.397 195.769L163.397 259.441L120.931 271.569L87.4059 235.618Z" fill="#CD966D"/>
<path d="M115.909 269.514C105.389 238.406 93.0027 207.916 81.8236 177.032C80.5818 173.596 79.3504 170.158 78.146 166.711C77.278 164.22 76.8483 160.16 74.4266 158.732C73.0467 157.916 70.8584 157.646 69.33 157.185C59.7706 154.279 50.2121 151.376 40.6527 148.47C33.1444 146.189 25.6359 143.908 18.131 141.626C15.3116 140.768 13.9177 145.002 16.733 145.857C35.4987 151.562 54.2636 157.262 73.0294 162.967C72.5179 162.423 72.0022 161.877 71.4907 161.334C83.8976 198.021 99.0263 233.793 111.431 270.484C112.343 273.171 116.825 272.232 115.909 269.514Z" fill="#366BD0"/>
<path d="M101.523 227.368C128.688 229.572 145.384 267.034 140.396 274.904C138.77 277.468 135.378 278.271 132.333 278.849C124.896 280.262 116.97 281.636 109.941 278.924C105.641 277.266 97.8373 274.347 94.3907 271.359C86.3081 264.358 82.3358 257.051 77.0719 247.867C75.4553 245.046 74.1079 241.873 74.556 238.671C75.0051 235.469 77.8407 232.392 81.1647 232.636C83.9741 232.842 86.345 235.244 89.1552 235.027C94.2887 234.63 100.227 227.263 101.523 227.368Z" fill="#B07066"/>
<path d="M77.1224 257.061C75.4078 254.554 73.9777 252.13 72.8905 249.916C69.485 242.991 68.8989 237.488 71.1988 234.002C75.67 227.223 81.1694 228.844 85.5887 230.147C86.3871 230.382 87.2037 230.623 88.0389 230.83C102.752 221.416 130.396 204.781 157.981 193.791C159.593 193.149 161.424 193.893 162.089 195.451C162.746 197.011 161.974 198.794 160.365 199.435C132.553 210.515 104.581 227.5 90.3821 236.639C89.6854 237.087 88.8335 237.249 88.0152 237.09C86.4489 236.785 85.0103 236.361 83.7403 235.987C79.3314 234.686 78.3347 234.508 76.5053 237.281C75.7536 238.419 75.848 241.721 78.58 247.279C85.1988 260.73 101.831 276.713 115.125 278.141C121.923 278.871 155.345 271.194 182.199 265.027C189.905 263.257 197.335 261.55 203.929 260.084C205.626 259.707 207.311 260.736 207.699 262.376C208.084 264.019 207.019 265.657 205.323 266.035C198.743 267.497 191.326 269.201 183.637 270.967C147.721 279.216 121.733 284.995 114.414 284.209C99.7471 282.632 85.2468 268.938 77.1224 257.061Z" fill="#652815"/>
<path d="M47.3994 168.907C50.6485 172.016 51.8716 175.925 50.1252 177.642C48.378 179.354 44.3291 178.224 41.0757 175.113C37.8231 172.006 36.6034 168.095 38.3498 166.379C40.097 164.666 44.1468 165.8 47.3994 168.907Z" fill="white"/>
</svg>
