<svg width="180" height="167" viewBox="0 0 180 167" fill="none" xmlns="http://www.w3.org/2000/svg">
<path d="M120.597 18.619C121.975 19.5306 123.273 20.557 124.477 21.6802C125.681 22.804 126.792 24.0251 127.795 25.3261C128.799 26.6271 129.696 28.008 130.472 29.4514C131.248 30.8948 131.904 32.4007 132.426 33.9512C133.403 33.7788 134.351 33.4726 135.246 33.0537C136.141 32.6347 136.982 32.1028 137.745 31.4785C138.507 30.8542 139.192 30.1368 139.773 29.3473C140.354 28.5578 140.832 27.6956 141.182 26.7811C141.532 25.8671 141.751 24.9085 141.844 23.9379C141.937 22.9672 141.903 21.9839 141.749 21.0196C141.595 20.0552 141.32 19.1092 140.928 18.2136C140.537 17.318 140.029 16.4723 139.411 15.708C139.066 15.2822 138.645 14.9461 138.174 14.6908C137.703 14.4356 137.183 14.2622 136.639 14.1609C136.096 14.0597 135.529 14.0316 134.965 14.067C134.402 14.1028 133.842 14.2026 133.312 14.3581C132.782 14.5136 132.27 14.7131 131.771 14.9413C131.272 15.1694 130.785 15.4266 130.304 15.6969C129.823 15.9671 129.348 16.2515 128.872 16.5334C128.396 16.8158 127.919 17.0962 127.435 17.3597C126.951 17.6232 126.447 17.8717 125.922 18.0862C125.397 18.3008 124.851 18.482 124.282 18.6113C123.714 18.7406 123.123 18.8176 122.509 18.8249C121.896 18.8336 121.259 18.7707 120.597 18.619Z" fill="#B07066"/>
<path d="M48.6358 32.9828C47.4603 32.9035 46.3135 33.4431 45.2415 32.9828C44.1694 32.5226 42.2224 32.2955 41.345 31.5335C40.4676 30.7716 40.6593 28.6452 40.0684 27.6609C39.477 26.6771 39.0522 25.6016 38.8385 24.4752C38.6249 23.3483 38.6283 22.1964 38.8298 21.0771C39.0308 19.9577 38.2604 18.2261 38.8386 17.2305C39.4169 16.2343 41.3444 15.9737 42.2621 15.217C43.1798 14.4602 44.0218 14.8444 45.2415 14.4426C46.2975 15.2065 47.639 14.9139 48.7839 15.5451C49.9288 16.1763 51.1136 16.7395 52.3289 17.2305C53.5442 17.7219 54.7906 18.1411 56.0583 18.4848C57.3261 18.8285 58.6157 19.0966 59.9174 19.286C58.7099 20.1235 57.5635 21.0431 56.4827 22.0406C55.4019 23.0382 54.3861 24.1127 53.4403 25.2603C52.4944 26.408 51.618 27.6283 50.8164 28.9172C50.0138 30.2055 49.2855 31.5623 48.6358 32.9828Z" fill="#B07066"/>
<path d="M42.5108 54.9663C42.5108 48.0058 46.2316 36.4051 54.0116 24.1415C58.2309 17.4905 68.8032 13.7133 78.1617 11.9014C81.0732 11.3377 77.0236 6.99555 79.0054 6.83433C80.9274 6.67797 87.2207 14.2913 88.0471 10.9411C89.2527 6.05388 94.6777 0.201281 95.4814 1.56689C96.2851 2.9325 90.8601 10.9411 95.4814 10.9411L96.2962 9.55333C96.6493 8.32407 97.0052 6.73839 97.8926 6.83433C99.3488 6.99177 98.4953 11.9014 103.318 11.9014C112.273 13.7832 122.247 17.8835 128.09 25.7987C139.591 41.3769 138.576 54.9663 137.561 61.5952C136.547 68.2242 140.606 75.5161 143.988 82.4765C147.371 89.437 161.239 114.296 159.886 136.834C158.804 154.865 146.582 160.036 140.606 160.367H40.4812C35.0692 160.367 23.9066 157.384 20.524 136.834C17.1414 116.284 36.7604 82.1451 40.4812 73.196C44.2021 64.2468 42.5108 61.9267 42.5108 54.9663Z" fill="#CD966D"/>
<path d="M23.3694 147.226C24.0528 146.921 24.8584 147.192 25.2036 147.832L25.2354 147.895L25.4504 148.339C29.9978 157.52 36.8359 159.002 40.4811 159.002H140.558C143.911 158.805 149.622 156.889 153.702 151.377L153.746 151.321C154.21 150.756 155.053 150.638 155.665 151.064C156.295 151.505 156.439 152.358 155.986 152.97L155.767 153.261C151.285 159.123 145.125 161.364 141.077 161.703L140.686 161.731C140.659 161.732 140.632 161.733 140.606 161.733H40.4811C35.9391 161.733 28.0102 159.8 22.9208 149.533L22.6806 149.038L22.652 148.973C22.3754 148.303 22.686 147.532 23.3694 147.226ZM41.1043 54.9662C41.1043 47.6526 44.964 35.7988 52.8138 23.4251L53.0355 23.086C55.375 19.609 59.2394 16.9644 63.556 14.9732C68.0185 12.9147 73.1024 11.4912 77.8422 10.5708C77.8213 10.3896 77.7506 10.0967 77.5969 9.64564C77.5173 9.41186 77.3823 9.03996 77.2951 8.77423C77.2006 8.48617 77.0955 8.13266 77.051 7.78127C77.0105 7.46106 76.9852 6.89733 77.3175 6.36614C77.7069 5.74378 78.3495 5.5172 78.888 5.47339L79.0136 5.46691C79.6377 5.45275 80.2056 5.70623 80.5779 5.90052C81.03 6.13654 81.5038 6.45722 81.9596 6.79098C82.8205 7.4214 83.9489 8.35649 84.8071 9.01237C85.6361 9.64591 86.2953 10.0862 86.7642 10.3006C87.4911 7.68179 89.2099 4.95865 90.8275 3.04319C91.6701 2.04546 92.5557 1.18239 93.3465 0.647672C93.7223 0.3936 94.2069 0.122861 94.7369 0.0323126C95.0185 -0.0157933 95.3894 -0.0263478 95.7769 0.116139C96.1641 0.258526 96.4636 0.515784 96.6638 0.826374L96.7027 0.889244L96.7717 1.01879C96.918 1.32108 96.9591 1.61896 96.9683 1.84219C96.9793 2.10632 96.9492 2.36564 96.9083 2.59472C96.8271 3.04974 96.671 3.55466 96.5049 4.0392C96.1369 5.11217 95.7372 6.06848 95.3958 7.1621C95.1558 7.93127 95.0304 8.53015 95.0054 8.95903C95.0446 8.81951 95.0873 8.66779 95.1349 8.50218C95.2837 7.98428 95.4897 7.30631 95.8036 6.75974C96.0797 6.2788 96.7443 5.39788 97.9318 5.46729L98.0483 5.4772L98.1668 5.4932C98.7492 5.5897 99.1656 5.91216 99.436 6.23392C99.6988 6.54678 99.8669 6.90715 99.9811 7.1823C100.098 7.46351 100.21 7.79115 100.306 8.0579C100.409 8.34567 100.51 8.6144 100.628 8.87177C100.864 9.38755 101.135 9.77848 101.497 10.0484C101.816 10.2863 102.308 10.5065 103.146 10.5331L103.318 10.5357L103.393 10.5376C103.467 10.5415 103.542 10.5512 103.615 10.5666C112.712 12.4781 123.093 16.6854 129.233 25.003L129.507 25.3771C141.008 41.193 139.99 55.0229 138.953 61.7961C138.495 64.7851 139.171 68.0145 140.449 71.4476C141.73 74.8897 143.544 78.3616 145.26 81.8938C145.592 82.5759 145.291 83.3899 144.588 83.7117C143.886 84.0335 143.048 83.7414 142.716 83.0594C141.05 79.6313 139.143 75.9768 137.803 72.3758C136.459 68.7656 135.613 65.0345 136.17 61.3945C137.147 55.0134 138.142 41.9844 127.207 26.9496L126.947 26.5941C121.427 19.118 111.927 15.1277 103.149 13.2639C101.76 13.2358 100.65 12.8607 99.7837 12.2149C98.9042 11.5594 98.3928 10.7133 98.0577 9.98209C97.9977 9.85097 97.9428 9.72058 97.8913 9.59382L97.6017 10.0869C97.5257 10.3424 97.4442 10.5965 97.3576 10.8143C97.2641 11.0497 97.1162 11.3765 96.8773 11.6578C96.6387 11.9388 96.1499 12.3423 95.4335 12.306C94.6737 12.2991 93.9329 12.1289 93.3277 11.675C92.6954 11.2007 92.3879 10.5504 92.2638 9.9276C92.0372 8.7898 92.3664 7.45095 92.7037 6.36995C92.9118 5.70327 93.1883 4.9515 93.4352 4.28268C93.2944 4.43724 93.1492 4.60107 93.0024 4.77496C91.5195 6.53081 90.0457 8.93238 89.4681 11.0547L89.4147 11.2589C89.2532 11.9136 88.8737 12.6132 88.0832 12.9629C87.3531 13.2858 86.6149 13.1507 86.1081 12.9853C85.1071 12.6588 84.0021 11.8729 83.0671 11.1583C82.0418 10.3747 81.2051 9.66625 80.3491 9.03333C80.5274 9.58306 80.729 10.3376 80.6395 11.0581C80.5812 11.5267 80.3949 12.0432 79.9649 12.4763C79.5684 12.8755 79.0654 13.1026 78.5415 13.2189L78.4367 13.2406C73.8307 14.1324 68.9672 15.501 64.7631 17.4403C60.6703 19.3283 57.3306 21.698 55.3921 24.5774L55.2092 24.8578C47.4992 37.0113 43.9173 48.3589 43.9173 54.9662C43.9173 56.6523 44.0195 58.0591 44.1198 59.393C44.2192 60.7163 44.3199 62.0012 44.2976 63.3572C44.2519 66.1288 43.6956 69.1131 41.7856 73.7071L41.7565 73.7715C41.4435 74.4269 40.6523 74.7358 39.9545 74.4623C39.2343 74.1799 38.8863 73.3841 39.1771 72.6848L39.3427 72.2813C41.0158 68.1642 41.4473 65.6053 41.485 63.3134C41.5049 62.1007 41.4157 60.9408 41.3143 59.5919C41.2137 58.2535 41.1043 56.7603 41.1043 54.9662Z" fill="#652815"/>
<path d="M151.075 98.7964C151.785 98.5551 152.561 98.8995 152.842 99.5683L152.868 99.6343L152.962 99.8888C153.483 101.267 154.756 104.189 156.337 106.562L156.557 106.902C158.732 110.38 158.031 112.77 158.16 113.767C158.215 114.199 158.248 114.874 158.295 115.486C158.347 116.152 158.424 116.902 158.574 117.687C158.876 119.267 159.46 120.901 160.635 122.206C162.004 123.725 162.987 124.967 163.245 126.29C163.524 127.722 162.909 128.953 162.222 130.191C161.815 130.925 161.405 131.448 161.096 131.847C160.771 132.265 160.622 132.471 160.526 132.697C160.369 133.068 160.237 133.791 160.931 136.198L160.99 136.411C161.567 138.614 161.356 141.138 160.926 143.223C160.486 145.359 159.76 147.303 159.156 148.224C158.739 148.861 157.87 149.048 157.215 148.644C156.559 148.239 156.366 147.395 156.783 146.758C157.117 146.249 157.757 144.682 158.168 142.688C158.562 140.773 158.69 138.717 158.266 137.091L158.223 136.935C157.511 134.465 157.379 132.945 157.925 131.657C158.181 131.054 158.559 130.577 158.849 130.203C159.155 129.809 159.449 129.43 159.745 128.896C160.465 127.598 160.553 127.17 160.48 126.798C160.387 126.316 159.963 125.607 158.519 124.005C156.882 122.188 156.159 120.019 155.808 118.185C155.632 117.263 155.545 116.403 155.49 115.691C155.431 114.926 155.413 114.454 155.369 114.106C155.108 112.079 155.903 111.079 154.153 108.318L153.976 108.045C152.242 105.444 150.883 102.317 150.315 100.815L150.212 100.537L150.19 100.469C149.98 99.7764 150.365 99.0377 151.075 98.7964ZM145.994 91.4627C146.446 90.8782 147.287 90.7451 147.904 91.1488L147.963 91.1895L154.393 95.8716L154.45 95.915C155.022 96.3772 155.126 97.1987 154.674 97.7832C154.223 98.3677 153.381 98.5009 152.764 98.0972L152.705 98.0564L146.276 93.3744L146.219 93.3309C145.647 92.8688 145.543 92.0473 145.994 91.4627ZM143.868 85.7889C144.221 85.1436 145.031 84.886 145.705 85.1922L145.77 85.2234L152.2 88.5399L152.263 88.5745C152.901 88.9453 153.135 89.7411 152.782 90.3863C152.429 91.0316 151.619 91.2892 150.945 90.983L150.88 90.9518L144.451 87.6353L144.387 87.6006C143.749 87.2298 143.515 86.4341 143.868 85.7889Z" fill="#652815"/>
<path d="M90.0565 78.821C93.107 78.821 96.153 78.2735 99.015 77.3151C101.877 76.3567 104.554 74.9878 106.868 73.3441C109.181 71.7007 111.131 69.783 112.537 67.7274C113.943 65.6717 114.806 63.4786 114.945 61.2845C115.01 60.26 114.956 59.0675 114.772 57.7737C114.587 56.4799 114.274 55.0857 113.821 53.6582C113.368 52.2306 112.776 50.7694 112.035 49.3423C111.294 47.9153 110.405 46.5229 109.356 45.2319C108.179 43.7824 106.767 42.6129 105.217 41.6756C103.666 40.7388 101.978 40.0342 100.25 39.5158C98.5216 38.9969 96.7529 38.6643 95.0415 38.4701C93.33 38.2759 91.6758 38.2206 90.1765 38.2567C90.1617 38.2571 90.1429 38.2571 90.1222 38.2576C90.1014 38.2576 90.0792 38.2581 90.0565 38.2581C90.0338 38.2581 90.0117 38.2581 89.9909 38.2576C89.9702 38.2571 89.9515 38.2571 89.9367 38.2567C88.4373 38.2145 86.7836 38.267 85.0721 38.4603C83.3607 38.6536 81.592 38.9871 79.8637 39.5073C78.1355 40.0276 76.4472 40.7341 74.897 41.6732C73.3469 42.6119 71.9344 43.7833 70.7572 45.2329C69.7088 46.5239 68.8193 47.9167 68.0783 49.3433C67.3373 50.7703 66.7452 52.2311 66.2923 53.6591C65.8394 55.0871 65.5256 56.4813 65.3416 57.7746C65.1576 59.068 65.1028 60.2609 65.1679 61.2855C65.3071 63.4795 66.17 65.6731 67.576 67.7283C68.9821 69.784 70.9319 71.7017 73.2453 73.345C75.5586 74.9883 78.2361 76.3576 81.0981 77.316C83.9596 78.2735 87.0056 78.821 90.0565 78.821Z" fill="#B07066"/>
<path d="M109.754 37.5231C110.278 35.7464 111.448 34.53 112.943 33.7738C114.439 33.0181 116.261 32.7228 118.095 32.79C119.927 32.8567 121.771 33.2852 123.307 33.9768C124.843 34.6684 126.073 35.6226 126.678 36.7409C128.046 39.2657 127.424 41.4161 125.785 43.0115C124.144 44.6069 121.486 45.6473 118.781 45.9529C116.075 46.2584 113.323 45.8286 111.495 44.484C109.667 43.1388 108.763 40.8788 109.754 37.5231Z" fill="#B07066"/>
<path d="M70.3322 37.5231C69.7726 35.7464 68.5261 34.53 66.9304 33.7739C65.3351 33.0182 63.3907 32.7228 61.4352 32.79C59.4803 32.8568 57.5143 33.2852 55.8755 33.9768C54.2367 34.6684 52.9255 35.6226 52.2792 36.7409C50.8203 39.2658 51.4836 41.4161 53.2326 43.0115C54.9817 44.6069 57.8174 45.6474 60.7033 45.9529C63.5891 46.2585 66.525 45.8287 68.475 44.484C70.4249 43.1393 71.3894 40.8789 70.3322 37.5231Z" fill="#B07066"/>
<path d="M110.682 149.901C110.058 150.305 109.538 150.842 109.135 151.46C108.731 152.077 108.445 152.776 108.285 153.503C108.126 154.23 108.095 154.985 108.203 155.715C108.312 156.446 108.559 157.153 108.957 157.782C109.355 158.412 109.887 158.938 110.499 159.346C111.111 159.756 111.804 160.048 112.527 160.212C113.249 160.376 114 160.412 114.728 160.308C115.456 160.204 116.16 159.96 116.79 159.563C117.419 159.167 117.945 158.636 118.356 158.023C118.766 157.41 119.062 156.715 119.229 155.991C119.397 155.266 119.437 154.512 119.338 153.78C119.239 153.048 119 152.338 118.609 151.703C118.219 151.068 117.691 150.533 117.079 150.113C116.467 149.693 115.77 149.388 115.04 149.216C114.31 149.044 113.547 149.004 112.804 149.112C112.06 149.221 111.336 149.478 110.682 149.901Z" fill="#B07066"/>
<path d="M59.425 35.7081C59.3085 35.3421 59.0486 35.0915 58.7162 34.9361C58.3838 34.7808 57.9787 34.7196 57.5713 34.7335C57.1638 34.7473 56.7545 34.8356 56.4129 34.9776C56.0713 35.1202 55.798 35.3165 55.6638 35.5469C55.3601 36.0667 55.4979 36.5093 55.8627 36.8381C56.2275 37.1669 56.8179 37.3807 57.4194 37.4435C58.0208 37.5063 58.6326 37.418 59.0389 37.1408C59.4439 36.8642 59.6452 36.3987 59.425 35.7081Z" fill="#CD966D"/>
<path d="M121.875 35.9587C121.968 35.6449 122.176 35.4302 122.442 35.297C122.708 35.1639 123.032 35.1114 123.358 35.1233C123.684 35.1351 124.012 35.2108 124.285 35.3326C124.558 35.4548 124.777 35.6231 124.884 35.8205C125.127 36.266 125.017 36.6454 124.725 36.9272C124.434 37.2091 123.961 37.3924 123.48 37.4462C122.999 37.5 122.51 37.4243 122.184 37.1867C121.86 36.9496 121.699 36.5506 121.875 35.9587Z" fill="#CD966D"/>
<path d="M110.521 38.2431C110.457 38.2431 110.393 38.238 110.329 38.2279C110.266 38.2178 110.203 38.2022 110.141 38.1819C110.08 38.1617 110.019 38.1355 109.961 38.1042C109.902 38.073 109.845 38.0366 109.791 37.9948C109.664 37.8964 109.563 37.7773 109.49 37.6463C109.417 37.5152 109.371 37.3722 109.354 37.2265C109.336 37.0803 109.347 36.9308 109.388 36.7869C109.429 36.643 109.499 36.5046 109.6 36.38C110.24 35.5887 110.953 34.8954 111.736 34.2995C112.519 33.7036 113.371 33.2065 114.293 32.8084C115.214 32.4102 116.204 32.1104 117.26 31.9104C118.316 31.7104 119.44 31.6102 120.628 31.6102C120.79 31.6102 120.945 31.6423 121.085 31.7003C121.226 31.7582 121.353 31.8423 121.459 31.9467C121.565 32.0506 121.651 32.1748 121.711 32.3122C121.77 32.4497 121.803 32.601 121.803 32.7596C121.803 32.9183 121.77 33.0695 121.711 33.207C121.651 33.3445 121.565 33.4682 121.459 33.5725C121.353 33.6765 121.226 33.7606 121.085 33.819C120.945 33.8769 120.79 33.9096 120.628 33.9096C119.628 33.9096 118.685 33.9914 117.8 34.1551C116.915 34.3183 116.089 34.5634 115.321 34.8889C114.554 35.2144 113.847 35.6209 113.2 36.1078C112.553 36.5947 111.967 37.1617 111.443 37.8081C111.385 37.8798 111.319 37.9428 111.249 37.9971C111.179 38.0514 111.104 38.0969 111.025 38.1332C110.946 38.1695 110.863 38.1976 110.778 38.216C110.694 38.2339 110.607 38.2431 110.521 38.2431Z" fill="#652815"/>
<path d="M70.7984 38.2431C70.7119 38.2431 70.6254 38.2339 70.5408 38.2155C70.4562 38.1971 70.3734 38.1695 70.2944 38.1327C70.2154 38.0964 70.1397 38.0509 70.0697 37.9967C69.9996 37.9424 69.9347 37.8794 69.8764 37.8077C69.3527 37.1608 68.7663 36.5939 68.1194 36.1075C67.4724 35.6206 66.7648 35.2142 65.9975 34.8887C65.2302 34.5632 64.4036 34.3181 63.5187 34.1549C62.6339 33.9917 61.6907 33.9094 60.6911 33.9094C60.5289 33.9094 60.3742 33.8772 60.2336 33.8188C60.093 33.7609 59.9665 33.6768 59.8598 33.5724C59.7535 33.4685 59.6675 33.3444 59.6078 33.2069C59.5486 33.0694 59.5156 32.9182 59.5156 32.7595C59.5156 32.6009 59.5486 32.4497 59.6078 32.3122C59.667 32.1747 59.7535 32.0511 59.8598 31.9467C59.9661 31.8428 60.0925 31.7587 60.2336 31.7003C60.3742 31.6423 60.5289 31.6102 60.6911 31.6102C61.8792 31.6102 63.0025 31.7104 64.0589 31.9104C65.1154 32.1104 66.1047 32.4097 67.0258 32.8083C67.9468 33.2069 68.7997 33.7039 69.5826 34.2993C70.3654 34.8947 71.0777 35.5884 71.7191 36.3797C71.8197 36.5043 71.8902 36.6427 71.9306 36.7866C71.9715 36.9305 71.9823 37.0799 71.9654 37.2261C71.948 37.3723 71.9024 37.5148 71.8291 37.6459C71.7557 37.7769 71.6551 37.896 71.5277 37.9944C71.4736 38.0362 71.4172 38.0725 71.3584 38.1038C71.2997 38.135 71.2395 38.1608 71.1779 38.1815C71.1163 38.2022 71.0533 38.2173 70.9898 38.2275C70.9268 38.238 70.8629 38.2431 70.7984 38.2431Z" fill="#652815"/>
<path d="M94.5091 50.3384C94.423 50.3384 94.3364 50.3306 94.2522 50.3149C94.1675 50.2993 94.0849 50.2758 94.0047 50.2445C93.925 50.2132 93.8482 50.1744 93.7759 50.1279C93.7036 50.0814 93.6368 50.027 93.5754 49.9656C93.4631 49.8526 93.3823 49.7247 93.3323 49.5903C93.2823 49.4559 93.263 49.3154 93.2739 49.1766C93.2848 49.0379 93.3259 48.9009 93.3962 48.7739C93.4665 48.6469 93.5665 48.5299 93.6957 48.4316C94.2408 48.014 94.9067 47.5912 95.6562 47.1897C96.4057 46.7883 97.2384 46.4081 98.1171 46.0762C98.9959 45.7444 99.9201 45.4603 100.853 45.2516C101.786 45.0428 102.726 44.9088 103.638 44.877C103.807 44.8705 103.97 44.8949 104.12 44.9445C104.27 44.9941 104.407 45.0689 104.524 45.1637C104.641 45.2581 104.737 45.3725 104.806 45.5003C104.876 45.6282 104.917 45.7705 104.924 45.9205C104.931 46.0706 104.902 46.2146 104.846 46.3468C104.789 46.479 104.703 46.5991 104.596 46.7013C104.489 46.8035 104.359 46.8879 104.213 46.9479C104.068 47.0079 103.906 47.044 103.736 47.0501C102.976 47.0766 102.183 47.1923 101.392 47.3724C100.602 47.5525 99.8152 47.7969 99.0667 48.0814C98.3181 48.3659 97.6082 48.6903 96.972 49.03C96.3359 49.3698 95.7745 49.7251 95.322 50.0713C95.2636 50.1161 95.2012 50.1553 95.1369 50.1888C95.0725 50.2223 95.0052 50.2501 94.9363 50.2723C94.8675 50.2945 94.7968 50.311 94.7255 50.3223C94.6537 50.3328 94.5814 50.3384 94.5091 50.3384Z" fill="#652815"/>
<path d="M85.6036 50.3384C85.5313 50.3384 85.4591 50.3328 85.3878 50.3219C85.3165 50.311 85.2457 50.2941 85.1769 50.2719C85.1081 50.2497 85.0408 50.2219 84.9764 50.1884C84.912 50.1549 84.8496 50.1157 84.7912 50.0709C84.3392 49.7247 83.7773 49.3694 83.1412 49.0297C82.505 48.69 81.7951 48.3655 81.0466 48.0811C80.298 47.7966 79.5108 47.5522 78.7207 47.3721C77.9306 47.1921 77.1375 47.0764 76.3771 47.0499C76.2063 47.0438 76.0449 47.0077 75.8993 46.9476C75.7538 46.8876 75.6241 46.8032 75.5166 46.701C75.4092 46.5988 75.3241 46.4788 75.2671 46.3466C75.2102 46.2143 75.1825 46.0704 75.1889 45.9203C75.1958 45.7703 75.2379 45.6285 75.3077 45.5006C75.3775 45.3727 75.4751 45.2588 75.5924 45.1644C75.7097 45.07 75.8474 44.9952 75.9969 44.9452C76.1464 44.8956 76.3083 44.8708 76.4751 44.8769C77.3865 44.9091 78.3276 45.0426 79.2603 45.2514C80.193 45.4602 81.1173 45.7442 81.9961 46.076C82.8748 46.4079 83.7075 46.788 84.4566 47.1895C85.2061 47.5909 85.872 48.0137 86.417 48.4312C86.5457 48.5299 86.6457 48.6469 86.7165 48.7739C86.7868 48.9009 86.8279 49.038 86.8388 49.1767C86.8497 49.3154 86.8304 49.4564 86.7804 49.5903C86.7304 49.7247 86.6492 49.8526 86.5373 49.9657C86.4759 50.0274 86.4086 50.0814 86.3368 50.1279C86.265 50.1744 86.1883 50.2132 86.1081 50.2445C86.0284 50.2758 85.9452 50.2993 85.8606 50.3149C85.7759 50.3306 85.6898 50.3384 85.6036 50.3384Z" fill="#652815"/>
<path d="M79.1344 69.0667C79.0193 69.0667 78.9064 69.0483 78.7985 69.0133C78.6906 68.9783 78.5882 68.9267 78.4948 68.86C78.4014 68.7933 78.3171 68.712 78.2454 68.6174C78.1738 68.5228 78.1149 68.4154 78.0723 68.2962C78.0178 68.143 77.9952 67.9859 78.0015 67.8327C78.0079 67.6789 78.0428 67.5295 78.1031 67.3918C78.1634 67.2542 78.2486 67.1284 78.3556 67.0229C78.4626 66.9174 78.5913 66.8323 78.7378 66.775L81.4805 65.7084L84.2232 64.6418L86.966 63.5752L89.7087 62.5085C89.7726 62.4835 89.8383 62.465 89.905 62.4523C89.9716 62.44 90.0387 62.4338 90.1063 62.4338C90.1738 62.4338 90.2409 62.4404 90.3076 62.4527C90.3742 62.4655 90.4399 62.4844 90.5038 62.5095L93.2221 63.5761L95.9404 64.6427L98.6586 65.7093L101.377 66.776C101.523 66.8332 101.652 66.9193 101.759 67.0248C101.865 67.1307 101.95 67.2565 102.01 67.3942C102.07 67.5318 102.105 67.6818 102.111 67.835C102.117 67.9888 102.094 68.1458 102.039 68.2986C101.983 68.4518 101.901 68.5857 101.8 68.6973C101.698 68.8089 101.578 68.8974 101.445 68.9598C101.313 69.0223 101.17 69.0582 101.023 69.0644C100.876 69.0705 100.725 69.0464 100.579 68.9892L97.96 67.9618L95.3411 66.9344L92.7221 65.9071L90.1031 64.8797L87.4597 65.9075L84.8167 66.9354L82.1737 67.9632L79.5302 68.9911C79.4976 69.0038 79.4649 69.0147 79.4318 69.0242C79.3987 69.0336 79.3656 69.0412 79.333 69.0473C79.2999 69.0535 79.2668 69.0582 79.2337 69.0611C79.2006 69.0648 79.1675 69.0667 79.1344 69.0667Z" fill="#652815"/>
<path d="M90.6589 64.7748C90.4094 64.7748 90.1714 64.7402 89.9551 64.678C89.7388 64.6152 89.5443 64.5248 89.3801 64.4131C89.2166 64.3014 89.0842 64.1681 88.9923 64.0203C88.9005 63.8726 88.8506 63.71 88.8506 63.5396V61.1333V58.7271V56.3209V53.9147C88.8506 53.7442 88.9012 53.5816 88.9923 53.4339C89.0835 53.2862 89.2166 53.1533 89.3801 53.0411C89.5435 52.9295 89.7388 52.839 89.9551 52.7763C90.1714 52.714 90.4094 52.6794 90.6589 52.6794C90.9085 52.6794 91.1465 52.714 91.3628 52.7763C91.579 52.8385 91.7736 52.929 91.9378 53.0411C92.1013 53.1528 92.2337 53.2862 92.3255 53.4339C92.4174 53.5816 92.4673 53.7442 92.4673 53.9147V56.3209V58.7271V61.1333V63.5396C92.4673 63.71 92.4167 63.8726 92.3255 64.0203C92.2344 64.1681 92.1013 64.301 91.9378 64.4131C91.7743 64.5248 91.579 64.6152 91.3628 64.678C91.1472 64.7402 90.9092 64.7748 90.6589 64.7748Z" fill="#652815"/>
<path d="M78.6453 73.3586C78.6309 73.3586 78.6159 73.3586 78.6015 73.3581C78.5871 73.3576 78.5722 73.3566 78.5572 73.3556C78.5423 73.3546 78.5279 73.3531 78.5129 73.3516C78.498 73.3501 78.4831 73.3481 78.4687 73.3461C78.2985 73.3218 78.1419 73.2647 78.0031 73.1817C77.8648 73.0987 77.7449 72.9894 77.6494 72.8627C77.5539 72.736 77.4827 72.5904 77.441 72.4344C77.3997 72.2784 77.3882 72.1119 77.4126 71.942C77.5827 70.747 77.5579 69.5317 77.3569 68.3377C77.1559 67.1437 76.7798 65.9701 76.2471 64.8586C75.7143 63.7471 75.0259 62.6967 74.2001 61.7492C73.3743 60.8017 72.4128 59.9565 71.3333 59.2544C71.1896 59.161 71.0712 59.0428 70.9811 58.9086C70.8906 58.775 70.8284 58.6259 70.7951 58.4699C70.7623 58.3143 70.7588 58.1529 70.7876 57.9939C70.816 57.8349 70.8762 57.6793 70.9702 57.5353C71.0637 57.3917 71.1821 57.2739 71.3159 57.1835C71.4497 57.0935 71.599 57.0309 71.7547 56.9981C71.9104 56.9654 72.072 56.9624 72.2312 56.9907C72.3904 57.019 72.5466 57.0791 72.6904 57.1725C73.9683 58.0038 75.1069 59.007 76.0839 60.1334C77.0609 61.2598 77.8752 62.5099 78.5045 63.8346C79.1338 65.1592 79.578 66.5589 79.8143 67.9844C80.05 69.41 80.0779 70.8623 79.8744 72.2918C79.8525 72.4468 79.8028 72.5909 79.7307 72.7201C79.6585 72.8493 79.565 72.9631 79.4546 73.058C79.3447 73.1524 79.2178 73.2279 79.081 73.2796C78.9452 73.3307 78.7975 73.3586 78.6453 73.3586Z" fill="#652815"/>
<path d="M101.469 73.3581C101.317 73.3581 101.169 73.3303 101.032 73.2786C100.895 73.2269 100.769 73.1519 100.659 73.057C100.549 72.9626 100.455 72.8483 100.383 72.7192C100.311 72.59 100.261 72.4459 100.239 72.2909C100.035 70.8615 100.063 69.4098 100.299 67.9839C100.535 66.5585 100.979 65.159 101.609 63.8345C102.238 62.5099 103.053 61.2599 104.029 60.1336C105.006 59.0073 106.145 58.0042 107.423 57.173C107.566 57.0791 107.722 57.019 107.881 56.9907C108.04 56.9624 108.202 56.9654 108.358 56.9981C108.514 57.0309 108.663 57.0935 108.797 57.184C108.931 57.2744 109.05 57.3921 109.143 57.5362C109.237 57.6798 109.297 57.8358 109.326 57.9948C109.354 58.1538 109.351 58.3152 109.318 58.4707C109.286 58.6262 109.223 58.7753 109.132 58.9094C109.042 59.0431 108.924 59.1613 108.78 59.2552C107.701 59.9572 106.739 60.8023 105.913 61.7498C105.088 62.6972 104.399 63.747 103.867 64.8589C103.334 65.9703 102.958 67.1438 102.757 68.3377C102.556 69.5315 102.531 70.7468 102.702 71.9421C102.726 72.112 102.715 72.2785 102.673 72.4345C102.631 72.5905 102.56 72.7356 102.464 72.8627C102.369 72.9899 102.249 73.0987 102.11 73.1822C101.972 73.2652 101.815 73.3228 101.645 73.3472C101.63 73.3491 101.615 73.3511 101.6 73.3526C101.585 73.3541 101.571 73.3556 101.556 73.3566C101.541 73.3576 101.527 73.3581 101.512 73.3586C101.498 73.3581 101.484 73.3581 101.469 73.3581Z" fill="#652815"/>
<path d="M113.677 160.366C112.981 160.366 112.318 160.289 111.696 160.141C111.075 159.992 110.495 159.772 109.969 159.487C109.443 159.202 108.97 158.85 108.561 158.439C108.153 158.027 107.808 157.555 107.539 157.029C107.285 156.535 107.112 156.018 107.019 155.495C106.925 154.972 106.91 154.443 106.971 153.924C107.032 153.406 107.17 152.898 107.383 152.417C107.596 151.936 107.884 151.483 108.244 151.072C108.516 150.762 108.822 150.485 109.156 150.242C109.491 149.998 109.855 149.789 110.246 149.614C110.636 149.439 111.054 149.298 111.495 149.192C111.937 149.086 112.402 149.015 112.889 148.98C112.449 148.424 112.071 147.811 111.759 147.146C111.447 146.481 111.2 145.764 111.021 145.002C110.843 144.241 110.733 143.433 110.695 142.587C110.657 141.741 110.69 140.856 110.798 139.938C111.011 138.124 111.513 136.242 112.265 134.417C113.017 132.593 114.02 130.825 115.236 129.241C116.452 127.656 117.881 126.255 119.485 125.161C121.09 124.067 122.87 123.283 124.787 122.931C124.951 122.901 125.114 122.905 125.267 122.936C125.421 122.967 125.565 123.027 125.693 123.109C125.821 123.192 125.932 123.298 126.02 123.422C126.107 123.547 126.17 123.689 126.201 123.846C126.233 124.002 126.229 124.157 126.197 124.303C126.164 124.45 126.102 124.588 126.015 124.71C125.928 124.832 125.818 124.938 125.687 125.021C125.557 125.105 125.407 125.165 125.244 125.195C123.621 125.492 122.103 126.185 120.728 127.156C119.352 128.127 118.119 129.375 117.065 130.783C116.012 132.191 115.138 133.758 114.481 135.366C113.824 136.974 113.384 138.623 113.199 140.195C113.136 140.738 113.081 141.474 113.107 142.302C113.132 143.13 113.237 144.05 113.493 144.962C113.748 145.873 114.153 146.776 114.779 147.571C115.404 148.365 116.25 149.05 117.386 149.525C117.532 149.586 117.659 149.671 117.764 149.774C117.869 149.876 117.952 149.996 118.011 150.126C118.069 150.256 118.103 150.396 118.108 150.539C118.114 150.683 118.091 150.829 118.037 150.972C117.983 151.115 117.903 151.242 117.803 151.348C117.703 151.455 117.583 151.543 117.451 151.607C117.319 151.671 117.175 151.713 117.025 151.727C116.876 151.742 116.721 151.731 116.569 151.689C115.837 151.489 115.141 151.358 114.489 151.296C113.838 151.234 113.231 151.241 112.679 151.314C112.127 151.388 111.63 151.529 111.196 151.736C110.762 151.943 110.392 152.216 110.096 152.554C109.889 152.79 109.724 153.052 109.602 153.331C109.481 153.609 109.403 153.904 109.369 154.205C109.335 154.507 109.346 154.815 109.403 155.12C109.459 155.425 109.561 155.728 109.71 156.018C109.885 156.359 110.112 156.661 110.385 156.921C110.658 157.181 110.977 157.399 111.337 157.572C111.696 157.746 112.095 157.875 112.528 157.956C112.961 158.038 113.428 158.073 113.922 158.058C114.087 158.051 114.247 158.077 114.393 158.13C114.54 158.183 114.673 158.262 114.786 158.363C114.9 158.464 114.993 158.586 115.06 158.722C115.127 158.858 115.166 159.008 115.172 159.167C115.179 159.326 115.151 159.479 115.095 159.619C115.039 159.759 114.955 159.886 114.85 159.995C114.745 160.102 114.618 160.191 114.476 160.255C114.334 160.318 114.176 160.356 114.01 160.362C113.982 160.362 113.954 160.363 113.926 160.364C113.899 160.365 113.871 160.366 113.843 160.366C113.816 160.367 113.788 160.367 113.761 160.367C113.732 160.366 113.704 160.366 113.677 160.366Z" fill="#652815"/>
<path d="M47.4698 35.1216C45.8227 35.1216 44.3757 34.7728 43.1253 34.1633C41.8744 33.5537 40.8202 32.6835 39.9577 31.64C39.0956 30.5971 38.4254 29.381 37.944 28.0802C37.4626 26.7795 37.1697 25.3936 37.0612 24.0112C36.9513 22.6087 37.0249 21.2833 37.2612 20.0741C37.497 18.8649 37.8946 17.7712 38.4322 16.8326C38.9697 15.8939 39.6467 15.1102 40.441 14.5199C41.2352 13.9295 42.1471 13.533 43.1539 13.3692C43.8953 13.2487 44.6208 13.2457 45.3326 13.3298C46.0445 13.414 46.7438 13.5862 47.432 13.8154C48.1202 14.0447 48.7977 14.3315 49.4674 14.6453C50.1372 14.9592 50.7982 15.3006 51.4539 15.6391C52.114 15.9795 52.7649 16.3155 53.4128 16.6206C54.0608 16.9256 54.7054 17.2001 55.3523 17.4185C55.9998 17.6364 56.6497 17.7983 57.3088 17.8775C57.9674 17.9567 58.6353 17.9543 59.3176 17.8431C59.4823 17.8165 59.6445 17.8249 59.797 17.8627C59.9496 17.9006 60.0924 17.9685 60.2184 18.061C60.3438 18.153 60.4523 18.2696 60.536 18.4049C60.6198 18.5402 60.6784 18.6946 60.7051 18.8624C60.7317 19.0302 60.7235 19.1955 60.6857 19.3504C60.6484 19.5054 60.5816 19.6505 60.4905 19.7779C60.3995 19.9054 60.2852 20.0156 60.1515 20.1002C60.0183 20.1848 59.8663 20.2443 59.7011 20.2714C58.8241 20.414 57.9728 20.4214 57.1456 20.3299C56.319 20.2384 55.517 20.0475 54.7393 19.7952C53.9615 19.5428 53.208 19.2284 52.4777 18.889C51.7474 18.5495 51.0408 18.185 50.357 17.8322C49.7614 17.5248 49.1739 17.2217 48.5938 16.9457C48.0136 16.6697 47.4407 16.4203 46.8736 16.2206C46.3065 16.0209 45.7457 15.8708 45.1903 15.7926C44.6343 15.7144 44.0832 15.709 43.5365 15.7975C42.7762 15.9215 42.1248 16.259 41.579 16.7519C41.0337 17.2448 40.594 17.8932 40.2589 18.6391C39.9233 19.3849 39.6918 20.2276 39.562 21.1097C39.4322 21.9917 39.4036 22.9132 39.4744 23.8154C39.5606 24.9164 39.7882 26.0194 40.1601 27.0555C40.532 28.091 41.0478 29.0592 41.7103 29.8901C42.3728 30.7206 43.182 31.4137 44.1413 31.8988C45.1002 32.3844 46.2087 32.6618 47.4698 32.6618C47.6369 32.6618 47.7962 32.6963 47.941 32.7582C48.0858 32.8202 48.2165 32.9108 48.326 33.0219C48.4354 33.1331 48.524 33.2655 48.5855 33.413C48.6465 33.5601 48.6805 33.722 48.6805 33.8917C48.6805 34.0614 48.6465 34.2233 48.5855 34.3704C48.524 34.5175 48.4354 34.6498 48.326 34.7615C48.2165 34.8727 48.0858 34.9627 47.941 35.0252C47.7962 35.0872 47.6369 35.1216 47.4698 35.1216Z" fill="#652815"/>
<path d="M132.642 35.1216C132.475 35.1216 132.316 35.0872 132.171 35.0252C132.026 34.9632 131.896 34.8727 131.786 34.7615C131.676 34.6503 131.588 34.518 131.526 34.3704C131.465 34.2233 131.431 34.0614 131.431 33.8917C131.431 33.722 131.465 33.5601 131.526 33.413C131.587 33.2659 131.676 33.1336 131.786 33.0219C131.895 32.9102 132.026 32.8207 132.171 32.7582C132.316 32.6962 132.475 32.6618 132.642 32.6618C133.903 32.6618 135.011 32.3843 135.97 31.8987C136.929 31.4136 137.738 30.7205 138.401 29.89C139.064 29.0596 139.579 28.0914 139.951 27.0553C140.323 26.0197 140.551 24.9162 140.637 23.8157C140.708 22.9134 140.68 21.992 140.549 21.1099C140.42 20.2278 140.188 19.3845 139.853 18.6392C139.517 17.8934 139.078 17.2449 138.533 16.752C137.987 16.259 137.335 15.9215 136.575 15.7976C136.027 15.7085 135.477 15.7144 134.921 15.7922C134.365 15.8704 133.804 16.0204 133.238 16.2202C132.671 16.4199 132.098 16.6693 131.518 16.9453C130.938 17.2213 130.351 17.5244 129.755 17.8319C129.072 18.1846 128.365 18.5496 127.635 18.8891C126.904 19.2286 126.151 19.5429 125.373 19.7958C124.596 20.0482 123.794 20.2386 122.967 20.3306C122.14 20.4221 121.289 20.4147 120.412 20.2715C120.246 20.2445 120.095 20.1849 119.961 20.1003C119.828 20.0157 119.713 19.9055 119.622 19.7781C119.531 19.6507 119.464 19.5055 119.427 19.3506C119.389 19.1956 119.381 19.0303 119.408 18.8625C119.434 18.6948 119.493 18.5408 119.576 18.405C119.659 18.2697 119.767 18.1531 119.893 18.0611C120.018 17.9686 120.161 17.9007 120.314 17.8629C120.467 17.8245 120.63 17.8161 120.796 17.8432C121.478 17.9539 122.146 17.9568 122.804 17.8776C123.463 17.7984 124.113 17.6365 124.761 17.4186C125.408 17.2007 126.052 16.9261 126.7 16.6206C127.348 16.3156 127.998 15.9796 128.658 15.6392C129.315 15.3007 129.976 14.9593 130.646 14.6454C131.316 14.3315 131.994 14.0447 132.682 13.8154C133.37 13.5862 134.069 13.414 134.781 13.3298C135.493 13.2457 136.219 13.2487 136.959 13.3692C137.966 13.533 138.877 13.9301 139.672 14.5199C140.466 15.1103 141.143 15.894 141.681 16.8327C142.218 17.7713 142.616 18.865 142.852 20.0743C143.087 21.2835 143.162 22.6089 143.052 24.0115C142.943 25.3939 142.65 26.7798 142.169 28.0806C141.687 29.3813 141.017 30.5975 140.155 31.6404C139.293 32.6834 138.239 33.5537 136.988 34.1638C135.736 34.7728 134.289 35.1216 132.642 35.1216Z" fill="#652815"/>
<path d="M106.632 106.599C111.521 105.546 114.501 101.109 115.47 98.7921C116.038 97.4357 116.533 95.5393 115.834 94.1929C114.1 92.243 114.799 91.2822 115.47 88.9579C116.234 86.3157 114.42 83.398 111.849 82.2535C109.277 81.109 106.202 81.4693 103.616 82.5855C101.029 83.7018 98.8219 85.4962 96.658 87.2624C95.0771 86.2945 92.5562 82.0203 88.4763 84.7968C85.6567 86.7113 85.4017 90.8795 85.766 94.207C86.6184 101.886 88.571 105.871 92.2502 106.945C96.8985 108.301 102.042 107.588 106.632 106.599Z" fill="#FECD33"/>
<path d="M114.574 84.6736C113.938 95.0726 103.257 101.972 98.1894 105.01L101.478 107.693C101.478 107.693 103.564 107.736 106.419 106.87C111.315 105.394 115.403 101.163 115.896 98.6997C116.621 95.115 115.815 95.9528 114.94 93.1206C114.484 91.6228 117.16 88.7906 114.574 84.6736ZM96.2011 87.449C96.2011 87.449 94.2951 85.5964 92.8824 84.7517C92.1798 86.0081 91.679 87.3709 91.4323 88.7764C90.9913 91.2466 91.4323 94.7532 92.4713 97.3654C92.6357 97.77 93.2486 97.7061 93.3159 97.2802C94.2129 91.6654 96.2011 87.449 96.2011 87.449Z" fill="#E2A610"/>
<path d="M83.3506 105.319C83.3506 105.319 60.6853 107.741 50.4608 127.2C40.2363 146.659 48.9275 158.458 58.1273 162.755C67.3272 167.052 90.5085 168.569 105.587 165.033C120.666 161.498 124.437 154.168 123.733 147.09C122.708 136.757 112.999 130.405 112.999 130.405C112.999 130.405 113.385 117.643 103.371 109.358C94.4834 102 83.3506 105.319 83.3506 105.319Z" fill="#FECD33"/>
<path d="M92.913 137.907C87.9957 131.997 82.189 131.205 80.3293 129.083C79.315 127.928 78.7196 126.758 78.9475 125.309C79.19 123.768 81.0644 122.704 82.5197 122.445C84.2176 122.137 88.2676 122.298 91.6708 125.386C92.4794 126.114 92.1854 127.249 92.1633 128.264C92.1045 130.442 95.3754 132.557 98.0215 130.736C100.675 128.908 98.6389 124.84 96.9263 122.865C95.6326 121.373 90.9432 118.089 85.1144 117.571C83.4753 117.424 76.882 116.492 73.0746 123.39C71.9794 125.372 71.5751 130.162 77.3084 134.209C78.5065 135.057 84.7248 138.068 86.4521 140.022C89.4437 143.404 87.393 146.38 85.0556 146.772C78.6829 147.837 75.0739 144.553 74.405 142.753C73.9272 141.471 74.427 140.085 73.8096 138.88C73.1775 137.641 71.8838 137.151 70.5167 137.564C66.033 138.922 67.459 143.593 69.4436 146.163C71.5678 148.915 74.1771 150.575 77.1099 151.485C88.0545 154.882 93.3173 149.518 94.2361 145.589C94.9123 142.711 94.8388 140.218 92.913 137.907Z" fill="#652815"/>
<path d="M90.7955 113.463C86.5462 123.122 84.0478 134.074 82.6124 142.633C81.8954 146.908 81.445 150.577 81.1741 153.175C81.0387 154.474 80.9482 155.506 80.8916 156.211C80.8632 156.564 80.8434 156.835 80.8307 157.017C80.8244 157.109 80.8196 157.178 80.8166 157.224C80.8151 157.246 80.8142 157.264 80.8135 157.275C80.8131 157.281 80.8128 157.285 80.8127 157.288V157.291C80.8126 157.291 80.8082 157.291 80.0101 157.246C79.2577 157.203 79.2109 157.2 79.208 157.2V157.195C79.2082 157.192 79.2088 157.187 79.2092 157.181C79.21 157.168 79.2108 157.15 79.2123 157.126C79.2155 157.077 79.2203 157.006 79.2268 156.912C79.2399 156.724 79.2601 156.448 79.2888 156.09C79.3464 155.373 79.4382 154.33 79.5749 153.018C79.8484 150.394 80.3026 146.694 81.0258 142.383C82.4706 133.768 84.9953 122.675 89.3175 112.85L90.7955 113.463Z" fill="#652815"/>
<path d="M98.0102 102.714C103.962 104.696 105.281 110.197 104.851 111.696C104.336 113.455 97.7422 106.607 87.94 107.018C84.5127 107.162 85.5071 105.013 87.0937 103.774C89.1882 102.137 92.7071 100.955 98.0102 102.714Z" fill="#652815"/>
<path d="M58.0329 123.905L50.4461 122.911L41.8478 134.84L39.8247 158.699L64.1022 159.197L64.608 154.723V150.746L67.1369 148.758L69.1601 142.296L68.1485 136.828L65.1138 129.372L58.0329 123.905Z" fill="#CD966D"/>
<path d="M98.0102 100.763C103.962 102.745 105.281 108.246 104.851 109.745C104.336 111.504 97.7422 104.656 87.94 105.067C84.5127 105.211 85.5071 103.063 87.0937 101.823C89.1882 100.186 92.7071 99.004 98.0102 100.763Z" fill="#652815"/>
<path d="M108.934 119.927C109.752 119.373 112.5 120.33 113.272 125.621C113.65 128.209 113.766 130.714 113.766 130.714C113.766 130.714 110.524 127.852 109.451 125.841C108.1 123.298 107.575 120.838 108.934 119.927Z" fill="#E2A610"/>
<path d="M111.447 120.569C112.288 120.148 113.064 119.62 113.758 119.007C114.453 118.395 115.066 117.699 115.581 116.943C116.096 116.187 116.513 115.371 116.816 114.52C117.118 113.67 117.307 112.783 117.364 111.885C117.421 110.988 117.347 110.087 117.155 109.207C116.963 108.328 116.653 107.471 116.239 106.662C115.823 105.853 115.304 105.092 114.692 104.406C114.081 103.718 113.378 103.105 112.596 102.592C111.968 102.179 111.259 101.947 110.524 101.87C109.789 101.793 109.029 101.871 108.298 102.08C107.568 102.288 106.868 102.626 106.254 103.067C105.64 103.508 105.112 104.054 104.724 104.678C104.337 105.301 104.071 105.972 103.91 106.666C103.749 107.361 103.694 108.081 103.731 108.803C103.767 109.525 103.895 110.25 104.099 110.956C104.304 111.662 104.585 112.348 104.929 112.994C105.273 113.64 105.671 114.254 106.12 114.856C106.569 115.459 107.068 116.051 107.615 116.653C108.163 117.256 108.758 117.869 109.397 118.514C110.037 119.16 110.721 119.838 111.447 120.569Z" fill="#B07066"/>
<path d="M113.797 105.353C113.765 105.353 113.733 105.351 113.7 105.349C113.668 105.346 113.636 105.343 113.603 105.337C113.57 105.332 113.538 105.326 113.505 105.318C113.472 105.31 113.44 105.301 113.408 105.291C113.246 105.239 113.102 105.157 112.982 105.054C112.861 104.951 112.763 104.826 112.692 104.689C112.621 104.551 112.577 104.401 112.564 104.245C112.552 104.089 112.57 103.928 112.624 103.77C113.446 101.362 114.374 99.2066 115.413 97.2982C116.452 95.3898 117.602 93.7292 118.867 92.3105C120.131 90.8923 121.512 89.7161 123.011 88.7775C124.51 87.839 126.129 87.1381 127.872 86.6695C128.037 86.6243 128.203 86.6142 128.362 86.6344C128.522 86.6546 128.674 86.7051 128.812 86.7811C128.95 86.8571 129.072 86.9591 129.172 87.0818C129.271 87.2045 129.348 87.3483 129.393 87.508C129.439 87.6682 129.449 87.8294 129.428 87.9843C129.407 88.1392 129.355 88.2873 129.277 88.4215C129.199 88.5553 129.095 88.6746 128.969 88.7718C128.843 88.869 128.695 88.943 128.531 88.9873C126.981 89.4039 125.548 90.0254 124.225 90.862C122.901 91.6991 121.686 92.7516 120.569 94.0318C119.452 95.3119 118.434 96.8186 117.504 98.5644C116.574 100.31 115.733 102.294 114.97 104.528C114.927 104.654 114.865 104.768 114.787 104.869C114.71 104.97 114.617 105.057 114.513 105.129C114.41 105.2 114.295 105.256 114.174 105.294C114.054 105.333 113.927 105.353 113.797 105.353Z" fill="#652815"/>
<path d="M61.6839 123.521C54.5443 125.614 45.2079 121.34 41.4321 118.941L61.6839 108.474L74.3842 115.016C73.1256 116.979 68.8235 121.427 61.6839 123.521Z" fill="#CD966D"/>
<path d="M124.136 125.251C123.718 125.251 123.309 125.242 122.91 125.224C122.511 125.205 122.122 125.178 121.744 125.144C121.366 125.11 120.999 125.069 120.644 125.022C120.288 124.975 119.945 124.922 119.612 124.864C118.063 124.596 116.561 124.194 115.126 123.67C113.691 123.145 112.325 122.5 111.047 121.746C109.769 120.991 108.582 120.128 107.506 119.17C106.43 118.211 105.465 117.157 104.634 116.02C104.184 115.404 103.8 114.713 103.488 113.973C103.176 113.232 102.935 112.443 102.771 111.629C102.607 110.816 102.52 109.978 102.514 109.144C102.509 108.309 102.586 107.477 102.749 106.672C102.859 106.131 103.007 105.62 103.191 105.144C103.375 104.667 103.593 104.225 103.844 103.824C104.095 103.422 104.378 103.06 104.69 102.741C105.002 102.423 105.343 102.15 105.71 101.925C106.1 101.688 106.52 101.498 106.962 101.358C107.404 101.218 107.869 101.127 108.348 101.086C108.828 101.045 109.321 101.054 109.82 101.113C110.319 101.173 110.825 101.283 111.328 101.444C111.93 101.637 112.502 101.896 113.036 102.21C113.571 102.525 114.068 102.898 114.52 103.32C114.971 103.742 115.377 104.214 115.73 104.73C116.084 105.244 116.384 105.802 116.623 106.395C116.685 106.55 116.713 106.71 116.709 106.866C116.705 107.023 116.669 107.176 116.606 107.317C116.543 107.458 116.452 107.588 116.337 107.698C116.222 107.807 116.084 107.896 115.926 107.957C115.766 108.017 115.602 108.044 115.441 108.039C115.281 108.035 115.124 108.001 114.979 107.939C114.835 107.878 114.702 107.79 114.59 107.678C114.478 107.566 114.387 107.431 114.324 107.277C114.152 106.85 113.938 106.45 113.686 106.08C113.434 105.711 113.145 105.373 112.823 105.07C112.501 104.768 112.148 104.501 111.769 104.277C111.389 104.052 110.983 103.869 110.556 103.731C110.233 103.628 109.908 103.555 109.589 103.514C109.268 103.472 108.954 103.462 108.65 103.482C108.347 103.503 108.055 103.553 107.782 103.634C107.509 103.715 107.254 103.826 107.024 103.966C106.803 104.101 106.596 104.273 106.404 104.479C106.213 104.684 106.039 104.923 105.882 105.192C105.726 105.461 105.587 105.76 105.468 106.086C105.35 106.412 105.251 106.765 105.174 107.142C105.044 107.781 104.984 108.448 104.988 109.12C104.992 109.791 105.061 110.467 105.19 111.122C105.319 111.777 105.508 112.413 105.752 113.005C105.997 113.596 106.297 114.144 106.647 114.623C107.935 116.385 109.744 118.063 111.95 119.44C114.155 120.819 116.758 121.897 119.632 122.462C122.507 123.026 125.654 123.077 128.948 122.398C132.243 121.72 135.686 120.312 139.152 117.961C139.292 117.866 139.444 117.803 139.601 117.771C139.758 117.738 139.918 117.737 140.074 117.764C140.23 117.791 140.38 117.847 140.516 117.931C140.652 118.014 140.773 118.125 140.87 118.261C140.968 118.398 141.032 118.547 141.066 118.7C141.099 118.853 141.101 119.01 141.073 119.161C141.045 119.313 140.987 119.46 140.902 119.592C140.816 119.724 140.702 119.842 140.562 119.937C139.041 120.969 137.541 121.817 136.075 122.509C134.609 123.201 133.177 123.736 131.791 124.143C130.405 124.549 129.066 124.826 127.786 125.002C126.505 125.177 125.285 125.251 124.136 125.251Z" fill="#652815"/>
<path d="M66.1049 105.537C65.3546 106.178 64.8008 106.985 64.4411 107.875C64.0808 108.764 63.914 109.734 63.9378 110.702C63.9615 111.67 64.1748 112.635 64.5757 113.511C64.9765 114.388 65.5644 115.177 66.336 115.794C67.1075 116.41 67.9191 116.842 68.7257 117.11C69.5319 117.378 70.3331 117.48 71.0838 117.439C71.8345 117.398 72.5348 117.212 73.1395 116.902C73.7443 116.592 74.253 116.158 74.6212 115.619C74.9924 115.076 75.3784 114.204 75.6951 113.172C76.0118 112.139 76.2587 110.944 76.3523 109.755C76.4458 108.566 76.3864 107.382 76.0895 106.371C75.7926 105.359 75.2581 104.52 74.402 104.02C73.5463 103.52 72.5942 103.221 71.6495 103.09C70.7047 102.959 69.7664 102.996 68.938 103.168C68.1096 103.339 67.391 103.644 66.8843 104.05C66.3775 104.456 66.0836 104.963 66.1049 105.537Z" fill="#B07066"/>
<path d="M67.4925 104.572C67.3598 104.572 67.2296 104.553 67.1055 104.517C66.9819 104.481 66.8649 104.428 66.7585 104.359C66.6527 104.29 66.5574 104.207 66.4779 104.11C66.3984 104.013 66.3346 103.903 66.2905 103.782C65.51 101.642 64.6489 99.7402 63.6967 98.067C62.7449 96.3943 61.702 94.9499 60.5588 93.7235C59.4156 92.4966 58.1711 91.4879 56.8162 90.6857C55.4612 89.8834 53.9949 89.2882 52.408 88.8885C52.2393 88.8461 52.0883 88.7746 51.9592 88.6819C51.83 88.5888 51.7236 88.4745 51.6436 88.3463C51.5636 88.2181 51.5109 88.0757 51.4891 87.9272C51.4679 87.7788 51.478 87.6239 51.5246 87.4708C51.5712 87.3173 51.6497 87.1799 51.752 87.0623C51.8543 86.9447 51.9804 86.8474 52.1213 86.7746C52.2626 86.7018 52.4186 86.6533 52.5817 86.634C52.7448 86.6146 52.9145 86.6243 53.0826 86.6672C54.8671 87.1162 56.5249 87.788 58.0602 88.6875C59.5954 89.587 61.0081 90.7138 62.3027 92.0734C63.5974 93.4326 64.7745 95.0246 65.8382 96.8535C66.9019 98.6825 67.8521 100.748 68.6934 103.056C68.7486 103.208 68.7674 103.362 68.7542 103.511C68.741 103.66 68.696 103.804 68.6235 103.936C68.5511 104.068 68.4508 104.187 68.3272 104.286C68.2036 104.385 68.0567 104.463 67.8906 104.513C67.8577 104.523 67.8243 104.532 67.7908 104.539C67.7574 104.547 67.724 104.553 67.691 104.558C67.6576 104.563 67.6242 104.566 67.5912 104.569C67.5588 104.571 67.5254 104.572 67.4925 104.572Z" fill="#652815"/>
<path d="M56.6539 125.251C55.541 125.251 54.3583 125.177 53.1182 125.002C51.8781 124.826 50.5805 124.548 49.2379 124.142C47.8954 123.736 46.5078 123.201 45.0872 122.509C43.6667 121.818 42.2135 120.969 40.7398 119.937C40.6044 119.842 40.4943 119.724 40.411 119.592C40.3282 119.459 40.2722 119.313 40.2454 119.161C40.2186 119.01 40.22 118.853 40.2521 118.7C40.2842 118.547 40.3469 118.398 40.4411 118.261C40.5354 118.125 40.6527 118.014 40.7843 117.93C40.9155 117.847 41.061 117.791 41.2118 117.764C41.3625 117.737 41.5185 117.738 41.6703 117.771C41.8225 117.803 41.9709 117.865 42.1068 117.96C45.4644 120.312 48.7995 121.719 51.9915 122.398C55.1835 123.076 58.2324 123.026 61.017 122.461C63.8022 121.896 66.3232 120.818 68.4603 119.44C70.5973 118.062 72.3501 116.385 73.5979 114.623C73.9372 114.143 74.2278 113.595 74.4647 113.004C74.7016 112.413 74.8849 111.777 75.0098 111.122C75.1348 110.466 75.2018 109.791 75.2056 109.119C75.2094 108.448 75.151 107.781 75.0247 107.142C74.9505 106.765 74.8548 106.412 74.7399 106.086C74.625 105.76 74.491 105.461 74.3393 105.192C74.1875 104.923 74.0181 104.684 73.8334 104.479C73.6486 104.273 73.4476 104.101 73.2332 103.966C73.0106 103.825 72.7636 103.714 72.4985 103.634C72.2333 103.554 71.9509 103.502 71.657 103.482C71.3631 103.462 71.0578 103.473 70.7481 103.514C70.4379 103.555 70.1235 103.628 69.8105 103.732C69.3969 103.869 69.0035 104.052 68.6354 104.277C68.2674 104.502 67.9251 104.768 67.614 105.07C67.3024 105.373 67.022 105.711 66.7779 106.081C66.5338 106.45 66.3255 106.851 66.159 107.277C66.0987 107.431 66.0096 107.567 65.901 107.678C65.7923 107.79 65.6636 107.878 65.5233 107.94C65.3831 108.001 65.2309 108.035 65.0758 108.04C64.9203 108.044 64.7619 108.018 64.6077 107.957C64.4541 107.896 64.3196 107.807 64.2086 107.697C64.0975 107.588 64.0095 107.458 63.9482 107.317C63.8869 107.176 63.8525 107.023 63.8486 106.866C63.8448 106.71 63.8711 106.55 63.9314 106.395C64.1631 105.802 64.4541 105.244 64.7958 104.729C65.1381 104.215 65.5315 103.742 65.969 103.32C66.4064 102.898 66.8879 102.525 67.4058 102.21C67.9237 101.896 68.478 101.638 69.0609 101.444C69.5487 101.283 70.0383 101.173 70.5217 101.113C71.0056 101.054 71.4833 101.045 71.9476 101.086C72.4118 101.127 72.8617 101.218 73.2906 101.358C73.7194 101.498 74.1263 101.687 74.5034 101.925C74.8591 102.15 75.1893 102.423 75.4914 102.741C75.7934 103.059 76.0676 103.422 76.3103 103.824C76.553 104.226 76.765 104.667 76.9426 105.144C77.1201 105.62 77.2642 106.131 77.3709 106.672C77.5294 107.476 77.604 108.308 77.5987 109.143C77.5935 109.978 77.5088 110.815 77.3503 111.629C77.1914 112.442 76.9584 113.232 76.6559 113.972C76.3534 114.713 75.9819 115.404 75.5459 116.019C74.7408 117.156 73.8061 118.211 72.7636 119.169C71.7212 120.128 70.5705 120.99 69.3328 121.745C68.0955 122.499 66.7712 123.145 65.3807 123.669C63.9908 124.193 62.5348 124.595 61.0347 124.863C60.7131 124.921 60.3795 124.974 60.0349 125.021C59.6903 125.068 59.3347 125.109 58.9685 125.143C58.6024 125.177 58.2257 125.204 57.8394 125.223C57.4551 125.242 57.0593 125.251 56.6539 125.251Z" fill="#652815"/>
<path d="M63.3931 160.367C62.9276 159.835 62.5725 159.202 62.3281 158.517C62.0838 157.833 61.9506 157.096 61.9297 156.355C61.9087 155.614 62.0008 154.87 62.2064 154.169C62.412 153.469 62.7316 152.813 63.1661 152.249C63.6005 151.686 64.1349 151.235 64.7252 150.903C65.3156 150.571 65.9625 150.358 66.6231 150.27C67.2837 150.181 67.9575 150.217 68.6017 150.383C69.2459 150.549 69.8609 150.846 70.403 151.278C70.7408 151.547 71.0271 151.882 71.2591 152.259C71.4912 152.637 71.6685 153.058 71.7889 153.501C71.9088 153.943 71.9712 154.407 71.9731 154.872C71.9749 155.336 71.9161 155.8 71.793 156.242C71.6703 156.685 71.4907 157.102 71.266 157.487C71.0408 157.872 70.7704 158.225 70.465 158.538C70.16 158.852 69.8199 159.127 69.457 159.356C69.0936 159.584 68.7075 159.767 68.3086 159.896C67.9097 160.026 67.5007 160.105 67.0877 160.156C66.6746 160.207 66.2566 160.228 65.8399 160.24C65.4232 160.252 65.007 160.255 64.5976 160.27C64.1882 160.284 63.7847 160.31 63.3931 160.367Z" fill="#B07066"/>
<path d="M67.641 160.367C67.6134 160.367 67.5864 160.367 67.5588 160.367C67.5313 160.366 67.5038 160.366 67.4762 160.366C67.4487 160.365 67.4211 160.365 67.3931 160.364C67.3656 160.363 67.3376 160.362 67.31 160.361C67.1433 160.356 66.9858 160.318 66.8438 160.254C66.7017 160.191 66.5747 160.102 66.4693 159.994C66.364 159.886 66.2804 159.759 66.2244 159.619C66.1683 159.479 66.1403 159.326 66.1466 159.167C66.1529 159.008 66.191 158.858 66.2563 158.724C66.321 158.589 66.4123 158.469 66.5244 158.37C66.6365 158.27 66.7694 158.19 66.9167 158.137C67.0641 158.083 67.2264 158.055 67.398 158.058C67.8927 158.073 68.3599 158.039 68.7928 157.958C69.2257 157.876 69.6248 157.747 69.9838 157.573C70.3427 157.399 70.6621 157.181 70.9351 156.921C71.2081 156.661 71.4351 156.358 71.61 156.017C71.7588 155.727 71.8608 155.424 71.9168 155.119C71.9734 154.814 71.984 154.506 71.9506 154.204C71.9168 153.903 71.8391 153.608 71.7173 153.33C71.5955 153.051 71.4308 152.789 71.2235 152.553C70.9269 152.216 70.5573 151.943 70.1234 151.736C69.6895 151.529 69.1919 151.389 68.6401 151.315C68.0879 151.241 67.4815 151.235 66.8302 151.297C66.1789 151.358 65.4828 151.489 64.7508 151.689C64.5981 151.73 64.4435 151.742 64.2937 151.727C64.1444 151.712 64 151.671 63.8681 151.607C63.7362 151.543 63.6164 151.455 63.5163 151.348C63.4163 151.241 63.3356 151.115 63.2815 150.972C63.2274 150.829 63.2047 150.682 63.2105 150.539C63.2158 150.396 63.2496 150.255 63.3081 150.125C63.3666 149.995 63.4501 149.876 63.555 149.773C63.6603 149.671 63.7869 149.586 63.9328 149.525C65.0692 149.049 65.9147 148.364 66.5404 147.57C67.166 146.776 67.5709 145.873 67.8265 144.962C68.0816 144.05 68.1869 143.13 68.2125 142.302C68.2381 141.474 68.1835 140.738 68.1198 140.195C67.9347 138.623 67.4955 136.974 66.8385 135.366C66.1819 133.758 65.3078 132.19 64.2541 130.783C63.2004 129.375 61.9669 128.127 60.5914 127.156C59.2158 126.185 57.6983 125.492 56.0754 125.195C55.9116 125.165 55.7618 125.104 55.6314 125.021C55.5009 124.937 55.3898 124.831 55.3033 124.709C55.2163 124.587 55.1545 124.449 55.1216 124.303C55.0888 124.156 55.0859 124.002 55.1168 123.845C55.1482 123.689 55.2115 123.546 55.2989 123.422C55.3864 123.297 55.498 123.192 55.626 123.109C55.7541 123.027 55.8985 122.967 56.0517 122.936C56.2048 122.905 56.3672 122.901 56.5305 122.931C58.4481 123.282 60.228 124.067 61.8325 125.161C63.4371 126.254 64.8663 127.656 66.0819 129.241C67.2979 130.825 68.3009 132.593 69.0532 134.417C69.8055 136.242 70.307 138.124 70.5205 139.939C70.6283 140.857 70.6616 141.741 70.6234 142.587C70.5853 143.434 70.4756 144.241 70.2973 145.003C70.119 145.764 69.8726 146.481 69.56 147.146C69.2479 147.811 68.8701 148.425 68.43 148.98C68.9165 149.016 69.3817 149.087 69.8233 149.193C70.2649 149.298 70.6824 149.439 71.0728 149.614C71.4636 149.789 71.8274 149.999 72.1623 150.242C72.4966 150.485 72.802 150.762 73.0744 151.072C73.4349 151.483 73.7223 151.937 73.9354 152.417C74.148 152.898 74.2862 153.406 74.3475 153.925C74.4089 154.443 74.3934 154.972 74.2997 155.495C74.2055 156.018 74.033 156.535 73.7799 157.029C73.5103 157.555 73.1658 158.027 72.7566 158.439C72.3478 158.851 71.8748 159.202 71.3487 159.487C70.8225 159.773 70.2432 159.993 69.6214 160.141C69.0001 160.29 68.3362 160.367 67.641 160.367Z" fill="#652815"/>
<path d="M68.7587 160.252C61.6794 160.699 50.0303 161.147 47.4604 161.147V158.916C49.9402 158.916 61.5195 158.472 68.5792 158.026L68.7587 160.252Z" fill="#652815"/>
<path d="M24.3829 144.692L24.4159 144.754C24.7386 145.405 24.4823 146.194 23.8217 146.544C23.1611 146.894 22.3388 146.676 21.9498 146.06L21.9133 145.999L19.5022 141.707L21.9718 140.4L24.3829 144.692ZM20.0634 139.855C20.7453 139.494 21.5998 139.738 21.9718 140.4L19.5022 141.707C19.1303 141.045 19.3816 140.216 20.0634 139.855ZM29.3358 91.2597C29.6797 90.619 30.4845 90.346 31.1685 90.6504C31.8746 90.9646 32.1847 91.7751 31.8612 92.4607L31.5649 93.0932C29.9937 96.4742 27.1357 102.997 26.1135 106.683C25.0305 110.589 24.6198 115.902 24.554 118.073L24.5414 118.487L24.295 118.824C23.5658 119.821 22.452 121.386 21.484 122.831C20.9993 123.554 20.5593 124.236 20.2243 124.797C20.1069 124.993 20.0057 125.169 19.9217 125.322C20.3209 125.541 20.867 125.769 21.5256 126.048C22.176 126.324 23.0007 126.675 23.5835 127.082C23.8653 127.278 24.2711 127.608 24.4979 128.102C24.767 128.689 24.7022 129.32 24.3641 129.844L24.2926 129.947C23.7981 130.619 23.0504 131.334 22.3811 131.919C22.0073 132.246 21.6332 132.552 21.3007 132.814L22.1083 136.264L22.1229 136.333C22.2507 137.045 21.7825 137.736 21.0488 137.898C20.315 138.06 19.5847 137.633 19.3833 136.937L19.3656 136.869L18.1585 131.714L18.8884 131.182C19.2596 130.912 19.88 130.43 20.4994 129.889C20.8423 129.589 21.1618 129.29 21.4326 129.013C21.1581 128.878 20.8131 128.726 20.4005 128.552C19.7552 128.278 18.9319 127.941 18.3155 127.574C18.01 127.392 17.6374 127.136 17.3544 126.787C17.0468 126.408 16.7597 125.797 16.9733 125.071L17.0016 124.983C17.1529 124.531 17.4746 123.955 17.7916 123.425C18.1606 122.808 18.6294 122.083 19.1258 121.342C20.0167 120.012 21.0224 118.593 21.7571 117.58C21.8602 115.117 22.2963 109.944 23.3975 105.973C24.5576 101.79 27.8349 94.4344 29.3037 91.3229L29.3358 91.2597ZM38.5235 75.4303C39.0951 74.9676 39.9462 75.0168 40.4567 75.5537C40.9671 76.0906 40.9497 76.9182 40.4292 77.4345L40.3774 77.4836L35.5293 81.8281C36.0046 81.6618 36.5567 81.7506 36.9558 82.1043C37.5294 82.6129 37.5698 83.4769 37.046 84.0339L32.8265 88.5208C32.3028 89.0777 31.4132 89.1169 30.8396 88.6085C30.266 88.0999 30.2256 87.2359 30.7494 86.679L34.7589 82.4149C34.2256 82.6395 33.5822 82.5265 33.1656 82.0883C32.6387 81.5341 32.6745 80.67 33.2453 80.1584L38.4694 75.4764L38.5235 75.4303Z" fill="#652815"/>
</svg>
