<svg width="180" height="167" viewBox="0 0 180 167" fill="none" xmlns="http://www.w3.org/2000/svg">
<path d="M103.491 15.3491C105.678 10.774 110.212 6.47651 113.354 7.1294C116.171 7.70946 118.819 13.2399 120.775 18.2192C125.354 14.833 130.373 11.5926 133.27 12.645C138.194 14.4383 139.058 26.0196 133.059 31.6714C155.617 61.6264 175.974 106.783 174.687 135.792C174.222 146.22 168.192 160.354 157.294 159.818H105.563C98.0012 160.496 83.8012 159.608 83.8563 159.818H79.3826C75.0009 159.818 63.5005 160.496 56.3992 160.496C56.3042 160.276 56.2446 160.047 56.2195 159.818H33.702C27.9475 159.555 22.4986 144.515 26.7869 142.297C30.1094 140.583 32.7261 144.397 34.2723 147.954C32.0405 141.249 32.1208 133.034 33.4569 127.007C39.1513 101.311 48.9538 92.531 50.1697 76.3355C50.1697 68.657 47.5009 61.3347 44.3953 58.0259C37.2248 50.3862 37.3996 31.2773 39.4461 27.2476C42.9638 20.3338 71.7964 7.81181 103.491 15.3491ZM34.283 147.973C34.3981 148.323 34.5182 148.665 34.6483 149.001L34.658 148.879C34.543 148.582 34.4181 148.275 34.283 147.973Z" fill="#CD966D"/>
<path d="M66.316 60.0516C65.4648 57.2534 67.6845 49.1834 73.4956 48.2548C74.4513 47.0255 79.7099 37.9635 78.7772 31.0419C78.1327 26.2602 72.5954 18.6901 58.1576 17.4155C51.7986 16.8537 42.1556 22.9582 39.2994 27.5747C37.9448 29.7643 38.0844 41.4628 39.5376 47.8284C40.2576 50.9838 42.1241 56.3691 44.3954 58.0272C45.3071 58.6932 47.6054 56.1854 49.3708 54.4343C49.008 58.0033 52.4171 61.1065 56.0379 61.7632C59.6578 62.4195 63.3462 61.2565 66.316 60.0516Z" fill="#B07066"/>
<path d="M102.849 34.5552C131.822 34.5552 120.185 58.754 98.6306 52.4429C88.6938 49.5337 84.0217 34.5552 102.849 34.5552Z" fill="#B07066"/>
<path d="M103.986 15.1652C104.856 11.739 107.407 8.75714 110.711 7.30568C111.694 6.87351 112.836 6.57288 113.841 6.95585C114.689 7.27986 115.278 8.02776 115.8 8.7552C117.905 11.6917 119.662 14.8661 121.023 18.1934C119.792 18.6674 118.644 19.3457 117.644 20.19C113.04 17.9799 108.292 16.0554 103.986 15.1652Z" fill="#B07066"/>
<path d="M122.971 16.3191C120.253 20.7997 120.279 26.7303 123.036 31.1879C123.862 32.5234 125.007 33.7907 126.549 34.2107C128.588 34.7662 130.738 33.6923 132.305 32.3066C136.027 29.0154 137.72 23.8405 137.169 18.9745C136.986 17.3647 136.536 15.7032 135.393 14.5261C133.736 12.8198 130.961 12.5455 128.657 13.2374C126.351 13.9297 123.837 14.8896 122.971 16.3191Z" fill="#B07066"/>
<path d="M132.772 159.02C129.874 155.363 128.78 150.41 129.878 145.917C130.111 144.962 130.449 144.008 131.079 143.242C131.708 142.477 132.673 141.921 133.68 141.969C135.355 142.051 136.48 143.654 137.159 145.147C138.002 146.999 138.591 148.96 138.907 150.962C139.218 152.936 139.241 155.049 138.301 156.823C137.361 158.598 135.227 159.892 132.772 159.02Z" fill="#B07066"/>
<path d="M34.4351 148.593C33.7996 146.245 32.3305 144.119 30.3359 142.661C29.2361 141.857 27.6864 141.26 26.5315 141.986C25.4551 142.662 25.298 144.124 25.3941 145.368C25.6318 148.439 26.7206 151.381 27.8865 154.244C28.519 155.796 29.2366 157.417 30.6116 158.415C31.68 159.191 33.0265 159.499 34.3445 159.69C37.1177 160.092 39.9564 160.057 42.7181 159.587C38.8025 156.738 35.554 152.73 34.4351 148.593Z" fill="#B07066"/>
<path d="M106.38 39.51C105.903 38.7236 106.421 37.3832 108.688 37.6673C111.161 37.9772 111.585 39.6742 111.273 40.1268C110.455 41.3157 106.848 40.2813 106.38 39.51Z" fill="#EDAE84"/>
<path d="M93.9405 36.2812C93.3861 36.2812 92.8792 35.9197 92.7316 35.373C92.5554 34.7226 92.9543 34.056 93.6228 33.885C97.0725 33.0002 100.819 32.9047 104.757 33.6024C105.437 33.7228 105.887 34.3572 105.764 35.0188C105.64 35.6805 104.989 36.1209 104.309 35.9991C100.735 35.3662 97.3542 35.4476 94.2603 36.2408C94.1532 36.2681 94.0456 36.2812 93.9405 36.2812Z" fill="#652815"/>
<path d="M59.9187 37.3297C59.4788 37.3297 59.052 37.1036 58.8238 36.7027C58.4886 36.1141 58.7068 35.3725 59.3107 35.0466C62.4307 33.3607 66.037 32.3692 70.0296 32.1003C70.7221 32.0574 71.3161 32.5607 71.3641 33.2316C71.4116 33.9025 70.8918 34.4843 70.2022 34.5306C66.5779 34.7747 63.3219 35.6649 60.5252 37.1767C60.332 37.2805 60.1238 37.3297 59.9187 37.3297Z" fill="#652815"/>
<path d="M43.1158 35.0699C42.682 35.0699 42.2602 34.8497 42.029 34.4569C41.0482 32.7887 39.7692 31.212 38.229 29.7708C37.7306 29.305 37.7151 28.5337 38.1935 28.0484C38.6719 27.5636 39.464 27.548 39.9624 28.0138C41.6747 29.6158 43.1008 31.3762 44.2002 33.2462C44.5434 33.8299 44.3358 34.5744 43.7363 34.9086C43.5402 35.0177 43.326 35.0699 43.1158 35.0699Z" fill="#652815"/>
<path d="M58.3698 63.0822C56.0499 63.0822 53.6596 62.5589 51.625 60.9422C47.5818 57.7299 47.835 54.4338 48.2954 48.4496C48.3494 47.7436 48.4075 46.9933 48.462 46.1918C48.5081 45.5209 49.102 45.0185 49.7941 45.0575C50.4836 45.1024 51.005 45.6831 50.959 46.3545C50.9034 47.1624 50.8449 47.9195 50.7904 48.6314C50.342 54.463 50.1744 56.6449 53.2067 59.0542C56.6919 61.8241 62.1222 60.2776 65.039 59.4469L65.4718 59.3241C66.1363 59.1375 66.8289 59.5103 67.021 60.1563C67.2127 60.8024 66.8304 61.4777 66.1663 61.6648L65.741 61.7856C63.8991 62.3099 61.187 63.0822 58.3698 63.0822Z" fill="#652815"/>
<path d="M70.5137 67.9092C70.3146 67.9092 70.1119 67.8624 69.9238 67.7644C66.7248 66.0957 64.9444 62.3123 65.2781 57.8912C65.6409 53.0876 68.4031 49.0986 72.3151 47.7295C72.9646 47.501 73.6817 47.8308 73.9154 48.4638C74.1491 49.0967 73.8113 49.7944 73.1613 50.0219C69.537 51.2907 67.9938 55.15 67.7736 58.0695C67.5694 60.7717 68.338 64.1731 71.1052 65.6167C71.7142 65.9344 71.9433 66.6726 71.6171 67.2655C71.3919 67.6758 70.9601 67.9092 70.5137 67.9092Z" fill="#652815"/>
<path d="M128.164 35.5817C127.61 35.5817 127.105 35.2211 126.956 34.6754C126.778 34.025 127.176 33.3585 127.844 33.186C133.506 31.7243 135.767 26.3555 135.995 21.8184C136.192 17.9015 134.862 14.5241 132.832 13.7869C129.948 12.7413 123.116 17.9585 118.596 21.412C116.918 22.6939 115.333 23.9047 114.08 24.7203C113.506 25.095 112.729 24.9435 112.345 24.3846C111.961 23.8253 112.116 23.0686 112.689 22.6949C113.863 21.9309 115.412 20.7479 117.051 19.4958C122.889 15.0347 129.505 9.97818 133.706 11.5047C136.826 12.638 138.751 16.8311 138.494 21.9382C138.234 27.0883 135.458 33.7409 128.485 35.5413C128.378 35.5685 128.27 35.5817 128.164 35.5817Z" fill="#652815"/>
<path d="M120.77 19.4159C120.262 19.4159 119.785 19.1129 119.597 18.6222C118.679 16.2168 115.882 8.8966 113.098 8.32167C110.452 7.77305 106.717 11.1203 104.948 15.6272C104.702 16.2562 103.978 16.5705 103.333 16.3303C102.688 16.0901 102.364 15.386 102.611 14.758C104.591 9.71417 109.245 5.03481 113.617 5.93813C117.248 6.68798 119.764 12.069 121.942 17.7725C122.183 18.403 121.854 19.1041 121.206 19.3389C121.062 19.3916 120.915 19.4159 120.77 19.4159Z" fill="#652815"/>
<path d="M134.787 161.035C134.767 161.035 134.747 161.035 134.728 161.034C131.988 160.909 129.858 158.405 128.881 154.165C127.742 149.218 128.477 142.863 131.65 141.224C133.317 140.362 134.622 140.624 135.422 140.997C137.352 141.894 138.709 144.42 139.571 148.723C139.703 149.383 139.26 150.023 138.582 150.152C137.908 150.28 137.247 149.85 137.114 149.19C136.177 144.506 134.865 143.438 134.345 143.196C134.079 143.072 133.633 142.957 132.823 143.375C131.081 144.276 130.337 149.356 131.322 153.632C131.863 155.981 133.072 158.52 134.844 158.6C135.535 158.632 136.067 159.202 136.035 159.874C136.004 160.526 135.451 161.035 134.787 161.035Z" fill="#652815"/>
<path d="M33.702 161.035C33.6825 161.035 33.6625 161.035 33.643 161.034C29.0954 160.827 25.5121 154.06 24.4208 149.321C23.4821 145.244 24.1306 142.293 26.2002 141.224C27.4376 140.584 28.7452 140.485 29.9836 140.939C32.7843 141.963 34.7063 145.587 35.8252 148.446C36.0714 149.075 35.7476 149.779 35.1016 150.018C34.4571 150.257 33.7331 149.943 33.4874 149.314C32.1834 145.983 30.5856 143.762 29.1034 143.22C28.533 143.011 27.9831 143.061 27.3731 143.375C26.4484 143.853 26.2382 146.079 26.8617 148.788C28.0191 153.811 31.3067 158.489 33.7591 158.6C34.4491 158.632 34.9825 159.202 34.9505 159.874C34.92 160.526 34.3666 161.035 33.702 161.035Z" fill="#652815"/>
<path d="M136.332 144.156C136.297 144.156 136.261 144.154 136.225 144.151C135.536 144.095 135.026 143.505 135.084 142.835C135.863 133.876 142.389 127.83 153.458 125.811C154.137 125.686 154.791 126.123 154.918 126.784C155.046 127.445 154.598 128.082 153.919 128.206C146.942 129.478 138.443 133.085 137.578 143.04C137.522 143.676 136.975 144.156 136.332 144.156Z" fill="#652815"/>
<path d="M158.257 161.035H106.216C105.525 161.035 104.965 160.49 104.965 159.817C104.965 159.144 105.525 158.599 106.216 158.599H158.257C158.948 158.599 159.508 159.144 159.508 159.817C159.508 160.49 158.947 161.035 158.257 161.035Z" fill="#652815"/>
<path d="M102.299 161.381H56.7013C49.6851 161.381 44 160.729 44 159.924C44 159.12 49.6851 158.468 56.7013 158.468H102.299C109.315 158.468 115 159.12 115 159.924C115 160.728 109.31 161.381 102.299 161.381Z" fill="#652815"/>
<path d="M55.5512 161.035H33.7012C33.0101 161.035 32.4502 160.49 32.4502 159.817C32.4502 159.144 33.0101 158.599 33.7012 158.599H55.5512C56.2422 158.599 56.8022 159.144 56.8022 159.817C56.8022 160.49 56.2417 161.035 55.5512 161.035Z" fill="#652815"/>
<path d="M48.9212 161.035C43.9964 161.035 39.9602 159.179 36.9259 155.52C30.9262 148.283 30.2877 135.534 32.2337 126.751C35.149 113.593 39.2222 105.437 42.4947 98.8828C46.1506 91.5626 49.0378 85.7802 49.0378 76.2387C49.0378 75.5659 49.5978 75.0207 50.2888 75.0207C50.9799 75.0207 51.5398 75.5659 51.5398 76.2387C51.5398 86.341 48.5414 92.3461 44.745 99.9479C41.3633 106.719 37.5309 114.394 34.6796 127.265C32.7977 135.761 33.6333 147.669 38.8729 153.989C41.4089 157.047 44.79 158.599 48.9218 158.599C49.6128 158.599 50.1727 159.144 50.1727 159.817C50.1722 160.489 49.6123 161.035 48.9212 161.035Z" fill="#652815"/>
<path d="M66.0292 13.1057C78.5579 10.6043 97.8336 9.62249 118.516 19.1487C119.141 19.4361 119.408 20.1627 119.113 20.7707C118.818 21.3782 118.072 21.6391 117.447 21.3508C80.2086 4.19859 44.1384 20.7681 40.5692 27.7873C38.7163 31.4327 38.5798 50.0242 45.3192 57.2043C45.4956 57.3921 45.5995 57.6195 45.6337 57.8538C46.661 59.2752 47.9102 61.2792 49.0927 63.8049C50.1779 66.1234 50.6511 68.9125 50.8221 71.3948C50.9939 73.8891 50.8662 76.1718 50.6903 77.5383C50.6081 78.1767 50.0089 78.6296 49.3514 78.55C48.694 78.4702 48.2275 77.8886 48.3094 77.2502C48.4668 76.0278 48.589 73.8933 48.4276 71.55C48.2653 69.1941 47.8216 66.7223 46.9071 64.7688C45.5189 61.8036 44.0606 59.6523 43.078 58.4075C42.9301 58.2359 42.7861 58.0594 42.6444 57.8791C42.5147 57.728 42.3998 57.5996 42.3007 57.4954L42.1512 57.343L42.0692 57.2551C41.9397 57.101 41.8573 56.9222 41.8212 56.7366C35.8747 47.6935 36.342 30.6137 38.327 26.7073C40.5403 22.3534 51.001 16.107 66.0292 13.1057Z" fill="#652815"/>
<path d="M88.0002 68.1714L89.5002 71.0842L53.5002 91.9592L30.5002 84.1917L6.00028 66.2295C5.16695 65.2586 3.70028 63.1225 4.50028 62.3458C5.30028 61.5691 7.5003 62.6694 8.5003 63.3167C8.33364 62.9931 8.4003 62.0545 10.0003 60.8894C11.6003 59.7243 16.6669 61.0512 19.0002 61.8603C18.0002 61.0512 16.2002 59.1417 17.0002 57.9766C18.0002 56.5202 21.5002 58.4621 28.5002 62.3458C34.1002 65.4528 38.8335 72.7024 40.5002 75.9388C40.5002 75.6152 40.9002 74.9679 42.5002 74.9679C44.1002 74.9679 44.8335 75.6152 45.0002 75.9388C46.0002 74.9679 49.4002 72.3464 55.0002 69.6278C60.6002 66.9092 75.3335 64.2877 82.0002 63.3167L84.0002 68.1714H88.0002Z" fill="#FCF5E3"/>
<path d="M33.3008 79.5297L5 64.2876L34.1414 111.375L64.1234 126.345C64.6838 126.708 66.365 127.597 68.6067 128.25C70.8483 128.903 74.024 126.708 75.3316 125.528L114 114.913L89.3419 69.4591C75.425 73.5418 47.0869 81.8161 45.0694 82.2515C42.5476 82.7959 38.9049 83.8846 35.8226 83.0681C33.3568 82.4149 33.114 80.437 33.3008 79.5297Z" fill="#E4786B"/>
<path d="M17.9883 56.5202C18.4251 56.5216 18.9137 56.5887 19.4336 56.7051C20.4753 56.9385 21.7461 57.393 23.168 58.0581C26.0178 59.3913 29.5757 61.6171 33.2842 64.793L33.708 65.1619C37.4724 68.495 39.636 71.9117 40.7598 74.4616C41.3096 74.239 41.9894 74.0586 42.7246 74.0586C43.6486 74.0586 44.4426 74.342 45.0088 74.6493C47.0042 73.2065 49.5918 71.582 52.9102 69.8297L53.8643 69.3414C63.8244 64.399 76.8306 62.6443 82.2402 62.378L82.3984 62.3828C82.7615 62.4208 83.0797 62.6501 83.2188 62.9868L84.8398 66.9112C86.267 66.9636 87.3788 67.0894 88.1455 67.2374L88.4082 67.2915L88.5059 67.319C88.7293 67.3928 88.9198 67.5413 89.042 67.74L101.39 87.8431L101.438 87.9313C101.652 88.3772 101.487 88.9169 101.043 89.1744C100.598 89.4319 100.031 89.3155 99.7285 88.9203L99.6719 88.8378L87.7168 69.3727L45.8379 80.8428C45.7066 80.8887 45.5653 80.9334 45.417 80.9821L75.4219 124.701L112.522 114.365L106.388 103.477L106.344 103.387C106.147 102.933 106.331 102.4 106.785 102.159C107.239 101.917 107.802 102.054 108.089 102.459L108.143 102.545L114.877 114.497C115.023 114.756 115.04 115.065 114.923 115.337C114.806 115.61 114.567 115.815 114.275 115.897L75.7236 126.636C75.6115 126.823 75.4763 126.995 75.332 127.149C75.0368 127.463 74.6565 127.758 74.2139 128.022C73.4379 128.485 72.4211 128.885 71.2031 129.135L70.6689 129.233C67.6805 129.715 65.0943 128.479 63.7881 127.464L33.5664 112.295C33.4029 112.213 33.2653 112.088 33.1699 111.935L3.14453 63.8515C3.0498 63.6998 3.00004 63.5254 3 63.348C3 62.8912 3.1566 62.234 3.6709 61.7124C4.19596 61.1799 4.96332 60.9182 5.91309 61.006L6.10547 61.0278L6.26855 61.0601C6.43165 61.0996 6.59004 61.1596 6.71582 61.2108C6.90822 61.2891 7.13285 61.3919 7.37988 61.5133C7.53433 61.5892 7.70178 61.6748 7.88184 61.7684C7.99772 61.3885 8.18284 61.0065 8.46094 60.6561C9.25808 59.6522 10.6222 59.1482 12.5498 59.397L13.2295 59.4975C14.1457 59.6495 15.1806 59.8837 16.29 60.1953C16.2608 60.1368 16.2304 60.0792 16.2031 60.0209C15.9818 59.5476 15.7853 58.9915 15.7754 58.4488C15.7647 57.8584 15.9877 57.1818 16.7012 56.7952L16.8545 56.7212C17.2179 56.5643 17.6201 56.5191 17.9883 56.5202ZM33.9551 80.3734C33.8967 80.4589 33.8409 80.5476 33.79 80.6389C33.5352 81.0968 33.4742 81.4741 33.5635 81.7615C33.5698 81.7737 33.5817 81.7944 33.5996 81.826C33.6426 81.9019 33.7056 82.0078 33.792 82.1456C33.9642 82.4201 34.2104 82.7955 34.5254 83.2644C35.1543 84.2008 36.0436 85.4883 37.1338 87.0467C39.3134 90.1625 42.2873 94.3463 45.5732 98.9387C52.1096 108.074 59.8748 118.817 65.0654 125.97C66.0724 126.742 68.0874 127.68 70.3408 127.317L70.792 127.234C71.8111 127.025 72.6079 126.701 73.166 126.367C73.4632 126.19 73.6774 126.017 73.8213 125.872L43.4141 81.5662C42.5141 81.7956 41.5213 82.0082 40.5508 82.1389L40.0244 82.2015C38.8614 82.3223 37.6057 82.3283 36.6201 81.9701L36.4268 81.8933C35.335 81.4236 34.5606 80.9167 34.0303 80.4445C34.0044 80.4215 33.9802 80.3967 33.9551 80.3734ZM5.63477 62.9327C5.46484 62.9246 5.35114 62.9435 5.28027 62.964C5.19094 62.9899 5.14433 63.0255 5.11523 63.055C5.08815 63.0825 5.06658 63.1175 5.04883 63.1546L34.7344 110.694L61.165 123.962C56.1364 117.021 49.5755 107.935 43.9307 100.046C40.6434 95.452 37.6651 91.2615 35.4795 88.1371C34.3871 86.5755 33.4899 85.2762 32.8506 84.3245C32.5315 83.8493 32.272 83.455 32.084 83.1554C31.9905 83.0063 31.9105 82.8737 31.8477 82.7628C31.8221 82.7177 31.79 82.6605 31.7588 82.5978L31.6738 82.4006C31.3248 81.3868 31.6418 80.4134 32.0303 79.7154C32.169 79.4661 32.3271 79.2327 32.4912 79.0204C25.8716 74.8275 15.1664 68.145 9.38867 64.8347L8.24902 64.19C7.5243 63.7863 6.92646 63.4675 6.47656 63.2466C6.25089 63.1357 6.07344 63.0553 5.94238 63.0019C5.86415 62.9701 5.82007 62.9555 5.80273 62.9498L5.82324 62.9507L5.63477 62.9327ZM17.9814 58.4621C17.8943 58.4618 17.8284 58.4667 17.7803 58.4725C17.7966 58.6292 17.8659 58.8787 18.0244 59.2178C18.3361 59.8842 18.858 60.6294 19.3018 61.1757C23.03 62.5482 27.2012 64.6712 30.4824 67.5133L30.8887 67.8708C34.7981 71.3629 38.0069 75.7461 39.3955 77.9205L39.6562 78.3377L39.7041 78.4259C39.9168 78.8723 39.7509 79.4118 39.3057 79.668C38.8602 79.9242 38.2933 79.806 37.9922 79.4101L37.9355 79.3276L37.6875 78.9312C36.3657 76.8634 33.2711 72.6381 29.5391 69.3035L29.1504 68.9621C26.2287 66.4314 22.4887 64.4721 19.0322 63.1546L18.3447 62.8995C16.2846 62.1563 14.3868 61.6602 12.8984 61.4128L12.2861 61.3218C10.8472 61.1361 10.2864 61.5381 10.0449 61.8423C9.83937 62.1014 9.74176 62.4458 9.7207 62.7744C14.8791 65.6865 24.8138 71.8575 31.7344 76.2233L34.5732 78.0201L34.6484 78.0732C34.8194 78.2054 34.9415 78.3891 34.9951 78.5965L34.9941 78.5785C35.0121 78.606 35.1013 78.7639 35.3818 79.0137C35.7261 79.3202 36.3081 79.719 37.2363 80.1184L37.4424 80.1914C37.8619 80.3152 38.4694 80.3586 39.2305 80.3156C39.4877 79.8269 39.8854 79.268 40.4189 78.6582C40.0816 78.5389 39.8217 78.2472 39.7695 77.8778C39.7287 77.588 39.6388 77.1872 39.4824 76.6936L39.3027 76.1692C38.4559 73.8513 36.4235 70.1952 32.3604 66.5974L31.9609 66.2494C28.3735 63.1771 24.9666 61.0551 22.2998 59.8075C20.9636 59.1824 19.8375 58.7888 18.9844 58.5977C18.5571 58.5019 18.2237 58.4628 17.9814 58.4621ZM42.8545 78.9625C42.5303 79.2768 42.2498 79.5689 42.0107 79.8377C41.9876 79.8637 41.9656 79.89 41.9434 79.9155C42.3866 79.8192 42.8229 79.7126 43.2383 79.6016C43.14 79.5283 43.0533 79.4365 42.9863 79.3266C42.916 79.2112 42.8718 79.0876 42.8545 78.9625ZM82.2969 68.8398C78.6166 68.9287 73.4522 69.4827 67.1084 71.0794C57.6317 73.4648 49.9146 76.7999 46.0312 78.772L82.2969 68.8398ZM42.7246 76.0004C42.2522 76.0004 41.7947 76.1376 41.4424 76.2896C41.5591 76.6759 41.6446 77.0276 41.7021 77.3383C42.1361 76.9307 42.6286 76.4979 43.1855 76.0431C43.0399 76.0164 42.8854 76.0005 42.7246 76.0004ZM81.6309 64.3607C75.9896 64.7316 63.9726 66.5081 54.7842 71.0652L53.8652 71.5355C50.7389 73.1864 48.2998 74.707 46.4199 76.0488L45.6475 76.613C45.4284 76.777 45.2182 76.9379 45.0166 77.0956C49.0192 75.0542 56.9203 71.6373 66.6064 69.1992C73.2967 67.5152 78.7717 66.9499 82.6758 66.8904L81.6309 64.3607Z" fill="#652815"/>
<path d="M100.049 82.9118C110.858 83.7894 117.502 98.7104 115.517 101.845C114.87 102.866 113.52 103.186 112.309 103.416C109.35 103.979 106.196 104.526 103.399 103.446C101.688 102.786 98.5827 101.623 97.2113 100.433C93.9952 97.6448 92.4146 94.7344 90.3201 91.0764C89.6768 89.9526 89.1407 88.6888 89.319 87.4136C89.4977 86.1382 90.626 84.9128 91.9486 85.0099C93.0665 85.0921 94.0099 86.0487 95.1281 85.9621C97.1707 85.8041 99.5335 82.8698 100.049 82.9118Z" fill="#B07066"/>
<path d="M15.0001 81.9135C11.5125 91.8855 26.7471 107.038 30.4997 106.523C32.2128 104.114 32.966 102.841 33.4996 99.2411C33.8847 96.6433 34.0361 94.0224 33.3906 91.4737C32.7451 88.925 30.9997 83.7062 27.9997 83.2208C24.9997 82.7353 23.4996 84.3796 22.3705 84.3796C19.9996 85.3524 17.0001 83.2944 15.0001 81.9135Z" fill="#B07066"/>
<path d="M14.477 90.3535C15.5169 93.2911 17.2715 96.1938 19.2347 98.7337C21.1991 101.275 23.4018 103.491 25.3725 105.05C26.3561 105.828 27.3047 106.46 28.1551 106.885C28.9604 107.288 29.8468 107.593 30.6395 107.484C30.8814 107.451 31.1013 107.333 31.2588 107.155L31.3225 107.074C32.1809 105.867 32.8499 104.877 33.3621 103.71C33.813 102.682 34.1282 101.551 34.3834 100.047L34.4893 99.3791C34.881 96.7366 35.0528 93.9697 34.3619 91.2414C34.0307 89.934 33.411 87.9097 32.468 86.1296C31.9964 85.2392 31.4235 84.3711 30.7354 83.6809C30.0472 82.9908 29.1923 82.4295 28.1635 82.2631C26.4295 81.9826 25.1131 82.3225 24.1083 82.7176C23.6686 82.8905 23.1605 83.1325 22.9052 83.2406C22.5676 83.3835 22.4279 83.4083 22.3703 83.4083C22.27 83.4083 22.1707 83.4238 22.0752 83.4525L21.981 83.4857C21.1823 83.8133 20.166 83.6718 18.9561 83.144C18.0622 82.754 17.1796 82.205 16.3671 81.6601L15.5797 81.1225C15.3222 80.9447 14.993 80.8955 14.6923 80.9899C14.3918 81.0843 14.1546 81.3111 14.053 81.6015C13.0845 84.371 13.4397 87.423 14.477 90.3535ZM20.8345 97.5685C18.956 95.1381 17.3216 92.4143 16.3686 89.7222C15.5928 87.5305 15.2877 85.4163 15.6156 83.5121C16.3802 84.0104 17.2435 84.525 18.1365 84.9146C19.4666 85.4949 21.0609 85.8855 22.5801 85.3397C23.0064 85.3001 23.3982 85.1495 23.7036 85.0203C24.1409 84.8352 24.4076 84.6957 24.859 84.5182C25.6363 84.2125 26.5704 83.9738 27.8359 84.1786C28.3068 84.2549 28.7959 84.5274 29.2987 85.0316C29.8018 85.5362 30.2689 86.2239 30.6893 87.0175C31.5302 88.605 32.1052 90.4647 32.4196 91.7059C33.0194 94.0747 32.8878 96.5497 32.5094 99.1027L32.41 99.732C32.1717 101.135 31.8919 102.105 31.5218 102.948C31.151 103.793 30.6728 104.546 29.9921 105.519C29.7749 105.466 29.4705 105.359 29.0709 105.159C28.3837 104.816 27.554 104.27 26.6365 103.545C24.8043 102.096 22.7118 99.9972 20.8345 97.5685Z" fill="#652815"/>
<path d="M90.3401 94.7382C89.6578 93.7399 89.0888 92.7742 88.6562 91.8926C87.3011 89.1342 87.0679 86.9423 87.9831 85.5539C89.7622 82.8539 91.9504 83.4995 93.7089 84.0184C94.0266 84.1123 94.3515 84.2079 94.6838 84.2906C100.538 80.5411 111.538 73.9155 122.514 69.5381C123.155 69.2824 123.884 69.5785 124.149 70.1992C124.41 70.8204 124.103 71.5307 123.462 71.7859C112.396 76.1991 101.266 82.9642 95.6162 86.6041C95.339 86.7827 95 86.8472 94.6744 86.784C94.0512 86.6625 93.4787 86.4937 92.9734 86.3447C91.2191 85.8265 90.8225 85.7555 90.0945 86.86C89.7955 87.3133 89.833 88.6284 90.9201 90.8423C93.5537 96.1995 100.172 102.566 105.461 103.135C108.166 103.425 121.465 100.368 132.151 97.911C135.217 97.2062 138.173 96.5265 140.797 95.9424C141.472 95.7923 142.143 96.2019 142.297 96.8552C142.45 97.5097 142.027 98.1623 141.352 98.3125C138.733 98.895 135.782 99.5735 132.723 100.277C118.432 103.563 108.091 105.864 105.179 105.551C99.3426 104.923 93.5728 99.4687 90.3401 94.7382Z" fill="#652815"/>
<path d="M49.5078 45.1601C50.129 45.1641 50.6367 45.6258 50.6943 46.2136L50.7002 46.333V46.3624C50.7 46.381 50.6996 46.4081 50.6992 46.443C50.6984 46.5134 50.6966 46.6159 50.6943 46.7464C50.6898 47.0075 50.6822 47.381 50.668 47.833C50.6396 48.7357 50.5865 49.958 50.4873 51.2284C50.3886 52.493 50.2418 53.8341 50.0215 54.9633C49.9115 55.5267 49.7781 56.0664 49.6113 56.5297C49.4564 56.9602 49.2256 57.4637 48.8486 57.8296C47.9522 58.7 47.0355 59.1531 46.3174 59.3856C45.9605 59.5011 45.6548 59.5608 45.4277 59.5923C45.3142 59.608 45.2196 59.617 45.1475 59.6217C45.1114 59.624 45.0803 59.6257 45.0557 59.6264C45.0435 59.6268 45.0327 59.6272 45.0234 59.6274H45.001C45.0004 59.6269 45 59.6031 45 58.4621V59.6274C44.3373 59.6274 43.7998 59.1055 43.7998 58.4621C43.7998 57.8186 44.3373 57.2968 45 57.2968H44.9873C45.003 57.2957 45.0376 57.2933 45.0879 57.2863C45.1889 57.2723 45.3522 57.2409 45.5576 57.1744C45.9645 57.0428 46.548 56.7676 47.1514 56.1817C47.1347 56.1978 47.2216 56.1055 47.3457 55.7607C47.458 55.4487 47.5649 55.0333 47.6631 54.53C47.8591 53.5256 47.9977 52.2834 48.0937 51.053C48.1893 49.8286 48.2409 48.643 48.2686 47.7619C48.2824 47.3221 48.2906 46.9595 48.2949 46.7076C48.2971 46.5818 48.2981 46.4837 48.2988 46.4174C48.2992 46.3845 48.2997 46.3591 48.2998 46.3425V46.3179L48.3066 46.1993C48.3717 45.6121 48.8865 45.1564 49.5078 45.1601Z" fill="#652815"/>
<path d="M165.657 95.5845C166.203 95.1604 166.984 95.2142 167.463 95.6888L167.554 95.7883L171.554 100.643L171.635 100.752C172.007 101.31 171.89 102.061 171.344 102.485C170.798 102.909 170.017 102.856 169.538 102.381L169.447 102.281L165.447 97.4268L165.366 97.3177C164.994 96.7598 165.111 96.0086 165.657 95.5845ZM163.815 90.6397C164.149 90.0441 164.891 89.8012 165.522 90.0585L165.647 90.1164L171.147 93.0291L171.265 93.0993C171.829 93.4747 172.021 94.2122 171.686 94.8079C171.351 95.4036 170.61 95.6465 169.979 95.3892L169.854 95.3313L164.354 92.4185L164.236 92.3484C163.671 91.9729 163.48 91.2355 163.815 90.6397ZM161.706 81.469C162.272 81.0699 163.049 81.1588 163.505 81.6539L163.592 81.7582L167.592 87.0983L167.667 87.2102C168.012 87.7843 167.86 88.53 167.294 88.9292C166.729 89.3284 165.952 89.2394 165.496 88.7443L165.409 88.6401L161.409 83.2999L161.333 83.188C160.989 82.614 161.141 81.8683 161.706 81.469Z" fill="#652815"/>
<path d="M168.82 150.828C169.152 150.247 169.89 149.993 170.532 150.26C171.175 150.527 171.494 151.222 171.289 151.856L171.241 151.982L171.24 151.983C171.24 151.983 171.24 151.985 171.239 151.986C171.238 151.988 171.237 151.991 171.235 151.994C171.232 152.002 171.228 152.012 171.222 152.025C171.21 152.053 171.191 152.092 171.169 152.141C171.124 152.24 171.059 152.382 170.979 152.554C170.818 152.897 170.592 153.368 170.332 153.872C170.074 154.373 169.776 154.921 169.47 155.416C169.178 155.888 168.828 156.399 168.455 156.762C167.89 157.31 166.941 158.097 165.796 158.816C164.66 159.53 163.247 160.23 161.765 160.518C161.034 160.66 160.322 160.199 160.176 159.489C160.03 158.78 160.504 158.089 161.235 157.947C162.253 157.749 163.34 157.236 164.329 156.615C165.309 155.999 166.11 155.329 166.545 154.907C166.672 154.784 166.884 154.507 167.155 154.068C167.412 153.652 167.676 153.169 167.918 152.7C168.159 152.233 168.37 151.793 168.522 151.469C168.597 151.307 168.657 151.175 168.698 151.085C168.719 151.04 168.734 151.005 168.744 150.982C168.749 150.97 168.753 150.961 168.756 150.956C168.757 150.953 168.758 150.951 168.759 150.95V150.948L168.82 150.828ZM169.573 104.588C170.236 104.374 170.95 104.686 171.231 105.292L171.28 105.417L171.571 106.292C173.05 110.876 174.857 118.401 175.337 121.666L175.455 122.567C175.719 124.784 175.89 127.758 175.966 130.371C176.009 131.871 176.022 133.273 176.003 134.368C175.993 134.914 175.975 135.396 175.947 135.781C175.936 135.937 175.92 136.113 175.897 136.289C176.036 136.635 176.205 137.038 176.397 137.486C176.645 138.067 176.921 138.712 177.164 139.342C177.405 139.966 177.631 140.618 177.768 141.213C177.882 141.712 177.992 142.392 177.819 143.017L177.78 143.141C177.466 144.056 176.693 144.477 176.113 144.676C175.555 144.867 174.916 144.942 174.491 144.997C174.263 145.026 174.086 145.053 173.947 145.076C173.997 145.189 174.066 145.308 174.157 145.431C174.369 145.716 174.624 145.925 174.749 146.006L176.119 146.892L172.955 149.965C172.428 150.477 171.572 150.477 171.045 149.965C170.518 149.453 170.518 148.622 171.045 148.11L172.078 147.106C172.041 147.06 172.004 147.013 171.968 146.964C171.554 146.407 171.15 145.617 171.15 144.669C171.15 144.208 171.298 143.767 171.604 143.401C171.888 143.06 172.243 142.864 172.533 142.747C173.069 142.529 173.72 142.452 174.134 142.399C174.638 142.333 174.965 142.285 175.202 142.206C175.194 142.119 175.178 141.982 175.133 141.785C175.036 141.366 174.861 140.846 174.636 140.261C174.412 139.682 174.155 139.079 173.903 138.492C173.658 137.918 173.411 137.342 173.232 136.863L173.07 136.435L173.22 136.001C173.198 136.064 173.226 135.981 173.254 135.599C173.277 135.278 173.294 134.846 173.303 134.322C173.321 133.278 173.309 131.919 173.267 130.445C173.191 127.854 173.024 124.975 172.775 122.882L172.663 122.038C172.206 118.931 170.438 111.55 169.002 107.095L168.72 106.246L168.683 106.117C168.533 105.468 168.91 104.803 169.573 104.588Z" fill="#652815"/>
<path d="M53.0699 130.415C52.7588 130.277 52.391 130.409 52.2485 130.71C52.0845 131.056 51.7824 131.504 51.4351 131.764C51.2672 131.89 51.1211 131.947 51.0006 131.959C50.8947 131.97 50.7565 131.951 50.5723 131.824C49.5318 131.107 49.0536 130.071 48.9558 129.7L48.942 129.654C48.8626 129.429 48.652 129.269 48.4039 129.25C48.1558 129.231 47.922 129.357 47.8075 129.567L47.786 129.61C47.5645 130.109 47.1676 130.807 46.7112 131.297C46.4818 131.542 46.2716 131.698 46.0979 131.769C45.9465 131.831 45.8433 131.825 45.7388 131.773C45.3423 131.574 45.0236 131.142 44.7955 130.578C44.5724 130.027 44.4749 129.443 44.455 129.089C44.4363 128.759 44.1442 128.506 43.8024 128.523C43.4607 128.541 43.1989 128.824 43.2175 129.154C43.2435 129.615 43.363 130.327 43.6413 131.015C43.9146 131.691 44.3819 132.444 45.1696 132.838C45.6572 133.082 46.1535 133.049 46.583 132.873C46.9903 132.706 47.3426 132.409 47.6314 132.1C47.8858 131.827 48.1176 131.515 48.3188 131.202C48.6604 131.736 49.1598 132.322 49.8531 132.8C50.2594 133.08 50.6948 133.195 51.1284 133.152C51.5474 133.11 51.9072 132.927 52.1945 132.712C52.7578 132.29 53.1648 131.654 53.3751 131.21C53.5176 130.909 53.381 130.553 53.0699 130.415Z" fill="#652815"/>
<path d="M75.0699 140.124C74.7588 139.986 74.391 140.118 74.2485 140.419C74.0845 140.765 73.7824 141.213 73.4351 141.473C73.2672 141.599 73.1211 141.657 73.0006 141.669C72.8947 141.679 72.7565 141.661 72.5723 141.534C71.5318 140.816 71.0536 139.78 70.9558 139.409L70.942 139.363C70.8626 139.138 70.652 138.978 70.4039 138.959C70.1558 138.94 69.922 139.066 69.8075 139.277L69.786 139.32C69.5645 139.818 69.1676 140.517 68.7112 141.006C68.4818 141.252 68.2716 141.407 68.0979 141.478C67.9465 141.541 67.8433 141.534 67.7388 141.482C67.3423 141.284 67.0236 140.852 66.7955 140.288C66.5724 139.736 66.4749 139.152 66.455 138.799C66.4363 138.468 66.1442 138.215 65.8024 138.233C65.4607 138.251 65.1989 138.533 65.2175 138.864C65.2435 139.324 65.363 140.036 65.6413 140.724C65.9146 141.4 66.3819 142.153 67.1696 142.547C67.6572 142.791 68.1535 142.759 68.583 142.582C68.9903 142.415 69.3426 142.119 69.6314 141.809C69.8858 141.536 70.1176 141.224 70.3188 140.911C70.6604 141.446 71.1598 142.032 71.8531 142.51C72.2594 142.79 72.6948 142.904 73.1284 142.861C73.5474 142.819 73.9072 142.636 74.1945 142.421C74.7578 141.999 75.1648 141.363 75.3751 140.919C75.5176 140.618 75.381 140.262 75.0699 140.124Z" fill="#652815"/>
<path d="M60.7968 145.586C60.2966 145.364 59.7053 145.576 59.4761 146.06C59.2125 146.617 58.7269 147.336 58.1685 147.754C57.8985 147.957 57.6636 148.049 57.4699 148.069C57.2996 148.086 57.0775 148.056 56.7814 147.852C55.1086 146.698 54.3398 145.033 54.1826 144.436L54.1603 144.362C54.0327 144 53.6941 143.743 53.2953 143.712C52.8965 143.682 52.5206 143.885 52.3364 144.223L52.3019 144.292C51.9458 145.094 51.3077 146.217 50.5739 147.003C50.2052 147.398 49.8672 147.648 49.5879 147.763C49.3445 147.863 49.1785 147.853 49.0106 147.769C48.3732 147.45 47.8608 146.755 47.4941 145.849C47.1354 144.961 46.9787 144.023 46.9466 143.455C46.9166 142.923 46.4469 142.516 45.8976 142.545C45.3482 142.574 44.9272 143.028 44.9572 143.559C44.9989 144.3 45.191 145.444 45.6384 146.55C46.0778 147.637 46.8292 148.847 48.0955 149.481C48.8794 149.873 49.6773 149.821 50.3679 149.537C51.0226 149.268 51.5891 148.792 52.0533 148.294C52.4623 147.856 52.835 147.354 53.1585 146.851C53.7077 147.71 54.5104 148.652 55.6251 149.421C56.2783 149.871 56.9783 150.056 57.6754 149.986C58.3491 149.919 58.9274 149.624 59.3893 149.278C60.295 148.6 60.9493 147.577 61.2874 146.864C61.5165 146.38 61.297 145.808 60.7968 145.586Z" fill="#652815"/>
<path d="M143.993 98.2492C143.75 98.0234 143.666 97.6762 143.785 97.3656C143.912 97.0342 144.242 96.8186 144.604 96.8302C145.333 96.8536 146.497 96.9182 147.634 97.0366C148.733 97.1511 149.93 97.327 150.647 97.609C151.082 97.7798 151.502 98.0914 151.871 98.4177C152.251 98.7545 152.632 99.1571 152.986 99.5671C153.605 100.285 154.177 101.063 154.565 101.637L154.72 101.87C154.904 102.151 154.896 102.512 154.7 102.785C154.504 103.057 154.159 103.189 153.825 103.116C152.864 102.909 150.516 102.297 148.873 101.497C147.233 100.699 144.96 99.017 144.044 98.293L143.993 98.2492ZM147.372 98.6663C148.145 99.1902 148.958 99.698 149.627 100.023C150.302 100.352 151.133 100.652 151.922 100.899C151.847 100.808 151.771 100.717 151.694 100.628C151.368 100.251 151.041 99.9077 150.735 99.6369C150.418 99.3558 150.173 99.1985 150.015 99.1364C149.547 98.9526 148.579 98.7912 147.453 98.6739C147.426 98.6711 147.399 98.669 147.372 98.6663Z" fill="#662425"/>
<path d="M156.993 127.377C156.75 127.151 156.666 126.804 156.785 126.493C156.912 126.162 157.242 125.947 157.604 125.958C158.333 125.982 159.497 126.046 160.634 126.165C161.733 126.279 162.93 126.455 163.647 126.737C164.082 126.908 164.502 127.219 164.871 127.546C165.251 127.882 165.632 128.285 165.986 128.695C166.605 129.413 167.177 130.191 167.565 130.765L167.72 130.998C167.904 131.279 167.896 131.64 167.7 131.912C167.504 132.185 167.159 132.316 166.825 132.244C165.864 132.037 163.516 131.425 161.873 130.625C160.233 129.827 157.96 128.145 157.044 127.421L156.993 127.377ZM160.372 127.794C161.145 128.318 161.958 128.826 162.627 129.151C163.302 129.48 164.133 129.78 164.922 130.027C164.847 129.936 164.771 129.845 164.694 129.756C164.368 129.379 164.041 129.036 163.735 128.765C163.418 128.484 163.173 128.326 163.015 128.264C162.547 128.081 161.579 127.919 160.453 127.802C160.426 127.799 160.399 127.797 160.372 127.794Z" fill="#662425"/>
<path d="M136 35.9244C137.833 38.3517 142.9 43.8861 148.5 46.6047C153.897 49.2249 157.251 55.513 158.382 56.2544L158.5 56.314C158.464 56.3022 158.424 56.2822 158.382 56.2544L146 50.0029C146.333 50.9738 148.454 55.648 154.5 59.7122C161 64.0814 162.5 70.3924 162.5 71.8488C160.833 71.687 155.5 65.2465 153.5 66.0233C151.5 66.8 152.5 70.5418 152.5 70.5418L135 37.8663L136 35.9244Z" fill="#CD966D"/>
<path d="M132.871 31.3665C133.489 31.0505 134.245 31.2465 134.624 31.7999L134.694 31.9155L135.026 32.5072C136.819 35.6112 140.616 40.8036 145.208 43.5468C150.224 46.544 156.556 49.5047 159.259 56.3291C159.465 56.8484 159.311 57.4373 158.875 57.7978C158.465 58.1359 157.892 58.2038 157.414 57.9799L157.319 57.9315L150.052 53.8155C150.995 54.9806 152.124 56.1959 153.388 57.2697C154.339 58.0777 155.368 58.7894 156.484 59.606C157.573 60.4029 158.714 61.2784 159.735 62.3358C161.837 64.5125 163.349 67.3789 163.349 71.8488C163.349 72.3527 163.052 72.812 162.585 73.0303C162.175 73.2212 161.699 73.1977 161.315 72.9781L161.156 72.8719L158.063 70.4702L160.728 76.1611L160.779 76.2863C160.998 76.9157 160.694 77.6154 160.058 77.8963C159.422 78.1771 158.678 77.9393 158.334 77.3653L158.271 77.2458L153.271 66.5656C153.013 66.0135 153.178 65.3613 153.671 64.9888C154.164 64.6163 154.856 64.6213 155.343 65.0002L160.345 68.8858C159.882 66.7987 158.927 65.3322 157.764 64.1278C156.91 63.2436 155.926 62.4803 154.859 61.6996C153.819 60.9384 152.66 60.1331 151.611 59.2419C149.751 57.6621 148.183 55.8406 147.017 54.2536C145.869 52.6902 145.047 51.2669 144.736 50.4628C144.536 49.9437 144.693 49.3581 145.13 49.0007C145.566 48.6435 146.187 48.5915 146.68 48.8708L154.212 53.1366C151.519 50.0468 147.686 48.1058 143.792 45.7788C138.633 42.6964 134.555 37.0565 132.656 33.7626L132.305 33.1368L132.247 33.0145C131.991 32.3985 132.253 31.6826 132.871 31.3665Z" fill="#652815"/>
</svg>
