<svg width="182" height="167" viewBox="0 0 182 167" fill="none" xmlns="http://www.w3.org/2000/svg">
<path d="M95.2859 16.0327C95.281 16.0327 95.2766 16.0327 95.2717 16.0327C95.2668 16.0327 95.2624 16.0327 95.2575 16.0323C95.2527 16.0323 95.2483 16.0318 95.2434 16.0318C95.2385 16.0318 95.2337 16.0314 95.2288 16.031C95.076 16.0233 94.932 15.9864 94.8027 15.9261C94.6733 15.8653 94.5582 15.7813 94.4634 15.6798C94.3686 15.5784 94.2933 15.4589 94.2441 15.3283C94.195 15.1977 94.171 15.0555 94.179 14.9078C94.2087 14.3426 94.1812 13.708 94.0913 13.0417C94.0014 12.3755 93.8495 11.6775 93.6302 10.9851C93.411 10.2927 93.1248 9.60716 92.766 8.9653C92.4077 8.32343 91.9772 7.72524 91.4691 7.20883C91.1821 6.91723 90.8791 6.66117 90.5602 6.44151C90.2417 6.22184 89.9073 6.03858 89.5583 5.89171C89.2093 5.74484 88.8452 5.63436 88.4673 5.56071C88.0891 5.48706 87.6966 5.4498 87.2905 5.4498C87.1376 5.4498 86.9919 5.41983 86.8595 5.36588C86.727 5.31192 86.6079 5.23357 86.5073 5.13636C86.4072 5.03959 86.3261 4.92398 86.2699 4.79595C86.2136 4.66792 86.1831 4.52704 86.1831 4.37931C86.1831 4.23158 86.2141 4.09071 86.2699 3.96268C86.3257 3.83465 86.4072 3.71946 86.5073 3.62226C86.6074 3.52549 86.7266 3.44713 86.8595 3.39275C86.9919 3.33879 87.1376 3.3084 87.2905 3.3084C87.8463 3.3084 88.3885 3.36063 88.9129 3.46426C89.4374 3.56788 89.9445 3.72203 90.4313 3.92586C90.9176 4.12968 91.3836 4.38317 91.8252 4.68505C92.2668 4.98692 92.6845 5.33676 93.0743 5.73327C93.698 6.36743 94.2259 7.09023 94.6653 7.86098C95.1047 8.63174 95.4551 9.4513 95.7227 10.2786C95.9906 11.1059 96.1758 11.9408 96.2852 12.7437C96.3946 13.5466 96.4273 14.3173 96.391 15.0153C96.3835 15.1583 96.3472 15.2932 96.2878 15.4152C96.2285 15.5373 96.1461 15.6464 96.0464 15.7377C95.9468 15.8289 95.8298 15.9025 95.7009 15.953C95.5729 16.0048 95.4325 16.0327 95.2859 16.0327Z" fill="#0940A1"/>
<path d="M118.16 80.4175C116.483 85.5072 118.859 97.1287 120.257 102.303L66.2632 135.386C60.5843 136.235 46.186 137.931 34.0243 137.931C21.8626 137.931 12.8812 134.877 9.91066 133.351C6.06645 128.346 -0.311439 113.755 4.93066 95.4322C11.4833 72.5285 33.5001 57.2593 42.1496 52.6786C50.799 48.0978 62.0696 34.8646 67.5738 31.3018C73.078 27.739 80.679 21.1223 98.7643 20.8679C113.232 20.6643 128.033 27.739 133.624 31.3018L128.382 58.5317C125.674 63.7063 119.838 75.3278 118.16 80.4175Z" fill="#CD966D" stroke="#CD966D" stroke-width="0.249262" stroke-linecap="round"/>
<path d="M126.351 152.965L54.9272 125.607C54.9272 125.353 55.0845 124.742 55.7136 124.335C56.3426 123.928 58.2472 123.317 59.1209 123.063C85.5499 114.156 138.853 96.2144 140.636 95.7054C142.418 95.1964 144.087 95.4933 144.698 95.7054L180.476 103.976C168.768 117.082 145.065 143.6 143.912 144.821C142.47 146.348 133.821 154.619 132.117 154.746C130.754 154.848 127.705 153.601 126.351 152.965Z" fill="#6495FE" stroke="#0940A1" stroke-width="0.872418" stroke-linecap="round" stroke-linejoin="round"/>
<path d="M126.941 105.866L131.659 103.703L138.605 106.248L133.756 108.92L150.662 115.282L146.468 118.718L132.97 113.755L121.568 109.429L121.175 108.665C121.481 108.326 122.145 107.622 122.354 107.52C122.564 107.418 125.5 106.375 126.941 105.866Z" fill="#C1FAC9"/>
<path d="M142.667 104.339L139.522 106.248L155.248 111.846L157.87 109.811L157.476 108.92L142.667 104.339Z" fill="#C1FAC9"/>
<path d="M60.6997 38.9072C59.6473 38.8009 58.6429 38.466 57.7345 37.9589C56.8262 37.4518 56.0138 36.7729 55.346 35.9792C54.6777 35.1856 54.1539 34.2771 53.8222 33.3113C53.4905 32.3455 53.3513 31.3218 53.4522 30.2977C53.553 29.2736 53.89 28.2945 54.4046 27.4075C54.9191 26.5205 55.6112 25.7255 56.4222 25.0698C57.2332 24.414 58.1636 23.8979 59.1543 23.5677C60.1451 23.2379 61.1966 23.0944 62.2508 23.1848C63.6274 23.303 64.9838 23.5934 66.2865 24.0354C67.5891 24.4778 68.8384 25.0719 70.0014 25.797C71.1639 26.5222 72.2401 27.3788 73.197 28.3459C74.1533 29.313 74.9904 30.3907 75.6745 31.5582C75.9349 32.0024 76.0974 32.4842 76.1732 32.9811C76.2485 33.4779 76.237 33.9893 76.1489 34.493C76.0608 34.9963 75.896 35.4918 75.6652 35.9561C75.4344 36.4204 75.1375 36.8538 74.7851 37.2329C74.4327 37.6124 74.0353 37.943 73.6053 38.2287C73.1749 38.5144 72.712 38.7547 72.2269 38.953C71.7424 39.1513 71.2362 39.3076 70.7203 39.4254C70.2045 39.5428 69.6785 39.6216 69.1547 39.6648C68.6309 39.7081 68.108 39.7089 67.5512 39.6798C66.9948 39.6503 66.4045 39.5907 65.7459 39.5119C65.0873 39.4331 64.3609 39.3359 63.5314 39.231C62.7014 39.1273 61.7693 39.0151 60.6997 38.9072Z" fill="#B07066"/>
<path d="M87.9749 23.1581C87.7834 22.5626 87.7218 21.9443 87.7722 21.3324C87.8227 20.7205 87.9848 20.1143 88.2402 19.5421C88.4956 18.9703 88.844 18.4322 89.2669 17.9572C89.6898 17.4821 90.1873 17.0695 90.7401 16.7476C91.293 16.4257 91.8878 16.1884 92.5058 16.0287C93.1234 15.8691 93.7647 15.788 94.41 15.7789C95.0553 15.7698 95.7051 15.8333 96.3406 15.9627C96.976 16.0922 97.5976 16.2885 98.1858 16.5448C98.7743 16.8011 99.3321 17.1118 99.8587 17.467C100.385 17.8221 100.881 18.2217 101.344 18.6553C101.808 19.0894 102.24 19.558 102.64 20.0513C103.04 20.5445 103.408 21.0627 103.744 21.5956C102.348 21.5201 100.95 21.496 99.5657 21.5236C98.1818 21.5512 96.8121 21.6302 95.4751 21.7609C94.1376 21.8912 92.8323 22.0733 91.5761 22.3063C90.3208 22.5389 89.1146 22.8228 87.9749 23.1581Z" fill="#B07066"/>
<path d="M117.93 71.9953C116.556 72.2681 115.003 71.1915 113.505 69.2747C112.007 67.3579 110.565 64.6004 109.411 61.5119C108.257 58.4233 107.393 55.0037 107.05 51.7612C106.708 48.5191 106.889 45.4547 107.826 43.0769C108.714 40.8227 109.96 38.8298 111.496 37.1227C113.032 35.4156 114.857 33.994 116.903 32.8831C118.948 31.7723 121.215 30.9718 123.632 30.5062C126.05 30.0407 128.62 29.9104 131.272 30.14C132.04 30.6936 132.809 31.2471 133.573 31.804C134.337 32.3609 135.097 32.9208 135.848 33.487C136.599 34.0532 137.341 34.6261 138.07 35.2084C138.799 35.7907 139.514 36.3827 140.212 36.987C140.407 39.4167 140.417 42.0329 140.26 44.6513C140.104 47.2692 139.781 49.8892 139.31 52.3257C138.84 54.7622 138.222 57.016 137.475 58.9016C136.727 60.7871 135.852 62.3051 134.865 63.2701C133.736 64.3754 132.181 65.4597 130.468 66.4682C128.754 67.4763 126.882 68.4082 125.116 69.2091C123.351 70.0096 121.692 70.679 120.405 71.1619C119.119 71.6444 118.205 71.9408 117.93 71.9953Z" fill="#B07066"/>
<path d="M45.0466 138.44C44.4767 137.813 43.9775 137.131 43.5544 136.407C43.1313 135.683 42.7838 134.919 42.5182 134.13C42.2522 133.341 42.0677 132.527 41.9695 131.704C41.8714 130.881 41.8602 130.05 41.9403 129.224C42.0209 128.399 42.1928 127.583 42.448 126.791C42.7032 125.999 43.0422 125.232 43.4558 124.503C43.8699 123.774 44.3588 123.083 44.9147 122.446C45.4706 121.809 46.0931 121.225 46.7741 120.709C47.0001 120.538 47.2355 120.373 47.479 120.22C47.7225 120.068 47.9746 119.928 48.2347 119.807C48.4945 119.686 48.7623 119.584 49.0368 119.508C49.3114 119.432 49.5937 119.38 49.8817 119.361C50.1703 119.342 50.4651 119.361 50.7518 119.418C51.0385 119.475 51.3171 119.568 51.5728 119.696C51.8285 119.824 52.0612 119.987 52.2561 120.181C52.451 120.376 52.6081 120.602 52.713 120.858C53.0497 121.682 53.2986 122.536 53.4597 123.406C53.6209 124.276 53.6942 125.16 53.6803 126.044C53.6663 126.927 53.565 127.809 53.3764 128.673C53.1878 129.538 52.9119 130.385 52.5496 131.198C52.1868 132.011 51.7385 132.789 51.219 133.518C50.6996 134.247 50.1099 134.927 49.4645 135.547C48.819 136.167 48.1182 136.726 47.3768 137.212C46.6355 137.699 45.8536 138.112 45.0466 138.44Z" fill="#B07066"/>
<path d="M72.8159 50.261C72.8159 48.838 73.1643 47.4821 73.7942 46.2493C74.4241 45.0164 75.336 43.9058 76.4621 42.9732C77.5887 42.0406 78.93 41.2861 80.4196 40.7643C81.9092 40.2429 83.5466 39.9543 85.2659 39.9543C86.9848 39.9543 88.6226 40.2425 90.1122 40.7643C91.6018 41.2856 92.943 42.0406 94.0696 42.9732C95.1962 43.9058 96.1077 45.016 96.7376 46.2493C97.3675 47.4821 97.7159 48.838 97.7159 50.261C97.7159 51.6839 97.3675 53.0398 96.7376 54.2727C96.1077 55.5055 95.1958 56.6162 94.0696 57.5488C92.943 58.4814 91.6018 59.2359 90.1122 59.7577C88.6226 60.279 86.9852 60.5676 85.2659 60.5676C83.547 60.5676 81.9092 60.2794 80.4196 59.7577C78.93 59.2363 77.5887 58.4814 76.4621 57.5488C75.3355 56.6162 74.4241 55.5059 73.7942 54.2727C73.1643 53.0394 72.8159 51.6839 72.8159 50.261Z" fill="#B07066"/>
<path d="M79.8997 44.1745C79.926 44.326 80.0077 44.4636 80.1291 44.5863C80.2506 44.7091 80.4117 44.8171 80.5973 44.9095C80.7825 45.0019 80.9921 45.0782 81.2096 45.1382C81.427 45.1981 81.6533 45.2412 81.8717 45.2671C82.3699 45.3258 82.821 45.2987 83.207 45.2121C83.593 45.1255 83.9139 44.9801 84.1508 44.8015C84.3877 44.6229 84.5409 44.4114 84.5917 44.1938C84.6425 43.9762 84.5917 43.752 84.4195 43.5476C84.3364 43.4486 84.2348 43.3542 84.1189 43.2671C84.003 43.1801 83.8733 43.1009 83.7325 43.0319C83.5921 42.9629 83.4411 42.905 83.2837 42.8603C83.1262 42.8155 82.9618 42.7847 82.7952 42.7703C82.3537 42.7326 81.9451 42.7605 81.5817 42.834C81.2188 42.9075 80.9012 43.0261 80.6422 43.1702C80.3831 43.3144 80.1831 43.4835 80.0552 43.6576C79.9278 43.8313 79.8715 44.0107 79.8997 44.1745Z" fill="#EDAE84"/>
<path d="M58.3779 31.5373C58.336 30.7744 58.2942 30.0119 58.2523 29.2491C58.2104 28.4862 58.1686 27.7238 58.1267 26.9609C58.0848 26.198 58.0429 25.4356 58.0011 24.6727C57.9592 23.9098 57.9174 23.1474 57.8755 22.3845C58.8261 22.1805 59.7908 22.0395 60.7608 21.9606C61.7309 21.8817 62.7062 21.8653 63.6784 21.9106C64.6506 21.9558 65.6197 22.0632 66.5774 22.2318C67.5351 22.4009 68.4817 22.6312 69.4081 22.9227C69.3464 23.6847 69.2852 24.4463 69.2235 25.2083C69.1618 25.9703 69.1005 26.7319 69.0388 27.4939C68.9771 28.2559 68.9158 29.0175 68.8541 29.7795C68.7924 30.5415 68.7312 31.3031 68.6695 32.0651C67.9088 31.6101 67.0882 31.2582 66.2341 31.009C65.3804 30.7597 64.4933 30.6135 63.5995 30.57C62.7062 30.5264 61.8062 30.5851 60.927 30.7463C60.0478 30.9076 59.1893 31.1711 58.3779 31.5373Z" fill="#B4CDFD"/>
<path d="M58.2381 31.412C56.9607 31.8321 55.7708 32.465 54.7063 33.2598C53.6413 34.0543 52.7013 35.0108 51.9233 36.0784C51.1449 37.146 50.5285 38.325 50.1104 39.5641C49.6927 40.8036 49.4733 42.1031 49.4896 43.4129C49.506 44.7227 49.7576 46.0166 50.2062 47.2458C50.6548 48.475 51.3008 49.6391 52.1057 50.6878C52.9106 51.7369 53.874 52.6707 54.9584 53.4403C56.0428 54.2095 57.2477 54.814 58.5352 55.2042C59.8227 55.5943 61.168 55.7624 62.5103 55.7281C63.853 55.6938 65.1926 55.4575 66.4686 55.0391C67.7451 54.6206 68.9575 54.0195 70.0468 53.2564C71.1356 52.4932 72.1003 51.5676 72.8809 50.4991C73.6611 49.4307 74.2422 48.2405 74.6241 46.9903C75.006 45.7401 75.1892 44.4299 75.1742 43.1222C75.1592 41.8141 74.9459 40.5086 74.5353 39.267C74.1247 38.0253 73.5167 36.848 72.7123 35.7967C71.9078 34.7454 70.9214 33.8404 69.8149 33.1004C68.708 32.3603 67.4806 31.785 66.1935 31.394C64.9065 31.0029 63.5594 30.7963 62.2132 30.7929C60.8665 30.7899 59.5212 30.9897 58.2381 31.412Z" fill="#6495FE"/>
<path d="M60.7068 41.0032C61.4501 42.6699 62.433 43.8608 63.5042 44.6666C64.5758 45.4724 65.7357 45.8933 66.8335 46.02C67.9313 46.1467 68.9666 45.9795 69.7884 45.6089C70.6102 45.2384 71.2185 44.6653 71.4626 43.9798C71.8313 42.9431 71.8504 41.8017 71.6037 40.6624C71.357 39.5231 70.844 38.3869 70.1482 37.361C69.4525 36.335 68.5743 35.4198 67.5963 34.7231C66.6187 34.0263 65.5413 33.5476 64.4484 33.3955C63.2956 33.2348 62.3904 33.4175 61.7048 33.8342C61.0192 34.2513 60.5533 34.9028 60.2791 35.6814C60.0048 36.4596 59.9219 37.3644 60.0026 38.2874C60.0829 39.2107 60.327 40.1518 60.7068 41.0032Z" fill="#B4CDFD"/>
<path d="M59.7104 21.9846C59.7813 20.1103 60.1132 18.2531 60.6749 16.4628C61.2367 14.672 62.028 12.9485 63.019 11.3409C64.0101 9.73332 65.2 8.2421 66.5593 6.9168C67.9185 5.59151 69.4461 4.43215 71.1119 3.48828C72.7777 2.54441 74.5684 1.8238 76.4238 1.32816C78.2792 0.832525 80.2002 0.560998 82.1265 0.515744C84.0528 0.47049 85.9844 0.651506 87.8624 1.06008C89.7405 1.46823 91.5644 2.10437 93.2754 2.96894C94.986 3.8335 96.5693 4.92003 97.9924 6.18024C99.4154 7.44045 100.678 8.87436 101.747 10.4332C102.817 11.9926 103.693 13.6773 104.342 15.4396C104.992 17.2019 105.415 19.0414 105.579 20.9097C104.715 20.4628 103.851 20.0154 102.987 19.5681C102.123 19.1211 101.259 18.6738 100.395 18.2264C99.5314 17.779 98.6675 17.3321 97.8036 16.8847C96.9397 16.4378 96.0758 15.9904 95.2119 15.5431C95.5814 14.3764 95.6173 13.1761 95.3873 12.0141C95.1574 10.8522 94.6608 9.72987 93.9656 8.71834C93.2705 7.70723 92.376 6.80733 91.35 6.09189C90.3239 5.37645 89.1658 4.84504 87.9431 4.5705C86.7203 4.29595 85.4772 4.23605 84.2486 4.35758C83.0201 4.47912 81.8053 4.78168 80.6397 5.23293C79.4741 5.68417 78.3572 6.28368 77.3236 6.99912C76.29 7.71413 75.3397 8.54508 74.5068 9.45835C73.6744 10.3716 72.942 11.3551 72.2943 12.3912C71.6466 13.4273 71.0839 14.5156 70.5904 15.6387C70.0969 16.7615 69.6724 17.9191 69.3016 19.0936C68.9308 20.268 68.6136 21.4588 68.334 22.6492C67.5999 22.5462 66.8658 22.4436 66.1348 22.3497C65.4038 22.2557 64.6755 22.1708 63.9529 22.1036C63.2303 22.0363 62.5139 21.9868 61.806 21.9644C61.0971 21.9407 60.398 21.945 59.7104 21.9846Z" fill="#6495FE"/>
<path d="M118.729 66.6753C118.609 66.6753 118.491 66.6556 118.38 66.6188C118.269 66.582 118.164 66.5276 118.07 66.4587C117.977 66.3898 117.895 66.3059 117.827 66.2092C117.759 66.1129 117.707 66.0037 117.674 65.8848C117.635 65.7422 117.626 65.5984 117.646 65.4606C117.665 65.3228 117.711 65.191 117.781 65.0724C117.85 64.9539 117.943 64.8477 118.055 64.7621C118.167 64.6766 118.298 64.6106 118.443 64.5721C120.794 63.949 122.741 63.3284 124.354 62.7288C125.968 62.1292 127.248 61.5501 128.263 61.01C129.279 60.4698 130.029 59.9691 130.583 59.5261C131.138 59.0827 131.497 58.6971 131.728 58.3868C131.736 58.3765 131.744 58.3663 131.752 58.356C131.76 58.3457 131.769 58.3359 131.777 58.326C131.786 58.3162 131.794 58.3068 131.803 58.2969C131.812 58.2875 131.821 58.2781 131.83 58.2687C131.938 58.0218 132.028 57.5124 132.094 56.8486C132.16 56.1848 132.202 55.3665 132.216 54.502C132.23 53.6374 132.216 52.7258 132.168 51.8758C132.121 51.0258 132.041 50.2375 131.923 49.6182C131.896 49.4731 131.899 49.3293 131.93 49.1932C131.96 49.0575 132.017 48.9295 132.096 48.817C132.175 48.704 132.276 48.606 132.395 48.5294C132.514 48.4528 132.649 48.3976 132.798 48.3706C132.947 48.3436 133.093 48.347 133.232 48.377C133.371 48.4065 133.501 48.4626 133.617 48.5401C133.732 48.6175 133.832 48.7164 133.911 48.8324C133.989 48.9484 134.045 49.0811 134.073 49.2266C134.138 49.5698 134.195 49.9713 134.243 50.4138C134.291 50.8563 134.328 51.3408 134.356 51.8501C134.384 52.3595 134.402 52.8944 134.408 53.4384C134.414 53.9824 134.409 54.5353 134.393 55.081C134.365 55.9777 134.313 56.7005 134.243 57.2852C134.174 57.8698 134.089 58.3166 133.994 58.6607C133.9 59.0053 133.797 59.2475 133.693 59.4234C133.59 59.5993 133.485 59.7089 133.388 59.7881C132.885 60.4258 132.205 61.0481 131.351 61.6537C130.497 62.2597 129.469 62.849 128.269 63.4208C127.068 63.9931 125.696 64.5477 124.153 65.084C122.611 65.6203 120.898 66.1386 119.016 66.6372C118.992 66.6436 118.968 66.6491 118.944 66.6539C118.92 66.6586 118.896 66.6624 118.873 66.6654C118.849 66.6684 118.825 66.671 118.801 66.6723C118.777 66.6744 118.753 66.6753 118.729 66.6753ZM132.007 58.127C132.007 58.127 132.006 58.127 132.006 58.1275C132.006 58.1275 132.007 58.1275 132.007 58.127Z" fill="#652815"/>
<path d="M136.709 62.3491C136.698 62.3491 136.686 62.3491 136.674 62.3486C136.663 62.3482 136.651 62.3477 136.639 62.3473C136.628 62.3464 136.616 62.3455 136.604 62.3446C136.592 62.3432 136.58 62.3423 136.568 62.3405C135.94 62.2598 135.336 62.0584 134.781 61.7991C134.226 61.5402 133.72 61.2244 133.291 60.9153C132.861 60.6062 132.507 60.3047 132.255 60.0737C132.002 59.8426 131.852 59.6834 131.829 59.6596C131.724 59.547 131.647 59.4182 131.597 59.2819C131.546 59.1455 131.523 59.001 131.527 58.8579C131.531 58.7148 131.562 58.5717 131.62 58.4385C131.679 58.3052 131.763 58.181 131.875 58.0746C131.986 57.9683 132.113 57.8903 132.247 57.8391C132.382 57.7884 132.525 57.7651 132.666 57.7687C132.808 57.7727 132.949 57.8037 133.081 57.862C133.213 57.9203 133.336 58.0055 133.441 58.1181C133.557 58.2415 133.739 58.4165 133.969 58.6125C134.199 58.8086 134.476 59.0257 134.784 59.233C135.092 59.4402 135.43 59.6381 135.78 59.7951C136.129 59.9521 136.491 60.0692 136.848 60.1149C136.999 60.1347 137.14 60.1845 137.265 60.2576C137.389 60.3307 137.498 60.4276 137.585 60.5411C137.672 60.6546 137.737 60.7847 137.776 60.9251C137.815 61.0656 137.828 61.2158 137.808 61.3693C137.791 61.511 137.747 61.6429 137.684 61.7614C137.62 61.8798 137.537 61.9848 137.438 62.0718C137.34 62.1588 137.226 62.2284 137.103 62.2759C136.979 62.3235 136.847 62.3491 136.709 62.3491Z" fill="#652815"/>
<path d="M128.052 45.8075C127.983 45.8075 127.915 45.8016 127.847 45.7899C127.78 45.7783 127.713 45.7607 127.649 45.7374C127.584 45.714 127.521 45.6848 127.46 45.6493C127.4 45.6143 127.343 45.573 127.289 45.5258C126.801 45.0998 126.191 44.6696 125.478 44.2736C124.765 43.8776 123.949 43.5158 123.049 43.2262C122.15 42.937 121.168 42.7201 120.122 42.6141C119.077 42.5081 117.968 42.5131 116.815 42.6675C116.663 42.6875 116.514 42.6783 116.374 42.6437C116.233 42.6091 116.103 42.5494 115.988 42.4697C115.874 42.3896 115.775 42.2894 115.7 42.1734C115.625 42.0574 115.573 41.9256 115.551 41.7833C115.529 41.6406 115.539 41.5008 115.576 41.3698C115.613 41.2388 115.677 41.1165 115.762 41.0101C115.848 40.9033 115.955 40.8119 116.08 40.7418C116.205 40.6717 116.346 40.6233 116.498 40.6028C117.609 40.4543 118.743 40.4263 119.869 40.5094C120.994 40.5924 122.109 40.7868 123.181 41.0827C124.253 41.3785 125.281 41.7762 126.232 42.2661C127.182 42.7559 128.054 43.338 128.815 44.0032C128.927 44.1016 129.014 44.2168 129.073 44.3403C129.132 44.4643 129.164 44.5965 129.168 44.7301C129.173 44.8636 129.15 44.998 129.1 45.1248C129.05 45.2521 128.973 45.3723 128.868 45.4774C128.813 45.5325 128.753 45.5805 128.689 45.6218C128.626 45.6631 128.559 45.6973 128.489 45.7248C128.419 45.7524 128.347 45.7733 128.274 45.787C128.201 45.8004 128.126 45.8075 128.052 45.8075Z" fill="#652815"/>
<path d="M68.1593 23.6673C68.1389 23.6673 68.1185 23.6668 68.0986 23.6655C68.0782 23.6642 68.0577 23.663 68.0373 23.6604C68.0169 23.6582 67.9965 23.6552 67.9757 23.6522C67.9552 23.6488 67.9344 23.6449 67.914 23.6406C67.7645 23.6079 67.6291 23.5473 67.512 23.4661C67.3949 23.3848 67.2964 23.2821 67.2205 23.166C67.1447 23.0495 67.0919 22.9192 67.0666 22.7821C67.0413 22.6445 67.043 22.5001 67.0768 22.3552C67.4841 20.6103 67.9752 18.9784 68.5484 17.4621C69.1217 15.9459 69.7774 14.5444 70.5139 13.2612C71.2504 11.9775 72.0681 10.8117 72.9652 9.76571C73.8628 8.71978 74.8398 7.79335 75.8953 6.98902C76.9818 6.16104 78.1372 5.47235 79.3586 4.92337C80.5801 4.3744 81.8681 3.96513 83.2199 3.69602C84.5718 3.4269 85.9876 3.2975 87.465 3.30911C88.9425 3.32072 90.482 3.47247 92.0806 3.76523C94.9245 4.2867 97.2237 5.29222 99.0574 6.60211C100.891 7.91244 102.259 9.52712 103.24 11.2673C104.222 13.0076 104.817 14.8729 105.105 16.6849C105.393 18.4965 105.374 20.2543 105.127 21.7787C105.103 21.9253 105.05 22.0603 104.974 22.179C104.898 22.2976 104.799 22.3999 104.684 22.4807C104.569 22.5616 104.439 22.6217 104.299 22.6553C104.159 22.6888 104.01 22.6966 103.859 22.6733C103.708 22.6501 103.569 22.5985 103.446 22.525C103.324 22.4515 103.218 22.3556 103.135 22.2447C103.051 22.1334 102.99 22.007 102.955 21.8716C102.92 21.7362 102.912 21.5917 102.936 21.4451C103.149 20.1275 103.166 18.6082 102.917 17.0426C102.669 15.4769 102.155 13.8643 101.307 12.3606C100.459 10.8568 99.2783 9.46092 97.6944 8.32901C96.1105 7.19709 94.1246 6.32827 91.6684 5.87774C88.8125 5.3537 86.173 5.33736 83.7728 5.81068C81.372 6.28399 79.2109 7.24739 77.3115 8.68324C75.4121 10.1191 73.7745 12.0274 72.4217 14.3914C71.069 16.755 70.0011 19.5738 69.241 22.8307C69.2118 22.9553 69.1616 23.0701 69.0942 23.172C69.0272 23.2739 68.9429 23.3629 68.8471 23.4364C68.7508 23.5099 68.6425 23.5679 68.5267 23.6075C68.4096 23.6462 68.2858 23.6673 68.1593 23.6673Z" fill="#0940A1"/>
<path d="M59.7694 22.6492C59.7632 22.6492 59.7571 22.6492 59.7509 22.6492C59.7447 22.6492 59.7385 22.6488 59.7318 22.6488C59.7256 22.6484 59.719 22.6484 59.7128 22.6479C59.7066 22.6475 59.7 22.6471 59.6938 22.6467C59.5416 22.6368 59.3983 22.5974 59.2701 22.5348C59.1418 22.4722 59.0286 22.3861 58.9353 22.2828C58.8424 22.1795 58.7694 22.059 58.7225 21.9274C58.6757 21.7958 58.6544 21.6531 58.6646 21.5057C58.8707 18.5388 59.5359 15.8037 60.6102 13.3508C61.6841 10.8978 63.1675 8.72596 65.0096 6.88632C66.8518 5.04626 69.0535 3.53794 71.5643 2.41024C74.0752 1.28297 76.8957 0.536747 79.9758 0.221712C85.0413 -0.29606 89.0913 0.126564 92.3298 1.14068C95.5682 2.15479 97.9946 3.7604 99.8124 5.60817C101.63 7.45595 102.84 9.5459 103.644 11.5287C104.448 13.5115 104.847 15.3871 105.045 16.8063C105.065 16.9529 105.054 17.0965 105.016 17.231C104.978 17.3652 104.914 17.4904 104.828 17.5992C104.742 17.7081 104.635 17.8015 104.511 17.8723C104.387 17.943 104.248 17.9918 104.096 18.0116C103.945 18.0309 103.797 18.0201 103.659 17.9833C103.52 17.9464 103.391 17.8843 103.279 17.8011C103.166 17.718 103.07 17.6142 102.997 17.4947C102.924 17.3751 102.873 17.2392 102.853 17.0926C102.635 15.5226 102.214 13.7031 101.43 11.8857C100.647 10.0684 99.4993 8.25276 97.8274 6.69001C96.1556 5.12726 93.9587 3.81697 91.0759 3.01074C88.1931 2.20451 84.6242 1.9019 80.2084 2.35366C77.4136 2.63955 74.8541 3.31635 72.5754 4.33861C70.2968 5.36086 68.2994 6.72859 66.6275 8.39678C64.9557 10.065 63.6103 12.0336 62.6355 14.2577C61.6611 16.4818 61.0574 18.961 60.8707 21.651C60.861 21.7924 60.823 21.9257 60.7633 22.0457C60.7031 22.1657 60.6208 22.2733 60.5213 22.3629C60.4223 22.4525 60.3059 22.5245 60.179 22.5738C60.052 22.6222 59.9132 22.6492 59.7694 22.6492Z" fill="#0940A1"/>
<path d="M135.773 43.7716C135.742 43.7716 135.711 43.7703 135.68 43.7678C135.649 43.7652 135.618 43.7614 135.587 43.7562C135.556 43.7511 135.525 43.7447 135.494 43.7366C135.463 43.729 135.432 43.7196 135.402 43.7089C135.259 43.659 135.133 43.584 135.028 43.4901C134.923 43.3963 134.838 43.2842 134.778 43.1605C134.718 43.0373 134.682 42.9025 134.675 42.7644C134.667 42.6262 134.686 42.4842 134.737 42.3456C134.978 41.6962 135.276 41.0693 135.628 40.471C135.98 39.8728 136.384 39.3035 136.836 38.7692C137.289 38.2348 137.788 37.7359 138.33 37.2788C138.872 36.8216 139.456 36.4059 140.076 36.0387C140.206 35.9624 140.345 35.9146 140.486 35.8942C140.628 35.8737 140.77 35.8805 140.907 35.9125C141.044 35.9445 141.175 36.0016 141.291 36.0822C141.407 36.1628 141.509 36.2669 141.588 36.3927C141.667 36.5184 141.717 36.6536 141.738 36.7905C141.759 36.9274 141.752 37.0664 141.719 37.199C141.686 37.3317 141.626 37.4583 141.543 37.5705C141.46 37.683 141.352 37.7815 141.223 37.8583C140.709 38.1623 140.226 38.506 139.778 38.8839C139.33 39.2617 138.917 39.6736 138.543 40.115C138.169 40.5559 137.834 41.0258 137.544 41.5192C137.253 42.0126 137.007 42.5298 136.809 43.065C136.769 43.1737 136.712 43.2727 136.643 43.3592C136.573 43.4458 136.492 43.5204 136.4 43.5818C136.309 43.6432 136.209 43.6906 136.103 43.7226C135.996 43.7545 135.885 43.7716 135.773 43.7716Z" fill="#652815"/>
<path d="M95.289 44.7895C95.2001 44.7895 95.1117 44.7795 95.0256 44.759C94.9394 44.7385 94.8559 44.7084 94.7764 44.6683C94.6969 44.6282 94.6219 44.5789 94.5531 44.52C94.4844 44.4611 94.4218 44.3931 94.3678 44.3159C93.9315 43.6944 93.3752 43.1409 92.7349 42.669C92.0941 42.1971 91.3694 41.8064 90.5955 41.5107C89.8217 41.215 88.9997 41.0144 88.1642 40.9223C87.3288 40.8303 86.4804 40.8469 85.6543 40.9856C85.502 41.0109 85.352 41.0052 85.2109 40.9729C85.0698 40.9406 84.9371 40.8818 84.8206 40.8015C84.704 40.7208 84.6031 40.6188 84.525 40.4997C84.4468 40.3807 84.391 40.2446 84.3647 40.0959C84.3383 39.9476 84.3442 39.801 84.3772 39.6632C84.4103 39.5254 84.4705 39.3959 84.5527 39.282C84.6353 39.1682 84.7398 39.0697 84.8617 38.9929C84.9836 38.9161 85.1234 38.8621 85.2752 38.8363C86.3218 38.6606 87.3881 38.6379 88.4339 38.7526C89.4797 38.8673 90.5045 39.1198 91.469 39.4944C92.4335 39.8691 93.3373 40.3654 94.1406 40.9686C94.9439 41.5717 95.6467 42.2813 96.2089 43.0825C96.2959 43.2068 96.3536 43.342 96.3826 43.4811C96.4116 43.6198 96.412 43.762 96.3861 43.8989C96.3598 44.0363 96.3071 44.1685 96.229 44.2875C96.1508 44.4066 96.0472 44.513 95.9204 44.5981C95.8722 44.6303 95.8222 44.6587 95.7708 44.6827C95.7195 44.7066 95.6672 44.7263 95.6141 44.7424C95.5609 44.7581 95.5069 44.7699 95.4529 44.7777C95.398 44.7856 95.3435 44.7895 95.289 44.7895Z" fill="#652815"/>
<path d="M54.2053 34.8646C54.1049 34.8646 54.0054 34.8513 53.9098 34.8252C53.8143 34.7995 53.7223 34.7609 53.6364 34.7108C53.551 34.6607 53.4717 34.5991 53.4017 34.5267C53.3317 34.4543 53.2714 34.3712 53.2225 34.2783C52.7224 33.3207 52.4516 32.2813 52.3869 31.2291C52.3221 30.1773 52.4643 29.1127 52.7906 28.1046C53.1169 27.0965 53.6276 26.1445 54.2999 25.3184C54.9723 24.4923 55.8066 23.7912 56.7806 23.285C56.9144 23.2152 57.0566 23.1754 57.1993 23.1625C57.3415 23.1501 57.4842 23.1647 57.6189 23.2045C57.7536 23.2443 57.8809 23.309 57.9918 23.3964C58.1032 23.4837 58.1988 23.5938 58.2701 23.7244C58.3419 23.8546 58.3828 23.9934 58.3956 24.1317C58.4083 24.27 58.3934 24.4088 58.3524 24.5398C58.3115 24.6709 58.245 24.7946 58.1552 24.9025C58.0654 25.0109 57.9522 25.1034 57.8179 25.1732C57.1099 25.5415 56.5001 26.0597 56.007 26.6738C55.5138 27.2879 55.1369 27.998 54.8939 28.7487C54.6508 29.4994 54.5421 30.2913 54.5844 31.0694C54.6271 31.8475 54.8212 32.6124 55.1849 33.3087C55.2536 33.4406 55.2919 33.5798 55.3016 33.7181C55.3117 33.8569 55.2933 33.9952 55.2497 34.1254C55.2061 34.2556 55.1365 34.3776 55.0445 34.4839C54.9525 34.5901 54.8371 34.6809 54.7015 34.7477C54.6614 34.7674 54.6209 34.7845 54.58 34.799C54.539 34.8136 54.4976 34.8256 54.4558 34.8354C54.414 34.8449 54.3721 34.8522 54.3299 34.8569C54.2894 34.862 54.2471 34.8646 54.2053 34.8646Z" fill="#652815"/>
<path d="M76.7002 32.0652C76.6695 32.0652 76.6389 32.0639 76.6082 32.0613C76.5775 32.0588 76.5468 32.055 76.5156 32.0498C76.485 32.0447 76.4543 32.0383 76.4236 32.0302C76.3929 32.0225 76.3622 32.0132 76.332 32.0025C75.681 31.7764 75.1177 31.5209 74.6206 31.244C74.1234 30.9668 73.6925 30.6682 73.3067 30.3564C72.921 30.0445 72.5803 29.7191 72.2634 29.3885C71.9464 29.0579 71.6532 28.7217 71.3625 28.3886C71.1973 28.1996 71.0311 28.0089 70.8588 27.817C70.6865 27.625 70.5085 27.4322 70.32 27.2386C70.1315 27.0449 69.9329 26.8508 69.7195 26.6563C69.506 26.4618 69.2776 26.2673 69.0303 26.0727C68.9124 25.9802 68.8195 25.8688 68.7524 25.7468C68.6853 25.6248 68.6437 25.4918 68.6288 25.3561C68.6139 25.2205 68.6257 25.0818 68.6647 24.9487C68.7037 24.8156 68.7708 24.6877 68.8655 24.5729C68.9606 24.4586 69.0751 24.3682 69.2004 24.3025C69.3258 24.2368 69.4626 24.1967 69.602 24.1822C69.7414 24.1677 69.8839 24.1792 70.0206 24.2172C70.1574 24.2551 70.2889 24.3204 70.4069 24.413C70.6944 24.6386 70.9588 24.8643 71.2051 25.0878C71.4511 25.3113 71.6786 25.5331 71.8916 25.7515C72.1047 25.9699 72.3037 26.1845 72.4922 26.3944C72.6812 26.6042 72.8596 26.809 73.0327 27.0074C73.3102 27.3252 73.5728 27.6259 73.8429 27.91C74.1129 28.1941 74.3908 28.4607 74.6977 28.7102C75.0046 28.9598 75.3413 29.1914 75.7288 29.4055C76.1168 29.6197 76.5555 29.8159 77.068 29.9938C77.2105 30.0432 77.3359 30.1183 77.4411 30.2122C77.5459 30.306 77.63 30.4182 77.6901 30.5415C77.7502 30.6648 77.7861 30.7991 77.7944 30.9378C77.8027 31.076 77.783 31.2185 77.7322 31.3571C77.6923 31.4663 77.6357 31.5648 77.5664 31.6518C77.4976 31.7389 77.4157 31.8135 77.3249 31.8749C77.2342 31.9364 77.1342 31.9837 77.0286 32.0161C76.9234 32.0481 76.8129 32.0652 76.7002 32.0652Z" fill="#652815"/>
<path d="M88.3957 23.6673C88.2939 23.6673 88.1926 23.6537 88.0958 23.6273C87.9989 23.601 87.9055 23.5614 87.8192 23.5104C87.7329 23.4594 87.6532 23.3965 87.5832 23.3229C87.5132 23.2494 87.4529 23.1648 87.4053 23.0704C87.1129 22.4914 86.9724 21.8613 86.9702 21.2151C86.968 20.569 87.1041 19.9075 87.3634 19.2651C87.6228 18.6232 88.0063 18.0003 88.4986 17.4332C88.9914 16.8657 89.5934 16.3534 90.2904 15.9321C91.1302 15.4237 92.1007 15.0491 93.165 14.8727C94.2293 14.6963 95.3874 14.7184 96.6031 15.0041C97.8189 15.2897 99.092 15.8382 100.386 16.7152C101.68 17.5922 102.996 18.7975 104.296 20.3959C104.39 20.5111 104.455 20.6395 104.493 20.773C104.53 20.9061 104.54 21.0442 104.523 21.1794C104.506 21.3146 104.463 21.4464 104.394 21.5671C104.325 21.6879 104.229 21.7976 104.11 21.8885C103.99 21.9791 103.857 22.042 103.72 22.0781C103.582 22.1143 103.439 22.1236 103.299 22.1075C103.159 22.0913 103.022 22.0492 102.897 21.9825C102.772 21.9158 102.658 21.8243 102.565 21.7091C101.49 20.3883 100.418 19.3829 99.3747 18.6419C98.3315 17.9009 97.317 17.4243 96.3566 17.1616C95.3962 16.8988 94.4909 16.8487 93.6661 16.9613C92.8413 17.0736 92.0967 17.3482 91.4591 17.7342C91.0051 18.0088 90.6062 18.3383 90.2741 18.6992C89.9421 19.0598 89.6761 19.4513 89.4886 19.8501C89.3005 20.2488 89.1905 20.6548 89.1693 21.0442C89.1482 21.4337 89.216 21.8065 89.3842 22.1389C89.4507 22.2707 89.4868 22.4097 89.4943 22.5475C89.5018 22.6852 89.4815 22.8225 89.4357 22.9509C89.3899 23.0793 89.3186 23.1996 89.2248 23.3038C89.1306 23.4079 89.0143 23.4959 88.8774 23.5601C88.8386 23.5784 88.799 23.5941 88.7593 23.6078C88.7197 23.6214 88.6792 23.6324 88.6392 23.6413C88.5986 23.6503 88.5581 23.6571 88.5176 23.6613C88.4767 23.6651 88.4362 23.6673 88.3957 23.6673Z" fill="#652815"/>
<path d="M43.3492 138.949C43.1987 138.949 43.0551 138.919 42.9247 138.865C42.7943 138.811 42.6769 138.733 42.5779 138.636C42.4793 138.539 42.3995 138.423 42.3441 138.295C42.2891 138.168 42.2586 138.027 42.2586 137.879C42.2586 137.732 42.2891 137.591 42.3441 137.463C42.3995 137.335 42.4793 137.22 42.5779 137.123C42.6765 137.026 42.7943 136.948 42.9247 136.894C43.0551 136.839 43.1987 136.81 43.3492 136.81C44.0035 136.81 44.63 136.74 45.2281 136.603C45.8261 136.465 46.3954 136.258 46.9355 135.984C47.4756 135.709 47.986 135.366 48.4663 134.955C48.9466 134.545 49.3959 134.066 49.8147 133.521C50.469 132.667 50.9995 131.703 51.4135 130.69C51.8271 129.676 52.1241 128.613 52.3113 127.562C52.4984 126.511 52.5761 125.472 52.5503 124.505C52.525 123.539 52.3968 122.644 52.173 121.885C52.0879 121.596 51.9784 121.336 51.8467 121.108C51.7154 120.879 51.5618 120.682 51.3899 120.518C51.2176 120.355 51.027 120.226 50.8198 120.133C50.613 120.041 50.3901 119.986 50.1545 119.97C49.7523 119.942 49.2925 120.027 48.793 120.25C48.2935 120.473 47.7543 120.832 47.1933 121.354C46.6328 121.876 46.0499 122.561 45.4641 123.432C44.8778 124.303 44.288 125.36 43.7126 126.629C43.6515 126.765 43.5651 126.881 43.4617 126.976C43.3583 127.071 43.2375 127.144 43.1071 127.193C42.9766 127.242 42.8371 127.267 42.6953 127.264C42.5539 127.262 42.4104 127.232 42.273 127.172C42.1356 127.112 42.0165 127.028 41.9201 126.926C41.8232 126.825 41.7482 126.706 41.698 126.579C41.6479 126.451 41.6226 126.314 41.6252 126.175C41.6278 126.036 41.6583 125.895 41.7194 125.76C42.5635 123.899 43.4316 122.467 44.281 121.367C45.1308 120.267 45.9623 119.499 46.7335 118.968C47.5048 118.436 48.2159 118.14 48.8249 117.984C49.4338 117.828 49.9407 117.811 50.3033 117.837C50.767 117.868 51.2093 117.974 51.6216 118.147C52.0338 118.32 52.416 118.56 52.7589 118.858C53.1017 119.157 53.4049 119.514 53.6593 119.922C53.9136 120.331 54.1195 120.79 54.2674 121.291C54.5252 122.165 54.6809 123.19 54.7202 124.301C54.7599 125.412 54.6831 126.608 54.4763 127.823C54.2696 129.038 53.9323 130.272 53.4503 131.458C52.9687 132.644 52.3422 133.782 51.557 134.806C51.0375 135.484 50.4704 136.082 49.8605 136.597C49.2506 137.113 48.598 137.546 47.9079 137.894C47.2173 138.243 46.4888 138.506 45.7276 138.683C44.9672 138.86 44.1724 138.949 43.3492 138.949Z" fill="#652815"/>
<path d="M44.5329 124.189C44.4893 124.189 44.4452 124.186 44.4016 124.181C44.3579 124.176 44.3142 124.168 44.2706 124.158C44.2274 124.148 44.1842 124.135 44.1419 124.119C44.0995 124.103 44.0572 124.085 44.0162 124.063C43.8817 123.994 43.7684 123.901 43.678 123.794C43.5876 123.686 43.5206 123.563 43.4796 123.432C43.4386 123.301 43.4227 123.162 43.4355 123.024C43.4483 122.886 43.4893 122.747 43.5607 122.617C44.1458 121.549 44.5409 120.386 44.7507 119.166C44.9606 117.947 44.9853 116.673 44.8301 115.384C44.6749 114.095 44.3389 112.792 43.8284 111.516C43.3173 110.24 42.6317 108.991 41.7755 107.81C40.8491 106.532 39.7816 105.416 38.6044 104.474C37.4272 103.532 36.1392 102.765 34.772 102.185C33.4043 101.605 31.9568 101.213 30.4594 101.02C28.9621 100.827 27.4153 100.835 25.8492 101.055C25.698 101.077 25.5494 101.068 25.4109 101.033C25.2725 100.998 25.1433 100.937 25.0304 100.855C24.9175 100.773 24.821 100.67 24.7469 100.55C24.6728 100.431 24.6217 100.296 24.6001 100.15C24.5781 100.003 24.5877 99.86 24.6239 99.7252C24.66 99.5909 24.7227 99.4655 24.8073 99.356C24.8915 99.2464 24.9978 99.1523 25.1199 99.0804C25.2425 99.0085 25.3814 98.9585 25.5322 98.9375C27.3077 98.6872 29.0617 98.6778 30.7588 98.8951C32.4558 99.1125 34.0965 99.5566 35.6463 100.213C37.1961 100.869 38.6547 101.737 39.9885 102.803C41.3218 103.869 42.5299 105.132 43.5784 106.579C44.5532 107.923 45.3314 109.35 45.9081 110.811C46.4849 112.272 46.8596 113.768 47.0276 115.252C47.1956 116.735 47.1564 118.205 46.9046 119.616C46.6529 121.027 46.189 122.378 45.5074 123.621C45.458 123.711 45.3967 123.792 45.327 123.863C45.2574 123.933 45.1789 123.992 45.0938 124.041C45.0091 124.089 44.9183 124.126 44.8239 124.151C44.7296 124.176 44.6317 124.189 44.5329 124.189Z" fill="#652815"/>
<path d="M2.14569 117.681C2.56272 117.46 3.07827 117.587 3.341 117.959L3.3908 118.037L4.96307 120.836C5.20561 121.268 5.0415 121.808 4.59686 122.044C4.15223 122.279 3.59546 122.121 3.35272 121.689L1.77948 118.889L1.73846 118.808C1.5581 118.392 1.72871 117.902 2.14569 117.681ZM8.17303 86.0266C8.38424 85.5796 8.92839 85.3836 9.38885 85.5885C9.8493 85.7935 10.0511 86.3218 9.84002 86.769C8.87591 88.8114 6.80322 93.4803 6.09198 96.045C5.38555 98.5926 5.1173 102.059 5.0744 103.475L5.06658 103.744L4.90545 103.964C4.42988 104.615 3.70369 105.635 3.07244 106.577C2.75636 107.049 2.46868 107.494 2.25018 107.859C2.17391 107.987 2.10853 108.102 2.05389 108.201C2.31428 108.344 2.67027 108.495 3.09979 108.677C3.52391 108.856 4.06162 109.084 4.44158 109.35C4.62541 109.478 4.89031 109.694 5.03826 110.016C5.22516 110.424 5.16457 110.865 4.90448 111.219C4.58192 111.657 4.09393 112.124 3.6574 112.505C3.41368 112.718 3.16916 112.917 2.95233 113.088L3.47967 115.339L3.4953 115.428C3.55228 115.877 3.2516 116.303 2.78826 116.405C2.32522 116.507 1.86444 116.25 1.716 115.822L1.69061 115.734L0.903498 112.372L1.37908 112.025C1.62114 111.848 2.02598 111.535 2.42987 111.182C2.6532 110.986 2.86084 110.791 3.03729 110.61C2.85841 110.522 2.63404 110.423 2.36541 110.309C1.94466 110.131 1.40809 109.911 1.00604 109.671C0.806901 109.553 0.563655 109.385 0.379084 109.158C0.178552 108.911 -0.00902063 108.513 0.130061 108.039L0.1701 107.921C0.275599 107.636 0.471418 107.288 0.664241 106.965C0.904921 106.563 1.21061 106.09 1.53436 105.606C2.11581 104.738 2.7728 103.813 3.25213 103.152C3.31945 101.545 3.60242 98.1718 4.32049 95.5823C5.07716 92.8535 7.21508 88.0559 8.17303 86.0266ZM10.4699 84.1994C10.1282 84.5623 9.54803 84.5879 9.17401 84.2563C8.80004 83.9246 8.77391 83.3613 9.11541 82.9981L10.4699 84.1994ZM14.1506 75.6915C14.5229 75.3578 15.1038 75.3802 15.4474 75.7417C15.7908 76.1032 15.7669 76.6664 15.3947 76.9999L12.2316 79.835C12.542 79.7257 12.9025 79.7831 13.1633 80.0142C13.5373 80.3458 13.5642 80.9091 13.2228 81.2724L10.4699 84.1994L9.79315 83.5983L9.11541 82.9981L11.7316 80.2142C11.3835 80.3617 10.9638 80.2899 10.6916 80.0038C10.3479 79.6423 10.3711 79.0782 10.7433 78.7446L14.1506 75.6915Z" fill="#652815"/>
<path d="M114.118 82.0076C113.725 81.8332 113.26 82 113.08 82.3802C112.873 82.8177 112.491 83.3832 112.052 83.7121C111.84 83.8711 111.655 83.9441 111.503 83.9593C111.369 83.9726 111.194 83.9491 110.962 83.7886C109.647 82.8819 109.042 81.5727 108.919 81.1033L108.901 81.0452C108.801 80.761 108.535 80.5586 108.221 80.5347C107.908 80.5108 107.612 80.6705 107.467 80.9361L107.44 80.9905C107.16 81.6206 106.659 82.5033 106.082 83.1216C105.792 83.4323 105.526 83.6287 105.307 83.7189C105.116 83.7975 104.985 83.7894 104.853 83.7234C104.352 83.4727 103.949 82.9269 103.661 82.214C103.379 81.5167 103.256 80.7791 103.231 80.3323C103.207 79.9146 102.838 79.5943 102.406 79.6169C101.974 79.6396 101.643 79.9966 101.667 80.4143C101.7 80.9964 101.851 81.896 102.202 82.7657C102.548 83.6198 103.138 84.5712 104.134 85.0693C104.75 85.3776 105.377 85.3367 105.92 85.1137C106.435 84.9022 106.88 84.5278 107.245 84.1367C107.566 83.7921 107.859 83.3974 108.114 83.0023C108.545 83.6774 109.176 84.4178 110.053 85.022C110.566 85.376 111.116 85.521 111.664 85.4664C112.194 85.4136 112.649 85.1822 113.012 84.9102C113.724 84.3768 114.238 83.5729 114.504 83.0119C114.684 82.6316 114.511 82.182 114.118 82.0076Z" fill="#652815"/>
<path d="M114.322 91.6936C114.115 91.6016 113.87 91.6896 113.774 91.8902C113.665 92.1212 113.464 92.4196 113.232 92.5932C113.12 92.6771 113.023 92.7156 112.942 92.7236C112.872 92.7306 112.779 92.7182 112.657 92.6335C111.963 92.155 111.644 91.4641 111.578 91.2164L111.569 91.1857C111.516 91.0357 111.376 90.9289 111.21 90.9163C111.045 90.9037 110.889 90.988 110.812 91.1281L110.798 91.1568C110.65 91.4893 110.386 91.9552 110.081 92.2815C109.928 92.4455 109.788 92.5491 109.672 92.5967C109.571 92.6382 109.502 92.634 109.433 92.5991C109.168 92.4668 108.956 92.1788 108.804 91.8025C108.655 91.4346 108.59 91.0453 108.577 90.8095C108.564 90.589 108.369 90.42 108.141 90.4319C107.913 90.4439 107.739 90.6323 107.751 90.8527C107.769 91.1599 107.848 91.6347 108.034 92.0937C108.216 92.5445 108.528 93.0465 109.053 93.3094C109.378 93.4721 109.709 93.4506 109.996 93.3328C110.267 93.2212 110.502 93.0237 110.695 92.8173C110.865 92.6354 111.019 92.4271 111.154 92.2186C111.381 92.5748 111.714 92.9656 112.177 93.2845C112.448 93.4713 112.738 93.5478 113.027 93.519C113.307 93.4911 113.547 93.369 113.738 93.2254C114.114 92.9439 114.386 92.5197 114.526 92.2236C114.621 92.0229 114.53 91.7856 114.322 91.6936Z" fill="#652815"/>
<path d="M53.1593 78.0323C52.9666 77.8533 52.8997 77.5779 52.994 77.3317C53.0946 77.069 53.3562 76.898 53.6436 76.9072C54.2215 76.9257 55.1441 76.977 56.0455 77.0708C56.9173 77.1616 57.8663 77.3011 58.4352 77.5247C58.7799 77.6602 59.1131 77.9072 59.4054 78.1659C59.707 78.4329 60.0086 78.7522 60.2893 79.0773C60.7807 79.6463 61.2335 80.2633 61.5417 80.7187L61.6645 80.9033C61.8101 81.126 61.8036 81.412 61.6483 81.6284C61.4929 81.8447 61.2194 81.9487 60.9549 81.8916C60.1931 81.727 58.3311 81.2415 57.0279 80.6073C55.7277 79.9746 53.9253 78.6411 53.1995 78.067L53.1593 78.0323ZM55.8384 78.363C56.4509 78.7784 57.0959 79.1811 57.6262 79.4392C58.161 79.6994 58.8201 79.9372 59.446 80.1334C59.3863 80.0612 59.3259 79.9894 59.2648 79.9186C59.0068 79.6198 58.7474 79.3473 58.505 79.1327C58.2532 78.9097 58.0592 78.785 57.934 78.7358C57.563 78.59 56.7951 78.462 55.9026 78.3691C55.8813 78.3668 55.8598 78.3652 55.8384 78.363Z" fill="#662425"/>
<path d="M62.397 123.699V125.226H65.9354V123.444M62.397 123.699C62.528 123.699 62.9474 123.724 63.5764 123.826C64.2055 123.928 65.4112 123.614 65.9354 123.444M62.397 123.699C62.4843 123.487 62.895 123.063 63.8386 123.063C64.7821 123.063 65.6296 123.317 65.9354 123.444" stroke="#0940A1" stroke-width="0.249262" stroke-linecap="round"/>
<path d="M66.7222 122.299V123.826H70.2606V122.045M66.7222 122.299C66.8532 122.299 67.2726 122.325 67.9016 122.426C68.5307 122.528 69.7364 122.214 70.2606 122.045M66.7222 122.299C66.8095 122.087 67.2202 121.663 68.1637 121.663C69.1073 121.663 69.9548 121.917 70.2606 122.045" stroke="#0940A1" stroke-width="0.249262" stroke-linecap="round"/>
<path d="M68.4253 127.389L66.4595 126.498L74.9779 122.299L77.2058 123.063L68.4253 127.389Z" fill="#0940A1"/>
<path d="M55.7136 137.187C53.9313 134.947 54.4467 128.534 54.9273 125.608C80.0893 135.363 130.649 154.899 131.593 155.001C132.772 155.128 133.035 154.237 136.573 151.947C139.404 150.114 167.108 119.373 180.607 104.231C180.738 104.655 181 105.987 181 107.921C181 109.855 180.476 111.441 180.213 111.993L138.801 161.744C137.709 163.102 134.948 165.943 132.641 166.452C130.335 166.961 127.05 165.816 125.696 165.18L72.2262 144.567C67.4646 143.04 57.4959 139.426 55.7136 137.187Z" fill="#6495FE" stroke="#0940A1" stroke-width="0.747787" stroke-linecap="round" stroke-linejoin="round"/>
<path d="M131.985 155.001V166.179M143.387 145.457V155.745M152.298 135.66V145.457M158.458 128.661V137.95M164.355 122.172V130.551M170.384 115.301V123.444M174.446 110.847V118.463M178.247 106.776V113.755" stroke="#0940A1" stroke-width="0.872418" stroke-linecap="round"/>
<path d="M152.692 118.168L150.989 119.754L154.003 129.425L157.279 125.879M152.692 118.168L157.279 125.879M152.692 118.168L154.789 116.216M157.279 125.879L160.941 121.917M154.789 116.216L160.941 121.917M154.789 116.216L156.624 114.508M160.941 121.917L163.88 118.736M156.624 114.508L163.88 118.736M156.624 114.508L158.197 113.043M163.88 118.736L166.702 115.682M158.197 113.043L166.702 115.682M158.197 113.043L159.376 111.945M166.702 115.682L168.937 113.265M159.376 111.945L160.556 110.847H171.171L168.937 113.265M159.376 111.945L168.937 113.265" stroke="#0940A1" stroke-width="0.249262" stroke-linecap="round"/>
<path d="M135.459 102.049L131.92 103.703L139.128 106.121L142.274 104.212L135.459 102.049Z" fill="#5EE7F6"/>
<path d="M138.977 106.375L134.542 108.793L142.405 112.101L146.991 109.174L138.977 106.375Z" fill="#5EE7F6"/>
<path d="M147.909 109.302L143.061 112.355L150.531 115.028L154.855 111.846L147.909 109.302Z" fill="#5EE7F6"/>
<path d="M88.7389 134.005C83.4968 129.425 83.4968 124.377 84.1521 122.426L147.319 131.588C147.232 132.139 147.031 133.369 146.926 133.878C146.795 134.514 146.271 137.568 142.733 139.986C139.194 142.403 131.659 144.821 122.419 144.821C110.599 144.821 95.2916 139.731 88.7389 134.005Z" fill="#3264CD" stroke="#0940A1" stroke-width="0.249262" stroke-linecap="round"/>
<path d="M90.9665 134.387C82.3694 128.585 83.5401 122.214 85.2001 119.754C88.7386 113.901 102.342 107.921 121.109 111.992C144.567 117.082 147.843 127.262 147.45 131.588C147.057 135.914 141.422 139.859 131.331 142.276C119.813 145.036 101.713 141.64 90.9665 134.387Z" fill="#6495FE" stroke="#0940A1" stroke-width="0.249262" stroke-linecap="round"/>
<path d="M113.376 138.714C92.5124 135.965 89.3059 126.456 90.3107 122.045C90.3107 121.578 90.5204 120.492 91.3591 119.882C92.4075 119.118 101.319 110.847 119.797 113.901C138.276 116.955 141.421 126.498 141.421 128.28C141.421 130.061 139.455 142.149 113.376 138.714Z" fill="#B4CDFD" stroke="#0940A1" stroke-width="0.249262" stroke-linecap="round"/>
<path d="M114.949 129.679C121.869 130.901 123.948 128.152 124.123 126.625C124.297 125.099 122.55 123.826 118.881 122.299C114.294 120.391 108.003 121.918 106.693 123.699C105.382 125.48 106.3 128.152 114.949 129.679Z" fill="#3264CD" stroke="#0940A1" stroke-width="0.249262" stroke-linecap="round"/>
<path d="M143.256 100.032L143.387 98.6319L177.33 101.94V104.358C176.937 105.8 173.122 109.052 161.211 107.921C149.154 106.775 144.261 102.407 143.256 100.032Z" fill="#3264CD" stroke="#0940A1" stroke-width="0.249262" stroke-linecap="round"/>
<path d="M146.27 101.813C143.649 99.9808 143.153 98.6115 143.387 97.3596C143.911 94.5602 151.041 91.8627 162.259 93.7968C176.281 96.2144 177.461 101.05 177.461 101.813C177.461 102.577 176.543 105.63 167.37 106.394C158.196 107.157 149.547 104.103 146.27 101.813Z" fill="#6495FE" stroke="#0940A1" stroke-width="0.249262" stroke-linecap="round"/>
<path d="M146.664 97.7412C147.635 93.5649 156.493 94.1784 161.735 94.6874C166.977 95.1963 173.451 98.4029 173.66 101.05C173.923 104.358 166.453 104.867 162.39 104.74C157.017 104.571 145.746 101.686 146.664 97.7412Z" fill="#B4CDFD" stroke="#0940A1" stroke-width="0.249262" stroke-linecap="round"/>
<path d="M112.132 111.719C111.608 110.6 101.779 94.3718 96.9299 86.3979L66.6568 83.9803C66.0452 87.2038 65.4773 94.3124 68.0983 96.9591C71.3746 100.267 88.4115 120.372 95.8815 123.426C103.351 126.479 107.021 124.953 114.229 124.571C121.437 124.189 124.582 121.771 122.485 118.209C120.388 114.646 112.787 113.119 112.132 111.719Z" fill="#CD966D"/>
<path d="M155.592 98.3158C155.912 96.9915 158.829 97.186 160.556 97.3474C162.283 97.5088 164.415 98.5256 164.484 99.3649C164.57 100.414 162.11 100.575 160.772 100.535C159.002 100.482 155.29 99.5666 155.592 98.3158Z" fill="#3264CD" stroke="#0940A1" stroke-width="0.249262" stroke-linecap="round"/>
<path d="M111.477 111.338C106.235 108.385 92.6053 113.416 86.4458 116.3C87.8874 117.997 91.7927 121.822 95.8816 123.553C100.993 125.716 106.235 125.207 112.263 124.953C118.292 124.698 123.272 122.789 123.141 119.736C123.009 116.682 118.029 115.028 111.477 111.338Z" fill="#B07066"/>
<path d="M61.9619 57.2593C61.6815 57.2593 61.4008 57.2515 61.1195 57.2355C60.8383 57.22 60.5566 57.1963 60.2754 57.1648C59.9937 57.1333 59.7125 57.0936 59.4312 57.0462C59.15 56.9988 58.8692 56.9431 58.5889 56.8797C56.7156 56.4557 55.0415 55.7061 53.6123 54.7029C52.183 53.6997 50.9987 52.4433 50.1044 51.0066C49.2101 49.5695 48.6055 47.9521 48.3367 46.2273C48.0679 44.5021 48.134 42.6695 48.5811 40.802C49.0495 38.8443 49.8648 37.0613 50.937 35.5137C52.0096 33.9662 53.3395 32.6538 54.837 31.6372C56.335 30.621 58.0007 29.9003 59.7448 29.5367C61.489 29.1727 63.3117 29.1658 65.1233 29.5755C66.9691 29.993 68.6587 30.8125 70.1265 31.9253C71.5948 33.0376 72.8413 34.4432 73.8003 36.033C74.7593 37.6228 75.4314 39.3968 75.7503 41.2462C76.0693 43.0956 76.0356 45.0201 75.5827 46.9114C75.3671 47.8124 75.0632 48.6763 74.6777 49.4936C74.2923 50.3109 73.8247 51.0826 73.2822 51.7994C72.7397 52.5162 72.1222 53.1778 71.4356 53.7765C70.7489 54.3751 69.9943 54.9099 69.1773 55.3732C68.6272 55.685 68.059 55.9585 67.4774 56.1939C66.8955 56.4294 66.2997 56.6261 65.6938 56.784C65.0878 56.9418 64.4713 57.0609 63.848 57.1402C63.2248 57.2196 62.5953 57.2593 61.9619 57.2593ZM50.7409 41.2898C50.3595 42.8839 50.2929 44.434 50.5072 45.8853C50.7214 47.3362 51.216 48.6884 51.9577 49.8861C52.6989 51.0838 53.6868 52.1272 54.8871 52.9613C56.0875 53.7955 57.5003 54.42 59.091 54.7797C59.8664 54.9548 60.6467 55.0583 61.4234 55.0907C62.2001 55.1234 62.9728 55.0851 63.7327 54.9772C64.4925 54.8698 65.2391 54.6926 65.9635 54.4476C66.6879 54.2022 67.3901 53.889 68.0612 53.5086C68.7448 53.1213 69.3769 52.6732 69.9513 52.172C70.5258 51.6708 71.043 51.1166 71.4972 50.5167C71.9515 49.9163 72.3427 49.2702 72.6656 48.5853C72.9886 47.9004 73.2432 47.1766 73.4237 46.4219C73.8092 44.8105 73.8416 43.1711 73.5754 41.5964C73.3093 40.0217 72.745 38.5122 71.9377 37.1596C71.1304 35.8074 70.0804 34.6123 68.8423 33.6673C67.6047 32.7223 66.1791 32.0271 64.6212 31.6747C63.1068 31.3322 61.5817 31.3452 60.1215 31.6609C58.6612 31.977 57.2652 32.596 56.0085 33.4663C54.7519 34.3367 53.6349 35.4585 52.7322 36.7796C51.829 38.1016 51.1406 39.6219 50.7409 41.2898Z" fill="#0940A1"/>
<path d="M131.818 103.722L135.525 102.195C137.459 102.78 139.974 103.542 142.602 104.341M131.818 103.722L155.402 111.865M131.818 103.722L126.482 105.919M155.402 111.865C156.042 111.354 156.637 110.878 157.149 110.466C157.629 110.084 158.302 109.219 157.149 108.811C156.694 108.651 154.285 107.906 151.12 106.937M155.402 111.865C153.995 112.987 152.365 114.278 150.887 115.428M150.887 115.428C148.672 117.151 146.799 118.557 146.533 118.609C146.009 118.711 145.092 118.312 144.699 118.1C142.677 117.368 140.086 116.425 137.372 115.428M150.887 115.428L126.482 105.919M126.482 105.919L122.551 107.539C121.852 107.878 120.664 108.71 121.502 109.32C121.838 109.565 124.445 110.595 127.924 111.913M127.924 111.913L142.602 104.341M127.924 111.913C130.748 112.983 134.147 114.243 137.372 115.428M142.602 104.341C145.512 105.225 148.563 106.154 151.12 106.937M151.12 106.937L137.372 115.428" stroke="#0940A1" stroke-width="0.249262" stroke-linecap="round" stroke-linejoin="round"/>
<path d="M62.6085 83.1829C62.7003 82.6992 63.1787 82.3791 63.6768 82.468C64.1751 82.5571 64.5049 83.0216 64.4132 83.5053C64.2878 84.1661 64.3175 85.1391 64.5079 86.3214C64.6957 87.4873 65.0295 88.794 65.4649 90.0922C66.3491 92.7283 67.5963 95.1676 68.7589 96.3417C69.5965 97.1874 71.2993 99.0909 73.4591 101.472C75.6321 103.868 78.2952 106.779 81.087 109.68C83.8806 112.582 86.7929 115.465 89.464 117.806C92.1615 120.171 94.527 121.906 96.2374 122.605C103.451 125.554 106.776 124.073 114.179 123.681C117.737 123.493 120.082 122.804 121.275 121.885C121.845 121.446 122.114 120.987 122.186 120.521C122.259 120.042 122.145 119.425 121.689 118.65C121.263 117.928 120.524 117.257 119.562 116.627C118.606 116.002 117.492 115.457 116.384 114.962C115.32 114.487 114.167 114.02 113.329 113.624C112.897 113.42 112.491 113.209 112.16 112.989C111.857 112.787 111.487 112.495 111.296 112.088C111.189 111.859 110.51 110.689 109.422 108.857C108.353 107.056 106.924 104.675 105.36 102.079C102.232 96.8868 98.5638 90.8368 96.1397 86.8504L97.7198 85.9449C100.145 89.9325 103.815 95.9843 106.944 101.179C108.509 103.776 109.939 106.161 111.012 107.967C112.065 109.741 112.812 111.019 112.967 111.35C112.94 111.293 112.951 111.356 113.197 111.519C113.416 111.664 113.727 111.83 114.132 112.022C114.969 112.417 115.971 112.817 117.15 113.343C118.286 113.851 119.507 114.443 120.587 115.15C121.66 115.852 122.658 116.708 123.281 117.767C123.874 118.773 124.152 119.795 124 120.784C123.846 121.785 123.271 122.622 122.416 123.28C120.759 124.556 117.928 125.267 114.278 125.46C107.266 125.831 103.251 127.405 95.5245 124.246C93.5 123.419 90.9343 121.495 88.2345 119.128C85.5078 116.738 82.5551 113.815 79.7462 110.896C76.9355 107.976 74.2584 105.048 72.0821 102.649C69.8927 100.235 68.2371 98.3845 67.4366 97.5762C65.9784 96.1036 64.6266 93.3476 63.7198 90.6441C63.2597 89.2723 62.8998 87.8719 62.6944 86.5963C62.4917 85.3374 62.4282 84.1336 62.6085 83.1829ZM96.463 85.6311C96.8993 85.381 97.4622 85.5213 97.7198 85.9449L96.1397 86.8504C95.8823 86.4269 96.0268 85.8812 96.463 85.6311Z" fill="#652815"/>
<path d="M119.206 97.2356C119.669 97.1329 120.13 97.3902 120.279 97.8178L120.305 97.9051L120.563 98.9367C120.725 99.5467 120.865 100.004 120.975 100.328L121.114 100.714L121.143 100.801C121.263 101.237 121.027 101.699 120.583 101.863C120.139 102.027 119.646 101.835 119.438 101.431L119.4 101.348L119.234 100.889C119.077 100.427 118.878 99.7642 118.653 98.8684L118.517 98.3033L118.5 98.2132C118.443 97.7652 118.743 97.3386 119.206 97.2356ZM116.865 93.2941C117.123 92.9069 117.639 92.7792 118.053 92.985L118.134 93.0305L120.362 94.43C120.788 94.6973 120.909 95.2488 120.634 95.6617C120.359 96.0746 119.791 96.1925 119.365 95.9253L117.138 94.5258L117.062 94.4727C116.699 94.1904 116.607 93.6814 116.865 93.2941ZM120.962 91.2991C121.286 91.677 121.233 92.2387 120.844 92.5536C120.455 92.8683 119.876 92.8176 119.552 92.4398L116.931 89.3857L118.341 88.2451L120.962 91.2991ZM117.049 88.1313C117.438 87.8166 118.017 87.8672 118.341 88.2451L116.931 89.3857C116.607 89.0078 116.66 88.4461 117.049 88.1313ZM120.281 86.7545L120.307 86.8427C120.407 87.2835 120.149 87.7354 119.698 87.88C119.247 88.0247 118.763 87.8106 118.573 87.3983L118.539 87.314L116.765 82.0962L117.636 81.8174L118.507 81.5377L120.281 86.7545ZM117.348 80.9716C117.829 80.8174 118.348 81.0707 118.507 81.5377L116.765 82.0962C116.606 81.6293 116.867 81.126 117.348 80.9716ZM124.985 68.8729C125.472 68.7378 125.98 69.0115 126.119 69.4845C126.258 69.9573 125.976 70.45 125.489 70.5853C124.904 70.7478 123.886 71.3078 122.89 72.1413C121.898 72.9712 121.068 73.9543 120.726 74.8692C120.363 75.8367 119.916 77.2235 119.539 78.9482C119.434 79.4293 118.947 79.7368 118.451 79.6347C117.956 79.5325 117.639 79.0596 117.744 78.5784C118.141 76.7645 118.614 75.2971 119.002 74.2595C119.498 72.9353 120.591 71.7127 121.693 70.7911C122.79 69.873 124.041 69.1347 124.985 68.8729Z" fill="#652815"/>
<path d="M4.71434 123.365C5.15367 123.19 5.65166 123.371 5.87059 123.769L5.91063 123.851L6.37352 124.933C6.88544 126.118 7.52861 127.568 8.15379 128.9C8.57091 129.789 8.97608 130.616 9.32566 131.273C9.69486 131.968 9.95273 132.373 10.0727 132.504C10.1167 132.552 10.2503 132.666 10.5288 132.834C10.7941 132.995 11.1478 133.18 11.5893 133.381C12.4718 133.784 13.665 134.236 15.1177 134.68C18.0216 135.568 21.9199 136.414 26.3716 136.79C35.3953 137.552 40.4025 137.414 43.6802 136.802L43.7729 136.79C44.2362 136.75 44.6646 137.056 44.7544 137.509C44.8501 137.992 44.5244 138.459 44.0268 138.552L43.3432 138.669C39.8227 139.223 34.7081 139.281 26.2134 138.564C21.6227 138.176 17.592 137.305 14.5659 136.379C13.0539 135.917 11.7817 135.438 10.8091 134.994C10.3231 134.772 9.90144 134.554 9.55809 134.346C9.22798 134.147 8.91884 133.926 8.70066 133.687C8.40144 133.36 8.0452 132.748 7.69578 132.091C7.32652 131.396 6.90752 130.539 6.48484 129.639C5.85035 128.287 5.19887 126.819 4.68113 125.621L4.21336 124.527L4.18211 124.441C4.05013 124.008 4.27482 123.54 4.71434 123.365ZM30.8081 58.6537C31.2088 58.4248 31.7312 58.5237 32.0122 58.8955C32.3118 59.2921 32.2234 59.8495 31.8149 60.1404L30.3188 61.1976C29.7099 61.6248 29.0505 62.0834 28.522 62.4426C28.0981 62.7307 27.8585 63.173 27.5171 63.8857C27.2058 64.5354 26.7986 65.4378 25.9477 66.0987C25.1914 66.6861 24.3585 66.9878 23.852 67.2337C23.3289 67.4877 22.8943 67.7714 22.4868 68.4142C21.9752 69.2214 21.5922 69.826 21.0434 70.3589C20.4902 70.896 19.8064 71.3276 18.7485 71.9054C17.382 72.6517 17.0124 73.8569 16.9858 74.2417L16.9751 74.3327C16.8974 74.7777 16.4831 75.102 16.0093 75.0713C15.5038 75.0385 15.1211 74.6139 15.1548 74.1231L15.1733 73.9468C15.3016 73.0138 15.9843 71.3703 17.8481 70.3522C18.8867 69.785 19.3826 69.4531 19.7466 69.0997C20.1151 68.7419 20.3876 68.328 20.9243 67.4812C21.5651 66.4701 22.3101 65.9902 23.0317 65.6398C23.7701 65.2814 24.2482 65.1381 24.8022 64.7078C25.2618 64.3508 25.51 63.8528 25.854 63.1347C26.1678 62.4797 26.5837 61.5859 27.4702 60.9833C28.5099 60.2767 30.0755 59.1699 30.73 58.7039L30.8081 58.6537ZM34.355 58.0933C34.1703 58.5511 33.6381 58.7767 33.1665 58.5977C32.6947 58.4185 32.4614 57.9019 32.646 57.4438L34.355 58.0933ZM48.0483 47.2386C48.4301 46.9807 48.9589 47.041 49.2681 47.3913C49.5975 47.7647 49.5529 48.3266 49.1684 48.6466L48.6675 49.0582C47.4188 50.0698 45.6425 51.4179 43.8442 52.6015C42.817 53.2775 41.7677 53.9096 40.7964 54.3954C39.8462 54.8707 38.889 55.2486 38.0659 55.3445C35.8999 55.5969 34.6761 57.2966 34.355 58.0933L32.646 57.4438C33.1112 56.2895 34.7711 53.9337 37.8472 53.5753C38.3344 53.5184 39.0533 53.2637 39.9565 52.812C40.8391 52.3705 41.8218 51.7807 42.8149 51.1271C44.8004 49.8203 46.7709 48.2959 47.9741 47.2945L48.0483 47.2386Z" fill="#652815"/>
<path d="M68.6979 33.0833C68.6885 33.0833 68.6792 33.0833 68.6694 33.0828C68.6601 33.0824 68.6503 33.0824 68.6409 33.082C68.6311 33.0815 68.6218 33.0811 68.612 33.0803C68.6022 33.0794 68.5928 33.0786 68.583 33.0777C68.4304 33.0628 68.288 33.0189 68.1611 32.9525C68.0343 32.8861 67.9235 32.7966 67.8335 32.691C67.7436 32.5854 67.6746 32.4631 67.6324 32.3311C67.5896 32.1991 67.5736 32.0564 67.5896 31.9103C67.6163 31.659 67.6515 31.3937 67.692 31.1194C67.7325 30.8447 67.7792 30.5602 67.8295 30.2706C67.8798 29.9805 67.9337 29.6854 67.9893 29.3881C68.0449 29.0912 68.1019 28.7927 68.1589 28.4967C68.2288 28.1321 68.3098 27.7079 68.3894 27.2662C68.4691 26.825 68.5474 26.3663 68.612 25.9331C68.6761 25.5 68.7259 25.0924 68.7486 24.7529C68.7713 24.4135 68.7673 24.1422 68.7228 23.9816C68.5915 23.8636 68.3552 23.7333 68.0276 23.603C67.7 23.4726 67.2807 23.3423 66.7831 23.2239C66.2855 23.1055 65.7096 22.9986 65.0687 22.9156C64.4278 22.8325 63.7214 22.7729 62.9635 22.749C62.339 22.7294 61.788 22.7375 61.3073 22.7639C60.8271 22.7903 60.4171 22.8355 60.0744 22.89C59.7317 22.9445 59.4566 23.0088 59.2457 23.0731C59.0347 23.1379 58.8878 23.2031 58.8024 23.2593C58.7899 23.4245 58.7872 23.6907 58.7913 24.0225C58.7957 24.3547 58.8068 24.7529 58.822 25.1835C58.8371 25.6141 58.8567 26.0766 58.8772 26.5371C58.8976 26.9975 58.9194 27.4557 58.9395 27.8774C58.9533 28.1632 58.9666 28.4515 58.98 28.7377C58.9933 29.0239 59.0062 29.308 59.0182 29.5853C59.0303 29.8625 59.0414 30.1334 59.0512 30.3932C59.061 30.6526 59.069 30.9013 59.0757 31.1339C59.0797 31.2808 59.0525 31.4218 58.9996 31.5504C58.9466 31.679 58.8687 31.7957 58.7703 31.8945C58.6724 31.9934 58.5549 32.0743 58.4232 32.1318C58.2919 32.1888 58.1463 32.2225 57.9928 32.2263C57.8406 32.2293 57.6941 32.2029 57.5597 32.1522C57.4253 32.1015 57.3034 32.0266 57.1996 31.9333C57.0959 31.8396 57.0109 31.7276 56.9504 31.6019C56.8903 31.4763 56.8547 31.3375 56.8507 31.1901C56.8445 30.9627 56.836 30.7186 56.8267 30.4631C56.8169 30.2075 56.8062 29.9401 56.7942 29.6658C56.7822 29.3915 56.7697 29.1104 56.7564 28.8267C56.743 28.5431 56.7296 28.2573 56.7163 27.9741C56.6722 27.0456 56.6375 26.2772 56.6126 25.6388C56.5876 25.0004 56.5721 24.4918 56.5672 24.0838C56.5623 23.6758 56.5676 23.3679 56.5837 23.1302C56.5997 22.8926 56.6268 22.7256 56.6651 22.5987C56.7621 22.2784 56.9406 22.0169 57.1623 21.8031C57.3839 21.5893 57.6492 21.4228 57.9193 21.2933C58.1895 21.1638 58.465 21.0701 58.7076 21.0024C58.9502 20.9347 59.1598 20.8921 59.2987 20.864C60.0847 20.7051 61.0741 20.6212 62.1409 20.614C63.2082 20.6067 64.3534 20.6761 65.4514 20.8235C66.5495 20.9713 67.6007 21.197 68.4802 21.5028C69.3593 21.8086 70.0665 22.1945 70.4764 22.6617C70.6843 22.8985 70.8214 23.1911 70.8993 23.5502C70.9776 23.9092 70.9967 24.3347 70.9696 24.8381C70.9424 25.3415 70.869 25.9225 70.7608 26.5924C70.6531 27.2624 70.5107 28.0209 70.3465 28.8791C70.2917 29.1649 70.2365 29.4532 70.1831 29.7395C70.1297 30.0252 70.0776 30.3093 70.0296 30.5862C69.9815 30.863 69.937 31.133 69.8987 31.3911C69.8604 31.6497 69.8275 31.8962 69.803 32.1267C69.7883 32.2638 69.7469 32.392 69.6846 32.5074C69.6223 32.6228 69.5386 32.7251 69.4394 32.8102C69.3401 32.8954 69.2249 32.9636 69.0994 33.0104C68.9747 33.0577 68.839 33.0833 68.6979 33.0833Z" fill="#0940A1"/>
<path d="M112.614 76.8547C112.529 76.8547 112.445 76.8453 112.362 76.8268C112.28 76.8084 112.199 76.7805 112.123 76.7435C112.046 76.7066 111.973 76.6611 111.906 76.6066C111.839 76.5521 111.778 76.4894 111.724 76.4178C111.633 76.2984 111.572 76.1671 111.539 76.0315C111.505 75.8958 111.5 75.7563 111.521 75.6203C111.542 75.4846 111.59 75.3529 111.663 75.2327C111.736 75.1129 111.835 75.0048 111.958 74.9172C112.832 74.2923 113.697 73.7441 114.553 73.2553C115.409 72.7659 116.256 72.3354 117.095 71.9449C117.935 71.5543 118.766 71.2032 119.59 70.8735C120.414 70.5439 121.231 70.2357 122.04 69.9297C122.971 69.5781 123.91 69.2236 124.864 68.8364C125.817 68.4493 126.785 68.0295 127.773 67.5475C128.762 67.0655 129.771 66.5216 130.807 65.886C131.844 65.2503 132.907 64.5227 134.004 63.6742C134.843 63.0256 135.649 61.853 136.389 60.3443C137.129 58.8351 137.803 56.9899 138.375 54.9957C138.948 53.0016 139.42 50.8581 139.756 48.7536C140.092 46.6491 140.292 44.5828 140.322 42.7432C140.337 41.7847 140.307 40.9443 140.242 40.2146C140.177 39.485 140.077 38.8656 139.956 38.3497C139.834 37.8333 139.69 37.4204 139.536 37.1023C139.381 36.7843 139.216 36.5615 139.053 36.4268C134.458 32.6367 129.332 29.6009 123.913 27.3461C118.494 25.0914 112.781 23.6179 107.014 22.9539C101.247 22.2895 95.4252 22.4341 89.7874 23.4149C84.1499 24.3957 78.6964 26.213 73.6662 28.8943C73.5327 28.9652 73.39 29.0068 73.2472 29.021C73.1045 29.0351 72.9609 29.0218 72.8252 28.9836C72.6895 28.9454 72.5613 28.8819 72.4486 28.7956C72.3359 28.7094 72.2392 28.5999 72.1658 28.4698C72.0924 28.3398 72.0496 28.2016 72.035 28.0629C72.0204 27.9243 72.0341 27.7852 72.0734 27.6535C72.1132 27.5217 72.1782 27.3972 72.2674 27.2878C72.3563 27.1783 72.469 27.0843 72.6024 27.0126C75.2466 25.6035 77.9959 24.4141 80.8292 23.4488C83.6625 22.4835 86.5802 21.7414 89.5611 21.2272C92.542 20.7125 95.587 20.4254 98.6744 20.3691C101.762 20.3129 104.892 20.4876 108.045 20.8967C111.028 21.2838 113.986 21.8826 116.885 22.6788C119.783 23.475 122.623 24.4686 125.37 25.6451C128.118 26.8221 130.772 28.1818 133.302 29.7112C135.832 31.24 138.237 32.938 140.483 34.791C140.839 35.085 141.15 35.4735 141.414 35.9555C141.678 36.4371 141.896 37.0122 142.067 37.6792C142.238 38.3462 142.362 39.1055 142.44 39.9554C142.517 40.8052 142.548 41.7465 142.531 42.7771C142.502 44.579 142.307 46.6852 141.963 48.8828C141.62 51.08 141.129 53.3681 140.508 55.5336C139.888 57.6994 139.138 59.7425 138.277 61.4504C137.417 63.1583 136.445 64.53 135.381 65.3533C134.218 66.2529 133.096 67.0221 132.005 67.693C130.914 68.3639 129.856 68.936 128.821 69.4421C127.787 69.9477 126.776 70.3868 125.782 70.7911C124.788 71.195 123.81 71.5646 122.841 71.9307C122.029 72.2371 121.229 72.5393 120.434 72.8569C119.639 73.1741 118.85 73.5068 118.059 73.8738C117.27 74.2408 116.479 74.6425 115.683 75.0979C114.886 75.5533 114.083 76.0628 113.268 76.6457C113.219 76.6809 113.168 76.7118 113.115 76.738C113.062 76.7642 113.008 76.786 112.953 76.8032C112.898 76.8204 112.841 76.8333 112.785 76.8418C112.728 76.8509 112.671 76.8547 112.614 76.8547Z" fill="#652815"/>
</svg>
