<svg width="180" height="167" viewBox="0 0 264 244" fill="none" xmlns="http://www.w3.org/2000/svg">
<path d="M176.551 27.8576C178.557 29.1824 180.446 30.6741 182.199 32.3065C183.952 33.9397 185.57 35.7143 187.031 37.6052C188.492 39.496 189.798 41.5029 190.928 43.6007C192.059 45.6985 193.013 47.8871 193.773 50.1404C195.195 49.8898 196.576 49.4449 197.879 48.836C199.182 48.2271 200.406 47.4541 201.517 46.5468C202.627 45.6394 203.624 44.5968 204.47 43.4494C205.316 42.3019 206.012 41.0489 206.522 39.7198C207.031 38.3915 207.35 36.9984 207.485 35.5876C207.62 34.1769 207.572 32.7479 207.347 31.3463C207.122 29.9448 206.722 28.57 206.152 27.2684C205.582 25.9667 204.843 24.7376 203.942 23.6268C203.441 23.008 202.828 22.5195 202.142 22.1485C201.456 21.7775 200.699 21.5255 199.908 21.3784C199.116 21.2313 198.291 21.1904 197.47 21.2418C196.65 21.2939 195.835 21.4389 195.063 21.6649C194.291 21.8909 193.546 22.1809 192.82 22.5125C192.093 22.844 191.384 23.2178 190.684 23.6106C189.984 24.0034 189.292 24.4166 188.598 24.8263C187.905 25.2367 187.211 25.6443 186.507 26.0273C185.802 26.4102 185.068 26.7714 184.303 27.0832C183.539 27.3951 182.744 27.6583 181.916 27.8463C181.089 28.0342 180.229 28.1462 179.335 28.1567C178.442 28.1694 177.514 28.0779 176.551 27.8576Z" fill="#B07066"/>
<path d="M71.7808 48.7331C70.0694 48.6178 68.3998 49.402 66.8389 48.7331C65.278 48.0641 62.4434 47.7341 61.166 46.6267C59.8886 45.5193 60.1676 42.4291 59.3073 40.9985C58.4462 39.5686 57.8277 38.0057 57.5167 36.3686C57.2056 34.7308 57.2106 33.0567 57.5039 31.4299C57.7966 29.8031 56.6749 27.2865 57.5168 25.8395C58.3588 24.3918 61.165 24.013 62.5011 22.9132C63.8372 21.8133 65.0631 22.3717 66.8389 21.7878C68.3765 22.8979 70.3295 22.4727 71.9964 23.39C73.6634 24.3074 75.3883 25.1259 77.1577 25.8395C78.9271 26.5537 80.7417 27.163 82.5875 27.6625C84.4332 28.162 86.3108 28.5517 88.2061 28.8268C86.4479 30.044 84.7789 31.3805 83.2053 32.8303C81.6317 34.2801 80.1529 35.8417 78.7758 37.5096C77.3987 39.1776 76.1227 40.9512 74.9556 42.8243C73.787 44.6967 72.7267 46.6686 71.7808 48.7331Z" fill="#B07066"/>
<path d="M62.8635 80.6825C62.8635 70.5666 68.2808 53.7068 79.6079 35.8836C85.7509 26.2174 101.143 20.7279 114.769 18.0945C119.008 17.2752 113.112 10.9646 115.997 10.7303C118.795 10.5031 127.958 21.5679 129.161 16.6988C130.916 9.59607 138.815 1.09024 139.985 3.07494C141.155 5.05964 133.257 16.6988 139.985 16.6988L141.171 14.6819C141.685 12.8954 142.204 10.5909 143.495 10.7303C145.616 10.9592 144.373 18.0945 151.394 18.0945C164.433 20.8294 178.953 26.7885 187.461 38.2921C204.205 60.9325 202.728 80.6825 201.25 90.3167C199.773 99.9509 205.683 110.549 210.608 120.664C215.532 130.78 235.724 166.909 233.754 199.665C232.178 225.87 214.383 233.385 205.683 233.866L59.9086 233.866C52.0291 233.866 35.7771 229.531 30.8523 199.665C25.9275 169.799 54.4914 120.183 59.9086 107.177C65.3259 94.1704 62.8635 90.7985 62.8635 80.6825Z" fill="#CD966D"/>
<path d="M34.9948 214.768C35.9899 214.324 37.1628 214.718 37.6653 215.649L37.7116 215.741L38.0247 216.385C44.6453 229.729 54.6011 231.882 59.9083 231.882L205.613 231.882C210.495 231.596 218.81 228.811 224.749 220.8L224.813 220.718C225.489 219.898 226.718 219.727 227.607 220.346C228.526 220.986 228.735 222.226 228.075 223.116L227.756 223.539C221.231 232.058 212.262 235.315 206.369 235.808L205.799 235.848C205.76 235.85 205.721 235.851 205.683 235.851L59.9083 235.851C53.2954 235.851 41.7515 233.043 34.3417 218.121L33.9921 217.401L33.9503 217.307C33.5476 216.333 33.9999 215.212 34.9948 214.768ZM60.8156 80.6824C60.8156 70.0533 66.4351 52.8257 77.8638 34.8424L78.1867 34.3496C81.5928 29.2962 87.2191 25.4527 93.5037 22.5588C100.001 19.5671 107.403 17.4983 114.303 16.1606C114.273 15.8973 114.17 15.4716 113.946 14.8161C113.83 14.4763 113.634 13.9358 113.507 13.5496C113.369 13.131 113.216 12.6172 113.152 12.1065C113.093 11.6412 113.056 10.8219 113.539 10.0498C114.106 9.14535 115.042 8.81606 115.826 8.75238L116.009 8.74297C116.918 8.72239 117.744 9.09079 118.286 9.37315C118.945 9.71616 119.634 10.1822 120.298 10.6673C121.551 11.5835 123.194 12.9425 124.444 13.8957C125.651 14.8165 126.611 15.4564 127.293 15.768C128.352 11.9619 130.854 8.00429 133.209 5.22047C134.436 3.77042 135.725 2.51609 136.877 1.73896C137.424 1.36971 138.129 0.976228 138.901 0.84463C139.311 0.774716 139.851 0.759377 140.415 0.966459C140.979 1.1734 141.415 1.54728 141.706 1.99867L141.763 2.09005L141.863 2.27833C142.076 2.71765 142.136 3.15058 142.15 3.47501C142.166 3.85887 142.122 4.23576 142.062 4.56869C141.944 5.22998 141.717 5.96381 141.475 6.66801C140.939 8.22741 140.357 9.61726 139.86 11.2067C139.511 12.3245 139.328 13.1949 139.292 13.8182C139.349 13.6154 139.411 13.3949 139.48 13.1543C139.697 12.4016 139.997 11.4162 140.454 10.6219C140.856 9.92292 141.824 8.64264 143.552 8.74352L143.722 8.75792L143.895 8.78118C144.743 8.92142 145.349 9.39007 145.742 9.85769C146.125 10.3124 146.37 10.8361 146.536 11.236C146.706 11.6447 146.87 12.1209 147.009 12.5086C147.159 12.9268 147.306 13.3173 147.478 13.6914C147.822 14.441 148.215 15.0092 148.743 15.4014C149.207 15.7472 149.925 16.0672 151.143 16.1058L151.394 16.1097L151.503 16.1125C151.612 16.1181 151.72 16.1322 151.827 16.1545C165.072 18.9327 180.185 25.0473 189.125 37.1356L189.524 37.6794C206.269 60.6652 204.786 80.7648 203.276 90.6087C202.61 94.9526 203.594 99.646 205.454 104.636C207.319 109.638 209.96 114.684 212.459 119.818C212.942 120.809 212.504 121.992 211.481 122.46C210.459 122.927 209.238 122.503 208.755 121.511C206.33 116.529 203.553 111.218 201.602 105.984C199.646 100.738 198.414 95.3151 199.225 90.025C200.647 80.751 202.095 61.8154 186.176 39.9647L185.796 39.4481C177.76 28.5827 163.929 22.7834 151.149 20.0746C149.126 20.0339 147.51 19.4887 146.249 18.5501C144.968 17.5974 144.224 16.3677 143.736 15.3051C143.648 15.1145 143.569 14.925 143.494 14.7408L143.072 15.4574C142.961 15.8287 142.842 16.198 142.717 16.5145C142.58 16.8567 142.365 17.3316 142.017 17.7405C141.67 18.1488 140.958 18.7353 139.915 18.6825C138.809 18.6726 137.73 18.4252 136.849 17.7654C135.929 17.0761 135.481 16.1311 135.3 15.2259C134.97 13.5723 135.45 11.6264 135.941 10.0554C136.244 9.08647 136.646 7.9939 137.006 7.02187C136.801 7.24649 136.589 7.48461 136.376 7.73733C134.217 10.2892 132.071 13.7795 131.23 16.8639L131.152 17.1607C130.917 18.1121 130.365 19.129 129.214 19.6372C128.151 20.1065 127.076 19.9101 126.338 19.6698C124.881 19.1953 123.272 18.0531 121.91 17.0145C120.418 15.8757 119.2 14.8461 117.953 13.9262C118.213 14.7251 118.506 15.8218 118.376 16.8689C118.291 17.55 118.02 18.3006 117.394 18.93C116.817 19.5101 116.084 19.8402 115.322 20.0093L115.169 20.0409C108.463 21.337 101.382 23.326 95.2612 26.1444C89.3023 28.8883 84.44 32.3324 81.6177 36.517L81.3514 36.9246C70.1261 54.5878 64.9111 71.0798 64.9111 80.6824C64.9111 83.1329 65.06 85.1775 65.206 87.1161C65.3508 89.0393 65.4973 90.9067 65.4648 92.8774C65.3984 96.9054 64.5884 101.243 61.8075 107.919L61.7652 108.013C61.3094 108.966 60.1576 109.414 59.1416 109.017C58.093 108.606 57.5864 107.45 58.0097 106.434L58.2508 105.847C60.6868 99.8636 61.3149 96.1447 61.3699 92.8138C61.3989 91.0513 61.2689 89.3656 61.1213 87.4051C60.9749 85.46 60.8156 83.2898 60.8156 80.6824Z" fill="#652815"/>
<path d="M220.926 144.383C221.96 144.032 223.088 144.533 223.497 145.505L223.535 145.6L223.672 145.97C224.431 147.973 226.284 152.219 228.587 155.668L228.907 156.162C232.074 161.217 231.053 164.691 231.24 166.14C231.321 166.768 231.368 167.749 231.437 168.639C231.513 169.606 231.625 170.696 231.843 171.837C232.283 174.133 233.132 176.509 234.844 178.405C236.837 180.612 238.268 182.418 238.643 184.341C239.05 186.422 238.154 188.211 237.154 190.01C236.562 191.076 235.965 191.837 235.515 192.416C235.042 193.024 234.825 193.323 234.685 193.652C234.456 194.191 234.265 195.242 235.275 198.741L235.36 199.049C236.201 202.251 235.893 205.92 235.268 208.95C234.627 212.054 233.57 214.88 232.691 216.219C232.084 217.143 230.818 217.416 229.864 216.828C228.91 216.239 228.628 215.012 229.235 214.088C229.722 213.347 230.654 211.07 231.252 208.172C231.826 205.389 232.013 202.401 231.394 200.038L231.332 199.811C230.295 196.221 230.103 194.012 230.898 192.14C231.27 191.264 231.821 190.571 232.244 190.027C232.69 189.455 233.117 188.904 233.548 188.128C234.596 186.241 234.724 185.619 234.619 185.078C234.482 184.379 233.865 183.348 231.763 181.019C229.379 178.379 228.327 175.226 227.816 172.561C227.559 171.221 227.434 169.971 227.353 168.937C227.267 167.825 227.241 167.139 227.176 166.633C226.796 163.687 227.954 162.234 225.407 158.221L225.148 157.825C222.624 154.044 220.645 149.499 219.819 147.316L219.669 146.912L219.637 146.814C219.332 145.807 219.891 144.733 220.926 144.383ZM213.528 133.724C214.186 132.875 215.41 132.681 216.309 133.268L216.395 133.327L225.756 140.132L225.839 140.195C226.671 140.867 226.823 142.061 226.165 142.91C225.508 143.76 224.283 143.953 223.385 143.367L223.299 143.307L213.938 136.503L213.855 136.439C213.022 135.768 212.871 134.574 213.528 133.724ZM210.433 125.478C210.947 124.541 212.126 124.166 213.107 124.611L213.201 124.657L222.562 129.476L222.654 129.527C223.584 130.066 223.924 131.222 223.41 132.16C222.896 133.098 221.717 133.472 220.736 133.027L220.642 132.982L211.28 128.162L211.188 128.111C210.259 127.573 209.919 126.416 210.433 125.478Z" fill="#652815"/>
<path d="M132.086 115.352C136.528 115.352 140.962 114.556 145.129 113.163C149.296 111.77 153.194 109.781 156.562 107.392C159.931 105.003 162.769 102.216 164.816 99.2288C166.864 96.2412 168.119 93.0538 168.323 89.8651C168.417 88.3761 168.338 86.643 168.07 84.7627C167.802 82.8823 167.345 80.8561 166.686 78.7814C166.026 76.7067 165.164 74.583 164.086 72.509C163.007 70.435 161.712 68.4115 160.186 66.5352C158.472 64.4285 156.415 62.7288 154.158 61.3666C151.901 60.0051 149.443 58.981 146.927 58.2277C144.411 57.4736 141.836 56.9902 139.344 56.708C136.852 56.4257 134.444 56.3453 132.261 56.3977C132.239 56.3984 132.212 56.3984 132.182 56.3991C132.152 56.3991 132.119 56.3998 132.086 56.3998C132.053 56.3998 132.021 56.3998 131.991 56.3991C131.961 56.3984 131.933 56.3984 131.912 56.3977C129.729 56.3364 127.321 56.4128 124.829 56.6936C122.338 56.9745 119.763 57.4593 117.246 58.2154C114.73 58.9715 112.272 59.9983 110.015 61.3632C107.758 62.7274 105.702 64.4298 103.988 66.5366C102.462 68.4128 101.167 70.437 100.088 72.5103C99.0087 74.5843 98.1468 76.7074 97.4874 78.7827C96.828 80.8581 96.3711 82.8844 96.1032 84.764C95.8353 86.6437 95.7556 88.3775 95.8504 89.8665C96.0529 93.0552 97.3092 96.2432 99.3564 99.2301C101.404 102.218 104.242 105.005 107.61 107.393C110.978 109.781 114.877 111.772 119.044 113.164C123.21 114.556 127.644 115.352 132.086 115.352Z" fill="#B07066"/>
<path d="M160.764 55.3317C161.528 52.7495 163.23 50.9816 165.407 49.8827C167.585 48.7844 170.239 48.3551 172.908 48.4528C175.576 48.5498 178.26 49.1726 180.497 50.1777C182.733 51.1828 184.523 52.5696 185.405 54.1948C187.397 57.8643 186.491 60.9895 184.104 63.3082C181.716 65.6268 177.846 67.139 173.907 67.583C169.968 68.0271 165.961 67.4025 163.299 65.4482C160.638 63.4933 159.321 60.2087 160.764 55.3317Z" fill="#B07066"/>
<path d="M103.37 55.3317C102.555 52.7495 100.74 50.9816 98.4167 49.8827C96.0942 48.7844 93.2632 48.3551 90.4162 48.4528C87.5699 48.5498 84.7076 49.1726 82.3216 50.1777C79.9356 51.1828 78.0267 52.5696 77.0857 54.1948C74.9616 57.8643 75.9273 60.9895 78.4738 63.3082C81.0203 65.6268 85.1489 67.139 89.3505 67.583C93.5521 68.0271 97.8266 67.4025 100.666 65.4482C103.505 63.4939 104.909 60.2087 103.37 55.3317Z" fill="#B07066"/>
<path d="M162.116 218.655C161.207 219.242 160.45 220.023 159.863 220.921C159.276 221.818 158.859 222.834 158.627 223.89C158.395 224.946 158.35 226.044 158.507 227.105C158.665 228.167 159.025 229.194 159.605 230.11C160.184 231.025 160.958 231.789 161.849 232.383C162.741 232.978 163.75 233.402 164.802 233.641C165.854 233.88 166.947 233.932 168.006 233.781C169.066 233.629 170.092 233.274 171.008 232.698C171.924 232.121 172.69 231.35 173.288 230.46C173.886 229.569 174.317 228.559 174.56 227.506C174.805 226.453 174.863 225.356 174.719 224.293C174.574 223.229 174.226 222.197 173.657 221.275C173.089 220.352 172.321 219.573 171.43 218.963C170.538 218.353 169.524 217.91 168.461 217.66C167.398 217.409 166.287 217.351 165.205 217.509C164.123 217.667 163.068 218.04 162.116 218.655Z" fill="#B07066"/>
<path d="M87.4893 52.6938C87.3197 52.1618 86.9413 51.7977 86.4573 51.5719C85.9733 51.3461 85.3836 51.2572 84.7904 51.2773C84.1971 51.2974 83.6012 51.4257 83.1039 51.6322C82.6066 51.8394 82.2087 52.1247 82.0133 52.4595C81.571 53.2149 81.7718 53.8582 82.3029 54.3361C82.8339 54.8139 83.6936 55.1247 84.5692 55.216C85.4449 55.3072 86.3357 55.1788 86.9271 54.776C87.5168 54.3739 87.8099 53.6974 87.4893 52.6938Z" fill="#CD966D"/>
<path d="M178.413 53.058C178.548 52.602 178.851 52.2899 179.238 52.0964C179.625 51.9028 180.097 51.8266 180.572 51.8439C181.046 51.8611 181.523 51.9711 181.921 52.1481C182.319 52.3257 182.637 52.5702 182.793 52.8572C183.147 53.5047 182.987 54.0561 182.562 54.4657C182.138 54.8752 181.449 55.1416 180.749 55.2199C180.048 55.2981 179.336 55.188 178.862 54.8428C178.391 54.4981 178.156 53.9182 178.413 53.058Z" fill="#CD966D"/>
<path d="M161.88 56.378C161.787 56.378 161.694 56.3707 161.602 56.356C161.509 56.3413 161.418 56.3186 161.328 56.2891C161.238 56.2597 161.15 56.2217 161.065 56.1762C160.98 56.1308 160.897 56.078 160.819 56.0172C160.633 55.8742 160.487 55.7011 160.38 55.5107C160.273 55.3202 160.207 55.1124 160.181 54.9006C160.156 54.6881 160.173 54.4709 160.231 54.2617C160.291 54.0526 160.393 53.8514 160.539 53.6703C161.472 52.5203 162.51 51.5126 163.65 50.6466C164.79 49.7806 166.031 49.0582 167.372 48.4795C168.713 47.9008 170.154 47.4651 171.693 47.1745C173.231 46.8838 174.866 46.7381 176.596 46.7381C176.832 46.7381 177.057 46.7849 177.262 46.8691C177.467 46.9533 177.651 47.0756 177.806 47.2272C177.961 47.3783 178.086 47.5587 178.173 47.7585C178.259 47.9583 178.307 48.1781 178.307 48.4087C178.307 48.6392 178.259 48.8591 178.173 49.0589C178.086 49.2587 177.961 49.4384 177.806 49.5901C177.651 49.7411 177.467 49.8634 177.262 49.9483C177.057 50.0325 176.832 50.0799 176.596 50.0799C175.14 50.0799 173.767 50.1989 172.479 50.4368C171.191 50.674 169.987 51.0302 168.87 51.5033C167.753 51.9764 166.723 52.5671 165.781 53.2748C164.839 53.9824 163.986 54.8063 163.223 55.7459C163.139 55.8501 163.043 55.9417 162.941 56.0205C162.839 56.0994 162.729 56.1655 162.614 56.2183C162.499 56.2711 162.379 56.3119 162.256 56.3386C162.132 56.3647 162.006 56.378 161.88 56.378Z" fill="#652815"/>
<path d="M104.048 56.378C103.922 56.378 103.796 56.3647 103.673 56.3379C103.55 56.3112 103.429 56.2711 103.314 56.2177C103.199 56.1649 103.089 56.0987 102.987 56.0199C102.885 55.941 102.791 55.8495 102.706 55.7453C101.943 54.8051 101.089 53.9812 100.148 53.2743C99.2056 52.5667 98.1754 51.976 97.0582 51.5029C95.941 51.0299 94.7376 50.6737 93.4493 50.4365C92.161 50.1993 90.7878 50.0797 89.3325 50.0797C89.0963 50.0797 88.8711 50.0329 88.6664 49.9481C88.4617 49.8639 88.2776 49.7416 88.1222 49.5899C87.9675 49.4389 87.8422 49.2585 87.7553 49.0587C87.669 48.8589 87.6211 48.6391 87.6211 48.4086C87.6211 48.178 87.669 47.9582 87.7553 47.7584C87.8415 47.5586 87.9675 47.3789 88.1222 47.2272C88.2769 47.0762 88.4611 46.9539 88.6664 46.8691C88.8711 46.7849 89.0963 46.7381 89.3325 46.7381C91.0623 46.7381 92.6977 46.8838 94.2359 47.1744C95.774 47.4651 97.2143 47.9001 98.5553 48.4794C99.8963 49.0587 101.138 49.781 102.278 50.6463C103.418 51.5116 104.455 52.5199 105.388 53.6699C105.535 53.8509 105.638 54.0521 105.696 54.2612C105.756 54.4704 105.772 54.6875 105.747 54.9C105.722 55.1125 105.655 55.3196 105.549 55.5101C105.442 55.7005 105.295 55.8735 105.11 56.0165C105.031 56.0773 104.949 56.1301 104.863 56.1756C104.778 56.221 104.69 56.2584 104.601 56.2885C104.511 56.3186 104.419 56.3406 104.327 56.3553C104.235 56.3707 104.142 56.378 104.048 56.378Z" fill="#652815"/>
<path d="M138.569 73.9567C138.444 73.9567 138.318 73.9453 138.195 73.9226C138.072 73.8998 137.952 73.8657 137.835 73.8202C137.719 73.7746 137.607 73.7184 137.502 73.6507C137.397 73.5831 137.299 73.5041 137.21 73.4149C137.046 73.2506 136.929 73.0647 136.856 72.8694C136.783 72.6741 136.755 72.4699 136.771 72.2682C136.787 72.0666 136.847 71.8675 136.949 71.6829C137.051 71.4983 137.197 71.3282 137.385 71.1854C138.179 70.5785 139.148 69.9641 140.239 69.3806C141.331 68.7971 142.543 68.2446 143.822 67.7623C145.102 67.28 146.447 66.8672 147.805 66.5637C149.163 66.2603 150.533 66.0656 151.86 66.0195C152.106 66.01 152.343 66.0454 152.562 66.1174C152.78 66.1895 152.98 66.2982 153.15 66.436C153.32 66.5732 153.46 66.7395 153.561 66.9253C153.662 67.1112 153.723 67.3179 153.732 67.536C153.742 67.7541 153.701 67.9633 153.618 68.1555C153.535 68.3477 153.411 68.5221 153.255 68.6707C153.099 68.8192 152.91 68.9419 152.698 69.0291C152.486 69.1163 152.251 69.1688 152.003 69.1777C150.896 69.2162 149.741 69.3844 148.591 69.6461C147.441 69.9078 146.294 70.2631 145.205 70.6765C144.115 71.0899 143.081 71.5615 142.155 72.0552C141.229 72.5489 140.412 73.0654 139.753 73.5686C139.668 73.6337 139.577 73.6906 139.483 73.7392C139.389 73.7879 139.291 73.8284 139.191 73.8606C139.091 73.8929 138.988 73.9169 138.884 73.9333C138.78 73.9485 138.674 73.9567 138.569 73.9567Z" fill="#652815"/>
<path d="M125.603 73.9567C125.498 73.9567 125.393 73.9485 125.289 73.9327C125.185 73.9169 125.082 73.8922 124.982 73.86C124.882 73.8277 124.784 73.7873 124.69 73.7386C124.596 73.69 124.506 73.6331 124.421 73.5679C123.763 73.0648 122.944 72.5484 122.018 72.0547C121.092 71.561 120.058 71.0894 118.969 70.676C117.879 70.2626 116.733 69.9074 115.582 69.6457C114.432 69.384 113.277 69.2159 112.17 69.1773C111.922 69.1684 111.687 69.116 111.475 69.0287C111.263 68.9415 111.074 68.8189 110.917 68.6703C110.761 68.5218 110.637 68.3473 110.554 68.1552C110.471 67.963 110.431 67.7538 110.44 67.5357C110.45 67.3176 110.512 67.1115 110.613 66.9257C110.715 66.7399 110.857 66.5743 111.028 66.4371C111.199 66.2999 111.399 66.1912 111.617 66.1185C111.834 66.0464 112.07 66.0104 112.313 66.0193C113.64 66.066 115.01 66.2601 116.368 66.5635C117.726 66.8669 119.072 67.2797 120.351 67.762C121.63 68.2443 122.843 68.7968 123.933 69.3802C125.025 69.9636 125.994 70.5781 126.788 71.1849C126.975 71.3284 127.121 71.4984 127.224 71.683C127.326 71.8676 127.386 72.0667 127.402 72.2683C127.418 72.47 127.39 72.6748 127.317 72.8695C127.244 73.0648 127.126 73.2506 126.963 73.415C126.873 73.5047 126.775 73.5831 126.671 73.6508C126.566 73.7184 126.455 73.7747 126.338 73.8202C126.222 73.8657 126.101 73.8998 125.978 73.9226C125.854 73.9453 125.729 73.9567 125.603 73.9567Z" fill="#652815"/>
<path d="M116.185 101.175C116.017 101.175 115.853 101.149 115.696 101.098C115.539 101.047 115.39 100.972 115.254 100.875C115.118 100.778 114.995 100.66 114.891 100.522C114.787 100.385 114.701 100.229 114.639 100.055C114.559 99.8328 114.526 99.6045 114.536 99.3818C114.545 99.1584 114.596 98.9411 114.684 98.7411C114.771 98.5411 114.895 98.3582 115.051 98.2049C115.207 98.0516 115.394 97.9279 115.608 97.8447L119.601 96.2945L123.594 94.7444L127.587 93.1942L131.581 91.644C131.674 91.6076 131.769 91.5808 131.866 91.5622C131.963 91.5443 132.061 91.5354 132.159 91.5354C132.258 91.5354 132.355 91.545 132.452 91.5629C132.549 91.5815 132.645 91.609 132.738 91.6454L136.696 93.1956L140.653 94.7457L144.611 96.2959L148.569 97.8461C148.782 97.9292 148.969 98.0544 149.124 98.2076C149.279 98.3616 149.404 98.5445 149.491 98.7445C149.578 98.9446 149.629 99.1625 149.637 99.3852C149.646 99.6087 149.613 99.8369 149.532 100.059C149.452 100.282 149.332 100.476 149.184 100.638C149.036 100.801 148.861 100.929 148.668 101.02C148.476 101.111 148.267 101.163 148.053 101.172C147.839 101.181 147.62 101.146 147.407 101.063L143.594 99.5695L139.781 98.0764L135.968 96.5833L132.155 95.0901L128.306 96.5839L124.458 98.0777L120.61 99.5715L116.761 101.065C116.714 101.084 116.666 101.1 116.618 101.113C116.57 101.127 116.522 101.138 116.474 101.147C116.426 101.156 116.378 101.163 116.33 101.167C116.282 101.173 116.233 101.175 116.185 101.175Z" fill="#652815"/>
<path d="M132.963 94.9377C132.6 94.9377 132.254 94.8874 131.939 94.797C131.624 94.7058 131.341 94.5743 131.101 94.4121C130.863 94.2498 130.671 94.0559 130.537 93.8412C130.403 93.6265 130.331 93.3902 130.331 93.1425L130.331 89.6454L130.331 86.1484L130.331 82.6513L130.331 79.1542C130.331 78.9065 130.404 78.6702 130.537 78.4555C130.67 78.2408 130.863 78.0476 131.101 77.8846C131.339 77.7224 131.624 77.5909 131.939 77.4997C132.254 77.4093 132.6 77.359 132.963 77.359C133.327 77.359 133.673 77.4093 133.988 77.4997C134.303 77.5902 134.586 77.7216 134.825 77.8846C135.063 78.0469 135.256 78.2408 135.39 78.4555C135.524 78.6702 135.596 78.9065 135.596 79.1542L135.596 82.6513L135.596 86.1484L135.596 89.6454L135.596 93.1425C135.596 93.3902 135.523 93.6265 135.39 93.8412C135.257 94.0559 135.063 94.2491 134.825 94.4121C134.587 94.5743 134.303 94.7058 133.988 94.797C133.674 94.8874 133.328 94.9377 132.963 94.9377Z" fill="#652815"/>
<path d="M115.473 107.413C115.452 107.413 115.43 107.413 115.409 107.412C115.388 107.411 115.366 107.41 115.344 107.409C115.323 107.407 115.302 107.405 115.28 107.403C115.258 107.401 115.236 107.398 115.215 107.395C114.968 107.359 114.74 107.276 114.538 107.156C114.336 107.035 114.162 106.876 114.023 106.692C113.884 106.508 113.78 106.296 113.719 106.07C113.659 105.843 113.642 105.601 113.678 105.354C113.926 103.617 113.889 101.851 113.597 100.116C113.304 98.3805 112.757 96.6749 111.981 95.0595C111.205 93.4441 110.203 91.9175 109.001 90.5405C107.798 89.1634 106.399 87.935 104.827 86.9147C104.618 86.7789 104.445 86.6071 104.314 86.4121C104.182 86.2178 104.092 86.0012 104.043 85.7744C103.995 85.5484 103.99 85.3137 104.032 85.0827C104.074 84.8516 104.161 84.6256 104.298 84.4161C104.434 84.2074 104.607 84.0363 104.802 83.9049C104.996 83.7742 105.214 83.6832 105.44 83.6355C105.667 83.5879 105.902 83.5835 106.134 83.6247C106.366 83.6658 106.593 83.7532 106.803 83.889C108.663 85.0971 110.321 86.5551 111.743 88.1921C113.166 89.8292 114.351 91.646 115.268 93.5712C116.184 95.4964 116.831 97.5306 117.175 99.6024C117.518 101.674 117.558 103.785 117.262 105.862C117.23 106.088 117.158 106.297 117.053 106.485C116.948 106.673 116.812 106.838 116.651 106.976C116.491 107.113 116.306 107.223 116.107 107.298C115.909 107.372 115.694 107.413 115.473 107.413Z" fill="#652815"/>
<path d="M148.703 107.412C148.481 107.412 148.266 107.372 148.067 107.297C147.868 107.222 147.684 107.112 147.523 106.975C147.363 106.837 147.226 106.671 147.121 106.484C147.017 106.296 146.944 106.086 146.912 105.861C146.616 103.784 146.656 101.674 146.999 99.6016C147.343 97.5301 147.99 95.496 148.906 93.571C149.822 91.646 151.009 89.8293 152.43 88.1924C153.853 86.5555 155.51 85.0977 157.371 83.8897C157.58 83.7532 157.807 83.6658 158.039 83.6247C158.27 83.5835 158.506 83.5879 158.732 83.6355C158.959 83.6832 159.176 83.7742 159.372 83.9056C159.568 84.037 159.74 84.2081 159.876 84.4175C160.012 84.6262 160.1 84.8529 160.142 85.084C160.183 85.315 160.179 85.5497 160.131 85.7757C160.083 86.0017 159.992 86.2183 159.86 86.4133C159.728 86.6075 159.557 86.7794 159.347 86.9158C157.777 87.9361 156.375 89.1643 155.174 90.5413C153.972 91.9182 152.969 93.4439 152.193 95.0599C151.418 96.6751 150.87 98.3806 150.578 100.116C150.285 101.851 150.249 103.617 150.497 105.354C150.533 105.601 150.516 105.843 150.455 106.07C150.395 106.297 150.291 106.507 150.152 106.692C150.013 106.877 149.838 107.035 149.636 107.157C149.435 107.277 149.206 107.361 148.958 107.396C148.937 107.399 148.915 107.402 148.894 107.404C148.872 107.406 148.851 107.409 148.83 107.41C148.808 107.411 148.787 107.412 148.765 107.413C148.746 107.412 148.724 107.412 148.703 107.412Z" fill="#652815"/>
<path d="M166.476 233.865C165.464 233.865 164.497 233.753 163.592 233.537C162.687 233.321 161.843 233.002 161.078 232.587C160.312 232.172 159.623 231.661 159.028 231.063C158.433 230.465 157.932 229.779 157.539 229.015C157.171 228.297 156.919 227.545 156.782 226.785C156.645 226.025 156.623 225.256 156.713 224.503C156.802 223.749 157.003 223.011 157.313 222.312C157.622 221.613 158.041 220.954 158.566 220.358C158.963 219.907 159.407 219.504 159.894 219.15C160.382 218.796 160.911 218.492 161.48 218.238C162.049 217.984 162.657 217.779 163.3 217.625C163.943 217.471 164.62 217.368 165.329 217.316C164.688 216.509 164.138 215.618 163.683 214.651C163.229 213.684 162.87 212.643 162.61 211.536C162.35 210.429 162.191 209.255 162.135 208.026C162.08 206.796 162.128 205.51 162.285 204.176C162.595 201.54 163.326 198.804 164.421 196.152C165.516 193.5 166.976 190.932 168.747 188.629C170.517 186.326 172.597 184.289 174.933 182.699C177.269 181.11 179.86 179.97 182.652 179.459C182.89 179.415 183.127 179.42 183.351 179.466C183.575 179.511 183.785 179.598 183.971 179.718C184.157 179.838 184.319 179.992 184.446 180.173C184.574 180.354 184.665 180.561 184.711 180.788C184.757 181.015 184.752 181.24 184.704 181.453C184.657 181.666 184.566 181.867 184.44 182.043C184.313 182.221 184.152 182.375 183.962 182.496C183.772 182.618 183.554 182.705 183.317 182.749C180.955 183.181 178.745 184.188 176.742 185.599C174.739 187.01 172.944 188.824 171.41 190.87C169.875 192.916 168.603 195.193 167.646 197.531C166.69 199.868 166.05 202.265 165.781 204.55C165.688 205.338 165.609 206.408 165.646 207.611C165.683 208.814 165.836 210.151 166.208 211.477C166.579 212.801 167.169 214.114 168.08 215.268C168.991 216.422 170.222 217.418 171.877 218.109C172.088 218.197 172.273 218.321 172.427 218.47C172.58 218.619 172.701 218.793 172.786 218.982C172.871 219.171 172.92 219.375 172.928 219.583C172.936 219.791 172.903 220.004 172.825 220.212C172.746 220.419 172.629 220.604 172.483 220.759C172.337 220.914 172.163 221.041 171.971 221.135C171.779 221.228 171.569 221.288 171.351 221.31C171.134 221.331 170.909 221.314 170.686 221.254C169.621 220.963 168.607 220.773 167.658 220.683C166.71 220.593 165.827 220.602 165.023 220.709C164.219 220.817 163.496 221.022 162.864 221.322C162.232 221.623 161.694 222.02 161.263 222.511C160.961 222.854 160.721 223.235 160.544 223.64C160.368 224.044 160.254 224.472 160.204 224.911C160.155 225.349 160.171 225.797 160.254 226.24C160.336 226.684 160.484 227.123 160.7 227.545C160.955 228.041 161.286 228.48 161.684 228.857C162.081 229.235 162.546 229.552 163.069 229.804C163.593 230.056 164.174 230.244 164.804 230.362C165.434 230.481 166.114 230.532 166.833 230.51C167.074 230.5 167.306 230.537 167.519 230.614C167.732 230.691 167.926 230.807 168.092 230.954C168.257 231.101 168.393 231.277 168.49 231.475C168.587 231.672 168.645 231.891 168.654 232.123C168.663 232.354 168.622 232.576 168.54 232.779C168.46 232.982 168.337 233.167 168.185 233.325C168.031 233.481 167.847 233.611 167.639 233.703C167.433 233.794 167.203 233.849 166.961 233.858C166.921 233.859 166.88 233.861 166.84 233.862C166.799 233.863 166.759 233.864 166.719 233.865C166.678 233.865 166.638 233.866 166.598 233.866C166.556 233.865 166.516 233.865 166.476 233.865Z" fill="#652815"/>
<path d="M70.0843 51.8415C67.6864 51.8415 65.5796 51.3345 63.7591 50.4487C61.9379 49.5628 60.4029 48.298 59.1472 46.7815C57.8922 45.2658 56.9163 43.4983 56.2155 41.6079C55.5147 39.7175 55.0881 37.7034 54.9302 35.6943C54.7701 33.6559 54.8773 31.7297 55.2214 29.9723C55.5647 28.2148 56.1436 26.6254 56.9262 25.2612C57.7088 23.8971 58.6945 22.7581 59.8509 21.9001C61.0072 21.0421 62.3348 20.4659 63.8007 20.2278C64.8801 20.0526 65.9364 20.0483 66.9728 20.1706C68.0093 20.2928 69.0274 20.5431 70.0293 20.8762C71.0312 21.2094 72.0176 21.6263 72.9928 22.0824C73.9679 22.5386 74.9303 23.0348 75.885 23.5267C76.846 24.0215 77.7936 24.5098 78.737 24.9531C79.6804 25.3964 80.6188 25.7953 81.5608 26.1128C82.5035 26.4295 83.4497 26.6648 84.4093 26.7799C85.3682 26.895 86.3405 26.8914 87.3339 26.7298C87.5737 26.6912 87.8099 26.7034 88.032 26.7584C88.254 26.8135 88.462 26.9121 88.6454 27.0466C88.828 27.1803 88.9859 27.3497 89.1079 27.5463C89.2299 27.7429 89.3152 27.9675 89.354 28.2113C89.3927 28.4551 89.3808 28.6953 89.3258 28.9205C89.2715 29.1457 89.1742 29.3567 89.0416 29.5418C88.9091 29.727 88.7427 29.8872 88.5481 30.0102C88.3542 30.1331 88.1328 30.2197 87.8923 30.259C86.6155 30.4663 85.376 30.4771 84.1717 30.3441C82.9681 30.2111 81.8005 29.9337 80.6682 29.5669C79.5358 29.2001 78.4388 28.7432 77.3755 28.2499C76.3122 27.7565 75.2835 27.2267 74.288 26.7141C73.4207 26.2672 72.5655 25.8268 71.7208 25.4257C70.8761 25.0246 70.042 24.6621 69.2164 24.3718C68.3907 24.0815 67.5742 23.8634 66.7655 23.7498C65.9561 23.6361 65.1537 23.6282 64.3577 23.7569C63.2507 23.9371 62.3024 24.4276 61.5078 25.144C60.7139 25.8604 60.0737 26.8027 59.5858 27.8867C59.0972 28.9706 58.7601 30.1953 58.5712 31.4773C58.3822 32.7593 58.3406 34.0984 58.4436 35.4097C58.5691 37.0099 58.9005 38.6128 59.442 40.1186C59.9834 41.6236 60.7343 43.0307 61.6989 44.2383C62.6634 45.4452 63.8416 46.4526 65.2383 47.1576C66.6344 47.8633 68.2483 48.2666 70.0843 48.2666C70.3276 48.2666 70.5595 48.3166 70.7703 48.4067C70.9812 48.4968 71.1716 48.6283 71.3309 48.7899C71.4903 48.9515 71.6192 49.1438 71.7088 49.3583C71.7976 49.5721 71.847 49.8073 71.847 50.054C71.847 50.3007 71.7976 50.5359 71.7088 50.7497C71.6192 50.9635 71.4903 51.1558 71.3309 51.3181C71.1716 51.4797 70.9812 51.6105 70.7703 51.7013C70.5595 51.7914 70.3276 51.8415 70.0843 51.8415Z" fill="#652815"/>
<path d="M194.088 51.8415C193.845 51.8415 193.613 51.7914 193.402 51.7013C193.191 51.6112 193.002 51.4797 192.842 51.3181C192.682 51.1565 192.553 50.9642 192.464 50.7497C192.375 50.5359 192.326 50.3006 192.326 50.054C192.326 49.8073 192.375 49.5721 192.464 49.3583C192.553 49.1445 192.682 48.9522 192.842 48.7899C193.001 48.6276 193.191 48.4974 193.402 48.4066C193.613 48.3165 193.845 48.2665 194.088 48.2665C195.924 48.2665 197.537 47.8632 198.934 47.1575C200.33 46.4525 201.508 45.4451 202.473 44.2382C203.438 43.0313 204.189 41.6241 204.73 40.1183C205.272 38.6133 205.603 37.0095 205.729 35.4101C205.832 34.0988 205.791 32.7596 205.601 31.4776C205.412 30.1956 205.075 28.9701 204.586 27.8868C204.098 26.8029 203.458 25.8605 202.664 25.1441C201.87 24.4277 200.922 23.9372 199.814 23.757C199.017 23.6276 198.216 23.6362 197.406 23.7491C196.597 23.8628 195.78 24.0809 194.956 24.3712C194.13 24.6615 193.296 25.024 192.452 25.4251C191.607 25.8262 190.753 26.2667 189.885 26.7135C188.89 27.2262 187.861 27.7567 186.798 28.2501C185.735 28.7434 184.638 29.2003 183.506 29.5678C182.373 29.9346 181.206 30.2113 180.002 30.345C178.799 30.478 177.558 30.4673 176.282 30.2592C176.041 30.2199 175.821 30.1334 175.626 30.0104C175.432 29.8874 175.265 29.7273 175.132 29.5421C175 29.3569 174.903 29.146 174.848 28.9207C174.793 28.6955 174.781 28.4553 174.82 28.2115C174.859 27.9676 174.944 27.7438 175.065 27.5465C175.187 27.3499 175.344 27.1804 175.527 27.0467C175.709 26.9123 175.917 26.8136 176.14 26.7586C176.363 26.7028 176.6 26.6907 176.841 26.73C177.834 26.8909 178.806 26.8951 179.765 26.78C180.725 26.6649 181.671 26.4297 182.614 26.1129C183.556 25.7962 184.494 25.3972 185.437 24.9532C186.38 24.5099 187.328 24.0216 188.289 23.5268C189.244 23.0349 190.207 22.5387 191.182 22.0825C192.157 21.6263 193.144 21.2095 194.146 20.8763C195.149 20.5431 196.166 20.2928 197.203 20.1706C198.24 20.0483 199.296 20.0526 200.374 20.2278C201.84 20.4659 203.166 21.0429 204.323 21.9002C205.48 22.7582 206.465 23.8971 207.248 25.2614C208.031 26.6256 208.609 28.215 208.953 29.9725C209.296 31.73 209.404 33.6562 209.244 35.6946C209.086 37.7038 208.66 39.7179 207.959 41.6084C207.258 43.4989 206.282 45.2663 205.027 46.7821C203.771 48.2979 202.237 49.5628 200.415 50.4494C198.593 51.3345 196.486 51.8415 194.088 51.8415Z" fill="#652815"/>
<path d="M156.22 155.722C163.337 154.192 167.676 147.744 169.087 144.377C169.914 142.405 170.635 139.649 169.617 137.692C167.092 134.858 168.111 133.462 169.087 130.084C170.2 126.244 167.559 122.004 163.815 120.34C160.07 118.677 155.594 119.201 151.828 120.823C148.063 122.445 144.849 125.053 141.698 127.62C139.397 126.213 135.726 120.001 129.786 124.036C125.681 126.819 125.31 132.877 125.84 137.713C127.081 148.873 129.924 154.664 135.281 156.225C142.048 158.196 149.537 157.159 156.22 155.722Z" fill="white"/>
<path d="M167.782 123.857C166.857 138.971 151.306 148.998 143.928 153.414L148.716 157.313C148.716 157.313 151.752 157.375 155.909 156.117C163.037 153.971 168.989 147.822 169.707 144.242C170.763 139.033 169.589 140.25 168.315 136.134C167.652 133.957 171.548 129.841 167.782 123.857ZM141.033 127.891C141.033 127.891 138.258 125.199 136.201 123.971C135.178 125.797 134.449 127.778 134.09 129.82C133.448 133.41 134.09 138.507 135.603 142.303C135.842 142.891 136.734 142.798 136.832 142.179C138.138 134.019 141.033 127.891 141.033 127.891Z" fill="#CCCDCD"/>
<path d="M122.323 153.863C122.323 153.863 89.3242 157.382 74.4381 185.663C59.552 213.944 72.2057 231.092 85.6 237.337C98.9944 243.582 132.745 245.786 154.698 240.648C176.652 235.51 182.143 224.857 181.117 214.57C179.625 199.553 165.49 190.321 165.49 190.321C165.49 190.321 166.051 171.773 151.471 159.732C138.532 149.038 122.323 153.863 122.323 153.863Z" fill="white"/>
<path d="M136.246 201.224C129.086 192.634 120.632 191.484 117.925 188.4C116.448 186.721 115.581 185.021 115.913 182.914C116.266 180.675 118.995 179.128 121.114 178.752C123.586 178.304 129.482 178.538 134.437 183.026C135.614 184.085 135.186 185.734 135.154 187.209C135.068 190.375 139.831 193.448 143.683 190.802C147.546 188.146 144.582 182.233 142.089 179.363C140.205 177.195 133.378 172.422 124.891 171.668C122.505 171.455 112.906 170.101 107.362 180.126C105.768 183.006 105.179 189.967 113.526 195.85C115.271 197.081 124.324 201.458 126.839 204.297C131.194 209.213 128.209 213.538 124.806 214.108C115.527 215.655 110.273 210.882 109.299 208.267C108.604 206.404 109.331 204.389 108.432 202.638C107.512 200.837 105.629 200.125 103.638 200.725C97.1101 202.699 99.1862 209.488 102.076 213.223C105.168 217.223 108.967 219.635 113.237 220.958C129.172 225.894 136.834 218.098 138.172 212.388C139.156 208.205 139.049 204.582 136.246 201.224Z" fill="#652815"/>
<path d="M133.163 165.698C126.976 179.736 123.338 195.654 121.249 208.093C120.205 214.306 119.549 219.637 119.154 223.414C118.957 225.302 118.826 226.801 118.743 227.826C118.702 228.339 118.673 228.733 118.655 228.998C118.645 229.13 118.638 229.231 118.634 229.298C118.632 229.331 118.63 229.356 118.629 229.372C118.629 229.38 118.629 229.387 118.628 229.391L118.628 229.396C118.628 229.396 118.622 229.395 117.46 229.33C116.364 229.268 116.296 229.264 116.292 229.263L116.292 229.256C116.292 229.251 116.293 229.244 116.294 229.235C116.295 229.217 116.296 229.19 116.298 229.155C116.303 229.085 116.31 228.981 116.319 228.845C116.338 228.572 116.368 228.17 116.41 227.649C116.493 226.608 116.627 225.092 116.826 223.186C117.224 219.372 117.886 213.995 118.939 207.728C121.042 195.208 124.718 179.087 131.011 164.807L133.163 165.698Z" fill="#652815"/>
<path d="M143.667 150.076C152.332 152.957 154.252 160.951 153.626 163.13C152.877 165.687 143.277 155.734 129.005 156.331C124.016 156.54 125.463 153.418 127.773 151.616C130.823 149.238 135.946 147.52 143.667 150.076Z" fill="#652815"/>
<path d="M85.4629 180.874L74.4172 179.429L61.8987 196.767L58.9531 231.442L94.2995 232.165L95.0359 225.663L95.0359 219.884L98.7178 216.994L101.663 207.603L100.191 199.656L95.7723 188.82L85.4629 180.874Z" fill="#CD966D"/>
<path d="M143.667 147.241C152.332 150.122 154.252 158.116 153.626 160.295C152.877 162.852 143.277 152.898 129.005 153.496C124.016 153.705 125.463 150.583 127.773 148.781C130.823 146.403 135.946 144.684 143.667 147.241Z" fill="#652815"/>
<path d="M159.571 175.093C160.762 174.288 164.763 175.678 165.886 183.367C166.437 187.129 166.606 190.77 166.606 190.77C166.606 190.77 161.886 186.611 160.324 183.687C158.357 179.992 157.593 176.417 159.571 175.093Z" fill="#CCCDCD"/>
<path d="M163.229 176.026C164.453 175.414 165.583 174.646 166.594 173.756C167.605 172.866 168.498 171.854 169.248 170.755C169.998 169.657 170.605 168.472 171.046 167.235C171.486 165.998 171.761 164.71 171.844 163.406C171.928 162.101 171.819 160.791 171.54 159.513C171.261 158.235 170.809 156.99 170.205 155.815C169.601 154.639 168.845 153.533 167.955 152.535C167.065 151.536 166.04 150.645 164.903 149.899C163.988 149.299 162.955 148.962 161.886 148.85C160.815 148.738 159.709 148.852 158.645 149.155C157.582 149.457 156.563 149.948 155.669 150.589C154.775 151.23 154.005 152.024 153.442 152.93C152.878 153.837 152.49 154.811 152.256 155.82C152.022 156.83 151.941 157.876 151.995 158.925C152.048 159.975 152.234 161.028 152.532 162.054C152.83 163.08 153.239 164.079 153.74 165.017C154.241 165.956 154.82 166.848 155.473 167.723C156.127 168.599 156.854 169.459 157.651 170.335C158.448 171.211 159.314 172.102 160.245 173.04C161.176 173.978 162.173 174.963 163.229 176.026Z" fill="#B07066"/>
<path d="M166.652 153.911C166.605 153.911 166.557 153.909 166.511 153.906C166.463 153.902 166.416 153.897 166.369 153.889C166.321 153.881 166.274 153.872 166.226 153.861C166.179 153.85 166.132 153.836 166.084 153.822C165.849 153.746 165.64 153.627 165.464 153.477C165.288 153.328 165.146 153.146 165.043 152.946C164.94 152.746 164.876 152.528 164.857 152.301C164.838 152.075 164.865 151.841 164.943 151.612C166.14 148.112 167.492 144.979 169.004 142.205C170.517 139.432 172.191 137.018 174.032 134.956C175.873 132.895 177.883 131.186 180.066 129.822C182.249 128.458 184.606 127.439 187.144 126.758C187.383 126.692 187.625 126.678 187.857 126.707C188.089 126.736 188.311 126.81 188.512 126.92C188.712 127.031 188.891 127.179 189.036 127.357C189.181 127.536 189.292 127.745 189.359 127.977C189.425 128.21 189.439 128.444 189.409 128.669C189.379 128.894 189.303 129.109 189.189 129.304C189.075 129.499 188.924 129.672 188.741 129.813C188.557 129.955 188.342 130.062 188.102 130.127C185.846 130.732 183.76 131.635 181.833 132.851C179.907 134.068 178.137 135.598 176.511 137.458C174.885 139.319 173.403 141.508 172.048 144.046C170.695 146.583 169.47 149.466 168.36 152.712C168.297 152.895 168.206 153.062 168.093 153.209C167.98 153.355 167.845 153.482 167.694 153.586C167.544 153.69 167.376 153.771 167.201 153.826C167.026 153.883 166.841 153.911 166.652 153.911Z" fill="#652815"/>
<path d="M90.7786 180.316C80.3839 183.358 66.7907 177.146 61.2935 173.66L90.7786 158.448L109.269 167.956C107.437 170.808 101.173 177.273 90.7786 180.316Z" fill="#CD966D"/>
<path d="M181.705 182.831C181.095 182.831 180.5 182.817 179.919 182.791C179.338 182.764 178.772 182.725 178.222 182.675C177.672 182.625 177.137 182.566 176.62 182.497C176.102 182.429 175.602 182.352 175.117 182.268C172.862 181.879 170.675 181.294 168.586 180.532C166.498 179.77 164.507 178.832 162.647 177.736C160.787 176.64 159.059 175.386 157.491 173.992C155.925 172.599 154.521 171.067 153.31 169.414C152.655 168.52 152.097 167.515 151.642 166.44C151.188 165.363 150.837 164.215 150.599 163.033C150.36 161.851 150.232 160.634 150.225 159.421C150.217 158.208 150.328 156.998 150.566 155.829C150.727 155.042 150.942 154.3 151.21 153.608C151.477 152.915 151.795 152.273 152.161 151.689C152.526 151.105 152.938 150.579 153.392 150.116C153.847 149.654 154.343 149.256 154.878 148.93C155.444 148.585 156.056 148.309 156.7 148.106C157.344 147.902 158.021 147.77 158.719 147.71C159.416 147.651 160.134 147.663 160.861 147.75C161.588 147.837 162.324 147.997 163.056 148.231C163.933 148.512 164.766 148.887 165.544 149.345C166.322 149.802 167.046 150.343 167.703 150.957C168.361 151.571 168.952 152.257 169.466 153.006C169.98 153.754 170.417 154.564 170.766 155.427C170.856 155.651 170.896 155.884 170.89 156.111C170.884 156.339 170.833 156.561 170.741 156.766C170.649 156.971 170.516 157.16 170.349 157.319C170.182 157.479 169.981 157.608 169.75 157.696C169.518 157.784 169.279 157.822 169.045 157.816C168.811 157.81 168.583 157.76 168.373 157.671C168.162 157.581 167.969 157.453 167.806 157.291C167.643 157.128 167.51 156.932 167.419 156.708C167.169 156.088 166.856 155.507 166.49 154.969C166.123 154.432 165.701 153.94 165.233 153.501C164.765 153.061 164.251 152.674 163.698 152.348C163.146 152.021 162.554 151.754 161.932 151.555C161.462 151.404 160.989 151.299 160.524 151.239C160.058 151.178 159.6 151.164 159.158 151.193C158.716 151.222 158.291 151.296 157.894 151.414C157.496 151.531 157.125 151.692 156.79 151.896C156.468 152.092 156.166 152.342 155.888 152.641C155.61 152.939 155.356 153.286 155.128 153.678C154.9 154.069 154.698 154.504 154.525 154.977C154.352 155.451 154.209 155.964 154.097 156.512C153.907 157.44 153.819 158.41 153.825 159.386C153.831 160.362 153.932 161.344 154.119 162.296C154.307 163.249 154.583 164.173 154.939 165.032C155.295 165.892 155.731 166.688 156.241 167.384C158.116 169.945 160.75 172.383 163.961 174.385C167.173 176.389 170.961 177.956 175.147 178.777C179.332 179.597 183.914 179.67 188.71 178.684C193.507 177.698 198.519 175.652 203.566 172.235C203.769 172.098 203.992 172.006 204.22 171.959C204.448 171.912 204.682 171.909 204.909 171.949C205.135 171.988 205.354 172.07 205.552 172.191C205.75 172.312 205.926 172.474 206.068 172.672C206.21 172.87 206.304 173.087 206.352 173.31C206.401 173.532 206.403 173.76 206.362 173.98C206.322 174.201 206.238 174.413 206.114 174.606C205.989 174.798 205.824 174.97 205.619 175.108C203.405 176.608 201.221 177.84 199.087 178.846C196.952 179.851 194.867 180.629 192.849 181.22C190.832 181.811 188.882 182.213 187.018 182.469C185.154 182.723 183.377 182.831 181.705 182.831Z" fill="#652815"/>
<path d="M97.215 154.178C96.1227 155.11 95.3165 156.284 94.7927 157.576C94.2681 158.869 94.0253 160.279 94.0599 161.686C94.0945 163.092 94.405 164.494 94.9886 165.768C95.5722 167.042 96.4282 168.189 97.5515 169.086C98.6747 169.982 99.8564 170.61 101.031 170.999C102.205 171.388 103.371 171.537 104.464 171.477C105.557 171.417 106.577 171.147 107.457 170.697C108.337 170.246 109.078 169.615 109.614 168.832C110.155 168.043 110.717 166.776 111.178 165.275C111.639 163.774 111.998 162.037 112.135 160.309C112.271 158.581 112.184 156.861 111.752 155.391C111.32 153.921 110.542 152.701 109.295 151.975C108.049 151.248 106.663 150.813 105.288 150.624C103.912 150.433 102.546 150.487 101.34 150.736C100.134 150.984 99.0876 151.428 98.3498 152.018C97.612 152.608 97.184 153.345 97.215 154.178Z" fill="#B07066"/>
<path d="M99.2352 152.777C99.0419 152.777 98.8524 152.75 98.6717 152.697C98.4918 152.644 98.3214 152.567 98.1666 152.467C98.0124 152.367 97.8738 152.246 97.758 152.105C97.6422 151.964 97.5493 151.805 97.4851 151.629C96.3487 148.518 95.0951 145.754 93.7087 143.323C92.323 140.892 90.8046 138.792 89.1402 137.01C87.4757 135.227 85.6638 133.761 83.6912 132.595C81.7185 131.429 79.5836 130.564 77.2731 129.983C77.0276 129.921 76.8078 129.818 76.6197 129.683C76.4317 129.548 76.2768 129.381 76.1603 129.195C76.0438 129.009 75.9671 128.802 75.9354 128.586C75.9044 128.37 75.9192 128.145 75.987 127.923C76.0549 127.7 76.1691 127.5 76.3181 127.329C76.4671 127.158 76.6507 127.017 76.8557 126.911C77.0615 126.805 77.2886 126.735 77.526 126.707C77.7635 126.678 78.0106 126.692 78.2554 126.755C80.8534 127.407 83.2671 128.384 85.5023 129.691C87.7376 130.998 89.7943 132.636 91.6792 134.612C93.5641 136.587 95.278 138.901 96.8266 141.559C98.3752 144.217 99.7587 147.22 100.984 150.574C101.064 150.794 101.091 151.018 101.072 151.234C101.053 151.451 100.987 151.661 100.882 151.852C100.776 152.044 100.63 152.217 100.45 152.361C100.27 152.505 100.057 152.618 99.8147 152.691C99.7668 152.705 99.7182 152.718 99.6695 152.729C99.6208 152.74 99.5721 152.748 99.5242 152.756C99.4755 152.763 99.4268 152.768 99.3789 152.772C99.3317 152.775 99.2831 152.777 99.2352 152.777Z" fill="#652815"/>
<path d="M83.4546 182.831C81.8344 182.831 80.1124 182.723 78.3069 182.468C76.5014 182.212 74.6122 181.809 72.6575 181.219C70.7028 180.629 68.6827 179.851 66.6144 178.845C64.5461 177.84 62.4305 176.607 60.2849 175.107C60.0877 174.969 59.9274 174.797 59.8061 174.606C59.6856 174.413 59.604 174.2 59.565 173.98C59.526 173.759 59.5281 173.532 59.5748 173.309C59.6215 173.087 59.7127 172.871 59.85 172.672C59.9873 172.474 60.1581 172.313 60.3497 172.191C60.5406 172.07 60.7525 171.988 60.972 171.949C61.1915 171.91 61.4186 171.912 61.6395 171.959C61.8611 172.006 62.0772 172.097 62.2751 172.234C67.1635 175.652 72.0192 177.698 76.6665 178.684C81.3138 179.67 85.7528 179.596 89.8071 178.776C93.8621 177.955 97.5324 176.387 100.644 174.385C103.755 172.382 106.307 169.944 108.124 167.384C108.618 166.687 109.041 165.891 109.386 165.031C109.731 164.172 109.998 163.248 110.18 162.296C110.361 161.343 110.459 160.361 110.465 159.386C110.47 158.41 110.385 157.44 110.201 156.511C110.093 155.964 109.954 155.451 109.787 154.977C109.619 154.503 109.424 154.069 109.203 153.677C108.982 153.286 108.736 152.94 108.467 152.641C108.198 152.342 107.905 152.092 107.593 151.896C107.269 151.691 106.909 151.53 106.523 151.413C106.137 151.296 105.726 151.222 105.298 151.193C104.87 151.164 104.426 151.179 103.975 151.239C103.523 151.299 103.065 151.404 102.61 151.555C102.008 151.755 101.435 152.022 100.899 152.348C100.363 152.675 99.8648 153.062 99.4118 153.501C98.9582 153.941 98.5498 154.433 98.1944 154.969C97.839 155.506 97.5359 156.088 97.2934 156.708C97.2056 156.933 97.0759 157.129 96.9178 157.291C96.7596 157.453 96.5721 157.581 96.3679 157.671C96.1638 157.76 95.9422 157.81 95.7164 157.816C95.4899 157.823 95.2593 157.784 95.0349 157.696C94.8112 157.607 94.6154 157.478 94.4537 157.319C94.292 157.16 94.1638 156.972 94.0746 156.766C93.9854 156.561 93.9352 156.338 93.9297 156.111C93.9241 155.883 93.9624 155.652 94.0502 155.426C94.3875 154.564 94.8112 153.754 95.3088 153.006C95.807 152.257 96.3798 151.571 97.0167 150.957C97.6537 150.343 98.3547 149.802 99.1087 149.345C99.8627 148.887 100.67 148.512 101.518 148.231C102.229 147.997 102.941 147.836 103.645 147.75C104.35 147.663 105.045 147.651 105.721 147.71C106.397 147.77 107.052 147.902 107.677 148.106C108.301 148.309 108.893 148.585 109.442 148.93C109.96 149.256 110.441 149.654 110.881 150.116C111.32 150.578 111.72 151.105 112.073 151.689C112.426 152.274 112.735 152.915 112.994 153.607C113.252 154.3 113.462 155.043 113.617 155.829C113.848 156.998 113.957 158.207 113.949 159.421C113.941 160.633 113.818 161.85 113.587 163.033C113.356 164.215 113.016 165.363 112.576 166.439C112.136 167.515 111.595 168.519 110.96 169.413C109.788 171.066 108.427 172.598 106.909 173.991C105.392 175.385 103.716 176.638 101.914 177.735C100.113 178.831 98.1847 179.769 96.1603 180.531C94.1366 181.292 92.0168 181.877 89.8329 182.267C89.3646 182.35 88.8789 182.427 88.3771 182.496C87.8754 182.564 87.3577 182.624 86.8246 182.674C86.2915 182.723 85.743 182.762 85.1807 182.789C84.6211 182.817 84.0448 182.831 83.4546 182.831Z" fill="#652815"/>
<path d="M93.2667 233.866C92.589 233.092 92.072 232.173 91.7162 231.178C91.3604 230.183 91.1666 229.112 91.1361 228.035C91.1055 226.959 91.2397 225.877 91.539 224.858C91.8384 223.84 92.3036 222.887 92.9362 222.068C93.5688 221.249 94.3467 220.594 95.2062 220.111C96.0658 219.629 97.0077 219.319 97.9694 219.191C98.9312 219.062 99.9122 219.114 100.85 219.355C101.788 219.597 102.683 220.028 103.473 220.656C103.964 221.048 104.381 221.534 104.719 222.083C105.057 222.631 105.315 223.243 105.49 223.887C105.665 224.53 105.756 225.205 105.759 225.879C105.761 226.554 105.676 227.228 105.496 227.871C105.318 228.514 105.056 229.12 104.729 229.68C104.401 230.24 104.008 230.753 103.563 231.208C103.119 231.664 102.624 232.064 102.095 232.396C101.566 232.728 101.004 232.993 100.423 233.182C99.8425 233.37 99.2471 233.486 98.6458 233.56C98.0444 233.633 97.4358 233.664 96.8291 233.681C96.2224 233.699 95.6164 233.704 95.0204 233.725C94.4243 233.746 93.8369 233.783 93.2667 233.866Z" fill="#B07066"/>
<path d="M99.4513 233.866C99.4112 233.866 99.3718 233.866 99.3317 233.865C99.2916 233.865 99.2515 233.865 99.2114 233.864C99.1713 233.863 99.1312 233.863 99.0904 233.861C99.0503 233.86 99.0095 233.859 98.9694 233.857C98.7268 233.849 98.4974 233.794 98.2906 233.702C98.0838 233.61 97.8988 233.481 97.7455 233.324C97.5921 233.167 97.4704 232.982 97.3888 232.778C97.3072 232.575 97.2664 232.353 97.2756 232.122C97.2847 231.891 97.3403 231.674 97.4352 231.478C97.5295 231.282 97.6624 231.108 97.8256 230.963C97.9888 230.819 98.1823 230.703 98.3968 230.625C98.6114 230.546 98.8478 230.506 99.0975 230.51C99.8178 230.532 100.498 230.483 101.128 230.364C101.759 230.246 102.34 230.058 102.862 229.805C103.385 229.553 103.85 229.236 104.247 228.857C104.645 228.479 104.975 228.04 105.23 227.544C105.447 227.122 105.595 226.683 105.677 226.239C105.759 225.796 105.774 225.347 105.726 224.91C105.677 224.471 105.563 224.043 105.386 223.639C105.209 223.234 104.969 222.853 104.667 222.51C104.235 222.02 103.697 221.623 103.066 221.323C102.434 221.022 101.709 220.817 100.906 220.71C100.102 220.603 99.2191 220.594 98.2709 220.683C97.3227 220.773 96.3091 220.963 95.2434 221.254C95.0211 221.314 94.796 221.331 94.5779 221.309C94.3605 221.288 94.1502 221.228 93.9582 221.134C93.7662 221.041 93.5917 220.914 93.4461 220.759C93.3005 220.603 93.183 220.419 93.1042 220.212C93.0255 220.004 92.9924 219.791 93.0008 219.583C93.0085 219.374 93.0578 219.17 93.1429 218.981C93.228 218.792 93.3497 218.618 93.5024 218.469C93.6557 218.321 93.84 218.197 94.0525 218.108C95.7069 217.417 96.9379 216.422 97.8489 215.268C98.7598 214.114 99.3493 212.801 99.7214 211.476C100.093 210.152 100.246 208.814 100.283 207.611C100.321 206.408 100.241 205.339 100.148 204.55C99.879 202.265 99.2396 199.868 98.2829 197.531C97.3269 195.193 96.0544 192.916 94.5202 190.87C92.9861 188.824 91.1902 187.01 89.1875 185.599C87.1849 184.188 84.9754 183.181 82.6126 182.749C82.3741 182.705 82.1561 182.617 81.9661 182.496C81.7762 182.375 81.6144 182.221 81.4885 182.043C81.3619 181.865 81.2718 181.665 81.224 181.453C81.1762 181.24 81.172 181.014 81.217 180.787C81.2627 180.56 81.3548 180.353 81.4821 180.172C81.6095 179.991 81.7719 179.838 81.9584 179.718C82.1448 179.598 82.3551 179.511 82.5781 179.466C82.8011 179.42 83.0374 179.416 83.2752 179.458C86.0671 179.969 88.6585 181.11 90.9946 182.699C93.3307 184.288 95.4115 186.326 97.1813 188.629C98.9519 190.932 100.412 193.5 101.507 196.152C102.603 198.805 103.333 201.54 103.644 204.177C103.801 205.511 103.849 206.797 103.794 208.026C103.738 209.256 103.578 210.429 103.319 211.536C103.059 212.643 102.7 213.685 102.245 214.651C101.791 215.618 101.241 216.509 100.6 217.317C101.308 217.369 101.986 217.472 102.629 217.626C103.272 217.779 103.879 217.984 104.448 218.238C105.017 218.493 105.547 218.797 106.034 219.15C106.521 219.504 106.965 219.907 107.362 220.358C107.887 220.954 108.305 221.614 108.616 222.312C108.925 223.011 109.126 223.75 109.216 224.503C109.305 225.256 109.282 226.025 109.146 226.785C109.009 227.545 108.758 228.296 108.389 229.015C107.997 229.78 107.495 230.465 106.899 231.064C106.304 231.662 105.615 232.173 104.849 232.588C104.083 233.002 103.24 233.322 102.335 233.538C101.43 233.754 100.464 233.866 99.4513 233.866Z" fill="#652815"/>
<path d="M101.079 233.699C90.7717 234.349 73.8113 235 70.0698 235L70.0698 231.757C73.6802 231.757 90.5388 231.111 100.817 230.464L101.079 233.699Z" fill="#652815"/>
<path d="M36.4706 211.084L36.5186 211.175C36.9886 212.121 36.6153 213.268 35.6536 213.777C34.6918 214.285 33.4945 213.968 32.9282 213.073L32.8751 212.985L29.3646 206.747L32.9602 204.847L36.4706 211.084ZM30.1817 204.055C31.1745 203.53 32.4186 203.884 32.9602 204.847L29.3646 206.747C28.8232 205.785 29.189 204.58 30.1817 204.055ZM43.6817 133.429C44.1824 132.498 45.3541 132.101 46.35 132.544C47.378 133.001 47.8295 134.178 47.3584 135.175L46.9271 136.094C44.6395 141.008 40.4786 150.488 38.9903 155.845C37.4135 161.522 36.8155 169.243 36.7197 172.399L36.7015 173L36.3426 173.489C35.281 174.939 33.6594 177.213 32.25 179.313C31.5443 180.365 30.9037 181.356 30.4159 182.17C30.245 182.455 30.0977 182.711 29.9754 182.934C30.5567 183.252 31.3518 183.584 32.3106 183.989C33.2575 184.39 34.4582 184.899 35.3068 185.491C35.7171 185.777 36.3078 186.256 36.638 186.974C37.0298 187.827 36.9355 188.744 36.4432 189.505L36.3392 189.655C35.6192 190.632 34.5306 191.671 33.5561 192.521C33.012 192.996 32.4673 193.441 31.9832 193.822L33.159 198.836L33.1802 198.936C33.3663 199.971 32.6846 200.976 31.6164 201.211C30.548 201.446 29.4848 200.825 29.1915 199.815L29.1658 199.715L27.4083 192.223L28.471 191.45C29.0115 191.058 29.9147 190.358 30.8165 189.571C31.3157 189.136 31.7809 188.701 32.1752 188.297C31.7755 188.102 31.2733 187.881 30.6725 187.627C29.733 187.23 28.5344 186.74 27.6368 186.206C27.1922 185.942 26.6496 185.57 26.2376 185.063C25.7898 184.512 25.3718 183.624 25.6828 182.569L25.7239 182.441C25.9442 181.785 26.4127 180.947 26.8741 180.177C27.4114 179.28 28.0939 178.226 28.8167 177.149C30.1137 175.216 31.5779 173.154 32.6477 171.681C32.7978 168.102 33.4327 160.584 35.0359 154.813C36.7249 148.733 41.4965 138.043 43.6349 133.521L43.6817 133.429ZM57.0584 110.424C57.8906 109.751 59.1297 109.823 59.8729 110.603C60.616 111.383 60.5907 112.586 59.8329 113.337L59.7575 113.408L52.6989 119.722C53.391 119.48 54.1948 119.609 54.7758 120.123C55.611 120.863 55.6698 122.118 54.9072 122.928L48.764 129.449C48.0014 130.258 46.7063 130.315 45.8712 129.576C45.036 128.837 44.9772 127.581 45.7398 126.772L51.5774 120.575C50.8009 120.901 49.8642 120.737 49.2576 120.1C48.4905 119.295 48.5426 118.039 49.3736 117.295L56.9796 110.491L57.0584 110.424Z" fill="#652815"/>
</svg>
