<svg width="120" height="120" viewBox="0 0 120 120" fill="none" xmlns="http://www.w3.org/2000/svg">
<g clip-path="url(#clip0_199_12398)">
<path d="M118.205 74.5096C110.189 106.67 77.6053 126.219 45.4912 118.202C13.3302 110.186 -6.21944 77.6038 1.79759 45.4902C9.81415 13.3302 42.3501 -6.21944 74.511 1.7976C106.625 9.76728 126.222 42.3492 118.205 74.5096Z" fill="url(#paint0_linear_199_12398)"/>
<path d="M88.5684 52.5234C89.7402 44.5547 83.6934 40.2422 75.3496 37.3828L78.0684 26.5547L71.5059 24.9141L68.8809 35.4609C67.1465 35.0391 65.3652 34.6172 63.584 34.2422L66.209 23.6484L59.6465 22.0078L56.9746 32.7891C55.5215 32.4609 54.1152 32.1328 52.7559 31.8047V31.7578L43.6621 29.5078L41.9277 36.5391C41.9277 36.5391 46.8027 37.6641 46.709 37.7109C49.3809 38.3672 49.8496 40.1484 49.7559 41.5547L46.6621 53.8828C46.8496 53.9297 47.084 53.9766 47.3652 54.1172C47.1309 54.0703 46.8965 54.0234 46.6621 53.9297L42.3496 71.1797C42.0215 71.9766 41.1777 73.1953 39.3496 72.7266C39.3965 72.8203 34.5684 71.5547 34.5684 71.5547L31.2871 79.1016L39.8652 81.2578C41.459 81.6797 43.0059 82.0547 44.5527 82.4766L41.834 93.3984L48.3965 95.0391L51.1152 84.2109C52.8965 84.6797 54.6777 85.1484 56.3652 85.5703L53.6934 96.3516L60.2559 97.9922L62.9746 87.0703C74.2246 89.1797 82.6621 88.3359 86.1777 78.1641C89.0371 70.0078 86.0371 65.2734 80.1309 62.1797C84.4902 61.1953 87.7246 58.3359 88.5684 52.5234ZM73.5215 73.6172C71.5059 81.7734 57.7246 77.3672 53.2715 76.2422L56.8809 61.7578C61.334 62.8828 75.6777 65.0859 73.5215 73.6172ZM75.584 52.3828C73.709 59.8359 62.2715 56.0391 58.5684 55.1016L61.8496 41.9766C65.5527 42.9141 77.5059 44.6484 75.584 52.3828Z" fill="white"/>
</g>
<defs>
<linearGradient id="paint0_linear_199_12398" x1="5996.76" y1="-2.88" x2="5996.76" y2="11998.8" gradientUnits="userSpaceOnUse">
<stop stop-color="#F9AA4B"/>
<stop offset="1" stop-color="#F7931A"/>
</linearGradient>
<clipPath id="clip0_199_12398">
<rect width="120" height="120" fill="white"/>
</clipPath>
</defs>
</svg>
