<svg width="24" height="24" viewBox="0 0 24 24" fill="none" xmlns="http://www.w3.org/2000/svg">
<path d="M15.0265 8.91809C15.3211 8.67778 15.7558 8.69524 16.0304 8.96984C16.305 9.24445 16.3225 9.67917 16.0821 9.97375L16.0304 10.0304L11.0304 15.0304C10.7558 15.305 10.3211 15.3225 10.0265 15.0821L9.96984 15.0304L7.96984 13.0304L7.91809 12.9737C7.67778 12.6792 7.69524 12.2444 7.96984 11.9698C8.24445 11.6952 8.67917 11.6778 8.97375 11.9181L9.03039 11.9698L10.5001 13.4396L14.9698 8.96984L15.0265 8.91809Z" fill="#BF7805"/>
<path d="M1.25 12C1.25 10.0432 1.77337 8.20597 2.68848 6.62402C2.89587 6.26583 3.3545 6.14359 3.71289 6.35059C4.07144 6.55799 4.19471 7.01743 3.9873 7.37598C3.20078 8.73572 2.75 10.314 2.75 12C2.75 17.1086 6.89137 21.25 12 21.25C17.1086 21.25 21.25 17.1086 21.25 12C21.25 6.89137 17.1086 2.75 12 2.75C10.314 2.75 8.73572 3.20078 7.37598 3.9873C7.01743 4.19471 6.55799 4.07144 6.35059 3.71289C6.14359 3.3545 6.26583 2.89587 6.62402 2.68848C8.20597 1.77337 10.0432 1.25 12 1.25C17.9371 1.25 22.75 6.06294 22.75 12C22.75 17.9371 17.9371 22.75 12 22.75C6.06294 22.75 1.25 17.9371 1.25 12Z" fill="#BF7805"/>
</svg>