<svg width="102" height="120" viewBox="0 0 102 120" fill="none" xmlns="http://www.w3.org/2000/svg">
<g clip-path="url(#clip0_199_12380)">
<path d="M86.2917 9.34051C80.755 3.02978 70.7465 0.324219 57.9427 0.324219L20.7824 0.324219C19.5155 0.324023 18.2902 0.775892 17.3267 1.59854C16.3633 2.4212 15.725 3.56063 15.5267 4.8119L0.0538242 102.944C-0.253725 104.88 1.24469 106.632 3.20601 106.632H26.1475L31.9091 70.0871L31.7302 71.2315C32.1407 68.6483 34.35 66.743 36.9661 66.743H47.8679C69.2843 66.743 86.0537 58.0442 90.9522 32.8804C91.0977 32.1361 91.2236 31.4118 91.3325 30.7041C90.7142 30.3767 90.7142 30.3767 91.3325 30.7041C92.7912 21.4033 91.3226 15.0723 86.2917 9.34051Z" fill="#27346A"/>
<path d="M40.6873 27.3536C41.3144 27.0545 42.0004 26.8997 42.6951 26.9006H71.8281C75.2779 26.9006 78.4957 27.1251 81.4361 27.5984C82.2589 27.7297 83.0774 27.8863 83.8905 28.0681C85.0429 28.3224 86.1821 28.6336 87.3038 29.0006C88.7493 29.4834 90.0955 30.0457 91.3329 30.7041C92.7912 21.3997 91.3226 15.0723 86.2917 9.34051C80.7518 3.02978 70.7465 0.324219 57.9427 0.324219L20.7793 0.324219C18.1627 0.324219 15.9367 2.22912 15.5267 4.8119L0.0538263 102.941C-0.253723 104.879 1.24469 106.629 3.20283 106.629H26.1475L38.101 30.8265C38.2186 30.0814 38.5154 29.3761 38.966 28.7712C39.4165 28.1662 40.0072 27.6798 40.6873 27.3536Z" fill="#27346A"/>
<path d="M90.9526 32.8804C86.054 58.0407 69.285 66.743 47.8682 66.743H36.9633C34.3471 66.743 32.1375 68.6483 31.731 71.2315L24.5632 116.671C24.2954 118.364 25.605 119.899 27.3184 119.899H46.6575C47.7653 119.898 48.8366 119.503 49.6789 118.783C50.5211 118.064 51.0789 117.067 51.252 115.973L51.4404 114.987L55.0853 91.887L55.3201 90.6103C55.4932 89.5162 56.051 88.5197 56.8932 87.8001C57.7353 87.0805 58.8066 86.6849 59.9143 86.6845H62.8086C81.5425 86.6845 96.2115 79.0736 100.498 57.062C102.287 47.8633 101.362 40.1833 96.6283 34.7889C95.1927 33.155 93.4098 31.8056 91.3328 30.7041C91.2204 31.4154 91.0984 32.1362 90.9526 32.8804Z" fill="#2790C3"/>
<path d="M86.2058 28.6603C85.442 28.4373 84.671 28.2398 83.8941 28.0682C83.0805 27.8894 82.262 27.7338 81.4396 27.6017C78.496 27.1253 75.2807 26.9004 71.8277 26.9004H42.6983C42.0032 26.8992 41.3168 27.0553 40.6905 27.357C40.0095 27.6819 39.418 28.168 38.9672 28.7732C38.5165 29.3783 38.2201 30.0843 38.1037 30.8298L31.9122 70.0873L31.7334 71.2317C32.1407 68.6485 34.35 66.7432 36.9665 66.7432H47.8714C69.2878 66.7432 86.0568 58.0444 90.9554 32.8805C91.1012 32.1363 91.2236 31.4151 91.336 30.7042C90.0958 30.0499 88.7527 29.4832 87.3069 29.004C86.9421 28.883 86.5751 28.7684 86.2062 28.6603" fill="#1F264F"/>
</g>
<defs>
<clipPath id="clip0_199_12380">
<rect width="101.722" height="120" fill="white"/>
</clipPath>
</defs>
</svg>
