<svg width="325" height="56" viewBox="0 0 325 56" fill="none" xmlns="http://www.w3.org/2000/svg">
<g clip-path="url(#clip0_269_13308)">
<path d="M24.8288 7.19321C23.2363 9.07757 20.6879 10.5644 18.1398 10.3518C17.8213 7.80391 19.0687 5.09626 20.5287 3.42396C22.1211 1.48652 24.9084 0.106161 27.1646 0C27.43 2.65429 26.3946 5.25551 24.8288 7.19321ZM27.1383 10.8563C23.4487 10.644 20.2901 12.953 18.5382 12.953C16.76 12.953 14.0789 10.9625 11.1592 11.0155C7.36365 11.0686 3.83327 13.2184 1.89556 16.6426C-2.08601 23.4908 0.860488 33.6305 4.7091 39.2045C6.59372 41.965 8.84991 44.9908 11.8227 44.8847C14.6365 44.7785 15.7512 43.0534 19.1489 43.0534C22.5728 43.0534 23.5551 44.8847 26.5279 44.8316C29.6068 44.7785 31.5445 42.0714 33.4291 39.3107C35.5789 36.1787 36.455 33.126 36.5081 32.9667C36.455 32.9137 30.5625 30.6577 30.5094 23.8624C30.4564 18.1822 35.1545 15.4748 35.3668 15.3156C32.7123 11.3871 28.5717 10.9625 27.1383 10.8563ZM48.4528 3.15856V44.5399H54.8761V30.3923H63.7681C71.8903 30.3923 77.5972 24.8183 77.5972 16.749C77.5972 8.68 71.9964 3.15882 63.9805 3.15882L48.4528 3.15856ZM54.8761 8.57357H62.2816C67.8559 8.57357 71.041 11.5464 71.041 16.7753C71.041 22.0043 67.8559 25.0039 62.2551 25.0039H54.8761V8.57357ZM89.3291 44.8581C93.3637 44.8581 97.1062 42.8145 98.805 39.5761H98.9377V44.5396H104.884V23.942C104.884 17.9699 100.106 14.121 92.753 14.121C85.9314 14.121 80.8882 18.023 80.7024 23.3846H86.489C86.9667 20.8365 89.3288 19.1642 92.5673 19.1642C96.4958 19.1642 98.6989 20.9958 98.6989 24.3669V26.6494L90.6826 27.1271C83.224 27.5783 79.1896 30.6309 79.1896 35.9398C79.1896 41.3015 83.3567 44.8581 89.3291 44.8581ZM91.0542 39.9476C87.6305 39.9476 85.4537 38.3021 85.4537 35.7803C85.4537 33.1793 87.5506 31.6663 91.5587 31.4274L98.6989 30.9762V33.3118C98.6989 37.1872 95.4076 39.9476 91.0545 39.9476M112.82 55.794C119.084 55.794 122.031 53.4054 124.605 46.1589L135.886 14.5191H129.356L121.792 38.9654H121.659L114.094 14.5191H107.379L118.261 44.6458L117.677 46.4773C116.695 49.5828 115.103 50.7774 112.263 50.7774C111.758 50.7774 110.776 50.7243 110.378 50.6712V55.6348C110.749 55.741 112.342 55.794 112.82 55.794" fill="black"/>
</g>
<path d="M159.887 29.3998L154.987 34.2998C154.803 34.4831 154.57 34.5748 154.287 34.5748C154.003 34.5748 153.77 34.4831 153.587 34.2998C153.403 34.1165 153.312 33.8831 153.312 33.5998C153.312 33.3165 153.403 33.0831 153.587 32.8998L158.487 27.9998L153.587 23.0998C153.403 22.9165 153.312 22.6831 153.312 22.3998C153.312 22.1165 153.403 21.8831 153.587 21.6998C153.77 21.5165 154.003 21.4248 154.287 21.4248C154.57 21.4248 154.803 21.5165 154.987 21.6998L159.887 26.5998L164.787 21.6998C164.97 21.5165 165.203 21.4248 165.487 21.4248C165.77 21.4248 166.003 21.5165 166.187 21.6998C166.37 21.8831 166.462 22.1165 166.462 22.3998C166.462 22.6831 166.37 22.9165 166.187 23.0998L161.287 27.9998L166.187 32.8998C166.37 33.0831 166.462 33.3165 166.462 33.5998C166.462 33.8831 166.37 34.1165 166.187 34.2998C166.003 34.4831 165.77 34.5748 165.487 34.5748C165.203 34.5748 164.97 34.4831 164.787 34.2998L159.887 29.3998Z" fill="#7B7D7D"/>
<g clip-path="url(#clip1_269_13308)">
<path d="M283.513 15.1135C287.377 15.1135 290.363 16.1673 292.646 18.275C294.929 20.3824 295.983 23.1926 295.983 26.7052V43.5656H291.065V39.7022H290.89C288.782 42.8637 285.796 44.4443 282.284 44.4443C279.298 44.4443 276.663 43.5659 274.556 41.8099C272.624 40.0535 271.395 37.5948 271.395 34.9603C271.395 32.15 272.448 29.8668 274.556 28.1104C276.663 26.3541 279.649 25.6517 283.162 25.6517C286.323 25.6517 288.782 26.1787 290.714 27.408V26.1787C290.714 24.5393 290.102 22.9003 288.878 21.8321L288.606 21.6123C287.201 20.3827 285.445 19.6803 283.513 19.6803C280.528 19.6803 278.244 20.9097 276.663 23.3686L272.097 20.5579C274.907 16.8695 278.595 15.1135 283.513 15.1135ZM258.749 3.17041C261.901 3.17041 264.895 4.26708 267.29 6.31217L267.706 6.68276C270.165 8.79045 271.395 11.952 271.395 15.2889C271.395 18.6259 270.165 21.6117 267.706 23.8948C265.248 26.1779 262.262 27.4074 258.749 27.4074L250.319 27.2317V43.5656H245.05V3.17041H258.749ZM284.215 29.8665C282.108 29.8665 280.352 30.3934 278.947 31.4471C277.542 32.3252 276.839 33.5545 276.839 35.1352C276.839 36.5404 277.542 37.7696 278.595 38.4724C279.825 39.3505 281.23 39.8773 282.635 39.8773C284.602 39.8773 286.569 39.1122 288.108 37.7252L288.431 37.4185C290.187 35.8379 291.065 33.9059 291.065 31.7982C289.485 30.569 287.201 29.8662 284.216 29.8662M259.101 8.0877H250.319V22.139H259.101C261.033 22.139 262.965 21.4366 264.194 20.0316C267.004 17.3972 267.004 13.0064 264.37 10.3716L264.194 10.1959C262.789 8.791 261.033 7.91284 259.101 8.08853M324.435 15.9917L307.048 55.8601H301.779L308.277 41.9853L296.861 16.1674H302.481L310.736 36.0136H310.912L318.991 16.1674H324.435V15.9917Z" fill="#5F6368"/>
<path d="M229.419 23.7194C229.419 22.1388 229.243 20.5582 229.068 18.9775H207.114V27.9348H219.584C219.057 30.7447 217.476 33.3791 215.018 34.96V40.7558H222.57C226.96 36.7164 229.419 30.7447 229.419 23.7197" fill="#4285F4"/>
<path d="M207.114 46.3762C213.437 46.3762 218.705 44.2685 222.569 40.7558L215.017 34.9601C212.91 36.3651 210.275 37.2432 207.114 37.2432C201.142 37.2432 195.873 33.2038 194.117 27.5835H186.39V33.5549C190.429 41.4583 198.332 46.3762 207.114 46.3762Z" fill="#34A853"/>
<path d="M194.117 27.5835C193.064 24.7733 193.064 21.612 194.117 18.6262V12.6548H186.39C183.052 19.1533 183.052 26.881 186.39 33.5549L194.117 27.5835Z" fill="#FBBC04"/>
<path d="M207.114 9.14237C210.451 9.14237 213.613 10.3719 216.072 12.655L222.746 5.98111C218.53 2.11711 212.91 -0.165985 207.29 0.0094268C198.508 0.0094268 190.429 4.92727 186.565 12.8307L194.293 18.8021C195.874 13.1818 201.143 9.14237 207.114 9.14237Z" fill="#EA4335"/>
</g>
<defs>
<clipPath id="clip0_269_13308">
<rect width="135.886" height="56" fill="white"/>
</clipPath>
<clipPath id="clip1_269_13308">
<rect width="140.549" height="56" fill="white" transform="translate(183.887)"/>
</clipPath>
</defs>
</svg>
