<svg width="120" height="120" viewBox="0 0 120 120" fill="none" xmlns="http://www.w3.org/2000/svg">
<g clip-path="url(#clip0_199_12389)">
<path d="M13.3333 16.6665C9.79711 16.6665 6.40573 18.0713 3.90524 20.5717C1.40476 23.0722 0 26.4636 0 29.9998L0 89.9998C0 93.536 1.40476 96.9274 3.90524 99.4279C6.40573 101.928 9.79711 103.333 13.3333 103.333H106.667C110.203 103.333 113.594 101.928 116.095 99.4279C118.595 96.9274 120 93.536 120 89.9998V29.9998C120 29.9998 120 16.6665 106.667 16.6665L13.3333 16.6665Z" fill="#FFAC33"/>
<path d="M0 33.3335L120 33.3335V50.0002H0L0 33.3335Z" fill="#292F33"/>
<path d="M13.333 63.3335L106.666 63.3335V83.3335H13.333V63.3335Z" fill="#F4F7F9"/>
<path d="M63.3337 79.9998C57.657 79.9998 55.5304 75.9665 55.1037 73.9965C53.2804 74.1332 51.5037 75.0065 49.087 76.5432C46.537 78.1632 43.647 79.9998 40.0004 79.9998C36.0104 79.9998 33.587 77.7498 33.3337 73.3332C33.3237 73.1465 33.4604 72.7065 33.4037 72.7065C27.2104 72.7065 22.7304 78.5765 22.687 78.6365C22.429 78.9902 22.1037 79.2894 21.7297 79.517C21.3556 79.7446 20.9404 79.896 20.5076 79.9626C20.0749 80.0292 19.6333 80.0097 19.2082 79.9051C18.7831 79.8005 18.3828 79.6129 18.0304 79.3532C17.6773 79.0943 17.3786 78.7684 17.1515 78.3941C16.9244 78.0198 16.7733 77.6044 16.7067 77.1716C16.6402 76.7389 16.6595 76.2973 16.7637 75.872C16.8678 75.4468 17.0547 75.0462 17.3137 74.6932C17.5704 74.3432 23.7004 66.6665 33.3337 66.6665C39.7904 66.6665 40.1604 71.2498 40.2604 72.9598L40.2837 73.3232C41.9037 73.2098 43.587 72.1432 45.517 70.9132C48.7204 68.8798 52.6937 66.3432 58.017 67.7065C60.9204 68.4498 61.3737 71.1432 61.547 72.1598C61.5904 72.4132 61.6537 72.7932 61.7104 72.9132C61.7337 72.9132 62.197 73.2165 63.6337 73.3465C66.367 73.5965 69.3704 72.4165 72.5504 71.1698C75.8437 69.8765 79.2504 68.5432 82.9204 68.5432C94.217 68.5432 98.8104 73.9932 99.297 74.6132C99.577 74.9569 99.7855 75.3529 99.9105 75.7782C100.036 76.2035 100.074 76.6494 100.025 77.0899C99.9756 77.5304 99.8388 77.9566 99.6226 78.3436C99.4065 78.7306 99.1153 79.0706 98.7662 79.3437C98.4171 79.6168 98.017 79.8175 97.5893 79.9341C97.1617 80.0507 96.715 80.0809 96.2756 80.0228C95.8362 79.9647 95.4127 79.8195 95.0301 79.5958C94.6474 79.3721 94.3132 79.0743 94.047 78.7198C93.967 78.6298 90.947 75.2065 82.9237 75.2065C80.5137 75.2065 77.8304 76.2565 74.987 77.3698C71.6237 78.6898 66.8737 79.9998 63.3337 79.9998Z" fill="#8899A6"/>
</g>
<defs>
<clipPath id="clip0_199_12389">
<rect width="120" height="120" fill="white"/>
</clipPath>
</defs>
</svg>
