<svg width="532" height="140" viewBox="0 0 532 140" fill="none" xmlns="http://www.w3.org/2000/svg">
<g clip-path="url(#clip0_200_14167)">
<rect width="532" height="140" rx="20" fill="#F7E5D7"/>
<path d="M265.998 124.097C239.69 124.097 218.364 119.099 218.364 112.933C218.364 106.767 239.69 101.769 265.998 101.769C292.306 101.769 313.633 106.767 313.633 112.933C313.633 119.099 292.306 124.097 265.998 124.097Z" fill="#EBD7C7"/>
<path d="M297.775 65.2739C297.775 65.2739 309.536 66.3216 311.61 68.122C313.685 69.9227 313.238 73.819 313.238 73.819L313.441 107.796C313.441 107.796 311.944 111.75 305.168 113.086C298.391 114.422 280.007 117.088 271.936 117.088C263.865 117.088 244.402 116.409 244.402 116.409C244.402 116.409 229.859 114.284 225.887 112.883C221.915 111.481 219.105 110.416 219.105 108.474C219.105 106.532 218.902 70.2923 218.902 70.2923C218.902 70.2923 219.832 67.057 224.734 66.5622C229.636 66.0675 297.775 65.2739 297.775 65.2739Z" fill="#D77E56"/>
<path d="M219.032 85.3193C219.032 98.0983 313.258 98.0983 313.258 85.3193V95.1791C313.258 107.958 219.032 107.958 219.032 95.1791V85.3193Z" fill="#DADEE0"/>
<path d="M303.371 72.407C304.532 67.3052 302.11 61.9255 298.449 58.1881C294.787 54.4508 290.022 52.0346 285.372 49.6375C280.721 47.2404 275.779 44.0492 272.268 40.1702C269.035 36.5979 267.945 33.0125 264.286 29.8765C261.855 27.792 256.341 25.1102 253.261 24.2335C240.509 20.6037 225.911 27.272 219.907 33.2751C217.693 35.4892 219.245 41.5261 219.458 44.65C219.672 47.774 221.127 52.222 223.793 53.8646C225.179 54.7184 228.79 55.9265 230.062 56.9419C230.78 57.5145 232.182 60.2979 231.986 63.3869C231.79 66.4761 230.474 69.3682 229.178 72.1799C250.199 79.04 272.96 76.8506 294.956 74.5872C297.743 74.3005 300.571 74.0038 303.371 72.407Z" fill="#CD966D"/>
<path d="M261.088 28.4349C263.65 25.5921 263.573 18.6156 255.647 16.2826C247.004 13.7383 243.495 20.8414 243.98 23.4165C245.251 30.1838 258.576 31.2221 261.088 28.4349Z" fill="#FF9D47"/>
<path d="M260.322 76.3565C257.931 76.4068 255.536 76.2449 253.174 75.8735C253.254 80.0293 253.263 84.1862 253.202 88.3425C253.191 89.0462 253.136 89.8441 252.593 90.2919C252.194 90.6206 251.639 90.6635 251.122 90.6855C243.052 91.0334 234.902 89.8952 227.297 87.1709C225.862 86.6567 224.358 86.0174 223.515 84.7468C222.793 83.6588 222.68 82.2912 222.588 80.9888C222.413 78.4936 222.237 75.9834 222.494 73.4949C222.75 71.0065 223.464 68.5169 224.92 66.4829C236.14 64.6593 247.553 67.2817 258.617 69.8883C258.991 72.0997 259.366 74.3108 260.322 76.3565Z" fill="white"/>
<path d="M258.064 71.0887C258.367 71.9422 257.871 72.9943 257.02 73.304C256.041 73.6606 254.974 73.0951 253.932 73.1127C253.645 73.1177 253.324 73.1888 253.167 73.4294C253.053 73.6039 253.052 73.8263 253.055 74.0346C253.065 74.7539 253.076 75.4731 253.086 76.1926C255.235 76.6115 257.463 76.6165 259.613 76.2073C259.311 75.2686 259.411 74.2538 259.309 73.2728C259.208 72.2912 258.81 71.2262 258.064 71.0887Z" fill="#DADEE0"/>
<path d="M270.901 33.7669C271.523 34.0372 272.156 34.371 272.498 34.9168C272.852 35.4803 272.835 36.1743 272.726 36.8162C272.598 37.5657 272.352 38.314 271.867 38.9298C271.275 39.6807 270.377 40.1773 269.477 40.6021C268.811 40.9162 268.107 41.2085 267.358 41.2349C266.704 41.2581 266.061 41.076 265.457 40.8459C264.327 40.4155 263.245 39.78 262.59 38.8364C262.172 38.2359 261.948 37.5401 261.799 36.8421C261.636 36.082 261.558 35.2944 261.72 34.5343C261.883 33.7743 262.309 33.0395 263 32.59C263.692 32.1399 269.14 33.0019 270.901 33.7669Z" fill="#B07066"/>
<path d="M253.463 37.0515C240.312 39.5973 249.547 52.5331 258.3 46.9989C262.335 44.4479 262.01 35.3972 253.463 37.0515Z" fill="#B07066"/>
<path d="M235.55 59.2584C238.088 60.4131 243.347 48.1671 240.485 39.2292C238.177 32.0215 223.378 29.8048 220.046 33.1376C217.417 35.7662 219.408 49.0235 221.909 52.5584C223.576 54.9129 231.271 57.3117 235.55 59.2584Z" fill="#B07066"/>
<path opacity="0.9412" d="M257.147 23.1101C258.419 21.4863 258.018 17.8464 253.515 17.0585C248.604 16.1988 247.028 20.0993 247.428 21.4178C248.478 24.8834 255.901 24.7022 257.147 23.1101Z" fill="#FFB55B"/>
<path d="M258.381 40.2837C258.681 39.9008 258.587 39.0427 257.525 38.8567C256.367 38.654 255.995 39.5735 256.09 39.8844C256.337 40.7014 258.087 40.6588 258.381 40.2837Z" fill="#EDAE84"/>
<path d="M312.885 70.4615C311.926 69.8548 310.858 69.3692 309.726 69.2951C308.594 69.2211 307.39 69.6133 306.684 70.5012C306.292 70.9939 306.012 71.657 305.419 71.8526C304.769 72.1658 304.118 72.4793 303.467 72.7925C303.734 70.5687 303.711 68.31 303.4 66.0919C305.396 66.0363 307.448 65.9887 309.327 66.6665C311.206 67.344 312.9 68.9229 312.885 70.4615Z" fill="#C7543A"/>
<path d="M267.364 42.2198C270.178 42.2198 271.799 40.7323 272.358 40.1018C273.863 38.4045 274.234 36.0744 273.24 34.5611C272.273 33.0886 270.424 32.6987 268.282 32.2472C266.708 31.9155 264.924 31.5391 263.09 30.6859C262.722 30.5152 262.285 30.6742 262.114 31.042C261.943 31.4098 262.102 31.8467 262.47 32.0177C264.457 32.942 266.328 33.3366 267.979 33.6844C269.878 34.0849 271.377 34.401 272.012 35.3676C272.628 36.3048 272.297 37.9565 271.259 39.1273C269.512 41.0969 266.456 41.272 263.083 39.595C262.72 39.4143 262.279 39.5624 262.099 39.9258C261.918 40.2889 262.066 40.7299 262.429 40.9106C264.363 41.8716 266.003 42.2198 267.364 42.2198Z" fill="#652815"/>
<path d="M264.707 45.0335C264.873 45.0335 265.04 44.9773 265.178 44.8628C265.489 44.6028 265.531 44.1397 265.271 43.8283C264.703 43.1485 264.024 42.5576 263.254 42.0726C262.91 41.8566 262.457 41.9595 262.241 42.3029C262.025 42.6464 262.128 43.0997 262.471 43.3156C263.111 43.7187 263.674 44.2079 264.143 44.7696C264.288 44.9436 264.497 45.0335 264.707 45.0335Z" fill="#652815"/>
<path d="M262.32 46.877C262.414 46.877 262.51 46.8588 262.602 46.8206C262.976 46.6649 263.154 46.2351 262.998 45.8605C262.771 45.3143 262.46 44.8052 262.074 44.3469C261.812 44.0366 261.349 43.9972 261.039 44.259C260.728 44.5208 260.689 44.9841 260.951 45.2941C261.24 45.6372 261.473 46.0177 261.642 46.4246C261.759 46.7069 262.032 46.877 262.32 46.877Z" fill="#652815"/>
<path d="M255.814 30.611C258.302 30.611 260.572 30.1024 261.632 28.9267C263.177 27.2124 263.721 24.4953 263.017 22.0051C262.519 20.2459 260.927 17.0717 255.853 15.578C250.89 14.1173 247.758 15.6997 246.006 17.2844C243.825 19.2561 242.962 21.9854 243.256 23.5523C243.806 26.4802 246.383 28.7316 250.512 29.8915C252.15 30.3519 254.038 30.611 255.814 30.611ZM260.541 27.943C259.441 29.1638 255.088 29.6515 250.909 28.4775C248.846 27.8978 245.296 26.4517 244.7 23.2808C244.516 22.3036 245.117 20.0681 246.991 18.3738C248.465 17.0409 251.128 15.7182 255.438 16.9871C258.697 17.9463 260.886 19.8701 261.603 22.4044C262.164 24.3896 261.737 26.6157 260.541 27.943Z" fill="#652815"/>
<path d="M303.404 73.3066C303.764 73.3066 304.079 73.041 304.13 72.6738C305.304 64.2551 301.15 57.2774 291.782 51.935C290.147 51.0022 288.563 50.1963 287.031 49.4166C282.335 47.0269 277.898 44.7696 272.276 39.1467C271.989 38.8596 271.524 38.8596 271.237 39.1467C270.95 39.4334 270.95 39.8985 271.237 40.1852C277.025 45.973 281.562 48.2817 286.365 50.7258C287.881 51.4973 289.449 52.2955 291.054 53.211C299.849 58.2264 303.758 64.7063 302.675 72.4708C302.62 72.8727 302.9 73.2438 303.302 73.2996C303.336 73.3046 303.37 73.3066 303.404 73.3066Z" fill="#652815"/>
<path d="M266.579 33.1147C266.735 33.1147 266.894 33.0648 267.028 32.9611C267.348 32.7128 267.407 32.2516 267.159 31.9307C266.538 31.129 264.319 28.4196 261.831 27.2259C261.465 27.0505 261.027 27.2047 260.851 27.5702C260.676 27.936 260.83 28.3746 261.196 28.55C262.941 29.3876 264.821 31.3099 265.997 32.8294C266.142 33.0169 266.359 33.1147 266.579 33.1147Z" fill="#652815"/>
<path d="M248.753 40.0794C248.931 40.0794 249.109 40.0154 249.25 39.8855C250.494 38.7418 252.459 38.0364 254.933 37.8457C255.338 37.8146 255.64 37.4614 255.609 37.0569C255.578 36.6523 255.224 36.3491 254.82 36.3811C252.014 36.5974 249.744 37.4353 248.255 38.8044C247.957 39.0791 247.937 39.5436 248.212 39.8421C248.357 39.9995 248.554 40.0794 248.753 40.0794Z" fill="#652815"/>
<path d="M236.629 60.6396C236.861 60.6396 237.089 60.5303 237.232 60.3258C237.464 59.9932 237.383 59.5352 237.05 59.3028C235.701 58.3609 233.638 57.5542 231.454 56.6998C228.322 55.4747 224.771 54.0862 222.749 52.0637C221.791 51.1056 220.572 47.2025 219.913 42.9842C219.104 37.7972 219.491 34.725 220.235 33.9814C225.81 28.4066 234.923 24.6396 244.018 24.1498C244.423 24.1281 244.734 23.782 244.712 23.3769C244.69 22.972 244.344 22.6585 243.939 22.6829C234.497 23.1912 225.016 27.1228 219.196 32.9429C217.371 34.7679 218.075 40.7314 218.462 43.211C219.074 47.1294 220.315 51.7076 221.71 53.1026C223.95 55.3422 227.652 56.7903 230.919 58.068C233.019 58.8895 235.003 59.6657 236.209 60.5074C236.337 60.597 236.484 60.6396 236.629 60.6396Z" fill="#652815"/>
<path d="M231.572 66.4174C231.872 66.4174 232.153 66.2326 232.262 65.9347C233.321 63.0399 233.025 59.7056 231.472 57.0156C231.269 56.6642 230.82 56.5438 230.469 56.7468C230.117 56.9495 229.997 57.399 230.2 57.7501C231.538 60.0679 231.793 62.9391 230.882 65.4302C230.743 65.8113 230.939 66.2329 231.32 66.3721C231.403 66.4027 231.488 66.4174 231.572 66.4174Z" fill="#652815"/>
<path d="M235.264 54.5387C235.626 54.5387 235.941 54.2716 235.991 53.9032C236.046 53.5013 235.765 53.1311 235.363 53.0761C232.244 52.6507 226.709 51.1814 225.129 49.0508C224.981 48.8505 224.741 48.7385 224.492 48.7553C224.244 48.7714 224.02 48.9122 223.898 49.1299C223.52 49.8059 222.793 50.3629 222.243 50.3982C222.004 50.4149 221.829 50.325 221.672 50.1123C221.43 49.7865 220.969 49.718 220.644 49.9595C220.318 50.201 220.25 50.6611 220.491 50.987C220.946 51.5998 221.601 51.9127 222.337 51.8639C223.208 51.8081 224.02 51.2734 224.601 50.6391C227.067 52.896 232.438 54.1594 235.165 54.5316C235.198 54.5363 235.232 54.5387 235.264 54.5387Z" fill="#652815"/>
<path d="M224.725 50.4258C224.86 50.4258 224.997 50.3884 225.119 50.3106C225.461 50.0926 225.562 49.6387 225.344 49.2964C224.659 48.2211 224.472 45.6857 224.8 44.3639C224.898 43.9702 224.657 43.5718 224.264 43.4742C223.871 43.3767 223.472 43.6167 223.374 44.0104C223.007 45.4915 223.107 48.5196 224.105 50.0858C224.245 50.3056 224.482 50.4258 224.725 50.4258Z" fill="#652815"/>
<path d="M221.481 38.9639C221.592 38.9639 221.704 38.9387 221.81 38.8855C222.172 38.7033 222.319 38.2618 222.136 37.8995C221.521 36.6753 220.636 35.5953 219.579 34.7767C219.259 34.5282 218.797 34.587 218.549 34.9081C218.301 35.2289 218.36 35.6902 218.68 35.9384C219.565 36.6235 220.307 37.5299 220.824 38.5594C220.953 38.8156 221.212 38.9639 221.481 38.9639Z" fill="#652815"/>
<path d="M228.505 40.8366C228.641 40.8366 228.779 40.7987 228.902 40.7194C230.142 39.9205 231.826 39.3274 233.774 39.0042C234.174 38.9378 234.445 38.5594 234.379 38.1592C234.312 37.7591 233.934 37.4891 233.534 37.5549C231.39 37.9107 229.513 38.5779 228.106 39.4845C227.765 39.7043 227.667 40.1588 227.887 40.4999C228.027 40.7179 228.264 40.8366 228.505 40.8366Z" fill="#652815"/>
<path d="M247.838 91.6404C249.385 91.6404 250.731 91.5296 251.728 91.2743C253.369 90.8536 253.714 90.0592 253.714 89.4672C253.714 87.7858 253.702 86.075 253.69 84.4277C253.659 79.9079 253.628 75.6391 253.88 74.1971C253.941 73.8481 254.095 73.6395 254.351 73.5584C254.679 73.455 255.12 73.5696 255.376 73.8263C255.663 74.1134 256.128 74.1131 256.415 73.8266C256.702 73.5396 256.702 73.0745 256.415 72.7878C255.769 72.1414 254.761 71.8888 253.908 72.1576C253.125 72.4052 252.588 73.0566 252.432 73.9444C252.158 75.5171 252.188 79.6511 252.221 84.438C252.233 86.082 252.245 87.7893 252.245 89.4672C252.247 89.4507 251.813 90.1285 248.147 90.1646C239.694 90.2575 225.391 87.0336 223.747 84.0355C223.167 82.9781 222.659 74.7339 224.257 69.8586C224.723 68.4358 225.315 67.5229 225.969 67.2186C227.863 66.3369 234.853 66.393 242.966 67.3567C251.865 68.4126 257.304 69.9938 257.903 70.9454C258.308 71.5882 258.626 73.9533 258.934 76.2408L258.987 76.6333C259.041 77.0352 259.41 77.3187 259.813 77.2632C260.215 77.2088 260.497 76.8392 260.443 76.4373L260.39 76.0451C259.975 72.964 259.693 71.0315 259.146 70.1624C257.652 67.7909 246.517 66.299 243.139 65.898C236.591 65.1209 228.003 64.6517 225.349 65.8871C224.302 66.3742 223.465 67.5567 222.861 69.4015C221.253 74.3064 221.573 83.1262 222.459 84.7423C224.086 87.7097 232.422 89.629 235.931 90.3168C239.759 91.0663 244.318 91.6404 247.838 91.6404Z" fill="#652815"/>
<path d="M264.324 77.3533C270.473 77.3533 277.376 77.0939 283.752 76.5901C291.148 76.0057 303.952 74.5984 306.601 71.7371C307.196 71.0952 307.242 70.4756 307.177 70.0687C307.112 69.6685 306.737 69.3947 306.334 69.4611C305.934 69.526 305.662 69.903 305.726 70.3034C305.734 70.349 305.756 70.4879 305.524 70.7391C301.826 74.7327 268.557 76.7972 253.048 75.4995C252.644 75.4654 252.288 75.7657 252.254 76.1702C252.221 76.5745 252.521 76.9294 252.925 76.9632C256.055 77.225 260.004 77.3533 264.324 77.3533Z" fill="#652815"/>
<path d="M264.553 80.997C282.193 80.997 306.469 78.6937 312.465 73.5619C313.414 72.7487 313.928 71.8579 313.991 70.9139C314.055 69.9656 313.763 69.115 313.121 68.3861C311.658 66.7221 308.415 65.7584 303.208 65.4408C302.801 65.4194 302.455 65.7243 302.43 66.1292C302.405 66.534 302.713 66.8822 303.118 66.9069C309.01 67.2665 311.21 68.4375 312.018 69.3565C312.397 69.7869 312.563 70.2644 312.526 70.8155C312.49 71.3508 312.148 71.8993 311.509 72.4461C308.449 75.065 298.976 77.2829 285.517 78.5306C274.147 79.5848 261.1 79.8166 253.051 79.1073C252.648 79.0724 252.291 79.3703 252.255 79.7742C252.22 80.1785 252.518 80.5349 252.922 80.5704C256.119 80.8522 260.127 80.997 264.553 80.997Z" fill="#652815"/>
<path d="M222.521 75.1387C222.795 75.1387 223.057 74.9851 223.183 74.7219C223.359 74.3564 223.205 73.9174 222.839 73.7417C220.871 72.7963 219.796 71.7845 219.73 70.8155C219.62 69.1803 221.416 68.0189 225.067 67.3646C225.466 67.2929 225.732 66.9113 225.66 66.512C225.589 66.1127 225.208 65.8472 224.808 65.9185C220.298 66.7271 218.097 68.4079 218.265 70.914C218.371 72.4861 219.659 73.844 222.203 75.0662C222.306 75.1152 222.414 75.1387 222.521 75.1387Z" fill="#652815"/>
<path d="M313.258 108.324C313.663 108.324 313.992 107.995 313.992 107.589V70.8649C313.992 70.4592 313.663 70.1304 313.258 70.1304C312.852 70.1304 312.523 70.4592 312.523 70.8649V107.589C312.523 107.995 312.852 108.324 313.258 108.324Z" fill="#652815"/>
<path d="M219.033 108.324C219.439 108.324 219.768 107.995 219.768 107.589V70.8649C219.768 70.4592 219.439 70.1304 219.033 70.1304C218.627 70.1304 218.299 70.4592 218.299 70.8649V107.589C218.299 107.995 218.627 108.324 219.033 108.324Z" fill="#652815"/>
<path d="M306.574 90.8463C306.98 90.8463 307.309 90.5175 307.309 90.1118V75.6682C307.309 75.2625 306.98 74.9337 306.574 74.9337C306.168 74.9337 305.84 75.2625 305.84 75.6682V90.1115C305.84 90.5172 306.168 90.8463 306.574 90.8463Z" fill="#652815"/>
<path d="M306.574 113.116C306.98 113.116 307.309 112.787 307.309 112.381V100.442C307.309 100.036 306.98 99.7072 306.574 99.7072C306.168 99.7072 305.84 100.036 305.84 100.442V112.381C305.84 112.787 306.168 113.116 306.574 113.116Z" fill="#652815"/>
<path d="M289.482 94.3609C289.888 94.3609 290.217 94.0322 290.217 93.6264V79.5245C290.217 79.1188 289.888 78.79 289.482 78.79C289.077 78.79 288.748 79.1188 288.748 79.5245V93.6264C288.748 94.0319 289.077 94.3609 289.482 94.3609Z" fill="#652815"/>
<path d="M289.482 116.914C289.888 116.914 290.217 116.586 290.217 116.18V104.534C290.217 104.128 289.888 103.799 289.482 103.799C289.077 103.799 288.748 104.128 288.748 104.534V116.18C288.748 116.586 289.077 116.914 289.482 116.914Z" fill="#652815"/>
<path d="M225.682 90.8463C226.087 90.8463 226.416 90.5175 226.416 90.1118V86.5754C226.416 86.1696 226.087 85.8409 225.682 85.8409C225.276 85.8409 224.947 86.1696 224.947 86.5754V90.1118C224.947 90.5172 225.276 90.8463 225.682 90.8463Z" fill="#652815"/>
<path d="M225.682 113.116C226.087 113.116 226.416 112.787 226.416 112.381V100.442C226.416 100.036 226.087 99.7072 225.682 99.7072C225.276 99.7072 224.947 100.036 224.947 100.442V112.381C224.947 112.787 225.276 113.116 225.682 113.116Z" fill="#652815"/>
<path d="M266.797 95.5579C267.202 95.5579 267.531 95.2291 267.531 94.8234V80.2485C267.531 79.8427 267.202 79.514 266.797 79.514C266.391 79.514 266.062 79.8427 266.062 80.2485V94.8231C266.062 95.2291 266.391 95.5579 266.797 95.5579Z" fill="#652815"/>
<path d="M266.797 117.639C267.202 117.639 267.531 117.311 267.531 116.905V105.258C267.531 104.852 267.202 104.523 266.797 104.523C266.391 104.523 266.062 104.852 266.062 105.258V116.905C266.062 117.311 266.391 117.639 266.797 117.639Z" fill="#652815"/>
<path d="M244.762 94.361C245.167 94.361 245.496 94.0322 245.496 93.6265V90.9006C245.496 90.4949 245.167 90.1661 244.762 90.1661C244.356 90.1661 244.027 90.4949 244.027 90.9006V93.6265C244.027 94.0319 244.356 94.361 244.762 94.361Z" fill="#652815"/>
<path d="M244.762 115.772C245.167 115.772 245.496 115.444 245.496 115.038V103.953C245.496 103.548 245.167 103.219 244.762 103.219C244.356 103.219 244.027 103.548 244.027 103.953V115.038C244.027 115.444 244.356 115.772 244.762 115.772Z" fill="#652815"/>
<path d="M266.145 117.908C278.53 117.908 290.079 117.053 298.666 115.5C308.836 113.661 313.992 111 313.992 107.589C313.992 107.184 313.663 106.855 313.258 106.855C312.852 106.855 312.523 107.184 312.523 107.589C312.523 112.634 292.585 116.439 266.145 116.439C239.705 116.439 219.767 112.634 219.767 107.589C219.767 107.184 219.438 106.855 219.032 106.855C218.626 106.855 218.298 107.184 218.298 107.589C218.298 110.999 223.454 113.661 233.624 115.5C242.211 117.053 253.76 117.908 266.145 117.908Z" fill="#652815"/>
<path d="M266.145 105.498C278.53 105.498 290.079 104.643 298.666 103.09C308.836 101.251 313.992 98.5895 313.992 95.1791C313.992 94.7734 313.663 94.4446 313.258 94.4446C312.852 94.4446 312.523 94.7734 312.523 95.1791C312.523 100.224 292.585 104.029 266.145 104.029C239.705 104.029 219.767 100.224 219.767 95.1791C219.767 94.7734 219.438 94.4446 219.032 94.4446C218.626 94.4446 218.298 94.7734 218.298 95.1791C218.298 98.5892 223.454 101.251 233.624 103.09C242.211 104.642 253.76 105.498 266.145 105.498Z" fill="#652815"/>
<path d="M266.145 95.6381C278.53 95.6381 290.079 94.7832 298.666 93.2304C308.836 91.3913 313.992 88.7298 313.992 85.3194C313.992 84.9137 313.663 84.5849 313.258 84.5849C312.852 84.5849 312.523 84.9137 312.523 85.3194C312.523 90.3648 292.585 94.1691 266.145 94.1691C239.705 94.1691 219.767 90.3648 219.767 85.3194C219.767 84.9137 219.438 84.5849 219.032 84.5849C218.626 84.5849 218.298 84.9137 218.298 85.3194C218.298 88.7295 223.454 91.3913 233.624 93.2304C242.211 94.7832 253.76 95.6381 266.145 95.6381Z" fill="#652815"/>
<path d="M298.218 70.1401C298.3 70.1401 298.384 70.126 298.466 70.0972C298.848 69.9603 299.047 69.5402 298.91 69.1583C298.49 67.9831 297.985 66.8314 297.409 65.7353C297.22 65.3759 296.776 65.2381 296.417 65.4265C296.058 65.6151 295.92 66.059 296.108 66.418C296.652 67.454 297.13 68.5422 297.527 69.653C297.634 69.9527 297.917 70.1401 298.218 70.1401Z" fill="#652815"/>
<path d="M295.219 63.3954C295.313 63.3954 295.409 63.3769 295.501 63.3387C295.876 63.1824 296.052 62.7523 295.896 62.3777C295.417 61.2281 294.854 60.1076 294.224 59.0476C294.017 58.6985 293.566 58.5839 293.217 58.7914C292.869 58.9985 292.754 59.4495 292.961 59.7979C293.556 60.7989 294.088 61.8571 294.541 62.9433C294.658 63.2253 294.931 63.3954 295.219 63.3954Z" fill="#652815"/>
<path d="M299.561 65.4573C299.662 65.4573 299.765 65.4362 299.863 65.3915C300.233 65.2243 300.397 64.7892 300.229 64.4196C299.732 63.3208 299.179 62.2538 298.584 61.2481C298.377 60.8988 297.927 60.7839 297.578 60.9896C297.229 61.1961 297.113 61.6465 297.32 61.9958C297.887 62.9556 298.416 63.9748 298.891 65.0251C299.014 65.2966 299.281 65.4573 299.561 65.4573Z" fill="#652815"/>
<path d="M248.302 26.1415C247.937 26.1415 247.641 25.7798 247.641 25.3335C247.641 24.8873 247.937 24.5256 248.302 24.5256C248.667 24.5256 248.963 24.8873 248.963 25.3335C248.963 25.7798 248.667 26.1415 248.302 26.1415Z" fill="#652815"/>
<path d="M250.433 24.5265C250.068 24.5265 249.772 24.1647 249.772 23.7185C249.772 23.2723 250.068 22.9106 250.433 22.9106C250.798 22.9106 251.094 23.2723 251.094 23.7185C251.094 24.1647 250.798 24.5265 250.433 24.5265Z" fill="#652815"/>
<path d="M246.687 24.0858C246.322 24.0858 246.026 23.724 246.026 23.2778C246.026 22.8316 246.322 22.4699 246.687 22.4699C247.052 22.4699 247.348 22.8316 247.348 23.2778C247.348 23.724 247.052 24.0858 246.687 24.0858Z" fill="#652815"/>
<path fill-rule="evenodd" clip-rule="evenodd" d="M540.739 9.53724C540.412 8.61133 540.355 7.89057 540.485 6.96695C540.759 5.01141 539.287 3.54707 537.657 4.129C537.146 4.31052 536.653 4.70635 536.267 5.14032C534.41 7.2278 532.66 9.4274 530.655 11.3562C525.985 15.8439 520.778 19.154 514.989 21.3017C513.925 21.6968 512.879 22.1598 511.841 22.641C507.046 24.8627 502.249 27.0867 497.467 29.3466C496.44 29.8324 495.453 30.4365 494.474 31.0413C493.657 31.5469 492.91 32.2052 492.077 32.6696C490.363 33.6268 488.627 34.5291 486.879 35.4024C483.246 37.216 479.611 39.0236 475.953 40.7717C475.015 41.2194 473.972 41.3765 473.013 41.7731C471.447 42.4222 469.837 43.0041 468.373 43.8911C465.87 45.4035 463.488 47.1768 461.011 48.7533C459.466 49.7379 457.705 50.3435 456.283 51.5096C454.162 53.2463 451.983 54.8403 449.704 56.2818C448.772 56.8728 447.936 57.6569 447.027 58.3014C446.077 58.9741 444.968 59.4218 444.144 60.2539C441.592 62.8317 438.526 64.6294 436.161 67.5002C434.823 69.1217 433.142 70.3557 432.073 72.3013C431.902 72.6102 431.62 72.8375 431.395 73.1082C429.851 74.9585 428.167 76.6792 426.803 78.6934C424.89 81.5207 423.178 84.5349 421.457 87.53C420.482 89.2262 419.815 91.1665 418.348 92.4402C418.136 92.624 418.036 92.9733 417.859 93.2189C417.383 93.8756 416.959 94.6093 416.398 95.1508C411.807 99.5728 407.85 104.876 402.619 108.406C400.272 110.913 397.283 112.256 394.625 114.2C393.334 115.14 391.952 115.917 390.667 116.866C388.754 118.286 386.91 119.828 384.767 120.788C384.466 120.921 384.192 121.136 383.909 121.319C383.025 121.896 382.148 122.486 381.259 123.051C380.852 123.309 380.37 123.442 380.016 123.768C378.454 125.206 376.59 125.886 374.752 126.667C373.493 127.197 372.288 127.894 371.056 128.51C370.548 128.765 370.048 129.056 369.517 129.223C367.851 129.746 366.046 129.926 364.535 130.791C362.935 131.7 361.283 132.01 359.597 132.384C358.912 132.535 358.231 132.756 357.581 133.04C356.698 133.431 355.828 133.658 354.855 133.567C354.17 133.504 353.464 133.702 352.781 133.852C351.776 134.074 350.794 134.425 349.783 134.6C345.997 135.259 342.131 135.329 338.398 136.413C338.048 136.515 337.648 136.472 337.28 136.412C336.231 136.247 335.241 136.487 334.235 136.757C332.967 137.097 331.684 137.437 330.388 137.569C327.529 137.855 324.744 138.478 322.004 139.404C319.319 140.31 316.637 141.233 313.939 142.096C311.865 142.76 309.847 143.561 307.953 144.752C307.264 145.182 306.518 145.51 305.774 145.811C303.182 146.84 300.524 147.686 297.996 148.885C295.076 150.273 292.232 151.89 289.416 153.546C286.185 155.445 283.027 157.504 280.356 160.4C278.6 162.306 276.817 164.183 275.087 166.124C273.949 167.403 273.702 169.39 274.359 171.103C275.443 173.923 278.225 174.85 280.526 173.144C280.916 172.858 281.263 172.479 281.673 172.238C283.574 171.124 285.445 169.923 287.411 168.978C289.886 167.787 292.119 165.91 294.881 165.509C295.15 165.472 295.413 165.311 295.659 165.164C298.355 163.587 301.037 161.977 303.743 160.425C305.984 159.137 308.216 157.814 310.521 156.689C312.654 155.649 314.94 154.995 317.044 153.891C318.85 152.943 320.663 152.241 322.645 152.061C323.714 151.962 324.79 151.875 325.839 151.653C327.847 151.228 329.809 150.589 331.843 150.236C334.599 149.754 337.285 148.791 340.04 148.295C342.94 147.78 345.907 147.728 348.745 146.766C348.92 146.706 349.12 146.668 349.3 146.696C351.875 147.126 354.278 145.947 356.802 145.781C358.879 145.647 360.926 144.954 362.966 144.414C368.017 143.087 373.058 141.708 378.1 140.333C378.547 140.207 378.966 139.951 379.398 139.753C380.343 139.315 381.285 138.873 382.231 138.44C382.663 138.244 383.118 138.1 383.536 137.871C385.548 136.759 387.525 135.557 389.567 134.52C391.891 133.336 393.75 131.357 395.829 129.769C397.831 128.242 399.518 126.169 401.332 124.319C401.645 124.005 401.899 123.613 402.183 123.259C402.933 122.315 403.674 121.359 404.439 120.434C406.07 118.459 407.73 116.514 409.355 114.53C410.178 113.524 410.953 112.458 411.75 111.417C411.904 111.216 412.068 111.024 412.213 110.816C413.404 109.108 414.574 107.379 415.786 105.692C416.705 104.417 417.681 103.196 418.627 101.949C418.78 101.747 418.916 101.528 419.057 101.315C420.595 99.0313 422.128 96.7425 423.672 94.4636C424.331 93.495 424.983 92.5149 425.694 91.5982C427.113 89.7624 428.571 87.967 430.011 86.1525C430.074 86.074 430.11 85.9703 430.171 85.8894C430.868 84.9627 431.572 84.0399 432.271 83.114C432.513 82.7929 432.762 82.4756 432.992 82.1393C434.945 79.2746 436.888 76.397 438.853 73.5415C439.598 72.4607 440.305 71.3091 441.19 70.3977C443.934 67.5749 446.754 64.8514 449.549 62.0965C449.83 61.8189 450.112 61.4963 450.447 61.3445C453.386 60.0098 455.912 57.6989 459.003 56.7013C460.469 56.2276 461.855 55.4413 463.305 54.8906C464.004 54.626 464.766 54.5833 465.5 54.4338C465.866 54.3598 466.236 54.2957 466.594 54.1889C467.672 53.8679 468.734 53.4613 469.824 53.2097C472.202 52.6605 474.593 52.1823 476.981 51.685C477.805 51.5127 478.632 51.3479 479.464 51.2183C480.153 51.1115 480.882 51.1824 481.539 50.9666C484.45 50.0102 487.606 50.3663 490.421 48.9127C490.581 48.8303 490.789 48.8638 490.975 48.8417C494.246 48.4421 497.419 47.5268 500.463 46.1876C504.161 44.5607 507.777 42.6937 511.423 40.9135C512.451 40.4125 513.497 39.9304 514.465 39.3035C516.607 37.9177 518.753 36.5273 520.808 34.9836C522.748 33.5277 524.818 32.2753 526.43 30.2664C527.471 28.9675 528.649 27.8189 529.766 26.6032C529.776 26.6116 529.782 26.6215 529.791 26.6306C531.541 24.7033 533.312 22.7966 535.035 20.8365C535.694 20.0875 536.26 19.2287 536.848 18.3974C537.52 17.444 538.155 16.4541 538.831 15.5068C539.275 14.8852 539.809 14.3483 540.219 13.703C541.021 12.4507 541.225 10.9124 540.739 9.53724Z" fill="#FDB022"/>
<path fill-rule="evenodd" clip-rule="evenodd" d="M296.169 185.751C297.734 184.673 299.275 183.54 300.87 182.53C302.429 181.543 304.039 180.678 305.628 179.762C305.791 179.668 305.961 179.585 306.132 179.526C309.114 178.501 311.912 176.779 314.847 175.59C316.418 174.952 317.977 174.182 319.627 174.018C319.802 174.001 319.993 174.007 320.152 173.926C322.228 172.877 324.4 172.712 326.532 172.16C329.589 171.364 332.634 170.451 335.689 169.633C336.598 169.392 337.524 169.304 338.441 169.15C338.617 169.122 338.796 169.139 338.966 169.087C341.651 168.238 344.407 168.052 347.052 166.765C348.121 166.245 349.304 166.132 350.425 165.767C351.845 165.303 353.255 164.77 354.668 164.263C355.528 163.954 356.385 163.634 357.244 163.325C358.873 162.742 360.506 162.188 362.127 161.57C363.24 161.146 364.333 160.63 365.438 160.167C365.948 159.955 366.464 159.761 366.981 159.575C368.171 159.145 369.459 159.223 370.545 158.256C372.554 157.952 374.363 156.753 376.263 155.957C377.747 155.338 379.243 154.766 380.715 154.101C382.186 153.438 383.656 152.743 385.088 151.955C386.807 151.006 388.486 149.941 390.185 148.932C390.672 148.642 391.173 148.392 391.656 148.095C394.958 146.073 398.336 144.256 401.729 142.481C402.878 141.878 404.019 141.187 405.074 140.372C407.012 138.879 409.122 137.738 410.96 136.021C413.745 133.421 416.643 130.982 419.472 128.441C419.969 127.995 420.356 127.393 420.81 126.879C421.327 126.289 421.844 125.696 422.392 125.142C423.624 123.894 424.972 122.841 425.987 121.274C426.723 120.14 427.921 119.35 428.874 118.354C429.375 117.83 429.791 117.207 430.236 116.62C430.386 116.422 430.467 116.138 430.64 115.994C432.519 114.41 433.706 112.128 435.398 110.351C435.998 109.723 436.474 108.949 437.001 108.238C437.267 107.878 437.498 107.487 437.782 107.146C440.621 103.783 443.251 100.244 445.513 96.4008C446.272 95.1127 446.966 93.7796 447.776 92.5267C448.422 91.5271 449.153 90.5747 449.924 89.6812C451.241 88.1604 452.605 86.6915 453.975 85.2286C454.375 84.8013 454.848 84.4533 455.305 84.1023C456.295 83.3385 457.264 82.5937 458.047 81.5002C458.58 80.754 459.389 80.232 460.083 79.6215C462.568 77.4353 465.051 75.2445 467.551 73.0828C468.021 72.6768 468.576 72.4075 469.076 72.0465C469.694 71.6024 470.317 71.1591 470.901 70.66C472.111 69.626 473.218 68.4669 474.683 67.8343C475.446 67.5054 476.057 66.618 476.78 66.0548C477.375 65.5901 478.032 65.23 478.664 64.8294C478.782 64.7546 478.941 64.7454 479.036 64.6485C480.314 63.3414 481.798 62.418 483.282 61.4962C483.833 61.1529 484.395 60.8209 484.966 60.5294C486.544 59.7236 488.126 58.9292 489.713 58.154C491.295 57.381 492.887 56.6431 494.473 55.8754C495.891 55.1871 497.303 54.4706 498.723 53.7793C500.016 53.1505 501.35 52.6278 502.603 51.896C504.512 50.7834 506.639 50.4126 508.452 48.9841C508.816 48.6964 509.283 48.5484 509.712 48.4148C510.759 48.0867 511.8 47.7708 512.687 46.9246C512.824 46.7948 513.01 46.6819 513.177 46.6499C515.384 46.221 517.265 44.6613 519.316 43.6891C521.029 42.878 522.659 41.7921 524.351 40.9085C526.216 39.9348 528.11 39.0527 529.991 38.1309C530.575 37.844 531.168 37.5822 531.74 37.2602C533.036 36.5307 534.399 36.3819 535.745 36.0645C536.268 35.9401 536.743 35.9477 536.94 36.5284C537.137 37.1068 536.821 37.5761 536.384 37.9378C535.829 38.3987 535.268 38.8596 534.678 39.2557C533.218 40.2377 531.752 41.2114 530.267 42.1317C529.185 42.8017 528.06 43.3724 526.962 44.005C526.025 44.5445 525.107 45.1275 524.167 45.6571C523.267 46.1638 522.369 46.6964 521.44 47.094C519.189 48.0593 517.164 49.6403 514.868 50.5606C513.193 51.2321 511.457 51.9494 509.859 52.8491C507.968 53.9128 505.993 54.2447 504.108 55.1261C503.482 55.4184 502.843 55.6702 502.206 55.9281C501.91 56.0494 501.609 56.1471 501.307 56.244C501.222 56.2722 501.128 56.2402 501.044 56.2699C499.341 56.8743 497.638 57.4771 495.937 58.0975C495.683 58.1906 495.449 58.4424 495.199 58.492C492.943 58.9384 490.889 60.2494 488.741 61.1559C487.807 61.5497 486.878 61.9785 485.964 62.4486C484.145 63.3841 482.377 64.431 480.772 65.8595C480.204 66.3654 479.519 66.6913 478.92 67.1575C478.238 67.6878 477.609 68.3067 476.931 68.8454C476.146 69.4696 475.315 70.0167 474.539 70.6554C473.605 71.4231 472.725 72.2785 471.79 73.0408C471.085 73.6139 470.326 74.0923 469.597 74.6242C469.211 74.9058 468.816 75.1782 468.465 75.5101C466.156 77.6971 463.842 79.8772 461.57 82.1122C460.956 82.7151 460.482 83.498 459.947 84.2038C459.738 84.4808 459.579 84.8212 459.332 85.0447C457.657 86.5663 456.418 88.5152 455.023 90.3061C454.391 91.1188 453.883 92.0498 453.355 92.9502C451.82 95.563 450.362 98.2307 448.763 100.8C447.266 103.205 445.564 105.461 443.878 107.733C442.708 109.308 441.191 110.437 440.076 112.032C439.776 112.462 439.266 112.715 438.877 113.085C438.033 113.882 437.205 114.7 436.373 115.514C436.268 115.617 436.182 115.744 436.077 115.845C434.401 117.478 432.726 119.109 431.046 120.737C429.786 121.955 428.383 122.957 427.344 124.495C426.776 125.337 425.882 125.926 425.131 126.625C424.241 127.454 423.284 128.197 422.689 129.365C422.518 129.701 422.175 129.956 421.893 130.226C418.287 133.679 414.689 137.14 411.06 140.561C410.288 141.286 409.399 141.853 408.564 142.491C408.373 142.636 408.172 142.769 407.989 142.927C406.037 144.599 403.968 146.003 401.741 147.103C399.863 148.03 397.993 149.012 396.168 150.091C394.272 151.214 392.454 152.53 390.566 153.671C389.234 154.478 387.825 155.088 386.479 155.862C384.61 156.933 382.597 157.449 380.731 158.59C379.598 159.284 378.265 159.474 377.039 159.965C376.233 160.283 375.454 160.728 374.664 161.121C374.54 161.184 374.427 161.296 374.3 161.341C372.331 161.998 370.355 162.615 368.394 163.308C366.935 163.825 365.492 164.438 364.045 165.015C363.579 165.203 363.121 165.497 362.653 165.588C361.763 165.76 360.944 166.06 360.111 166.577C359.283 167.094 358.351 167.386 357.455 167.715C354.465 168.82 351.546 170.275 348.457 170.895C347.113 171.163 345.797 171.941 344.45 172.26C342.096 172.817 339.774 173.845 337.382 173.886C337.168 173.89 336.945 173.981 336.727 174.044C333.504 174.967 330.285 175.909 327.06 176.811C326.016 177.104 324.96 177.287 323.91 177.534C322.169 177.945 320.419 178.297 318.689 178.798C316.783 179.352 314.887 180.01 313 180.691C311.069 181.384 309.139 182.099 307.237 182.918C305.762 183.556 304.343 184.412 302.879 185.096C300.783 186.079 298.669 186.993 296.561 187.93C296.439 187.984 296.281 188.022 296.17 187.985C295.791 187.86 295.272 187.821 295.09 187.517C294.791 187.021 295.304 186.657 295.676 186.344C295.861 186.187 296.036 186.015 296.216 185.849C296.201 185.816 296.185 185.784 296.169 185.751Z" fill="#FDB022"/>
<path fill-rule="evenodd" clip-rule="evenodd" d="M501.318 164C501.111 163.089 500.942 162.358 500.778 161.624C500.703 161.29 500.523 160.959 500.592 160.612C500.85 159.341 500.46 158.332 499.95 157.382C499.289 156.151 499.205 154.68 499.099 153.264C498.9 150.615 499.018 147.872 498.951 145.182C498.927 144.195 498.745 143.249 498.649 142.279C498.622 142.01 498.543 141.715 498.652 141.452C499.542 139.295 499.399 137.21 500.025 135.07C500.651 132.922 501.17 130.773 501.792 128.623C502.296 126.884 503.001 125.167 503.953 123.469C504.67 122.19 505.315 120.883 505.876 119.574C506.894 117.197 507.905 114.817 508.766 112.427C509.297 110.947 509.53 109.472 509.122 108.098C508.911 107.393 508.926 106.548 509.039 105.74C509.354 103.487 509.699 101.225 510.176 98.9569C510.479 97.5205 511.109 96.0626 511.468 94.6191C512.038 92.3289 512.346 90.0915 511.362 88.1746C510.941 87.3573 510.654 86.4878 510.578 85.4769C510.503 84.4882 509.944 83.6476 509.637 82.7238C509.483 82.2654 509.41 81.7684 509.312 81.286C509.282 81.1372 509.315 80.9607 509.274 80.8175C508.867 79.4075 508.52 77.966 508.02 76.6027C507.424 74.9821 506.734 73.4081 506.008 71.8569C505.619 71.0252 504.987 70.329 504.606 69.4922C503.918 67.9775 503.039 66.5505 502.965 64.7256C502.944 64.223 502.743 63.7658 502.594 63.3024C502.157 61.9498 501.303 60.7825 501.443 59.1701C501.464 58.9374 501.348 58.7212 501.258 58.5169C500.222 56.1597 499.229 53.7786 498.127 51.4593C496.595 48.232 494.98 45.0526 493.403 41.8511C493.238 41.5181 493.156 41.1215 492.917 40.8485C491.088 38.7499 490.293 36.0409 489.19 33.5179C488.669 32.3273 488.058 31.1803 488.055 29.7344C488.054 29.2003 487.758 28.7179 487.504 28.2683C486.744 26.9163 486.776 25.2541 486.509 23.7104C486.444 23.3352 486.381 22.9594 486.299 22.5905C486.143 21.8855 485.97 21.1868 485.812 20.4818C485.772 20.2951 485.785 20.087 485.737 19.9054C485.348 18.4481 484.931 17.0028 484.568 15.5342C484.464 15.1111 484.508 14.6243 484.476 14C484.151 14.3071 483.886 14.4912 483.723 14.7189C482.412 16.5545 481.605 18.4721 481.108 20.4395C480.972 20.9768 480.819 21.5153 480.641 22.0513C480.054 23.8163 479.961 25.4735 480.158 27.1294C480.396 29.129 480.487 31.1866 480.455 33.2619C480.432 34.7286 480.328 36.2294 479.869 37.7781C479.462 39.1484 479.537 40.4077 479.667 41.7168C479.835 43.425 480.644 44.8054 480.913 46.4146C481.41 49.3986 482.912 51.8099 484.129 54.3928C485.016 56.2795 485.872 58.1902 486.565 60.1772C486.863 61.0323 486.7 62.1099 486.769 63.081C486.902 64.957 486.954 66.8614 487.23 68.6869C487.389 69.7356 487.958 70.6361 488.278 71.6318C488.609 72.6603 488.866 73.7234 489.149 74.7734C489.228 75.0647 489.298 75.3611 489.353 75.6612C489.457 76.2193 489.478 76.8158 489.656 77.3354C490.11 78.6527 490.243 80.0526 490.156 81.5522C490.122 82.1279 490.485 82.6286 490.681 83.1557C490.994 83.9938 491.381 84.7795 491.332 85.7954C491.303 86.3679 491.615 86.8957 491.875 87.3826C493.135 89.7409 493.539 92.4241 493.497 95.2901C493.476 96.7222 493.516 98.1403 493.51 99.5693C493.509 99.7937 493.403 100.043 493.284 100.53C493.018 100.185 492.849 100.022 492.744 99.8215C492.229 98.834 491.764 97.8156 491.214 96.8495C490.926 96.3444 490.502 95.9251 490.136 95.4692C490.044 95.3538 489.915 95.2642 489.844 95.1381C489.078 93.7981 488.36 92.4285 487.554 91.1137C486.264 89.012 484.887 86.9714 483.033 85.2859C481.903 84.2586 480.853 83.1564 479.671 82.179C478.465 81.1807 477.324 80.1012 475.744 79.4927C475.382 79.3514 475.102 79.0834 474.801 78.8589C473.53 77.9143 472.221 77.0075 471.012 76.0043C469.721 74.9316 468.464 73.8186 467.31 72.6231C466.392 71.6709 465.658 70.5623 464.831 69.5326C464.07 68.5848 463.342 67.6099 462.514 66.717C461.485 65.6059 460.322 64.6045 459.302 63.4865C458.286 62.3748 457.38 61.1729 456.414 60.0214C456.225 59.7976 455.962 59.6336 455.75 59.4261C454.696 58.3958 453.649 57.3603 452.602 56.3243C452.497 56.2202 452.44 56.0632 452.31 55.9926C450.827 55.1899 450.105 53.7465 449 52.631C448.21 51.8333 447.845 50.8533 447.39 49.8885C446.022 46.996 444.612 44.1262 443.297 41.2047C442.876 40.2689 442.71 39.1932 442.404 38.1918C442.296 37.8387 442.187 37.4622 441.954 37.1961C441.631 36.8247 441.152 36.604 440.474 36.8808C439.848 37.1356 439.643 37.6167 439.465 38.142C439.223 38.8577 439.095 39.5223 439.251 40.1901C439.368 40.6971 439.186 41.3239 439.271 41.8492C439.567 43.6691 439.826 45.5079 440.975 46.9298C441.239 47.2571 441.302 47.7408 441.44 48.1595C441.546 48.4792 441.597 48.8273 441.723 49.1362C442.088 50.038 442.425 50.9586 442.87 51.8137C443.782 53.5617 443.911 55.5941 443.985 57.6542C444.007 58.2463 443.954 58.8851 444.138 59.4034C444.747 61.1369 444.5 63.2191 445.406 64.8259C445.113 66.7901 446.356 68.1276 446.576 69.9153C446.779 71.5738 447.741 72.9844 448.402 74.4864C448.807 75.4083 449.231 76.3227 449.724 77.1929C450.067 77.7958 450.553 78.3078 450.956 78.8734C451.614 79.7972 452.306 80.7021 452.888 81.6757C453.285 82.3385 453.48 83.1179 454.181 83.5852C454.446 83.7605 454.529 84.1426 454.677 84.4396C455.302 85.6938 455.563 87.1688 456.729 88.0976C456.976 88.2938 456.986 88.715 457.158 88.9987C457.556 89.6571 457.989 90.2933 458.4 90.9428C458.558 91.1913 458.704 91.4479 458.843 91.709C459.017 92.0363 459.128 92.4096 459.355 92.6952C460.522 94.1538 461.758 95.5625 462.885 97.0494C463.614 98.0117 464.199 99.0806 464.843 100.105C464.979 100.325 465.021 100.637 465.228 100.776C466.186 101.425 466.419 102.534 466.905 103.485C467.136 103.939 467.494 104.32 467.801 104.729C467.954 104.934 468.199 105.095 468.267 105.335C468.535 106.291 469.343 106.821 469.978 107.489C470.918 108.479 471.824 109.496 472.791 110.463C473.366 111.036 474.031 111.533 474.655 112.064C475.234 112.557 475.814 113.052 476.26 113.65C474.479 113.07 472.7 112.487 470.915 111.913C469.926 111.595 468.796 111.446 467.96 110.953C466.24 109.936 463.983 109.871 462.104 109.166C460.321 108.495 458.578 107.764 456.862 106.999C456.123 106.668 455.523 106.15 454.805 105.786C454.225 105.491 453.508 105.367 452.956 105.044C452.036 104.505 450.968 104.033 450.379 103.231C449.512 102.046 448.105 101.532 446.93 100.722C445.088 99.4532 442.627 99.2514 440.378 98.6934C438.672 98.2709 437.326 97.4883 436.104 96.4579C434.565 95.1602 433.006 93.8385 431.177 92.875C429.035 91.7462 426.92 90.5575 424.484 89.7926C422.996 89.3254 421.673 88.5788 420.345 87.8738C419.921 87.6499 419.68 87.1801 419.412 86.7848C417.914 84.5834 415.763 83.0321 413.25 81.8252C412.772 81.595 412.439 81.1769 411.985 80.9096C411.333 80.5268 410.705 80.0677 409.936 79.8842C408.914 79.6415 408.068 80.4152 408.011 81.4576C407.951 82.5252 408.143 83.4761 408.555 84.3702C409.224 85.8263 409.803 87.3315 410.438 88.8071C410.804 89.659 411.052 90.5796 411.852 91.1667C412.107 91.3552 412.132 91.7695 412.312 92.047C412.689 92.6309 413.105 93.1858 413.491 93.7622C413.676 94.0359 413.81 94.3442 414 94.6135C414.251 94.9729 414.535 95.309 414.805 95.6546C415.007 95.9131 415.211 96.1691 415.412 96.4277C415.728 96.8306 416.055 97.2235 416.35 97.6422C416.581 97.9707 416.693 98.4008 416.994 98.6593C418.114 99.6298 418.021 101.161 418.319 102.521C418.761 104.541 420.009 106.039 421.478 107.378C421.67 107.553 421.966 107.676 422.044 107.906C422.416 108.983 423.53 109.329 424.408 109.911C425.669 110.751 426.964 111.557 428.179 112.445C430.33 114.013 432.247 115.825 434.607 117.179C435.8 117.864 436.813 118.742 438.184 119.245C439.052 119.564 439.647 120.295 440.385 120.819C441.894 121.891 443.388 122.98 444.944 124.001C446.307 124.898 447.725 125.73 449.157 126.547C449.549 126.772 450.065 126.849 450.536 126.974C451.702 127.282 452.945 127.48 454.024 127.915C454.957 128.29 455.733 128.905 456.527 129.468C457.07 129.854 457.544 130.319 458.014 130.779C458.489 131.244 458.844 131.829 459.391 132.215C460.776 133.197 462.219 134.118 463.674 135.023C465.226 135.986 466.762 136.974 468.407 137.822C471.06 139.192 473.227 141.071 475.594 142.74C476.49 143.374 477.474 143.91 478.348 144.564C479.82 145.665 481.248 146.812 482.672 147.964C483.51 148.641 484.348 149.326 485.105 150.077C485.805 150.774 486.419 151.548 487.031 152.318C488.036 153.577 489.082 154.808 489.978 156.144C490.978 157.637 492.398 158.711 493.938 159.694C494.096 159.794 494.254 159.926 494.321 160.091C494.718 161.073 495.573 161.662 496.517 162.117C497.866 162.766 498.861 163.903 500.624 163.992C500.749 163.996 500.876 163.993 501.318 164ZM484.285 26.0669C484.249 25.7806 484.213 25.4931 484.176 25.2068C484.279 25.1841 484.381 25.1626 484.483 25.1406C484.405 25.4483 484.328 25.756 484.251 26.0637C484.318 26.478 484.408 26.8854 484.45 27.3085C484.538 28.197 484.443 29.1675 484.705 29.9715C485.32 31.8607 485.698 33.8773 486.803 35.5225C487.112 35.9803 487.351 36.4892 487.571 37.0038C488.977 40.303 490.433 43.5757 491.746 46.9229C493.466 51.3156 495.071 55.7681 496.721 60.198C496.785 60.3714 496.798 60.57 496.841 60.7554C497.011 61.4913 497.124 62.2556 497.368 62.9562C497.822 64.2583 498.705 65.3581 498.59 66.9257C498.58 67.0802 498.637 67.2372 498.713 67.3602C499.831 69.1769 500.151 71.4855 501.83 72.956C501.991 73.0979 502.049 73.3407 502.136 73.5462C502.84 75.1958 503.549 76.8417 504.231 78.502C504.356 78.8047 504.363 79.1704 504.427 79.5053C504.532 80.0659 504.632 80.6296 504.748 81.1858C505.013 82.4489 505.311 83.6987 505.549 84.9718C505.698 85.7563 505.829 86.5552 505.847 87.3769C505.885 88.9956 505.874 90.6282 505.817 92.269C505.77 93.631 505.592 95.0215 505.539 96.3861C505.497 97.424 505.456 98.4783 505.615 99.4526C505.713 100.047 505.649 100.612 505.528 101.233C505.078 103.541 504.622 105.849 504.282 108.145C504.1 109.374 503.894 110.566 503.346 111.816C502.378 114.022 501.486 116.243 500.696 118.465C500.051 120.275 499.625 122.098 499.056 123.914C498.734 124.944 498.219 125.977 497.965 127.002C497.402 129.27 496.952 131.533 496.44 133.799C496.39 134.018 496.213 134.241 495.991 134.656C495.394 133.285 494.326 132.367 494.5 130.783C494.525 130.549 494.437 130.322 494.357 130.114C493.944 129.038 493.532 127.983 493.381 126.765C493.216 125.444 492.532 124.333 492.329 122.97C492.053 121.113 492.345 119.242 492.867 117.306C493.278 115.782 493.915 114.251 494.268 112.733C494.746 110.673 495.029 108.622 495.436 106.566C495.744 105.009 496.184 103.44 496.437 101.89C496.734 100.088 496.977 98.2829 497.084 96.5097C497.175 94.9836 497.056 93.4973 497.006 92.0003C496.947 90.2265 496.843 88.4747 496.142 86.9247C495.685 85.9158 495.159 84.9233 495.269 83.6507C495.297 83.3455 495.102 83.0731 494.984 82.7988C494.631 81.9746 494.243 81.17 493.913 80.3339C493.711 79.8187 493.755 79.1219 493.404 78.7435C492.283 77.5366 492.421 75.7646 491.987 74.2626C491.651 73.0979 491.753 71.7327 491.707 70.4438C491.685 69.7766 491.806 69.071 491.786 68.4032C491.743 66.9408 491.667 65.4886 491.572 64.0414C491.507 63.0262 491.422 62.0134 491.282 61.0222C491.179 60.2983 491.044 59.5743 490.797 58.9141C490.441 57.9682 489.922 57.105 489.561 56.1616C488.131 52.426 486.33 48.8714 485.613 44.7877C485.586 44.637 485.518 44.5014 485.465 44.3615C484.985 43.1091 484.225 41.9879 484.265 40.4915C484.271 40.3024 484.116 40.151 484.068 39.9675C483.717 38.6155 483.208 37.3128 483.075 35.8927C482.926 34.3131 482.984 32.6445 483.208 30.9804C483.428 29.363 483.53 27.7272 484.285 26.0669ZM495.51 156.333C495.401 156.393 495.291 156.453 495.183 156.512C494.847 156.182 494.499 155.864 494.179 155.521C493.049 154.319 491.878 153.145 490.82 151.886C489.782 150.652 488.867 149.322 487.883 148.044C487.501 147.549 487.144 147.027 486.666 146.618C484.624 144.874 482.574 143.141 480.808 141.148C480.418 140.709 479.961 140.316 479.488 139.951C478.387 139.11 477.197 138.357 476.153 137.462C474.735 136.248 473.287 135.087 471.478 134.292C470.404 133.819 469.416 133.226 468.401 132.672C467.019 131.921 465.731 131.04 464.251 130.43C462.696 129.788 461.014 129.3 459.29 128.939C458.1 128.689 457.215 128.097 456.543 127.372C455.032 125.742 453.39 124.249 451.695 122.782C449.808 121.15 447.423 120.236 444.887 119.545C443.011 119.035 441.587 118.175 440.594 116.733C440.075 115.981 439.432 115.301 438.731 114.698C438.147 114.195 437.363 113.883 436.726 113.424C435.321 112.414 433.313 112.113 432.205 110.757C432.16 110.704 432.072 110.681 432.005 110.646C430.041 109.604 428.47 108.157 427.293 106.434C426.165 104.785 424.766 103.369 423.512 101.832C421.981 99.9533 420.273 98.2116 418.982 96.1509C418.904 96.0273 418.788 95.9283 418.7 95.8103C417.967 94.8109 417.194 93.8404 416.517 92.8037C415.774 91.6686 415.126 90.4718 414.426 89.3071C414.333 89.1501 414.204 89.0057 414.051 88.8991C413.274 88.3656 413.118 87.479 412.936 86.5912C413.176 86.6624 413.361 86.7753 413.488 86.9323C414.841 88.5895 416.292 90.1376 418.315 91.19C419.637 91.8767 420.784 92.7854 421.992 93.6121C423.707 94.7819 425.377 96.0001 427.12 97.1383C428.348 97.9398 429.644 98.67 430.952 99.3807C432.71 100.339 434.488 101.274 436.293 102.172C438.084 103.065 440.093 103.715 441.693 104.812C443.667 106.165 446.214 106.739 448.164 108.093C448.255 108.156 448.39 108.17 448.503 108.21C450.119 108.773 451.75 109.312 453.343 109.91C453.934 110.131 454.396 110.543 454.98 110.777C456.33 111.318 457.663 111.903 459.106 112.289C460.64 112.696 462.075 113.211 463.467 113.844C464.77 114.436 466.368 114.623 467.73 115.143C469.573 115.849 471.46 116.54 473.067 117.532C475.298 118.913 477.306 120.553 479.372 122.12C480.266 122.798 481.03 123.61 481.913 124.301C483.148 125.27 484.578 126.02 485.418 127.389C486.299 128.82 487.521 130.023 488.077 131.68C488.426 132.712 488.903 133.683 489.335 134.676C489.468 134.982 489.548 135.371 489.812 135.546C490.691 136.117 490.934 137.083 491.336 137.954C491.46 138.224 491.536 138.558 491.768 138.722C492.484 139.23 492.703 140.038 493.021 140.791C493.356 141.581 493.721 142.36 493.994 143.179C494.181 143.739 494.266 144.351 494.338 144.959C494.443 145.84 494.481 146.742 494.569 147.627C494.724 149.205 494.887 150.782 495.064 152.354C495.19 153.467 495.344 154.572 495.481 155.68C495.505 155.894 495.5 156.116 495.51 156.333ZM447.7 56.2581C447.776 56.2102 447.853 56.1622 447.928 56.1143C448.17 56.5204 448.288 57.0633 448.675 57.303C449.511 57.8207 450.051 58.549 450.535 59.3297C450.884 59.8909 451.054 60.577 451.458 61.0909C452.867 62.8799 454.296 64.6537 455.807 66.362C456.807 67.4932 457.92 68.5387 459.052 69.5584C460.43 70.7994 461.897 71.9591 463.295 73.1837C464.159 73.9416 464.945 74.7727 465.799 75.5408C467.459 77.0334 469.17 78.4812 470.808 79.9946C471.625 80.7507 472.263 81.672 473.101 82.4072C474.05 83.2409 475.205 83.8847 476.144 84.7259C478.916 87.2072 481.681 89.6974 484.328 92.2885C485.292 93.2331 485.97 94.4382 486.674 95.5909C487.191 96.4334 487.695 97.3111 488.117 98.1883C489.176 100.393 489.984 102.759 490.643 105.17C490.876 106.018 490.927 106.893 491.582 107.286C491.036 112.189 490.509 116.936 489.981 121.681C489.898 121.729 489.815 121.778 489.731 121.826C489.414 121.403 489.062 121 488.788 120.548C488.463 120.013 488.317 119.342 487.897 118.892C486.589 117.493 485.179 116.181 483.83 114.815C483.39 114.37 483.036 113.851 482.607 113.396C480.399 111.052 477.459 109.369 475.465 106.837C474.192 105.221 472.177 104.204 471.381 102.208C470.387 101.593 470.208 100.448 469.695 99.515C469.058 98.3547 468.328 97.25 467.577 96.1641C466.931 95.2308 466.204 94.3537 465.507 93.457C465.102 92.9361 464.633 92.4607 464.282 91.9038C463.558 90.7549 463 89.4887 462.178 88.4148C461.39 87.387 460.709 86.3061 460.144 85.1383C460.097 85.0406 459.995 84.9731 459.933 84.8823C459.564 84.3387 459.053 83.8588 458.86 83.2327C458.287 81.3693 456.897 80.028 456.136 78.292C456.078 78.159 455.937 78.0719 455.851 77.9521C455.186 77.0327 454.372 76.1953 453.899 75.1681C452.948 73.1067 452.182 70.94 451.343 68.8149C451.289 68.6768 451.254 68.5274 451.222 68.3786C450.863 66.6697 450.607 64.9154 450.124 63.2639C449.507 61.1609 448.708 59.1411 447.987 57.086C447.892 56.8092 447.796 56.5343 447.7 56.2581Z" fill="#5B5A1B"/>
<path d="M71.9805 89.0935C71.9471 89.0935 71.9126 89.0935 71.8782 89.0935C71.8782 86.9448 71.7989 84.7923 71.8977 82.6514C72.0437 79.5137 71.0826 76.888 69.1903 74.6772C68.5499 73.9313 68.3856 73.1698 68.4246 72.1782C68.512 69.8899 68.8167 67.5305 68.4465 65.3237C67.9096 62.1136 68.1728 59.0315 68.3096 55.8266C68.5626 49.9339 68.889 43.9857 67.7808 38.0826C67.091 34.4084 65.4136 31.5048 63.2534 28.8325C62.9235 28.4253 62.4418 28.1163 61.9785 27.9133C58.7675 26.5106 55.4646 25.2372 52.0363 25.0833C47.2089 24.8674 42.3631 25.1286 37.5265 25.2216C35.9883 25.2514 34.6329 25.9534 33.6545 27.2552C32.6371 28.6088 31.6369 30.0322 30.9034 31.5901C29.3916 34.8014 28.1178 38.1537 26.6382 41.3858C25.884 43.0303 24.8896 44.5351 24.017 46.1111C23.4146 47.1996 22.6339 48.23 22.2821 49.4181C20.7175 54.7006 18.5607 59.7477 17.4605 65.219C16.4626 70.1782 17.0225 74.7147 19.7701 78.8427C20.2564 79.5744 20.6911 80.3876 20.99 81.2344C21.7855 83.4904 22.5143 85.7761 23.2317 88.0657C24.6504 92.5983 26.5129 96.7625 30.3458 99.3792C30.7724 99.6701 31.0977 100.148 31.461 100.549C32.506 101.702 33.474 102.964 34.6099 103.991C35.9642 105.215 36.9563 106.741 37.3185 108.553C37.9416 111.671 39.7833 113.635 41.8377 115.499C42.8655 116.433 44.0244 116.947 45.3488 116.962C46.8134 116.978 48.2781 116.967 49.7416 116.998C52.0363 117.047 54.1344 116.285 56.1026 115.043C58.3146 113.647 60.4771 112.15 62.6924 110.76C66.192 108.566 68.6062 105.202 70.6905 101.484C71.6275 99.8123 72.0494 97.97 71.9954 95.9648C71.9345 93.6791 71.9805 91.3857 71.9805 89.0935Z" fill="#BF7805"/>
<path fill-rule="evenodd" clip-rule="evenodd" d="M71.1274 67.9951C65.7955 68.1191 61.9167 65.2533 58.9783 60.4413C58.6194 59.8504 58.1751 59.3261 57.7711 58.7691C57.1664 57.9317 56.4197 57.1777 55.9823 56.2398C54.6136 53.3062 52.4635 51.3536 49.9695 49.8183C47.8702 48.5243 46.6146 46.3825 45.8448 44.0319C44.5187 39.9765 43.6347 35.7568 43.45 31.3949C43.4281 30.8235 43.33 30.2522 43.2331 29.6874C42.6168 26.1146 43.2377 22.8184 44.9181 19.7387C45.2458 19.1374 45.5274 18.476 45.704 17.8004C46.5176 14.6972 47.2412 11.5653 48.0848 8.47385C48.7046 6.20288 49.5482 4.00888 50.1287 1.72747C50.6746 -0.410446 50.8766 -2.66315 51.4605 -4.78542C52.7497 -9.46823 54.3989 -13.8902 58.7498 -16.1259C61.7159 -17.6508 64.7165 -19.0765 67.9133 -19.7861C70.0542 -20.2609 72.0807 -19.9687 74.1662 -18.6747C78.2793 -16.122 80.4733 -11.8644 82.7538 -7.61336C83.3493 -6.50462 83.7706 -5.27978 84.3407 -4.15278C84.6834 -3.47449 85.1162 -2.83533 85.5859 -2.2614C86.5311 -1.107 87.5144 0.00957489 88.5127 1.10658C91.4845 4.36629 91.2825 8.43995 90.5047 12.4393C89.8919 15.5907 88.6073 18.5673 87.8583 21.694C87.1128 24.8063 86.1572 27.8886 86.2669 31.2136C86.3627 34.1002 86.3557 36.996 86.2645 39.8826C86.2057 41.7427 85.9402 43.5975 85.7163 45.4472C85.4682 47.5108 85.3378 49.62 84.8427 51.6092C84.0845 54.6563 83.0965 57.6356 82.1213 60.607C81.8143 61.5383 81.28 62.3914 80.7711 63.2171C78.8553 66.3242 76.2897 68.0904 72.8517 67.9964C72.2781 67.9821 71.7022 67.9951 71.1274 67.9951ZM71.2694 55.7077C72.6312 55.7768 72.832 55.6333 73.3791 54.0941C75.2752 48.7578 76.2181 43.2101 76.2516 37.4642C76.2678 34.648 76.2412 31.8331 76.2655 29.0169C76.2736 28.0086 76.2712 26.9781 76.4467 25.9985C77.3826 20.7548 79.0872 15.7746 80.7179 10.7814C81.6216 8.0095 81.729 8.11124 79.8236 5.96549C78.6533 4.64935 77.3803 3.3371 76.5748 1.74965C75.2118 -0.930906 74.1916 -3.83059 73.0109 -6.62985C72.6555 -7.47379 72.2908 -8.31904 71.858 -9.11342C71.1886 -10.3422 70.2307 -10.8287 68.9543 -10.4361C67.5498 -10.0043 66.218 -9.25301 64.803 -8.89038C62.6784 -8.34514 61.3108 -6.86855 60.4152 -4.77367C59.9535 -3.69623 59.6985 -2.50401 59.3765 -1.35483C59.2034 -0.739145 59.1238 -0.0869484 58.9276 0.5196C57.1687 5.99679 55.3303 11.4427 53.6557 16.9525C53.1063 18.7617 52.9702 20.7313 52.6482 22.6293C52.2835 24.7972 52.6204 26.8712 53.1155 28.9856C53.7826 31.8318 54.2523 34.738 54.7567 37.6299C54.9863 38.9513 55.6187 39.7848 56.669 40.3939C59.0972 41.8014 61.125 43.8676 62.6807 46.3185C64.3264 48.9091 66.1014 51.3366 68.0403 53.6284C68.9278 54.672 69.8787 55.6424 71.2694 55.7077Z" fill="#5B5A1B"/>
</g>
<defs>
<clipPath id="clip0_200_14167">
<rect width="532" height="140" rx="20" fill="white"/>
</clipPath>
</defs>
</svg>
