<svg width="250" height="140" viewBox="0 0 250 140" fill="none" xmlns="http://www.w3.org/2000/svg">
<g clip-path="url(#clip0_200_16248)">
<rect width="250" height="140" rx="20" fill="#F7E5D7"/>
<path fill-rule="evenodd" clip-rule="evenodd" d="M273.764 5.4147C273.441 4.50928 273.385 3.80447 273.513 2.90129C273.783 0.989031 272.333 -0.442911 270.728 0.126143C270.224 0.303646 269.739 0.690714 269.358 1.11508C267.529 3.15637 265.805 5.30728 263.83 7.19344C259.23 11.5818 254.1 14.8186 248.397 16.9188C247.35 17.3052 246.319 17.7579 245.296 18.2285C240.573 20.401 235.848 22.5758 231.137 24.7857C230.125 25.2607 229.153 25.8514 228.188 26.4428C227.383 26.9373 226.648 27.581 225.827 28.0352C224.138 28.9711 222.428 29.8534 220.707 30.7074C217.127 32.4809 213.546 34.2485 209.943 35.9579C209.019 36.3957 207.992 36.5493 207.047 36.9372C205.504 37.5718 203.919 38.1409 202.477 39.0083C200.011 40.4872 197.664 42.2212 195.224 43.7628C193.702 44.7257 191.967 45.3178 190.566 46.4582C188.477 48.1564 186.331 49.7151 184.086 51.1247C183.167 51.7027 182.344 52.4694 181.449 53.0996C180.513 53.7574 179.42 54.1952 178.609 55.0089C176.094 57.5298 173.074 59.2876 170.744 62.0949C169.427 63.6805 167.77 64.8872 166.717 66.7898C166.549 67.0918 166.271 67.3141 166.049 67.5788C164.529 69.3882 162.869 71.0707 161.526 73.0404C159.642 75.8051 157.955 78.7526 156.26 81.6814C155.299 83.3401 154.642 85.2374 153.196 86.4829C152.988 86.6627 152.89 87.0042 152.715 87.2444C152.247 87.8865 151.829 88.604 151.276 89.1335C146.753 93.4577 142.856 98.6434 137.702 102.096C135.391 104.547 132.446 105.86 129.828 107.761C128.556 108.681 127.194 109.44 125.928 110.368C124.044 111.757 122.228 113.264 120.117 114.203C119.82 114.334 119.55 114.543 119.271 114.722C118.4 115.287 117.536 115.863 116.66 116.416C116.26 116.668 115.785 116.799 115.436 117.117C113.897 118.524 112.061 119.189 110.25 119.952C109.01 120.471 107.823 121.152 106.609 121.755C106.109 122.004 105.616 122.289 105.093 122.452C103.452 122.963 101.674 123.14 100.185 123.985C98.6097 124.874 96.9818 125.177 95.321 125.543C94.6462 125.69 93.976 125.907 93.3356 126.185C92.4651 126.567 91.6086 126.789 90.6496 126.699C89.9754 126.638 89.2802 126.832 88.6067 126.978C87.6173 127.195 86.649 127.538 85.6537 127.71C81.9241 128.354 78.1159 128.422 74.4385 129.483C74.0935 129.583 73.6996 129.54 73.3368 129.481C72.3031 129.32 71.3283 129.555 70.3375 129.819C69.0877 130.152 67.8241 130.484 66.5478 130.613C63.7316 130.893 60.9875 131.502 58.289 132.407C55.6433 133.293 53.0016 134.195 50.3441 135.04C48.3005 135.689 46.3131 136.472 44.4473 137.637C43.7686 138.058 43.033 138.379 42.3 138.673C39.7469 139.679 37.1283 140.506 34.6386 141.679C31.7616 143.036 28.9607 144.617 26.1861 146.237C23.0038 148.093 19.8928 150.107 17.2617 152.938C15.5314 154.802 13.7747 156.638 12.0709 158.536C10.9493 159.786 10.7061 161.729 11.3538 163.405C12.4212 166.162 15.162 167.069 17.4283 165.401C17.8129 165.121 18.1546 164.751 18.5591 164.515C20.4308 163.425 22.2748 162.251 24.2113 161.327C26.6494 160.162 28.849 158.327 31.5693 157.935C31.835 157.898 32.0934 157.741 32.3366 157.598C34.9922 156.055 37.6339 154.481 40.2994 152.963C42.5075 151.703 44.7064 150.41 46.9767 149.31C49.0777 148.293 51.3295 147.653 53.4021 146.574C55.1813 145.647 56.9678 144.961 58.9202 144.785C59.973 144.688 61.0331 144.603 62.0661 144.385C64.0449 143.969 65.9774 143.345 67.9807 143C70.6958 142.528 73.3414 141.586 76.0558 141.102C78.9123 140.598 81.8356 140.547 84.6306 139.606C84.8037 139.547 85 139.511 85.1778 139.538C87.7144 139.958 90.0818 138.805 92.5682 138.643C94.6138 138.512 96.6302 137.835 98.6401 137.307C103.616 136.009 108.582 134.661 113.548 133.315C113.989 133.193 114.402 132.943 114.827 132.749C115.758 132.32 116.686 131.888 117.618 131.465C118.044 131.273 118.492 131.132 118.903 130.908C120.885 129.821 122.833 128.645 124.844 127.632C127.134 126.474 128.966 124.539 131.013 122.986C132.985 121.493 134.648 119.465 136.435 117.656C136.743 117.349 136.993 116.966 137.273 116.62C138.011 115.696 138.741 114.762 139.496 113.857C141.102 111.926 142.737 110.024 144.338 108.084C145.149 107.1 145.912 106.057 146.697 105.04C146.849 104.843 147.01 104.655 147.154 104.452C148.327 102.782 149.479 101.091 150.673 99.4414C151.578 98.1944 152.54 97.0003 153.472 95.7817C153.622 95.5833 153.756 95.3693 153.896 95.1612C155.41 92.9282 156.921 90.69 158.441 88.4615C159.09 87.5144 159.733 86.556 160.433 85.6595C161.831 83.8644 163.267 82.1087 164.686 80.3344C164.748 80.2576 164.784 80.1562 164.843 80.0771C165.53 79.171 166.224 78.2685 166.912 77.3631C167.151 77.0491 167.396 76.7389 167.622 76.41C169.547 73.6087 171.461 70.7948 173.396 68.0024C174.13 66.9456 174.827 65.8195 175.698 64.9282C178.402 62.168 181.179 59.5047 183.933 56.8108C184.21 56.5393 184.488 56.2238 184.817 56.0754C187.713 54.7702 190.201 52.5105 193.245 51.5349C194.69 51.0718 196.055 50.3029 197.483 49.7644C198.172 49.5056 198.923 49.4638 199.646 49.3176C200.007 49.2453 200.371 49.1826 200.724 49.0782C201.785 48.7642 202.831 48.3667 203.905 48.1206C206.248 47.5836 208.604 47.116 210.956 46.6297C211.768 46.4612 212.583 46.3001 213.402 46.1733C214.081 46.0689 214.799 46.1382 215.446 45.9272C218.313 44.9919 221.422 45.3402 224.196 43.9187C224.354 43.8382 224.559 43.871 224.741 43.8493C227.964 43.4585 231.089 42.5636 234.088 41.2539C237.731 39.6631 241.293 37.8373 244.885 36.0966C245.898 35.6066 246.927 35.1353 247.882 34.5222C249.991 33.1671 252.105 31.8075 254.129 30.2979C256.041 28.8742 258.08 27.6496 259.668 25.6851C260.694 24.415 261.854 23.2918 262.955 22.103C262.964 22.1112 262.97 22.1209 262.979 22.1298C264.703 20.2451 266.447 18.3806 268.145 16.4639C268.794 15.7315 269.352 14.8917 269.931 14.0788C270.593 13.1465 271.218 12.1785 271.884 11.2522C272.321 10.6443 272.847 10.1193 273.252 9.4883C274.042 8.26368 274.242 6.75939 273.764 5.4147Z" fill="#FDB022"/>
<path fill-rule="evenodd" clip-rule="evenodd" d="M32.4683 177.553C34.016 176.502 35.5405 175.396 37.118 174.41C38.6591 173.448 40.2517 172.603 41.8232 171.71C41.9839 171.618 42.1525 171.537 42.3217 171.48C45.2704 170.479 48.0372 168.799 50.9395 167.638C52.4938 167.016 54.0356 166.264 55.6673 166.105C55.8405 166.088 56.0289 166.094 56.1862 166.015C58.2397 164.991 60.3877 164.83 62.4954 164.291C65.5187 163.515 68.5302 162.624 71.5515 161.826C72.45 161.59 73.3657 161.505 74.2727 161.354C74.4466 161.327 74.6238 161.344 74.7924 161.293C77.4475 160.465 80.1726 160.283 82.7887 159.028C83.8459 158.52 85.016 158.409 86.1248 158.053C87.529 157.601 88.9233 157.08 90.3209 156.586C91.1705 156.284 92.0181 155.972 92.8683 155.67C94.4788 155.101 96.0939 154.561 97.6971 153.957C98.7973 153.544 99.8782 153.041 100.971 152.589C101.476 152.382 101.986 152.193 102.497 152.011C103.674 151.592 104.948 151.668 106.021 150.724C108.008 150.427 109.798 149.258 111.677 148.481C113.144 147.876 114.624 147.319 116.079 146.67C117.534 146.022 118.987 145.345 120.404 144.575C122.104 143.649 123.764 142.61 125.445 141.626C125.926 141.342 126.422 141.099 126.899 140.809C130.164 138.836 133.505 137.063 136.86 135.33C137.997 134.742 139.125 134.068 140.169 133.273C142.085 131.816 144.172 130.703 145.99 129.027C148.743 126.49 151.61 124.11 154.408 121.63C154.899 121.195 155.282 120.608 155.73 120.106C156.242 119.531 156.753 118.952 157.295 118.411C158.514 117.194 159.847 116.166 160.851 114.637C161.578 113.53 162.763 112.759 163.705 111.787C164.201 111.277 164.613 110.668 165.053 110.096C165.201 109.902 165.281 109.625 165.452 109.484C167.31 107.939 168.484 105.712 170.157 103.979C170.75 103.366 171.221 102.61 171.743 101.916C172.006 101.565 172.234 101.183 172.515 100.851C175.323 97.569 177.924 94.1155 180.16 90.3657C180.911 89.1088 181.598 87.8079 182.398 86.5853C183.038 85.6098 183.76 84.6806 184.523 83.8086C185.825 82.3246 187.174 80.8913 188.529 79.4638C188.924 79.0469 189.392 78.7073 189.844 78.3648C190.824 77.6194 191.782 76.8927 192.556 75.8257C193.083 75.0974 193.883 74.5881 194.569 73.9924C197.027 71.8591 199.482 69.7214 201.955 67.6119C202.42 67.2158 202.968 66.9529 203.463 66.6007C204.074 66.1674 204.69 65.7347 205.267 65.2478C206.464 64.2388 207.559 63.1078 209.008 62.4905C209.762 62.1696 210.367 61.3036 211.081 60.754C211.67 60.3006 212.32 59.9491 212.944 59.5582C213.061 59.4852 213.219 59.4763 213.313 59.3817C214.577 58.1062 216.044 57.2052 217.511 56.3058C218.057 55.9707 218.612 55.6468 219.177 55.3623C220.738 54.576 222.303 53.8009 223.871 53.0444C225.436 52.2901 227.01 51.57 228.579 50.821C229.982 50.1493 231.377 49.4501 232.781 48.7755C234.061 48.162 235.38 47.6519 236.619 46.9378C238.507 45.8522 240.61 45.4903 242.403 44.0964C242.763 43.8157 243.225 43.6712 243.65 43.5409C244.685 43.2207 245.714 42.9125 246.592 42.0867C246.727 41.9601 246.91 41.8499 247.076 41.8187C249.259 41.4002 251.118 39.8782 253.147 38.9296C254.841 38.138 256.453 37.0785 258.126 36.2162C259.97 35.2661 261.844 34.4053 263.704 33.5058C264.282 33.2259 264.868 32.9705 265.434 32.6562C266.715 31.9444 268.063 31.7992 269.395 31.4894C269.912 31.3681 270.381 31.3755 270.576 31.9422C270.771 32.5066 270.458 32.9645 270.027 33.3175C269.477 33.7672 268.923 34.2169 268.34 34.6034C266.895 35.5617 265.446 36.5118 263.977 37.4098C262.907 38.0636 261.794 38.6206 260.708 39.2378C259.782 39.7643 258.874 40.3332 257.944 40.8499C257.055 41.3443 256.166 41.8641 255.247 42.252C253.021 43.1939 251.019 44.7368 248.748 45.6348C247.092 46.29 245.375 46.99 243.795 47.8678C241.924 48.9058 239.972 49.2297 238.107 50.0898C237.488 50.375 236.857 50.6207 236.227 50.8723C235.934 50.9907 235.636 51.0861 235.337 51.1806C235.253 51.2082 235.16 51.1769 235.078 51.2059C233.393 51.7957 231.709 52.3839 230.027 52.9893C229.775 53.0801 229.544 53.3258 229.297 53.3742C227.066 53.8098 225.035 55.0891 222.91 55.9737C221.987 56.3579 221.068 56.7764 220.164 57.235C218.365 58.1479 216.617 59.1695 215.029 60.5634C214.468 61.0571 213.79 61.3751 213.197 61.83C212.524 62.3475 211.901 62.9514 211.231 63.4771C210.454 64.0862 209.633 64.6201 208.866 65.2433C207.942 65.9924 207.072 66.8271 206.147 67.5709C205.45 68.1301 204.699 68.597 203.978 69.116C203.596 69.3908 203.205 69.6566 202.858 69.9805C200.575 72.1145 198.286 74.2419 196.04 76.4229C195.432 77.0111 194.964 77.7751 194.435 78.4638C194.228 78.7341 194.07 79.0662 193.827 79.2844C192.17 80.7691 190.945 82.6709 189.565 84.4185C188.94 85.2115 188.438 86.1199 187.915 86.9985C186.398 89.5481 184.956 92.1512 183.375 94.6583C181.894 97.0053 180.211 99.2064 178.544 101.424C177.387 102.961 175.887 104.062 174.783 105.618C174.486 106.038 173.983 106.285 173.598 106.646C172.763 107.424 171.944 108.222 171.122 109.017C171.018 109.116 170.933 109.241 170.829 109.34C169.171 110.932 167.515 112.524 165.853 114.113C164.607 115.301 163.22 116.28 162.193 117.78C161.631 118.601 160.747 119.176 160.004 119.859C159.124 120.668 158.178 121.392 157.589 122.532C157.419 122.86 157.08 123.109 156.802 123.373C153.236 126.742 149.678 130.119 146.089 133.457C145.325 134.165 144.446 134.718 143.62 135.34C143.431 135.482 143.233 135.612 143.052 135.766C141.121 137.397 139.075 138.767 136.873 139.84C135.015 140.746 133.167 141.703 131.361 142.757C129.486 143.852 127.689 145.137 125.821 146.25C124.504 147.037 123.111 147.633 121.78 148.388C119.932 149.433 117.94 149.937 116.095 151.05C114.974 151.727 113.657 151.913 112.444 152.392C111.647 152.702 110.877 153.136 110.095 153.52C109.972 153.581 109.861 153.691 109.736 153.734C107.788 154.375 105.834 154.978 103.895 155.654C102.451 156.159 101.025 156.756 99.5933 157.319C99.1325 157.503 98.6796 157.79 98.2168 157.879C97.3368 158.046 96.5269 158.339 95.7032 158.844C94.8847 159.348 93.9631 159.633 93.0765 159.955C90.1193 161.033 87.2328 162.452 84.1777 163.057C82.8489 163.319 81.5471 164.078 80.2156 164.389C77.8878 164.933 75.5917 165.936 73.2255 165.976C73.0139 165.98 72.7931 166.069 72.5776 166.13C69.3909 167.031 66.2069 167.949 63.0183 168.83C61.9856 169.116 60.9411 169.294 59.9031 169.535C58.1809 169.937 56.4507 170.28 54.7397 170.769C52.8541 171.309 50.9799 171.952 49.1135 172.616C47.2035 173.293 45.2948 173.99 43.4146 174.789C41.9555 175.412 40.5519 176.247 39.104 176.915C37.0314 177.874 34.9409 178.766 32.8564 179.68C32.7354 179.733 32.5793 179.77 32.4696 179.734C32.0947 179.611 31.5817 179.574 31.4012 179.277C31.1057 178.792 31.6128 178.438 31.981 178.132C32.1642 177.979 32.3367 177.811 32.5152 177.649C32.5007 177.617 32.4841 177.586 32.4683 177.553Z" fill="#FDB022"/>
<path fill-rule="evenodd" clip-rule="evenodd" d="M234.575 158.014C234.371 157.115 234.204 156.394 234.042 155.669C233.968 155.339 233.791 155.013 233.859 154.671C234.113 153.416 233.728 152.421 233.226 151.483C232.574 150.268 232.491 148.816 232.386 147.419C232.19 144.805 232.306 142.098 232.24 139.443C232.216 138.47 232.037 137.536 231.942 136.579C231.915 136.313 231.838 136.022 231.945 135.763C232.823 133.634 232.682 131.576 233.299 129.464C233.917 127.345 234.429 125.224 235.043 123.102C235.54 121.386 236.236 119.692 237.175 118.016C237.883 116.753 238.518 115.464 239.072 114.172C240.077 111.827 241.074 109.477 241.923 107.119C242.448 105.658 242.677 104.203 242.274 102.847C242.066 102.151 242.081 101.317 242.192 100.52C242.503 98.2966 242.844 96.0644 243.314 93.826C243.613 92.4084 244.235 90.9697 244.59 89.5452C245.151 87.2851 245.455 85.0772 244.484 83.1854C244.069 82.3789 243.786 81.5208 243.711 80.5232C243.637 79.5475 243.086 78.7179 242.782 77.8063C242.631 77.3539 242.559 76.8635 242.462 76.3874C242.433 76.2406 242.465 76.0663 242.425 75.9251C242.023 74.5336 241.68 73.1111 241.187 71.7657C240.599 70.1664 239.918 68.6131 239.203 67.0823C238.818 66.2614 238.195 65.5744 237.819 64.7486C237.14 63.2539 236.273 61.8456 236.2 60.0447C236.18 59.5487 235.981 59.0976 235.834 58.6402C235.403 57.3054 234.561 56.1535 234.698 54.5623C234.719 54.3326 234.605 54.1192 234.516 53.9176C233.494 51.5914 232.514 49.2416 231.427 46.9528C229.916 43.7679 228.322 40.6303 226.766 37.4709C226.604 37.1424 226.523 36.7509 226.287 36.4815C224.482 34.4105 223.699 31.7371 222.61 29.2473C222.096 28.0724 221.493 26.9404 221.49 25.5135C221.49 24.9864 221.197 24.5104 220.947 24.0667C220.197 22.7325 220.229 21.0921 219.965 19.5687C219.901 19.1985 219.838 18.8276 219.758 18.4635C219.604 17.7678 219.433 17.0783 219.278 16.3826C219.238 16.1984 219.251 15.993 219.203 15.8138C218.819 14.3757 218.408 12.9494 218.05 11.5C217.947 11.0825 217.991 10.6021 217.96 9.98599C217.638 10.2891 217.377 10.4708 217.216 10.6954C215.923 12.5069 215.127 14.3993 214.636 16.3409C214.503 16.8711 214.351 17.4025 214.176 17.9315C213.597 19.6733 213.505 21.3087 213.699 22.9428C213.934 24.9161 214.024 26.9467 213.992 28.9946C213.969 30.4421 213.867 31.9232 213.414 33.4515C213.013 34.8038 213.087 36.0465 213.215 37.3384C213.381 39.0242 214.179 40.3864 214.444 41.9745C214.934 44.9192 216.417 47.2988 217.617 49.8478C218.492 51.7097 219.336 53.5952 220.02 55.5561C220.314 56.3999 220.154 57.4634 220.222 58.4217C220.353 60.2731 220.404 62.1524 220.677 63.954C220.833 64.9888 221.394 65.8775 221.711 66.8601C222.037 67.8751 222.29 68.9242 222.57 69.9604C222.647 70.2479 222.717 70.5403 222.771 70.8366C222.873 71.3873 222.894 71.976 223.07 72.4888C223.517 73.7887 223.649 75.1702 223.563 76.65C223.53 77.2182 223.888 77.7123 224.081 78.2325C224.39 79.0596 224.771 79.835 224.723 80.8375C224.695 81.4025 225.003 81.9234 225.259 82.4038C226.502 84.7312 226.901 87.379 226.859 90.2074C226.839 91.6206 226.878 93.0202 226.872 94.4303C226.871 94.6518 226.766 94.8976 226.649 95.3786C226.386 95.0383 226.22 94.8771 226.116 94.6792C225.608 93.7047 225.15 92.6997 224.607 91.7463C224.323 91.2479 223.905 90.834 223.543 90.3841C223.453 90.2702 223.326 90.1819 223.255 90.0574C222.499 88.735 221.791 87.3834 220.996 86.0859C219.723 84.0118 218.365 81.9981 216.536 80.3347C215.421 79.3209 214.385 78.2332 213.219 77.2686C212.029 76.2835 210.903 75.2181 209.345 74.6176C208.988 74.4782 208.712 74.2138 208.414 73.9922C207.161 73.06 205.869 72.1652 204.676 71.1751C203.403 70.1166 202.163 69.0182 201.024 67.8383C200.118 66.8987 199.394 65.8047 198.578 64.7885C197.827 63.8532 197.109 62.8911 196.292 62.0099C195.277 60.9134 194.129 59.9252 193.123 58.8219C192.121 57.7248 191.227 56.5387 190.274 55.4024C190.088 55.1815 189.828 55.0197 189.619 54.8149C188.58 53.7981 187.546 52.7763 186.513 51.7539C186.409 51.6512 186.353 51.4962 186.225 51.4265C184.762 50.6343 184.05 49.2099 182.96 48.1091C182.18 47.3219 181.82 46.3548 181.371 45.4027C180.021 42.5482 178.63 39.7162 177.333 36.8331C176.918 35.9096 176.753 34.8479 176.452 33.8597C176.346 33.5112 176.238 33.1398 176.008 32.8771C175.689 32.5106 175.216 32.2928 174.547 32.566C173.93 32.8174 173.728 33.2922 173.552 33.8106C173.314 34.5169 173.188 35.1728 173.341 35.8318C173.457 36.3321 173.278 36.9507 173.361 37.4691C173.653 39.265 173.908 41.0796 175.042 42.4829C175.303 42.8059 175.364 43.2832 175.501 43.6964C175.606 44.0119 175.656 44.3554 175.78 44.6603C176.14 45.5502 176.473 46.4587 176.912 47.3026C177.811 49.0276 177.939 51.0332 178.012 53.0663C178.033 53.6506 177.981 54.281 178.162 54.7925C178.764 56.5032 178.52 58.558 179.414 60.1437C179.125 62.0821 180.351 63.402 180.568 65.1662C180.768 66.8028 181.717 68.1949 182.37 69.6772C182.77 70.587 183.188 71.4894 183.674 72.3481C184.012 72.943 184.492 73.4483 184.889 74.0065C185.538 74.9182 186.221 75.8112 186.795 76.772C187.187 77.426 187.38 78.1952 188.071 78.6563C188.333 78.8293 188.414 79.2064 188.561 79.4995C189.177 80.7373 189.435 82.1928 190.584 83.1095C190.829 83.303 190.838 83.7187 191.008 83.9987C191.401 84.6484 191.828 85.2763 192.234 85.9173C192.389 86.1625 192.533 86.4157 192.67 86.6734C192.842 86.9963 192.951 87.3647 193.176 87.6466C194.327 89.086 195.546 90.4762 196.658 91.9436C197.378 92.8932 197.955 93.948 198.589 94.9592C198.724 95.1758 198.766 95.4838 198.969 95.6207C199.915 96.2617 200.144 97.3557 200.624 98.2941C200.852 98.7422 201.205 99.1187 201.508 99.5225C201.659 99.7248 201.901 99.8835 201.968 100.121C202.232 101.063 203.029 101.587 203.656 102.246C204.583 103.223 205.478 104.226 206.431 105.18C206.998 105.746 207.654 106.236 208.27 106.761C208.841 107.248 209.414 107.736 209.853 108.326C208.096 107.754 206.341 107.178 204.581 106.612C203.605 106.298 202.49 106.151 201.665 105.665C199.968 104.661 197.742 104.597 195.887 103.9C194.129 103.238 192.409 102.517 190.716 101.762C189.987 101.436 189.395 100.925 188.686 100.565C188.114 100.274 187.407 100.152 186.862 99.8331C185.954 99.3016 184.901 98.8349 184.32 98.044C183.464 96.874 182.076 96.3669 180.918 95.5678C179.1 94.3158 176.672 94.1166 174.453 93.5659C172.771 93.149 171.442 92.3767 170.236 91.3599C168.718 90.0792 167.18 88.7749 165.375 87.824C163.263 86.7101 161.175 85.537 158.772 84.7822C157.305 84.3211 155.999 83.5843 154.689 82.8886C154.271 82.6676 154.033 82.204 153.769 81.8139C152.291 79.6414 150.169 78.1106 147.689 76.9195C147.217 76.6924 146.889 76.2798 146.441 76.0159C145.798 75.6382 145.178 75.1852 144.42 75.0041C143.412 74.7645 142.577 75.5281 142.52 76.5567C142.461 77.6103 142.651 78.5487 143.057 79.4311C143.718 80.868 144.288 82.3534 144.915 83.8096C145.276 84.6503 145.521 85.5588 146.31 86.1382C146.562 86.3242 146.587 86.7331 146.764 87.0069C147.136 87.5832 147.546 88.1308 147.927 88.6995C148.109 88.9696 148.242 89.2739 148.429 89.5396C148.677 89.8944 148.957 90.226 149.223 90.5671C149.422 90.8222 149.624 91.0749 149.823 91.33C150.134 91.7277 150.457 92.1153 150.748 92.5285C150.976 92.8528 151.086 93.2772 151.383 93.5323C152.488 94.49 152.396 96.0016 152.69 97.3432C153.127 99.3371 154.358 100.815 155.807 102.137C155.997 102.309 156.288 102.431 156.366 102.657C156.732 103.721 157.832 104.062 158.697 104.637C159.942 105.465 161.22 106.26 162.418 107.136C164.54 108.685 166.431 110.472 168.76 111.809C169.937 112.484 170.936 113.351 172.288 113.847C173.145 114.163 173.732 114.883 174.46 115.4C175.949 116.458 177.423 117.533 178.958 118.541C180.302 119.426 181.702 120.247 183.114 121.053C183.501 121.276 184.011 121.351 184.475 121.475C185.625 121.779 186.852 121.974 187.916 122.404C188.836 122.773 189.602 123.38 190.385 123.936C190.921 124.317 191.389 124.776 191.852 125.23C192.322 125.689 192.672 126.266 193.211 126.647C194.578 127.615 196.001 128.525 197.437 129.418C198.968 130.368 200.483 131.344 202.106 132.18C204.724 133.532 206.862 135.386 209.197 137.034C210.08 137.659 211.052 138.188 211.913 138.834C213.366 139.92 214.775 141.052 216.179 142.188C217.006 142.857 217.833 143.533 218.58 144.274C219.271 144.962 219.876 145.726 220.48 146.486C221.472 147.728 222.504 148.943 223.387 150.261C224.374 151.735 225.775 152.795 227.295 153.765C227.451 153.863 227.606 153.994 227.672 154.156C228.064 155.126 228.908 155.707 229.838 156.156C231.169 156.796 232.152 157.918 233.891 158.006C234.014 158.01 234.139 158.007 234.575 158.014ZM217.771 21.8942C217.735 21.6117 217.7 21.328 217.663 21.0454C217.765 21.023 217.865 21.0019 217.966 20.9801C217.89 21.2838 217.813 21.5875 217.737 21.8911C217.804 22.3 217.892 22.702 217.933 23.1196C218.02 23.9964 217.927 24.9541 218.185 25.7475C218.792 27.6119 219.165 29.602 220.255 31.2256C220.56 31.6774 220.796 32.1796 221.013 32.6873C222.4 35.9432 223.837 39.1729 225.132 42.476C226.829 46.811 228.412 51.205 230.04 55.5766C230.103 55.7477 230.116 55.9438 230.158 56.1267C230.326 56.8529 230.438 57.6072 230.678 58.2985C231.126 59.5836 231.997 60.6689 231.884 62.2159C231.874 62.3684 231.93 62.5233 232.005 62.6447C233.108 64.4375 233.424 66.7157 235.08 68.1669C235.239 68.3069 235.297 68.5465 235.382 68.7494C236.077 70.3773 236.776 72.0015 237.449 73.64C237.572 73.9387 237.579 74.2996 237.642 74.6301C237.746 75.1833 237.844 75.7396 237.959 76.2885C238.221 77.535 238.514 78.7683 238.75 80.0248C238.896 80.7989 239.025 81.5873 239.044 82.3982C239.081 83.9956 239.07 85.6068 239.014 87.226C238.967 88.5701 238.792 89.9423 238.739 91.2889C238.698 92.3132 238.657 93.3537 238.814 94.3152C238.911 94.902 238.848 95.4596 238.729 96.0725C238.285 98.3495 237.834 100.628 237.499 102.893C237.32 104.106 237.117 105.282 236.576 106.516C235.621 108.693 234.741 110.885 233.962 113.078C233.326 114.864 232.905 116.662 232.343 118.455C232.026 119.471 231.518 120.491 231.267 121.502C230.712 123.74 230.268 125.974 229.763 128.21C229.714 128.426 229.539 128.646 229.32 129.056C228.73 127.703 227.678 126.797 227.849 125.233C227.874 125.002 227.786 124.779 227.707 124.573C227.3 123.511 226.894 122.47 226.745 121.269C226.582 119.965 225.907 118.868 225.707 117.524C225.435 115.691 225.723 113.845 226.238 111.934C226.643 110.43 227.272 108.919 227.62 107.421C228.092 105.388 228.37 103.364 228.772 101.335C229.076 99.7982 229.51 98.2499 229.76 96.7203C230.053 94.9418 230.292 93.1608 230.398 91.4109C230.488 89.905 230.371 88.4382 230.321 86.9609C230.263 85.2104 230.16 83.4816 229.469 81.952C229.018 80.9563 228.499 79.9768 228.607 78.7211C228.635 78.4199 228.443 78.151 228.327 77.8803C227.978 77.067 227.595 76.2729 227.27 75.4478C227.071 74.9394 227.114 74.2517 226.767 73.8783C225.662 72.6873 225.797 70.9386 225.369 69.4563C225.038 68.3069 225.139 66.9597 225.094 65.6877C225.071 65.0293 225.191 64.3329 225.171 63.6739C225.129 62.2308 225.053 60.7977 224.96 59.3695C224.895 58.3676 224.812 57.3682 224.674 56.39C224.572 55.6756 224.439 54.9612 224.195 54.3096C223.844 53.3762 223.332 52.5243 222.976 51.5933C221.565 47.9068 219.789 44.3989 219.081 40.369C219.055 40.2202 218.988 40.0864 218.935 39.9483C218.462 38.7124 217.712 37.606 217.752 36.1292C217.757 35.9426 217.604 35.7932 217.557 35.6121C217.211 34.2779 216.709 32.9923 216.577 31.5908C216.43 30.032 216.487 28.3854 216.709 26.7432C216.925 25.147 217.026 23.5327 217.771 21.8942ZM228.845 150.448C228.738 150.507 228.629 150.566 228.523 150.624C228.191 150.299 227.848 149.984 227.532 149.647C226.417 148.46 225.262 147.302 224.218 146.059C223.194 144.842 222.291 143.529 221.32 142.267C220.944 141.78 220.591 141.264 220.119 140.86C218.106 139.139 216.083 137.429 214.34 135.463C213.955 135.029 213.505 134.642 213.038 134.281C211.952 133.451 210.778 132.708 209.748 131.825C208.349 130.627 206.92 129.481 205.136 128.696C204.076 128.23 203.101 127.645 202.1 127.098C200.737 126.357 199.465 125.487 198.006 124.885C196.472 124.252 194.812 123.77 193.111 123.414C191.938 123.167 191.064 122.583 190.402 121.868C188.91 120.259 187.291 118.786 185.618 117.338C183.757 115.728 181.404 114.825 178.902 114.143C177.051 113.641 175.645 112.791 174.666 111.368C174.154 110.626 173.52 109.955 172.828 109.36C172.252 108.864 171.479 108.556 170.851 108.103C169.464 107.106 167.483 106.809 166.389 105.471C166.345 105.418 166.259 105.396 166.192 105.361C164.255 104.333 162.705 102.905 161.544 101.205C160.431 99.5779 159.051 98.1796 157.814 96.6631C156.303 94.8093 154.618 93.0905 153.344 91.0568C153.268 90.9349 153.153 90.8371 153.067 90.7208C152.343 89.7344 151.58 88.7767 150.912 87.7537C150.18 86.6335 149.54 85.4524 148.85 84.303C148.758 84.1481 148.631 84.0056 148.479 83.9004C147.713 83.374 147.559 82.499 147.379 81.6228C147.617 81.6931 147.798 81.8045 147.924 81.9595C149.259 83.5949 150.69 85.1226 152.687 86.1612C153.991 86.8389 155.122 87.7356 156.314 88.5515C158.006 89.7058 159.653 90.9081 161.373 92.0313C162.584 92.8223 163.863 93.5429 165.153 94.2442C166.888 95.1901 168.642 96.1123 170.423 96.9991C172.19 97.8803 174.172 98.5219 175.75 99.604C177.699 100.939 180.211 101.506 182.135 102.842C182.224 102.904 182.357 102.918 182.469 102.958C184.064 103.513 185.673 104.045 187.244 104.635C187.827 104.853 188.283 105.26 188.859 105.49C190.191 106.025 191.506 106.602 192.93 106.983C194.444 107.385 195.859 107.893 197.232 108.517C198.518 109.102 200.094 109.286 201.438 109.8C203.257 110.496 205.118 111.177 206.703 112.157C208.904 113.52 210.886 115.138 212.924 116.684C213.806 117.354 214.56 118.155 215.431 118.837C216.649 119.793 218.06 120.534 218.889 121.884C219.758 123.297 220.963 124.483 221.512 126.119C221.856 127.138 222.327 128.096 222.753 129.075C222.884 129.378 222.963 129.762 223.224 129.934C224.091 130.497 224.33 131.451 224.728 132.311C224.85 132.576 224.925 132.907 225.153 133.069C225.86 133.57 226.076 134.367 226.39 135.11C226.72 135.89 227.08 136.658 227.35 137.467C227.534 138.02 227.618 138.623 227.689 139.224C227.792 140.092 227.83 140.982 227.917 141.856C228.07 143.414 228.231 144.969 228.406 146.521C228.53 147.62 228.682 148.709 228.817 149.803C228.84 150.014 228.836 150.233 228.845 150.448ZM181.677 51.6885C181.752 51.6412 181.828 51.5939 181.902 51.5466C182.14 51.9474 182.257 52.4832 182.639 52.7197C183.463 53.2306 183.996 53.9493 184.474 54.7197C184.818 55.2736 184.986 55.9506 185.384 56.4578C186.774 58.2233 188.185 59.9738 189.675 61.6596C190.662 62.776 191.76 63.8077 192.876 64.814C194.236 66.0387 195.684 67.1831 197.062 68.3916C197.915 69.1396 198.691 69.9597 199.533 70.7177C201.171 72.1907 202.859 73.6195 204.475 75.113C205.281 75.8591 205.911 76.7683 206.737 77.4939C207.674 78.3166 208.813 78.9519 209.739 79.7821C212.474 82.2308 215.202 84.6882 217.813 87.2453C218.765 88.1775 219.433 89.3667 220.128 90.5042C220.638 91.3356 221.135 92.2018 221.552 93.0675C222.597 95.2436 223.393 97.5785 224.044 99.9575C224.274 100.794 224.324 101.658 224.97 102.045C224.431 106.884 223.911 111.568 223.391 116.252C223.309 116.298 223.227 116.347 223.144 116.395C222.831 115.977 222.484 115.58 222.213 115.133C221.892 114.606 221.749 113.943 221.334 113.499C220.044 112.118 218.653 110.823 217.322 109.476C216.888 109.036 216.539 108.524 216.115 108.075C213.937 105.762 211.037 104.101 209.069 101.603C207.813 100.007 205.826 99.0041 205.04 97.034C204.059 96.4278 203.882 95.2978 203.377 94.3768C202.748 93.2317 202.028 92.1415 201.288 91.0699C200.65 90.1489 199.933 89.2833 199.245 88.3984C198.845 87.8844 198.382 87.4151 198.037 86.8656C197.322 85.7318 196.771 84.4823 195.961 83.4225C195.183 82.4081 194.512 81.3415 193.954 80.189C193.907 80.0926 193.807 80.026 193.746 79.9364C193.382 79.4 192.878 78.9264 192.687 78.3085C192.122 76.4696 190.75 75.146 190 73.4328C189.943 73.3015 189.803 73.2156 189.719 73.0974C189.063 72.19 188.26 71.3636 187.792 70.3499C186.855 68.3156 186.099 66.1774 185.271 64.0803C185.217 63.944 185.183 63.7965 185.152 63.6497C184.797 61.9632 184.545 60.232 184.068 58.6022C183.46 56.5269 182.671 54.5337 181.96 52.5056C181.866 52.2324 181.771 51.9611 181.677 51.6885Z" fill="#5B5A1B"/>
<path d="M124.998 125.097C98.6903 125.097 77.3636 120.099 77.3636 113.933C77.3636 107.767 98.6903 102.769 124.998 102.769C151.306 102.769 172.633 107.767 172.633 113.933C172.633 120.099 151.306 125.097 124.998 125.097Z" fill="#EBD7C7"/>
<path d="M156.775 66.2739C156.775 66.2739 168.536 67.3216 170.61 69.122C172.685 70.9227 172.238 74.819 172.238 74.819L172.441 108.796C172.441 108.796 170.944 112.75 164.168 114.086C157.391 115.422 139.007 118.088 130.936 118.088C122.865 118.088 103.402 117.409 103.402 117.409C103.402 117.409 88.8588 115.284 84.8869 113.883C80.9154 112.481 78.1049 111.416 78.1049 109.474C78.1049 107.532 77.9016 71.2923 77.9016 71.2923C77.9016 71.2923 78.8324 68.057 83.7341 67.5622C88.6358 67.0675 156.775 66.2739 156.775 66.2739Z" fill="#D77E56"/>
<path d="M78.0321 86.3193C78.0321 99.0983 172.258 99.0983 172.258 86.3193V96.1791C172.258 108.958 78.0321 108.958 78.0321 96.1791V86.3193Z" fill="#DADEE0"/>
<path d="M162.371 73.407C163.532 68.3052 161.11 62.9255 157.449 59.1881C153.787 55.4508 149.022 53.0346 144.372 50.6375C139.721 48.2404 134.779 45.0492 131.268 41.1702C128.035 37.5979 126.945 34.0125 123.286 30.8765C120.855 28.792 115.341 26.1102 112.261 25.2335C99.5087 21.6037 84.9106 28.272 78.9072 34.2751C76.6931 36.4892 78.2449 42.5261 78.4582 45.65C78.6715 48.774 80.1273 53.222 82.7932 54.8646C84.179 55.7184 87.7898 56.9265 89.0622 57.9419C89.78 58.5145 91.1823 61.2979 90.986 64.3869C90.7897 67.4761 89.4735 70.3682 88.1785 73.1799C109.199 80.04 131.96 77.8506 153.956 75.5872C156.743 75.3005 159.571 75.0038 162.371 73.407Z" fill="#CD966D"/>
<path d="M120.088 29.4349C122.65 26.5921 122.573 19.6156 114.647 17.2826C106.004 14.7383 102.495 21.8414 102.98 24.4165C104.251 31.1838 117.576 32.2221 120.088 29.4349Z" fill="#FF9D47"/>
<path d="M119.322 77.3565C116.931 77.4068 114.536 77.2449 112.174 76.8735C112.254 81.0293 112.263 85.1862 112.202 89.3425C112.191 90.0462 112.136 90.8441 111.593 91.2919C111.194 91.6206 110.639 91.6635 110.122 91.6855C102.052 92.0334 93.9021 90.8952 86.2972 88.1709C84.8617 87.6567 83.3575 87.0174 82.5146 85.7468C81.7927 84.6588 81.6799 83.2912 81.5883 81.9888C81.4126 79.4936 81.2375 76.9834 81.4937 74.4949C81.7502 72.0065 82.4638 69.5169 83.9201 67.4829C95.1399 65.6593 106.553 68.2817 117.617 70.8883C117.991 73.0997 118.366 75.3108 119.322 77.3565Z" fill="white"/>
<path d="M117.064 72.0887C117.367 72.9422 116.871 73.9943 116.02 74.304C115.041 74.6606 113.974 74.0951 112.932 74.1127C112.645 74.1177 112.324 74.1888 112.167 74.4294C112.053 74.6039 112.052 74.8263 112.055 75.0346C112.065 75.7539 112.076 76.4731 112.086 77.1926C114.235 77.6115 116.463 77.6165 118.613 77.2073C118.311 76.2686 118.411 75.2538 118.309 74.2728C118.208 73.2912 117.81 72.2262 117.064 72.0887Z" fill="#DADEE0"/>
<path d="M129.901 34.7669C130.523 35.0372 131.156 35.371 131.498 35.9168C131.852 36.4803 131.835 37.1743 131.726 37.8162C131.598 38.5657 131.352 39.314 130.867 39.9298C130.275 40.6807 129.377 41.1773 128.477 41.6021C127.811 41.9162 127.107 42.2085 126.358 42.2349C125.704 42.2581 125.061 42.076 124.457 41.8459C123.327 41.4155 122.245 40.78 121.59 39.8364C121.172 39.2359 120.948 38.5401 120.799 37.8421C120.636 37.082 120.558 36.2944 120.72 35.5343C120.883 34.7743 121.309 34.0395 122 33.59C122.692 33.1399 128.14 34.0019 129.901 34.7669Z" fill="#B07066"/>
<path d="M112.463 38.0515C99.3119 40.5973 108.547 53.5331 117.3 47.9989C121.335 45.4479 121.01 36.3972 112.463 38.0515Z" fill="#B07066"/>
<path d="M94.5498 60.2584C97.0879 61.4131 102.347 49.1671 99.4847 40.2292C97.1766 33.0215 82.3784 30.8048 79.0459 34.1376C76.4173 36.7662 78.4077 50.0235 80.9094 53.5584C82.5755 55.9129 90.2706 58.3117 94.5498 60.2584Z" fill="#B07066"/>
<path opacity="0.9412" d="M116.147 24.1101C117.419 22.4863 117.018 18.8464 112.515 18.0585C107.604 17.1988 106.028 21.0993 106.428 22.4178C107.478 25.8834 114.901 25.7022 116.147 24.1101Z" fill="#FFB55B"/>
<path d="M117.381 41.2837C117.681 40.9008 117.587 40.0427 116.525 39.8567C115.367 39.654 114.995 40.5735 115.09 40.8844C115.337 41.7014 117.087 41.6588 117.381 41.2837Z" fill="#EDAE84"/>
<path d="M171.885 71.4615C170.926 70.8548 169.858 70.3692 168.726 70.2951C167.594 70.2211 166.39 70.6133 165.684 71.5012C165.292 71.9939 165.012 72.657 164.419 72.8526C163.769 73.1658 163.118 73.4793 162.467 73.7925C162.734 71.5687 162.711 69.31 162.4 67.0919C164.396 67.0363 166.448 66.9887 168.327 67.6665C170.206 68.344 171.9 69.9229 171.885 71.4615Z" fill="#C7543A"/>
<path d="M126.364 43.2198C129.178 43.2198 130.799 41.7323 131.358 41.1018C132.863 39.4045 133.234 37.0744 132.24 35.5611C131.273 34.0886 129.424 33.6987 127.282 33.2472C125.708 32.9155 123.924 32.5391 122.09 31.6859C121.722 31.5152 121.285 31.6742 121.114 32.042C120.943 32.4098 121.102 32.8467 121.47 33.0177C123.457 33.942 125.328 34.3366 126.979 34.6844C128.878 35.0849 130.377 35.401 131.012 36.3676C131.628 37.3048 131.297 38.9565 130.259 40.1273C128.512 42.0969 125.456 42.272 122.083 40.595C121.72 40.4143 121.279 40.5624 121.099 40.9258C120.918 41.2889 121.066 41.7299 121.429 41.9106C123.363 42.8716 125.003 43.2198 126.364 43.2198Z" fill="#652815"/>
<path d="M123.707 46.0335C123.873 46.0335 124.04 45.9773 124.178 45.8628C124.489 45.6028 124.531 45.1397 124.271 44.8283C123.703 44.1485 123.024 43.5576 122.254 43.0726C121.91 42.8566 121.457 42.9595 121.241 43.3029C121.025 43.6464 121.128 44.0997 121.471 44.3156C122.111 44.7187 122.674 45.2079 123.143 45.7696C123.288 45.9436 123.497 46.0335 123.707 46.0335Z" fill="#652815"/>
<path d="M121.32 47.877C121.414 47.877 121.51 47.8588 121.602 47.8206C121.976 47.6649 122.154 47.2351 121.998 46.8605C121.771 46.3143 121.46 45.8052 121.074 45.3469C120.812 45.0366 120.349 44.9972 120.039 45.259C119.728 45.5208 119.689 45.9841 119.951 46.2941C120.24 46.6372 120.473 47.0177 120.642 47.4246C120.759 47.7069 121.032 47.877 121.32 47.877Z" fill="#652815"/>
<path d="M114.814 31.611C117.302 31.611 119.572 31.1024 120.632 29.9267C122.177 28.2124 122.721 25.4953 122.017 23.0051C121.519 21.2459 119.927 18.0717 114.853 16.578C109.89 15.1173 106.758 16.6997 105.006 18.2844C102.825 20.2561 101.962 22.9854 102.256 24.5523C102.806 27.4802 105.383 29.7316 109.512 30.8915C111.15 31.3519 113.038 31.611 114.814 31.611ZM119.541 28.943C118.441 30.1638 114.088 30.6515 109.909 29.4775C107.846 28.8978 104.296 27.4517 103.7 24.2808C103.516 23.3036 104.117 21.0681 105.991 19.3738C107.465 18.0409 110.128 16.7182 114.438 17.9871C117.697 18.9463 119.886 20.8701 120.603 23.4044C121.164 25.3896 120.737 27.6157 119.541 28.943Z" fill="#652815"/>
<path d="M162.404 74.3066C162.764 74.3066 163.079 74.041 163.13 73.6738C164.304 65.2551 160.15 58.2774 150.782 52.935C149.147 52.0022 147.563 51.1963 146.031 50.4166C141.335 48.0269 136.898 45.7696 131.276 40.1467C130.989 39.8596 130.524 39.8596 130.237 40.1467C129.95 40.4334 129.95 40.8985 130.237 41.1852C136.025 46.973 140.562 49.2817 145.365 51.7258C146.881 52.4973 148.449 53.2955 150.054 54.211C158.849 59.2264 162.758 65.7063 161.675 73.4708C161.62 73.8727 161.9 74.2438 162.302 74.2996C162.336 74.3046 162.37 74.3066 162.404 74.3066Z" fill="#652815"/>
<path d="M125.579 34.1147C125.735 34.1147 125.894 34.0648 126.028 33.9611C126.348 33.7128 126.407 33.2516 126.159 32.9307C125.538 32.129 123.319 29.4196 120.831 28.2259C120.465 28.0505 120.027 28.2047 119.851 28.5702C119.676 28.936 119.83 29.3746 120.196 29.55C121.941 30.3876 123.821 32.3099 124.997 33.8294C125.142 34.0169 125.359 34.1147 125.579 34.1147Z" fill="#652815"/>
<path d="M107.753 41.0794C107.931 41.0794 108.109 41.0154 108.25 40.8855C109.494 39.7418 111.459 39.0364 113.933 38.8457C114.338 38.8146 114.64 38.4614 114.609 38.0569C114.578 37.6523 114.224 37.3491 113.82 37.3811C111.014 37.5974 108.744 38.4353 107.255 39.8044C106.957 40.0791 106.937 40.5436 107.212 40.8421C107.357 40.9995 107.554 41.0794 107.753 41.0794Z" fill="#652815"/>
<path d="M95.6289 61.6396C95.8607 61.6396 96.0887 61.5303 96.2318 61.3258C96.4642 60.9932 96.3828 60.5352 96.0499 60.3028C94.7011 59.3609 92.6381 58.5542 90.454 57.6998C87.3215 56.4747 83.7713 55.0862 81.7488 53.0637C80.791 52.1056 79.5718 48.2025 78.9134 43.9842C78.1037 38.7972 78.4915 35.725 79.2351 34.9814C84.8099 29.4066 93.9231 25.6396 103.018 25.1498C103.423 25.1281 103.734 24.782 103.712 24.3769C103.69 23.972 103.344 23.6585 102.939 23.6829C93.4971 24.1912 84.0163 28.1228 78.1962 33.9429C76.3714 35.7679 77.0748 41.7314 77.4617 44.211C78.0737 48.1294 79.3153 52.7076 80.7099 54.1026C82.9495 56.3422 86.652 57.7903 89.9187 59.068C92.0193 59.8895 94.0033 60.6657 95.2088 61.5074C95.3369 61.597 95.4838 61.6396 95.6289 61.6396Z" fill="#652815"/>
<path d="M90.5722 67.4174C90.8719 67.4174 91.1534 67.2326 91.2621 66.9347C92.3206 64.0399 92.0254 60.7056 90.4721 58.0156C90.2693 57.6642 89.8198 57.5438 89.4687 57.7468C89.1174 57.9495 88.9972 58.399 89.1999 58.7501C90.5384 61.0679 90.7935 63.9391 89.8824 66.4302C89.7431 66.8113 89.9391 67.2329 90.3202 67.3721C90.4033 67.4027 90.4885 67.4174 90.5722 67.4174Z" fill="#652815"/>
<path d="M94.2644 55.5387C94.6261 55.5387 94.941 55.2716 94.9913 54.9032C95.0459 54.5013 94.7647 54.1311 94.3628 54.0761C91.2445 53.6507 85.7088 52.1814 84.129 50.0508C83.9807 49.8505 83.7406 49.7385 83.4921 49.7553C83.2435 49.7714 83.0197 49.9122 82.898 50.1299C82.5199 50.8059 81.7931 51.3629 81.2434 51.3982C81.0036 51.4149 80.8291 51.325 80.6716 51.1123C80.4298 50.7865 79.9695 50.718 79.6442 50.9595C79.3184 51.201 79.25 51.6611 79.4915 51.987C79.9457 52.5998 80.6011 52.9127 81.3374 52.8639C82.2076 52.8081 83.0202 52.2734 83.6011 51.6391C86.0669 53.896 91.4381 55.1594 94.1645 55.5316C94.198 55.5363 94.2315 55.5387 94.2644 55.5387Z" fill="#652815"/>
<path d="M83.7251 51.4258C83.8599 51.4258 83.9965 51.3884 84.119 51.3106C84.4613 51.0926 84.5618 50.6387 84.3438 50.2964C83.6587 49.2211 83.4721 46.6857 83.7997 45.3639C83.8975 44.9702 83.6575 44.5718 83.2635 44.4742C82.871 44.3767 82.4717 44.6167 82.3739 45.0104C82.0066 46.4915 82.1071 49.5196 83.1048 51.0858C83.245 51.3056 83.4824 51.4258 83.7251 51.4258Z" fill="#652815"/>
<path d="M80.4808 39.9639C80.5916 39.9639 80.7044 39.9387 80.8102 39.8855C81.1724 39.7033 81.3188 39.2618 81.1363 38.8995C80.5208 37.6753 79.6365 36.5953 78.5794 35.7767C78.2586 35.5282 77.797 35.587 77.5491 35.9081C77.3008 36.2289 77.3596 36.6902 77.6804 36.9384C78.5653 37.6235 79.3065 38.5299 79.8242 39.5594C79.9532 39.8156 80.212 39.9639 80.4808 39.9639Z" fill="#652815"/>
<path d="M87.5051 41.8366C87.6414 41.8366 87.7792 41.7987 87.9023 41.7194C89.1418 40.9205 90.8264 40.3274 92.7743 40.0042C93.1745 39.9378 93.445 39.5594 93.3787 39.1592C93.312 38.7591 92.9341 38.4891 92.534 38.5549C90.3899 38.9107 88.5131 39.5779 87.1064 40.4845C86.7653 40.7043 86.6672 41.1588 86.8869 41.4999C87.0274 41.7179 87.2639 41.8366 87.5051 41.8366Z" fill="#652815"/>
<path d="M106.838 92.6404C108.385 92.6404 109.731 92.5296 110.728 92.2743C112.369 91.8536 112.714 91.0592 112.714 90.4672C112.714 88.7858 112.702 87.075 112.69 85.4277C112.659 80.9079 112.628 76.6391 112.88 75.1971C112.941 74.8481 113.095 74.6395 113.351 74.5584C113.679 74.455 114.12 74.5696 114.376 74.8263C114.663 75.1134 115.128 75.1131 115.415 74.8266C115.702 74.5396 115.702 74.0745 115.415 73.7878C114.769 73.1414 113.761 72.8888 112.908 73.1576C112.125 73.4052 111.588 74.0566 111.432 74.9444C111.158 76.5171 111.188 80.6511 111.221 85.438C111.233 87.082 111.245 88.7893 111.245 90.4672C111.247 90.4507 110.813 91.1285 107.147 91.1646C98.6938 91.2575 84.3912 88.0336 82.7471 85.0355C82.1671 83.9781 81.6586 75.7339 83.2565 70.8586C83.7228 69.4358 84.3151 68.5229 84.9691 68.2186C86.8632 67.3369 93.8529 67.393 101.966 68.3567C110.865 69.4126 116.304 70.9938 116.903 71.9454C117.308 72.5882 117.626 74.9533 117.934 77.2408L117.987 77.6333C118.041 78.0352 118.41 78.3187 118.813 78.2632C119.215 78.2088 119.497 77.8392 119.443 77.4373L119.39 77.0451C118.975 73.964 118.693 72.0315 118.146 71.1624C116.652 68.7909 105.517 67.299 102.139 66.898C95.5913 66.1209 87.0027 65.6517 84.3489 66.8871C83.3024 67.3742 82.465 68.5567 81.8607 70.4015C80.2531 75.3064 80.5727 84.1262 81.4591 85.7423C83.0864 88.7097 91.4223 90.629 94.9308 91.3168C98.7593 92.0663 103.318 92.6404 106.838 92.6404Z" fill="#652815"/>
<path d="M123.324 78.3533C129.473 78.3533 136.376 78.0939 142.752 77.5901C150.148 77.0057 162.952 75.5984 165.601 72.7371C166.196 72.0952 166.242 71.4756 166.177 71.0687C166.112 70.6685 165.737 70.3947 165.334 70.4611C164.934 70.526 164.662 70.903 164.726 71.3034C164.734 71.349 164.756 71.4879 164.524 71.7391C160.826 75.7327 127.557 77.7972 112.048 76.4995C111.644 76.4654 111.288 76.7657 111.254 77.1702C111.221 77.5745 111.521 77.9294 111.925 77.9632C115.055 78.225 119.004 78.3533 123.324 78.3533Z" fill="#652815"/>
<path d="M123.553 81.997C141.193 81.997 165.469 79.6937 171.465 74.5619C172.414 73.7487 172.928 72.8579 172.991 71.9139C173.055 70.9656 172.763 70.115 172.121 69.3861C170.658 67.7221 167.415 66.7584 162.208 66.4408C161.801 66.4194 161.455 66.7243 161.43 67.1292C161.405 67.534 161.713 67.8822 162.118 67.9069C168.01 68.2665 170.21 69.4375 171.018 70.3565C171.397 70.7869 171.563 71.2644 171.526 71.8155C171.49 72.3508 171.148 72.8993 170.509 73.4461C167.449 76.065 157.976 78.2829 144.517 79.5306C133.147 80.5848 120.1 80.8166 112.051 80.1073C111.648 80.0724 111.291 80.3703 111.255 80.7742C111.22 81.1785 111.518 81.5349 111.922 81.5704C115.119 81.8522 119.127 81.997 123.553 81.997Z" fill="#652815"/>
<path d="M81.5208 76.1387C81.7946 76.1387 82.057 75.9851 82.1833 75.7219C82.359 75.3564 82.2047 74.9174 81.8392 74.7417C79.8705 73.7963 78.7955 72.7845 78.7303 71.8155C78.6204 70.1803 80.4161 69.0189 84.0668 68.3646C84.4661 68.2929 84.7317 67.9113 84.6603 67.512C84.5886 67.1127 84.2078 66.8472 83.8077 66.9185C79.2982 67.7271 77.0968 69.4079 77.2648 71.914C77.3706 73.4861 78.6589 74.844 81.2035 76.0662C81.306 76.1152 81.4141 76.1387 81.5208 76.1387Z" fill="#652815"/>
<path d="M172.258 109.324C172.663 109.324 172.992 108.995 172.992 108.589V71.8649C172.992 71.4592 172.663 71.1304 172.258 71.1304C171.852 71.1304 171.523 71.4592 171.523 71.8649V108.589C171.523 108.995 171.852 109.324 172.258 109.324Z" fill="#652815"/>
<path d="M78.0331 109.324C78.4388 109.324 78.7676 108.995 78.7676 108.589V71.8649C78.7676 71.4592 78.4388 71.1304 78.0331 71.1304C77.6274 71.1304 77.2986 71.4592 77.2986 71.8649V108.589C77.2986 108.995 77.6274 109.324 78.0331 109.324Z" fill="#652815"/>
<path d="M165.574 91.8463C165.98 91.8463 166.309 91.5175 166.309 91.1118V76.6682C166.309 76.2624 165.98 75.9337 165.574 75.9337C165.168 75.9337 164.84 76.2624 164.84 76.6682V91.1115C164.84 91.5172 165.168 91.8463 165.574 91.8463Z" fill="#652815"/>
<path d="M165.574 114.116C165.98 114.116 166.309 113.787 166.309 113.381V101.442C166.309 101.036 165.98 100.707 165.574 100.707C165.168 100.707 164.84 101.036 164.84 101.442V113.381C164.84 113.787 165.168 114.116 165.574 114.116Z" fill="#652815"/>
<path d="M148.482 95.3609C148.888 95.3609 149.217 95.0322 149.217 94.6264V80.5245C149.217 80.1188 148.888 79.79 148.482 79.79C148.077 79.79 147.748 80.1188 147.748 80.5245V94.6264C147.748 95.0319 148.077 95.3609 148.482 95.3609Z" fill="#652815"/>
<path d="M148.482 117.914C148.888 117.914 149.217 117.586 149.217 117.18V105.534C149.217 105.128 148.888 104.799 148.482 104.799C148.077 104.799 147.748 105.128 147.748 105.534V117.18C147.748 117.586 148.077 117.914 148.482 117.914Z" fill="#652815"/>
<path d="M84.6815 91.8463C85.0873 91.8463 85.416 91.5175 85.416 91.1118V87.5754C85.416 87.1696 85.0873 86.8409 84.6815 86.8409C84.2758 86.8409 83.947 87.1696 83.947 87.5754V91.1118C83.947 91.5172 84.2758 91.8463 84.6815 91.8463Z" fill="#652815"/>
<path d="M84.6815 114.116C85.0873 114.116 85.416 113.787 85.416 113.381V101.442C85.416 101.036 85.0873 100.707 84.6815 100.707C84.2758 100.707 83.947 101.036 83.947 101.442V113.381C83.947 113.787 84.2758 114.116 84.6815 114.116Z" fill="#652815"/>
<path d="M125.797 96.5579C126.202 96.5579 126.531 96.2291 126.531 95.8234V81.2484C126.531 80.8427 126.202 80.5139 125.797 80.5139C125.391 80.5139 125.062 80.8427 125.062 81.2484V95.8231C125.062 96.2291 125.391 96.5579 125.797 96.5579Z" fill="#652815"/>
<path d="M125.797 118.639C126.202 118.639 126.531 118.311 126.531 117.905V106.258C126.531 105.852 126.202 105.523 125.797 105.523C125.391 105.523 125.062 105.852 125.062 106.258V117.905C125.062 118.311 125.391 118.639 125.797 118.639Z" fill="#652815"/>
<path d="M103.762 95.361C104.167 95.361 104.496 95.0322 104.496 94.6265V91.9006C104.496 91.4949 104.167 91.1661 103.762 91.1661C103.356 91.1661 103.027 91.4949 103.027 91.9006V94.6265C103.027 95.0319 103.356 95.361 103.762 95.361Z" fill="#652815"/>
<path d="M103.762 116.772C104.167 116.772 104.496 116.444 104.496 116.038V104.953C104.496 104.548 104.167 104.219 103.762 104.219C103.356 104.219 103.027 104.548 103.027 104.953V116.038C103.027 116.444 103.356 116.772 103.762 116.772Z" fill="#652815"/>
<path d="M125.145 118.908C137.53 118.908 149.079 118.053 157.666 116.5C167.836 114.661 172.992 112 172.992 108.589C172.992 108.184 172.663 107.855 172.258 107.855C171.852 107.855 171.523 108.184 171.523 108.589C171.523 113.634 151.585 117.439 125.145 117.439C98.705 117.439 78.7665 113.634 78.7665 108.589C78.7665 108.184 78.4378 107.855 78.032 107.855C77.6263 107.855 77.2975 108.184 77.2975 108.589C77.2975 111.999 82.4542 114.661 92.624 116.5C101.211 118.053 112.76 118.908 125.145 118.908Z" fill="#652815"/>
<path d="M125.145 106.498C137.53 106.498 149.079 105.643 157.666 104.09C167.836 102.251 172.992 99.5895 172.992 96.1791C172.992 95.7734 172.663 95.4446 172.258 95.4446C171.852 95.4446 171.523 95.7734 171.523 96.1791C171.523 101.224 151.585 105.029 125.145 105.029C98.705 105.029 78.7665 101.224 78.7665 96.1791C78.7665 95.7734 78.4378 95.4446 78.032 95.4446C77.6263 95.4446 77.2975 95.7734 77.2975 96.1791C77.2975 99.5892 82.4542 102.251 92.624 104.09C101.211 105.642 112.76 106.498 125.145 106.498Z" fill="#652815"/>
<path d="M125.145 96.6381C137.53 96.6381 149.079 95.7831 157.666 94.2304C167.836 92.3912 172.992 89.7297 172.992 86.3194C172.992 85.9136 172.663 85.5849 172.258 85.5849C171.852 85.5849 171.523 85.9136 171.523 86.3194C171.523 91.3647 151.585 95.1691 125.145 95.1691C98.705 95.1691 78.7665 91.3647 78.7665 86.3194C78.7665 85.9136 78.4378 85.5849 78.032 85.5849C77.6263 85.5849 77.2975 85.9136 77.2975 86.3194C77.2975 89.7295 82.4542 92.3912 92.624 94.2304C101.211 95.7831 112.76 96.6381 125.145 96.6381Z" fill="#652815"/>
<path d="M157.218 71.1401C157.3 71.1401 157.384 71.126 157.466 71.0972C157.848 70.9603 158.047 70.5402 157.91 70.1583C157.49 68.9831 156.985 67.8314 156.409 66.7353C156.22 66.3759 155.776 66.2381 155.417 66.4265C155.058 66.6151 154.92 67.059 155.108 67.418C155.652 68.454 156.13 69.5422 156.527 70.653C156.634 70.9527 156.917 71.1401 157.218 71.1401Z" fill="#652815"/>
<path d="M154.219 64.3954C154.313 64.3954 154.409 64.3769 154.501 64.3387C154.876 64.1824 155.052 63.7523 154.896 63.3777C154.417 62.2281 153.854 61.1076 153.224 60.0476C153.017 59.6985 152.566 59.5839 152.217 59.7914C151.869 59.9985 151.754 60.4495 151.961 60.7979C152.556 61.7989 153.088 62.8571 153.541 63.9433C153.658 64.2253 153.931 64.3954 154.219 64.3954Z" fill="#652815"/>
<path d="M158.561 66.4573C158.662 66.4573 158.765 66.4362 158.863 66.3915C159.233 66.2243 159.397 65.7892 159.229 65.4196C158.732 64.3208 158.179 63.2538 157.584 62.2481C157.377 61.8988 156.927 61.7839 156.578 61.9896C156.229 62.1961 156.113 62.6465 156.32 62.9958C156.887 63.9556 157.416 64.9748 157.891 66.0251C158.014 66.2966 158.281 66.4573 158.561 66.4573Z" fill="#652815"/>
<path d="M107.302 27.1415C106.937 27.1415 106.641 26.7798 106.641 26.3335C106.641 25.8873 106.937 25.5256 107.302 25.5256C107.667 25.5256 107.963 25.8873 107.963 26.3335C107.963 26.7798 107.667 27.1415 107.302 27.1415Z" fill="#652815"/>
<path d="M109.433 25.5265C109.068 25.5265 108.772 25.1647 108.772 24.7185C108.772 24.2723 109.068 23.9106 109.433 23.9106C109.798 23.9106 110.094 24.2723 110.094 24.7185C110.094 25.1647 109.798 25.5265 109.433 25.5265Z" fill="#652815"/>
<path d="M105.687 25.0858C105.322 25.0858 105.026 24.724 105.026 24.2778C105.026 23.8316 105.322 23.4699 105.687 23.4699C106.052 23.4699 106.348 23.8316 106.348 24.2778C106.348 24.724 106.052 25.0858 105.687 25.0858Z" fill="#652815"/>
<path d="M35.4705 62.6182C35.4556 62.6182 35.4403 62.6182 35.4249 62.6182C35.4249 61.6579 35.3896 60.6958 35.4336 59.7389C35.4986 58.3366 35.0708 57.163 34.2286 56.1749C33.9436 55.8415 33.8705 55.5012 33.8879 55.058C33.9267 54.0353 34.0623 52.9808 33.8976 51.9944C33.6586 50.5597 33.7758 49.1822 33.8367 47.7498C33.9492 45.1161 34.0945 42.4575 33.6013 39.8192C33.2943 38.177 32.5477 36.8792 31.5863 35.6849C31.4394 35.5029 31.225 35.3648 31.0188 35.2741C29.5897 34.6471 28.1197 34.078 26.5938 34.0092C24.4453 33.9127 22.2885 34.0294 20.1359 34.071C19.4512 34.0843 18.848 34.3981 18.4125 34.98C17.9597 35.5849 17.5145 36.2211 17.1881 36.9174C16.5152 38.3527 15.9482 39.851 15.2897 41.2955C14.954 42.0305 14.5115 42.7031 14.1231 43.4075C13.855 43.894 13.5075 44.3545 13.3509 44.8855C12.6545 47.2465 11.6946 49.5023 11.205 51.9476C10.7608 54.1641 11.01 56.1917 12.2329 58.0367C12.4494 58.3637 12.6428 58.7272 12.7758 59.1056C13.1299 60.1139 13.4543 61.1355 13.7736 62.1588C14.405 64.1847 15.234 66.0458 16.9399 67.2153C17.1297 67.3454 17.2745 67.5591 17.4362 67.7383C17.9013 68.2537 18.3322 68.8176 18.8377 69.2764C19.4405 69.8236 19.8821 70.5054 20.0433 71.3155C20.3206 72.7092 21.1403 73.587 22.0547 74.4202C22.5121 74.8374 23.0279 75.0673 23.6174 75.0737C24.2692 75.0812 24.9211 75.076 25.5725 75.0899C26.5938 75.1118 27.5276 74.7715 28.4036 74.2162C29.3881 73.5922 30.3506 72.923 31.3366 72.3019C32.8942 71.3213 33.9687 69.8178 34.8964 68.156C35.3134 67.4089 35.5012 66.5855 35.4771 65.6893C35.45 64.6677 35.4705 63.6427 35.4705 62.6182Z" fill="#BF7805"/>
<path fill-rule="evenodd" clip-rule="evenodd" d="M35.0794 53.0608C32.7363 53.1158 31.0317 51.8437 29.7405 49.7077C29.5828 49.4454 29.3875 49.2126 29.21 48.9654C28.9442 48.5936 28.6161 48.259 28.4239 47.8426C27.8224 46.5404 26.8775 45.6736 25.7815 44.9921C24.859 44.4177 24.3072 43.467 23.9689 42.4236C23.3862 40.6234 22.9977 38.7503 22.9165 36.814C22.9069 36.5604 22.8638 36.3068 22.8212 36.0561C22.5503 34.4701 22.8232 33.007 23.5616 31.6399C23.7057 31.373 23.8294 31.0794 23.907 30.7795C24.2646 29.402 24.5826 28.0117 24.9533 26.6395C25.2256 25.6314 25.5964 24.6575 25.8515 23.6448C26.0914 22.6957 26.1801 21.6958 26.4368 20.7537C27.0033 18.675 27.728 16.7121 29.6401 15.7197C30.9435 15.0428 32.2621 14.41 33.667 14.095C34.6078 13.8842 35.4984 14.0139 36.4148 14.5883C38.2224 15.7214 39.1865 17.6114 40.1887 19.4984C40.4504 19.9906 40.6355 20.5343 40.886 21.0345C41.0367 21.3356 41.2268 21.6193 41.4333 21.8741C41.8486 22.3865 42.2808 22.8822 42.7195 23.3691C44.0254 24.8161 43.9367 26.6244 43.5948 28.3997C43.3255 29.7986 42.761 31.1199 42.4319 32.5078C42.1042 33.8894 41.6843 35.2576 41.7325 36.7335C41.7746 38.0149 41.7716 39.3003 41.7315 40.5817C41.7056 41.4074 41.589 42.2308 41.4906 43.0518C41.3815 43.9678 41.3242 44.9041 41.1067 45.7871C40.7734 47.1397 40.3393 48.4622 39.9107 49.7812C39.7758 50.1946 39.541 50.5733 39.3174 50.9398C38.4755 52.319 37.348 53.103 35.8372 53.0614C35.5851 53.055 35.332 53.0608 35.0794 53.0608ZM35.1418 47.6064C35.7403 47.6371 35.8285 47.5734 36.0689 46.8902C36.9022 44.5214 37.3166 42.0588 37.3313 39.5082C37.3384 38.2581 37.3267 37.0086 37.3374 35.7585C37.3409 35.3109 37.3399 34.8535 37.417 34.4186C37.8283 32.091 38.5774 29.8802 39.294 27.6638C39.6911 26.4333 39.7383 26.4785 38.901 25.526C38.3867 24.9418 37.8273 24.3593 37.4733 23.6546C36.8743 22.4647 36.426 21.1776 35.9072 19.935C35.7509 19.5603 35.5907 19.1851 35.4005 18.8325C35.1063 18.2871 34.6854 18.0711 34.1244 18.2454C33.5072 18.437 32.922 18.7706 32.3002 18.9315C31.3665 19.1736 30.7655 19.829 30.3719 20.7589C30.169 21.2372 30.0569 21.7664 29.9154 22.2765C29.8394 22.5498 29.8044 22.8393 29.7182 23.1086C28.9452 25.5399 28.1373 27.9573 27.4014 30.4031C27.16 31.2062 27.1002 32.0805 26.9587 32.923C26.7984 33.8853 26.9465 34.806 27.1641 35.7446C27.4572 37.008 27.6636 38.2981 27.8852 39.5817C27.9862 40.1683 28.2641 40.5383 28.7256 40.8087C29.7927 41.4335 30.6838 42.3506 31.3675 43.4386C32.0907 44.5885 32.8707 45.6661 33.7228 46.6834C34.1128 47.1467 34.5307 47.5775 35.1418 47.6064Z" fill="#5B5A1B"/>
</g>
<defs>
<clipPath id="clip0_200_16248">
<rect width="250" height="140" rx="20" fill="white"/>
</clipPath>
</defs>
</svg>
