<svg width="250" height="140" viewBox="0 0 250 140" fill="none" xmlns="http://www.w3.org/2000/svg">
<g clip-path="url(#clip0_273_13409)">
<rect width="250" height="140" rx="20" fill="#F7E5D7"/>
<path fill-rule="evenodd" clip-rule="evenodd" d="M26.9667 24.1485C27.1225 24.2026 27.1824 24.205 27.2186 24.2391C27.7373 24.7277 28.2573 25.2153 28.7688 25.7134C29.2042 26.1378 29.6102 26.6025 30.0631 27.0008C30.9701 27.7996 31.8895 28.5823 32.8246 29.3389C33.441 29.8377 34.072 30.3246 34.7365 30.7366C35.6894 31.3278 36.5217 32.1976 37.6581 32.3831C37.7786 32.4027 37.8925 32.5095 37.9995 32.5931C38.9396 33.3252 39.996 33.7418 41.0684 34.1644C42.0787 34.5627 43.0187 35.1898 43.9872 35.7209C44.5724 36.0416 45.1541 36.3704 45.7365 36.6967C46.2755 36.9985 46.818 37.2932 47.3523 37.6058C48.0055 37.9891 48.6422 38.4081 49.3026 38.7749C50.5086 39.4448 51.6193 40.2755 52.6914 41.185C53.1499 41.5735 53.6851 41.8485 54.1433 42.237C55.0656 43.0186 55.9472 43.8603 56.8673 44.645C58.1007 45.6974 59.3435 46.7383 60.6029 47.7506C62.3506 49.1547 64.1059 50.5489 65.8839 51.9034C66.4236 52.3144 67.0537 52.5729 67.6364 52.9144C68.2206 53.2565 68.7593 53.1557 69.2556 52.7124C69.7662 52.2557 70.0355 51.6733 69.8972 50.9198C69.8014 50.3975 69.6884 49.8787 69.5861 49.3581C69.1573 47.1746 68.1794 45.3023 66.9991 43.5406C66.2769 42.4626 65.5728 41.3687 64.8587 40.284C64.7963 40.1895 64.7195 40.1059 64.6452 40.0222C63.9274 39.2076 63.2223 38.3783 62.4867 37.5844C61.5429 36.5668 60.5754 35.5765 59.6157 34.5764C59.5192 34.4763 59.386 34.412 59.3111 34.2968C58.5058 33.0554 57.4066 32.1835 56.3339 31.2811C55.5593 30.6295 54.7675 30.0049 53.9829 29.3691C53.9617 29.3523 53.9255 29.3502 53.9136 29.3287C53.3078 28.2707 52.2005 28.003 51.3706 27.2945C50.7461 26.762 50.0672 26.2969 49.3716 25.8894C48.8657 25.5933 48.2752 25.4861 47.7543 25.2164C46.513 24.5739 45.2056 24.1379 43.9373 23.5886C42.388 22.9169 40.7463 22.6254 39.208 21.9773C38.39 21.6327 37.4883 21.4679 36.7605 20.8121C36.4284 20.5128 35.9319 20.4562 35.532 20.2391C34.3461 19.5949 33.1482 18.971 31.9991 18.2502C31.0877 17.6784 30.1926 17.0429 29.378 16.3119C28.4811 15.5075 27.6864 14.5594 26.8431 13.6787C26.5935 13.4177 26.3082 13.1968 26.0763 12.9182C25.522 12.2526 24.9777 11.576 24.4509 10.8826C23.5982 9.76097 22.7693 8.61651 21.9151 7.49665C21.7297 7.25357 21.479 7.07336 21.259 6.8633C21.0278 6.64305 20.7977 6.42245 20.5674 6.20185C20.5942 6.14459 20.6214 6.08663 20.6479 6.02937C21.5986 6.2981 22.5386 6.65008 23.503 6.81166C24.489 6.97712 25.3554 7.38565 26.2139 7.91713C26.968 8.38432 27.7766 8.74016 28.56 9.14729C29.7045 9.7427 30.834 10.3753 31.9956 10.923C32.7675 11.2866 33.5836 11.5289 34.381 11.8233C34.4553 11.8511 34.553 11.8409 34.6076 11.8922C35.3273 12.5638 36.234 12.6727 37.081 12.9741C37.5966 13.1571 38.0644 13.5031 38.5672 13.7392C39.5357 14.1944 40.5513 14.5411 41.477 15.0845C42.5184 15.6968 43.4816 16.4763 44.4794 17.182C44.6801 17.3236 44.8726 17.4859 45.0867 17.5944C46.5689 18.3479 47.7053 19.5229 48.5645 21.0731C48.7973 21.4928 49.149 21.8332 49.463 22.1908C50.7361 23.643 51.9133 25.216 53.4926 26.287C53.559 26.3317 53.6349 26.3882 53.6683 26.4609C54.1274 27.4687 55.0141 27.9264 55.7765 28.5408C56.5649 29.1752 57.3736 29.7777 58.1563 30.4198C58.9381 31.0616 59.6656 31.7933 60.4758 32.3834C61.9412 33.4509 63.3054 34.7552 65.2011 34.8392C66.2987 34.8877 67.3864 35.1954 68.4844 35.254C69.2325 35.2941 69.9906 35.1065 70.744 35.0173C71.1066 34.9744 71.4674 34.9021 71.831 34.8799C73.0776 34.8044 73.7626 33.8872 73.5435 32.4993C73.3713 31.409 73.0623 30.3994 72.2708 29.6203C71.1048 28.472 70.0065 27.2372 68.8517 26.0742C67.6042 24.818 66.2681 23.6669 65.0775 22.3482C63.9711 21.1233 62.713 20.2093 61.3419 19.4467C61.1543 19.3423 60.9758 19.2127 60.8051 19.0757C59.8663 18.3215 58.9597 17.5111 57.9881 16.8149C56.5072 15.753 54.9638 14.8021 53.4838 13.7385C52.6234 13.1199 51.8344 12.3745 51.0145 11.6842C50.9093 11.5957 50.821 11.4784 50.7096 11.4028C49.5847 10.642 48.4774 9.84457 47.3226 9.14694C46.6569 8.74473 45.9244 8.46863 45.2028 8.20131C43.8558 7.70144 42.7276 6.77478 41.5765 5.8987C41.0637 5.50879 40.5247 5.26851 39.9371 5.06758C38.4848 4.57123 36.9624 4.73212 35.4987 4.38154C34.4678 4.13495 33.4294 3.99725 32.372 4.02219C32.1467 4.02746 31.9217 3.86903 31.692 3.80791C30.9541 3.61225 30.2163 3.41484 29.4745 3.24166C28.8877 3.10431 28.2897 3.02562 27.7055 2.87844C26.6365 2.60971 25.5582 2.80292 24.4865 2.74671C23.1407 2.67681 21.7699 2.8953 20.4541 2.40387C19.7113 2.12671 18.9776 1.81864 18.2401 1.52427C17.7716 1.33705 17.3038 1.14876 16.8353 0.961181C16.8106 0.951696 16.776 0.933079 16.7595 0.94432C16.0388 1.44278 15.7757 0.698427 15.3644 0.314132C14.7888 -0.22367 14.243 -0.0515449 13.8731 0.682268C13.4624 1.49617 13.3307 2.27565 13.6222 3.2111C13.851 3.94702 13.8825 4.77041 13.9437 5.56077C14.0236 6.58966 14.0751 7.62346 14.0807 8.65516C14.0832 9.14378 13.9512 9.63275 13.8797 10.1221C13.8497 10.3244 13.8241 10.5278 13.7889 10.7291C13.7339 11.0473 13.7077 11.3789 13.6082 11.6793C13.1497 13.0619 12.6703 14.4357 12.1971 15.812C12.1591 15.9223 12.1276 16.0407 12.0676 16.1356C11.1248 17.6306 10.9316 19.4277 10.5237 21.1268C10.0936 22.9215 9.72905 24.7428 9.45471 26.5758C9.22438 28.1158 9.14386 29.6867 9.03619 31.247C8.98375 32.0076 9.05679 32.7793 9.00809 33.5409C8.95941 34.3095 9.15729 35.0029 9.3692 35.7054C9.83548 37.2489 10.2696 38.8065 10.7662 40.3373C11.2278 41.7625 11.2914 43.2139 11.2009 44.7054C11.1426 45.6743 11.1738 46.6497 11.166 47.6221C11.1647 47.7401 11.1931 47.8627 11.1747 47.9765C10.8373 50.0677 11.0611 52.1658 11.0867 54.2636C11.097 55.1397 11.2449 55.9526 11.4999 56.7724C12.1962 59.0104 12.8547 61.2628 13.5251 63.5109C13.5922 63.7351 13.6915 63.9658 13.6909 64.1935C13.689 65.3499 14.1703 66.3686 14.3856 67.4596C14.7308 69.2132 15.0828 70.9618 15.0641 72.7913C15.0479 74.4078 15.1144 76.0444 15.3344 77.6385C15.5357 79.0977 16.0241 80.4972 16.9392 81.6332C17.5144 82.3474 17.589 82.3446 18.369 82.0565C19.5715 81.6125 20.157 80.6314 20.3992 79.292C20.4641 78.9333 20.656 78.6014 20.8005 78.2631C20.9463 77.9206 21.1651 77.603 21.2484 77.244C21.5412 75.9875 21.867 74.7307 22.0365 73.4499C22.3255 71.2632 22.9001 69.1078 22.7671 66.8681C22.7175 66.0226 22.6735 65.1718 22.4113 64.3414C21.6002 61.7721 20.8873 59.1622 20.0468 56.6059C19.6483 55.3944 19.5637 54.1319 19.3265 52.8968C19.2026 52.2494 19.2744 51.5441 19.3146 50.8686C19.3792 49.7821 19.5343 48.7008 19.5724 47.6136C19.6183 46.3224 19.5824 45.0276 19.5787 43.7338C19.5777 43.5575 19.5303 43.3783 19.5465 43.2052C19.6589 42.0414 19.3437 40.9215 19.2856 39.783C19.2279 38.6568 18.8162 37.6715 18.6046 36.6135C18.3415 35.2965 18.1833 33.9529 17.9754 32.6212C17.9301 32.3318 17.8861 32.0378 17.8053 31.7596C17.4292 30.4637 17.045 29.1707 16.654 27.8808C16.3228 26.7876 16.0466 25.6983 15.9755 24.5219C15.8906 23.107 15.7729 21.6997 15.8578 20.2806C15.8681 20.105 15.865 19.9219 15.8344 19.7505C15.7052 19.0276 15.7935 18.3517 16.0625 17.6748C16.2782 17.1328 16.2882 16.5683 16.202 15.9476C16.0944 15.1738 16.1652 14.3585 16.2248 13.567C16.3487 11.9283 16.8927 10.355 16.8262 8.6801C16.8106 8.29088 16.9336 7.89464 16.9951 7.49033C17.1168 7.5525 17.1861 7.56234 17.1976 7.59747C17.7029 9.08441 18.4823 10.4365 18.8455 11.9986C19.1183 13.1718 19.4963 14.3149 19.839 15.4671C20.0228 16.086 20.2313 16.6955 20.1673 17.3668C20.1617 17.4254 20.166 17.4873 20.1779 17.5442C20.4251 18.7792 20.6735 20.014 20.9244 21.2484C20.9538 21.392 21.0346 21.5325 21.0331 21.6738C21.0171 22.9872 21.5502 24.1401 21.8639 25.3572C21.9432 25.6656 21.9647 25.9934 22.0127 26.3123C22.0652 26.6605 22.1164 27.0082 22.1697 27.356C22.2449 27.8467 22.3192 28.3374 22.3988 28.8275C22.4363 29.0597 22.4656 29.2964 22.5318 29.5191C22.915 30.8129 23.2668 32.1214 23.7146 33.3867C23.9534 34.0608 24.3323 34.6836 24.7031 35.2867C25.7183 36.9374 26.7508 38.5746 27.7988 40.1993C28.9558 41.9922 30.1611 43.7458 31.2981 45.5545C31.8864 46.4906 32.3755 47.5055 32.9023 48.4894C33.1863 49.0202 33.4069 49.6036 33.7443 50.0852C34.1522 50.6673 34.3283 51.3333 34.5212 52.0095C34.8988 53.3363 35.2874 54.6588 35.6759 55.9817C35.8978 56.737 36.1129 57.4757 36.1728 58.2956C36.2274 59.0427 36.5726 59.76 36.7624 60.4995C36.8632 60.8922 36.9059 61.3039 36.9749 61.7068C37.1796 62.8959 37.4443 64.06 38.0329 65.1001C38.1578 65.3211 38.2427 65.5761 38.3191 65.8255C38.5429 66.5537 38.7348 67.2952 38.9761 68.0157C39.1028 68.3958 39.3138 68.739 39.4708 69.1068C39.6187 69.4514 39.762 69.8002 39.8799 70.1585C40.178 71.0669 40.2829 72.0694 40.9227 72.811C40.991 72.89 41.0185 73.0217 41.0469 73.1345C41.5363 75.0633 42.5231 76.7164 43.4161 78.411C43.7684 79.0791 44.3826 79.5653 44.8168 80.1881C45.1398 80.6507 45.5461 80.9321 45.9809 81.2177C46.4038 81.4959 46.7983 81.4881 47.1547 81.1681C47.7511 80.6314 48.3195 80.0314 48.4964 79.1564C48.817 77.5714 49.1678 75.9819 49.1022 74.3397C49.0685 73.4889 48.9758 72.6336 48.8263 71.7993C48.6865 71.0216 48.4843 70.2698 48.3978 69.4661C48.2602 68.1861 47.9162 66.9348 47.6678 65.6688C47.6066 65.3551 47.5773 65.0337 47.5355 64.7155C47.4933 64.3951 47.4631 64.0726 47.4103 63.7547C47.3763 63.5524 47.2543 63.3508 47.2686 63.1583C47.3463 62.1083 46.9509 61.1866 46.6725 60.2353C45.7328 57.0254 44.7328 53.8372 43.8508 50.6076C43.3633 48.8227 42.5824 47.2571 41.6642 45.7255C40.1352 43.176 38.1859 41.0655 36.2742 38.9094C36.1441 38.7629 35.9927 38.6365 35.8782 38.4759C34.9753 37.2113 34.0539 35.9608 33.1875 34.6646C32.4157 33.5107 31.7101 32.3005 30.9679 31.1213C30.8012 30.8568 30.5962 30.6235 30.4217 30.3643C29.6945 29.2827 28.8834 28.2552 28.2748 27.0943C27.7991 26.1838 27.0847 25.3741 26.9667 24.1485Z" fill="#652815"/>
<path fill-rule="evenodd" clip-rule="evenodd" d="M317.624 50.8592C317.308 49.1264 316.615 47.5016 316.774 45.6341C316.795 45.3924 316.705 45.13 316.645 44.8852C315.737 41.1122 314.826 37.3401 313.91 33.5699C313.851 33.3268 313.759 33.0922 313.665 32.8667C312.956 31.1584 312.247 29.4507 311.526 27.751C311.166 26.9016 310.608 26.1212 310.446 25.218C310.168 23.6681 309.393 22.4729 308.925 21.071C308.627 20.1862 308.302 19.3014 307.891 18.4986C307.235 17.2187 306.496 16.01 305.795 14.7691C305.608 14.4382 305.399 14.118 305.255 13.7565C304.477 11.7989 303.668 9.86825 302.489 8.23448C302.355 8.04702 302.246 7.82637 302.141 7.60886C301.778 6.84781 295.243 -4.69579 290.978 -5.82458C287.877 -6.64484 278.469 -6.49729 268.937 -9.86081C259.405 -13.2243 245.873 -9.31233 239.034 -13.158C238.587 -13.4091 238.141 -13.6692 237.694 -13.9338C236.242 -14.4361 234.792 -14.9424 233.35 -15.4523C232.431 -15.777 232.072 -16.8085 232.218 -17.6983C231.406 -18.3562 230.62 -19.0522 229.871 -19.7895C229.154 -19.9469 228.432 -20.0666 227.71 -20.1474C226.392 -20.2953 225.048 -20.2088 223.719 -20.1074C223.086 -20.059 222.462 -19.7446 221.838 -19.5343C221.529 -19.4307 221.235 -19.2616 220.925 -19.1674C219.159 -18.6329 217.391 -18.1117 215.624 -17.5848C215.546 -17.561 215.463 -17.5364 215.395 -17.4852C213.398 -16.0201 211.242 -16.3273 209.111 -16.5717C207.263 -16.7834 205.424 -17.1135 203.585 -17.4184C203.146 -17.4915 202.685 -17.583 202.292 -17.8202C201.236 -18.4557 200.113 -18.5427 198.977 -18.6154C198.329 -18.6571 197.685 -18.7885 197.037 -18.806C195.386 -18.8508 193.734 -18.8786 192.083 -18.8638C190.874 -18.8544 189.665 -18.7338 188.457 -18.7239C187.73 -18.7167 187.005 -18.8611 186.277 -18.8791C183.363 -18.9468 180.463 -19.3316 177.625 -20.0608C175.802 -20.5285 174.05 -21.156 172.149 -20.886C170.71 -20.6819 169.246 -20.8035 167.796 -20.699C164.933 -20.4954 162.27 -19.2962 159.661 -17.8628C157.988 -16.9444 156.346 -15.916 154.637 -15.1276C153.692 -14.6922 152.867 -14.1406 152.144 -13.2759C151.609 -12.6382 151.043 -12.044 150.345 -11.2668C149.28 -9.92539 147.928 -8.65622 146.939 -6.79552C145.89 -4.8227 144.441 -3.1988 143.29 -1.2659C142.186 0.590767 140.992 2.33486 140.756 4.73552C140.49 7.4371 140.188 10.1355 140.48 12.8734C140.727 15.1925 141.249 17.52 140.529 19.87C140.458 20.101 140.502 20.3835 140.474 20.6378C140.277 22.4155 140.08 24.1933 139.87 25.9688C139.847 26.1629 139.73 26.3374 139.68 26.5298C139.48 27.302 139.257 28.068 139.102 28.8542C138.946 29.6489 138.904 30.4795 138.737 31.2692C138.161 33.9896 138.033 36.728 138.468 39.4798C138.808 41.6387 139.303 43.7622 139.569 45.9346C139.871 48.4133 140.766 50.5606 141.957 52.3809C143.267 54.3842 143.722 56.8181 144.602 59.029C144.89 59.7506 145.132 60.5031 145.371 61.2539C145.596 61.9633 145.763 62.702 146.004 63.402C146.34 64.3801 146.691 65.3542 147.089 66.292C147.809 67.9863 148.316 69.8465 149.433 71.2395C149.661 71.5234 149.82 71.8947 150.025 72.21C151.748 74.8618 153.486 77.471 155.998 79.0397C157.724 80.1169 159.333 81.4937 161.245 82.0575C161.913 82.2552 162.564 82.54 163.232 82.7337C163.975 82.9486 164.727 83.2477 165.477 83.2562C166.969 83.2733 168.464 83.1333 169.956 83.0253C170.8 82.9643 171.643 82.8472 172.486 82.7405C173.652 82.5947 174.816 82.3817 175.984 82.2934C177.352 82.1902 178.725 82.2207 180.094 82.1355C181.897 82.0234 183.706 81.6659 185.498 81.7619C187.548 81.8713 189.647 82.0763 191.61 82.7611C194.168 83.6527 196.625 85.0147 199.098 86.265C199.788 86.6139 200.353 87.3422 201.021 87.7849C202.267 88.6114 203.474 89.5003 204.675 90.4326C206.031 91.4861 207.544 92.1359 208.808 93.515C209.779 94.5738 211.146 95.0151 212.247 95.9968C213.486 97.1009 214.87 97.9544 216.218 98.8491C218.144 100.127 220.057 101.473 222.266 101.843C224.063 102.144 225.863 102.431 227.664 102.703C227.94 102.745 228.232 102.706 228.508 102.644C229.584 102.401 230.652 102.096 231.731 101.892C232.283 101.788 232.854 101.857 233.415 101.835C233.778 101.822 234.14 101.793 234.501 101.757C235.145 101.693 235.787 101.578 236.43 101.556C238.246 101.496 240.061 101.442 241.822 100.746C242.014 100.67 242.221 100.602 242.418 100.613C244.35 100.719 246.182 100.046 248.034 99.4711C248.769 99.2428 249.552 99.1464 250.306 99.1859C251.109 99.2276 251.92 99.4177 252.693 99.6971C253.538 100.003 254.385 100.383 255.152 100.914C256.101 101.572 256.934 102.498 257.88 103.166C259.416 104.251 260.74 105.929 262.561 106.24C264.359 106.547 266.181 106.634 267.993 106.81C268.108 106.82 268.234 106.769 268.347 106.719C269.798 106.08 271.269 105.505 272.691 104.775C274.86 103.662 277.106 102.718 278.873 100.616C279.07 100.381 279.372 100.291 279.622 100.125C279.977 99.8873 280.344 99.6702 280.678 99.3899C281.554 98.6562 282.352 97.7122 283.296 97.1843C284.835 96.321 286.436 95.5784 288.064 95.055C289.823 94.4886 291.638 94.1859 293.319 93.2692C294.576 92.5839 295.85 91.9027 297.012 91.0008C298.146 90.1196 299.139 88.9468 300.209 87.927C301.927 86.291 303.061 84.0603 304.175 81.8027C304.303 81.5453 304.468 81.2964 304.659 81.1166C305.304 80.5085 305.714 79.7093 305.991 78.7644C306.1 78.3863 306.291 78.0405 306.468 77.7001C307.203 76.287 307.948 74.882 308.685 73.4702C308.886 73.0863 309.057 72.6755 309.268 72.3019C310.299 70.4793 311.294 68.6213 312.394 66.8678C312.941 65.996 313.644 65.26 314.347 64.5743C315.24 63.7034 316.215 62.9729 317.128 62.132C317.976 61.3494 318.347 60.2215 318.399 58.9232C318.509 56.1741 318.105 53.5048 317.624 50.8592Z" fill="#A26833"/>
<path fill-rule="evenodd" clip-rule="evenodd" d="M246.261 50.5904C246.485 48.0673 247.838 45.6009 250.651 44.2071C251.068 44.0011 251.556 43.8959 252.016 43.8729C253.387 43.8024 254.244 44.5438 254.428 45.9995C254.526 46.7807 254.677 47.492 255.027 48.2073C255.257 48.6764 255.306 49.3912 255.159 49.9047C254.732 51.3931 254.194 52.8463 253.646 54.2903C253.267 55.2871 252.523 55.7378 251.516 55.8471C250.281 55.9815 249.187 55.8916 248.476 54.5953C248.396 54.4492 248.19 54.37 248.03 54.2903C246.571 53.5683 246.195 52.9464 246.261 50.5904Z" fill="#5B5A1B"/>
<path fill-rule="evenodd" clip-rule="evenodd" d="M244.982 26.5901C244.982 25.6893 244.979 24.789 244.982 23.8881C244.986 22.7206 245.3 21.738 246.325 21.1331C246.569 20.989 246.737 20.7044 246.955 20.5031C247.396 20.0969 247.811 19.6401 248.301 19.3176C249.637 18.4398 251.108 19.1092 251.617 20.6947C252.2 22.5075 252.272 24.3787 252.204 26.2472C252.167 27.2845 251.861 28.3151 251.629 29.336C251.544 29.7069 251.347 30.0595 251.155 30.389C250.538 31.4457 247.854 32.6255 246.718 32.3608C245.69 32.1212 244.966 31.1519 244.908 29.8766C244.882 29.3308 244.931 28.7811 244.937 28.2333C244.944 27.6851 244.938 27.1368 244.938 26.5891C244.953 26.5901 244.968 26.5901 244.982 26.5901Z" fill="#5B5A1B"/>
<path fill-rule="evenodd" clip-rule="evenodd" d="M221.917 3.38498C221.917 2.52351 221.91 1.66204 221.92 0.801078C221.928 0.00807428 222.208 -0.624489 222.833 -1.09508C223.082 -1.28362 223.247 -1.60501 223.445 -1.87071C223.715 -2.23349 223.934 -2.66269 224.26 -2.95394C225.079 -3.68869 226.159 -3.52927 226.71 -2.55335C226.986 -2.06334 227.347 -1.74961 227.735 -1.39808C228.135 -1.0353 228.564 -0.568284 228.719 -0.0557947C229.354 2.0519 229.62 4.19791 228.847 6.35313C228.598 7.04598 228.354 7.74139 228.115 8.43885C227.366 10.6217 224.45 10.4188 223.626 8.95747C223.448 8.64068 223.178 8.34126 222.886 8.14863C222.155 7.66526 221.855 6.97292 221.855 6.0859C221.856 5.18559 221.855 4.2858 221.855 3.38498C221.876 3.38498 221.896 3.38498 221.917 3.38498Z" fill="#5B5A1B"/>
<path fill-rule="evenodd" clip-rule="evenodd" d="M241.848 32.7346C241.928 35.648 240.869 38.1435 239.284 40.3938C238.327 41.7514 236.963 41.9333 235.586 41.081C235.397 40.9645 235.212 40.8394 235.037 40.7009C233.505 39.4884 233.108 38.2452 233.716 36.2939C234.211 34.7033 234.775 33.1357 235.319 31.5624C235.393 31.3458 235.485 31.0832 235.646 30.9631C236.817 30.0899 237.881 28.9571 239.469 29.0398C240.865 29.1129 241.752 30.0444 241.845 31.5599C241.868 31.9502 241.848 32.3432 241.848 32.7346Z" fill="#5B5A1B"/>
<path fill-rule="evenodd" clip-rule="evenodd" d="M219.994 108.611C220.205 108.004 219.999 107.571 219.63 107.114C219.1 106.456 219.087 105.654 219.484 104.915C220.155 103.665 220.774 102.366 221.95 101.53C222.211 101.346 222.377 101.012 222.598 100.758C222.994 100.301 223.36 99.8009 223.809 99.411C224.54 98.7733 225.553 98.8469 226.199 99.5398C227.447 100.878 227.933 102.403 227.49 104.339C227.061 106.217 226.446 107.992 225.674 109.724C225.025 111.18 223.722 112.156 222.433 112.085C221.138 112.013 220.348 111.267 220.127 109.881C220.059 109.458 220.037 109.027 219.994 108.611Z" fill="#5B5A1B"/>
<path fill-rule="evenodd" clip-rule="evenodd" d="M229.34 71.678C229.34 72.1486 229.309 72.6218 229.346 73.0888C229.496 74.9599 228.531 76.1187 227.164 76.9664C226.107 77.6225 224.808 77.4043 223.983 76.3614C223.428 75.6604 223.044 74.7913 222.641 73.9651C221.835 72.306 221.693 70.5181 221.946 68.7007C222.019 68.1846 222.213 67.5888 222.541 67.2342C223.175 66.5495 223.902 65.9369 224.666 65.428C225.793 64.6784 227.137 65.0862 227.954 66.2348C229.109 67.8571 229.382 69.7119 229.34 71.678Z" fill="#5B5A1B"/>
<path fill-rule="evenodd" clip-rule="evenodd" d="M184.864 57.4473C183.852 57.4412 183.015 56.5598 183 55.4214C182.996 55.0428 183.058 54.6156 183.225 54.2901C184.059 52.653 184.866 50.9889 185.832 49.4437C186.302 48.6931 187.052 48.103 187.764 47.5813C188.409 47.1102 189.161 47.2011 189.819 47.6906C190.451 48.1607 190.803 49.0804 190.553 49.8734C190.043 51.4967 189.465 53.096 188.912 54.704C188.215 56.7264 186.715 57.386 184.864 57.4473Z" fill="#5B5A1B"/>
<path fill-rule="evenodd" clip-rule="evenodd" d="M209.715 114.739C209.751 115.245 209.812 115.753 209.818 116.26C209.837 117.827 208.924 118.785 207.418 118.805C205.997 118.824 205.094 117.88 205.09 116.338C205.089 115.911 205.149 115.481 205.217 115.059C205.323 114.41 205.482 113.77 205.579 113.12C205.687 112.4 205.931 111.779 206.451 111.282C207.657 110.131 209.184 110.588 209.56 112.288C209.734 113.076 209.702 113.918 209.763 114.735C209.747 114.736 209.731 114.737 209.715 114.739Z" fill="#5B5A1B"/>
<path fill-rule="evenodd" clip-rule="evenodd" d="M236.629 22.0548C235.091 22.0604 233.939 20.4121 234.575 18.8726C235.1 17.6018 235.837 16.3975 236.651 15.3112C237.433 14.2668 238.64 14.1892 239.492 14.8718C240.359 15.5662 240.531 16.7358 239.974 17.9385C239.553 18.8455 239.186 19.7816 238.758 20.6839C238.322 21.6062 237.588 22.0482 236.629 22.0548Z" fill="#5B5A1B"/>
<path fill-rule="evenodd" clip-rule="evenodd" d="M236.175 62.5998C236.175 62.9523 236.209 63.309 236.169 63.6559C236.04 64.7632 235.269 65.6042 234.261 65.7774C233.284 65.9455 232.338 65.4678 231.883 64.5077C231.688 64.0959 231.518 63.6309 231.482 63.1772C231.387 61.9805 231.686 60.8421 232.207 59.8003C232.628 58.9602 233.411 58.8657 234.211 58.949C235.063 59.0374 235.649 59.5662 235.898 60.4047C236.104 61.1027 236.144 61.8574 236.258 62.5875C236.231 62.5916 236.203 62.5957 236.175 62.5998Z" fill="#5B5A1B"/>
<path fill-rule="evenodd" clip-rule="evenodd" d="M218.111 83.9741C217.981 84.9321 217.923 85.8712 217.712 86.768C217.47 87.7924 216.326 88.3044 215.316 87.9493C214.385 87.6223 213.86 86.5099 214.203 85.4998C214.536 84.5192 214.897 83.5479 215.287 82.5924C215.53 82.0002 215.918 81.5005 216.585 81.5148C217.249 81.5291 217.635 82.035 217.854 82.6359C218.01 83.0615 218.034 83.5438 218.111 83.9741Z" fill="#5B5A1B"/>
<path fill-rule="evenodd" clip-rule="evenodd" d="M193.719 35.6271C192.819 35.6066 192.332 35.3256 192.075 34.6798C191.854 34.1239 191.909 33.5357 192.326 33.1684C193.129 32.4622 193.792 31.5282 194.846 31.194C195.122 31.1067 195.405 31.0014 195.687 30.9953C196.216 30.9845 196.694 31.1486 196.96 31.7086C197.219 32.2543 197.138 32.778 196.808 33.246C196.614 33.5219 196.379 33.7744 196.129 33.9941C195.683 34.3865 195.233 34.7815 194.746 35.109C194.361 35.3691 193.919 35.529 193.719 35.6271Z" fill="#5B5A1B"/>
<path fill-rule="evenodd" clip-rule="evenodd" d="M215.614 62.0066C215.583 62.1374 215.56 62.4184 215.453 62.657C215.171 63.2881 214.856 63.9032 214.548 64.521C214.48 64.6569 214.392 64.7841 214.3 64.9032C213.623 65.7754 212.869 65.9731 212.231 65.4525C211.566 64.9088 211.477 63.9211 212.012 63.0418C212.229 62.6846 212.446 62.3269 212.644 61.9575C212.988 61.3163 213.501 60.8958 214.142 60.6847C214.956 60.4165 215.59 60.9463 215.614 62.0066Z" fill="#5B5A1B"/>
<path fill-rule="evenodd" clip-rule="evenodd" d="M116.488 -25.6901C117.285 -25.1112 118.087 -24.5399 118.876 -23.9481C119.115 -23.769 119.316 -23.5314 119.539 -23.3248C120.336 -22.585 121.141 -21.8517 121.931 -21.1027C122.105 -20.9372 122.22 -20.6981 122.387 -20.5216C122.739 -20.149 123.107 -19.7949 123.469 -19.4343C123.77 -19.1343 124.081 -18.8463 124.371 -18.5338C125.058 -17.794 125.73 -17.0375 126.419 -16.3018C126.606 -16.1019 126.806 -15.8882 127.048 -15.7875C128.111 -15.3424 128.753 -14.3733 129.504 -13.5282C130.641 -12.2483 131.712 -10.858 133.021 -9.81458C134.114 -8.94254 135.146 -8.01935 136.024 -6.91556C136.962 -5.73671 137.812 -4.46097 138.621 -3.1588C139.74 -1.35584 140.786 0.509918 141.863 2.34996C142.545 3.51639 143.232 4.67881 143.901 5.85529C144.103 6.21133 144.286 6.59007 144.426 6.98782C144.933 8.42905 145.378 9.90881 145.925 11.3255C146.458 12.7109 147.105 14.0249 147.668 15.3927C148.355 17.062 149.005 18.754 149.671 20.4368C149.56 21.7512 150.154 22.6511 150.693 23.6246C151.285 24.6944 151.665 25.9299 152.217 27.0346C152.626 27.8524 153.105 28.6328 153.652 29.3282C154.793 30.7774 156.002 32.1564 157.177 33.5705C157.392 33.8289 157.587 34.1094 157.78 34.3893C158.061 34.7961 158.29 35.2606 158.616 35.6143C159.694 36.7851 160.767 37.9672 161.92 39.0454C162.598 39.6799 163.422 40.1305 164.185 40.6556C164.603 40.9425 165.034 41.2092 165.455 41.4909C165.604 41.5904 165.724 41.7716 165.89 41.8042C166.838 41.9916 167.378 42.7748 168.061 43.3654C168.811 44.0136 169.626 44.5831 170.456 45.1117C172.071 46.1386 173.681 47.181 175.361 48.0888C176.936 48.9395 178.452 49.9001 180.14 50.5549C181.723 51.1698 183.229 51.9854 184.693 52.8464C185.586 53.3716 186.337 54.1486 187.151 54.8133C187.291 54.9281 187.409 55.0936 187.572 55.1535C188.507 55.4963 189.085 56.3255 189.794 56.9811C190.255 57.4082 190.795 57.7327 191.3 58.103C191.444 58.2097 191.613 58.2905 191.727 58.4302C192.737 59.6565 194.055 60.417 195.35 61.2326C196.28 61.8173 197.071 62.6351 197.934 63.3326C198.4 63.7083 198.893 64.0469 199.367 64.4102C199.628 64.6099 199.9 64.8009 200.127 65.0416C202.331 67.3756 204.489 69.7642 206.741 72.0393C207.608 72.9146 208.62 73.651 209.675 74.2527C211.542 75.3174 213.47 76.2778 215.416 77.1898C216.987 77.9272 218.61 78.5628 220.234 79.1856C223.511 80.4432 226.796 81.6821 230.094 82.8861C231.277 83.318 232.52 83.6015 233.718 83.9993C235.203 84.4923 236.676 85.0164 238.143 85.5591C240.402 86.3947 242.731 87.0108 245.175 87.2792C245.448 87.3089 245.736 87.2757 246.011 87.3026C246.491 87.3496 246.966 87.4181 247.443 87.4818C248.654 87.6429 249.867 87.7963 251.074 87.9712C252.409 88.1642 253.777 88.1033 255.156 88.0228C257.031 87.9133 258.895 87.9133 260.764 87.8687C260.92 87.8655 261.083 87.851 261.226 87.8894C262.482 88.229 263.83 87.8634 265.134 87.8252C265.601 87.8118 266.069 87.796 266.538 87.7686C266.85 87.7492 267.164 87.7314 267.477 87.6734C269.427 87.3135 271.376 86.93 273.325 86.579C274.77 86.3193 276.22 86.0407 277.66 85.8823C278.463 85.7931 279.254 85.9234 280.046 85.9776C280.288 85.9938 280.509 86.1277 280.751 86.1371C281.892 86.18 283.038 86.1924 284.18 86.2293C284.425 86.2369 284.661 86.2935 284.898 86.3397C285.285 86.415 285.66 86.5439 286.055 86.5733C287.213 86.6608 288.384 86.6856 289.54 86.7841C290.179 86.8393 290.802 86.9768 291.425 87.105C293.356 87.5 295.28 87.9118 296.979 88.9141C297.52 89.233 298.117 89.4559 298.66 89.7725C299.174 90.0708 299.67 90.4063 300.141 90.7731C301.373 91.7325 302.585 92.7198 303.807 93.6921C304.7 94.4022 305.593 95.1119 306.495 95.8084C307.017 96.2124 307.552 96.597 308.09 96.9782C308.92 97.5678 309.771 98.1255 310.587 98.7356C311.875 99.6977 313.47 100.198 314.446 101.628C314.584 101.83 314.778 101.995 314.978 102.124C315.706 102.593 316.196 103.288 316.564 104.133C316.867 104.831 317.167 104.986 317.501 104.732C318 104.353 317.801 103.917 317.73 103.491C317.571 102.537 317.218 101.751 316.604 101.1C315.702 100.146 314.91 99.0663 314.014 98.1067C313.519 97.576 312.922 97.1589 312.345 96.7301C311.767 96.3016 311.163 95.9102 310.559 95.5241C309.753 95.0082 308.914 94.5464 308.129 93.9983C307.296 93.4172 306.552 92.6896 305.692 92.1575C304.56 91.4563 303.655 90.462 302.63 89.6284C300.971 88.279 299.051 87.3559 297.157 86.3956C295.386 85.4978 293.504 84.8919 291.566 84.4093C290.576 84.1624 289.607 83.8548 288.619 83.6011C288.33 83.5272 288.012 83.539 287.705 83.5214C287.397 83.5045 287.059 83.5716 286.782 83.4789C285.116 82.9206 283.303 82.9509 281.566 82.6864C280.001 82.4476 278.412 82.33 276.853 82.0956C275.883 81.9498 274.948 81.7504 273.927 81.9227C272.161 81.2296 270.157 81.9785 268.302 81.7757C266.388 81.5656 264.43 81.5507 262.491 81.4525C260.648 81.359 258.791 81.3327 256.967 81.1498C255.782 81.0311 254.559 81.1587 253.391 80.8746C252.315 80.6135 251.131 80.6831 250 80.585C249.452 80.5386 248.903 80.4843 248.376 80.3623C247.254 80.102 246.148 79.7951 245.034 79.5089C244.888 79.4705 244.742 79.4248 244.589 79.4149C243.334 79.3327 242.076 79.2637 240.823 79.1769C240.456 79.1511 240.095 79.0934 239.738 79.0264C238.219 78.743 236.736 78.3527 235.11 78.4523C234.32 78.5005 233.55 78.2017 232.804 77.97C231.368 77.5253 229.956 77.0167 228.534 76.5327C226.541 75.8545 224.559 75.1502 222.553 74.5043C221.375 74.1258 220.244 73.6637 219.201 73.0036C219.027 72.8933 218.802 72.8726 218.603 72.8047C217.865 72.5546 217.142 72.2631 216.387 72.06C215.665 71.866 214.922 71.7141 214.169 71.6282C212.827 71.475 211.753 70.811 210.677 70.0798C207.49 67.9127 205.169 64.6838 202.374 62.0388C201.917 61.6059 201.38 61.2737 200.878 60.8988C200.758 60.8088 200.599 60.7627 200.51 60.6445C199.68 59.5387 198.484 58.943 197.456 58.1147C196.919 57.6808 196.3 57.3674 195.736 56.9701C195.249 56.6266 194.791 56.2391 194.317 55.8756C193.795 55.4752 193.262 55.0898 192.748 54.6799C192.443 54.4356 192.155 54.1655 191.875 53.89C191.162 53.1891 190.566 52.3266 189.582 52.0029C189.5 51.976 189.431 51.9034 189.37 51.8356C188.792 51.1984 188.167 50.6541 187.383 50.2936C186.741 49.9983 186.223 49.4497 185.602 49.101C184.745 48.6185 183.836 48.2329 182.963 47.7805C181.428 46.9848 179.885 46.2025 178.378 45.3536C176.92 44.5315 175.494 43.6494 174.073 42.761C173.214 42.224 172.437 41.5361 171.541 41.0746C170.12 40.3414 169.178 39.0155 168.041 37.93C167.888 37.7831 167.742 37.6066 167.554 37.5276C166.064 36.899 165.068 35.5774 164.132 34.3082C163.379 33.2886 162.456 32.4267 161.812 31.3383C160.926 29.8394 159.874 28.4952 159.176 26.7949C158.386 24.8713 157.813 22.8627 157.22 20.8458C156.924 19.8386 156.669 18.8385 156.509 17.7562C156.332 16.547 155.753 15.4784 155.326 14.3613C155.132 13.8514 154.824 13.4037 154.675 12.8734C154.237 11.3147 153.661 9.8499 153.081 8.37248C152.496 6.88326 151.647 5.62572 150.972 4.22318C150.522 3.28784 149.761 2.57916 149.294 1.65402C148.49 0.0569111 147.179 -0.977247 146.115 -2.28414C145.361 -3.20993 144.709 -4.24372 144.012 -5.22927C143.958 -5.30557 143.915 -5.39362 143.855 -5.46218C141.514 -8.13369 139.385 -11.0484 136.758 -13.3887C135.568 -14.4487 134.191 -15.2605 132.939 -16.243C132.043 -16.9465 130.953 -17.3645 130.232 -18.3285C130.087 -18.5232 129.9 -18.7152 129.685 -18.7969C128.813 -19.1283 128.247 -19.8753 127.59 -20.501C126.425 -21.6111 125.353 -22.8736 124.05 -23.7678C122.895 -24.5607 122.007 -25.6522 120.938 -26.5208C120.169 -27.1435 119.287 -27.5971 118.626 -28.3864C118.211 -28.8817 117.834 -29.378 117.543 -30.0008C117.06 -31.0346 116.459 -31.9877 115.867 -32.9394C115.143 -34.1048 114.37 -35.2263 113.633 -36.3796C112.929 -37.4813 112.259 -38.6146 111.541 -39.7051C111.2 -40.2228 110.802 -40.6933 110.389 -41.1384C110.271 -41.2662 109.978 -41.328 109.822 -41.2418C109.665 -41.1555 109.503 -40.8459 109.476 -40.6375C109.437 -40.3315 109.46 -39.9946 109.554 -39.7283C109.931 -38.6569 110.348 -37.6092 110.742 -36.549C110.844 -36.2759 110.928 -35.991 111.004 -35.704C111.331 -34.4741 111.969 -33.4765 112.603 -32.4726C112.868 -32.053 113.095 -31.5968 113.304 -31.1327C113.869 -29.885 114.679 -28.8338 115.187 -27.5295C115.458 -26.8344 116.076 -26.3566 116.536 -25.7809C116.52 -25.7512 116.504 -25.7206 116.488 -25.6901Z" fill="#FEC84B"/>
<path d="M133.441 27.8961C133.977 25.785 135.551 23.9477 137.588 23.0534C138.195 22.7871 138.898 22.6019 139.518 22.8379C140.041 23.0375 140.404 23.4983 140.726 23.9465C142.025 25.7559 143.108 27.7118 143.947 29.7619C143.188 30.054 142.48 30.4719 141.863 30.9921C139.025 29.6304 136.096 28.4446 133.441 27.8961Z" fill="#B07066"/>
<path d="M143.681 29.3945L149.823 30.6701L151.139 34.7095C150.7 37.8276 154.759 43.2984 160.023 52.9929C166.604 65.111 170.635 67.2363 174.803 86.1576C178.138 101.295 169.346 113.442 164.301 117.198C145.436 117.339 106.696 117.538 102.66 117.198C97.6142 116.772 92.3494 101.253 99.3691 90.8354C106.389 80.4181 109.899 75.7409 107.705 68.0874C105.511 60.4339 99.5885 57.989 96.5174 55.0126C93.4463 52.0362 92.6785 42.2567 92.8979 38.6425C93.1172 35.0284 93.0075 33.4339 104.634 29.3945C116.23 25.3657 121.497 26.2011 133.495 28.1039L133.59 28.1189C143.242 29.6496 144.339 29.6071 143.681 29.3945Z" fill="#CD966D"/>
<path d="M96.6759 110.181C96.2841 108.734 95.3781 107.424 94.1481 106.526C93.4699 106.031 92.5143 105.662 91.8021 106.11C91.1384 106.527 91.0415 107.427 91.1007 108.194C91.2473 110.086 91.9187 111.899 92.6377 113.663C93.0277 114.619 93.4702 115.618 94.3182 116.233C94.977 116.711 95.8073 116.901 96.6201 117.018C98.3302 117.266 100.081 117.245 101.784 116.955C99.3691 115.199 97.3659 112.73 96.6759 110.181Z" fill="#B07066"/>
<path d="M110.211 55.553C109.687 53.8289 111.055 48.8565 114.639 48.2843C115.228 47.5269 118.471 41.9433 117.896 37.6785C117.498 34.7323 114.084 30.0679 105.18 29.2826C101.259 28.9364 95.3127 32.6978 93.5514 35.5422C92.7161 36.8914 92.8022 44.0994 93.6983 48.0216C94.1423 49.9658 95.2933 53.284 96.6939 54.3056C97.2561 54.716 98.6734 53.1708 99.762 52.0919C99.5383 54.2909 101.641 56.2029 103.873 56.6076C106.106 57.012 108.38 56.2954 110.211 55.553Z" fill="#B07066"/>
<path d="M96.2231 117.847C96.211 117.847 96.1987 117.847 96.1866 117.846C93.3824 117.719 91.1727 113.549 90.4997 110.629C89.9208 108.118 90.3207 106.299 91.597 105.64C92.3601 105.246 93.1664 105.185 93.9301 105.465C95.6571 106.096 96.8424 108.329 97.5323 110.09C97.6841 110.478 97.4845 110.911 97.0861 111.059C96.6887 111.206 96.2422 111.013 96.0907 110.625C95.2866 108.573 94.3013 107.204 93.3873 106.87C93.0355 106.741 92.6964 106.772 92.3203 106.966C91.75 107.26 91.6204 108.632 92.0049 110.301C92.7186 113.396 94.7459 116.278 96.2582 116.347C96.6838 116.366 97.0127 116.718 96.9929 117.131C96.9741 117.534 96.6328 117.847 96.2231 117.847Z" fill="#652815"/>
<path d="M118.939 25.8867C114.569 25.941 110.273 26.7577 104.412 28.7941C98.6141 30.8084 95.6012 32.2547 94.0318 33.7183C92.3708 35.2673 92.3492 36.8207 92.2409 38.605C92.128 40.4649 92.2689 43.8607 92.824 47.1691C93.1019 48.8256 93.4868 50.479 94.0039 51.9173C94.5163 53.3425 95.1802 54.6188 96.0519 55.4636C96.8547 56.2416 97.8363 56.9781 98.8492 57.739C99.8733 58.5084 100.947 59.315 101.99 60.2618C104.065 62.1435 106.014 64.5715 107.071 68.2581C108.125 71.9363 107.813 74.8723 106.385 78.1788C104.934 81.5386 102.347 85.2496 98.8179 90.4866C95.1876 95.8742 94.7524 102.542 95.8443 107.887C96.3911 110.564 97.3276 112.947 98.4733 114.705C99.577 116.398 100.976 117.66 102.528 117.826L102.602 117.833C104.659 118.006 115.398 118.041 127.921 118.016C140.47 117.991 154.872 117.906 164.306 117.835L164.527 117.834L164.702 117.703C167.115 115.907 170.288 112.322 172.686 107.496L172.8 107.265L172.814 107.235C172.946 106.923 172.805 106.562 172.486 106.416C172.168 106.27 171.79 106.394 171.625 106.691L171.61 106.72L171.5 106.944C169.236 111.498 166.281 114.859 164.071 116.561C154.637 116.632 140.365 116.716 127.918 116.74C115.345 116.765 104.697 116.729 102.717 116.562L102.628 116.553C101.705 116.43 100.618 115.607 99.5861 114.023C98.545 112.426 97.6581 110.198 97.1354 107.64C96.0886 102.515 96.5309 96.2139 99.9201 91.1842C103.411 86.004 106.089 82.1676 107.599 78.6712C109.132 75.1214 109.478 71.892 108.339 67.9168C107.202 63.9499 105.093 61.3285 102.89 59.3304C101.795 58.3372 100.674 57.4962 99.6558 56.7309C98.6259 55.9572 97.7154 55.2718 96.9827 54.5617C96.3189 53.9183 95.735 52.8559 95.2466 51.4975C94.7629 50.1521 94.3937 48.5766 94.1232 46.9644C93.5815 43.7355 93.4482 40.4342 93.5547 38.6799C93.6658 36.8501 93.699 35.7991 94.9446 34.6375C96.2818 33.3905 99.0273 32.02 104.856 29.995C110.621 27.992 114.77 27.2143 118.956 27.1623C122.638 27.1165 126.368 27.6306 131.295 28.4026L133.483 28.7484C138.311 29.514 141.011 29.8881 142.427 30.0442C143.113 30.1198 143.551 30.1508 143.781 30.1366C143.812 30.1346 143.887 30.1299 143.974 30.1077L149.311 31.216L150.469 34.7701C150.264 36.5599 150.975 38.043 152.642 41.069L152.659 41.0976C152.839 41.3868 153.222 41.4918 153.533 41.331C153.854 41.165 153.975 40.7786 153.803 40.4679L153.489 39.8947C151.994 37.144 151.609 36.0884 151.791 34.7957L151.811 34.6539L150.335 30.1241L143.818 28.7709L143.474 29.9937C143.469 29.9908 143.463 29.9883 143.457 29.9846C143.441 29.9746 143.369 29.9298 143.303 29.8428C143.229 29.7465 143.103 29.506 143.231 29.2214C143.332 28.9973 143.523 28.9165 143.561 28.9008C143.66 28.8598 143.734 28.8614 143.697 28.8637C143.605 28.8694 143.288 28.8552 142.576 28.7767C141.195 28.6244 138.521 28.2546 133.696 27.4895L131.513 27.1444C126.582 26.3715 122.743 25.8394 118.939 25.8867Z" fill="#652815"/>
<path d="M173.405 105.824C173.405 105.746 173.44 105.603 173.572 105.382C173.7 105.168 173.886 104.933 174.111 104.681C174.335 104.43 174.578 104.183 174.816 103.939C175.017 103.733 175.224 103.52 175.391 103.322L175.46 103.239C175.77 102.852 175.865 102.399 175.867 101.977C175.869 101.559 175.781 101.125 175.673 100.721C175.566 100.319 175.424 99.8947 175.308 99.5228C175.186 99.1356 175.089 98.7949 175.042 98.4983C174.995 98.2012 175.013 98.0443 175.038 97.9595C175.058 97.8919 175.092 97.8356 175.181 97.7598C175.289 97.6683 175.445 97.5747 175.707 97.4293C175.953 97.2921 176.27 97.1207 176.621 96.8936C177.182 96.5314 177.4 95.9232 177.47 95.3616C177.542 94.7895 177.478 94.1421 177.355 93.5194C177.109 92.2728 176.593 90.9621 176.178 90.2142C175.768 89.4761 175.537 89.0984 175.436 88.8255C175.42 88.7828 175.412 88.7526 175.408 88.7329C175.636 88.5115 175.957 88.1851 176.007 87.651C176.052 87.1693 175.866 86.6325 175.529 85.9793C175.425 85.7788 175.275 85.3698 175.099 84.806C174.928 84.2568 174.745 83.6009 174.572 82.9352C174.222 81.595 173.923 80.2557 173.836 79.6875L173.831 79.6551C173.763 79.3242 173.438 79.0997 173.089 79.1493C172.73 79.2006 172.481 79.5246 172.534 79.8731L172.555 80.0012C172.67 80.6836 172.967 81.9862 173.296 83.2477C173.472 83.9248 173.661 84.6006 173.839 85.1745C174.014 85.734 174.192 86.2401 174.352 86.5498C174.673 87.1721 174.706 87.4326 174.696 87.5355C174.691 87.5842 174.685 87.6295 174.475 87.8333C174.293 88.0098 174.144 88.2345 174.099 88.523C174.057 88.7933 174.119 89.0454 174.198 89.2577C174.343 89.6492 174.661 90.1751 175.019 90.8188C175.371 91.4527 175.842 92.6402 176.062 93.7586C176.173 94.3184 176.212 94.8206 176.163 95.2084C176.114 95.6067 175.989 95.7693 175.891 95.8323C175.585 96.0304 175.312 96.1779 175.051 96.3231C174.805 96.46 174.536 96.6122 174.315 96.7998C174.075 97.003 173.876 97.259 173.773 97.6066C173.675 97.9369 173.679 98.2983 173.741 98.6922C173.804 99.0865 173.926 99.5032 174.048 99.8932C174.175 100.299 174.301 100.672 174.399 101.04C174.497 101.407 174.552 101.717 174.551 101.97C174.55 102.219 174.494 102.364 174.421 102.456L174.369 102.518C174.242 102.669 174.069 102.848 173.86 103.062C173.63 103.298 173.363 103.569 173.115 103.847C172.868 104.124 172.621 104.429 172.433 104.743C172.25 105.05 172.088 105.423 172.088 105.824C172.088 106.176 172.383 106.461 172.746 106.461C173.11 106.461 173.405 106.176 173.405 105.824ZM172.527 77.9732C172.527 76.981 172.555 75.6981 172.457 74.3925C172.359 73.0869 172.132 71.7039 171.596 70.4936L171.554 70.4C171.102 69.4335 170.279 68.4877 169.495 67.6007C168.655 66.6501 167.834 65.7413 167.288 64.7988L167.27 64.7705C167.085 64.4851 166.699 64.3878 166.392 64.5548C166.075 64.7273 165.962 65.1161 166.14 65.4233L166.261 65.6244C166.879 66.6268 167.737 67.5728 168.496 68.4306C169.309 69.3508 169.995 70.1574 170.353 70.9222L170.387 70.9961C170.839 72.0181 171.05 73.2395 171.144 74.4851C171.238 75.7306 171.211 76.9458 171.211 77.9732C171.211 78.3254 171.506 78.611 171.869 78.611C172.232 78.611 172.527 78.3254 172.527 77.9732ZM161.628 54.7138C161.408 54.4531 161.012 54.4033 160.729 54.6061C160.437 54.8155 160.375 55.2148 160.591 55.498L160.64 55.5642C161.142 56.2547 161.416 57.1442 161.623 58.0758C161.737 58.587 161.806 58.9819 161.909 59.461C162.002 59.8912 162.111 60.3244 162.27 60.6851C162.454 61.1011 162.779 61.4609 163.104 61.7595C163.434 62.0632 163.815 62.3475 164.156 62.5978C164.51 62.8585 164.811 63.0748 165.039 63.273C165.15 63.3704 165.225 63.4472 165.271 63.5053C165.291 63.5307 165.301 63.5467 165.305 63.5539C165.384 63.8861 165.721 64.1011 166.069 64.0368C166.426 63.9709 166.661 63.6369 166.593 63.2908C166.547 63.0608 166.428 62.8711 166.316 62.7299C166.201 62.584 166.06 62.4477 165.919 62.3242C165.639 62.0806 165.28 61.8226 164.951 61.5811C164.608 61.3292 164.281 61.0833 164.009 60.8337C163.732 60.5789 163.559 60.3619 163.48 60.1826C163.376 59.948 163.289 59.623 163.198 59.1998C163.117 58.8254 163.013 58.2715 162.91 57.8065C162.689 56.8158 162.359 55.6704 161.649 54.7398L161.628 54.7138ZM157.561 50.715C157.233 50.565 156.841 50.7019 156.686 51.0206C156.531 51.3393 156.672 51.7193 157.001 51.8693L162.595 54.4205C162.924 54.5705 163.316 54.4336 163.471 54.1149C163.625 53.7962 163.484 53.4161 163.155 53.2661L157.561 50.715ZM155.306 45.6234C155.105 45.3303 154.696 45.2511 154.394 45.4465C154.091 45.6419 154.009 46.0379 154.211 46.3309C154.297 46.4554 154.423 46.5828 154.538 46.6916C154.664 46.8099 154.818 46.9445 154.989 47.0887C155.33 47.3771 155.765 47.7258 156.225 48.0948C157.158 48.8432 158.195 49.6782 158.9 50.3612C159.157 50.6102 159.574 50.6102 159.831 50.3612C160.088 50.1121 160.088 49.7084 159.831 49.4593C159.073 48.725 157.982 47.8486 157.065 47.1124C156.6 46.7392 156.18 46.4022 155.853 46.1267C155.69 45.989 155.556 45.872 155.456 45.7774C155.406 45.7303 155.368 45.6923 155.341 45.6626C155.311 45.6308 155.303 45.6189 155.306 45.6234ZM153.754 42.3327C153.448 42.1727 153.062 42.2722 152.88 42.564C152.697 42.8558 152.785 43.233 153.073 43.4223L153.101 43.4399L156.721 45.5659C157.032 45.7485 157.436 45.6522 157.625 45.351C157.813 45.0498 157.714 44.6576 157.403 44.4751L153.783 42.3491L153.754 42.3327Z" fill="#652815"/>
<path d="M132.74 39.8433C150.606 39.8433 143.43 54.7535 130.138 50.8649C124.011 49.0723 121.13 39.8433 132.74 39.8433Z" fill="#B07066"/>
<path d="M145.148 28.6071C143.472 31.3678 143.488 35.0219 145.189 37.7685C145.698 38.5914 146.404 39.3722 147.355 39.631C148.612 39.9733 149.938 39.3116 150.905 38.4578C153.2 36.4299 154.243 33.2414 153.904 30.2432C153.791 29.2513 153.513 28.2276 152.809 27.5023C151.787 26.451 150.076 26.2819 148.655 26.7082C147.233 27.1348 145.683 27.7262 145.148 28.6071Z" fill="#B07066"/>
<path d="M121.236 116.2C119.449 113.947 118.775 110.895 119.452 108.126C119.595 107.538 119.804 106.951 120.192 106.479C120.58 106.007 121.175 105.664 121.796 105.694C122.829 105.745 123.523 106.732 123.942 107.652C124.461 108.793 124.824 110.001 125.019 111.235C125.211 112.451 125.225 113.753 124.645 114.846C124.066 115.94 122.75 116.737 121.236 116.2Z" fill="#B07066"/>
<path d="M134.917 42.8962C134.622 42.4116 134.941 41.5858 136.34 41.7608C137.865 41.9517 138.126 42.9973 137.934 43.2762C137.429 44.0087 135.205 43.3714 134.917 42.8962Z" fill="#EDAE84"/>
<path d="M127.246 40.9068C126.904 40.9068 126.591 40.684 126.5 40.3472C126.392 39.9464 126.638 39.5357 127.05 39.4304C129.177 38.8852 131.487 38.8264 133.916 39.2563C134.335 39.3304 134.613 39.7213 134.537 40.129C134.46 40.5366 134.059 40.808 133.64 40.733C131.436 40.343 129.351 40.3931 127.443 40.8819C127.377 40.8987 127.311 40.9068 127.246 40.9068Z" fill="#652815"/>
<path d="M106.266 41.5528C105.995 41.5528 105.732 41.4135 105.591 41.1664C105.384 40.8038 105.519 40.3469 105.891 40.146C107.815 39.1073 110.039 38.4964 112.501 38.3307C112.928 38.3043 113.295 38.6144 113.324 39.0278C113.354 39.4411 113.033 39.7996 112.608 39.8281C110.373 39.9785 108.365 40.527 106.64 41.4585C106.521 41.5225 106.393 41.5528 106.266 41.5528Z" fill="#652815"/>
<path d="M95.9048 40.1604C95.6372 40.1604 95.3771 40.0247 95.2346 39.7827C94.6298 38.7548 93.8411 37.7833 92.8913 36.8953C92.5839 36.6083 92.5744 36.1331 92.8694 35.8341C93.1644 35.5354 93.6528 35.5258 93.9602 35.8128C95.0161 36.7999 95.8955 37.8845 96.5734 39.0367C96.7851 39.3964 96.6571 39.8551 96.2874 40.061C96.1664 40.1283 96.0344 40.1604 95.9048 40.1604Z" fill="#652815"/>
<path d="M105.311 57.4202C103.88 57.4202 102.406 57.0978 101.152 56.1017C98.6585 54.1225 98.8147 52.0915 99.0986 48.4044C99.1319 47.9694 99.1677 47.5071 99.2013 47.0132C99.2297 46.5998 99.596 46.2903 100.023 46.3143C100.448 46.3419 100.769 46.6998 100.741 47.1135C100.707 47.6112 100.671 48.0778 100.637 48.5164C100.361 52.1096 100.257 53.4539 102.127 54.9384C104.276 56.6451 107.625 55.6922 109.424 55.1804L109.691 55.1047C110.1 54.9898 110.527 55.2194 110.646 55.6175C110.764 56.0156 110.528 56.4317 110.119 56.5469L109.857 56.6214C108.721 56.9444 107.048 57.4202 105.311 57.4202Z" fill="#652815"/>
<path d="M112.8 60.3944C112.677 60.3944 112.552 60.3656 112.436 60.3053C110.464 59.2771 109.366 56.9459 109.571 54.2218C109.795 51.2621 111.498 48.8043 113.911 47.9607C114.311 47.8199 114.754 48.0231 114.898 48.4131C115.042 48.8031 114.833 49.233 114.433 49.3732C112.198 50.1549 111.246 52.5329 111.11 54.3317C110.984 55.9967 111.458 58.0924 113.165 58.982C113.54 59.1777 113.682 59.6325 113.48 59.9979C113.342 60.2506 113.075 60.3944 112.8 60.3944Z" fill="#652815"/>
<path d="M148.35 40.4758C148.008 40.4758 147.697 40.2536 147.605 39.9174C147.496 39.5166 147.741 39.1059 148.153 38.9996C151.644 38.099 153.038 34.791 153.179 31.9955C153.3 29.5821 152.48 27.501 151.229 27.0468C149.45 26.4026 145.237 29.6172 142.45 31.7451C141.415 32.5349 140.438 33.281 139.665 33.7835C139.311 34.0144 138.832 33.921 138.595 33.5767C138.358 33.232 138.454 32.7658 138.808 32.5355C139.531 32.0648 140.486 31.3359 141.497 30.5644C145.097 27.8157 149.177 24.7001 151.768 25.6406C153.692 26.3389 154.878 28.9225 154.72 32.0693C154.56 35.2425 152.848 39.3416 148.548 40.4508C148.482 40.4677 148.415 40.4758 148.35 40.4758Z" fill="#652815"/>
<path d="M143.79 30.5152C143.477 30.5152 143.182 30.3284 143.067 30.0261C142.5 28.544 140.776 24.0337 139.059 23.6794C137.427 23.3414 135.124 25.4038 134.033 28.1808C133.881 28.5683 133.435 28.762 133.037 28.614C132.639 28.466 132.44 28.0321 132.592 27.6452C133.813 24.5374 136.683 21.6542 139.379 22.2108C141.618 22.6728 143.17 25.9883 144.513 29.5026C144.661 29.891 144.458 30.323 144.059 30.4677C143.97 30.5002 143.879 30.5152 143.79 30.5152Z" fill="#652815"/>
<path d="M122.48 117.654C122.468 117.654 122.456 117.654 122.444 117.653C120.755 117.577 119.441 116.034 118.838 113.421C118.136 110.373 118.589 106.458 120.546 105.447C121.574 104.917 122.379 105.078 122.872 105.308C124.062 105.86 124.899 107.417 125.43 110.068C125.512 110.475 125.239 110.869 124.821 110.949C124.405 111.028 123.997 110.763 123.916 110.355C123.337 107.47 122.529 106.812 122.208 106.663C122.044 106.586 121.769 106.516 121.269 106.773C120.195 107.328 119.736 110.458 120.344 113.093C120.677 114.54 121.423 116.104 122.516 116.154C122.941 116.173 123.27 116.524 123.25 116.938C123.231 117.341 122.89 117.654 122.48 117.654Z" fill="#652815"/>
<path d="M95.5304 117.091L95.479 117.727L95.481 117.727C95.4823 117.727 95.4842 117.727 95.4867 117.728C95.4917 117.728 95.4992 117.729 95.5088 117.729C95.5281 117.731 95.5564 117.733 95.593 117.735C95.6663 117.741 95.7726 117.749 95.9051 117.758C96.1701 117.776 96.5406 117.801 96.9623 117.827C97.6976 117.871 98.5976 117.918 99.3687 117.936L99.6902 117.942C100.488 117.951 102.084 117.951 103.475 117.949C104.171 117.948 104.818 117.946 105.291 117.944C105.527 117.944 105.72 117.943 105.854 117.942C105.921 117.942 105.973 117.942 106.009 117.942C106.026 117.942 106.04 117.942 106.049 117.942L106.062 117.942C106.063 117.942 106.063 117.942 106.06 117.304L106.057 116.666L106.044 116.666C106.035 116.666 106.021 116.666 106.003 116.666C105.968 116.666 105.916 116.667 105.849 116.667C105.716 116.667 105.523 116.668 105.287 116.669C104.814 116.67 104.168 116.672 103.473 116.673C102.079 116.675 100.494 116.675 99.7065 116.666L99.3974 116.661C98.6548 116.644 97.7758 116.598 97.0441 116.554C96.6276 116.529 96.2616 116.504 95.9998 116.486C95.869 116.476 95.7643 116.469 95.6924 116.464C95.6564 116.461 95.6286 116.459 95.6099 116.458C95.6006 116.457 95.5936 116.456 95.5889 116.456C95.5866 116.456 95.5847 116.456 95.5836 116.456C95.583 116.455 95.5825 116.456 95.5823 116.456L95.5821 116.455C95.5821 116.455 95.582 116.455 95.5304 117.091Z" fill="#652815"/>
<path d="M123.433 107.041C123.411 107.041 123.389 107.04 123.366 107.039C122.942 107.004 122.627 106.64 122.663 106.227C123.143 100.707 127.167 96.9819 133.994 95.7384C134.412 95.6609 134.815 95.9305 134.894 96.3379C134.972 96.745 134.696 97.1374 134.277 97.2136C129.975 97.9975 124.734 100.22 124.201 106.354C124.166 106.746 123.829 107.041 123.433 107.041Z" fill="#652815"/>
<path d="M99.8461 46.3775C100.229 46.38 100.542 46.6645 100.578 47.0266L100.581 47.1002L100.581 47.1183C100.581 47.1298 100.581 47.1465 100.581 47.168C100.58 47.2113 100.579 47.2745 100.578 47.3549C100.575 47.5158 100.57 47.7459 100.561 48.0245C100.544 48.5806 100.511 49.3337 100.45 50.1166C100.389 50.8957 100.299 51.722 100.163 52.4178C100.095 52.7649 100.013 53.0975 99.9099 53.3829C99.8143 53.6482 99.672 53.9584 99.4396 54.1839C98.8868 54.7202 98.3215 54.9994 97.8787 55.1426C97.6586 55.2138 97.4701 55.2505 97.33 55.27C97.26 55.2797 97.2017 55.2852 97.1572 55.2881C97.135 55.2895 97.1158 55.2905 97.1006 55.291C97.0931 55.2912 97.0864 55.2915 97.0807 55.2916L97.0669 55.2916C97.0665 55.2913 97.0663 55.2766 97.0663 54.5736L97.0663 55.2916C96.6576 55.2916 96.3262 54.97 96.3262 54.5736C96.3262 54.1771 96.6576 53.8556 97.0663 53.8556L97.0585 53.8556C97.0681 53.8549 97.0895 53.8534 97.1205 53.8491C97.1827 53.8405 97.2835 53.8211 97.4101 53.7802C97.661 53.6991 98.0208 53.5295 98.3929 53.1685C98.3827 53.1785 98.4362 53.1216 98.5128 52.9091C98.582 52.7168 98.6479 52.4609 98.7085 52.1508C98.8294 51.5319 98.9148 50.7666 98.9741 50.0085C99.033 49.254 99.0648 48.5235 99.0819 47.9806C99.0904 47.7096 99.0954 47.4862 99.0981 47.331C99.0995 47.2535 99.1001 47.1931 99.1005 47.1522C99.1008 47.1319 99.101 47.1163 99.1011 47.1061L99.1011 47.0909L99.1053 47.0179C99.1455 46.656 99.4629 46.3753 99.8461 46.3775Z" fill="#652815"/>
<path d="M78.5198 74.3821C78.5198 74.3821 71.4249 56.5012 74.059 54.9691C76.6932 53.437 77.325 53.7135 78.9341 53.9169C80.5433 54.1203 91.6152 56.8875 93.1501 58.6212C94.685 60.3549 103.784 86.8968 104.313 93.5273C104.842 100.158 86.3522 96.0873 86.3522 96.0873L78.5198 74.3821Z" fill="#6495FE"/>
<path d="M79.1219 74.0376C78.3024 71.9826 77.5488 69.9006 76.8329 67.8099C75.6976 64.4934 74.4701 61.0257 74.0917 57.5403C74.0319 56.9869 73.9714 56.3744 74.0822 55.826C74.2176 55.1574 74.6867 55.0439 75.3039 54.739C76.8375 53.9826 78.2631 54.1763 79.8847 54.5499C83.6287 55.4121 87.5596 56.4265 91.0482 58.0695C92.015 58.5252 92.4948 58.824 92.9201 59.674C93.4239 60.6809 93.8376 61.7328 94.252 62.7759C95.6518 66.3049 96.9026 69.8905 98.1134 73.482C99.4793 77.5336 100.782 81.6082 101.938 85.7187C102.399 87.3564 102.839 89.0002 103.21 90.6576C103.459 91.772 103.882 93.1155 103.747 94.262C103.4 97.2024 98.2101 96.9503 96.1085 96.8684C93.1493 96.7536 90.1818 96.3184 87.2796 95.704C87.1004 95.6659 86.922 95.6277 86.7438 95.5868C86.8691 95.7216 86.9954 95.857 87.1207 95.9917C84.8005 89.6208 82.4806 83.2507 80.1605 76.8798C79.8324 75.9779 79.5033 75.0754 79.1752 74.1735C78.9355 73.516 77.8499 73.7358 78.0924 74.4014C80.6701 81.48 83.2479 88.5586 85.8257 95.6373C85.9084 95.8646 85.9937 96.2942 86.1754 96.4736C86.4191 96.7141 86.8988 96.7315 87.2123 96.7962C89.1284 97.1914 91.063 97.5079 93.0053 97.7226C95.4272 97.9914 97.9317 98.1504 100.339 97.7752C102.028 97.5121 104.067 96.8662 104.686 95.1233C105.216 93.6305 104.575 91.6668 104.234 90.1747C103.677 87.7371 102.991 85.3257 102.277 82.9262C100.606 77.3069 98.7482 71.7313 96.7274 66.2187C96.0018 64.2406 95.2663 62.2611 94.4263 60.3254C93.9609 59.253 93.576 58.2673 92.5325 57.6248C90.3513 56.2804 87.6599 55.5755 85.2272 54.8527C83.1438 54.2341 81.0171 53.5888 78.87 53.2396C77.6065 53.0335 76.5193 53.0142 75.3306 53.5116C74.4448 53.8827 73.4033 54.2708 73.0832 55.2377C72.5416 56.8747 73.1591 59.0157 73.5409 60.636C74.5815 65.0557 76.1509 69.3789 77.7883 73.6242C77.9063 73.9303 78.0242 74.2355 78.1462 74.5399C78.4061 75.1975 79.3816 74.69 79.1219 74.0376Z" fill="#366BD0"/>
<path d="M106.689 98.0968C106.497 98.0118 106.27 98.0931 106.182 98.2785C106.081 98.4918 105.895 98.7675 105.681 98.9278C105.577 99.0054 105.487 99.041 105.413 99.0484C105.348 99.0548 105.262 99.0434 105.149 98.9651C104.507 98.5231 104.212 97.8848 104.152 97.6559L104.143 97.6276C104.094 97.489 103.965 97.3903 103.812 97.3787C103.659 97.367 103.514 97.4449 103.444 97.5744L103.431 97.6009C103.294 97.9081 103.049 98.3385 102.768 98.64C102.626 98.7914 102.497 98.8872 102.39 98.9312C102.296 98.9695 102.233 98.9655 102.168 98.9333C101.924 98.8111 101.727 98.545 101.586 98.1974C101.449 97.8575 101.389 97.4979 101.376 97.28C101.365 97.0764 101.185 96.9202 100.974 96.9312C100.763 96.9423 100.602 97.1163 100.613 97.32C100.629 97.6038 100.703 98.0424 100.875 98.4664C101.043 98.8828 101.331 99.3467 101.817 99.5895C102.118 99.7398 102.424 99.7199 102.689 99.6112C102.94 99.5081 103.157 99.3255 103.335 99.1349C103.492 98.9668 103.635 98.7744 103.759 98.5818C103.97 98.9109 104.278 99.2719 104.705 99.5665C104.956 99.7391 105.224 99.8098 105.492 99.7832C105.75 99.7574 105.972 99.6446 106.149 99.512C106.496 99.2519 106.747 98.86 106.877 98.5865C106.965 98.401 106.881 98.1818 106.689 98.0968Z" fill="#652815"/>
<path d="M147.844 56.0224C147.636 56.0555 147.495 56.2455 147.528 56.4469C147.567 56.6786 147.571 57.0082 147.486 57.257C147.444 57.3773 147.39 57.4555 147.332 57.5018C147.282 57.5425 147.205 57.579 147.065 57.5754C146.278 57.5552 145.666 57.1846 145.485 57.0272L145.461 57.0083C145.341 56.9197 145.176 56.908 145.043 56.981C144.909 57.054 144.834 57.1965 144.85 57.3422L144.854 57.3713C144.917 57.7002 144.962 58.1897 144.902 58.5921C144.871 58.7942 144.819 58.9437 144.755 59.0381C144.7 59.1204 144.645 59.1515 144.573 59.1596C144.299 59.1902 143.983 59.0755 143.666 58.863C143.357 58.6551 143.1 58.3891 142.964 58.2149C142.838 58.052 142.598 58.0198 142.43 58.1428C142.261 58.2658 142.227 58.4975 142.354 58.6604C142.53 58.8873 142.844 59.2116 143.23 59.4709C143.61 59.7255 144.116 59.9549 144.659 59.894C144.995 59.8563 145.237 59.6744 145.395 59.441C145.544 59.2197 145.619 58.9508 145.657 58.6963C145.691 58.472 145.699 58.235 145.691 58.0081C146.055 58.1675 146.519 58.3008 147.043 58.3143C147.35 58.3222 147.614 58.2358 147.821 58.0692C148.02 57.9082 148.139 57.6947 148.21 57.4889C148.349 57.0853 148.332 56.6243 148.282 56.3272C148.249 56.1258 148.053 55.9893 147.844 56.0224Z" fill="#652815"/>
<path d="M146.715 62.0043C146.336 62.0644 146.079 62.4098 146.14 62.7759C146.211 63.1971 146.218 63.796 146.063 64.2483C145.987 64.467 145.889 64.6091 145.784 64.6933C145.692 64.7672 145.552 64.8336 145.299 64.8271C143.868 64.7902 142.756 64.1168 142.426 63.8307L142.383 63.7963C142.165 63.6353 141.865 63.614 141.622 63.7466C141.379 63.8793 141.243 64.1384 141.272 64.4032L141.28 64.4561C141.395 65.0538 141.476 65.9435 141.366 66.6749C141.311 67.0423 141.216 67.3141 141.1 67.4856C140.999 67.6352 140.899 67.6917 140.768 67.7064C140.272 67.7621 139.697 67.5536 139.121 67.1673C138.558 66.7895 138.091 66.3059 137.845 65.9893C137.615 65.6933 137.18 65.6347 136.873 65.8582C136.567 66.0819 136.505 66.503 136.735 66.7991C137.056 67.2115 137.626 67.801 138.328 68.2722C139.018 68.735 139.938 69.1518 140.925 69.0412C141.536 68.9727 141.977 68.6421 142.262 68.2179C142.534 67.8157 142.671 67.3269 142.74 66.8643C142.801 66.4566 142.815 66.0259 142.801 65.6134C143.463 65.9031 144.305 66.1455 145.258 66.17C145.817 66.1844 146.296 66.0274 146.672 65.7246C147.034 65.4319 147.251 65.0439 147.38 64.6697C147.632 63.9362 147.601 63.0983 147.511 62.5583C147.449 62.1922 147.093 61.9442 146.715 62.0043Z" fill="#652815"/>
<path d="M161.456 65.434C160.948 65.5148 160.603 65.9785 160.685 66.4699C160.78 67.0353 160.789 67.8394 160.581 68.4465C160.48 68.7402 160.347 68.931 160.207 69.0439C160.084 69.1432 159.895 69.2323 159.555 69.2235C157.635 69.1741 156.142 68.27 155.698 67.8859L155.641 67.8398C155.348 67.6236 154.946 67.595 154.62 67.773C154.294 67.9511 154.111 68.2989 154.15 68.6545L154.16 68.7255C154.315 69.5279 154.423 70.7223 154.276 71.7041C154.202 72.1974 154.074 72.5622 153.919 72.7926C153.783 72.9933 153.649 73.0692 153.473 73.0889C152.806 73.1637 152.035 72.8838 151.262 72.3652C150.506 71.858 149.879 71.2089 149.549 70.7838C149.24 70.3865 148.655 70.3077 148.244 70.6078C147.833 70.908 147.75 71.4735 148.059 71.8709C148.49 72.4246 149.255 73.2159 150.198 73.8485C151.124 74.4698 152.358 75.0294 153.683 74.8809C154.503 74.7889 155.095 74.345 155.479 73.7756C155.843 73.2356 156.027 72.5794 156.12 71.9584C156.202 71.4112 156.221 70.833 156.202 70.2792C157.091 70.6681 158.221 70.9934 159.501 71.0264C160.251 71.0457 160.894 70.8349 161.398 70.4284C161.885 70.0355 162.176 69.5146 162.349 69.0123C162.688 68.0275 162.646 66.9028 162.525 66.1778C162.442 65.6864 161.964 65.3533 161.456 65.434Z" fill="#652815"/>
<path d="M115.902 102.774C115.71 102.689 115.483 102.77 115.395 102.956C115.294 103.169 115.108 103.445 114.894 103.605C114.79 103.683 114.7 103.718 114.626 103.726C114.56 103.732 114.475 103.721 114.362 103.642C113.72 103.2 113.425 102.562 113.365 102.333L113.356 102.305C113.307 102.166 113.177 102.068 113.024 102.056C112.872 102.044 112.727 102.122 112.657 102.252L112.643 102.278C112.507 102.585 112.262 103.016 111.981 103.317C111.839 103.469 111.71 103.564 111.602 103.608C111.509 103.647 111.445 103.643 111.381 103.611C111.137 103.488 110.94 103.222 110.799 102.875C110.662 102.535 110.602 102.175 110.589 101.957C110.578 101.754 110.398 101.597 110.187 101.608C109.976 101.619 109.815 101.793 109.826 101.997C109.842 102.281 109.916 102.72 110.088 103.144C110.256 103.56 110.544 104.024 111.03 104.267C111.331 104.417 111.637 104.397 111.902 104.288C112.153 104.185 112.37 104.003 112.548 103.812C112.705 103.644 112.848 103.452 112.972 103.259C113.183 103.588 113.491 103.949 113.918 104.244C114.169 104.416 114.437 104.487 114.705 104.46C114.963 104.435 115.185 104.322 115.362 104.189C115.709 103.929 115.96 103.537 116.09 103.264C116.178 103.078 116.094 102.859 115.902 102.774Z" fill="#652815"/>
<path d="M110.86 109.022C110.552 108.885 110.187 109.016 110.046 109.314C109.883 109.657 109.584 110.1 109.239 110.358C109.073 110.482 108.928 110.539 108.809 110.551C108.704 110.562 108.567 110.543 108.384 110.418C107.352 109.707 106.878 108.681 106.781 108.313L106.768 108.267C106.689 108.044 106.48 107.886 106.234 107.867C105.988 107.848 105.757 107.973 105.643 108.182L105.622 108.224C105.402 108.718 105.009 109.41 104.556 109.895C104.329 110.138 104.12 110.292 103.948 110.363C103.798 110.425 103.696 110.418 103.592 110.366C103.199 110.17 102.883 109.742 102.657 109.183C102.436 108.637 102.339 108.059 102.319 107.708C102.301 107.381 102.011 107.13 101.672 107.148C101.334 107.165 101.074 107.445 101.092 107.773C101.118 108.229 101.237 108.934 101.513 109.616C101.784 110.285 102.247 111.031 103.028 111.421C103.511 111.663 104.003 111.631 104.429 111.456C104.833 111.29 105.182 110.997 105.468 110.69C105.721 110.42 105.95 110.111 106.15 109.801C106.489 110.33 106.984 110.911 107.671 111.384C108.074 111.662 108.505 111.775 108.935 111.733C109.351 111.691 109.707 111.51 109.992 111.297C110.551 110.879 110.954 110.248 111.163 109.809C111.304 109.511 111.169 109.158 110.86 109.022Z" fill="#652815"/>
<path d="M124.831 86.1933C124.682 86.0542 124.629 85.8402 124.703 85.6488C124.781 85.4447 124.984 85.3118 125.208 85.319C125.657 85.3333 126.375 85.3732 127.076 85.4461C127.754 85.5167 128.492 85.625 128.935 85.7988C129.203 85.9041 129.462 86.096 129.689 86.2971C129.924 86.5046 130.158 86.7527 130.377 87.0053C130.759 87.4474 131.111 87.9269 131.351 88.2808L131.446 88.4243C131.559 88.5973 131.554 88.8196 131.433 88.9877C131.313 89.1558 131.1 89.2366 130.894 89.1922C130.302 89.0643 128.854 88.6871 127.84 88.1943C126.829 87.7026 125.427 86.6664 124.863 86.2202L124.831 86.1933ZM126.915 86.4502C127.391 86.7731 127.893 87.0859 128.305 87.2865C128.721 87.4887 129.234 87.6735 129.721 87.826C129.674 87.7699 129.627 87.7141 129.58 87.6591C129.379 87.4269 129.177 87.2152 128.989 87.0483C128.793 86.8751 128.642 86.7782 128.545 86.7399C128.256 86.6267 127.659 86.5272 126.965 86.455C126.948 86.4532 126.932 86.4519 126.915 86.4502Z" fill="#662425"/>
<path d="M138.65 97.0358C138.5 96.8967 138.448 96.6827 138.521 96.4913C138.599 96.2872 138.803 96.1543 139.026 96.1615C139.476 96.1759 140.193 96.2157 140.894 96.2887C141.572 96.3592 142.31 96.4676 142.753 96.6413C143.021 96.7466 143.28 96.9385 143.507 97.1396C143.742 97.3471 143.977 97.5952 144.195 97.8478C144.577 98.29 144.929 98.7694 145.169 99.1233L145.264 99.2668C145.378 99.4398 145.373 99.6621 145.252 99.8302C145.131 99.9984 144.918 100.079 144.713 100.035C144.12 99.9068 142.672 99.5296 141.658 99.0368C140.647 98.5451 139.245 97.5089 138.681 97.0628L138.65 97.0358ZM140.733 97.2928C141.21 97.6156 141.711 97.9285 142.124 98.129C142.54 98.3313 143.052 98.5161 143.539 98.6685C143.493 98.6124 143.446 98.5566 143.398 98.5016C143.197 98.2694 142.996 98.0577 142.807 97.8909C142.611 97.7176 142.46 97.6207 142.363 97.5825C142.075 97.4692 141.477 97.3697 140.783 97.2975C140.767 97.2957 140.75 97.2945 140.733 97.2928Z" fill="#662425"/>
<path d="M93.4459 78.8236L112.092 69.0441L112.092 84.67L101.672 87.6464L93.4459 78.8236Z" fill="#CD966D"/>
<path d="M100.441 87.1421C97.8597 79.5077 94.8204 72.0252 92.0773 64.4457C91.7726 63.6026 91.4705 62.7589 91.175 61.9129C90.962 61.3015 90.8566 60.3052 90.2624 59.9547C89.9237 59.7546 89.3868 59.6883 89.0118 59.575C86.6662 58.8619 84.3208 58.1496 81.9752 57.4364C80.1329 56.8766 78.2906 56.3167 76.4491 55.7567C75.7573 55.5461 75.4153 56.5852 76.106 56.7952C80.7106 58.195 85.3149 59.5941 89.9195 60.994C89.794 60.8606 89.6675 60.7266 89.542 60.5933C92.5863 69.5968 96.2984 78.3755 99.342 87.3801C99.566 88.0394 100.666 87.809 100.441 87.1421Z" fill="#366BD0"/>
<path d="M96.9103 76.7989C103.576 77.3397 107.672 86.5333 106.448 88.4647C106.049 89.094 105.217 89.291 104.47 89.4328C102.645 89.7796 100.701 90.1169 98.9756 89.4514C97.9207 89.0444 96.0058 88.328 95.1601 87.5949C93.1769 85.8767 92.2022 84.0835 90.9106 81.8296C90.5139 81.1372 90.1834 80.3584 90.2933 79.5728C90.4035 78.7869 91.0993 78.0319 91.9149 78.0917C92.6042 78.1423 93.186 78.7317 93.8755 78.6784C95.1351 78.5811 96.5921 76.7731 96.9103 76.7989Z" fill="#B07066"/>
<path d="M90.9239 84.0858C90.5032 83.4707 90.1523 82.8757 89.8855 82.3325C89.0499 80.6329 88.9061 79.2823 89.4704 78.4269C90.5675 76.7633 91.9169 77.161 93.0013 77.4808C93.1972 77.5386 93.3976 77.5976 93.6025 77.6485C97.2127 75.3383 103.996 71.2558 110.764 68.5587C111.16 68.4011 111.609 68.5836 111.772 68.9661C111.933 69.3488 111.744 69.7865 111.349 69.9437C104.525 72.6629 97.6616 76.8312 94.1775 79.074C94.0065 79.184 93.7975 79.2237 93.5967 79.1848C93.2124 79.11 92.8594 79.006 92.5478 78.9141C91.466 78.5949 91.2214 78.5511 90.7725 79.2316C90.5881 79.511 90.6112 80.3213 91.2816 81.6853C92.9056 84.9862 96.9867 88.9088 100.249 89.2593C101.917 89.4382 110.118 87.5543 116.707 86.0408C118.597 85.6065 120.421 85.1876 122.038 84.8278C122.455 84.7353 122.868 84.9877 122.963 85.3902C123.058 85.7935 122.797 86.1956 122.381 86.2881C120.766 86.6471 118.946 87.0651 117.059 87.4986C108.247 89.523 101.87 90.9413 100.074 90.7482C96.4754 90.3614 92.9174 87.0005 90.9239 84.0858Z" fill="#652815"/>
<path d="M83.6306 62.4519C84.4279 63.2147 84.728 64.1742 84.2995 64.5954C83.8708 65.0157 82.8773 64.7384 82.079 63.9749C81.2809 63.2123 80.9816 62.2526 81.4101 61.8314C81.8388 61.4111 82.8325 61.6892 83.6306 62.4519Z" fill="white"/>
<path fill-rule="evenodd" clip-rule="evenodd" d="M-1.70972 90.6049C-1.39305 90.856 -0.998308 91.0243 -0.615895 91.1711C-0.20542 91.3284 0.252534 91.3709 0.652479 91.5481C1.34015 91.852 2.04391 91.8723 2.77142 91.8335C3.12635 91.8144 3.50544 91.8062 3.84099 91.9027C4.95436 92.2251 6.04222 92.6393 7.16091 92.9379C7.98353 93.1571 8.84027 93.2492 9.56291 93.3768C10.2177 93.2884 10.7437 93.2426 11.2584 93.1395C11.637 93.0646 12.01 92.9387 12.3684 92.7931C13.2022 92.4553 13.5496 91.6585 13.2087 90.9007C13.0152 90.4704 12.6712 90.1905 12.2296 90.0559C11.1721 89.7344 10.1196 89.3933 9.04749 89.1328C7.84023 88.8398 6.61868 88.6068 5.39744 88.3826C3.77586 88.0859 2.20566 87.5949 0.48896 87.7449C-0.574338 87.8381 -1.28505 88.1908 -1.87002 88.9967C-2.30391 89.594 -2.28312 90.1514 -1.70972 90.6049Z" fill="#A26833"/>
<path fill-rule="evenodd" clip-rule="evenodd" d="M20.4821 107.651C20.8822 108.311 21.4805 108.742 22.0981 109.178C22.7763 109.656 23.5853 109.763 24.3154 110.084C26.095 110.864 27.8963 111.577 29.7977 112.011C30.6704 112.209 31.5021 111.936 31.9417 111.285C32.3577 110.669 32.3335 109.802 31.8264 109.097C31.6206 108.811 31.3557 108.53 31.0537 108.36C30.0879 107.817 29.1175 107.268 28.0993 106.838C27.4237 106.553 26.6683 106.438 25.9382 106.306C25.4836 106.222 25.0058 106.268 24.5426 106.217C23.9939 106.156 23.4512 106.052 22.9055 105.968C22.185 105.871 21.5086 106.046 20.8665 106.313C20.2152 106.585 20.1165 107.046 20.4821 107.651Z" fill="#A26833"/>
<path fill-rule="evenodd" clip-rule="evenodd" d="M66.02 112.041C66.1705 112.234 66.3551 112.429 66.5677 112.541C67.5477 113.055 68.5164 113.609 69.5406 114.018C70.7292 114.492 71.9314 114.915 72.9239 115.757C73.346 116.116 73.755 116.491 74.1627 116.867C74.6808 117.344 75.2322 117.754 75.8109 117.828C77.0216 117.917 77.7017 117.165 77.5227 116.107C77.4172 115.481 77.0921 114.971 76.6605 114.52C75.5769 113.389 74.3371 112.444 72.9797 111.684C72.2391 111.27 71.4058 110.934 70.5764 110.8C69.8658 110.685 69.1607 110.583 68.476 110.366C68.1326 110.257 67.8038 110.101 67.4611 109.99C66.874 109.801 66.3038 109.971 65.9666 110.416C65.6159 110.88 65.6249 111.532 66.02 112.041Z" fill="#A26833"/>
<path fill-rule="evenodd" clip-rule="evenodd" d="M40.7224 138.291C41.0257 138.264 41.3259 138.202 41.6305 138.184C42.2878 138.145 42.6714 137.689 42.5618 137.032C42.4781 136.527 42.189 136.163 41.7067 135.988C41.1356 135.779 40.5477 135.619 39.9849 135.395C39.6048 135.243 39.2508 135.023 38.8914 134.821C38.4101 134.55 37.9649 134.174 37.4518 134.012C36.787 133.804 36.2688 133.434 35.7647 132.99C35.4781 132.737 35.1617 132.476 34.8113 132.344C33.8866 131.996 32.9854 131.628 31.9509 131.555C31.0126 131.49 30.255 131.726 29.5349 132.22C29.0537 132.55 29.0479 132.96 29.524 133.299C30.3098 133.86 31.0928 134.444 31.9433 134.893C33.8282 135.885 35.7408 136.827 37.6709 137.727C38.3579 138.048 39.1291 138.188 39.8616 138.411C39.8721 138.383 39.8827 138.355 39.8936 138.327C40.1684 138.316 40.4449 138.315 40.7224 138.291Z" fill="#A26833"/>
<path fill-rule="evenodd" clip-rule="evenodd" d="M24.2812 117.634C23.8155 118.082 23.6567 118.767 23.9733 119.395C24.1536 119.753 24.436 120.089 24.7481 120.344C25.583 121.028 26.448 121.707 27.4615 122.086C28.3341 122.412 29.261 122.704 30.1802 122.766C30.9603 122.819 31.7044 122.884 32.4508 123.124C33.1049 123.334 33.792 123.437 34.3271 123.557C34.7586 123.518 35.0451 123.535 35.3048 123.46C36.2953 123.175 36.471 122.592 35.8028 121.811C35.2588 121.177 34.6961 120.561 33.7958 120.428C33.6109 120.401 33.4401 120.28 33.2614 120.203C32.3482 119.811 31.4543 119.364 30.4333 119.307C30.2739 119.298 30.0977 119.24 29.965 119.152C28.7786 118.362 27.2982 118.23 26.1263 117.383C25.5687 116.981 24.7596 117.173 24.2812 117.634Z" fill="#A26833"/>
<path fill-rule="evenodd" clip-rule="evenodd" d="M86.289 140.295C86.5766 140.801 86.8555 141.348 87.273 141.73C87.7663 142.183 88.0463 142.729 88.3439 143.29C88.668 143.902 88.9669 144.536 89.3615 145.101C90.2452 146.367 91.3965 147.377 92.7081 148.169C93.7282 148.785 94.8569 148.07 94.8579 146.939C94.7868 145.841 94.4549 144.967 93.5046 144.357C93.032 144.054 92.6262 143.589 92.3048 143.119C91.727 142.274 91.2632 141.354 90.7021 140.497C90.1033 139.582 89.3127 138.833 88.3997 138.241C87.78 137.839 87.0346 137.94 86.5464 138.393C86.0191 138.881 85.8978 139.609 86.289 140.295Z" fill="#A26833"/>
<path fill-rule="evenodd" clip-rule="evenodd" d="M14.2777 134.387C13.6376 134.477 13.1239 134.398 12.5843 133.993C12.0297 133.577 11.2285 133.732 10.7399 134.191C10.2618 134.64 10.1203 135.347 10.4939 135.945C11.2289 137.121 12.1447 138.119 13.523 138.545C13.8625 138.65 14.1299 138.79 14.3091 139.101C14.5701 139.554 14.9824 139.822 15.4542 140.026C16.092 140.3 16.7511 140.546 17.3399 140.904C18.0102 141.311 18.715 141.478 19.4752 141.519C19.6419 141.521 19.8097 141.541 19.9735 141.524C20.5629 141.461 20.9144 140.979 20.6467 140.465C20.1474 139.507 19.6663 138.476 18.7045 137.908C17.6322 137.275 16.9115 136.353 16.247 135.363C15.7641 134.643 15.1205 134.27 14.2777 134.387Z" fill="#A26833"/>
<path fill-rule="evenodd" clip-rule="evenodd" d="M37.6922 101.773C38.083 102.034 38.5162 102.229 38.9208 102.471C39.627 102.897 40.3315 103.328 41.0265 103.772C41.5161 104.085 41.965 104.473 42.4786 104.735C43.6129 105.313 44.7716 105.846 45.9329 106.37C46.2813 106.527 46.6632 106.639 47.0414 106.693C47.5325 106.763 47.9898 106.629 48.2726 106.175C48.5642 105.705 48.5645 105.177 48.2498 104.759C47.8895 104.281 47.4665 103.799 46.9648 103.492C46.1905 103.018 45.3166 102.71 44.5045 102.293C44.0421 102.055 43.5211 101.823 43.1948 101.444C42.1638 100.244 40.8126 99.5626 39.4282 98.9168C39.2067 98.8135 38.9496 98.7899 38.8452 98.7633C37.8584 98.7444 37.1369 99.1856 36.9073 99.858C36.6579 100.586 36.9174 101.257 37.6922 101.773Z" fill="#A26833"/>
<path fill-rule="evenodd" clip-rule="evenodd" d="M37.8541 119.149C37.9765 119.261 38.1039 119.369 38.2345 119.473C40.0221 120.892 41.6569 122.454 42.8871 124.402C43.4361 125.271 44.3016 125.715 45.2366 126.023C45.7963 126.207 46.2366 125.911 46.3257 125.328C46.3632 125.088 46.3613 124.822 46.302 124.587C45.8528 122.812 44.9935 121.224 43.8512 119.822C42.8841 118.636 41.6186 117.755 40.2929 116.993C39.8716 116.752 39.3629 116.662 39.1109 116.577C38.1741 116.568 37.5751 116.941 37.3439 117.524C37.1159 118.096 37.278 118.615 37.8541 119.149Z" fill="#A26833"/>
<path fill-rule="evenodd" clip-rule="evenodd" d="M2.58466 106.845C2.68101 107.555 2.98461 108.154 3.52125 108.65C4.8863 109.914 6.3368 111.049 7.92936 112.026C8.96478 112.661 10.043 112.935 11.2155 112.992C11.4096 113.007 11.6023 113.038 11.7951 113.034C12.5156 113.019 12.8559 112.628 12.7949 111.912C12.7467 111.36 12.4471 110.989 11.966 110.753C11.0929 110.325 10.3281 109.757 9.57299 109.137C8.24846 108.047 6.8422 107.057 5.46811 106.027C5.2032 105.828 4.94587 105.609 4.66025 105.444C4.16627 105.159 3.65169 105.139 3.16718 105.469C2.68529 105.797 2.50608 106.276 2.58466 106.845Z" fill="#A26833"/>
<path fill-rule="evenodd" clip-rule="evenodd" d="M-0.0408388 114.964C0.915793 114.996 1.30541 114.617 1.28945 113.903C1.27412 113.199 0.947013 112.588 0.472306 112.131C-0.497294 111.198 -1.67639 110.544 -2.94365 110.129C-3.56798 109.925 -4.10969 109.646 -4.62327 109.274C-5.02704 108.982 -5.40847 108.66 -5.81717 108.376C-6.52636 107.883 -7.27673 107.921 -7.78485 108.447C-8.30807 108.991 -8.33602 109.828 -7.78171 110.494C-6.92032 111.527 -5.86402 112.339 -4.67168 112.952C-3.68839 113.458 -2.68405 113.926 -1.67178 114.372C-1.06729 114.636 -0.429163 114.825 -0.0408388 114.964Z" fill="#A26833"/>
<path fill-rule="evenodd" clip-rule="evenodd" d="M5.97742 138.096C5.58875 137.699 5.21584 137.285 4.80387 136.916C4.43522 136.586 4.05187 136.253 3.6234 136.015C2.79287 135.554 2.08363 134.986 1.48782 134.232C1.06667 133.697 0.542692 133.223 -0.00341713 132.812C-0.557995 132.393 -1.22164 132.474 -1.6934 132.889C-2.1586 133.298 -2.31725 133.959 -2.06104 134.562C-1.95284 134.814 -1.80738 135.06 -1.63237 135.27C-1.27878 135.696 -0.883562 136.088 -0.523414 136.509C0.887251 138.156 2.69819 139.285 4.5272 140.383C4.92039 140.619 5.40201 140.711 5.67351 140.808C6.3168 140.835 6.52289 140.686 6.62067 140.228C6.7953 139.404 6.56302 138.694 5.97742 138.096Z" fill="#A26833"/>
<path fill-rule="evenodd" clip-rule="evenodd" d="M61.8802 125.898C61.0709 125.539 60.2107 125.236 59.498 124.732C58.1931 123.808 56.7591 123.149 55.333 122.474C54.5962 122.125 53.8816 122.366 53.4769 122.95C53.0754 123.528 53.102 124.275 53.6717 124.858C54.0896 125.286 54.6056 125.635 55.1217 125.944C55.9752 126.457 56.8656 126.907 57.7372 127.388C58.8603 128.008 60.0015 128.571 61.4362 128.604C61.4904 128.608 61.6573 128.634 61.823 128.629C62.8399 128.604 63.3654 127.726 62.8992 126.835C62.6724 126.401 62.3373 126.1 61.8802 125.898Z" fill="#A26833"/>
<path fill-rule="evenodd" clip-rule="evenodd" d="M55.7144 132.937C55.5102 132.768 55.2246 132.67 54.9602 132.609C54.3506 132.468 53.6941 132.75 53.3576 133.255C53.0027 133.786 53.0066 134.41 53.4434 134.961C54.3095 136.055 55.4698 136.833 56.5108 137.738C56.5511 137.774 56.6089 137.79 56.6581 137.816C57.5971 138.299 58.4552 138.892 59.2771 139.564C59.9117 140.083 60.6384 140.519 61.3824 140.871C62.1088 141.214 62.8717 140.711 62.9048 139.915C62.8594 139.374 62.5651 138.918 62.0217 138.666C61.3207 138.342 60.7598 137.869 60.318 137.242C60.2394 137.129 60.1345 137.034 60.0352 136.937C59.2828 136.205 58.5406 135.46 57.7718 134.743C57.1046 134.122 56.419 133.517 55.7144 132.937Z" fill="#A26833"/>
<path fill-rule="evenodd" clip-rule="evenodd" d="M66.8934 120.937C66.7263 121.426 66.82 121.873 67.1201 122.276C68.0623 123.546 69.0039 124.815 69.9608 126.073C70.178 126.359 70.4391 126.616 70.7061 126.858C71.279 127.376 71.8862 127.857 72.4466 128.387C72.9256 128.841 73.4688 128.965 74.0572 128.748C74.6632 128.523 74.82 127.988 74.8753 127.369C74.7707 127.029 74.752 126.621 74.5445 126.364C74.0416 125.742 73.466 125.176 72.8907 124.616C72.4958 124.233 72.0048 123.943 71.64 123.537C70.9739 122.796 70.3868 121.984 69.7312 121.233C69.4075 120.862 69.0416 120.498 68.6259 120.243C67.9354 119.82 67.1574 120.167 66.8934 120.937Z" fill="#A26833"/>
<path fill-rule="evenodd" clip-rule="evenodd" d="M70.3056 142.737C70.5353 143.01 70.7676 143.286 71.0356 143.518C71.5981 144.005 72.2806 144.386 72.7422 144.951C73.677 146.095 74.9342 146.493 76.0925 146.763C77.2307 146.826 77.9759 146.345 78.2912 145.477C78.5959 144.635 78.3413 143.689 77.593 143.177C77.1872 142.899 76.7072 142.727 76.2551 142.52C75.6787 142.256 75.0566 142.07 74.5239 141.738C73.2753 140.961 71.9998 141.015 70.69 141.479C70.1816 141.661 69.8447 142.189 70.3056 142.737Z" fill="#A26833"/>
<path fill-rule="evenodd" clip-rule="evenodd" d="M17.6142 125.571C18.2053 125.656 18.4608 125.32 18.4823 124.726C18.5002 124.232 18.3781 123.767 18.0432 123.416C17.5448 122.897 17.0443 122.355 16.4553 121.954C15.1718 121.079 13.8922 120.21 12.7857 119.109C12.6695 118.993 12.529 118.895 12.3865 118.812C11.2962 118.174 10.0415 118.872 9.92226 120.166C10.0598 120.519 10.1217 120.934 10.349 121.214C10.9777 121.986 11.6409 122.718 12.5626 123.195C13.6182 123.742 14.591 124.447 15.6506 124.984C16.2524 125.29 16.9434 125.476 17.6142 125.571Z" fill="#A26833"/>
</g>
<defs>
<clipPath id="clip0_273_13409">
<rect width="250" height="140" rx="20" fill="white"/>
</clipPath>
</defs>
</svg>
