<svg width="250" height="140" viewBox="0 0 250 140" fill="none" xmlns="http://www.w3.org/2000/svg">
<g clip-path="url(#clip0_200_15663)">
<rect width="250" height="140" rx="20" fill="#F7E5D7"/>
<path fill-rule="evenodd" clip-rule="evenodd" d="M26.9667 24.1485C27.1225 24.2026 27.1824 24.205 27.2186 24.2391C27.7373 24.7277 28.2573 25.2153 28.7688 25.7134C29.2042 26.1378 29.6102 26.6025 30.0631 27.0008C30.9701 27.7996 31.8895 28.5823 32.8246 29.3389C33.441 29.8377 34.072 30.3246 34.7365 30.7366C35.6894 31.3278 36.5217 32.1976 37.6581 32.3831C37.7786 32.4027 37.8925 32.5095 37.9995 32.5931C38.9396 33.3252 39.996 33.7418 41.0684 34.1644C42.0787 34.5627 43.0187 35.1898 43.9872 35.7209C44.5724 36.0416 45.1541 36.3704 45.7365 36.6967C46.2755 36.9985 46.818 37.2932 47.3523 37.6058C48.0055 37.9891 48.6422 38.4081 49.3026 38.7749C50.5086 39.4448 51.6193 40.2755 52.6914 41.185C53.1499 41.5735 53.6851 41.8485 54.1433 42.237C55.0656 43.0186 55.9472 43.8603 56.8673 44.645C58.1007 45.6974 59.3435 46.7383 60.6029 47.7506C62.3506 49.1547 64.1059 50.5489 65.8839 51.9034C66.4236 52.3144 67.0537 52.5729 67.6364 52.9144C68.2206 53.2565 68.7593 53.1557 69.2556 52.7124C69.7662 52.2557 70.0355 51.6733 69.8972 50.9198C69.8014 50.3975 69.6884 49.8787 69.5861 49.3581C69.1573 47.1746 68.1794 45.3023 66.9991 43.5406C66.2769 42.4626 65.5728 41.3687 64.8587 40.284C64.7963 40.1895 64.7195 40.1059 64.6452 40.0222C63.9274 39.2076 63.2223 38.3783 62.4867 37.5844C61.5429 36.5668 60.5754 35.5765 59.6157 34.5764C59.5192 34.4763 59.386 34.412 59.3111 34.2968C58.5058 33.0554 57.4066 32.1835 56.3339 31.2811C55.5593 30.6295 54.7675 30.0049 53.9829 29.3691C53.9617 29.3523 53.9255 29.3502 53.9136 29.3287C53.3078 28.2707 52.2005 28.003 51.3706 27.2945C50.7461 26.762 50.0672 26.2969 49.3716 25.8894C48.8657 25.5933 48.2752 25.4861 47.7543 25.2164C46.513 24.5739 45.2056 24.1379 43.9373 23.5886C42.388 22.9169 40.7463 22.6254 39.208 21.9773C38.39 21.6327 37.4883 21.4679 36.7605 20.8121C36.4284 20.5128 35.9319 20.4562 35.532 20.2391C34.3461 19.5949 33.1482 18.971 31.9991 18.2502C31.0877 17.6784 30.1926 17.0429 29.378 16.3119C28.4811 15.5075 27.6864 14.5594 26.8431 13.6787C26.5935 13.4177 26.3082 13.1968 26.0763 12.9182C25.522 12.2526 24.9777 11.576 24.4509 10.8826C23.5982 9.76097 22.7693 8.61651 21.9151 7.49665C21.7297 7.25357 21.479 7.07336 21.259 6.8633C21.0278 6.64305 20.7977 6.42245 20.5674 6.20185C20.5942 6.14459 20.6214 6.08663 20.6479 6.02937C21.5986 6.2981 22.5386 6.65008 23.503 6.81166C24.489 6.97712 25.3554 7.38565 26.2139 7.91713C26.968 8.38432 27.7766 8.74016 28.56 9.14729C29.7045 9.7427 30.834 10.3753 31.9956 10.923C32.7675 11.2866 33.5836 11.5289 34.381 11.8233C34.4553 11.8511 34.553 11.8409 34.6076 11.8922C35.3273 12.5638 36.234 12.6727 37.081 12.9741C37.5966 13.1571 38.0644 13.5031 38.5672 13.7392C39.5357 14.1944 40.5513 14.5411 41.477 15.0845C42.5184 15.6968 43.4816 16.4763 44.4794 17.182C44.6801 17.3236 44.8726 17.4859 45.0867 17.5944C46.5689 18.3479 47.7053 19.5229 48.5645 21.0731C48.7973 21.4928 49.149 21.8332 49.463 22.1908C50.7361 23.643 51.9133 25.216 53.4926 26.287C53.559 26.3317 53.6349 26.3882 53.6683 26.4609C54.1274 27.4687 55.0141 27.9264 55.7765 28.5408C56.5649 29.1752 57.3736 29.7777 58.1563 30.4198C58.9381 31.0616 59.6656 31.7933 60.4758 32.3834C61.9412 33.4509 63.3054 34.7552 65.2011 34.8392C66.2987 34.8877 67.3864 35.1954 68.4844 35.254C69.2325 35.2941 69.9906 35.1065 70.744 35.0173C71.1066 34.9744 71.4674 34.9021 71.831 34.8799C73.0776 34.8044 73.7626 33.8872 73.5435 32.4993C73.3713 31.409 73.0623 30.3994 72.2708 29.6203C71.1048 28.472 70.0065 27.2372 68.8517 26.0742C67.6042 24.818 66.2681 23.6669 65.0775 22.3482C63.9711 21.1233 62.713 20.2093 61.3419 19.4467C61.1543 19.3423 60.9758 19.2127 60.8051 19.0757C59.8663 18.3215 58.9597 17.5111 57.9881 16.8149C56.5072 15.753 54.9638 14.8021 53.4838 13.7385C52.6234 13.1199 51.8344 12.3745 51.0145 11.6842C50.9093 11.5957 50.821 11.4784 50.7096 11.4028C49.5847 10.642 48.4774 9.84457 47.3226 9.14694C46.6569 8.74473 45.9244 8.46863 45.2028 8.20131C43.8558 7.70144 42.7276 6.77478 41.5765 5.8987C41.0637 5.50879 40.5247 5.26851 39.9371 5.06758C38.4848 4.57123 36.9624 4.73212 35.4987 4.38154C34.4678 4.13495 33.4294 3.99725 32.372 4.02219C32.1467 4.02746 31.9217 3.86903 31.692 3.80791C30.9541 3.61225 30.2163 3.41484 29.4745 3.24166C28.8877 3.10431 28.2897 3.02562 27.7055 2.87844C26.6365 2.60971 25.5582 2.80292 24.4865 2.74671C23.1407 2.67681 21.7699 2.8953 20.4541 2.40387C19.7113 2.12671 18.9776 1.81864 18.2401 1.52427C17.7716 1.33705 17.3038 1.14876 16.8353 0.961181C16.8106 0.951696 16.776 0.933079 16.7595 0.94432C16.0388 1.44278 15.7757 0.698427 15.3644 0.314132C14.7888 -0.22367 14.243 -0.0515449 13.8731 0.682268C13.4624 1.49617 13.3307 2.27565 13.6222 3.2111C13.851 3.94702 13.8825 4.77041 13.9437 5.56077C14.0236 6.58966 14.0751 7.62346 14.0807 8.65516C14.0832 9.14378 13.9512 9.63275 13.8797 10.1221C13.8497 10.3244 13.8241 10.5278 13.7889 10.7291C13.7339 11.0473 13.7077 11.3789 13.6082 11.6793C13.1497 13.0619 12.6703 14.4357 12.1971 15.812C12.1591 15.9223 12.1276 16.0407 12.0676 16.1356C11.1248 17.6306 10.9316 19.4277 10.5237 21.1268C10.0936 22.9215 9.72905 24.7428 9.45471 26.5758C9.22438 28.1158 9.14386 29.6867 9.03619 31.247C8.98375 32.0076 9.05679 32.7793 9.00809 33.5409C8.95941 34.3095 9.15729 35.0029 9.3692 35.7054C9.83548 37.2489 10.2696 38.8065 10.7662 40.3373C11.2278 41.7625 11.2914 43.2139 11.2009 44.7054C11.1426 45.6743 11.1738 46.6497 11.166 47.6221C11.1647 47.7401 11.1931 47.8627 11.1747 47.9765C10.8373 50.0677 11.0611 52.1658 11.0867 54.2636C11.097 55.1397 11.2449 55.9526 11.4999 56.7724C12.1962 59.0104 12.8547 61.2628 13.5251 63.5109C13.5922 63.7351 13.6915 63.9658 13.6909 64.1935C13.689 65.3499 14.1703 66.3686 14.3856 67.4596C14.7308 69.2132 15.0828 70.9618 15.0641 72.7913C15.0479 74.4078 15.1144 76.0444 15.3344 77.6385C15.5357 79.0977 16.0241 80.4972 16.9392 81.6332C17.5144 82.3474 17.589 82.3446 18.369 82.0565C19.5715 81.6125 20.157 80.6314 20.3992 79.292C20.4641 78.9333 20.656 78.6014 20.8005 78.2631C20.9463 77.9206 21.1651 77.603 21.2484 77.244C21.5412 75.9875 21.867 74.7307 22.0365 73.4499C22.3255 71.2632 22.9001 69.1078 22.7671 66.8681C22.7175 66.0226 22.6735 65.1718 22.4113 64.3414C21.6002 61.7721 20.8873 59.1622 20.0468 56.6059C19.6483 55.3944 19.5637 54.1319 19.3265 52.8968C19.2026 52.2494 19.2744 51.5441 19.3146 50.8686C19.3792 49.7821 19.5343 48.7008 19.5724 47.6136C19.6183 46.3224 19.5824 45.0276 19.5787 43.7338C19.5777 43.5575 19.5303 43.3783 19.5465 43.2052C19.6589 42.0414 19.3437 40.9215 19.2856 39.783C19.2279 38.6568 18.8162 37.6715 18.6046 36.6135C18.3415 35.2965 18.1833 33.9529 17.9754 32.6212C17.9301 32.3318 17.8861 32.0378 17.8053 31.7596C17.4292 30.4637 17.045 29.1707 16.654 27.8808C16.3228 26.7876 16.0466 25.6983 15.9755 24.5219C15.8906 23.107 15.7729 21.6997 15.8578 20.2806C15.8681 20.105 15.865 19.9219 15.8344 19.7505C15.7052 19.0276 15.7935 18.3517 16.0625 17.6748C16.2782 17.1328 16.2882 16.5683 16.202 15.9476C16.0944 15.1738 16.1652 14.3585 16.2248 13.567C16.3487 11.9283 16.8927 10.355 16.8262 8.6801C16.8106 8.29088 16.9336 7.89464 16.9951 7.49033C17.1168 7.5525 17.1861 7.56234 17.1976 7.59747C17.7029 9.08441 18.4823 10.4365 18.8455 11.9986C19.1183 13.1718 19.4963 14.3149 19.839 15.4671C20.0228 16.086 20.2313 16.6955 20.1673 17.3668C20.1617 17.4254 20.166 17.4873 20.1779 17.5442C20.4251 18.7792 20.6735 20.014 20.9244 21.2484C20.9538 21.392 21.0346 21.5325 21.0331 21.6738C21.0171 22.9872 21.5502 24.1401 21.8639 25.3572C21.9432 25.6656 21.9647 25.9934 22.0127 26.3123C22.0652 26.6605 22.1164 27.0082 22.1697 27.356C22.2449 27.8467 22.3192 28.3374 22.3988 28.8275C22.4363 29.0597 22.4656 29.2964 22.5318 29.5191C22.915 30.8129 23.2668 32.1214 23.7146 33.3867C23.9534 34.0608 24.3323 34.6836 24.7031 35.2867C25.7183 36.9374 26.7508 38.5746 27.7988 40.1993C28.9558 41.9922 30.1611 43.7458 31.2981 45.5545C31.8864 46.4906 32.3755 47.5055 32.9023 48.4894C33.1863 49.0202 33.4069 49.6036 33.7443 50.0852C34.1522 50.6673 34.3283 51.3333 34.5212 52.0095C34.8988 53.3363 35.2874 54.6588 35.6759 55.9817C35.8978 56.737 36.1129 57.4757 36.1728 58.2956C36.2274 59.0427 36.5726 59.76 36.7624 60.4995C36.8632 60.8922 36.9059 61.3039 36.9749 61.7068C37.1796 62.8959 37.4443 64.06 38.0329 65.1001C38.1578 65.3211 38.2427 65.5761 38.3191 65.8255C38.5429 66.5537 38.7348 67.2952 38.9761 68.0157C39.1028 68.3958 39.3138 68.739 39.4708 69.1068C39.6187 69.4514 39.762 69.8002 39.8799 70.1585C40.178 71.0669 40.2829 72.0694 40.9227 72.811C40.991 72.89 41.0185 73.0217 41.0469 73.1345C41.5363 75.0633 42.5231 76.7164 43.4161 78.411C43.7684 79.0791 44.3826 79.5653 44.8168 80.1881C45.1398 80.6507 45.5461 80.9321 45.9809 81.2177C46.4038 81.4959 46.7983 81.4881 47.1547 81.1681C47.7511 80.6314 48.3195 80.0314 48.4964 79.1564C48.817 77.5714 49.1678 75.9819 49.1022 74.3397C49.0685 73.4889 48.9758 72.6336 48.8263 71.7993C48.6865 71.0216 48.4843 70.2698 48.3978 69.4661C48.2602 68.1861 47.9162 66.9348 47.6678 65.6688C47.6066 65.3551 47.5773 65.0337 47.5355 64.7155C47.4933 64.3951 47.4631 64.0726 47.4103 63.7547C47.3763 63.5524 47.2543 63.3508 47.2686 63.1583C47.3463 62.1083 46.9509 61.1866 46.6725 60.2353C45.7328 57.0254 44.7328 53.8372 43.8508 50.6076C43.3633 48.8227 42.5824 47.2571 41.6642 45.7255C40.1352 43.176 38.1859 41.0655 36.2742 38.9094C36.1441 38.7629 35.9927 38.6365 35.8782 38.4759C34.9753 37.2113 34.0539 35.9608 33.1875 34.6646C32.4157 33.5107 31.7101 32.3005 30.9679 31.1213C30.8012 30.8568 30.5962 30.6235 30.4217 30.3643C29.6945 29.2827 28.8834 28.2552 28.2748 27.0943C27.7991 26.1838 27.0847 25.3741 26.9667 24.1485Z" fill="#652815"/>
<path fill-rule="evenodd" clip-rule="evenodd" d="M317.624 50.8592C317.308 49.1264 316.615 47.5016 316.774 45.6341C316.795 45.3924 316.705 45.13 316.645 44.8852C315.737 41.1122 314.826 37.3401 313.91 33.5699C313.851 33.3268 313.759 33.0922 313.665 32.8667C312.956 31.1584 312.247 29.4507 311.526 27.751C311.166 26.9016 310.608 26.1212 310.446 25.218C310.168 23.6681 309.393 22.4729 308.925 21.071C308.627 20.1862 308.302 19.3014 307.891 18.4986C307.235 17.2187 306.496 16.01 305.795 14.7691C305.608 14.4382 305.399 14.118 305.255 13.7565C304.477 11.7989 303.668 9.86825 302.489 8.23448C302.355 8.04702 302.246 7.82637 302.141 7.60886C301.778 6.84781 295.243 -4.69579 290.978 -5.82458C287.877 -6.64484 278.469 -6.49729 268.937 -9.86081C259.405 -13.2243 245.873 -9.31233 239.034 -13.158C238.587 -13.4091 238.141 -13.6692 237.694 -13.9338C236.242 -14.4361 234.792 -14.9424 233.35 -15.4523C232.431 -15.777 232.072 -16.8085 232.218 -17.6983C231.406 -18.3562 230.62 -19.0522 229.871 -19.7895C229.154 -19.9469 228.432 -20.0666 227.71 -20.1474C226.392 -20.2953 225.048 -20.2088 223.719 -20.1074C223.086 -20.059 222.462 -19.7446 221.838 -19.5343C221.529 -19.4307 221.235 -19.2616 220.925 -19.1674C219.159 -18.6329 217.391 -18.1117 215.624 -17.5848C215.546 -17.561 215.463 -17.5364 215.395 -17.4852C213.398 -16.0201 211.242 -16.3273 209.111 -16.5717C207.263 -16.7834 205.424 -17.1135 203.585 -17.4184C203.146 -17.4915 202.685 -17.583 202.292 -17.8202C201.236 -18.4557 200.113 -18.5427 198.977 -18.6154C198.329 -18.6571 197.685 -18.7885 197.037 -18.806C195.386 -18.8508 193.734 -18.8786 192.083 -18.8638C190.874 -18.8544 189.665 -18.7338 188.457 -18.7239C187.73 -18.7167 187.005 -18.8611 186.277 -18.8791C183.363 -18.9468 180.463 -19.3316 177.625 -20.0608C175.802 -20.5285 174.05 -21.156 172.149 -20.886C170.71 -20.6819 169.246 -20.8035 167.796 -20.699C164.933 -20.4954 162.27 -19.2962 159.661 -17.8628C157.988 -16.9444 156.346 -15.916 154.637 -15.1276C153.692 -14.6922 152.867 -14.1406 152.144 -13.2759C151.609 -12.6382 151.043 -12.044 150.345 -11.2668C149.28 -9.92539 147.928 -8.65622 146.939 -6.79552C145.89 -4.8227 144.441 -3.1988 143.29 -1.2659C142.186 0.590767 140.992 2.33486 140.756 4.73552C140.49 7.4371 140.188 10.1355 140.48 12.8734C140.727 15.1925 141.249 17.52 140.529 19.87C140.458 20.101 140.502 20.3835 140.474 20.6378C140.277 22.4155 140.08 24.1933 139.87 25.9688C139.847 26.1629 139.73 26.3374 139.68 26.5298C139.48 27.302 139.257 28.068 139.102 28.8542C138.946 29.6489 138.904 30.4795 138.737 31.2692C138.161 33.9896 138.033 36.728 138.468 39.4798C138.808 41.6387 139.303 43.7622 139.569 45.9346C139.871 48.4133 140.766 50.5606 141.957 52.3809C143.267 54.3842 143.722 56.8181 144.602 59.029C144.89 59.7506 145.132 60.5031 145.371 61.2539C145.596 61.9633 145.763 62.702 146.004 63.402C146.34 64.3801 146.691 65.3542 147.089 66.292C147.809 67.9863 148.316 69.8465 149.433 71.2395C149.661 71.5234 149.82 71.8947 150.025 72.21C151.748 74.8618 153.486 77.471 155.998 79.0397C157.724 80.1169 159.333 81.4937 161.245 82.0575C161.913 82.2552 162.564 82.54 163.232 82.7337C163.975 82.9486 164.727 83.2477 165.477 83.2562C166.969 83.2733 168.464 83.1333 169.956 83.0253C170.8 82.9643 171.643 82.8472 172.486 82.7405C173.652 82.5947 174.816 82.3817 175.984 82.2934C177.352 82.1902 178.725 82.2207 180.094 82.1355C181.897 82.0234 183.706 81.6659 185.498 81.7619C187.548 81.8713 189.647 82.0763 191.61 82.7611C194.168 83.6527 196.625 85.0147 199.098 86.265C199.788 86.6139 200.353 87.3422 201.021 87.7849C202.267 88.6114 203.474 89.5003 204.675 90.4326C206.031 91.4861 207.544 92.1359 208.808 93.515C209.779 94.5738 211.146 95.0151 212.247 95.9968C213.486 97.1009 214.87 97.9544 216.218 98.8491C218.144 100.127 220.057 101.473 222.266 101.843C224.063 102.144 225.863 102.431 227.664 102.703C227.94 102.745 228.232 102.706 228.508 102.644C229.584 102.401 230.652 102.096 231.731 101.892C232.283 101.788 232.854 101.857 233.415 101.835C233.778 101.822 234.14 101.793 234.501 101.757C235.145 101.693 235.787 101.578 236.43 101.556C238.246 101.496 240.061 101.442 241.822 100.746C242.014 100.67 242.221 100.602 242.418 100.613C244.35 100.719 246.182 100.046 248.034 99.4711C248.769 99.2428 249.552 99.1464 250.306 99.1859C251.109 99.2276 251.92 99.4177 252.693 99.6971C253.538 100.003 254.385 100.383 255.152 100.914C256.101 101.572 256.934 102.498 257.88 103.166C259.416 104.251 260.74 105.929 262.561 106.24C264.359 106.547 266.181 106.634 267.993 106.81C268.108 106.82 268.234 106.769 268.347 106.719C269.798 106.08 271.269 105.505 272.691 104.775C274.86 103.662 277.106 102.718 278.873 100.616C279.07 100.381 279.372 100.291 279.622 100.125C279.977 99.8873 280.344 99.6702 280.678 99.3899C281.554 98.6562 282.352 97.7122 283.296 97.1843C284.835 96.321 286.436 95.5784 288.064 95.055C289.823 94.4886 291.638 94.1859 293.319 93.2692C294.576 92.5839 295.85 91.9027 297.012 91.0008C298.146 90.1196 299.139 88.9468 300.209 87.927C301.927 86.291 303.061 84.0603 304.175 81.8027C304.303 81.5453 304.468 81.2964 304.659 81.1166C305.304 80.5085 305.714 79.7093 305.991 78.7644C306.1 78.3863 306.291 78.0405 306.468 77.7001C307.203 76.287 307.948 74.882 308.685 73.4702C308.886 73.0863 309.057 72.6755 309.268 72.3019C310.299 70.4793 311.294 68.6213 312.394 66.8678C312.941 65.996 313.644 65.26 314.347 64.5743C315.24 63.7034 316.215 62.9729 317.128 62.132C317.976 61.3494 318.347 60.2215 318.399 58.9232C318.509 56.1741 318.105 53.5048 317.624 50.8592Z" fill="#A26833"/>
<path fill-rule="evenodd" clip-rule="evenodd" d="M246.261 50.5904C246.485 48.0673 247.838 45.6009 250.651 44.2071C251.068 44.0011 251.556 43.8959 252.016 43.8729C253.387 43.8024 254.244 44.5438 254.428 45.9995C254.526 46.7807 254.677 47.492 255.027 48.2073C255.257 48.6764 255.306 49.3912 255.159 49.9047C254.732 51.3931 254.194 52.8463 253.646 54.2903C253.267 55.2871 252.523 55.7378 251.516 55.8471C250.281 55.9815 249.187 55.8916 248.476 54.5953C248.396 54.4492 248.19 54.37 248.03 54.2903C246.571 53.5683 246.195 52.9464 246.261 50.5904Z" fill="#5B5A1B"/>
<path fill-rule="evenodd" clip-rule="evenodd" d="M244.982 26.5901C244.982 25.6893 244.979 24.789 244.982 23.8881C244.986 22.7206 245.3 21.738 246.325 21.1331C246.569 20.989 246.737 20.7044 246.955 20.5031C247.396 20.0969 247.811 19.6401 248.301 19.3176C249.637 18.4398 251.108 19.1092 251.617 20.6947C252.2 22.5075 252.272 24.3787 252.204 26.2472C252.167 27.2845 251.861 28.3151 251.629 29.336C251.544 29.7069 251.347 30.0595 251.155 30.389C250.538 31.4457 247.854 32.6255 246.718 32.3608C245.69 32.1212 244.966 31.1519 244.908 29.8766C244.882 29.3308 244.931 28.7811 244.937 28.2333C244.944 27.6851 244.938 27.1368 244.938 26.5891C244.953 26.5901 244.968 26.5901 244.982 26.5901Z" fill="#5B5A1B"/>
<path fill-rule="evenodd" clip-rule="evenodd" d="M221.917 3.38498C221.917 2.52351 221.91 1.66204 221.92 0.801078C221.928 0.00807428 222.208 -0.624489 222.833 -1.09508C223.082 -1.28362 223.247 -1.60501 223.445 -1.87071C223.715 -2.23349 223.934 -2.66269 224.26 -2.95394C225.079 -3.68869 226.159 -3.52927 226.71 -2.55335C226.986 -2.06334 227.347 -1.74961 227.735 -1.39808C228.135 -1.0353 228.564 -0.568284 228.719 -0.0557947C229.354 2.0519 229.62 4.19791 228.847 6.35313C228.598 7.04598 228.354 7.74139 228.115 8.43885C227.366 10.6217 224.45 10.4188 223.626 8.95747C223.448 8.64068 223.178 8.34126 222.886 8.14863C222.155 7.66526 221.855 6.97292 221.855 6.0859C221.856 5.18559 221.855 4.2858 221.855 3.38498C221.876 3.38498 221.896 3.38498 221.917 3.38498Z" fill="#5B5A1B"/>
<path fill-rule="evenodd" clip-rule="evenodd" d="M241.848 32.7346C241.928 35.648 240.869 38.1435 239.284 40.3938C238.327 41.7514 236.963 41.9333 235.586 41.081C235.397 40.9645 235.212 40.8394 235.037 40.7009C233.505 39.4884 233.108 38.2452 233.716 36.2939C234.211 34.7033 234.775 33.1357 235.319 31.5624C235.393 31.3458 235.485 31.0832 235.646 30.9631C236.817 30.0899 237.881 28.9571 239.469 29.0398C240.865 29.1129 241.752 30.0444 241.845 31.5599C241.868 31.9502 241.848 32.3432 241.848 32.7346Z" fill="#5B5A1B"/>
<path fill-rule="evenodd" clip-rule="evenodd" d="M219.994 108.611C220.205 108.004 219.999 107.571 219.63 107.114C219.1 106.456 219.087 105.654 219.484 104.915C220.155 103.665 220.774 102.366 221.95 101.53C222.211 101.346 222.377 101.012 222.598 100.758C222.994 100.301 223.36 99.8009 223.809 99.411C224.54 98.7733 225.553 98.8469 226.199 99.5398C227.447 100.878 227.933 102.403 227.49 104.339C227.061 106.217 226.446 107.992 225.674 109.724C225.025 111.18 223.722 112.156 222.433 112.085C221.138 112.013 220.348 111.267 220.127 109.881C220.059 109.458 220.037 109.027 219.994 108.611Z" fill="#5B5A1B"/>
<path fill-rule="evenodd" clip-rule="evenodd" d="M229.34 71.678C229.34 72.1486 229.309 72.6218 229.346 73.0888C229.496 74.9599 228.531 76.1187 227.164 76.9664C226.107 77.6225 224.808 77.4043 223.983 76.3614C223.428 75.6604 223.044 74.7913 222.641 73.9651C221.835 72.306 221.693 70.5181 221.946 68.7007C222.019 68.1846 222.213 67.5888 222.541 67.2342C223.175 66.5495 223.902 65.9369 224.666 65.428C225.793 64.6784 227.137 65.0862 227.954 66.2348C229.109 67.8571 229.382 69.7119 229.34 71.678Z" fill="#5B5A1B"/>
<path fill-rule="evenodd" clip-rule="evenodd" d="M184.864 57.4473C183.852 57.4412 183.015 56.5598 183 55.4214C182.996 55.0428 183.058 54.6156 183.225 54.2901C184.059 52.653 184.866 50.9889 185.832 49.4437C186.302 48.6931 187.052 48.103 187.764 47.5813C188.409 47.1102 189.161 47.2011 189.819 47.6906C190.451 48.1607 190.803 49.0804 190.553 49.8734C190.043 51.4967 189.465 53.096 188.912 54.704C188.215 56.7264 186.715 57.386 184.864 57.4473Z" fill="#5B5A1B"/>
<path fill-rule="evenodd" clip-rule="evenodd" d="M209.715 114.739C209.751 115.245 209.812 115.753 209.818 116.26C209.837 117.827 208.924 118.785 207.418 118.805C205.997 118.824 205.094 117.88 205.09 116.338C205.089 115.911 205.149 115.481 205.217 115.059C205.323 114.41 205.482 113.77 205.579 113.12C205.687 112.4 205.931 111.779 206.451 111.282C207.657 110.131 209.184 110.588 209.56 112.288C209.734 113.076 209.702 113.918 209.763 114.735C209.747 114.736 209.731 114.737 209.715 114.739Z" fill="#5B5A1B"/>
<path fill-rule="evenodd" clip-rule="evenodd" d="M236.629 22.0548C235.091 22.0604 233.939 20.4121 234.575 18.8726C235.1 17.6018 235.837 16.3975 236.651 15.3112C237.433 14.2668 238.64 14.1892 239.492 14.8718C240.359 15.5662 240.531 16.7358 239.974 17.9385C239.553 18.8455 239.186 19.7816 238.758 20.6839C238.322 21.6062 237.588 22.0482 236.629 22.0548Z" fill="#5B5A1B"/>
<path fill-rule="evenodd" clip-rule="evenodd" d="M236.175 62.5998C236.175 62.9523 236.209 63.309 236.169 63.6559C236.04 64.7632 235.269 65.6042 234.261 65.7774C233.284 65.9455 232.338 65.4678 231.883 64.5077C231.688 64.0959 231.518 63.6309 231.482 63.1772C231.387 61.9805 231.686 60.8421 232.207 59.8003C232.628 58.9602 233.411 58.8657 234.211 58.949C235.063 59.0374 235.649 59.5662 235.898 60.4047C236.104 61.1027 236.144 61.8574 236.258 62.5875C236.231 62.5916 236.203 62.5957 236.175 62.5998Z" fill="#5B5A1B"/>
<path fill-rule="evenodd" clip-rule="evenodd" d="M218.111 83.9741C217.981 84.9321 217.923 85.8712 217.712 86.768C217.47 87.7924 216.326 88.3044 215.316 87.9493C214.385 87.6223 213.86 86.5099 214.203 85.4998C214.536 84.5192 214.897 83.5479 215.287 82.5924C215.53 82.0002 215.918 81.5005 216.585 81.5148C217.249 81.5291 217.635 82.035 217.854 82.6359C218.01 83.0615 218.034 83.5438 218.111 83.9741Z" fill="#5B5A1B"/>
<path fill-rule="evenodd" clip-rule="evenodd" d="M193.719 35.6271C192.819 35.6066 192.332 35.3256 192.075 34.6798C191.854 34.1239 191.909 33.5357 192.326 33.1684C193.129 32.4622 193.792 31.5282 194.846 31.194C195.122 31.1067 195.405 31.0014 195.687 30.9953C196.216 30.9845 196.694 31.1486 196.96 31.7086C197.219 32.2543 197.138 32.778 196.808 33.246C196.614 33.5219 196.379 33.7744 196.129 33.9941C195.683 34.3865 195.233 34.7815 194.746 35.109C194.361 35.3691 193.919 35.529 193.719 35.6271Z" fill="#5B5A1B"/>
<path fill-rule="evenodd" clip-rule="evenodd" d="M215.614 62.0066C215.583 62.1374 215.56 62.4184 215.453 62.657C215.171 63.2881 214.856 63.9032 214.548 64.521C214.48 64.6569 214.392 64.7841 214.3 64.9032C213.623 65.7754 212.869 65.9731 212.231 65.4525C211.566 64.9088 211.477 63.9211 212.012 63.0418C212.229 62.6846 212.446 62.3269 212.644 61.9575C212.988 61.3163 213.501 60.8958 214.142 60.6847C214.956 60.4165 215.59 60.9463 215.614 62.0066Z" fill="#5B5A1B"/>
<path fill-rule="evenodd" clip-rule="evenodd" d="M116.488 -25.6901C117.285 -25.1112 118.087 -24.5399 118.876 -23.9481C119.115 -23.769 119.316 -23.5314 119.539 -23.3248C120.336 -22.585 121.141 -21.8517 121.931 -21.1027C122.105 -20.9372 122.22 -20.6981 122.387 -20.5216C122.739 -20.149 123.107 -19.7949 123.469 -19.4343C123.77 -19.1343 124.081 -18.8463 124.371 -18.5338C125.058 -17.794 125.73 -17.0375 126.419 -16.3018C126.606 -16.1019 126.806 -15.8882 127.048 -15.7875C128.111 -15.3424 128.753 -14.3733 129.504 -13.5282C130.641 -12.2483 131.712 -10.858 133.021 -9.81458C134.114 -8.94254 135.146 -8.01935 136.024 -6.91556C136.962 -5.73671 137.812 -4.46097 138.621 -3.1588C139.74 -1.35584 140.786 0.509918 141.863 2.34996C142.545 3.51639 143.232 4.67881 143.901 5.85529C144.103 6.21133 144.286 6.59007 144.426 6.98782C144.933 8.42905 145.378 9.90881 145.925 11.3255C146.458 12.7109 147.105 14.0249 147.668 15.3927C148.355 17.062 149.005 18.754 149.671 20.4368C149.56 21.7512 150.154 22.6511 150.693 23.6246C151.285 24.6944 151.665 25.9299 152.217 27.0346C152.626 27.8524 153.105 28.6328 153.652 29.3282C154.793 30.7774 156.002 32.1564 157.177 33.5705C157.392 33.8289 157.587 34.1094 157.78 34.3893C158.061 34.7961 158.29 35.2606 158.616 35.6143C159.694 36.7851 160.767 37.9672 161.92 39.0454C162.598 39.6799 163.422 40.1305 164.185 40.6556C164.603 40.9425 165.034 41.2092 165.455 41.4909C165.604 41.5904 165.724 41.7716 165.89 41.8042C166.838 41.9916 167.378 42.7748 168.061 43.3654C168.811 44.0136 169.626 44.5831 170.456 45.1117C172.071 46.1386 173.681 47.181 175.361 48.0888C176.936 48.9395 178.452 49.9001 180.14 50.5549C181.723 51.1698 183.229 51.9854 184.693 52.8464C185.586 53.3716 186.337 54.1486 187.151 54.8133C187.291 54.9281 187.409 55.0936 187.572 55.1535C188.507 55.4963 189.085 56.3255 189.794 56.9811C190.255 57.4082 190.795 57.7327 191.3 58.103C191.444 58.2097 191.613 58.2905 191.727 58.4302C192.737 59.6565 194.055 60.417 195.35 61.2326C196.28 61.8173 197.071 62.6351 197.934 63.3326C198.4 63.7083 198.893 64.0469 199.367 64.4102C199.628 64.6099 199.9 64.8009 200.127 65.0416C202.331 67.3756 204.489 69.7642 206.741 72.0393C207.608 72.9146 208.62 73.651 209.675 74.2527C211.542 75.3174 213.47 76.2778 215.416 77.1898C216.987 77.9272 218.61 78.5628 220.234 79.1856C223.511 80.4432 226.796 81.6821 230.094 82.8861C231.277 83.318 232.52 83.6015 233.718 83.9993C235.203 84.4923 236.676 85.0164 238.143 85.5591C240.402 86.3947 242.731 87.0108 245.175 87.2792C245.448 87.3089 245.736 87.2757 246.011 87.3026C246.491 87.3496 246.966 87.4181 247.443 87.4818C248.654 87.6429 249.867 87.7963 251.074 87.9712C252.409 88.1642 253.777 88.1033 255.156 88.0228C257.031 87.9133 258.895 87.9133 260.764 87.8687C260.92 87.8655 261.083 87.851 261.226 87.8894C262.482 88.229 263.83 87.8634 265.134 87.8252C265.601 87.8118 266.069 87.796 266.538 87.7686C266.85 87.7492 267.164 87.7314 267.477 87.6734C269.427 87.3135 271.376 86.93 273.325 86.579C274.77 86.3193 276.22 86.0407 277.66 85.8823C278.463 85.7931 279.254 85.9234 280.046 85.9776C280.288 85.9938 280.509 86.1277 280.751 86.1371C281.892 86.18 283.038 86.1924 284.18 86.2293C284.425 86.2369 284.661 86.2935 284.898 86.3397C285.285 86.415 285.66 86.5439 286.055 86.5733C287.213 86.6608 288.384 86.6856 289.54 86.7841C290.179 86.8393 290.802 86.9768 291.425 87.105C293.356 87.5 295.28 87.9118 296.979 88.9141C297.52 89.233 298.117 89.4559 298.66 89.7725C299.174 90.0708 299.67 90.4063 300.141 90.7731C301.373 91.7325 302.585 92.7198 303.807 93.6921C304.7 94.4022 305.593 95.1119 306.495 95.8084C307.017 96.2124 307.552 96.597 308.09 96.9782C308.92 97.5678 309.771 98.1255 310.587 98.7356C311.875 99.6977 313.47 100.198 314.446 101.628C314.584 101.83 314.778 101.995 314.978 102.124C315.706 102.593 316.196 103.288 316.564 104.133C316.867 104.831 317.167 104.986 317.501 104.732C318 104.353 317.801 103.917 317.73 103.491C317.571 102.537 317.218 101.751 316.604 101.1C315.702 100.146 314.91 99.0663 314.014 98.1067C313.519 97.576 312.922 97.1589 312.345 96.7301C311.767 96.3016 311.163 95.9102 310.559 95.5241C309.753 95.0082 308.914 94.5464 308.129 93.9983C307.296 93.4172 306.552 92.6896 305.692 92.1575C304.56 91.4563 303.655 90.462 302.63 89.6284C300.971 88.279 299.051 87.3559 297.157 86.3956C295.386 85.4978 293.504 84.8919 291.566 84.4093C290.576 84.1624 289.607 83.8548 288.619 83.6011C288.33 83.5272 288.012 83.539 287.705 83.5214C287.397 83.5045 287.059 83.5716 286.782 83.4789C285.116 82.9206 283.303 82.9509 281.566 82.6864C280.001 82.4476 278.412 82.33 276.853 82.0956C275.883 81.9498 274.948 81.7504 273.927 81.9227C272.161 81.2296 270.157 81.9785 268.302 81.7757C266.388 81.5656 264.43 81.5507 262.491 81.4525C260.648 81.359 258.791 81.3327 256.967 81.1498C255.782 81.0311 254.559 81.1587 253.391 80.8746C252.315 80.6135 251.131 80.6831 250 80.585C249.452 80.5386 248.903 80.4843 248.376 80.3623C247.254 80.102 246.148 79.7951 245.034 79.5089C244.888 79.4705 244.742 79.4248 244.589 79.4149C243.334 79.3327 242.076 79.2637 240.823 79.1769C240.456 79.1511 240.095 79.0934 239.738 79.0264C238.219 78.743 236.736 78.3527 235.11 78.4523C234.32 78.5005 233.55 78.2017 232.804 77.97C231.368 77.5253 229.956 77.0167 228.534 76.5327C226.541 75.8545 224.559 75.1502 222.553 74.5043C221.375 74.1258 220.244 73.6637 219.201 73.0036C219.027 72.8933 218.802 72.8726 218.603 72.8047C217.865 72.5546 217.142 72.2631 216.387 72.06C215.665 71.866 214.922 71.7141 214.169 71.6282C212.827 71.475 211.753 70.811 210.677 70.0798C207.49 67.9127 205.169 64.6838 202.374 62.0388C201.917 61.6059 201.38 61.2737 200.878 60.8988C200.758 60.8088 200.599 60.7627 200.51 60.6445C199.68 59.5387 198.484 58.943 197.456 58.1147C196.919 57.6808 196.3 57.3674 195.736 56.9701C195.249 56.6266 194.791 56.2391 194.317 55.8756C193.795 55.4752 193.262 55.0898 192.748 54.6799C192.443 54.4356 192.155 54.1655 191.875 53.89C191.162 53.1891 190.566 52.3266 189.582 52.0029C189.5 51.976 189.431 51.9034 189.37 51.8356C188.792 51.1984 188.167 50.6541 187.383 50.2936C186.741 49.9983 186.223 49.4497 185.602 49.101C184.745 48.6185 183.836 48.2329 182.963 47.7805C181.428 46.9848 179.885 46.2025 178.378 45.3536C176.92 44.5315 175.494 43.6494 174.073 42.761C173.214 42.224 172.437 41.5361 171.541 41.0746C170.12 40.3414 169.178 39.0155 168.041 37.93C167.888 37.7831 167.742 37.6066 167.554 37.5276C166.064 36.899 165.068 35.5774 164.132 34.3082C163.379 33.2886 162.456 32.4267 161.812 31.3383C160.926 29.8394 159.874 28.4952 159.176 26.7949C158.386 24.8713 157.813 22.8627 157.22 20.8458C156.924 19.8386 156.669 18.8385 156.509 17.7562C156.332 16.547 155.753 15.4784 155.326 14.3613C155.132 13.8514 154.824 13.4037 154.675 12.8734C154.237 11.3147 153.661 9.8499 153.081 8.37248C152.496 6.88326 151.647 5.62572 150.972 4.22318C150.522 3.28784 149.761 2.57916 149.294 1.65402C148.49 0.0569111 147.179 -0.977247 146.115 -2.28414C145.361 -3.20993 144.709 -4.24372 144.012 -5.22927C143.958 -5.30557 143.915 -5.39362 143.855 -5.46218C141.514 -8.13369 139.385 -11.0484 136.758 -13.3887C135.568 -14.4487 134.191 -15.2605 132.939 -16.243C132.043 -16.9465 130.953 -17.3645 130.232 -18.3285C130.087 -18.5232 129.9 -18.7152 129.685 -18.7969C128.813 -19.1283 128.247 -19.8753 127.59 -20.501C126.425 -21.6111 125.353 -22.8736 124.05 -23.7678C122.895 -24.5607 122.007 -25.6522 120.938 -26.5208C120.169 -27.1435 119.287 -27.5971 118.626 -28.3864C118.211 -28.8817 117.834 -29.378 117.543 -30.0008C117.06 -31.0346 116.459 -31.9877 115.867 -32.9394C115.143 -34.1048 114.37 -35.2263 113.633 -36.3796C112.929 -37.4813 112.259 -38.6146 111.541 -39.7051C111.2 -40.2228 110.802 -40.6933 110.389 -41.1384C110.271 -41.2662 109.978 -41.328 109.822 -41.2418C109.665 -41.1555 109.503 -40.8459 109.476 -40.6375C109.437 -40.3315 109.46 -39.9946 109.554 -39.7283C109.931 -38.6569 110.348 -37.6092 110.742 -36.549C110.844 -36.2759 110.928 -35.991 111.004 -35.704C111.331 -34.4741 111.969 -33.4765 112.603 -32.4726C112.868 -32.053 113.095 -31.5968 113.304 -31.1327C113.869 -29.885 114.679 -28.8338 115.187 -27.5295C115.458 -26.8344 116.076 -26.3566 116.536 -25.7809C116.52 -25.7512 116.504 -25.7206 116.488 -25.6901Z" fill="#FEC84B"/>
<path d="M124.998 125.097C98.6903 125.097 77.3636 120.099 77.3636 113.933C77.3636 107.767 98.6903 102.769 124.998 102.769C151.306 102.769 172.633 107.767 172.633 113.933C172.633 120.099 151.306 125.097 124.998 125.097Z" fill="#EBD7C7"/>
<path d="M156.775 66.2739C156.775 66.2739 168.536 67.3216 170.61 69.122C172.685 70.9227 172.238 74.819 172.238 74.819L172.441 108.796C172.441 108.796 170.944 112.75 164.168 114.086C157.391 115.422 139.007 118.088 130.936 118.088C122.865 118.088 103.402 117.409 103.402 117.409C103.402 117.409 88.8588 115.284 84.8869 113.883C80.9154 112.481 78.1049 111.416 78.1049 109.474C78.1049 107.532 77.9016 71.2923 77.9016 71.2923C77.9016 71.2923 78.8324 68.057 83.7341 67.5622C88.6358 67.0675 156.775 66.2739 156.775 66.2739Z" fill="#D77E56"/>
<path d="M78.0321 86.3193C78.0321 99.0983 172.258 99.0983 172.258 86.3193V96.1791C172.258 108.958 78.0321 108.958 78.0321 96.1791V86.3193Z" fill="#DADEE0"/>
<path d="M162.371 73.407C163.532 68.3052 161.11 62.9255 157.449 59.1881C153.787 55.4508 149.022 53.0346 144.372 50.6375C139.721 48.2404 134.779 45.0492 131.268 41.1702C128.035 37.5979 126.945 34.0125 123.286 30.8765C120.855 28.792 115.341 26.1102 112.261 25.2335C99.5087 21.6037 84.9106 28.272 78.9072 34.2751C76.6931 36.4892 78.2449 42.5261 78.4582 45.65C78.6715 48.774 80.1273 53.222 82.7932 54.8646C84.179 55.7184 87.7898 56.9265 89.0622 57.9419C89.78 58.5145 91.1823 61.2979 90.986 64.3869C90.7897 67.4761 89.4735 70.3682 88.1785 73.1799C109.199 80.04 131.96 77.8506 153.956 75.5872C156.743 75.3005 159.571 75.0038 162.371 73.407Z" fill="#CD966D"/>
<path d="M120.088 29.4349C122.65 26.5921 122.573 19.6156 114.647 17.2826C106.004 14.7383 102.495 21.8414 102.98 24.4165C104.251 31.1838 117.576 32.2221 120.088 29.4349Z" fill="#FF9D47"/>
<path d="M119.322 77.3565C116.931 77.4068 114.536 77.2449 112.174 76.8735C112.254 81.0293 112.263 85.1862 112.202 89.3425C112.191 90.0462 112.136 90.8441 111.593 91.2919C111.194 91.6206 110.639 91.6635 110.122 91.6855C102.052 92.0334 93.9021 90.8952 86.2972 88.1709C84.8617 87.6567 83.3575 87.0174 82.5146 85.7468C81.7927 84.6588 81.6799 83.2912 81.5883 81.9888C81.4126 79.4936 81.2375 76.9834 81.4937 74.4949C81.7502 72.0065 82.4638 69.5169 83.9201 67.4829C95.1399 65.6593 106.553 68.2817 117.617 70.8883C117.991 73.0997 118.366 75.3108 119.322 77.3565Z" fill="white"/>
<path d="M117.064 72.0887C117.367 72.9422 116.871 73.9943 116.02 74.304C115.041 74.6606 113.974 74.0951 112.932 74.1127C112.645 74.1177 112.324 74.1888 112.167 74.4294C112.053 74.6039 112.052 74.8263 112.055 75.0346C112.065 75.7539 112.076 76.4731 112.086 77.1926C114.235 77.6115 116.463 77.6165 118.613 77.2073C118.311 76.2686 118.411 75.2538 118.309 74.2728C118.208 73.2912 117.81 72.2262 117.064 72.0887Z" fill="#DADEE0"/>
<path d="M129.901 34.7669C130.523 35.0372 131.156 35.371 131.498 35.9168C131.852 36.4803 131.835 37.1743 131.726 37.8162C131.598 38.5657 131.352 39.314 130.867 39.9298C130.275 40.6807 129.377 41.1773 128.477 41.6021C127.811 41.9162 127.107 42.2085 126.358 42.2349C125.704 42.2581 125.061 42.076 124.457 41.8459C123.327 41.4155 122.245 40.78 121.59 39.8364C121.172 39.2359 120.948 38.5401 120.799 37.8421C120.636 37.082 120.558 36.2944 120.72 35.5343C120.883 34.7743 121.309 34.0395 122 33.59C122.692 33.1399 128.14 34.0019 129.901 34.7669Z" fill="#B07066"/>
<path d="M112.463 38.0515C99.3119 40.5973 108.547 53.5331 117.3 47.9989C121.335 45.4479 121.01 36.3972 112.463 38.0515Z" fill="#B07066"/>
<path d="M94.5498 60.2584C97.0879 61.4131 102.347 49.1671 99.4847 40.2292C97.1766 33.0215 82.3784 30.8048 79.0459 34.1376C76.4173 36.7662 78.4077 50.0235 80.9094 53.5584C82.5755 55.9129 90.2706 58.3117 94.5498 60.2584Z" fill="#B07066"/>
<path opacity="0.9412" d="M116.147 24.1101C117.419 22.4863 117.018 18.8464 112.515 18.0585C107.604 17.1988 106.028 21.0993 106.428 22.4178C107.478 25.8834 114.901 25.7022 116.147 24.1101Z" fill="#FFB55B"/>
<path d="M117.381 41.2837C117.681 40.9008 117.587 40.0427 116.525 39.8567C115.367 39.654 114.995 40.5735 115.09 40.8844C115.337 41.7014 117.087 41.6588 117.381 41.2837Z" fill="#EDAE84"/>
<path d="M171.885 71.4615C170.926 70.8548 169.858 70.3692 168.726 70.2951C167.594 70.2211 166.39 70.6133 165.684 71.5012C165.292 71.9939 165.012 72.657 164.419 72.8526C163.769 73.1658 163.118 73.4793 162.467 73.7925C162.734 71.5687 162.711 69.31 162.4 67.0919C164.396 67.0363 166.448 66.9887 168.327 67.6665C170.206 68.344 171.9 69.9229 171.885 71.4615Z" fill="#C7543A"/>
<path d="M126.364 43.2198C129.178 43.2198 130.799 41.7323 131.358 41.1018C132.863 39.4045 133.234 37.0744 132.24 35.5611C131.273 34.0886 129.424 33.6987 127.282 33.2472C125.708 32.9155 123.924 32.5391 122.09 31.6859C121.722 31.5152 121.285 31.6742 121.114 32.042C120.943 32.4098 121.102 32.8467 121.47 33.0177C123.457 33.942 125.328 34.3366 126.979 34.6844C128.878 35.0849 130.377 35.401 131.012 36.3676C131.628 37.3048 131.297 38.9565 130.259 40.1273C128.512 42.0969 125.456 42.272 122.083 40.595C121.72 40.4143 121.279 40.5624 121.099 40.9258C120.918 41.2889 121.066 41.7299 121.429 41.9106C123.363 42.8716 125.003 43.2198 126.364 43.2198Z" fill="#652815"/>
<path d="M123.707 46.0335C123.873 46.0335 124.04 45.9773 124.178 45.8628C124.489 45.6028 124.531 45.1397 124.271 44.8283C123.703 44.1485 123.024 43.5576 122.254 43.0726C121.91 42.8566 121.457 42.9595 121.241 43.3029C121.025 43.6464 121.128 44.0997 121.471 44.3156C122.111 44.7187 122.674 45.2079 123.143 45.7696C123.288 45.9436 123.497 46.0335 123.707 46.0335Z" fill="#652815"/>
<path d="M121.32 47.877C121.414 47.877 121.51 47.8588 121.602 47.8206C121.976 47.6649 122.154 47.2351 121.998 46.8605C121.771 46.3143 121.46 45.8052 121.074 45.3469C120.812 45.0366 120.349 44.9972 120.039 45.259C119.728 45.5208 119.689 45.9841 119.951 46.2941C120.24 46.6372 120.473 47.0177 120.642 47.4246C120.759 47.7069 121.032 47.877 121.32 47.877Z" fill="#652815"/>
<path d="M114.814 31.611C117.302 31.611 119.572 31.1024 120.632 29.9267C122.177 28.2124 122.721 25.4953 122.017 23.0051C121.519 21.2459 119.927 18.0717 114.853 16.578C109.89 15.1173 106.758 16.6997 105.006 18.2844C102.825 20.2561 101.962 22.9854 102.256 24.5523C102.806 27.4802 105.383 29.7316 109.512 30.8915C111.15 31.3519 113.038 31.611 114.814 31.611ZM119.541 28.943C118.441 30.1638 114.088 30.6515 109.909 29.4775C107.846 28.8978 104.296 27.4517 103.7 24.2808C103.516 23.3036 104.117 21.0681 105.991 19.3738C107.465 18.0409 110.128 16.7182 114.438 17.9871C117.697 18.9463 119.886 20.8701 120.603 23.4044C121.164 25.3896 120.737 27.6157 119.541 28.943Z" fill="#652815"/>
<path d="M162.404 74.3066C162.764 74.3066 163.079 74.041 163.13 73.6738C164.304 65.2551 160.15 58.2774 150.782 52.935C149.147 52.0022 147.563 51.1963 146.031 50.4166C141.335 48.0269 136.898 45.7696 131.276 40.1467C130.989 39.8596 130.524 39.8596 130.237 40.1467C129.95 40.4334 129.95 40.8985 130.237 41.1852C136.025 46.973 140.562 49.2817 145.365 51.7258C146.881 52.4973 148.449 53.2955 150.054 54.211C158.849 59.2264 162.758 65.7063 161.675 73.4708C161.62 73.8727 161.9 74.2438 162.302 74.2996C162.336 74.3046 162.37 74.3066 162.404 74.3066Z" fill="#652815"/>
<path d="M125.579 34.1147C125.735 34.1147 125.894 34.0648 126.028 33.9611C126.348 33.7128 126.407 33.2516 126.159 32.9307C125.538 32.129 123.319 29.4196 120.831 28.2259C120.465 28.0505 120.027 28.2047 119.851 28.5702C119.676 28.936 119.83 29.3746 120.196 29.55C121.941 30.3876 123.821 32.3099 124.997 33.8294C125.142 34.0169 125.359 34.1147 125.579 34.1147Z" fill="#652815"/>
<path d="M107.753 41.0794C107.931 41.0794 108.109 41.0154 108.25 40.8855C109.494 39.7418 111.459 39.0364 113.933 38.8457C114.338 38.8146 114.64 38.4614 114.609 38.0569C114.578 37.6523 114.224 37.3491 113.82 37.3811C111.014 37.5974 108.744 38.4353 107.255 39.8044C106.957 40.0791 106.937 40.5436 107.212 40.8421C107.357 40.9995 107.554 41.0794 107.753 41.0794Z" fill="#652815"/>
<path d="M95.6289 61.6396C95.8607 61.6396 96.0887 61.5303 96.2318 61.3258C96.4642 60.9932 96.3828 60.5352 96.0499 60.3028C94.7011 59.3609 92.6381 58.5542 90.454 57.6998C87.3215 56.4747 83.7713 55.0862 81.7488 53.0637C80.791 52.1056 79.5718 48.2025 78.9134 43.9842C78.1037 38.7972 78.4915 35.725 79.2351 34.9814C84.8099 29.4066 93.9231 25.6396 103.018 25.1498C103.423 25.1281 103.734 24.782 103.712 24.3769C103.69 23.972 103.344 23.6585 102.939 23.6829C93.4971 24.1912 84.0163 28.1228 78.1962 33.9429C76.3714 35.7679 77.0748 41.7314 77.4617 44.211C78.0737 48.1294 79.3153 52.7076 80.7099 54.1026C82.9495 56.3422 86.652 57.7903 89.9187 59.068C92.0193 59.8895 94.0033 60.6657 95.2088 61.5074C95.3369 61.597 95.4838 61.6396 95.6289 61.6396Z" fill="#652815"/>
<path d="M90.5722 67.4174C90.8719 67.4174 91.1534 67.2326 91.2621 66.9347C92.3206 64.0399 92.0254 60.7056 90.4721 58.0156C90.2693 57.6642 89.8198 57.5438 89.4687 57.7468C89.1174 57.9495 88.9972 58.399 89.1999 58.7501C90.5384 61.0679 90.7935 63.9391 89.8824 66.4302C89.7431 66.8113 89.9391 67.2329 90.3202 67.3721C90.4033 67.4027 90.4885 67.4174 90.5722 67.4174Z" fill="#652815"/>
<path d="M94.2644 55.5387C94.6261 55.5387 94.941 55.2716 94.9913 54.9032C95.0459 54.5013 94.7647 54.1311 94.3628 54.0761C91.2445 53.6507 85.7088 52.1814 84.129 50.0508C83.9807 49.8505 83.7406 49.7385 83.4921 49.7553C83.2435 49.7714 83.0197 49.9122 82.898 50.1299C82.5199 50.8059 81.7931 51.3629 81.2434 51.3982C81.0036 51.4149 80.8291 51.325 80.6716 51.1123C80.4298 50.7865 79.9695 50.718 79.6442 50.9595C79.3184 51.201 79.25 51.6611 79.4915 51.987C79.9457 52.5998 80.6011 52.9127 81.3374 52.8639C82.2076 52.8081 83.0202 52.2734 83.6011 51.6391C86.0669 53.896 91.4381 55.1594 94.1645 55.5316C94.198 55.5363 94.2315 55.5387 94.2644 55.5387Z" fill="#652815"/>
<path d="M83.7251 51.4258C83.8599 51.4258 83.9965 51.3884 84.119 51.3106C84.4613 51.0926 84.5618 50.6387 84.3438 50.2964C83.6587 49.2211 83.4721 46.6857 83.7997 45.3639C83.8975 44.9702 83.6575 44.5718 83.2635 44.4742C82.871 44.3767 82.4717 44.6167 82.3739 45.0104C82.0066 46.4915 82.1071 49.5196 83.1048 51.0858C83.245 51.3056 83.4824 51.4258 83.7251 51.4258Z" fill="#652815"/>
<path d="M80.4808 39.9639C80.5916 39.9639 80.7044 39.9387 80.8102 39.8855C81.1724 39.7033 81.3188 39.2618 81.1363 38.8995C80.5208 37.6753 79.6365 36.5953 78.5794 35.7767C78.2586 35.5282 77.797 35.587 77.5491 35.9081C77.3008 36.2289 77.3596 36.6902 77.6804 36.9384C78.5653 37.6235 79.3065 38.5299 79.8242 39.5594C79.9532 39.8156 80.212 39.9639 80.4808 39.9639Z" fill="#652815"/>
<path d="M87.5051 41.8366C87.6414 41.8366 87.7792 41.7987 87.9023 41.7194C89.1418 40.9205 90.8264 40.3274 92.7743 40.0042C93.1745 39.9378 93.445 39.5594 93.3787 39.1592C93.312 38.7591 92.9341 38.4891 92.534 38.5549C90.3899 38.9107 88.5131 39.5779 87.1064 40.4845C86.7653 40.7043 86.6672 41.1588 86.8869 41.4999C87.0274 41.7179 87.2639 41.8366 87.5051 41.8366Z" fill="#652815"/>
<path d="M106.838 92.6404C108.385 92.6404 109.731 92.5296 110.728 92.2743C112.369 91.8536 112.714 91.0592 112.714 90.4672C112.714 88.7858 112.702 87.075 112.69 85.4277C112.659 80.9079 112.628 76.6391 112.88 75.1971C112.941 74.8481 113.095 74.6395 113.351 74.5584C113.679 74.455 114.12 74.5696 114.376 74.8263C114.663 75.1134 115.128 75.1131 115.415 74.8266C115.702 74.5396 115.702 74.0745 115.415 73.7878C114.769 73.1414 113.761 72.8888 112.908 73.1576C112.125 73.4052 111.588 74.0566 111.432 74.9444C111.158 76.5171 111.188 80.6511 111.221 85.438C111.233 87.082 111.245 88.7893 111.245 90.4672C111.247 90.4507 110.813 91.1285 107.147 91.1646C98.6938 91.2575 84.3912 88.0336 82.7471 85.0355C82.1671 83.9781 81.6586 75.7339 83.2565 70.8586C83.7228 69.4358 84.3151 68.5229 84.9691 68.2186C86.8632 67.3369 93.8529 67.393 101.966 68.3567C110.865 69.4126 116.304 70.9938 116.903 71.9454C117.308 72.5882 117.626 74.9533 117.934 77.2408L117.987 77.6333C118.041 78.0352 118.41 78.3187 118.813 78.2632C119.215 78.2088 119.497 77.8392 119.443 77.4373L119.39 77.0451C118.975 73.964 118.693 72.0315 118.146 71.1624C116.652 68.7909 105.517 67.299 102.139 66.898C95.5913 66.1209 87.0027 65.6517 84.3489 66.8871C83.3024 67.3742 82.465 68.5567 81.8607 70.4015C80.2531 75.3064 80.5727 84.1262 81.4591 85.7423C83.0864 88.7097 91.4223 90.629 94.9308 91.3168C98.7593 92.0663 103.318 92.6404 106.838 92.6404Z" fill="#652815"/>
<path d="M123.324 78.3533C129.473 78.3533 136.376 78.0939 142.752 77.5901C150.148 77.0057 162.952 75.5984 165.601 72.7371C166.196 72.0952 166.242 71.4756 166.177 71.0687C166.112 70.6685 165.737 70.3947 165.334 70.4611C164.934 70.526 164.662 70.903 164.726 71.3034C164.734 71.349 164.756 71.4879 164.524 71.7391C160.826 75.7327 127.557 77.7972 112.048 76.4995C111.644 76.4654 111.288 76.7657 111.254 77.1702C111.221 77.5745 111.521 77.9294 111.925 77.9632C115.055 78.225 119.004 78.3533 123.324 78.3533Z" fill="#652815"/>
<path d="M123.553 81.997C141.193 81.997 165.469 79.6937 171.465 74.5619C172.414 73.7487 172.928 72.8579 172.991 71.9139C173.055 70.9656 172.763 70.115 172.121 69.3861C170.658 67.7221 167.415 66.7584 162.208 66.4408C161.801 66.4194 161.455 66.7243 161.43 67.1292C161.405 67.534 161.713 67.8822 162.118 67.9069C168.01 68.2665 170.21 69.4375 171.018 70.3565C171.397 70.7869 171.563 71.2644 171.526 71.8155C171.49 72.3508 171.148 72.8993 170.509 73.4461C167.449 76.065 157.976 78.2829 144.517 79.5306C133.147 80.5848 120.1 80.8166 112.051 80.1073C111.648 80.0724 111.291 80.3703 111.255 80.7742C111.22 81.1785 111.518 81.5349 111.922 81.5704C115.119 81.8522 119.127 81.997 123.553 81.997Z" fill="#652815"/>
<path d="M81.5208 76.1387C81.7946 76.1387 82.057 75.9851 82.1833 75.7219C82.359 75.3564 82.2047 74.9174 81.8392 74.7417C79.8705 73.7963 78.7955 72.7845 78.7303 71.8155C78.6204 70.1803 80.4161 69.0189 84.0668 68.3646C84.4661 68.2929 84.7317 67.9113 84.6603 67.512C84.5886 67.1127 84.2078 66.8472 83.8077 66.9185C79.2982 67.7271 77.0968 69.4079 77.2648 71.914C77.3706 73.4861 78.6589 74.844 81.2035 76.0662C81.306 76.1152 81.4141 76.1387 81.5208 76.1387Z" fill="#652815"/>
<path d="M172.258 109.324C172.663 109.324 172.992 108.995 172.992 108.589V71.8649C172.992 71.4592 172.663 71.1304 172.258 71.1304C171.852 71.1304 171.523 71.4592 171.523 71.8649V108.589C171.523 108.995 171.852 109.324 172.258 109.324Z" fill="#652815"/>
<path d="M78.0331 109.324C78.4388 109.324 78.7676 108.995 78.7676 108.589V71.8649C78.7676 71.4592 78.4388 71.1304 78.0331 71.1304C77.6274 71.1304 77.2986 71.4592 77.2986 71.8649V108.589C77.2986 108.995 77.6274 109.324 78.0331 109.324Z" fill="#652815"/>
<path d="M165.574 91.8463C165.98 91.8463 166.309 91.5175 166.309 91.1118V76.6682C166.309 76.2624 165.98 75.9337 165.574 75.9337C165.168 75.9337 164.84 76.2624 164.84 76.6682V91.1115C164.84 91.5172 165.168 91.8463 165.574 91.8463Z" fill="#652815"/>
<path d="M165.574 114.116C165.98 114.116 166.309 113.787 166.309 113.381V101.442C166.309 101.036 165.98 100.707 165.574 100.707C165.168 100.707 164.84 101.036 164.84 101.442V113.381C164.84 113.787 165.168 114.116 165.574 114.116Z" fill="#652815"/>
<path d="M148.482 95.3609C148.888 95.3609 149.217 95.0322 149.217 94.6264V80.5245C149.217 80.1188 148.888 79.79 148.482 79.79C148.077 79.79 147.748 80.1188 147.748 80.5245V94.6264C147.748 95.0319 148.077 95.3609 148.482 95.3609Z" fill="#652815"/>
<path d="M148.482 117.914C148.888 117.914 149.217 117.586 149.217 117.18V105.534C149.217 105.128 148.888 104.799 148.482 104.799C148.077 104.799 147.748 105.128 147.748 105.534V117.18C147.748 117.586 148.077 117.914 148.482 117.914Z" fill="#652815"/>
<path d="M84.6815 91.8463C85.0873 91.8463 85.416 91.5175 85.416 91.1118V87.5754C85.416 87.1696 85.0873 86.8409 84.6815 86.8409C84.2758 86.8409 83.947 87.1696 83.947 87.5754V91.1118C83.947 91.5172 84.2758 91.8463 84.6815 91.8463Z" fill="#652815"/>
<path d="M84.6815 114.116C85.0873 114.116 85.416 113.787 85.416 113.381V101.442C85.416 101.036 85.0873 100.707 84.6815 100.707C84.2758 100.707 83.947 101.036 83.947 101.442V113.381C83.947 113.787 84.2758 114.116 84.6815 114.116Z" fill="#652815"/>
<path d="M125.797 96.5579C126.202 96.5579 126.531 96.2291 126.531 95.8234V81.2484C126.531 80.8427 126.202 80.5139 125.797 80.5139C125.391 80.5139 125.062 80.8427 125.062 81.2484V95.8231C125.062 96.2291 125.391 96.5579 125.797 96.5579Z" fill="#652815"/>
<path d="M125.797 118.639C126.202 118.639 126.531 118.311 126.531 117.905V106.258C126.531 105.852 126.202 105.523 125.797 105.523C125.391 105.523 125.062 105.852 125.062 106.258V117.905C125.062 118.311 125.391 118.639 125.797 118.639Z" fill="#652815"/>
<path d="M103.762 95.361C104.167 95.361 104.496 95.0322 104.496 94.6265V91.9006C104.496 91.4949 104.167 91.1661 103.762 91.1661C103.356 91.1661 103.027 91.4949 103.027 91.9006V94.6265C103.027 95.0319 103.356 95.361 103.762 95.361Z" fill="#652815"/>
<path d="M103.762 116.772C104.167 116.772 104.496 116.444 104.496 116.038V104.953C104.496 104.548 104.167 104.219 103.762 104.219C103.356 104.219 103.027 104.548 103.027 104.953V116.038C103.027 116.444 103.356 116.772 103.762 116.772Z" fill="#652815"/>
<path d="M125.145 118.908C137.53 118.908 149.079 118.053 157.666 116.5C167.836 114.661 172.992 112 172.992 108.589C172.992 108.184 172.663 107.855 172.258 107.855C171.852 107.855 171.523 108.184 171.523 108.589C171.523 113.634 151.585 117.439 125.145 117.439C98.705 117.439 78.7665 113.634 78.7665 108.589C78.7665 108.184 78.4378 107.855 78.032 107.855C77.6263 107.855 77.2975 108.184 77.2975 108.589C77.2975 111.999 82.4542 114.661 92.624 116.5C101.211 118.053 112.76 118.908 125.145 118.908Z" fill="#652815"/>
<path d="M125.145 106.498C137.53 106.498 149.079 105.643 157.666 104.09C167.836 102.251 172.992 99.5895 172.992 96.1791C172.992 95.7734 172.663 95.4446 172.258 95.4446C171.852 95.4446 171.523 95.7734 171.523 96.1791C171.523 101.224 151.585 105.029 125.145 105.029C98.705 105.029 78.7665 101.224 78.7665 96.1791C78.7665 95.7734 78.4378 95.4446 78.032 95.4446C77.6263 95.4446 77.2975 95.7734 77.2975 96.1791C77.2975 99.5892 82.4542 102.251 92.624 104.09C101.211 105.642 112.76 106.498 125.145 106.498Z" fill="#652815"/>
<path d="M125.145 96.6381C137.53 96.6381 149.079 95.7831 157.666 94.2304C167.836 92.3912 172.992 89.7297 172.992 86.3194C172.992 85.9136 172.663 85.5849 172.258 85.5849C171.852 85.5849 171.523 85.9136 171.523 86.3194C171.523 91.3647 151.585 95.1691 125.145 95.1691C98.705 95.1691 78.7665 91.3647 78.7665 86.3194C78.7665 85.9136 78.4378 85.5849 78.032 85.5849C77.6263 85.5849 77.2975 85.9136 77.2975 86.3194C77.2975 89.7295 82.4542 92.3912 92.624 94.2304C101.211 95.7831 112.76 96.6381 125.145 96.6381Z" fill="#652815"/>
<path d="M157.218 71.1401C157.3 71.1401 157.384 71.126 157.466 71.0972C157.848 70.9603 158.047 70.5402 157.91 70.1583C157.49 68.9831 156.985 67.8314 156.409 66.7353C156.22 66.3759 155.776 66.2381 155.417 66.4265C155.058 66.6151 154.92 67.059 155.108 67.418C155.652 68.454 156.13 69.5422 156.527 70.653C156.634 70.9527 156.917 71.1401 157.218 71.1401Z" fill="#652815"/>
<path d="M154.219 64.3954C154.313 64.3954 154.409 64.3769 154.501 64.3387C154.876 64.1824 155.052 63.7523 154.896 63.3777C154.417 62.2281 153.854 61.1076 153.224 60.0476C153.017 59.6985 152.566 59.5839 152.217 59.7914C151.869 59.9985 151.754 60.4495 151.961 60.7979C152.556 61.7989 153.088 62.8571 153.541 63.9433C153.658 64.2253 153.931 64.3954 154.219 64.3954Z" fill="#652815"/>
<path d="M158.561 66.4573C158.662 66.4573 158.765 66.4362 158.863 66.3915C159.233 66.2243 159.397 65.7892 159.229 65.4196C158.732 64.3208 158.179 63.2538 157.584 62.2481C157.377 61.8988 156.927 61.7839 156.578 61.9896C156.229 62.1961 156.113 62.6465 156.32 62.9958C156.887 63.9556 157.416 64.9748 157.891 66.0251C158.014 66.2966 158.281 66.4573 158.561 66.4573Z" fill="#652815"/>
<path d="M107.302 27.1415C106.937 27.1415 106.641 26.7798 106.641 26.3335C106.641 25.8873 106.937 25.5256 107.302 25.5256C107.667 25.5256 107.963 25.8873 107.963 26.3335C107.963 26.7798 107.667 27.1415 107.302 27.1415Z" fill="#652815"/>
<path d="M109.433 25.5265C109.068 25.5265 108.772 25.1647 108.772 24.7185C108.772 24.2723 109.068 23.9106 109.433 23.9106C109.798 23.9106 110.094 24.2723 110.094 24.7185C110.094 25.1647 109.798 25.5265 109.433 25.5265Z" fill="#652815"/>
<path d="M105.687 25.0858C105.322 25.0858 105.026 24.724 105.026 24.2778C105.026 23.8316 105.322 23.4699 105.687 23.4699C106.052 23.4699 106.348 23.8316 106.348 24.2778C106.348 24.724 106.052 25.0858 105.687 25.0858Z" fill="#652815"/>
</g>
<defs>
<clipPath id="clip0_200_15663">
<rect width="250" height="140" rx="20" fill="white"/>
</clipPath>
</defs>
</svg>
