<svg width="532" height="130" viewBox="0 0 532 130" fill="none" xmlns="http://www.w3.org/2000/svg">
<g clip-path="url(#clip0_200_16392)">
<rect width="532" height="130" rx="20" fill="#F7E5D7"/>
<path d="M265.998 119.097C239.69 119.097 218.364 114.099 218.364 107.933C218.364 101.767 239.69 96.7687 265.998 96.7687C292.306 96.7687 313.633 101.767 313.633 107.933C313.633 114.099 292.306 119.097 265.998 119.097Z" fill="#EBD7C7"/>
<path d="M297.775 60.274C297.775 60.274 309.536 61.3217 311.61 63.1221C313.685 64.9228 313.238 68.8191 313.238 68.8191L313.441 102.796C313.441 102.796 311.944 106.75 305.168 108.086C298.391 109.423 280.007 112.088 271.936 112.088C263.865 112.088 244.402 111.409 244.402 111.409C244.402 111.409 229.859 109.285 225.887 107.883C221.915 106.481 219.105 105.416 219.105 103.474C219.105 101.532 218.902 65.2924 218.902 65.2924C218.902 65.2924 219.832 62.0571 224.734 61.5623C229.636 61.0676 297.775 60.274 297.775 60.274Z" fill="#D77E56"/>
<path d="M219.032 80.3195C219.032 93.0984 313.258 93.0984 313.258 80.3195V90.1793C313.258 102.958 219.032 102.958 219.032 90.1793V80.3195Z" fill="#DADEE0"/>
<path d="M303.371 67.407C304.532 62.3052 302.11 56.9255 298.449 53.1882C294.787 49.4508 290.022 47.0346 285.372 44.6375C280.721 42.2404 275.779 39.0492 272.268 35.1702C269.035 31.598 267.945 28.0125 264.286 24.8765C261.855 22.792 256.341 20.1103 253.261 19.2336C240.509 15.6037 225.911 22.272 219.907 28.2751C217.693 30.4892 219.245 36.5261 219.458 39.65C219.672 42.774 221.127 47.222 223.793 48.8647C225.179 49.7184 228.79 50.9265 230.062 51.9419C230.78 52.5145 232.182 55.2979 231.986 58.3869C231.79 61.4762 230.474 64.3683 229.178 67.1799C250.199 74.04 272.96 71.8507 294.956 69.5873C297.743 69.3005 300.571 69.0038 303.371 67.407Z" fill="#CD966D"/>
<path d="M261.088 23.4349C263.65 20.5921 263.573 13.6157 255.647 11.2826C247.004 8.73836 243.495 15.8415 243.98 18.4166C245.251 25.1839 258.576 26.2222 261.088 23.4349Z" fill="#FF9D47"/>
<path d="M260.322 71.3566C257.931 71.4068 255.536 71.245 253.174 70.8736C253.254 75.0294 253.263 79.1863 253.202 83.3426C253.191 84.0463 253.136 84.8442 252.593 85.2919C252.194 85.6207 251.639 85.6636 251.122 85.6856C243.052 86.0335 234.902 84.8953 227.297 82.171C225.862 81.6568 224.358 81.0175 223.515 79.7468C222.793 78.6589 222.68 77.2913 222.588 75.9889C222.413 73.4937 222.237 70.9835 222.494 68.495C222.75 66.0066 223.464 63.517 224.92 61.483C236.14 59.6594 247.553 62.2818 258.617 64.8884C258.991 67.0998 259.366 69.3109 260.322 71.3566Z" fill="white"/>
<path d="M258.064 66.0889C258.367 66.9423 257.871 67.9944 257.02 68.3041C256.041 68.6608 254.974 68.0952 253.932 68.1128C253.645 68.1178 253.324 68.1889 253.167 68.4295C253.053 68.6041 253.052 68.8265 253.055 69.0348C253.065 69.754 253.076 70.4732 253.086 71.1927C255.235 71.6116 257.463 71.6166 259.613 71.2074C259.311 70.2687 259.411 69.2539 259.309 68.2729C259.208 67.2914 258.81 66.2264 258.064 66.0889Z" fill="#DADEE0"/>
<path d="M270.901 28.767C271.523 29.0373 272.156 29.3711 272.498 29.9169C272.852 30.4804 272.835 31.1744 272.726 31.8163C272.598 32.5658 272.352 33.3141 271.867 33.9299C271.275 34.6808 270.377 35.1774 269.477 35.6022C268.811 35.9162 268.107 36.2086 267.358 36.235C266.704 36.2582 266.061 36.0761 265.457 35.846C264.327 35.4156 263.245 34.7801 262.59 33.8365C262.172 33.2359 261.948 32.5402 261.799 31.8422C261.636 31.0821 261.558 30.2945 261.72 29.5344C261.883 28.7744 262.309 28.0396 263 27.5901C263.692 27.14 269.14 28.002 270.901 28.767Z" fill="#B07066"/>
<path d="M253.463 32.0517C240.312 34.5975 249.547 47.5333 258.3 41.9991C262.335 39.448 262.01 30.3974 253.463 32.0517Z" fill="#B07066"/>
<path d="M235.55 54.2586C238.088 55.4132 243.347 43.1672 240.485 34.2293C238.177 27.0216 223.378 24.8049 220.046 28.1377C217.417 30.7663 219.408 44.0236 221.909 47.5585C223.576 49.913 231.271 52.3119 235.55 54.2586Z" fill="#B07066"/>
<path opacity="0.9412" d="M257.147 18.1101C258.419 16.4863 258.018 12.8465 253.515 12.0585C248.604 11.1989 247.028 15.0993 247.428 16.4179C248.478 19.8835 255.901 19.7022 257.147 18.1101Z" fill="#FFB55B"/>
<path d="M258.381 35.2837C258.681 34.9009 258.587 34.0427 257.525 33.8568C256.367 33.6541 255.995 34.5736 256.09 34.8845C256.337 35.7015 258.087 35.6589 258.381 35.2837Z" fill="#EDAE84"/>
<path d="M312.885 65.4616C311.926 64.8549 310.858 64.3693 309.726 64.2952C308.594 64.2212 307.39 64.6134 306.684 65.5013C306.292 65.994 306.012 66.6571 305.419 66.8527C304.769 67.1659 304.118 67.4794 303.467 67.7926C303.734 65.5689 303.711 63.3102 303.4 61.092C305.396 61.0365 307.448 60.9889 309.327 61.6667C311.206 62.3441 312.9 63.923 312.885 65.4616Z" fill="#C7543A"/>
<path d="M267.364 37.2198C270.178 37.2198 271.799 35.7323 272.358 35.1019C273.863 33.4046 274.234 31.0745 273.24 29.5612C272.273 28.0887 270.424 27.6988 268.282 27.2472C266.708 26.9155 264.924 26.5392 263.09 25.686C262.722 25.5153 262.285 25.6742 262.114 26.0421C261.943 26.4099 262.102 26.8468 262.47 27.0178C264.457 27.942 266.328 28.3366 267.979 28.6845C269.878 29.0849 271.377 29.401 272.012 30.3676C272.628 31.3048 272.297 32.9566 271.259 34.1273C269.512 36.0969 266.456 36.272 263.083 34.5951C262.72 34.4144 262.279 34.5624 262.099 34.9259C261.918 35.289 262.066 35.73 262.429 35.9107C264.363 36.8717 266.003 37.2198 267.364 37.2198Z" fill="#652815"/>
<path d="M264.707 40.0334C264.873 40.0334 265.04 39.9773 265.178 39.8627C265.489 39.6027 265.531 39.1397 265.271 38.8283C264.703 38.1484 264.024 37.5576 263.254 37.0725C262.91 36.8566 262.457 36.9594 262.241 37.3029C262.025 37.6463 262.128 38.0997 262.471 38.3156C263.111 38.7187 263.674 39.2079 264.143 39.7696C264.288 39.9435 264.497 40.0334 264.707 40.0334Z" fill="#652815"/>
<path d="M262.32 41.8771C262.414 41.8771 262.51 41.8589 262.602 41.8207C262.976 41.6649 263.154 41.2351 262.998 40.8605C262.771 40.3144 262.46 39.8052 262.074 39.3469C261.812 39.0366 261.349 38.9973 261.039 39.259C260.728 39.5208 260.689 39.9841 260.951 40.2941C261.24 40.6372 261.473 41.0177 261.642 41.4246C261.759 41.707 262.032 41.8771 262.32 41.8771Z" fill="#652815"/>
<path d="M255.814 25.611C258.302 25.611 260.572 25.1024 261.632 23.9267C263.177 22.2124 263.721 19.4953 263.017 17.0051C262.519 15.2459 260.927 12.0717 255.853 10.578C250.89 9.11729 247.758 10.6997 246.006 12.2844C243.825 14.2561 242.962 16.9854 243.256 18.5523C243.806 21.4802 246.383 23.7316 250.512 24.8915C252.15 25.3519 254.038 25.611 255.814 25.611ZM260.541 22.943C259.441 24.1638 255.088 24.6515 250.909 23.4775C248.846 22.8978 245.296 21.4517 244.7 18.2808C244.516 17.3036 245.117 15.0681 246.991 13.3738C248.465 12.0409 251.128 10.7182 255.438 11.9871C258.697 12.9463 260.886 14.8701 261.603 17.4044C262.164 19.3896 261.737 21.6157 260.541 22.943Z" fill="#652815"/>
<path d="M303.404 68.3066C303.764 68.3066 304.079 68.041 304.13 67.6738C305.304 59.2551 301.15 52.2774 291.782 46.935C290.147 46.0022 288.563 45.1963 287.031 44.4166C282.335 42.0269 277.898 39.7696 272.276 34.1467C271.989 33.8596 271.524 33.8596 271.237 34.1467C270.95 34.4334 270.95 34.8985 271.237 35.1852C277.025 40.973 281.562 43.2817 286.365 45.7258C287.881 46.4973 289.449 47.2955 291.054 48.211C299.849 53.2264 303.758 59.7063 302.675 67.4708C302.62 67.8727 302.9 68.2438 303.302 68.2996C303.336 68.3046 303.37 68.3066 303.404 68.3066Z" fill="#652815"/>
<path d="M266.579 28.1147C266.735 28.1147 266.894 28.0647 267.028 27.961C267.348 27.7128 267.407 27.2515 267.159 26.9307C266.538 26.1289 264.319 23.4195 261.831 22.2258C261.465 22.0504 261.027 22.2047 260.851 22.5702C260.676 22.9359 260.83 23.3746 261.196 23.55C262.941 24.3876 264.821 26.3099 265.997 27.8294C266.142 28.0169 266.359 28.1147 266.579 28.1147Z" fill="#652815"/>
<path d="M248.753 35.0794C248.931 35.0794 249.109 35.0154 249.25 34.8855C250.494 33.7418 252.459 33.0364 254.933 32.8457C255.338 32.8145 255.64 32.4614 255.609 32.0568C255.578 31.6523 255.224 31.3491 254.82 31.3811C252.014 31.5973 249.744 32.4352 248.255 33.8043C247.957 34.079 247.937 34.5435 248.212 34.842C248.357 34.9995 248.554 35.0794 248.753 35.0794Z" fill="#652815"/>
<path d="M236.629 55.6397C236.861 55.6397 237.089 55.5304 237.232 55.3259C237.464 54.9933 237.383 54.5353 237.05 54.3029C235.701 53.361 233.638 52.5542 231.454 51.6999C228.322 50.4747 224.771 49.0862 222.749 47.0637C221.791 46.1057 220.572 42.2026 219.913 37.9843C219.104 32.7973 219.491 29.7251 220.235 28.9815C225.81 23.4067 234.923 19.6397 244.018 19.1499C244.423 19.1282 244.734 18.7821 244.712 18.3769C244.69 17.9721 244.344 17.6586 243.939 17.683C234.497 18.1912 225.016 22.1228 219.196 27.9429C217.371 29.768 218.075 35.7315 218.462 38.2111C219.074 42.1294 220.315 46.7077 221.71 48.1026C223.95 50.3422 227.652 51.7903 230.919 53.0681C233.019 53.8895 235.003 54.6657 236.209 55.5075C236.337 55.5971 236.484 55.6397 236.629 55.6397Z" fill="#652815"/>
<path d="M231.572 61.4174C231.872 61.4174 232.153 61.2326 232.262 60.9347C233.321 58.0399 233.025 54.7056 231.472 52.0157C231.269 51.6643 230.82 51.5438 230.469 51.7468C230.117 51.9495 229.997 52.3991 230.2 52.7501C231.538 55.0679 231.793 57.9392 230.882 60.4303C230.743 60.8113 230.939 61.2329 231.32 61.3722C231.403 61.4027 231.488 61.4174 231.572 61.4174Z" fill="#652815"/>
<path d="M235.264 49.5387C235.626 49.5387 235.941 49.2716 235.991 48.9032C236.046 48.5013 235.765 48.1311 235.363 48.0762C232.244 47.6508 226.709 46.1815 225.129 44.0509C224.981 43.8505 224.741 43.7386 224.492 43.7553C224.244 43.7715 224.02 43.9122 223.898 44.1299C223.52 44.8059 222.793 45.363 222.243 45.3982C222.004 45.415 221.829 45.3251 221.672 45.1123C221.43 44.7865 220.969 44.7181 220.644 44.9596C220.318 45.2011 220.25 45.6612 220.491 45.987C220.946 46.5998 221.601 46.9127 222.337 46.864C223.208 46.8081 224.02 46.2734 224.601 45.6391C227.067 47.8961 232.438 49.1594 235.165 49.5316C235.198 49.5363 235.232 49.5387 235.264 49.5387Z" fill="#652815"/>
<path d="M224.725 45.4258C224.86 45.4258 224.997 45.3884 225.119 45.3106C225.461 45.0926 225.562 44.6387 225.344 44.2964C224.659 43.2211 224.472 40.6857 224.8 39.3639C224.898 38.9702 224.657 38.5718 224.264 38.4742C223.871 38.3767 223.472 38.6167 223.374 39.0104C223.007 40.4915 223.107 43.5196 224.105 45.0858C224.245 45.3056 224.482 45.4258 224.725 45.4258Z" fill="#652815"/>
<path d="M221.481 33.964C221.592 33.964 221.704 33.9387 221.81 33.8855C222.172 33.7034 222.319 33.2618 222.136 32.8996C221.521 31.6753 220.636 30.5953 219.579 29.7768C219.259 29.5283 218.797 29.587 218.549 29.9081C218.301 30.229 218.36 30.6902 218.68 30.9385C219.565 31.6236 220.307 32.53 220.824 33.5594C220.953 33.8156 221.212 33.964 221.481 33.964Z" fill="#652815"/>
<path d="M228.505 35.8366C228.641 35.8366 228.779 35.7987 228.902 35.7194C230.142 34.9206 231.826 34.3274 233.774 34.0042C234.174 33.9378 234.445 33.5594 234.379 33.1593C234.312 32.7591 233.934 32.4891 233.534 32.5549C231.39 32.9107 229.513 33.5779 228.106 34.4846C227.765 34.7043 227.667 35.1588 227.887 35.4999C228.027 35.7179 228.264 35.8366 228.505 35.8366Z" fill="#652815"/>
<path d="M247.838 86.6404C249.385 86.6404 250.731 86.5297 251.728 86.2744C253.369 85.8536 253.714 85.0592 253.714 84.4672C253.714 82.7858 253.702 81.0751 253.69 79.4277C253.659 74.908 253.628 70.6391 253.88 69.1972C253.941 68.8481 254.095 68.6395 254.351 68.5585C254.679 68.455 255.12 68.5696 255.376 68.8264C255.663 69.1134 256.128 69.1131 256.415 68.8267C256.702 68.5397 256.702 68.0746 256.415 67.7878C255.769 67.1415 254.761 66.8888 253.908 67.1576C253.125 67.4053 252.588 68.0567 252.432 68.9445C252.158 70.5172 252.188 74.6512 252.221 79.438C252.233 81.0821 252.245 82.7893 252.245 84.4672C252.247 84.4508 251.813 85.1286 248.147 85.1647C239.694 85.2575 225.391 82.0337 223.747 79.0355C223.167 77.9781 222.659 69.7339 224.257 64.8587C224.723 63.4358 225.315 62.523 225.969 62.2186C227.863 61.3369 234.853 61.3931 242.966 62.3567C251.865 63.4126 257.304 64.9938 257.903 65.9454C258.308 66.5883 258.626 68.9533 258.934 71.2408L258.987 71.6333C259.041 72.0352 259.41 72.3187 259.813 72.2632C260.215 72.2089 260.497 71.8393 260.443 71.4374L260.39 71.0451C259.975 67.9641 259.693 66.0315 259.146 65.1625C257.652 62.791 246.517 61.2991 243.139 60.898C236.591 60.1209 228.003 59.6517 225.349 60.8872C224.302 61.3743 223.465 62.5568 222.861 64.4015C221.253 69.3065 221.573 78.1262 222.459 79.7424C224.086 82.7097 232.422 84.6291 235.931 85.3169C239.759 86.0663 244.318 86.6404 247.838 86.6404Z" fill="#652815"/>
<path d="M264.324 72.3533C270.473 72.3533 277.376 72.0939 283.752 71.5901C291.148 71.0057 303.952 69.5984 306.601 66.7371C307.196 66.0952 307.242 65.4756 307.177 65.0687C307.112 64.6685 306.737 64.3947 306.334 64.4611C305.934 64.526 305.662 64.903 305.726 65.3034C305.734 65.349 305.756 65.4879 305.524 65.7391C301.826 69.7327 268.557 71.7972 253.048 70.4995C252.644 70.4654 252.288 70.7657 252.254 71.1702C252.221 71.5745 252.521 71.9294 252.925 71.9632C256.055 72.225 260.004 72.3533 264.324 72.3533Z" fill="#652815"/>
<path d="M264.553 75.997C282.193 75.997 306.469 73.6936 312.465 68.5619C313.414 67.7486 313.928 66.8579 313.991 65.9139C314.055 64.9655 313.763 64.115 313.121 63.3861C311.658 61.722 308.415 60.7584 303.208 60.4408C302.801 60.4193 302.455 60.7243 302.43 61.1291C302.405 61.534 302.713 61.8821 303.118 61.9068C309.01 62.2664 311.21 63.4375 312.018 64.3565C312.397 64.7869 312.563 65.2643 312.526 65.8155C312.49 66.3508 312.148 66.8993 311.509 67.446C308.449 70.0649 298.976 72.2828 285.517 73.5306C274.147 74.5847 261.1 74.8165 253.051 74.1073C252.648 74.0723 252.291 74.3702 252.255 74.7742C252.22 75.1785 252.518 75.5348 252.922 75.5704C256.119 75.8521 260.127 75.997 264.553 75.997Z" fill="#652815"/>
<path d="M222.521 70.1388C222.795 70.1388 223.057 69.9851 223.183 69.7219C223.359 69.3564 223.205 68.9175 222.839 68.7418C220.871 67.7963 219.796 66.7845 219.73 65.8156C219.62 64.1803 221.416 63.0189 225.067 62.3646C225.466 62.293 225.732 61.9113 225.66 61.512C225.589 61.1128 225.208 60.8472 224.808 60.9186C220.298 61.7271 218.097 63.4079 218.265 65.914C218.371 67.4861 219.659 68.844 222.203 70.0662C222.306 70.1153 222.414 70.1388 222.521 70.1388Z" fill="#652815"/>
<path d="M313.258 103.324C313.663 103.324 313.992 102.995 313.992 102.589V65.8649C313.992 65.4591 313.663 65.1304 313.258 65.1304C312.852 65.1304 312.523 65.4591 312.523 65.8649V102.589C312.523 102.995 312.852 103.324 313.258 103.324Z" fill="#652815"/>
<path d="M219.033 103.324C219.439 103.324 219.768 102.995 219.768 102.589V65.8649C219.768 65.4591 219.439 65.1304 219.033 65.1304C218.627 65.1304 218.299 65.4591 218.299 65.8649V102.589C218.299 102.995 218.627 103.324 219.033 103.324Z" fill="#652815"/>
<path d="M306.574 85.8463C306.98 85.8463 307.309 85.5175 307.309 85.1118V70.6682C307.309 70.2625 306.98 69.9337 306.574 69.9337C306.168 69.9337 305.84 70.2625 305.84 70.6682V85.1115C305.84 85.5172 306.168 85.8463 306.574 85.8463Z" fill="#652815"/>
<path d="M306.574 108.116C306.98 108.116 307.309 107.787 307.309 107.381V95.4416C307.309 95.0359 306.98 94.7072 306.574 94.7072C306.168 94.7072 305.84 95.0359 305.84 95.4416V107.381C305.84 107.787 306.168 108.116 306.574 108.116Z" fill="#652815"/>
<path d="M289.482 89.3609C289.888 89.3609 290.217 89.0322 290.217 88.6264V74.5245C290.217 74.1188 289.888 73.79 289.482 73.79C289.077 73.79 288.748 74.1188 288.748 74.5245V88.6264C288.748 89.0319 289.077 89.3609 289.482 89.3609Z" fill="#652815"/>
<path d="M289.482 111.915C289.888 111.915 290.217 111.586 290.217 111.18V99.5337C290.217 99.128 289.888 98.7992 289.482 98.7992C289.077 98.7992 288.748 99.128 288.748 99.5337V111.18C288.748 111.586 289.077 111.915 289.482 111.915Z" fill="#652815"/>
<path d="M225.682 85.8462C226.087 85.8462 226.416 85.5175 226.416 85.1117V81.5753C226.416 81.1696 226.087 80.8408 225.682 80.8408C225.276 80.8408 224.947 81.1696 224.947 81.5753V85.1117C224.947 85.5172 225.276 85.8462 225.682 85.8462Z" fill="#652815"/>
<path d="M225.682 108.116C226.087 108.116 226.416 107.787 226.416 107.381V95.4416C226.416 95.0359 226.087 94.7072 225.682 94.7072C225.276 94.7072 224.947 95.0359 224.947 95.4416V107.381C224.947 107.787 225.276 108.116 225.682 108.116Z" fill="#652815"/>
<path d="M266.797 90.5578C267.202 90.5578 267.531 90.2291 267.531 89.8233V75.2484C267.531 74.8427 267.202 74.5139 266.797 74.5139C266.391 74.5139 266.062 74.8427 266.062 75.2484V89.823C266.062 90.2291 266.391 90.5578 266.797 90.5578Z" fill="#652815"/>
<path d="M266.797 112.639C267.202 112.639 267.531 112.311 267.531 111.905V100.258C267.531 99.8521 267.202 99.5233 266.797 99.5233C266.391 99.5233 266.062 99.8521 266.062 100.258V111.905C266.062 112.311 266.391 112.639 266.797 112.639Z" fill="#652815"/>
<path d="M244.762 89.361C245.167 89.361 245.496 89.0322 245.496 88.6265V85.9006C245.496 85.4949 245.167 85.1661 244.762 85.1661C244.356 85.1661 244.027 85.4949 244.027 85.9006V88.6265C244.027 89.0319 244.356 89.361 244.762 89.361Z" fill="#652815"/>
<path d="M244.762 110.772C245.167 110.772 245.496 110.444 245.496 110.038V98.9534C245.496 98.5476 245.167 98.2189 244.762 98.2189C244.356 98.2189 244.027 98.5476 244.027 98.9534V110.038C244.027 110.444 244.356 110.772 244.762 110.772Z" fill="#652815"/>
<path d="M266.145 112.908C278.53 112.908 290.079 112.053 298.666 110.5C308.836 108.661 313.992 106 313.992 102.589C313.992 102.184 313.663 101.855 313.258 101.855C312.852 101.855 312.523 102.184 312.523 102.589C312.523 107.634 292.585 111.439 266.145 111.439C239.705 111.439 219.767 107.634 219.767 102.589C219.767 102.184 219.438 101.855 219.032 101.855C218.626 101.855 218.298 102.184 218.298 102.589C218.298 105.999 223.454 108.661 233.624 110.5C242.211 112.053 253.76 112.908 266.145 112.908Z" fill="#652815"/>
<path d="M266.145 100.498C278.53 100.498 290.079 99.6427 298.666 98.0899C308.836 96.2511 313.992 93.5896 313.992 90.1792C313.992 89.7735 313.663 89.4447 313.258 89.4447C312.852 89.4447 312.523 89.7735 312.523 90.1792C312.523 95.2243 292.585 99.0286 266.145 99.0286C239.705 99.0286 219.767 95.2243 219.767 90.1792C219.767 89.7735 219.438 89.4447 219.032 89.4447C218.626 89.4447 218.298 89.7735 218.298 90.1792C218.298 93.5893 223.454 96.2511 233.624 98.0899C242.211 99.6424 253.76 100.498 266.145 100.498Z" fill="#652815"/>
<path d="M266.145 90.638C278.53 90.638 290.079 89.7831 298.666 88.2304C308.836 86.3912 313.992 83.7297 313.992 80.3193C313.992 79.9136 313.663 79.5848 313.258 79.5848C312.852 79.5848 312.523 79.9136 312.523 80.3193C312.523 85.3647 292.585 89.1691 266.145 89.1691C239.705 89.1691 219.767 85.3647 219.767 80.3193C219.767 79.9136 219.438 79.5848 219.032 79.5848C218.626 79.5848 218.298 79.9136 218.298 80.3193C218.298 83.7294 223.454 86.3912 233.624 88.2304C242.211 89.7831 253.76 90.638 266.145 90.638Z" fill="#652815"/>
<path d="M298.218 65.1401C298.3 65.1401 298.384 65.126 298.466 65.0972C298.848 64.9603 299.047 64.5402 298.91 64.1582C298.49 62.9831 297.985 61.8314 297.409 60.7352C297.22 60.3759 296.776 60.2381 296.417 60.4264C296.058 60.6151 295.92 61.059 296.108 61.418C296.652 62.4539 297.13 63.5421 297.527 64.653C297.634 64.9527 297.917 65.1401 298.218 65.1401Z" fill="#652815"/>
<path d="M295.219 58.3954C295.313 58.3954 295.409 58.3769 295.501 58.3387C295.876 58.1824 296.052 57.7523 295.896 57.3777C295.417 56.2281 294.854 55.1075 294.224 54.0475C294.017 53.6985 293.566 53.5839 293.217 53.7913C292.869 53.9985 292.754 54.4494 292.961 54.7979C293.556 55.7988 294.088 56.8571 294.541 57.9433C294.658 58.2253 294.931 58.3954 295.219 58.3954Z" fill="#652815"/>
<path d="M299.561 60.4573C299.662 60.4573 299.765 60.4362 299.863 60.3915C300.233 60.2244 300.397 59.7892 300.229 59.4197C299.732 58.3209 299.179 57.2538 298.584 56.2481C298.377 55.8988 297.927 55.7839 297.578 55.9896C297.229 56.1961 297.113 56.6465 297.32 56.9958C297.887 57.9557 298.416 58.9748 298.891 60.0252C299.014 60.2966 299.281 60.4573 299.561 60.4573Z" fill="#652815"/>
<path d="M248.302 21.1415C247.937 21.1415 247.641 20.7798 247.641 20.3336C247.641 19.8874 247.937 19.5256 248.302 19.5256C248.667 19.5256 248.963 19.8874 248.963 20.3336C248.963 20.7798 248.667 21.1415 248.302 21.1415Z" fill="#652815"/>
<path d="M250.433 19.5265C250.068 19.5265 249.772 19.1648 249.772 18.7186C249.772 18.2724 250.068 17.9106 250.433 17.9106C250.798 17.9106 251.094 18.2724 251.094 18.7186C251.094 19.1648 250.798 19.5265 250.433 19.5265Z" fill="#652815"/>
<path d="M246.687 19.0858C246.322 19.0858 246.026 18.7241 246.026 18.2779C246.026 17.8317 246.322 17.47 246.687 17.47C247.052 17.47 247.348 17.8317 247.348 18.2779C247.348 18.7241 247.052 19.0858 246.687 19.0858Z" fill="#652815"/>
<path fill-rule="evenodd" clip-rule="evenodd" d="M559.624 54.3977C559.308 52.6648 558.615 51.04 558.774 49.1726C558.795 48.9309 558.705 48.6685 558.645 48.4237C557.737 44.6507 556.826 40.8786 555.91 37.1083C555.851 36.8653 555.759 36.6307 555.665 36.4051C554.956 34.6969 554.247 32.9892 553.526 31.2895C553.166 30.4401 552.608 29.6597 552.446 28.7565C552.168 27.2066 551.393 26.0114 550.925 24.6095C550.627 23.7247 550.302 22.8398 549.891 22.0371C549.235 20.7571 548.496 19.5485 547.795 18.3076C547.608 17.9766 547.399 17.6564 547.255 17.295C546.477 15.3374 545.668 13.4067 544.489 11.773C544.355 11.5855 544.246 11.3649 544.141 11.1473C543.778 10.3863 537.243 -1.1573 532.978 -2.2861C529.877 -3.10635 520.469 -2.95881 510.937 -6.32233C501.405 -9.68585 487.873 -5.77385 481.034 -9.61947C480.587 -9.87062 480.141 -10.1307 479.694 -10.3953C478.242 -10.8976 476.792 -11.4039 475.35 -11.9138C474.431 -12.2385 474.072 -13.27 474.218 -14.1598C473.406 -14.8177 472.62 -15.5137 471.871 -16.251C471.154 -16.4084 470.432 -16.5281 469.71 -16.6089C468.392 -16.7569 467.048 -16.6703 465.719 -16.569C465.086 -16.5205 464.462 -16.2061 463.838 -15.9958C463.529 -15.8922 463.235 -15.7231 462.925 -15.629C461.159 -15.0944 459.391 -14.5733 457.624 -14.0463C457.546 -14.0225 457.463 -13.9979 457.395 -13.9468C455.398 -12.4816 453.242 -12.7888 451.111 -13.0332C449.263 -13.2449 447.424 -13.575 445.585 -13.8799C445.146 -13.953 444.685 -14.0445 444.292 -14.2818C443.236 -14.9172 442.113 -15.0042 440.977 -15.0769C440.329 -15.1186 439.685 -15.25 439.037 -15.2675C437.386 -15.3123 435.734 -15.3401 434.083 -15.3253C432.874 -15.3159 431.665 -15.1953 430.457 -15.1854C429.73 -15.1783 429.005 -15.3227 428.277 -15.3406C425.363 -15.4083 422.463 -15.7931 419.625 -16.5223C417.802 -16.9901 416.05 -17.6175 414.149 -17.3475C412.71 -17.1434 411.246 -17.265 409.796 -17.1605C406.933 -16.9569 404.27 -15.7577 401.661 -14.3244C399.988 -13.4059 398.346 -12.3776 396.637 -11.5892C395.692 -11.1537 394.867 -10.6021 394.144 -9.73742C393.609 -9.0997 393.043 -8.50548 392.345 -7.72828C391.28 -6.38691 389.928 -5.11774 388.939 -3.25704C387.89 -1.28422 386.441 0.339684 385.29 2.27259C384.186 4.12925 382.992 5.87335 382.756 8.274C382.49 10.9756 382.188 13.674 382.48 16.4119C382.727 18.731 383.249 21.0585 382.529 23.4085C382.458 23.6395 382.502 23.922 382.474 24.1763C382.277 25.954 382.08 27.7317 381.87 29.5072C381.847 29.7014 381.73 29.8759 381.68 30.0683C381.48 30.8405 381.257 31.6065 381.102 32.3927C380.946 33.1874 380.904 34.0179 380.737 34.8077C380.161 37.5281 380.033 40.2665 380.468 43.0183C380.808 45.1772 381.303 47.3007 381.569 49.4731C381.871 51.9518 382.766 54.099 383.957 55.9194C385.267 57.9227 385.722 60.3565 386.602 62.5675C386.89 63.2891 387.132 64.0416 387.371 64.7924C387.596 65.5018 387.763 66.2405 388.004 66.9405C388.34 67.9186 388.691 68.8927 389.089 69.8305C389.809 71.5248 390.316 73.385 391.433 74.778C391.661 75.0619 391.82 75.4332 392.025 75.7485C393.748 78.4003 395.486 81.0094 397.998 82.5782C399.724 83.6554 401.333 85.0322 403.245 85.5959C403.913 85.7937 404.564 86.0785 405.232 86.2722C405.975 86.4871 406.727 86.7862 407.477 86.7947C408.969 86.8117 410.464 86.6718 411.956 86.5637C412.8 86.5027 413.643 86.3857 414.486 86.279C415.652 86.1332 416.816 85.9202 417.984 85.8318C419.352 85.7287 420.725 85.7592 422.094 85.674C423.897 85.5619 425.706 85.2044 427.498 85.3004C429.548 85.4098 431.647 85.6148 433.61 86.2996C436.168 87.1911 438.625 88.5532 441.098 89.8035C441.788 90.1524 442.353 90.8807 443.021 91.3233C444.267 92.1499 445.474 93.0387 446.675 93.9711C448.031 95.0246 449.544 95.6744 450.808 97.0534C451.779 98.1123 453.146 98.5536 454.247 99.5353C455.486 100.639 456.87 101.493 458.218 102.388C460.144 103.665 462.057 105.011 464.266 105.381C466.063 105.682 467.863 105.969 469.664 106.242C469.94 106.283 470.232 106.245 470.508 106.182C471.584 105.94 472.652 105.634 473.731 105.43C474.283 105.326 474.854 105.395 475.415 105.374C475.778 105.361 476.14 105.331 476.501 105.295C477.145 105.231 477.787 105.116 478.43 105.094C480.246 105.035 482.061 104.98 483.822 104.284C484.014 104.208 484.221 104.141 484.418 104.151C486.35 104.257 488.182 103.584 490.034 103.01C490.769 102.781 491.552 102.685 492.306 102.724C493.109 102.766 493.92 102.956 494.693 103.236C495.538 103.541 496.385 103.921 497.152 104.452C498.101 105.111 498.934 106.036 499.88 106.705C501.416 107.79 502.74 109.468 504.561 109.779C506.359 110.086 508.181 110.173 509.993 110.348C510.108 110.359 510.234 110.307 510.347 110.257C511.798 109.618 513.269 109.044 514.691 108.314C516.86 107.201 519.106 106.256 520.873 104.154C521.07 103.92 521.372 103.83 521.622 103.663C521.977 103.426 522.344 103.209 522.678 102.928C523.554 102.195 524.352 101.251 525.296 100.723C526.835 99.8595 528.436 99.1168 530.064 98.5935C531.823 98.0271 533.638 97.7243 535.319 96.8077C536.576 96.1224 537.85 95.4412 539.012 94.5393C540.146 93.6581 541.139 92.4853 542.209 91.4655C543.927 89.8295 545.061 87.5988 546.175 85.3412C546.303 85.0838 546.468 84.8349 546.659 84.6551C547.304 84.0469 547.714 83.2478 547.991 82.3028C548.1 81.9248 548.291 81.579 548.468 81.2386C549.203 79.8255 549.948 78.4204 550.685 77.0087C550.886 76.6248 551.057 76.214 551.268 75.8404C552.299 74.0178 553.294 72.1598 554.394 70.4063C554.941 69.5345 555.644 68.7985 556.347 68.1128C557.24 67.2419 558.215 66.5113 559.128 65.6705C559.976 64.8879 560.347 63.76 560.399 62.4617C560.509 59.7125 560.105 57.0432 559.624 54.3977Z" fill="#A26833"/>
<path fill-rule="evenodd" clip-rule="evenodd" d="M494.795 83.9804C494.871 82.8773 494.847 81.8446 495.592 80.9525C495.801 80.7016 495.768 80.2101 495.833 79.8269C496.038 78.6154 496.685 77.8669 497.813 77.6185C497.92 77.595 498.037 77.6052 498.137 77.5649C499.073 77.1914 499.973 77.1244 500.832 77.8117C501.817 78.5996 502.472 79.6409 502.599 80.9321C502.711 82.0649 502.849 83.1639 503.156 84.2645C503.465 85.3748 503.366 86.5194 502.763 87.5525C502.629 87.784 502.53 88.0395 502.416 88.2852C501.645 89.9438 500.041 90.4783 498.57 89.5095C498.177 89.2515 497.82 89.1237 497.361 89.1161C496.409 89.1007 495.694 88.5555 495.482 87.6333C495.204 86.4284 495.019 85.1996 494.795 83.9804Z" fill="#5B5A1B"/>
<path fill-rule="evenodd" clip-rule="evenodd" d="M488.261 54.1289C488.485 51.6058 489.838 49.1394 492.651 47.7455C493.068 47.5396 493.556 47.4343 494.016 47.4113C495.387 47.3408 496.244 48.0822 496.428 49.5379C496.526 50.3192 496.677 51.0304 497.027 51.7458C497.257 52.2148 497.306 52.9297 497.159 53.4432C496.732 54.9316 496.194 56.3847 495.646 57.8287C495.267 58.8256 494.523 59.2762 493.516 59.3856C492.281 59.52 491.187 59.43 490.476 58.1337C490.396 57.9876 490.19 57.9084 490.03 57.8287C488.571 57.1067 488.195 56.4849 488.261 54.1289Z" fill="#5B5A1B"/>
<path fill-rule="evenodd" clip-rule="evenodd" d="M486.982 30.1286C486.982 29.2278 486.979 28.3275 486.982 27.4267C486.986 26.2591 487.3 25.2766 488.325 24.6716C488.569 24.5275 488.737 24.2429 488.955 24.0416C489.396 23.6354 489.811 23.1786 490.301 22.8562C491.637 21.9783 493.108 22.6477 493.617 24.2332C494.2 26.0461 494.272 27.9172 494.204 29.7857C494.167 30.823 493.861 31.8536 493.629 32.8745C493.544 33.2454 493.347 33.598 493.155 33.9276C492.538 34.9842 489.854 36.164 488.718 35.8993C487.69 35.6597 486.966 34.6904 486.908 33.4151C486.882 32.8694 486.931 32.3196 486.937 31.7718C486.944 31.2236 486.938 30.6753 486.938 30.1276C486.953 30.1286 486.968 30.1286 486.982 30.1286Z" fill="#5B5A1B"/>
<path fill-rule="evenodd" clip-rule="evenodd" d="M463.917 6.9235C463.917 6.06202 463.91 5.20055 463.92 4.33959C463.928 3.54659 464.208 2.91402 464.833 2.44343C465.082 2.25489 465.247 1.9335 465.445 1.6678C465.715 1.30502 465.934 0.875821 466.26 0.584576C467.079 -0.150179 468.159 0.00923901 468.71 0.985165C468.986 1.47517 469.347 1.7889 469.735 2.14044C470.135 2.50322 470.564 2.97023 470.719 3.48272C471.354 5.59041 471.62 7.73643 470.847 9.89164C470.598 10.5845 470.354 11.2799 470.115 11.9774C469.366 14.1602 466.45 13.9573 465.626 12.496C465.448 12.1792 465.178 11.8798 464.886 11.6871C464.155 11.2038 463.855 10.5114 463.855 9.62441C463.856 8.72411 463.855 7.82431 463.855 6.9235C463.876 6.9235 463.896 6.9235 463.917 6.9235Z" fill="#5B5A1B"/>
<path fill-rule="evenodd" clip-rule="evenodd" d="M483.848 36.273C483.928 39.1865 482.869 41.682 481.284 43.9322C480.327 45.2898 478.963 45.4717 477.586 44.6195C477.397 44.503 477.212 44.3778 477.037 44.2393C475.505 43.0268 475.108 41.7836 475.716 39.8323C476.211 38.2417 476.775 36.6741 477.319 35.1009C477.393 34.8842 477.485 34.6216 477.646 34.5015C478.817 33.6283 479.881 32.4955 481.469 32.5783C482.865 32.6513 483.752 33.5828 483.845 35.0983C483.868 35.4887 483.848 35.8816 483.848 36.273Z" fill="#5B5A1B"/>
<path fill-rule="evenodd" clip-rule="evenodd" d="M461.994 112.15C462.205 111.542 461.999 111.11 461.63 110.653C461.1 109.994 461.087 109.192 461.484 108.453C462.155 107.204 462.774 105.905 463.95 105.068C464.211 104.884 464.377 104.55 464.598 104.296C464.994 103.839 465.36 103.339 465.809 102.95C466.54 102.312 467.553 102.385 468.199 103.078C469.447 104.417 469.933 105.941 469.49 107.878C469.061 109.755 468.446 111.53 467.674 113.262C467.025 114.718 465.722 115.695 464.433 115.623C463.138 115.551 462.348 114.805 462.127 113.42C462.059 112.996 462.037 112.565 461.994 112.15Z" fill="#5B5A1B"/>
<path fill-rule="evenodd" clip-rule="evenodd" d="M471.34 75.2165C471.34 75.6871 471.309 76.1602 471.346 76.6272C471.496 78.4983 470.531 79.6572 469.164 80.5049C468.107 81.1609 466.808 80.9428 465.983 79.8999C465.428 79.1989 465.044 78.3297 464.641 77.5035C463.835 75.8444 463.693 74.0566 463.946 72.2391C464.019 71.7231 464.213 71.1273 464.541 70.7727C465.175 70.088 465.902 69.4754 466.666 68.9665C467.793 68.2169 469.137 68.6246 469.954 69.7733C471.109 71.3955 471.382 73.2503 471.34 75.2165Z" fill="#5B5A1B"/>
<path fill-rule="evenodd" clip-rule="evenodd" d="M515.611 31.0866C515.731 32.5668 515.028 33.7543 514.354 34.9055C513.771 35.9008 511.21 36.5579 510.147 36.235C508.97 35.8778 507.953 33.4697 508.381 32.1959C508.563 31.6532 508.675 31.0804 508.781 30.5128C508.904 29.8501 509.233 29.3815 509.77 29.0422C510.303 28.7065 510.838 28.3662 511.33 27.9682C513.032 26.5937 515.054 27.4062 515.499 29.682C515.589 30.1377 515.576 30.6175 515.611 31.0866Z" fill="#5B5A1B"/>
<path fill-rule="evenodd" clip-rule="evenodd" d="M426.864 60.9858C425.852 60.9797 425.015 60.0983 425 58.9599C424.996 58.5812 425.058 58.1541 425.225 57.8286C426.059 56.1915 426.866 54.5273 427.832 52.9822C428.302 52.2316 429.052 51.6414 429.764 51.1197C430.409 50.6486 431.161 50.7396 431.819 51.2291C432.451 51.6992 432.803 52.6189 432.553 53.4119C432.043 55.0352 431.465 56.6345 430.912 58.2425C430.215 60.2648 428.715 60.9245 426.864 60.9858Z" fill="#5B5A1B"/>
<path fill-rule="evenodd" clip-rule="evenodd" d="M504.213 74.239C504.122 72.6315 504.937 71.4139 505.775 70.2372C506.144 69.7196 506.656 69.3072 507.145 68.9051C507.696 68.4524 508.158 68.574 508.727 68.9577C509.775 69.6649 510.253 70.5156 509.733 71.8477C509.633 72.1021 509.777 72.4608 509.789 72.7725C509.849 74.3723 509.043 75.6415 507.665 76.1561C507.465 76.2307 507.279 76.3569 507.099 76.4785C505.704 77.41 504.392 76.7151 504.217 74.9426C504.193 74.7101 504.213 74.4735 504.213 74.239Z" fill="#5B5A1B"/>
<path fill-rule="evenodd" clip-rule="evenodd" d="M451.715 118.277C451.751 118.784 451.812 119.291 451.818 119.799C451.837 121.365 450.924 122.323 449.418 122.343C447.997 122.363 447.094 121.419 447.09 119.876C447.089 119.45 447.149 119.019 447.217 118.598C447.323 117.948 447.482 117.309 447.579 116.659C447.687 115.938 447.931 115.317 448.451 114.821C449.657 113.669 451.184 114.127 451.56 115.826C451.734 116.614 451.702 117.456 451.763 118.274C451.747 118.274 451.731 118.276 451.715 118.277Z" fill="#5B5A1B"/>
<path fill-rule="evenodd" clip-rule="evenodd" d="M478.629 25.5933C477.091 25.5989 475.939 23.9506 476.575 22.4111C477.1 21.1403 477.837 19.936 478.651 18.8497C479.433 17.8053 480.64 17.7277 481.492 18.4103C482.359 19.1047 482.531 20.2743 481.974 21.4771C481.553 22.384 481.186 23.3201 480.758 24.2224C480.322 25.1447 479.588 25.5867 478.629 25.5933Z" fill="#5B5A1B"/>
<path fill-rule="evenodd" clip-rule="evenodd" d="M502.322 20.6652C502.571 19.6509 502.814 18.6351 503.072 17.6229C503.259 16.8907 503.653 16.4697 504.424 16.6118C504.633 16.6501 504.858 16.5826 505.075 16.5857C506.085 16.5985 506.843 17.1876 507.052 18.2422C507.365 19.8236 507.191 21.3677 506.468 22.7959C505.896 23.922 505.51 24.0436 504.35 23.62C502.766 23.0426 502.401 22.4816 502.322 20.6652Z" fill="#5B5A1B"/>
<path fill-rule="evenodd" clip-rule="evenodd" d="M478.175 66.1383C478.175 66.4909 478.209 66.8475 478.169 67.1944C478.04 68.3017 477.269 69.1427 476.261 69.3159C475.284 69.484 474.338 69.0063 473.883 68.0462C473.688 67.6344 473.518 67.1694 473.482 66.7157C473.387 65.519 473.686 64.3806 474.207 63.3388C474.628 62.4988 475.411 62.4042 476.211 62.4875C477.063 62.5759 477.649 63.1048 477.898 63.9432C478.104 64.6412 478.144 65.3959 478.258 66.126C478.231 66.1301 478.203 66.1342 478.175 66.1383Z" fill="#5B5A1B"/>
<path fill-rule="evenodd" clip-rule="evenodd" d="M460.111 87.5125C459.981 88.4706 459.923 89.4097 459.712 90.3064C459.47 91.3309 458.326 91.8429 457.316 91.4877C456.385 91.1607 455.86 90.0484 456.203 89.0382C456.536 88.0577 456.897 87.0864 457.287 86.1309C457.53 85.5387 457.918 85.039 458.585 85.0533C459.249 85.0676 459.635 85.5734 459.854 86.1743C460.01 86.5999 460.034 87.0823 460.111 87.5125Z" fill="#5B5A1B"/>
<path fill-rule="evenodd" clip-rule="evenodd" d="M435.719 39.1656C434.819 39.1452 434.332 38.8642 434.075 38.2183C433.854 37.6624 433.909 37.0743 434.326 36.7069C435.129 36.0008 435.792 35.0667 436.846 34.7326C437.122 34.6452 437.405 34.5399 437.687 34.5338C438.216 34.5231 438.694 34.6871 438.96 35.2471C439.219 35.7928 439.138 36.3165 438.808 36.7846C438.614 37.0605 438.379 37.3129 438.129 37.5326C437.683 37.925 437.233 38.32 436.746 38.6475C436.361 38.9076 435.919 39.0675 435.719 39.1656Z" fill="#5B5A1B"/>
<path fill-rule="evenodd" clip-rule="evenodd" d="M457.614 65.5451C457.583 65.6759 457.56 65.9569 457.453 66.1955C457.171 66.8266 456.856 67.4418 456.548 68.0595C456.48 68.1954 456.392 68.3226 456.3 68.4417C455.623 69.3139 454.869 69.5116 454.231 68.991C453.566 68.4473 453.477 67.4596 454.012 66.5803C454.229 66.2231 454.446 65.8655 454.644 65.496C454.988 64.8548 455.501 64.4343 456.142 64.2232C456.956 63.955 457.59 64.4849 457.614 65.5451Z" fill="#5B5A1B"/>
<path fill-rule="evenodd" clip-rule="evenodd" d="M358.488 -22.1516C359.285 -21.5727 360.087 -21.0014 360.876 -20.4097C361.115 -20.2306 361.316 -19.9929 361.539 -19.7863C362.336 -19.0465 363.141 -18.3133 363.931 -17.5643C364.105 -17.3987 364.22 -17.1596 364.387 -16.9831C364.739 -16.6105 365.107 -16.2564 365.469 -15.8958C365.77 -15.5958 366.081 -15.3078 366.371 -14.9953C367.058 -14.2556 367.73 -13.499 368.419 -12.7633C368.606 -12.5634 368.806 -12.3497 369.048 -12.249C370.111 -11.8039 370.753 -10.8349 371.504 -9.98968C372.641 -8.70984 373.712 -7.31956 375.021 -6.2761C376.114 -5.40406 377.146 -4.48087 378.024 -3.37708C378.962 -2.19823 379.812 -0.922491 380.621 0.379685C381.74 2.18265 382.786 4.0484 383.863 5.88844C384.545 7.05488 385.232 8.2173 385.901 9.39378C386.103 9.74981 386.286 10.1286 386.426 10.5263C386.933 11.9675 387.378 13.4473 387.925 14.864C388.458 16.2494 389.105 17.5633 389.668 18.9311C390.355 20.6005 391.005 22.2925 391.671 23.9753C391.56 25.2897 392.154 26.1896 392.693 27.1631C393.285 28.2329 393.665 29.4684 394.217 30.5731C394.626 31.3909 395.105 32.1713 395.652 32.8667C396.793 34.3159 398.002 35.6949 399.177 37.109C399.392 37.3674 399.587 37.6479 399.78 37.9277C400.061 38.3345 400.29 38.7991 400.616 39.1528C401.694 40.3236 402.767 41.5057 403.92 42.5839C404.598 43.2183 405.422 43.669 406.185 44.1941C406.603 44.481 407.034 44.7477 407.455 45.0294C407.604 45.1289 407.724 45.3101 407.89 45.3427C408.838 45.5301 409.378 46.3133 410.061 46.9039C410.811 47.552 411.626 48.1215 412.456 48.6502C414.071 49.677 415.681 50.7195 417.361 51.6273C418.936 52.478 420.452 53.4386 422.14 54.0934C423.723 54.7082 425.229 55.5239 426.693 56.3849C427.586 56.9101 428.337 57.6871 429.151 58.3518C429.291 58.4665 429.409 58.6321 429.572 58.692C430.507 59.0348 431.085 59.8639 431.794 60.5196C432.255 60.9467 432.795 61.2712 433.3 61.6414C433.444 61.7482 433.613 61.829 433.727 61.9686C434.737 63.195 436.055 63.9555 437.35 64.771C438.28 65.3558 439.071 66.1736 439.934 66.8711C440.4 67.2468 440.893 67.5854 441.367 67.9487C441.628 68.1484 441.9 68.3393 442.127 68.58C444.331 70.9141 446.489 73.3026 448.741 75.5778C449.608 76.453 450.62 77.1895 451.675 77.7912C453.542 78.8558 455.47 79.8162 457.416 80.7283C458.987 81.4657 460.61 82.1013 462.234 82.7241C465.511 83.9817 468.796 85.2206 472.094 86.4246C473.277 86.8565 474.52 87.14 475.718 87.5378C477.203 88.0308 478.676 88.5549 480.143 89.0975C482.402 89.9332 484.731 90.5493 487.175 90.8177C487.448 90.8474 487.736 90.8142 488.011 90.8411C488.491 90.8881 488.966 90.9565 489.443 91.0203C490.654 91.1814 491.867 91.3348 493.074 91.5097C494.409 91.7027 495.777 91.6418 497.156 91.5613C499.031 91.4518 500.895 91.4518 502.764 91.4072C502.92 91.404 503.083 91.3895 503.226 91.4279C504.482 91.7675 505.83 91.4019 507.134 91.3637C507.601 91.3503 508.069 91.3345 508.538 91.3071C508.85 91.2877 509.164 91.2698 509.477 91.2119C511.427 90.8519 513.376 90.4685 515.325 90.1175C516.77 89.8578 518.22 89.5792 519.66 89.4208C520.463 89.3316 521.254 89.4619 522.046 89.5161C522.288 89.5323 522.509 89.6662 522.751 89.6755C523.892 89.7185 525.038 89.7308 526.18 89.7678C526.425 89.7754 526.661 89.832 526.898 89.8781C527.285 89.9535 527.66 90.0824 528.055 90.1117C529.213 90.1993 530.384 90.2241 531.54 90.3226C532.179 90.3778 532.802 90.5152 533.425 90.6435C535.356 91.0385 537.28 91.4503 538.979 92.4526C539.52 92.7715 540.117 92.9943 540.66 93.311C541.174 93.6093 541.67 93.9448 542.141 94.3116C543.373 95.2709 544.585 96.2583 545.807 97.2306C546.7 97.9407 547.593 98.6504 548.495 99.3468C549.017 99.7509 549.552 100.135 550.09 100.517C550.92 101.106 551.771 101.664 552.587 102.274C553.875 103.236 555.47 103.737 556.446 105.167C556.584 105.369 556.778 105.534 556.978 105.663C557.706 106.131 558.196 106.826 558.564 107.672C558.867 108.369 559.167 108.524 559.501 108.27C560 107.891 559.801 107.455 559.73 107.03C559.571 106.076 559.218 105.289 558.604 104.639C557.702 103.685 556.91 102.605 556.014 101.645C555.519 101.114 554.922 100.697 554.345 100.269C553.767 99.8401 553.163 99.4487 552.559 99.0626C551.753 98.5467 550.914 98.0849 550.129 97.5367C549.296 96.9557 548.552 96.2281 547.692 95.696C546.56 94.9948 545.655 94.0005 544.63 93.1669C542.971 91.8175 541.051 90.8944 539.157 89.934C537.386 89.0363 535.504 88.4304 533.566 87.9477C532.576 87.7008 531.607 87.3933 530.619 87.1396C530.33 87.0657 530.012 87.0775 529.705 87.0598C529.397 87.043 529.059 87.1101 528.782 87.0173C527.116 86.4591 525.303 86.4893 523.566 86.2249C522.001 85.9861 520.412 85.8685 518.853 85.6341C517.883 85.4883 516.948 85.2889 515.927 85.4611C514.161 84.768 512.157 85.517 510.302 85.3141C508.388 85.1041 506.43 85.0892 504.491 84.991C502.648 84.8975 500.791 84.8712 498.967 84.6883C497.782 84.5695 496.559 84.6972 495.391 84.4131C494.315 84.152 493.131 84.2216 492 84.1235C491.452 84.0771 490.903 84.0227 490.376 83.9008C489.254 83.6405 488.148 83.3335 487.034 83.0473C486.888 83.009 486.742 82.9633 486.589 82.9534C485.334 82.8712 484.076 82.8022 482.823 82.7154C482.456 82.6896 482.095 82.6319 481.738 82.5649C480.219 82.2814 478.736 81.8912 477.11 81.9908C476.32 82.039 475.55 81.7402 474.804 81.5084C473.368 81.0637 471.956 80.5552 470.534 80.0712C468.541 79.393 466.559 78.6887 464.553 78.0428C463.375 77.6643 462.244 77.2022 461.201 76.5421C461.027 76.4318 460.802 76.4111 460.603 76.3432C459.865 76.093 459.142 75.8016 458.387 75.5985C457.665 75.4045 456.922 75.2526 456.169 75.1667C454.827 75.0135 453.753 74.3495 452.677 73.6183C449.49 71.4512 447.169 68.2223 444.374 65.5773C443.917 65.1444 443.38 64.8122 442.878 64.4373C442.758 64.3473 442.599 64.3012 442.51 64.183C441.68 63.0772 440.484 62.4815 439.456 61.6532C438.919 61.2193 438.3 60.9059 437.736 60.5085C437.249 60.1651 436.791 59.7775 436.317 59.4141C435.795 59.0137 435.262 58.6283 434.748 58.2184C434.443 57.9741 434.155 57.704 433.875 57.4285C433.162 56.7276 432.566 55.8651 431.582 55.5413C431.5 55.5145 431.431 55.4419 431.37 55.3741C430.792 54.7369 430.167 54.1926 429.383 53.8321C428.741 53.5367 428.223 52.9882 427.602 52.6395C426.745 52.157 425.836 51.7714 424.963 51.3189C423.428 50.5232 421.885 49.741 420.378 48.8921C418.92 48.07 417.494 47.1879 416.073 46.2995C415.214 45.7624 414.437 45.0746 413.541 44.6131C412.12 43.8799 411.178 42.554 410.041 41.4685C409.888 41.3216 409.742 41.1451 409.554 41.0661C408.064 40.4375 407.068 39.1159 406.132 37.8467C405.379 36.8271 404.456 35.9651 403.812 34.8768C402.926 33.3779 401.874 32.0337 401.176 30.3334C400.386 28.4098 399.813 26.4012 399.22 24.3842C398.924 23.3771 398.669 22.377 398.509 21.2947C398.332 20.0855 397.753 19.0169 397.326 17.8998C397.132 17.3899 396.824 16.9422 396.675 16.4119C396.237 14.8532 395.661 13.3884 395.081 11.911C394.496 10.4217 393.647 9.16421 392.972 7.76166C392.522 6.82632 391.761 6.11764 391.294 5.1925C390.49 3.59539 389.179 2.56124 388.115 1.25434C387.361 0.328555 386.709 -0.705239 386.012 -1.69078C385.958 -1.76708 385.915 -1.85514 385.855 -1.9237C383.514 -4.59521 381.385 -7.50988 378.758 -9.85022C377.568 -10.9103 376.191 -11.722 374.939 -12.7045C374.043 -13.408 372.953 -13.826 372.232 -14.79C372.087 -14.9848 371.9 -15.1767 371.685 -15.2585C370.813 -15.5898 370.247 -16.3368 369.59 -16.9625C368.425 -18.0726 367.353 -19.3351 366.05 -20.2293C364.895 -21.0222 364.007 -22.1137 362.938 -22.9823C362.169 -23.605 361.287 -24.0586 360.626 -24.8479C360.211 -25.3432 359.834 -25.8395 359.543 -26.4623C359.06 -27.4962 358.459 -28.4493 357.867 -29.4009C357.143 -30.5663 356.37 -31.6878 355.633 -32.8411C354.929 -33.9428 354.259 -35.0761 353.541 -36.1666C353.2 -36.6844 352.802 -37.1548 352.389 -37.5999C352.271 -37.7278 351.978 -37.7895 351.822 -37.7033C351.665 -37.617 351.503 -37.3074 351.476 -37.099C351.437 -36.793 351.46 -36.4561 351.554 -36.1898C351.931 -35.1184 352.348 -34.0707 352.742 -33.0105C352.844 -32.7374 352.928 -32.4525 353.004 -32.1655C353.331 -30.9357 353.969 -29.938 354.603 -28.9342C354.868 -28.5145 355.095 -28.0583 355.304 -27.5942C355.869 -26.3465 356.679 -25.2953 357.187 -23.991C357.458 -23.2959 358.076 -22.8181 358.536 -22.2424C358.52 -22.2127 358.504 -22.1822 358.488 -22.1516Z" fill="#FEC84B"/>
<path fill-rule="evenodd" clip-rule="evenodd" d="M100.706 69.9639C101.2 71.3097 101.832 72.6048 102.317 73.9527C102.606 74.754 102.878 75.5483 103.288 76.3016C103.609 76.8919 104.08 77.2983 104.617 77.6447C105.026 77.9083 105.472 77.8971 105.915 77.6893C106.633 77.3539 106.951 76.5926 106.721 75.7287C106.428 74.6274 106.136 73.5258 105.832 72.4267C105.768 72.1978 105.654 71.984 105.569 71.761C105.037 70.3737 104.519 68.981 103.971 67.6007C103.61 66.6942 103.547 65.6538 102.792 64.9495C102.517 64.371 102.082 63.9978 101.518 63.7672C100.408 63.314 99.5569 63.8827 99.6383 65.0801C99.6896 65.8421 99.8361 66.6021 100.002 67.3493C100.197 68.2311 100.396 69.1203 100.706 69.9639Z" fill="#A26833"/>
<path fill-rule="evenodd" clip-rule="evenodd" d="M112.84 89.257C112.842 89.6445 112.953 90.0408 113.072 90.4149C113.201 90.8164 113.444 91.1844 113.551 91.5899C113.736 92.2867 114.143 92.8253 114.609 93.3462C114.836 93.6003 115.069 93.879 115.198 94.1879C115.625 95.2142 115.968 96.2764 116.416 97.2923C116.745 98.0392 117.19 98.7354 117.528 99.3525C117.987 99.7893 118.337 100.155 118.723 100.478C119.006 100.717 119.324 100.92 119.648 101.101C120.401 101.522 121.205 101.304 121.568 100.594C121.774 100.192 121.777 99.7662 121.612 99.3552C121.218 98.3712 120.842 97.3792 120.394 96.421C119.889 95.3421 119.33 94.2885 118.765 93.2405C118.015 91.8495 117.44 90.3803 116.298 89.1861C115.59 88.4466 114.9 88.1265 113.946 88.1723C113.239 88.2061 112.835 88.556 112.84 89.257Z" fill="#A26833"/>
<path fill-rule="evenodd" clip-rule="evenodd" d="M83.1789 83.6303C83.1891 82.5683 83.1362 81.5056 83.121 80.4434C83.1157 80.0459 83.1154 79.6446 83.1581 79.2501C83.2736 78.1992 83.1723 77.1642 82.8071 76.1851C82.4663 75.2714 82.2152 74.2812 81.4628 73.5882C81.0046 73.1664 80.7543 72.6728 80.6333 72.084C80.6013 71.9284 80.5726 71.7674 80.5075 71.6235C80.2895 71.1434 79.8754 71.0722 79.4883 71.4395C79.3573 71.5634 79.2493 71.7226 79.0995 71.8138C78.3768 72.25 78.2097 72.5627 78.4029 73.3768C78.5374 73.9449 78.728 74.5004 78.9138 75.0544C79.2289 75.9901 79.5259 76.9182 79.479 77.933C79.417 79.2577 79.4069 80.5856 79.3816 81.9127C79.3628 82.8671 79.6471 83.7445 79.995 84.4767C80.5276 85.1889 81.3114 85.4637 81.9882 85.2542C82.6992 85.0344 83.1707 84.4405 83.1789 83.6303Z" fill="#A26833"/>
<path fill-rule="evenodd" clip-rule="evenodd" d="M113.401 116.084C113.147 116.78 113.184 117.486 113.228 118.209C113.278 119.003 113.683 119.673 113.881 120.411C114.364 122.211 114.912 123.986 115.728 125.669C116.103 126.44 116.806 126.899 117.557 126.837C118.267 126.779 118.901 126.24 119.125 125.438C119.215 125.113 119.266 124.746 119.213 124.418C119.04 123.37 118.868 122.314 118.579 121.295C118.386 120.619 118.019 119.985 117.68 119.359C117.47 118.969 117.149 118.639 116.91 118.262C116.626 117.814 116.378 117.346 116.114 116.887C115.754 116.29 115.218 115.889 114.632 115.569C114.038 115.245 113.634 115.448 113.401 116.084Z" fill="#A26833"/>
<path fill-rule="evenodd" clip-rule="evenodd" d="M102.342 88.8942C102.216 88.2691 102.106 87.6335 101.908 87.0303C101.701 86.4056 101.457 85.7773 101.12 85.2185C100.75 84.6064 100.254 84.0729 99.8119 83.5042C99.819 83.499 99.826 83.4937 99.8325 83.4882C99.473 83.0251 99.1087 82.5658 98.7545 82.0981C98.0694 81.1937 97.2013 80.4971 96.2602 79.8809C95.776 79.5631 95.2784 79.4554 94.7718 79.8089C94.3556 80.1008 94.2479 80.605 94.4636 81.261C94.8052 82.3042 95.2572 83.2943 95.9438 84.1639C96.5055 84.8749 97.081 85.5746 97.6196 86.3035C97.9005 86.683 98.1334 87.1028 98.3524 87.5223C98.6982 88.1825 98.9857 88.8735 99.3544 89.518C99.5334 89.8308 99.8099 90.1101 100.099 90.3301C100.606 90.7153 101.175 90.7821 101.738 90.4213C102.298 90.0619 102.471 89.5267 102.342 88.8942Z" fill="#A26833"/>
<path fill-rule="evenodd" clip-rule="evenodd" d="M108.211 124.914C107.597 124.835 106.989 125.127 106.709 125.74C106.55 126.09 106.467 126.503 106.464 126.89C106.453 127.924 106.464 128.978 106.789 129.964C107.068 130.813 107.406 131.681 107.911 132.406C108.339 133.021 108.737 133.617 109.005 134.319C109.241 134.934 109.575 135.51 109.807 135.982C110.095 136.282 110.254 136.506 110.466 136.656C111.273 137.226 111.815 137.007 111.998 136.039C112.146 135.252 112.27 134.461 111.829 133.708C111.739 133.553 111.727 133.353 111.676 133.173C111.422 132.255 111.22 131.318 110.65 130.52C110.561 130.396 110.499 130.229 110.486 130.077C110.365 128.715 109.575 127.529 109.506 126.144C109.472 125.486 108.843 124.996 108.211 124.914Z" fill="#A26833"/>
<path fill-rule="evenodd" clip-rule="evenodd" d="M89.6793 127.482C89.2279 127.057 88.979 126.625 88.9583 125.978C88.9364 125.314 88.3397 124.808 87.7034 124.718C87.0809 124.629 86.4671 124.948 86.2437 125.586C85.8055 126.841 85.6079 128.125 86.1159 129.412C86.2415 129.728 86.2971 130.012 86.172 130.333C85.9896 130.8 86.0364 131.269 86.167 131.744C86.3447 132.386 86.5558 133.027 86.6414 133.682C86.7389 134.427 87.0365 135.055 87.4623 135.648C87.5605 135.774 87.6465 135.911 87.7572 136.024C88.1576 136.427 88.7292 136.401 88.9534 135.892C89.3702 134.944 89.8528 133.966 89.7007 132.906C89.531 131.724 89.7885 130.631 90.1305 129.54C90.3795 128.747 90.2725 128.042 89.6793 127.482Z" fill="#A26833"/>
<path fill-rule="evenodd" clip-rule="evenodd" d="M128.121 125.432C128.161 125.881 128.275 126.322 128.336 126.77C128.442 127.553 128.541 128.339 128.626 129.126C128.686 129.679 128.665 130.248 128.777 130.789C129.025 131.985 129.322 133.171 129.626 134.354C129.717 134.709 129.863 135.062 130.05 135.377C130.292 135.786 130.666 136.048 131.176 135.987C131.702 135.923 132.097 135.607 132.221 135.121C132.362 134.565 132.47 133.959 132.398 133.399C132.288 132.536 131.994 131.697 131.819 130.84C131.72 130.351 131.581 129.822 131.669 129.351C131.948 127.859 131.647 126.44 131.299 125.017C131.244 124.789 131.107 124.583 131.064 124.489C130.487 123.739 129.724 123.464 129.083 123.696C128.389 123.946 128.043 124.543 128.121 125.432Z" fill="#A26833"/>
<path fill-rule="evenodd" clip-rule="evenodd" d="M89.8743 70.1361C89.863 69.6701 89.7437 69.1972 89.6159 68.7428C89.2587 67.4721 88.7617 66.2415 88.751 64.8869C88.7422 63.7512 88.4683 62.6769 87.5572 61.5128C87.2798 61.2006 86.6987 60.7804 86.014 60.5332C85.1885 60.2352 84.618 60.6696 84.6949 61.5378C84.7248 61.8772 84.8614 62.2066 84.9258 62.5449C85.0385 63.14 85.2266 63.7407 85.2177 64.3364C85.1892 66.1822 85.5956 67.9202 86.3503 69.5868C86.5576 70.0434 86.794 70.4919 87.0605 70.9173C87.4397 71.5225 88.1555 71.7974 88.7858 71.6282C89.4337 71.4525 89.8923 70.885 89.8743 70.1361Z" fill="#A26833"/>
<path fill-rule="evenodd" clip-rule="evenodd" d="M81.8137 108.891C81.9732 108.689 82.0806 108.429 82.1528 108.179C82.4352 107.2 82.5148 106.199 82.4788 105.179C82.4639 104.772 82.5746 104.343 82.7097 103.953C82.96 103.225 83.3317 102.535 83.5407 101.798C83.9012 100.524 83.7749 99.2123 83.6293 97.9202C83.5683 97.3801 83.1569 97.0273 82.5991 96.9442C82.058 96.8634 81.5643 97.0312 81.2818 97.5043C81.1013 97.8077 81.0265 98.1896 80.9667 98.5475C80.7719 99.7192 80.7855 100.913 80.2358 102.037C79.7294 103.075 79.3136 104.18 79.5141 105.407C79.7056 106.585 79.7523 107.796 80.46 108.828C80.8711 109.422 81.3677 109.458 81.8137 108.891Z" fill="#A26833"/>
<path fill-rule="evenodd" clip-rule="evenodd" d="M103.266 102.212C102.793 102.71 102.528 103.296 102.478 103.995C102.352 105.774 102.373 107.54 102.597 109.318C102.744 110.473 103.185 111.444 103.846 112.355C103.951 112.509 104.043 112.673 104.162 112.814C104.605 113.344 105.102 113.364 105.601 112.889C105.985 112.522 106.083 112.075 105.971 111.574C105.767 110.664 105.734 109.751 105.744 108.814C105.765 107.169 105.662 105.524 105.608 103.878C105.598 103.56 105.607 103.237 105.56 102.924C105.476 102.383 105.183 101.986 104.645 101.822C104.111 101.658 103.645 101.812 103.266 102.212Z" fill="#A26833"/>
<path fill-rule="evenodd" clip-rule="evenodd" d="M95.6192 105.119C96.1691 105.854 96.6862 105.918 97.2107 105.478C97.7285 105.043 97.9896 104.432 98.0464 103.803C98.1625 102.518 97.9448 101.243 97.4944 100.047C97.2725 99.4576 97.1563 98.8849 97.1266 98.2774C97.1028 97.8003 97.1153 97.3214 97.0825 96.8454C97.0253 96.0196 96.5475 95.4805 95.8489 95.4161C95.1283 95.3509 94.4849 95.8325 94.3198 96.6462C94.0633 97.9106 94.0899 99.1876 94.3462 100.448C94.5576 101.487 94.8102 102.519 95.0839 103.543C95.2488 104.154 95.4902 104.745 95.6192 105.119Z" fill="#A26833"/>
<path fill-rule="evenodd" clip-rule="evenodd" d="M81.9251 123.497C81.9886 122.968 82.0746 122.441 82.1039 121.911C82.1294 121.438 82.1486 120.951 82.0697 120.488C81.9161 119.59 81.9157 118.719 82.1223 117.821C82.2695 117.185 82.3097 116.509 82.29 115.853C82.2706 115.187 81.8122 114.739 81.2184 114.635C80.6334 114.533 80.0438 114.81 79.7463 115.364C79.6231 115.596 79.5262 115.852 79.4739 116.109C79.3673 116.629 79.3114 117.16 79.2124 117.682C78.8262 119.726 79.0682 121.757 79.3441 123.784C79.4035 124.22 79.6236 124.635 79.7137 124.897C80.0798 125.394 80.3145 125.459 80.7157 125.258C81.4373 124.893 81.8288 124.294 81.9251 123.497Z" fill="#A26833"/>
<path fill-rule="evenodd" clip-rule="evenodd" d="M98.2739 124.689C98.5655 125.182 98.9696 125.172 99.4267 124.832C99.8071 124.548 100.082 124.178 100.143 123.717C100.233 123.033 100.338 122.333 100.285 121.652C100.169 120.167 100.052 118.688 100.211 117.2C100.229 117.044 100.217 116.88 100.194 116.723C100.018 115.525 98.7429 115.005 97.7035 115.692C97.5215 116.007 97.2483 116.302 97.1754 116.64C96.9745 117.574 96.8247 118.509 97.0209 119.485C97.2452 120.602 97.3012 121.753 97.5354 122.868C97.6671 123.502 97.9428 124.13 98.2739 124.689Z" fill="#A26833"/>
<path fill-rule="evenodd" clip-rule="evenodd" d="M76.0217 130.628C76.75 130.057 77.0949 128.604 76.6675 127.788C76.4208 127.319 76.1519 126.855 75.8372 126.43C75.5537 126.048 75.4395 125.647 75.3823 125.184C75.3287 124.751 75.1527 124.333 75.0307 123.91C74.4458 123.331 73.821 123.085 73.1831 123.252C72.5832 123.409 72.0493 123.936 72.0735 124.561C72.1212 125.776 72.1436 127.025 72.9612 128.048C73.521 128.75 74.1227 129.402 74.4682 130.272C74.7216 130.91 75.5176 131.024 76.0217 130.628Z" fill="#A26833"/>
<path fill-rule="evenodd" clip-rule="evenodd" d="M-0.294193 183.697C-0.810638 181.001 -1.34766 178.31 -1.8298 175.608C-1.97527 174.792 -1.98351 173.945 -2.02376 173.112C-2.10244 171.49 -2.21817 169.868 -2.2081 168.244C-2.19667 166.337 -2.06356 164.429 -1.99174 162.522C-1.94965 161.409 -1.946 160.295 -1.88287 159.183C-1.81837 158.066 -1.65689 156.952 -1.62122 155.834C-1.59789 155.104 -1.69394 154.368 -1.78543 153.642C-2.02971 151.712 -2.41121 149.793 -2.53197 147.852C-2.67057 145.63 -2.7186 143.409 -2.99764 141.189C-3.29589 138.812 -3.19754 136.377 -3.2721 133.967C-3.28354 133.596 -3.25335 133.218 -3.30595 132.854C-3.69569 130.136 -3.81279 127.33 -4.57168 124.723C-5.74317 120.693 -6.01169 116.467 -7.21703 112.489C-7.87299 110.321 -8.18039 108.002 -9.15245 105.987C-10.1808 103.855 -10.6519 101.631 -11.161 99.3698C-11.3367 98.5909 -11.8541 97.8662 -12.3284 97.1976C-12.967 96.2964 -13.7149 95.4738 -14.4157 94.6167C-15.788 92.9395 -17.0871 91.1937 -18.5592 89.6085C-19.5527 88.5375 -20.3176 87.3591 -20.968 86.0785C-21.5929 84.8473 -22.1601 83.583 -22.8353 82.3816C-23.4885 81.218 -24.2968 80.1427 -24.9482 78.9787C-25.826 77.4108 -26.7701 75.8544 -27.4101 74.1829C-28.2669 71.9455 -28.83 69.5934 -29.5756 67.3104C-29.9621 66.1262 -30.3491 64.9147 -30.9497 63.837C-32.0494 61.8657 -33.3298 59.9981 -34.494 58.0618C-35.3041 56.7146 -36.0771 55.3433 -36.8026 53.9481C-37.0748 53.4253 -37.2148 52.8172 -37.3324 52.2296C-37.7605 50.0867 -38.1466 47.9341 -38.5619 45.7873C-38.8103 44.5072 -39.0665 43.2401 -38.8684 41.9062C-38.8026 41.4621 -38.9814 40.9897 -39.0276 40.5273C-39.0912 39.8813 -39.217 39.2295 -39.1722 38.5863C-39.0212 36.4424 -39.5967 34.4136 -40.1369 32.4169C-40.4521 31.2481 -41.1927 30.1382 -41.9561 29.1718C-43.8595 26.7636 -45.531 24.1947 -46.6627 21.3611C-47.723 18.7055 -48.5748 15.8958 -47.5117 12.9332C-46.262 9.44971 -43.9931 6.75519 -40.9397 4.68178C-40.7457 4.54988 -40.5207 4.46211 -40.335 4.31919C-37.2079 1.92491 -33.7461 0.152224 -30.12 -1.32261C-29.7339 -1.47897 -29.3972 -1.75764 -29.0226 -1.95188C-28.4412 -2.25308 -27.8712 -2.62863 -27.2523 -2.79937C-25.0072 -3.41761 -22.8687 -4.21138 -21.1908 -5.93946C-21.0938 -6.03922 -20.9772 -6.14234 -20.8496 -6.1903C-18.9324 -6.9059 -17.6457 -8.46803 -16.1014 -9.69155C-15.0406 -10.5338 -13.773 -11.1108 -12.7026 -11.9443C-10.8157 -13.4125 -8.81669 -14.7237 -7.38491 -16.7617C-5.8772 -18.9085 -4.18468 -20.9205 -2.22366 -22.7373C0.506325 -25.2649 3.70929 -26.8731 7.03165 -28.3273C8.53067 -28.9844 10.0956 -29.1532 11.714 -28.864C12.9966 -28.6342 14.3012 -28.5172 15.5985 -28.3652C17.56 -28.134 19.4478 -27.6678 21.2163 -26.7939C21.5493 -26.6304 21.8947 -26.4898 22.2291 -26.3297C25.2376 -24.8893 28.2658 -23.4864 31.2415 -21.9843C32.3087 -21.4452 33.2743 -20.696 34.2432 -19.9857C35.9585 -18.7281 37.5902 -17.3545 39.3509 -16.1626C41.6609 -14.599 43.7469 -12.7822 45.8259 -10.9414C46.7225 -10.1481 47.7384 -9.48819 48.6908 -8.7558C50.8893 -7.0637 53.154 -5.51356 55.8076 -4.54376C57.459 -3.93992 59.0138 -3.0881 60.6089 -2.34229C60.8175 -2.24397 61.0407 -2.14133 61.2022 -1.9845C63.2455 0.00881386 65.5922 1.70141 67.0926 4.22662C68.1552 6.01369 69.3148 7.74752 70.5302 9.43244C71.3115 10.5149 72.3371 11.4186 73.1394 12.4867C75.0666 15.0546 77.3364 17.258 79.9374 19.1304C79.9744 19.1587 80.017 19.1817 80.0481 19.2143C81.7433 21.034 83.5114 22.7923 85.106 24.6945C86.1091 25.8912 87.0112 27.2274 87.6813 28.636C88.8826 31.1613 90.56 33.4946 90.8532 36.4203C90.9644 37.5292 91.2731 38.6127 91.4479 39.7153C91.5421 40.3096 91.6025 40.9211 91.5778 41.5221C91.4913 43.6151 91.3902 45.7077 91.2329 47.7974C91.1427 49.0037 90.8839 50.1994 90.7905 51.4056C90.6176 53.6359 90.425 55.8709 90.4031 58.1026C90.3852 59.9084 90.6103 61.7122 90.7201 63.5175C90.7759 64.4418 90.8303 65.3674 90.8569 66.2936C90.8994 67.7795 90.9214 69.2658 90.9451 70.7522C90.9762 72.6673 90.9099 74.5748 90.2439 76.4199C90.1643 76.6395 90.0687 76.876 90.0751 77.1005C90.1584 79.7604 88.6104 81.9058 87.685 84.2473C87.4288 84.8953 87.1603 85.5399 86.89 86.1835C86.7258 86.572 86.6128 87.0042 86.3639 87.3327C85.2665 88.7831 84.6526 90.4627 83.891 92.0786C83.2941 93.3443 82.4483 94.4978 81.8431 95.7606C81.0128 97.4926 80.3372 99.2935 79.5385 101.04C78.5399 103.225 77.8451 105.507 77.0688 107.768C76.3849 109.757 75.4961 111.681 74.7867 113.664C74.5241 114.399 74.417 115.221 74.412 116.002C74.3946 118.234 74.4957 120.466 74.4921 122.699C74.4907 124.093 74.375 125.49 74.3292 126.886C74.3146 127.35 74.3274 127.82 74.3869 128.277C74.5543 129.566 74.9042 130.841 74.5182 132.159C74.5058 132.202 74.5053 132.255 74.5163 132.298C75.3841 135.794 75.2386 139.504 76.8986 142.852C78.3821 145.844 79.0829 149.14 79.4735 152.486C79.5005 152.715 79.5124 152.956 79.474 153.183C79.0216 155.899 78.9283 158.68 77.9942 161.309C77.4306 162.897 76.6635 164.416 76.1036 166.004C75.4289 167.915 74.5881 169.746 73.5795 171.501C72.854 172.763 72.0233 173.968 71.2571 175.208C70.9369 175.727 70.6359 176.26 70.371 176.806C69.4717 178.663 68.5861 180.528 67.7092 182.395C67.5098 182.818 67.3922 183.278 67.1928 183.701C66.8744 184.377 66.604 185.099 66.159 185.686C65.4943 186.562 65.2377 187.51 65.1627 188.559C65.0067 190.747 64.9747 192.955 64.5991 195.11C64.202 197.387 64.1389 199.757 62.8842 201.867C61.575 204.069 60.0673 206.112 58.2718 207.931C57.7275 208.482 56.9686 208.89 56.2376 209.178C55.2336 209.574 54.4431 210.202 53.7336 210.968C51.0887 213.828 47.7741 215.715 44.3525 217.415C41.3911 218.888 38.286 219.954 35.0121 220.45C34.363 220.546 33.7107 220.665 33.0795 220.848C29.9524 221.755 26.7504 221.753 23.6059 221.468C20.9665 221.229 18.4813 220.417 16.4736 218.401C14.2678 216.185 12.5863 213.608 10.7822 211.106C10.322 210.469 9.92951 209.783 9.48626 209.135C8.41265 207.559 7.58515 205.876 7.15195 203.998C7.03851 203.507 6.90769 202.947 6.59023 202.592C4.88353 200.683 4.17221 198.249 3.05973 196.026C1.99025 193.889 1.36676 191.624 0.953697 189.277C0.622055 187.398 0.241924 185.529 -0.117165 183.657C-0.175716 183.672 -0.235184 183.684 -0.294193 183.697Z" fill="#5B5A1B"/>
<path fill-rule="evenodd" clip-rule="evenodd" d="M53.4211 76.8182C52.4074 76.4998 51.6958 75.8434 50.8769 75.3977C50.2056 75.0328 49.5655 74.5627 48.7941 74.4074C48.3503 74.3176 47.9358 74.1444 47.5934 73.8357C47.1656 73.4497 46.6519 73.2801 46.1211 73.128C45.3607 72.9107 44.5758 72.7566 43.9095 72.273C43.816 72.2047 43.6812 72.1968 43.564 72.1658C42.9302 71.9998 42.3191 71.7894 41.8041 71.3437C41.5392 71.1141 41.2277 70.9422 40.9681 70.707C40.3898 70.1828 39.6846 69.9011 38.9906 69.6335C37.9499 69.2317 36.8704 68.9352 35.8111 68.5825C35.5805 68.506 35.3474 68.411 35.1455 68.2751C33.8855 67.424 32.6045 66.5999 31.3889 65.6818C30.6758 65.1431 30.0615 64.4576 29.4196 63.8186C28.9814 63.3825 28.5159 62.9583 28.164 62.4489C27.5715 61.5905 27.0074 60.7008 26.5317 59.7649C26.2158 59.1438 25.8044 58.6149 25.3058 58.2191C24.6837 57.7256 24.1532 57.1628 23.6549 56.5472C22.8958 55.609 22.1055 54.6965 21.3788 53.7303C20.9548 53.1668 20.6404 52.5104 20.2558 51.911C19.2948 50.4106 18.3136 48.9248 17.3573 47.4215C16.8057 46.5532 16.3395 45.654 16.114 44.5947C15.8075 43.1541 15.4736 41.7055 14.6994 40.4431C14.0527 39.3884 13.4069 38.3321 12.7707 37.2695C12.1665 36.2621 11.5753 35.2457 10.9784 34.2329C10.7651 33.8713 10.5459 33.5134 10.338 33.1482C10.0794 32.694 9.7565 32.2622 9.59176 31.7693C9.34953 31.0442 8.86004 30.5088 8.50031 29.8771C8.20076 29.3506 7.7437 29.0101 7.28318 28.6604C6.96 28.416 6.69068 28.0934 6.39491 27.8087C6.1448 27.5678 5.89092 27.3313 5.64648 27.0997C5.8947 26.4871 6.2308 26.2229 6.72502 26.3819C7.15939 26.5214 7.57329 26.5205 7.98562 26.3868C8.72018 26.1493 9.46041 26.2711 10.1773 26.3331C10.8631 26.3928 11.5224 26.3291 12.186 26.2146C12.9483 26.0824 13.686 25.9191 14.4111 25.5242C15.3571 25.0092 16.4161 24.7549 17.482 24.6213C18.0509 24.55 18.6153 24.4309 19.1845 24.3597C19.6501 24.3016 20.1201 24.2901 20.5869 24.2436C21.6182 24.142 22.5937 23.79 23.5355 23.3492C24.85 22.7347 26.1698 22.126 27.4228 21.3702C28.4211 20.7679 29.4193 20.1668 30.4181 19.5657C30.4723 19.5337 30.5258 19.4859 30.5832 19.4777C31.4343 19.3596 32.0545 18.7292 32.7815 18.3363C33.1655 18.1288 33.5658 17.9556 33.9463 17.7411C34.3977 17.4861 34.8368 17.207 35.2781 16.9322C35.9349 16.5235 36.5756 16.0802 37.249 15.7074C37.6828 15.4675 38.1562 15.2937 38.6271 15.1522C39.534 14.8794 40.4462 14.6187 41.3672 14.4136C42.1667 14.2354 42.9819 14.1463 43.7886 14.0048C44.0085 13.9659 44.2409 13.9177 44.4356 13.8079C45.3528 13.2896 46.3372 13.1722 47.3445 13.0808C48.4111 12.9841 49.4641 12.9406 50.5149 13.1461C51.6681 13.3714 52.8374 13.5278 53.9751 13.8132C54.6968 13.9943 55.374 14.3558 56.0708 14.6362C56.5612 14.8335 57.0523 15.0275 57.5408 15.2294C57.6911 15.2914 57.8498 15.3501 57.9743 15.452C58.4953 15.8792 59.1208 16.065 59.7228 16.3114C59.9653 16.4107 60.1849 16.5684 60.4167 16.6967C60.6297 16.8145 60.8338 16.9616 61.0606 17.0375C62.2005 17.4195 63.343 17.7942 64.4924 18.1469C65.0562 18.3204 65.6365 18.4392 66.2088 18.585C66.4258 18.6404 66.6488 18.6833 66.8536 18.771C66.9456 18.8103 67.0561 18.9456 67.0539 19.0376C67.052 19.1329 66.9314 19.2375 66.847 19.3193C66.8073 19.3573 66.7298 19.3513 66.6696 19.3658C65.712 19.5935 64.7425 19.7736 63.8007 20.0629C62.9565 20.3222 62.1429 20.7019 61.3157 21.0278C60.7931 21.234 60.326 21.516 59.8721 21.8839C59.4985 22.187 58.9763 22.2962 58.5088 22.4529C57.6886 22.7277 56.862 22.9801 56.0345 23.2278C55.7589 23.3106 55.4735 23.3545 55.1916 23.4093C53.6809 23.7049 52.1538 23.9262 50.6655 24.3254C49.9993 24.5042 49.301 24.4699 48.6546 24.7849C48.3708 24.9235 48.0107 24.907 47.6857 24.9155C46.729 24.9413 45.7752 24.9466 44.8243 25.1481C44.3496 25.2487 43.8421 25.1775 43.3775 25.3068C42.591 25.5265 41.8211 25.8283 41.0541 26.1256C40.5731 26.3123 40.1174 26.5759 39.6373 26.7672C38.7241 27.1311 37.9697 27.7912 37.1224 28.2748C36.2892 28.7512 35.4284 29.1734 34.6062 29.6696C34.05 30.0057 33.4735 30.2848 32.8719 30.4784C31.8992 30.7915 30.958 31.2669 29.9097 31.2481C29.6492 31.2435 29.3651 31.2844 29.1254 31.3919C28.1291 31.8412 27.1142 31.6317 26.1052 31.6014C25.7641 31.5912 25.4258 31.5255 24.9272 31.4665C25.1004 31.7056 25.1681 31.8462 25.2743 31.9375C25.7723 32.3661 26.3758 32.6527 26.7711 33.2258C26.8518 33.3425 27.1044 33.331 27.2802 33.3643C27.5385 33.4131 27.8131 33.4092 28.0566 33.4979C29.4719 34.0135 30.9057 34.419 32.412 34.5945C33.3759 34.707 34.3155 35.0124 35.2652 35.2338C36.3535 35.4871 37.4342 35.7801 38.5317 35.9853C39.3491 36.1383 40.1857 36.2076 41.0185 36.2607C41.7087 36.3043 42.299 36.6431 42.9362 36.841C43.8683 37.1303 44.618 37.7489 45.3913 38.3278C46.5791 39.2169 47.748 40.1389 48.98 40.9564C49.867 41.5459 50.863 41.8603 51.9582 41.9147C52.8623 41.9599 53.8035 41.8078 54.6713 42.1875C55.0795 42.3656 55.505 42.527 55.8726 42.7767C56.6894 43.3302 57.4737 43.9362 58.2729 44.5185C58.688 44.8217 59.0657 45.1535 59.4059 45.5619C59.8667 46.1155 60.4366 46.5661 60.9491 47.0725C61.3009 47.4202 61.6578 47.7666 61.9718 48.1509C62.576 48.8902 63.1436 49.6631 63.7411 50.4083C64.1954 50.9744 64.6776 51.5148 65.1381 52.0743C65.599 52.6341 66.0516 53.2021 66.503 53.7709C67.3327 54.8156 68.2074 55.8086 69.297 56.5644C69.4208 56.6505 69.5187 56.7788 69.709 56.9672C68.8916 57.1826 68.2449 57.4165 67.4829 57.0443C66.7292 56.6759 65.9959 56.3024 65.2991 55.8241C64.8839 55.5391 64.3771 55.4005 63.9141 55.1917C63.3773 54.9499 62.8434 54.7021 62.3073 54.46C61.7718 54.2175 61.2325 53.9843 60.6996 53.7359C60.4602 53.6244 60.2422 53.4591 59.9975 53.3641C58.6162 52.8261 57.2791 52.1425 55.8235 51.8447C55.1154 51.6998 54.3632 51.7556 53.6305 51.7493C52.7347 51.7411 51.8348 51.811 50.943 51.7602C49.4396 51.6741 47.9392 51.5322 46.4411 51.3868C46.0194 51.3452 45.6108 51.1944 45.1916 51.1196C44.3949 50.977 43.5949 50.8523 42.7504 50.7131C43.1876 51.8265 43.461 52.9643 44.1291 53.9147C44.28 54.1301 44.3584 54.4128 44.4337 54.6771C44.6214 55.3335 44.7881 55.9976 44.9651 56.6577C44.9978 56.7814 45.0306 56.9065 45.0797 57.0226C45.3242 57.6045 45.579 58.1805 45.8168 58.7657C45.8713 58.8993 45.8751 59.058 45.8965 59.2058C45.9186 59.3539 45.9107 59.5126 45.9567 59.6508C46.2578 60.556 46.5756 61.4543 46.8765 62.3595C47.1637 63.2232 47.514 64.0723 47.6961 64.9636C47.9197 66.0592 48.3176 67.0796 48.6316 68.1362C49.0776 69.6355 49.7558 71.0217 50.496 72.3545C51.2394 73.6928 52.1731 74.9108 53.0245 76.1802C53.0938 76.2841 53.1769 76.3774 53.2447 76.482C53.2979 76.5652 53.3379 76.6582 53.4211 76.8182ZM11.8997 30.4263C11.9388 30.4996 11.9923 30.6365 12.0748 30.7493C12.6302 31.5117 13.1402 32.3044 13.5317 33.1789C13.5745 33.2749 13.6309 33.366 13.6923 33.4501C14.5195 34.5852 15.1911 35.8259 15.8513 37.0749C15.9789 37.316 16.1338 37.5414 16.2847 37.7677C17.0879 38.9718 17.905 40.1653 18.267 41.6333C18.3148 41.8269 18.4638 42.0001 18.5933 42.1578C19.4598 43.2164 20.0687 44.3816 19.9708 45.8628C19.961 46.0033 20.0331 46.1521 20.0829 46.2903C20.2694 46.8089 20.4574 47.3275 20.654 47.8418C21.032 48.8285 21.3633 49.8409 21.8131 50.7877C22.2182 51.6408 22.7395 52.4332 23.242 53.2289C23.5437 53.7062 23.8776 54.1681 24.2487 54.5854C24.8626 55.2761 25.5206 55.9234 26.1559 56.5934C26.9245 57.4043 27.5596 58.3283 28.1788 59.2694C29.0555 60.6012 30.0118 61.8571 31.3792 62.6835C31.7644 62.917 32.1011 63.2406 32.493 63.458C33.15 63.8226 33.8336 64.1346 34.5061 64.4691C34.7606 64.5955 35.0186 64.7149 35.2693 64.8488C35.8961 65.1847 36.4978 65.5835 37.1498 65.8537C38.275 66.3198 39.4921 66.5577 40.4931 67.325C41.4674 67.5546 42.1976 68.279 43.0458 68.7537C43.9959 69.2848 44.7783 70.137 45.6414 70.8399C45.8285 70.9924 46.0379 71.12 46.2515 71.2295C46.9202 71.5726 47.5946 71.9052 48.27 72.2354C48.5544 72.3746 48.8461 72.4983 49.1346 72.6286C49.162 72.591 49.1888 72.5527 49.2162 72.5148C48.9856 72.1212 48.8102 71.6703 48.5116 71.3473C48.0744 70.8752 47.794 70.3233 47.5449 69.7368C47.4872 69.6015 47.4529 69.4326 47.3546 69.3442C47.0138 69.0374 46.8806 68.6109 46.7083 68.2008C46.5615 67.8512 46.3652 67.5249 46.2291 67.1709C45.9882 66.5431 45.8266 65.8857 45.5755 65.2566C45.3528 64.6994 45.3267 64.0505 45.2067 63.4442C45.1783 63.299 45.1295 63.1572 45.0772 63.0199C44.7537 62.1698 44.4079 61.3293 44.1067 60.4699C43.89 59.85 43.7656 59.1913 43.5397 58.576C43.2191 57.7031 42.9003 56.8197 42.476 56.0036C42.0013 55.0904 41.4214 54.239 40.8645 53.3776C40.513 52.8346 40.1744 52.2722 39.6222 51.9119C39.5075 51.8371 39.4395 51.6876 39.3422 51.5801C39.1906 51.4125 39.0489 51.2278 38.8741 51.0919C38.371 50.7013 37.8491 50.3512 37.4446 49.8224C36.7129 48.8635 35.927 47.9516 35.1691 47.0151C34.3583 46.0139 33.5633 44.9988 32.7437 44.0058C32.4007 43.5908 32.0142 43.2164 31.646 42.8255C31.1095 42.2565 30.5936 41.6636 30.0275 41.1282C29.5525 40.6793 29.1859 40.1699 28.9055 39.5649C28.6504 39.014 28.3533 38.4835 28.0428 37.9656C27.7422 37.4628 27.4191 36.9736 27.0751 36.5039C26.4502 35.6501 25.8195 34.8119 24.9306 34.2171C23.6341 33.3495 22.3707 32.4261 21.1073 31.5054C20.6118 31.1442 20.0564 30.9261 19.4813 30.8476C18.2947 30.685 17.0952 30.6107 15.9011 30.5062C15.4598 30.4676 15.0175 30.4273 14.5749 30.4217C13.6835 30.4115 12.7921 30.4237 11.8997 30.4263ZM8.95485 27.7051C8.94414 27.7763 8.93374 27.8479 8.92272 27.9188C9.38513 28.0426 9.84124 28.2029 10.3118 28.2811C10.9327 28.3847 11.5954 28.3236 12.1835 28.515C12.9011 28.7485 13.6208 28.7512 14.3494 28.7888C14.694 28.8066 15.0414 28.8102 15.3813 28.8594C15.8806 28.9316 16.3735 29.0428 16.8703 29.1292C17.5113 29.2407 18.1533 29.3466 18.7962 29.4492C18.953 29.4739 19.1133 29.4795 19.2727 29.4865C19.7166 29.5056 20.1607 29.5165 20.6042 29.5409C20.7856 29.5508 20.9655 29.6125 21.146 29.6066C21.855 29.5828 22.5663 29.5713 23.2725 29.4987C24.1655 29.4063 25.0591 29.2866 25.9455 29.1279C26.7699 28.9801 27.5803 28.7261 28.4053 28.5879C29.8637 28.3434 31.3193 28.1095 32.7308 27.6015C34.5546 26.944 36.4033 26.371 38.0513 25.2345C38.8246 24.7011 39.6556 24.2614 40.473 23.8042C40.8163 23.6122 41.1805 23.407 41.5534 23.3416C42.723 23.1374 43.9017 22.9963 45.0772 22.8349C45.1771 22.8211 45.281 22.8366 45.3821 22.8471C46.4304 22.9567 47.4771 23.086 48.528 23.1698C48.9469 23.2031 49.391 23.21 49.7974 23.1041C51.5865 22.638 53.3703 22.1488 55.1126 21.487C56.5612 20.9371 58.0332 20.4607 59.4853 19.9214C59.9732 19.7403 60.4318 19.4661 60.9865 19.194C60.7607 19.0521 60.6331 18.9489 60.4888 18.8859C59.8771 18.6167 59.2582 18.365 58.6465 18.0961C58.2187 17.9084 57.8051 17.686 57.3733 17.5092C56.7562 17.2562 56.146 16.9385 55.5006 16.8125C54.1232 16.5436 52.7158 16.5173 51.3078 16.5849C50.9408 16.6027 50.5745 16.6274 50.2075 16.6396C49.5372 16.6621 48.8666 16.6812 48.1963 16.6944C47.9733 16.699 47.7502 16.6822 47.5275 16.6763C47.2472 16.6687 46.9672 16.6482 46.6868 16.6594C46.4635 16.669 46.2402 16.7376 46.0165 16.7449C45.305 16.7686 44.5928 16.7789 43.8812 16.7888C43.4745 16.7944 43.0616 16.735 42.6625 16.798C40.9051 17.0771 39.1204 17.2443 37.5026 18.1759C37.1089 18.4032 36.6924 18.5853 36.2946 18.8054C35.7862 19.0868 35.2863 19.3863 34.782 19.6769C34.3303 19.9365 33.8796 20.1972 33.4253 20.4522C32.8634 20.7675 32.3018 21.0836 31.7345 21.389C31.2758 21.6358 30.7974 21.8426 30.3498 22.1089C29.4731 22.6304 28.634 23.2301 27.7372 23.7062C26.7655 24.2221 25.76 24.6767 24.7429 25.0802C23.5727 25.5453 22.4312 26.1381 21.1617 26.2496C21.0436 26.2602 20.9239 26.3166 20.8134 26.3704C20.0785 26.7283 19.3685 27.1218 18.5076 26.9892C18.0348 26.9166 17.5327 27.0483 17.0476 27.0295C16.1326 26.9938 15.2257 27.0041 14.3179 27.206C13.9802 27.2812 13.6256 27.2512 13.2813 27.297C12.759 27.3673 12.2364 27.3112 11.7076 27.4824C11.2108 27.6431 10.669 27.6523 10.1452 27.6942C9.74957 27.7255 9.35174 27.7034 8.95485 27.7051ZM29.6246 36.1044C30.1179 36.7368 30.6679 37.3081 31.0667 37.9818C31.7593 39.1519 32.7689 40.0007 33.614 41.0134C33.9983 41.4736 34.3873 41.9302 34.7411 42.4158C35.355 43.2596 35.9632 44.1015 36.8436 44.6686C37.1363 44.8566 37.4714 45.0331 37.6677 45.3109C38.0551 45.8598 38.5849 46.2006 39.0861 46.5938C39.3258 46.7819 39.5513 47.0006 39.746 47.2397C40.0414 47.6033 40.3612 47.8969 40.822 48.0133C42.0407 48.3205 43.2329 48.7506 44.5209 48.7068C44.8 48.6972 45.0813 48.7968 45.3591 48.8572C45.9942 48.9951 46.6235 49.165 47.2636 49.2738C47.7024 49.349 48.1613 49.3081 48.6001 49.3817C49.6465 49.5572 50.6983 49.6337 51.7614 49.6516C52.6959 49.6674 53.6277 49.7693 54.5601 49.8403C55.2086 49.8894 55.8852 49.8478 56.4985 50.0273C57.8795 50.4321 59.2497 50.8929 60.584 51.4362C61.8795 51.9641 63.1231 52.6252 64.3922 53.2213C64.4918 53.2681 64.6134 53.2661 64.8257 53.3057C64.6981 53.0398 64.6341 52.8356 64.516 52.6776C64.3308 52.4292 64.1179 52.2009 63.9012 51.9825C63.5962 51.6751 63.2916 51.3643 62.9606 51.0899C62.3448 50.5795 61.7098 50.0949 61.0839 49.5981C61.036 49.5598 60.9995 49.5064 60.9547 49.4629C60.3361 48.8648 59.7187 48.265 59.096 47.6706C58.992 47.5716 58.8647 47.499 58.7485 47.4139C57.7355 46.6707 56.7171 45.9357 55.7117 45.1819C54.9308 44.5963 54.0271 44.3644 53.1007 44.2265C52.2367 44.0979 51.3613 44.0454 50.4913 43.9544C49.4985 43.8508 48.6143 43.4332 47.8066 42.8671C46.4421 41.9107 45.1131 40.8986 43.7558 39.9311C43.2906 39.5995 42.8172 39.2254 42.2905 39.0565C41.3871 38.7662 40.5045 38.4027 39.5466 38.2651C38.4655 38.1101 37.4122 37.7749 36.3349 37.5889C35.6999 37.4793 35.0293 37.5948 34.4132 37.3184C34.3297 37.2814 34.2116 37.3345 34.1108 37.3292C33.8698 37.317 33.6109 37.3487 33.3926 37.2676C32.3849 36.8931 31.3133 36.7015 30.3639 36.1542C30.1519 36.0324 29.8936 35.8797 29.6246 36.1044Z" fill="#FDB022"/>
<path fill-rule="evenodd" clip-rule="evenodd" d="M35.9136 127.627C34.207 128.85 32.3758 128.437 30.5673 127.215C30.2483 126.999 29.8401 126.895 29.4586 126.818C28.531 126.628 27.8764 126.101 27.3797 125.272C26.2524 123.394 25.3341 121.392 24.83 119.264C24.2867 116.97 25.0018 115.167 27.1959 114.459C27.682 114.301 28.0349 114.083 28.3838 113.699C29.5245 112.446 30.9668 112.545 32.0096 113.896C33.3247 115.599 34.5825 117.351 35.9569 118.999C37.3053 120.617 37.7168 122.554 37.9053 124.564C38.0644 126.257 37.6702 126.8 35.9136 127.627Z" fill="#FFE699"/>
<path fill-rule="evenodd" clip-rule="evenodd" d="M12.4679 105.298C12.2177 107.176 10.9727 107.909 9.4254 108.341C7.82674 108.787 6.2968 107.886 6.0626 106.201C5.84976 104.67 5.75368 103.122 5.65493 101.578C5.59288 100.592 5.87178 99.7155 6.52165 98.931C7.37703 97.8997 8.03958 96.6961 9.35668 96.144C9.68895 96.0047 9.92115 95.5829 10.17 95.2664C12.0209 92.9192 14.8779 93.2908 15.8608 96.1474C16.4746 97.9321 16.8869 99.8306 16.8409 101.768C16.8276 102.308 16.7121 102.86 16.558 103.379C16.0856 104.961 14.8839 105.715 13.296 105.469C13.0457 105.429 12.7969 105.366 12.4679 105.298Z" fill="#FFE699"/>
<path fill-rule="evenodd" clip-rule="evenodd" d="M69.5029 88.7736C69.1629 88.1339 68.8782 87.4529 68.4729 86.8641C67.4342 85.3568 67.3123 83.6594 67.3808 81.8959C67.4197 80.9146 67.7716 80.1083 68.5322 79.5464C69.1009 79.1263 69.7033 78.7352 70.3347 78.4336C71.0866 78.0749 71.9124 78.0831 72.6031 78.5638C73.3241 79.0651 74.0945 79.6015 74.5934 80.3135C75.9365 82.2299 77.1775 84.2296 77.5551 86.6562C77.6388 87.1947 77.795 87.7194 77.911 88.253C78.2161 89.6585 77.9815 90.9785 77.2908 92.2097C76.1138 94.3079 72.2004 94.1303 71.2725 92.2917C70.682 91.1197 70.048 89.9725 69.4324 88.815C69.4568 88.8005 69.4792 88.7874 69.5029 88.7736Z" fill="#FFE699"/>
<path fill-rule="evenodd" clip-rule="evenodd" d="M59.4044 118.192C60.3741 119.742 60.2794 121.326 59.1821 122.465C58.0481 123.641 56.2748 123.835 54.8004 122.687C53.3587 121.563 52.0753 120.221 50.7364 118.959C50.4781 118.714 50.3153 118.36 50.055 118.116C48.9063 117.038 48.7848 115.621 48.9183 114.183C49.0745 112.497 50.633 111.347 52.2688 111.643C52.8361 111.746 53.3294 111.895 53.9087 111.554C54.3826 111.274 54.8458 111.631 55.1668 112.052C56.0986 113.275 57.049 114.484 57.934 115.742C58.4786 116.516 58.9178 117.373 59.4044 118.192Z" fill="#FFE699"/>
<path fill-rule="evenodd" clip-rule="evenodd" d="M62.8487 108.076C62.7604 107.673 62.4884 106.882 62.4381 106.076C62.3775 105.122 62.4632 104.149 62.5677 103.193C62.7088 101.89 63.2928 101.222 64.2615 101.109C65.3231 100.984 66.0914 101.524 66.596 102.602C67.3347 104.183 67.4894 105.834 67.2806 107.558C67.1342 108.77 66.4897 109.588 65.4977 109.781C64.5361 109.969 63.5815 109.447 62.8487 108.076Z" fill="#FFE699"/>
<path fill-rule="evenodd" clip-rule="evenodd" d="M37.0892 93.1809C37.2629 94.2566 37.5484 95.5972 37.6711 96.9544C37.7454 97.7701 37.239 98.4234 36.6616 98.9408C35.6237 99.8694 34.1963 99.5081 33.9199 98.1092C33.6305 96.6424 33.5511 95.1131 33.5123 93.6067C33.4878 92.6947 34.2228 91.9887 35.0476 91.841C35.791 91.7085 36.5789 92.1551 37.0892 93.1809Z" fill="#FFE699"/>
<path fill-rule="evenodd" clip-rule="evenodd" d="M50.5166 130.937C51.1578 131.877 51.4445 132.859 51.0155 133.99C50.6982 134.826 50.1295 135.34 49.2747 135.44C48.4007 135.543 47.7495 135.096 47.3025 134.353C47.1435 134.089 47.0305 133.786 46.9506 133.486C46.7305 132.672 46.5323 131.851 46.3394 131.03C46.1152 130.076 46.4564 129.238 47.2127 128.84C47.9271 128.465 48.7532 128.601 49.3652 129.301C49.8016 129.798 50.1368 130.387 50.5166 130.937Z" fill="#FFE699"/>
<path fill-rule="evenodd" clip-rule="evenodd" d="M18.9665 122.358C19.6067 123.474 19.5553 124.39 19.1274 125.274C18.4579 126.657 16.6271 126.864 15.6282 125.685C15.2832 125.278 14.9826 124.833 14.667 124.401C13.994 123.48 14.1357 121.963 14.96 121.214C15.7104 120.534 17.2584 120.563 18.0923 121.325C18.4859 121.686 18.7872 122.141 18.9665 122.358Z" fill="#FFE699"/>
<path fill-rule="evenodd" clip-rule="evenodd" d="M142.36 21.666C142.519 21.7212 142.581 21.7237 142.618 21.7585C143.148 22.2576 143.679 22.7556 144.202 23.2644C144.647 23.6979 145.062 24.1725 145.524 24.5794C146.451 25.3953 147.391 26.1948 148.347 26.9676C148.976 27.4771 149.621 27.9744 150.3 28.3953C151.274 28.9992 152.125 29.8876 153.286 30.077C153.409 30.0971 153.526 30.2062 153.635 30.2916C154.596 31.0393 155.675 31.4648 156.771 31.8965C157.804 32.3034 158.764 32.9438 159.754 33.4863C160.352 33.8139 160.947 34.1498 161.542 34.4831C162.093 34.7913 162.647 35.0923 163.193 35.4117C163.86 35.8031 164.511 36.2312 165.186 36.6058C166.418 37.29 167.554 38.1386 168.649 39.0675C169.118 39.4643 169.665 39.7453 170.133 40.1421C171.075 40.9405 171.976 41.8001 172.917 42.6017C174.177 43.6767 175.447 44.7398 176.734 45.7739C178.52 47.208 180.314 48.6321 182.131 50.0156C182.683 50.4354 183.326 50.6995 183.922 51.0483C184.519 51.3977 185.07 51.2948 185.577 50.842C186.098 50.3755 186.374 49.7806 186.232 49.011C186.134 48.4775 186.019 47.9475 185.914 47.4158C185.476 45.1854 184.477 43.273 183.271 41.4736C182.533 40.3725 181.813 39.2552 181.083 38.1472C181.02 38.0507 180.941 37.9653 180.865 37.8799C180.132 37.0478 179.411 36.2007 178.659 35.3898C177.695 34.3503 176.706 33.3389 175.725 32.3174C175.627 32.2151 175.491 32.1494 175.414 32.0318C174.591 30.7637 173.468 29.8732 172.372 28.9514C171.58 28.2859 170.771 27.6479 169.969 26.9985C169.947 26.9813 169.91 26.9791 169.898 26.9572C169.279 25.8765 168.147 25.6031 167.299 24.8794C166.661 24.3354 165.967 23.8604 165.256 23.4442C164.739 23.1417 164.136 23.0323 163.604 22.7567C162.335 22.1005 160.999 21.6552 159.703 21.094C158.12 20.408 156.442 20.1102 154.87 19.4482C154.034 19.0962 153.113 18.9279 152.369 18.2581C152.029 17.9524 151.522 17.8946 151.113 17.6728C149.901 17.0148 148.677 16.3776 147.503 15.6413C146.572 15.0572 145.657 14.4081 144.824 13.6614C143.908 12.8398 143.096 11.8714 142.234 10.9719C141.979 10.7053 141.687 10.4796 141.45 10.195C140.884 9.51512 140.328 8.82406 139.789 8.11579C138.918 6.97013 138.071 5.80116 137.198 4.65729C137.008 4.409 136.752 4.22494 136.527 4.01037C136.291 3.7854 136.056 3.56008 135.82 3.33475C135.848 3.27626 135.876 3.21706 135.903 3.15858C136.874 3.43306 137.835 3.79258 138.82 3.95763C139.828 4.12663 140.713 4.54391 141.591 5.08678C142.361 5.56399 143.188 5.92745 143.988 6.34331C145.158 6.95148 146.312 7.59768 147.499 8.15705C148.288 8.52841 149.122 8.77598 149.937 9.07666C150.013 9.10501 150.113 9.0946 150.169 9.14699C150.904 9.83302 151.831 9.94425 152.696 10.2521C153.223 10.439 153.701 10.7925 154.215 11.0336C155.205 11.4986 156.243 11.8527 157.189 12.4078C158.253 13.0332 159.237 13.8294 160.257 14.5502C160.462 14.6948 160.659 14.8606 160.878 14.9714C162.392 15.7411 163.554 16.9412 164.432 18.5246C164.67 18.9534 165.029 19.3011 165.35 19.6664C166.651 21.1496 167.854 22.7564 169.468 23.8503C169.536 23.8959 169.613 23.9537 169.647 24.028C170.117 25.0574 171.023 25.5249 171.802 26.1524C172.608 26.8004 173.434 27.4158 174.234 28.0717C175.033 28.7272 175.776 29.4746 176.604 30.0774C178.102 31.1678 179.496 32.5 181.433 32.5857C182.555 32.6353 183.666 32.9496 184.789 33.0095C185.553 33.0504 186.328 32.8588 187.098 32.7677C187.468 32.7239 187.837 32.65 188.209 32.6274C189.482 32.5502 190.183 31.6134 189.959 30.1958C189.783 29.082 189.467 28.0508 188.658 27.255C187.466 26.0821 186.344 24.8209 185.164 23.6329C183.889 22.3498 182.524 21.174 181.307 19.8271C180.176 18.576 178.891 17.6423 177.489 16.8634C177.298 16.7568 177.115 16.6244 176.941 16.4845C175.981 15.7141 175.055 14.8864 174.062 14.1752C172.549 13.0906 170.971 12.1193 169.459 11.0329C168.58 10.401 167.773 9.63962 166.935 8.93458C166.828 8.84416 166.738 8.72432 166.624 8.64718C165.474 7.87001 164.343 7.05553 163.163 6.34295C162.482 5.93212 161.734 5.6501 160.996 5.37705C159.62 4.86648 158.467 3.91995 157.29 3.0251C156.766 2.62683 156.216 2.38141 155.615 2.17618C154.131 1.66919 152.575 1.83352 151.079 1.47544C150.026 1.22356 148.965 1.08291 147.884 1.10838C147.654 1.11376 147.424 0.951943 147.189 0.889511C146.435 0.689658 145.681 0.488012 144.923 0.311122C144.323 0.17083 143.712 0.0904586 143.115 -0.0598793C142.023 -0.334363 140.921 -0.137022 139.826 -0.19443C138.45 -0.265832 137.049 -0.0426569 135.705 -0.544621C134.946 -0.827716 134.196 -1.14239 133.442 -1.44306C132.963 -1.6343 132.485 -1.82662 132.007 -2.01822C131.981 -2.02791 131.946 -2.04693 131.929 -2.03544C131.193 -1.5263 130.924 -2.28661 130.503 -2.67914C129.915 -3.22846 129.357 -3.05265 128.979 -2.30311C128.56 -1.47177 128.425 -0.675584 128.723 0.279907C128.957 1.0316 128.989 1.87263 129.051 2.67993C129.133 3.73087 129.186 4.78682 129.191 5.84062C129.194 6.33972 129.059 6.83917 128.986 7.33898C128.955 7.54565 128.929 7.7534 128.893 7.95899C128.837 8.28407 128.81 8.62278 128.709 8.92955C128.24 10.3418 127.75 11.7451 127.267 13.1509C127.228 13.2635 127.195 13.3844 127.134 13.4813C126.171 15.0084 125.973 16.844 125.556 18.5795C125.117 20.4127 124.744 22.2731 124.464 24.1453C124.229 25.7183 124.146 27.3228 124.036 28.9166C123.983 29.6934 124.057 30.4817 124.008 31.2596C123.958 32.0447 124.16 32.7529 124.377 33.4706C124.853 35.0471 125.297 36.6381 125.804 38.2017C126.276 39.6574 126.341 41.1399 126.249 42.6634C126.189 43.653 126.221 44.6494 126.213 45.6426C126.212 45.7631 126.241 45.8883 126.222 46.0046C125.877 48.1405 126.106 50.2837 126.132 52.4264C126.142 53.3213 126.294 54.1516 126.554 54.989C127.266 57.2749 127.939 59.5756 128.624 61.8719C128.692 62.1008 128.794 62.3365 128.793 62.5691C128.791 63.7502 129.283 64.7908 129.503 65.9052C129.856 67.6963 130.216 69.4825 130.196 71.3511C130.18 73.0023 130.248 74.674 130.473 76.3022C130.678 77.7927 131.178 79.2221 132.113 80.3825C132.701 81.112 132.777 81.1091 133.574 80.8149C134.803 80.3613 135.401 79.3592 135.649 77.9911C135.715 77.6248 135.911 77.2857 136.059 76.9402C136.208 76.5903 136.431 76.266 136.516 75.8993C136.816 74.6158 137.149 73.332 137.322 72.0238C137.617 69.7903 138.204 67.5887 138.068 65.301C138.018 64.4373 137.973 63.5683 137.705 62.7201C136.876 60.0958 136.147 57.4299 135.288 54.8189C134.881 53.5814 134.795 52.2919 134.552 51.0303C134.426 50.3691 134.499 49.6486 134.54 48.9586C134.606 47.8488 134.765 46.7444 134.804 45.6339C134.851 44.315 134.814 42.9924 134.81 41.671C134.809 41.4909 134.761 41.3079 134.777 41.131C134.892 39.9423 134.57 38.7984 134.511 37.6355C134.452 36.4852 134.031 35.4788 133.815 34.3981C133.546 33.0529 133.384 31.6805 133.172 30.3203C133.125 30.0246 133.08 29.7243 132.998 29.4401C132.613 28.1165 132.221 26.7958 131.821 25.4782C131.483 24.3616 131.201 23.249 131.128 22.0474C131.041 20.6021 130.921 19.1647 131.008 17.7152C131.018 17.5358 131.015 17.3488 130.984 17.1738C130.852 16.4353 130.942 15.745 131.217 15.0536C131.437 14.5 131.447 13.9234 131.359 13.2894C131.249 12.4989 131.322 11.6661 131.383 10.8578C131.509 9.18394 132.065 7.57687 131.997 5.8661C131.981 5.46855 132.107 5.06382 132.17 4.65084C132.294 4.71434 132.365 4.72439 132.377 4.76027C132.893 6.27908 133.69 7.66011 134.061 9.2557C134.34 10.4541 134.726 11.6216 135.076 12.7985C135.264 13.4307 135.477 14.0532 135.412 14.7389C135.406 14.7988 135.41 14.862 135.422 14.9201C135.675 16.1817 135.929 17.4429 136.185 18.7037C136.215 18.8504 136.298 18.994 136.296 19.1382C136.28 20.4798 136.825 21.6573 137.145 22.9006C137.226 23.2156 137.248 23.5504 137.298 23.8762C137.351 24.2318 137.403 24.587 137.458 24.9422C137.535 25.4434 137.611 25.9447 137.692 26.4452C137.73 26.6824 137.76 26.9242 137.828 27.1517C138.22 28.4732 138.579 29.8097 139.037 31.1021C139.281 31.7906 139.668 32.4268 140.047 33.0429C141.084 34.7289 142.139 36.4012 143.21 38.0607C144.393 39.892 145.625 41.6832 146.787 43.5306C147.388 44.4869 147.888 45.5234 148.426 46.5284C148.716 47.0706 148.942 47.6666 149.286 48.1585C149.703 48.753 149.883 49.4333 150.08 50.124C150.466 51.4792 150.863 52.8301 151.26 54.1813C151.487 54.9528 151.707 55.7073 151.768 56.5448C151.824 57.3079 152.177 58.0406 152.371 58.7959C152.474 59.197 152.517 59.6175 152.588 60.0291C152.797 61.2436 153.068 62.4327 153.669 63.4951C153.797 63.7208 153.883 63.9813 153.962 64.236C154.19 64.9798 154.386 65.7373 154.633 66.4732C154.762 66.8614 154.978 67.212 155.139 67.5876C155.29 67.9396 155.436 68.2959 155.557 68.6619C155.861 69.5897 155.968 70.6138 156.622 71.3712C156.692 71.4519 156.72 71.5865 156.749 71.7016C157.249 73.6718 158.258 75.3604 159.17 77.0912C159.53 77.7737 160.158 78.2702 160.602 78.9064C160.932 79.3789 161.347 79.6663 161.791 79.958C162.224 80.2422 162.627 80.2343 162.991 79.9075C163.601 79.3592 164.181 78.7464 164.362 77.8526C164.69 76.2337 165.048 74.6101 164.981 72.9327C164.947 72.0637 164.852 71.19 164.699 70.3378C164.556 69.5434 164.35 68.7756 164.261 67.9547C164.121 66.6472 163.769 65.3691 163.515 64.076C163.453 63.7556 163.423 63.4273 163.38 63.1022C163.337 62.775 163.306 62.4456 163.252 62.1209C163.217 61.9142 163.093 61.7083 163.107 61.5117C163.187 60.4392 162.783 59.4977 162.498 58.5261C161.538 55.2473 160.516 51.9908 159.615 48.692C159.116 46.8689 158.318 45.2698 157.38 43.7054C155.818 41.1012 153.825 38.9455 151.872 36.7432C151.739 36.5936 151.584 36.4644 151.467 36.3004C150.544 35.0087 149.603 33.7314 148.717 32.4074C147.929 31.2288 147.208 29.9927 146.449 28.7882C146.279 28.518 146.069 28.2798 145.891 28.015C145.148 26.9102 144.319 25.8607 143.697 24.6749C143.211 23.7449 142.481 22.9178 142.36 21.666Z" fill="#652815"/>
</g>
<defs>
<clipPath id="clip0_200_16392">
<rect width="532" height="130" rx="20" fill="white"/>
</clipPath>
</defs>
</svg>
