<svg width="532" height="130" viewBox="0 0 532 130" fill="none" xmlns="http://www.w3.org/2000/svg">
<g clip-path="url(#clip0_200_16829)">
<rect width="532" height="130" rx="20" fill="#F7E5D7"/>
<path d="M285.049 92.4449C288.038 93.1149 290.755 93.8674 293.149 94.69C295.542 95.5126 297.613 96.4046 299.309 97.3528C301.006 98.301 302.329 99.3058 303.228 100.353C304.127 101.4 304.601 102.491 304.601 103.61C304.601 105.627 303.062 107.548 300.277 109.295C297.493 111.042 293.464 112.616 288.485 113.937C283.506 115.259 277.578 116.328 270.994 117.067C264.411 117.806 257.173 118.215 249.576 118.215C241.979 118.215 234.741 117.806 228.158 117.067C221.575 116.328 215.646 115.259 210.667 113.937C205.688 112.616 201.659 111.042 198.875 109.295C196.091 107.548 194.551 105.627 194.551 103.61C194.551 102.298 195.203 101.027 196.425 99.8168C197.648 98.6069 199.441 97.4593 201.723 96.3952C204.005 95.3311 206.777 94.3505 209.957 93.4748C213.137 92.5995 216.725 91.829 220.64 91.1855L236.742 91.5002L252.844 91.8149L268.946 92.1296L285.049 92.4449Z" fill="#449AE5"/>
<path d="M276.908 93.0992C279.135 93.5741 281.158 94.1077 282.941 94.6906C284.723 95.2736 286.265 95.9058 287.529 96.5779C288.793 97.2501 289.778 97.9621 290.448 98.7046C291.117 99.4471 291.471 100.22 291.471 101.013C291.471 102.443 290.324 103.804 288.25 105.043C286.176 106.282 283.176 107.397 279.468 108.334C275.76 109.27 271.344 110.029 266.442 110.552C261.539 111.076 256.148 111.366 250.49 111.366C244.832 111.366 239.442 111.076 234.539 110.552C229.636 110.029 225.221 109.271 221.513 108.334C217.805 107.397 214.804 106.282 212.73 105.043C210.657 103.805 209.51 102.443 209.51 101.013C209.51 100.083 209.995 99.182 210.906 98.3246C211.816 97.4671 213.151 96.6536 214.851 95.8992C216.551 95.1448 218.616 94.4497 220.983 93.8294C223.352 93.2088 226.024 92.6629 228.939 92.2065L240.931 92.4295L252.923 92.6529L264.916 92.8762L276.908 93.0992Z" fill="#3277D1"/>
<path d="M277.484 112.745C277.451 112.944 277.528 113.098 277.683 113.215C277.838 113.333 278.07 113.413 278.348 113.463C278.625 113.512 278.947 113.532 279.281 113.527C279.615 113.523 279.961 113.495 280.286 113.451C281.4 113.298 282.709 113.055 284.034 112.759C285.358 112.463 286.697 112.115 287.87 111.749C289.043 111.384 290.05 111.003 290.71 110.642C291.37 110.281 291.684 109.941 291.47 109.658C291.308 109.444 291.069 109.279 290.771 109.162C290.472 109.044 290.114 108.975 289.713 108.951C289.311 108.928 288.867 108.95 288.396 109.017C287.926 109.085 287.429 109.196 286.922 109.352C286.292 109.544 285.395 109.805 284.402 110.1C283.409 110.394 282.321 110.723 281.306 111.051C280.292 111.379 279.353 111.707 278.659 112.001C277.965 112.294 277.517 112.554 277.484 112.745Z" fill="#E5F8FF"/>
<path d="M295.05 108.7C295.314 108.677 295.575 108.632 295.827 108.566C296.08 108.5 296.323 108.413 296.554 108.308C296.785 108.202 297.002 108.079 297.201 107.939C297.401 107.799 297.582 107.642 297.74 107.472C297.895 107.305 297.971 107.129 297.985 106.956C297.999 106.784 297.951 106.616 297.858 106.466C297.765 106.316 297.627 106.185 297.461 106.086C297.295 105.987 297.1 105.92 296.894 105.9C296.509 105.863 296.057 105.891 295.587 105.965C295.117 106.039 294.628 106.157 294.165 106.299C293.703 106.441 293.267 106.605 292.905 106.771C292.543 106.938 292.254 107.105 292.084 107.252C291.784 107.512 291.753 107.739 291.892 107.931C292.031 108.122 292.34 108.279 292.72 108.401C293.1 108.522 293.55 108.609 293.972 108.659C294.393 108.708 294.786 108.722 295.05 108.7Z" fill="#E5F8FF"/>
<path d="M201.52 107.127C201.782 107.173 202.045 107.196 202.306 107.196C202.567 107.197 202.825 107.175 203.074 107.132C203.324 107.089 203.565 107.025 203.794 106.941C204.022 106.856 204.237 106.751 204.433 106.627C204.625 106.505 204.743 106.354 204.8 106.191C204.858 106.028 204.854 105.853 204.802 105.684C204.75 105.516 204.65 105.353 204.514 105.215C204.378 105.077 204.207 104.963 204.013 104.891C203.65 104.756 203.206 104.669 202.733 104.62C202.259 104.571 201.756 104.56 201.273 104.579C200.79 104.598 200.327 104.646 199.935 104.714C199.543 104.782 199.221 104.87 199.02 104.969C198.663 105.144 198.576 105.355 198.662 105.576C198.748 105.797 199.007 106.028 199.343 106.242C199.68 106.457 200.094 106.655 200.489 106.811C200.883 106.967 201.259 107.081 201.52 107.127Z" fill="#E5F8FF"/>
<path d="M203.406 103.835C203.519 103.854 203.632 103.863 203.745 103.863C203.857 103.862 203.969 103.852 204.076 103.832C204.184 103.812 204.289 103.782 204.388 103.744C204.486 103.706 204.579 103.659 204.664 103.603C204.747 103.548 204.799 103.481 204.824 103.408C204.849 103.335 204.848 103.258 204.827 103.183C204.805 103.109 204.762 103.037 204.704 102.976C204.646 102.915 204.572 102.865 204.489 102.834C204.333 102.775 204.141 102.738 203.938 102.718C203.734 102.698 203.517 102.695 203.308 102.705C203.1 102.715 202.9 102.738 202.731 102.769C202.561 102.801 202.422 102.841 202.335 102.886C202.181 102.964 202.142 103.058 202.179 103.156C202.215 103.254 202.326 103.355 202.47 103.449C202.615 103.543 202.792 103.63 202.962 103.698C203.132 103.766 203.294 103.816 203.406 103.835Z" fill="#E5F8FF"/>
<path d="M287.052 99.4823C287.4 100.341 286.62 101.265 284.959 102.17C283.298 103.074 280.757 103.958 277.583 104.734C274.41 105.51 270.604 106.18 266.414 106.655C262.224 107.13 257.65 107.411 252.94 107.411C248.23 107.411 243.561 107.098 239.252 106.58C234.943 106.061 230.994 105.335 227.723 104.51C224.453 103.684 221.862 102.758 220.269 101.838C218.676 100.918 218.082 100.003 218.805 99.1999C219.394 98.3918 219.878 97.4737 220.233 96.4994C220.589 95.5248 220.817 94.494 220.894 93.4597C220.972 92.4258 220.899 91.3887 220.654 90.4021C220.409 89.4156 219.991 88.4796 219.379 87.6476C217.904 87.4636 216.517 86.3307 215.29 84.6105C214.063 82.8899 212.995 80.582 212.155 78.0477C211.315 75.5134 210.703 72.7523 210.389 70.1262C210.074 67.4999 210.057 65.0086 210.406 63.0126C210.453 62.7431 210.528 62.4102 210.628 62.0528C210.727 61.6953 210.852 61.3134 210.999 60.9456C211.145 60.5778 211.314 60.2245 211.502 59.9242C211.69 59.624 211.898 59.3765 212.122 59.221C213.983 57.931 215.827 56.8883 217.722 56.0167C219.617 55.1451 221.562 54.4444 223.626 53.8389C225.689 53.2333 227.87 52.7223 230.237 52.2301C232.604 51.738 235.155 51.2647 237.959 50.7339C241.044 51.0325 243.917 51.4588 246.644 52.0841C249.371 52.7091 251.953 53.5333 254.455 54.6272C256.957 55.7212 259.379 57.0852 261.788 58.7901C264.197 60.4952 266.592 62.5412 269.039 64.9998C271.23 67.2009 273.158 69.7339 274.891 72.4762C276.624 75.2185 278.162 78.1696 279.573 81.2071C280.983 84.2445 282.267 87.3681 283.49 90.4549C284.714 93.5414 285.879 96.5918 287.052 99.4823Z" fill="#CD966D"/>
<path d="M262.309 69.498C261.498 69.2449 260.76 68.7006 260.136 67.9813C259.512 67.2621 259.001 66.3679 258.646 65.4147C258.29 64.4614 258.09 63.4488 258.084 62.4931C258.078 61.5373 258.268 60.6381 258.694 59.9116C259.555 59.8962 260.728 59.868 262.022 59.857C263.315 59.846 264.728 59.8519 266.07 59.9044C267.411 59.9572 268.681 60.0564 269.687 60.232C270.694 60.4076 271.436 60.6598 271.724 61.0175C271.929 61.2728 272.07 61.6362 272.139 62.0672C272.207 62.4981 272.205 62.9972 272.122 63.5232C272.04 64.0493 271.878 64.6031 271.629 65.1436C271.38 65.6845 271.044 66.2121 270.614 66.687C270.183 67.1616 269.622 67.6286 268.979 68.0486C268.335 68.4685 267.61 68.8413 266.853 69.128C266.095 69.4145 265.305 69.6149 264.531 69.6896C263.757 69.7644 263 69.7135 262.309 69.498Z" fill="#B07066"/>
<path d="M244.659 66.486C244.097 66.9232 243.628 67.4672 243.257 68.0797C242.886 68.6918 242.614 69.3725 242.446 70.0829C242.277 70.7934 242.213 71.5333 242.258 72.2652C242.304 72.9967 242.459 73.72 242.729 74.3959C243 75.0721 243.373 75.6927 243.824 76.2462C244.275 76.7996 244.804 77.2848 245.387 77.6906C245.97 78.0961 246.606 78.4215 247.272 78.6545C247.937 78.8873 248.632 79.0277 249.331 79.0632C250.031 79.0987 250.729 79.0355 251.41 78.886C252.092 78.7365 252.757 78.5003 253.391 78.1894C254.025 77.8784 254.628 77.4927 255.184 77.0439C255.74 76.5951 256.25 76.0838 256.699 75.5209C257.041 75.0919 257.292 74.6029 257.457 74.0818C257.623 73.5607 257.703 73.007 257.703 72.4489C257.704 71.8908 257.624 71.3286 257.47 70.7896C257.316 70.2506 257.088 69.7352 256.791 69.271C256.494 68.8068 256.141 68.3913 255.745 68.0247C255.349 67.6582 254.91 67.3404 254.442 67.0715C253.974 66.8026 253.477 66.5828 252.965 66.4119C252.453 66.2411 251.925 66.1195 251.396 66.0466C250.867 65.9741 250.335 65.9458 249.797 65.949C249.259 65.9521 248.715 65.987 248.159 66.0407C247.604 66.0944 247.038 66.1666 246.456 66.2455C245.874 66.3227 245.276 66.4075 244.659 66.486Z" fill="#B07066"/>
<path d="M251.904 68.6648C251.925 68.7408 251.962 68.8146 252.011 68.8843C252.06 68.9537 252.122 69.0191 252.192 69.0781C252.263 69.1372 252.343 69.1896 252.428 69.2339C252.514 69.2782 252.606 69.3143 252.701 69.3398C252.917 69.3982 253.119 69.4098 253.296 69.3872C253.472 69.3646 253.624 69.3077 253.741 69.2292C253.858 69.1507 253.941 69.0505 253.978 68.9409C254.016 68.8316 254.009 68.7132 253.947 68.5979C253.917 68.5423 253.878 68.4876 253.833 68.4365C253.787 68.3849 253.736 68.3369 253.678 68.2932C253.621 68.2499 253.558 68.2113 253.491 68.1792C253.424 68.1472 253.354 68.1221 253.281 68.1051C253.088 68.0605 252.9 68.0542 252.729 68.0746C252.557 68.0951 252.4 68.1418 252.271 68.204C252.141 68.2662 252.039 68.3432 251.974 68.4239C251.909 68.5046 251.882 68.5888 251.904 68.6648Z" fill="#EDAE84"/>
<path d="M225.735 89.8151C227.461 90.0418 229.227 88.9407 230.815 87.0342C232.403 85.1277 233.814 82.4162 234.83 79.4218C235.846 76.4273 236.467 73.1505 236.477 70.1136C236.487 67.0768 235.885 64.2796 234.455 62.2452C233.86 61.3988 232.776 60.4138 231.356 59.4904C229.936 58.567 228.179 57.7055 226.238 57.1056C224.297 56.5057 222.172 56.1674 220.015 56.2909C217.857 56.4143 215.669 56.9994 213.6 58.2463C212.13 59.1321 211.223 60.6422 210.739 62.526C210.255 64.4099 210.195 66.6678 210.422 69.0495C210.649 71.4312 211.163 73.9366 211.825 76.3158C212.488 78.695 213.299 80.9479 214.122 82.8242C214.471 83.6214 215.041 84.4135 215.782 85.1641C216.522 85.9148 217.434 86.624 218.467 87.255C219.501 87.8863 220.656 88.4394 221.883 88.8785C223.111 89.3169 224.411 89.6414 225.735 89.8151Z" fill="#B07066"/>
<path d="M249.576 119C242.718 119 235.801 118.64 229.284 117.95C222.766 117.26 216.647 116.239 211.386 114.918C206.125 113.596 201.721 111.973 198.632 110.079C195.543 108.184 193.77 106.018 193.77 103.61C193.77 102.211 194.379 100.862 195.558 99.5806C196.737 98.2992 198.487 97.0862 200.768 95.9605C203.049 94.8349 205.861 93.7968 209.165 92.8653C212.469 91.934 216.265 91.1092 220.514 90.4107C220.62 90.3931 220.725 90.3981 220.824 90.422C220.923 90.4459 221.015 90.4892 221.096 90.5476C221.178 90.6064 221.248 90.6805 221.302 90.7669C221.356 90.8532 221.394 90.9515 221.412 91.0586C221.429 91.1654 221.424 91.271 221.4 91.3702C221.376 91.4695 221.333 91.5621 221.275 91.6438C221.217 91.7254 221.143 91.7958 221.057 91.8501C220.971 91.9045 220.873 91.9428 220.766 91.9604C216.904 92.5955 213.383 93.3577 210.274 94.2145C207.166 95.0714 204.469 96.023 202.256 97.0369C200.042 98.0507 198.312 99.1271 197.134 100.233C195.957 101.34 195.333 102.476 195.333 103.61C195.333 105.279 196.695 106.977 199.246 108.585C201.796 110.193 205.535 111.712 210.287 113.023C215.04 114.333 220.806 115.435 227.413 116.209C234.019 116.983 241.465 117.43 249.577 117.43C257.689 117.43 265.135 116.983 271.741 116.209C278.347 115.435 284.114 114.333 288.866 113.023C293.619 111.712 297.358 110.193 299.908 108.585C302.458 106.977 303.82 105.279 303.82 103.61C303.82 102.647 303.378 101.681 302.529 100.733C301.679 99.7854 300.424 98.8551 298.797 97.9622C297.171 97.0692 295.174 96.2137 292.842 95.4153C290.51 94.6169 287.844 93.8757 284.879 93.2114C284.773 93.1878 284.678 93.1438 284.595 93.0845C284.513 93.0251 284.443 92.9507 284.389 92.8659C284.335 92.7811 284.298 92.6859 284.28 92.5857C284.261 92.4855 284.262 92.3797 284.286 92.2738C284.309 92.168 284.353 92.0719 284.412 91.989C284.471 91.906 284.545 91.836 284.63 91.7823C284.714 91.7286 284.809 91.6909 284.909 91.6724C285.008 91.6538 285.113 91.6548 285.219 91.678C288.47 92.4064 291.355 93.2176 293.855 94.0993C296.355 94.9809 298.469 95.9332 300.177 96.9436C301.885 97.9543 303.186 99.0232 304.061 100.138C304.936 101.253 305.383 102.415 305.383 103.61C305.383 106.018 303.61 108.184 300.521 110.079C297.433 111.973 293.028 113.596 287.767 114.917C282.506 116.239 276.387 117.26 269.869 117.95C263.352 118.64 256.435 119 249.576 119Z" fill="#0F50B2"/>
<path d="M222.014 109.036C221.996 109.036 221.978 109.036 221.96 109.035C221.943 109.033 221.924 109.031 221.907 109.029C221.889 109.026 221.871 109.023 221.853 109.019C221.835 109.016 221.817 109.011 221.799 109.006C221.696 108.976 221.593 108.947 221.489 108.918C221.385 108.889 221.28 108.859 221.175 108.83C221.07 108.801 220.963 108.771 220.857 108.741C220.75 108.712 220.643 108.682 220.534 108.652C219.407 108.341 218.21 108.01 217.023 107.608C215.836 107.207 214.658 106.734 213.568 106.138C212.477 105.543 211.474 104.824 210.637 103.93C209.8 103.037 209.128 101.968 208.7 100.673C208.666 100.57 208.655 100.465 208.663 100.363C208.671 100.261 208.699 100.163 208.743 100.073C208.788 99.9833 208.85 99.902 208.927 99.8347C209.003 99.7675 209.093 99.7141 209.196 99.6799C209.298 99.6457 209.403 99.634 209.504 99.6422C209.605 99.6504 209.703 99.6783 209.793 99.7232C209.882 99.7685 209.963 99.8307 210.03 99.9073C210.097 99.9839 210.15 100.075 210.184 100.178C210.546 101.274 211.127 102.182 211.863 102.946C212.599 103.71 213.49 104.329 214.472 104.85C215.454 105.37 216.528 105.791 217.628 106.158C218.729 106.524 219.857 106.836 220.949 107.138C221.058 107.168 221.167 107.198 221.275 107.228C221.383 107.258 221.49 107.288 221.597 107.317C221.704 107.347 221.81 107.377 221.915 107.407C222.02 107.436 222.124 107.466 222.228 107.496C222.331 107.525 222.424 107.575 222.503 107.639C222.582 107.703 222.648 107.781 222.696 107.869C222.745 107.957 222.777 108.054 222.789 108.155C222.801 108.256 222.794 108.362 222.765 108.466C222.74 108.552 222.702 108.631 222.654 108.7C222.605 108.77 222.546 108.83 222.48 108.88C222.413 108.93 222.339 108.969 222.261 108.996C222.182 109.022 222.099 109.036 222.014 109.036Z" fill="#0F50B2"/>
<path d="M251.024 112.157C250.081 112.157 249.13 112.148 248.169 112.13C247.207 112.113 246.237 112.086 245.255 112.051C244.274 112.015 243.282 111.971 242.28 111.918C241.278 111.865 240.264 111.803 239.24 111.733C239.132 111.725 239.031 111.696 238.94 111.65C238.85 111.604 238.77 111.541 238.704 111.465C238.638 111.39 238.587 111.301 238.554 111.205C238.521 111.108 238.506 111.004 238.514 110.896C238.521 110.787 238.55 110.686 238.596 110.595C238.642 110.504 238.705 110.424 238.78 110.358C238.855 110.292 238.944 110.241 239.039 110.208C239.135 110.174 239.239 110.159 239.347 110.166C241.771 110.333 244.131 110.45 246.433 110.518C248.736 110.585 250.981 110.603 253.176 110.57C255.372 110.538 257.518 110.455 259.622 110.323C261.727 110.19 263.789 110.008 265.817 109.775C265.925 109.762 266.029 109.772 266.127 109.8C266.224 109.829 266.314 109.877 266.392 109.939C266.471 110.002 266.537 110.079 266.587 110.169C266.637 110.258 266.671 110.358 266.683 110.466C266.695 110.574 266.685 110.679 266.656 110.776C266.628 110.874 266.58 110.965 266.518 111.043C266.456 111.122 266.379 111.189 266.29 111.239C266.202 111.289 266.102 111.322 265.995 111.335C264.801 111.471 263.596 111.591 262.378 111.694C261.16 111.797 259.929 111.882 258.684 111.951C257.438 112.019 256.178 112.07 254.902 112.105C253.626 112.14 252.334 112.157 251.024 112.157Z" fill="#0F50B2"/>
<path d="M279.279 108.962C279.191 108.962 279.105 108.947 279.025 108.919C278.944 108.891 278.868 108.85 278.801 108.797C278.733 108.745 278.674 108.681 278.627 108.608C278.579 108.535 278.542 108.453 278.521 108.363C278.495 108.258 278.492 108.152 278.508 108.052C278.524 107.951 278.56 107.855 278.612 107.769C278.663 107.683 278.732 107.607 278.813 107.546C278.894 107.485 278.989 107.44 279.094 107.414L279.196 107.389L279.298 107.364L279.4 107.338L279.502 107.314C280.578 107.05 281.753 106.763 282.927 106.408C284.101 106.054 285.272 105.632 286.341 105.101C287.41 104.569 288.376 103.928 289.137 103.135C289.899 102.342 290.456 101.396 290.707 100.256C290.731 100.15 290.774 100.054 290.833 99.9704C290.892 99.8872 290.966 99.8168 291.05 99.7628C291.135 99.7088 291.229 99.6708 291.329 99.6526C291.429 99.634 291.534 99.6353 291.64 99.6592C291.745 99.6827 291.841 99.7264 291.924 99.7854C292.006 99.8445 292.076 99.9189 292.13 100.004C292.184 100.089 292.221 100.183 292.24 100.284C292.258 100.384 292.257 100.49 292.234 100.596C291.93 101.975 291.283 103.112 290.414 104.059C289.544 105.005 288.453 105.761 287.261 106.379C286.07 106.997 284.777 107.476 283.505 107.869C282.234 108.262 280.982 108.568 279.873 108.84L279.771 108.865L279.67 108.89L279.568 108.915L279.466 108.939C279.451 108.943 279.435 108.947 279.419 108.949C279.404 108.952 279.388 108.955 279.373 108.957C279.357 108.959 279.342 108.96 279.326 108.961C279.31 108.962 279.295 108.962 279.279 108.962Z" fill="#0F50B2"/>
<path d="M237.018 111.652C237.009 111.652 237.001 111.652 236.992 111.652C236.983 111.652 236.974 111.651 236.965 111.651C236.956 111.65 236.947 111.65 236.937 111.649C236.928 111.648 236.919 111.647 236.91 111.646L235.985 111.516L235.061 111.387L234.136 111.258L233.211 111.129C233.104 111.114 233.005 111.078 232.918 111.026C232.831 110.973 232.756 110.905 232.695 110.825C232.635 110.745 232.59 110.653 232.564 110.554C232.537 110.456 232.53 110.351 232.545 110.243C232.56 110.136 232.595 110.037 232.647 109.949C232.699 109.862 232.767 109.786 232.846 109.726C232.926 109.665 233.017 109.62 233.115 109.593C233.213 109.567 233.318 109.559 233.426 109.574L234.351 109.703L235.275 109.832L236.2 109.961L237.125 110.09C237.232 110.105 237.331 110.141 237.418 110.193C237.505 110.246 237.581 110.314 237.641 110.394C237.701 110.474 237.746 110.566 237.773 110.665C237.799 110.763 237.806 110.869 237.792 110.976C237.778 111.074 237.747 111.166 237.702 111.248C237.657 111.33 237.598 111.402 237.529 111.462C237.459 111.522 237.38 111.57 237.294 111.603C237.207 111.635 237.114 111.652 237.018 111.652Z" fill="#0F50B2"/>
<path d="M234.941 52.8304C234.616 52.1146 234.469 51.4142 234.431 50.7172C234.394 50.02 234.467 49.3262 234.581 48.6233C234.696 47.9203 234.852 47.2086 234.982 46.4762C235.112 45.7434 235.215 44.9899 235.224 44.2032C234.86 44.1605 234.514 44.0355 234.202 43.8489C233.89 43.6623 233.613 43.4145 233.386 43.1262C233.16 42.8379 232.984 42.5093 232.876 42.1613C232.768 41.8133 232.728 41.4458 232.771 41.0803C232.815 40.7147 232.913 40.3406 233.067 39.9945C233.22 39.6487 233.428 39.3308 233.689 39.0777C233.95 38.8245 234.264 38.6358 234.631 38.5481C234.998 38.4605 235.416 38.4737 235.886 38.6244C236.27 38.0192 236.755 37.4865 237.31 37.0386C237.864 36.5908 238.488 36.2274 239.151 35.9613C239.814 35.6953 240.515 35.5267 241.224 35.4673C241.933 35.4079 242.65 35.4585 243.343 35.6309C244.037 35.8034 244.694 36.0948 245.294 36.4793C245.894 36.864 246.436 37.3417 246.898 37.8876C247.361 38.4335 247.744 39.0472 248.027 39.7033C248.309 40.3594 248.49 41.058 248.549 41.7731C249.111 41.7427 249.606 41.7744 250.059 41.857C250.512 41.9396 250.923 42.0734 251.317 42.2468C251.71 42.4201 252.086 42.6337 252.469 42.8759C252.853 43.118 253.243 43.3888 253.664 43.6774C253.719 43.4352 253.821 43.2082 253.961 43.0056C254.101 42.803 254.277 42.6246 254.477 42.4798C254.677 42.335 254.901 42.2235 255.136 42.1544C255.371 42.0856 255.618 42.0589 255.864 42.0841C256.11 42.1092 256.347 42.1849 256.564 42.2998C256.781 42.4148 256.977 42.5693 257.144 42.7515C257.311 42.9337 257.448 43.1438 257.544 43.3705C257.64 43.5973 257.696 43.8404 257.7 44.0885C257.724 45.4011 257.525 46.7064 257.136 47.9543C256.747 49.2021 256.169 50.3931 255.435 51.4773C254.701 52.5618 253.811 53.5396 252.799 54.3612C251.786 55.1832 250.651 55.849 249.427 56.3092C248.203 56.7696 246.803 57.04 245.362 57.1226C243.921 57.2052 242.439 57.0994 241.052 56.8073C239.664 56.5152 238.371 56.0365 237.307 55.3729C236.244 54.7102 235.41 53.8618 234.941 52.8304Z" fill="#FFD859"/>
<path d="M236.661 44.4861C236.566 45.1259 236.498 45.7827 236.463 46.436C236.428 47.0893 236.426 47.7391 236.461 48.3657C236.496 48.9923 236.569 49.5956 236.684 50.1556C236.799 50.7157 236.956 51.2323 237.161 51.6858C237.415 52.2471 237.73 52.7773 238.096 53.2704C238.462 53.7635 238.88 54.2199 239.337 54.6329C239.794 55.0459 240.291 55.4156 240.818 55.7359C241.345 56.0563 241.901 56.327 242.476 56.5422C241.738 56.5434 240.99 56.4775 240.261 56.3374C239.531 56.1973 238.82 55.9831 238.157 55.6879C237.493 55.3926 236.876 55.0167 236.336 54.5525C235.795 54.0883 235.331 53.5364 234.971 52.8897C234.611 52.243 234.412 51.5552 234.326 50.8356C234.241 50.1164 234.269 49.3657 234.365 48.5937C234.461 47.8217 234.624 47.028 234.808 46.2227C234.992 45.4174 235.197 44.6005 235.376 43.7813C235.509 43.8153 235.642 43.8492 235.77 43.8878C235.898 43.9264 236.021 43.9698 236.135 44.0222C236.248 44.0747 236.352 44.1366 236.441 44.2123C236.53 44.2883 236.605 44.3781 236.661 44.4861Z" fill="#F0AC2E"/>
<path d="M255.199 45.3578C255.415 45.3798 255.631 45.3515 255.835 45.2833C256.038 45.2152 256.229 45.1068 256.396 44.9686C256.563 44.8304 256.706 44.6624 256.811 44.4749C256.917 44.2871 256.986 44.0798 257.005 43.8627C257.025 43.6457 256.995 43.4293 256.925 43.2255C256.855 43.0216 256.746 42.8303 256.606 42.6642C256.467 42.4977 256.299 42.3564 256.111 42.2521C255.923 42.1478 255.716 42.0806 255.5 42.063C255.284 42.0451 255.068 42.0775 254.866 42.1497C254.664 42.222 254.475 42.3338 254.31 42.4751C254.146 42.6165 254.007 42.7873 253.905 42.977C253.803 43.1667 253.738 43.3756 253.723 43.5929C253.806 43.7723 253.885 43.967 253.97 44.1592C254.056 44.3514 254.148 44.5412 254.258 44.7114C254.367 44.8816 254.493 45.0321 254.647 45.1458C254.8 45.2591 254.981 45.3355 255.199 45.3578Z" fill="#F0AC2E"/>
<path d="M248.908 46.8361C248.966 47.1876 249.101 47.5394 249.291 47.8714C249.481 48.2033 249.726 48.5159 250.007 48.7888C250.288 49.0617 250.604 49.2954 250.934 49.4697C251.265 49.644 251.61 49.7593 251.95 49.7954C252.29 49.8316 252.609 49.7873 252.893 49.6783C253.177 49.5693 253.426 49.3959 253.625 49.1742C253.824 48.9524 253.973 48.682 254.059 48.3792C254.145 48.0765 254.166 47.7416 254.109 47.3902C254.052 47.0387 253.919 46.687 253.731 46.3543C253.542 46.0217 253.298 45.7083 253.019 45.4341C252.739 45.1599 252.424 44.925 252.094 44.7491C251.764 44.5732 251.419 44.456 251.079 44.418C250.738 44.38 250.418 44.4221 250.132 44.5295C249.846 44.6369 249.594 44.8094 249.393 45.0314C249.191 45.2535 249.04 45.5255 248.954 45.8314C248.868 46.1367 248.847 46.4772 248.908 46.8361Z" fill="#FFEC8F"/>
<path d="M243.256 39.6936C243.268 39.9191 243.328 40.1474 243.426 40.3651C243.523 40.5827 243.658 40.7897 243.818 40.9731C243.978 41.1563 244.163 41.3158 244.363 41.438C244.562 41.5602 244.775 41.6453 244.991 41.6801C245.206 41.715 245.414 41.6977 245.605 41.6384C245.795 41.579 245.968 41.4772 246.112 41.3431C246.256 41.209 246.372 41.0422 246.449 40.8529C246.527 40.6635 246.565 40.4511 246.555 40.2259C246.544 40.0007 246.485 39.7724 246.389 39.5544C246.293 39.3365 246.159 39.1289 246 38.9448C245.84 38.7608 245.656 38.6006 245.457 38.4771C245.258 38.3537 245.045 38.2673 244.829 38.2315C244.614 38.1954 244.405 38.2114 244.213 38.2695C244.021 38.3279 243.847 38.4288 243.702 38.5629C243.556 38.697 243.439 38.8647 243.361 39.056C243.282 39.2476 243.244 39.463 243.256 39.6936Z" fill="#FFEC8F"/>
<path d="M242.475 38.1882C242.467 38.0896 242.438 37.9891 242.393 37.893C242.348 37.7968 242.288 37.7045 242.217 37.6222C242.145 37.5402 242.063 37.468 241.976 37.4121C241.889 37.3562 241.796 37.3163 241.703 37.2981C241.61 37.2802 241.52 37.2849 241.439 37.3084C241.358 37.332 241.285 37.3741 241.225 37.4306C241.165 37.4875 241.117 37.5584 241.086 37.6401C241.055 37.7218 241.041 37.8141 241.049 37.9124C241.056 38.011 241.085 38.1112 241.129 38.208C241.174 38.3044 241.234 38.3967 241.305 38.4793C241.376 38.5616 241.457 38.6342 241.544 38.6907C241.631 38.7473 241.724 38.7878 241.817 38.8063C241.91 38.8248 242 38.8207 242.082 38.7978C242.163 38.7749 242.237 38.7331 242.298 38.6763C242.359 38.6194 242.407 38.5481 242.438 38.4655C242.469 38.3826 242.483 38.289 242.475 38.1882Z" fill="#FFEC8F"/>
<path d="M233.234 38.9979C233.039 39.2419 232.911 39.5208 232.841 39.8157C232.77 40.111 232.759 40.4225 232.797 40.7329C232.836 41.0432 232.925 41.3522 233.056 41.6421C233.187 41.932 233.361 42.2028 233.568 42.4361C233.776 42.6698 234.009 42.8736 234.26 43.053C234.511 43.2326 234.781 43.3875 235.062 43.5235C235.343 43.6595 235.636 43.776 235.934 43.879C236.232 43.9817 236.535 44.0706 236.836 44.1507C236.99 44.1915 237.145 44.2311 237.302 44.266C237.458 44.3008 237.615 44.3313 237.773 44.3545C237.93 44.3778 238.089 44.3938 238.247 44.4001C238.406 44.4064 238.564 44.4023 238.723 44.3856C238.881 44.369 239.04 44.3379 239.194 44.2917C239.349 44.2456 239.498 44.1849 239.639 44.1092C239.779 44.0336 239.91 43.9428 240.027 43.8369C240.144 43.7311 240.247 43.6102 240.331 43.4742C240.414 43.3382 240.474 43.1858 240.508 43.0282C240.541 42.8705 240.55 42.7069 240.532 42.5483C240.514 42.3896 240.471 42.2354 240.4 42.0966C240.329 41.9575 240.231 41.8337 240.105 41.7351C239.604 41.3422 239.078 40.9816 238.532 40.6603C237.986 40.3387 237.421 40.0563 236.841 39.8192C236.262 39.5824 235.668 39.3908 235.065 39.2516C234.461 39.1131 233.85 39.0261 233.234 38.9979Z" fill="#FFB45A"/>
<path d="M235.468 41.193C235.437 40.9295 235.487 40.7291 235.598 40.5862C235.71 40.443 235.882 40.3572 236.098 40.323C236.313 40.2887 236.569 40.3057 236.849 40.3685C237.129 40.4313 237.431 40.54 237.736 40.6889C237.901 40.7696 238.066 40.85 238.232 40.9307C238.397 41.0114 238.562 41.0918 238.727 41.1726C238.893 41.2533 239.058 41.3337 239.223 41.4144C239.389 41.4951 239.554 41.5755 239.719 41.6563C239.851 41.7206 239.964 41.823 240.052 41.943C240.139 42.063 240.201 42.2002 240.231 42.335C240.261 42.4697 240.259 42.6016 240.219 42.7103C240.179 42.819 240.101 42.9047 239.978 42.9471C239.517 43.1054 239.01 43.1224 238.508 43.047C238.006 42.9716 237.508 42.8036 237.065 42.5922C236.623 42.3808 236.235 42.1258 235.952 41.8764C235.669 41.6264 235.491 41.3824 235.468 41.193Z" fill="#FFC87A"/>
<path d="M245.434 49.4694C245.282 49.4694 245.136 49.4449 244.998 49.3981C244.861 49.3513 244.732 49.2825 244.615 49.1933C244.499 49.1041 244.395 48.9948 244.306 48.8676C244.218 48.7404 244.146 48.5953 244.092 48.4342C244.036 48.2643 244.003 48.0796 243.997 47.8927C243.99 47.7058 244.01 47.5164 244.06 47.3374C244.109 47.1581 244.188 46.9891 244.299 46.8424C244.41 46.6957 244.554 46.5717 244.734 46.4825C245.349 46.1766 245.867 45.8176 246.287 45.4055C246.708 44.9937 247.031 44.5292 247.256 44.0128C247.481 43.4965 247.608 42.9286 247.637 42.3099C247.665 41.6912 247.596 41.0215 247.428 40.3023C247.313 39.8114 247.098 39.3189 246.793 38.8562C246.487 38.3936 246.091 37.9611 245.614 37.5896C245.136 37.2183 244.578 36.9083 243.948 36.6913C243.318 36.4742 242.617 36.3499 241.854 36.3499C241.187 36.3499 240.566 36.4168 239.994 36.5499C239.421 36.6831 238.896 36.8826 238.42 37.148C237.943 37.4134 237.515 37.7444 237.137 38.1411C236.758 38.5378 236.429 38.9998 236.15 39.5265C236.099 39.6223 236.031 39.703 235.953 39.7674C235.874 39.8318 235.784 39.8795 235.688 39.9087C235.592 39.9383 235.491 39.9489 235.39 39.9401C235.289 39.931 235.188 39.9018 235.092 39.8509C234.997 39.8001 234.917 39.7322 234.853 39.6528C234.789 39.5736 234.741 39.4832 234.712 39.387C234.683 39.2909 234.672 39.1892 234.681 39.0877C234.69 38.986 234.719 38.8845 234.769 38.789C235.117 38.1335 235.53 37.555 236.006 37.0562C236.482 36.5575 237.02 36.1385 237.616 35.8012C238.212 35.4638 238.865 35.2088 239.573 35.0379C240.281 34.8671 241.042 34.7804 241.854 34.7804C242.72 34.7804 243.553 34.9133 244.325 35.1598C245.097 35.4064 245.809 35.7669 246.435 36.2224C247.061 36.6778 247.601 37.2284 248.028 37.855C248.456 38.4815 248.772 39.1845 248.949 39.9445C249.155 40.8268 249.235 41.6629 249.191 42.4449C249.147 43.2273 248.98 43.956 248.693 44.6228C248.405 45.2899 247.998 45.8951 247.475 46.4313C246.952 46.9674 246.312 47.4341 245.559 47.8239C245.559 47.8293 245.559 47.8346 245.559 47.8399C245.559 47.8453 245.559 47.8509 245.56 47.8563C245.56 47.8619 245.561 47.8673 245.561 47.8726C245.562 47.8783 245.563 47.8836 245.564 47.8889C245.656 47.8902 245.745 47.9078 245.829 47.9392C245.912 47.9706 245.99 48.0161 246.058 48.0733C246.126 48.1305 246.185 48.1989 246.231 48.2768C246.277 48.3547 246.309 48.442 246.326 48.5363C246.345 48.6424 246.342 48.7476 246.32 48.8466C246.298 48.9455 246.257 49.0385 246.201 49.1208C246.145 49.2031 246.073 49.2744 245.989 49.33C245.905 49.3855 245.808 49.4257 245.703 49.4452C245.68 49.4493 245.657 49.4531 245.634 49.4562C245.612 49.4593 245.589 49.4619 245.567 49.4641C245.544 49.4663 245.522 49.4675 245.5 49.4688C245.478 49.47 245.456 49.4694 245.434 49.4694Z" fill="#652815"/>
<path d="M238.122 45.3147C237.959 45.3147 237.797 45.3091 237.637 45.2984C237.477 45.2877 237.318 45.2723 237.164 45.2529C237.009 45.2331 236.858 45.2095 236.712 45.1822C236.566 45.1552 236.425 45.1244 236.291 45.0914C235.606 44.9221 234.994 44.6649 234.457 44.3496C233.921 44.0342 233.462 43.6601 233.085 43.2572C232.708 42.8539 232.413 42.4217 232.205 41.9892C231.998 41.5567 231.877 41.1246 231.85 40.7213C231.832 40.4647 231.844 40.2184 231.884 39.9857C231.924 39.753 231.992 39.5341 232.086 39.3324C232.18 39.1308 232.3 38.9461 232.445 38.7821C232.59 38.6182 232.759 38.475 232.952 38.3559C233.146 38.236 233.355 38.1468 233.572 38.089C233.79 38.0312 234.016 38.0045 234.245 38.0086C234.474 38.0126 234.705 38.0478 234.933 38.1138C235.16 38.1797 235.384 38.2765 235.599 38.404C235.81 38.5296 236.022 38.6496 236.234 38.7639C236.446 38.8786 236.657 38.9876 236.865 39.0925C237.074 39.197 237.28 39.2972 237.482 39.3937C237.683 39.4901 237.88 39.5827 238.071 39.6726C238.544 39.8949 239 40.1098 239.418 40.3334C239.836 40.557 240.214 40.7891 240.531 41.0461C240.847 41.303 241.101 41.585 241.27 41.9082C241.439 42.2314 241.523 42.5954 241.498 43.0169C241.489 43.1834 241.463 43.3436 241.42 43.4965C241.377 43.6495 241.318 43.7949 241.244 43.9325C241.169 44.0697 241.079 44.1988 240.974 44.3188C240.868 44.4388 240.747 44.5493 240.612 44.6495C240.447 44.7714 240.266 44.8741 240.073 44.9592C239.88 45.0443 239.675 45.1125 239.461 45.1649C239.248 45.2177 239.027 45.2551 238.802 45.2792C238.577 45.3037 238.349 45.3147 238.122 45.3147ZM234.199 39.578C234.16 39.578 234.122 39.5805 234.084 39.5853C234.047 39.59 234.01 39.5972 233.974 39.6066C233.938 39.616 233.903 39.628 233.869 39.6424C233.836 39.6569 233.803 39.6735 233.772 39.6927C233.706 39.7335 233.649 39.7844 233.6 39.8447C233.552 39.905 233.512 39.9747 233.481 40.0526C233.451 40.1305 233.429 40.2169 233.417 40.3108C233.405 40.4047 233.403 40.5058 233.41 40.6136C233.425 40.8337 233.503 41.0957 233.646 41.3727C233.788 41.6497 233.995 41.9421 234.265 42.2235C234.536 42.5046 234.871 42.7751 235.271 43.0075C235.671 43.2402 236.136 43.4353 236.666 43.5662C236.967 43.6407 237.272 43.6919 237.569 43.7205C237.866 43.749 238.154 43.7547 238.422 43.7387C238.69 43.7227 238.938 43.6846 239.152 43.6256C239.366 43.5666 239.547 43.4861 239.683 43.3856C239.725 43.3545 239.761 43.3228 239.792 43.2895C239.823 43.2562 239.848 43.2211 239.869 43.1837C239.89 43.1463 239.906 43.1067 239.917 43.064C239.928 43.0213 239.935 42.9755 239.938 42.9258C239.947 42.7697 239.879 42.6177 239.751 42.4673C239.624 42.3168 239.435 42.1683 239.203 42.0188C238.97 41.8693 238.694 41.7191 238.389 41.5659C238.085 41.4126 237.752 41.2562 237.408 41.0944C237.209 41.0008 237.004 40.9044 236.793 40.8036C236.583 40.7028 236.367 40.5978 236.148 40.4876C235.929 40.3774 235.706 40.2618 235.481 40.1402C235.256 40.0187 235.029 39.8902 234.802 39.7549C234.752 39.7253 234.702 39.6996 234.652 39.6776C234.601 39.6556 234.55 39.6371 234.5 39.6223C234.449 39.6075 234.398 39.5966 234.348 39.589C234.298 39.5818 234.248 39.578 234.199 39.578Z" fill="#652815"/>
<path d="M254.969 46.6125C254.891 46.6125 254.814 46.6009 254.741 46.5783C254.667 46.5557 254.598 46.5224 254.533 46.4794C254.47 46.4363 254.412 46.3836 254.362 46.3223C254.313 46.2611 254.271 46.1914 254.241 46.1138C254.041 45.5999 253.744 45.1279 253.378 44.7133C253.012 44.2987 252.576 43.9416 252.098 43.658C251.619 43.374 251.097 43.1633 250.559 43.0414C250.021 42.9196 249.467 42.8866 248.922 42.9579C248.815 42.972 248.71 42.9635 248.612 42.9365C248.514 42.9092 248.423 42.8633 248.344 42.8021C248.265 42.7408 248.197 42.6645 248.146 42.5763C248.095 42.4883 248.06 42.3885 248.046 42.281C248.032 42.1736 248.04 42.0684 248.067 41.9701C248.095 41.8718 248.14 41.7804 248.201 41.7009C248.262 41.6212 248.338 41.5533 248.426 41.5018C248.513 41.4503 248.613 41.4151 248.72 41.401C249.446 41.3058 250.178 41.3454 250.885 41.5015C251.591 41.6576 252.272 41.9299 252.896 42.2999C253.52 42.6699 254.086 43.1372 254.563 43.6837C255.041 44.2302 255.429 44.8553 255.696 45.5409C255.736 45.6417 255.753 45.746 255.751 45.8481C255.748 45.9501 255.725 46.0497 255.686 46.1417C255.646 46.2338 255.588 46.3183 255.515 46.3896C255.443 46.4608 255.355 46.519 255.255 46.5585C255.231 46.5676 255.208 46.5758 255.184 46.5827C255.16 46.5896 255.137 46.5953 255.112 46.5997C255.089 46.6041 255.065 46.6075 255.041 46.6097C255.016 46.6113 254.993 46.6125 254.969 46.6125Z" fill="#652815"/>
<path d="M244.756 57.8406C244.751 57.8406 244.746 57.8406 244.741 57.8406C244.736 57.8406 244.732 57.8406 244.727 57.8406C244.722 57.8406 244.717 57.8406 244.712 57.8406C244.707 57.8406 244.702 57.8406 244.697 57.8406C244.09 57.8387 243.352 57.8067 242.543 57.709C241.734 57.6114 240.852 57.4487 239.957 57.1851C239.061 56.9219 238.152 56.5582 237.286 56.0595C236.42 55.5604 235.598 54.9263 234.877 54.1219C234.478 53.6759 234.201 53.1796 234.016 52.651C233.832 52.1224 233.738 51.5612 233.706 50.9845C233.673 50.4079 233.7 49.8158 233.756 49.2254C233.812 48.6349 233.897 48.0466 233.979 47.4769C234.024 47.1612 234.069 46.85 234.108 46.5466C234.147 46.2431 234.18 45.9479 234.203 45.664C234.225 45.3804 234.236 45.1081 234.231 44.8511C234.226 44.5942 234.204 44.3524 234.161 44.1294C234.141 44.0229 234.143 43.9174 234.164 43.8178C234.185 43.7182 234.225 43.624 234.281 43.5408C234.337 43.4575 234.409 43.385 234.493 43.3281C234.578 43.2713 234.674 43.2301 234.78 43.2097C234.886 43.1893 234.991 43.1915 235.091 43.2129C235.19 43.2342 235.284 43.2744 235.366 43.3307C235.449 43.3869 235.521 43.4591 235.578 43.5436C235.635 43.6284 235.676 43.7255 235.696 43.8319C235.752 44.1199 235.781 44.4183 235.791 44.7261C235.801 45.0336 235.792 45.3505 235.77 45.675C235.747 45.9994 235.712 46.3314 235.669 46.6697C235.626 47.0079 235.576 47.3525 235.526 47.7021C235.453 48.2099 235.379 48.7219 235.327 49.2238C235.275 49.7257 235.244 50.2172 235.257 50.6843C235.27 51.1513 235.327 51.5932 235.45 51.9959C235.573 52.3985 235.762 52.7619 236.039 53.0713C237.076 54.2287 238.444 55.0283 239.96 55.5378C241.477 56.0472 243.142 56.2661 244.773 56.2621C246.405 56.258 248.003 56.0309 249.385 55.6477C250.767 55.2645 251.932 54.7256 252.7 54.0977C253.337 53.576 253.947 52.8992 254.501 52.1316C255.054 51.3639 255.551 50.5056 255.961 49.6205C256.37 48.7357 256.693 47.8246 256.9 46.9511C257.106 46.0779 257.196 45.2428 257.139 44.51C257.121 44.2651 257.086 44.0395 257.035 43.8335C256.984 43.6275 256.917 43.4415 256.835 43.2751C256.752 43.1089 256.654 42.9626 256.54 42.8366C256.426 42.7107 256.297 42.6051 256.152 42.52C256.108 42.4939 256.062 42.4807 256.009 42.4839C255.956 42.487 255.894 42.5065 255.817 42.5461C255.74 42.5857 255.648 42.6453 255.534 42.7286C255.42 42.8118 255.283 42.9192 255.117 43.0536C254.985 43.1604 254.849 43.2707 254.706 43.3787C254.564 43.4868 254.415 43.5923 254.258 43.6893C254.102 43.7864 253.937 43.875 253.762 43.9494C253.587 44.0235 253.402 44.0835 253.206 44.1228C253.1 44.1438 252.995 44.1426 252.895 44.1218C252.796 44.1011 252.702 44.0615 252.619 44.0056C252.536 43.9497 252.463 43.8781 252.406 43.7939C252.349 43.7098 252.308 43.6127 252.286 43.5065C252.265 43.4001 252.267 43.2945 252.287 43.1947C252.308 43.0948 252.347 43.0006 252.403 42.917C252.458 42.8335 252.53 42.7606 252.613 42.7031C252.697 42.6456 252.794 42.6042 252.9 42.5828C253.002 42.5624 253.105 42.5257 253.209 42.477C253.312 42.4283 253.416 42.368 253.519 42.2995C253.622 42.2314 253.725 42.1554 253.828 42.0759C253.931 41.9964 254.033 41.9135 254.135 41.8312C254.31 41.6899 254.5 41.535 254.706 41.3934C254.913 41.2517 255.134 41.1227 255.369 41.0325C255.604 40.9424 255.853 40.8909 256.115 40.9041C256.378 40.9172 256.653 40.9951 256.94 41.1638C257.199 41.3155 257.43 41.4992 257.634 41.7125C257.839 41.9258 258.015 42.1692 258.163 42.4402C258.311 42.7116 258.43 43.0106 258.519 43.336C258.609 43.6614 258.668 44.0125 258.697 44.3882C258.763 45.2431 258.666 46.2036 258.438 47.2008C258.21 48.198 257.85 49.2316 257.391 50.2339C256.931 51.2358 256.372 52.206 255.744 53.0757C255.116 53.9454 254.419 54.7146 253.686 55.3148C253.217 55.6989 252.646 56.0488 251.998 56.3575C251.351 56.6663 250.626 56.9339 249.849 57.1534C249.072 57.373 248.243 57.5445 247.386 57.6613C246.529 57.7788 245.644 57.8406 244.756 57.8406Z" fill="#652815"/>
<path d="M243.75 41.9908C243.789 41.8162 243.849 41.655 243.924 41.5131C244 41.3711 244.091 41.2483 244.192 41.1506C244.293 41.0529 244.404 40.9804 244.519 40.9386C244.633 40.8968 244.751 40.8858 244.867 40.9116C244.983 40.9374 245.086 40.997 245.173 41.0834C245.259 41.1698 245.329 41.2822 245.38 41.4138C245.431 41.5451 245.462 41.6949 245.471 41.8557C245.481 42.0165 245.468 42.188 245.429 42.363C245.391 42.5376 245.331 42.699 245.255 42.8407C245.179 42.9827 245.088 43.1055 244.987 43.2028C244.886 43.3005 244.775 43.3731 244.66 43.4148C244.546 43.4566 244.428 43.4676 244.312 43.4419C244.196 43.4161 244.093 43.3564 244.007 43.27C243.92 43.1837 243.85 43.0712 243.799 42.9396C243.749 42.8083 243.717 42.6585 243.708 42.4977C243.699 42.3369 243.712 42.1654 243.75 41.9908Z" fill="#652815"/>
<path d="M252.94 108.196C248.976 108.196 244.896 107.962 240.983 107.554C237.07 107.146 233.324 106.563 230.025 105.866C226.727 105.169 223.877 104.357 221.758 103.49C219.638 102.623 218.248 101.701 217.869 100.783C217.802 100.621 217.761 100.456 217.745 100.293C217.73 100.13 217.74 99.9678 217.775 99.8095C217.809 99.6512 217.869 99.4967 217.952 99.3488C218.036 99.2009 218.144 99.0592 218.276 98.927C218.352 98.8503 218.44 98.7929 218.535 98.7545C218.629 98.7162 218.729 98.6971 218.829 98.6971C218.929 98.6971 219.029 98.7162 219.123 98.7545C219.217 98.7929 219.305 98.8503 219.382 98.927C219.458 99.0036 219.515 99.0922 219.553 99.1867C219.591 99.2813 219.61 99.3818 219.61 99.4823C219.61 99.5828 219.591 99.6833 219.553 99.7778C219.515 99.8724 219.458 99.9609 219.382 100.038C219.364 100.055 219.35 100.071 219.34 100.084C219.329 100.097 219.321 100.109 219.315 100.118C219.309 100.127 219.306 100.134 219.303 100.138C219.301 100.143 219.301 100.146 219.301 100.146C219.306 100.281 219.471 100.492 219.833 100.76C220.194 101.027 220.753 101.351 221.546 101.71C222.338 102.07 223.365 102.465 224.663 102.876C225.96 103.287 227.53 103.714 229.407 104.135C231.169 104.531 233.027 104.884 234.946 105.192C236.865 105.499 238.845 105.761 240.852 105.974C242.859 106.186 244.893 106.349 246.919 106.459C248.945 106.569 250.964 106.625 252.94 106.625C257.365 106.625 261.548 106.388 265.361 105.991C269.175 105.594 272.618 105.038 275.563 104.4C278.508 103.762 280.955 103.043 282.774 102.319C284.593 101.596 285.786 100.869 286.223 100.215C286.267 100.15 286.297 100.093 286.317 100.044C286.336 99.9958 286.346 99.9546 286.35 99.9198C286.353 99.8852 286.351 99.8567 286.346 99.8337C286.341 99.8105 286.334 99.7926 286.328 99.7781C286.287 99.6776 286.268 99.574 286.269 99.4719C286.271 99.3698 286.292 99.2699 286.331 99.1773C286.37 99.0846 286.426 98.9995 286.498 98.9273C286.569 98.855 286.656 98.7957 286.756 98.7549C286.856 98.714 286.96 98.6952 287.061 98.6967C287.163 98.698 287.262 98.7194 287.355 98.7586C287.447 98.7976 287.532 98.8544 287.604 98.9263C287.675 98.9983 287.735 99.0856 287.775 99.1861C287.819 99.2944 287.858 99.4182 287.884 99.5554C287.91 99.6927 287.922 99.8431 287.912 100.005C287.902 100.167 287.871 100.339 287.808 100.522C287.746 100.703 287.653 100.894 287.521 101.092C286.888 102.038 285.403 102.955 283.284 103.798C281.164 104.642 278.411 105.412 275.239 106.063C272.068 106.714 268.479 107.248 264.69 107.618C260.902 107.988 256.912 108.196 252.94 108.196Z" fill="#652815"/>
<path d="M287.05 100.268C286.97 100.268 286.892 100.256 286.817 100.232C286.742 100.208 286.672 100.174 286.607 100.129C286.542 100.085 286.484 100.03 286.435 99.9669C286.385 99.9035 286.345 99.8315 286.316 99.7521C285.287 96.9256 284.194 94.0128 283.025 91.1016C281.857 88.1907 280.613 85.2817 279.281 82.4631C277.95 79.6445 276.531 76.9164 275.013 74.3676C273.495 71.8188 271.879 69.4488 270.151 67.3466C270.083 67.2631 270.034 67.1692 270.005 67.0715C269.976 66.9738 269.967 66.8721 269.976 66.7719C269.986 66.6717 270.014 66.5737 270.061 66.4832C270.108 66.3928 270.174 66.3102 270.257 66.2411C270.34 66.172 270.433 66.123 270.531 66.0941C270.628 66.0649 270.729 66.0554 270.829 66.0649C270.929 66.0746 271.026 66.1032 271.116 66.1503C271.206 66.1974 271.289 66.263 271.358 66.3466C273.122 68.4946 274.771 70.9083 276.317 73.4992C277.863 76.0901 279.306 78.8584 280.658 81.7153C282.01 84.5722 283.271 87.5176 284.455 90.4634C285.639 93.4092 286.744 96.355 287.785 99.2128C287.822 99.3146 287.836 99.4191 287.831 99.5209C287.826 99.6227 287.802 99.7219 287.76 99.813C287.717 99.9041 287.658 99.9873 287.584 100.057C287.51 100.126 287.421 100.182 287.319 100.22C287.297 100.228 287.275 100.235 287.252 100.241C287.23 100.247 287.208 100.252 287.185 100.256C287.163 100.26 287.14 100.263 287.118 100.265C287.095 100.267 287.073 100.268 287.05 100.268Z" fill="#652815"/>
<path d="M263.846 60.7635C263.803 60.7635 263.759 60.7597 263.716 60.7525C263.672 60.7453 263.629 60.734 263.587 60.7192C263.546 60.7045 263.504 60.6856 263.465 60.6633C263.425 60.641 263.386 60.6146 263.35 60.5848C262.499 59.8806 261.635 59.239 260.782 58.6566C259.928 58.0743 259.084 57.5511 258.272 57.0837C257.459 56.6164 256.677 56.2049 255.948 55.8462C255.218 55.4876 254.541 55.1813 253.938 54.9241C253.838 54.8817 253.752 54.8214 253.682 54.7479C253.611 54.6747 253.556 54.5887 253.518 54.4957C253.481 54.4024 253.461 54.3022 253.461 54.2001C253.461 54.0981 253.481 53.9944 253.523 53.8945C253.565 53.7947 253.626 53.7083 253.699 53.6373C253.771 53.5663 253.857 53.511 253.95 53.4733C254.043 53.4357 254.143 53.4159 254.244 53.4159C254.346 53.4159 254.449 53.436 254.548 53.4781C255.175 53.745 255.879 54.0635 256.637 54.4366C257.396 54.8098 258.209 55.2379 259.055 55.7244C259.9 56.2109 260.779 56.7555 261.668 57.3623C262.556 57.9691 263.456 58.6375 264.343 59.3715C264.427 59.4406 264.492 59.5232 264.539 59.6133C264.586 59.7038 264.615 59.8018 264.625 59.902C264.634 60.0019 264.625 60.1039 264.596 60.2016C264.567 60.2993 264.519 60.3932 264.45 60.4768C264.411 60.5239 264.368 60.5653 264.322 60.6011C264.276 60.6369 264.227 60.6668 264.175 60.6906C264.123 60.7145 264.069 60.7327 264.014 60.7447C263.959 60.7575 263.903 60.7635 263.846 60.7635Z" fill="#652815"/>
<path d="M263.748 70.4018C263.478 70.4018 263.208 70.3914 262.942 70.3694C262.677 70.3477 262.414 70.3144 262.157 70.2692C261.899 70.224 261.647 70.1665 261.402 70.0958C261.156 70.0252 260.917 69.9419 260.687 69.8446C260.588 69.8025 260.501 69.7422 260.431 69.669C260.36 69.5958 260.304 69.5101 260.266 69.4171C260.229 69.3241 260.209 69.2239 260.208 69.1219C260.208 69.0198 260.228 68.9161 260.27 68.8163C260.311 68.7164 260.371 68.6297 260.444 68.5584C260.517 68.4871 260.602 68.4315 260.695 68.3938C260.787 68.3558 260.887 68.3357 260.989 68.3354C261.09 68.3351 261.193 68.3549 261.293 68.397C261.827 68.6231 262.429 68.7541 263.06 68.8075C263.691 68.8609 264.353 68.8364 265.008 68.7513C265.664 68.6661 266.312 68.5204 266.918 68.3313C267.524 68.1419 268.087 67.9095 268.57 67.6504C269.079 67.3771 269.534 67.0216 269.927 66.6174C270.32 66.2131 270.651 65.7602 270.913 65.2926C271.175 64.8249 271.367 64.3425 271.482 63.8789C271.597 63.4153 271.635 62.9706 271.589 62.5789C271.565 62.3763 271.52 62.1938 271.454 62.0308C271.389 61.8675 271.302 61.724 271.194 61.5993C271.086 61.4746 270.957 61.3687 270.806 61.2817C270.655 61.1947 270.482 61.126 270.287 61.0754C269.917 60.9796 269.529 60.9096 269.123 60.8587C268.716 60.8078 268.291 60.7761 267.849 60.7575C267.406 60.7387 266.945 60.733 266.467 60.734C265.988 60.7349 265.492 60.7425 264.978 60.75C264.464 60.7579 263.932 60.766 263.385 60.7673C262.839 60.7685 262.278 60.7635 261.704 60.7447C261.13 60.7258 260.544 60.6935 259.948 60.6407C259.352 60.5879 258.746 60.5148 258.133 60.4142C258.026 60.3967 257.928 60.3583 257.842 60.304C257.756 60.2497 257.682 60.1793 257.624 60.0977C257.565 60.016 257.523 59.9233 257.499 59.8241C257.474 59.7252 257.469 59.6196 257.487 59.5125C257.504 59.4054 257.542 59.3071 257.596 59.2207C257.65 59.1344 257.72 59.0602 257.801 59.0018C257.882 58.9431 257.974 58.9001 258.073 58.8759C258.172 58.8517 258.277 58.8467 258.384 58.8636C258.964 58.9588 259.539 59.0279 260.108 59.0778C260.677 59.1278 261.239 59.1579 261.791 59.1755C262.343 59.1931 262.884 59.1978 263.413 59.1962C263.941 59.1947 264.456 59.1868 264.954 59.1793C265.474 59.1714 265.987 59.1639 266.489 59.1633C266.991 59.1629 267.484 59.1698 267.964 59.1912C268.445 59.2129 268.913 59.249 269.366 59.3068C269.819 59.3649 270.257 59.4447 270.677 59.5537C271.026 59.6438 271.343 59.7763 271.626 59.9466C271.909 60.1168 272.157 60.325 272.368 60.5672C272.578 60.8094 272.75 61.0851 272.88 61.3904C273.01 61.6957 273.098 62.0308 273.141 62.3914C273.212 62.9856 273.157 63.6179 272.998 64.2517C272.84 64.8855 272.576 65.5212 272.229 66.1224C271.882 66.7239 271.451 67.2911 270.957 67.7886C270.463 68.2858 269.906 68.7132 269.306 69.0349C268.933 69.2352 268.523 69.4209 268.088 69.5864C267.652 69.7519 267.19 69.898 266.713 70.0186C266.236 70.1392 265.743 70.235 265.246 70.3006C264.748 70.3663 264.245 70.4018 263.748 70.4018Z" fill="#652815"/>
<path d="M261.317 73.4172C261.299 73.4172 261.28 73.4166 261.261 73.4153C261.243 73.4141 261.224 73.4119 261.205 73.409C261.187 73.4062 261.168 73.4028 261.149 73.3987C261.131 73.3946 261.112 73.3896 261.093 73.3839C260.803 73.2969 260.531 73.1832 260.279 73.0438C260.027 72.9043 259.794 72.7397 259.584 72.5507C259.373 72.3616 259.184 72.1483 259.017 71.9121C258.851 71.6759 258.707 71.4171 258.588 71.1364C258.546 71.0368 258.526 70.9331 258.525 70.8311C258.525 70.729 258.545 70.6288 258.582 70.5355C258.619 70.4422 258.674 70.3562 258.745 70.2827C258.815 70.2092 258.901 70.1486 259.001 70.1058C259.1 70.0634 259.203 70.0433 259.305 70.043C259.406 70.0427 259.506 70.0625 259.599 70.0999C259.692 70.1373 259.777 70.1925 259.85 70.2632C259.924 70.3339 259.984 70.4202 260.026 70.5201C260.1 70.6922 260.186 70.8499 260.286 70.9928C260.386 71.1357 260.499 71.2642 260.625 71.3776C260.752 71.491 260.891 71.5896 261.044 71.6731C261.196 71.7567 261.361 71.8251 261.54 71.8785C261.643 71.9093 261.735 71.9599 261.813 72.0249C261.892 72.0899 261.956 72.1691 262.004 72.2573C262.051 72.3456 262.082 72.4432 262.094 72.5447C262.105 72.6461 262.096 72.7514 262.065 72.8553C262.04 72.9404 262.002 73.0183 261.953 73.0868C261.904 73.1553 261.846 73.2149 261.779 73.2636C261.713 73.3126 261.64 73.3506 261.561 73.3767C261.484 73.4034 261.401 73.4172 261.317 73.4172Z" fill="#652815"/>
<path d="M244.682 66.9201C244.576 66.9201 244.474 66.8988 244.381 66.8598C244.289 66.8209 244.205 66.7647 244.134 66.6953C244.064 66.6255 244.006 66.5426 243.966 66.4503C243.926 66.3579 243.902 66.2562 243.901 66.1488C243.899 66.0404 243.919 65.9368 243.956 65.8419C243.994 65.7471 244.05 65.6616 244.12 65.5894C244.189 65.5171 244.272 65.4581 244.365 65.4166C244.458 65.3752 244.56 65.3513 244.668 65.3494L246.462 65.318L248.255 65.2866L250.049 65.2552L251.843 65.2238C251.844 65.2238 251.845 65.2238 251.846 65.2238C251.847 65.2238 251.849 65.2238 251.849 65.2238C251.85 65.2238 251.852 65.2238 251.853 65.2238C251.854 65.2238 251.855 65.2238 251.856 65.2238C251.963 65.2238 252.064 65.2451 252.157 65.2841C252.249 65.323 252.333 65.3793 252.404 65.4487C252.474 65.5184 252.532 65.6013 252.572 65.6937C252.613 65.786 252.636 65.8881 252.638 65.9952C252.64 66.1035 252.62 66.2072 252.581 66.3017C252.544 66.3963 252.488 66.482 252.418 66.5542C252.349 66.6265 252.266 66.6855 252.173 66.727C252.08 66.7684 251.978 66.792 251.87 66.7942L250.076 66.8256L248.283 66.857L246.489 66.8884L244.696 66.9198C244.694 66.9198 244.693 66.9198 244.692 66.9198C244.691 66.9198 244.69 66.9198 244.689 66.9198C244.687 66.9198 244.686 66.9198 244.685 66.9198C244.684 66.9202 244.683 66.9201 244.682 66.9201Z" fill="#652815"/>
<path d="M230.414 92.9463C230.379 92.9463 230.344 92.9441 230.309 92.939C230.273 92.934 230.238 92.9271 230.204 92.9174C230.17 92.9076 230.135 92.8954 230.102 92.8809C230.068 92.8662 230.036 92.8489 230.003 92.8291C229.223 92.3445 228.479 91.9321 227.767 91.5753C227.055 91.2182 226.375 90.917 225.722 90.6544C225.069 90.3918 224.444 90.1682 223.841 89.9669C223.239 89.7656 222.66 89.5865 222.099 89.4135C221.437 89.209 220.798 89.0114 220.178 88.7938C219.558 88.5761 218.958 88.3387 218.376 88.0544C217.793 87.7702 217.227 87.4388 216.676 87.034C216.124 86.6291 215.587 86.1501 215.062 85.5707C214.261 84.6872 213.509 83.4625 212.832 81.992C212.155 80.5215 211.552 78.8047 211.05 76.9362C210.548 75.0681 210.146 73.0482 209.869 70.9712C209.592 68.8945 209.441 66.7609 209.441 64.665C209.441 62.3411 210.345 60.4403 211.865 58.8674C213.386 57.2945 215.523 56.0494 217.989 55.0375C220.456 54.0255 223.253 53.2459 226.093 52.6043C228.933 51.9626 231.815 51.4588 234.454 50.9974C234.561 50.9786 234.666 50.9823 234.765 51.0053C234.863 51.0282 234.956 51.0706 235.038 51.1284C235.12 51.1862 235.191 51.26 235.246 51.3457C235.301 51.4315 235.34 51.5295 235.358 51.6363C235.377 51.7431 235.373 51.8486 235.35 51.9478C235.327 52.0471 235.285 52.1404 235.227 52.2227C235.17 52.3049 235.097 52.3759 235.011 52.4312C234.926 52.4865 234.828 52.5257 234.722 52.5443C232.22 52.9815 229.486 53.4595 226.793 54.0547C224.101 54.6499 221.449 55.3629 219.11 56.2699C216.77 57.1773 214.744 58.2791 213.303 59.6526C211.861 61.0261 211.004 62.6709 211.004 64.6647C211.004 66.6412 211.148 68.6683 211.408 70.6477C211.668 72.627 212.046 74.5586 212.515 76.3442C212.984 78.1294 213.544 79.7686 214.17 81.1628C214.796 82.557 215.487 83.7066 216.218 84.5125C216.671 85.0125 217.136 85.4265 217.618 85.778C218.1 86.1294 218.599 86.4184 219.12 86.6696C219.641 86.9206 220.185 87.1335 220.756 87.3327C221.327 87.5318 221.927 87.7168 222.559 87.9125C223.142 88.0924 223.745 88.2787 224.372 88.4885C224.999 88.6983 225.651 88.9317 226.333 89.2065C227.014 89.4813 227.726 89.7976 228.473 90.1726C229.22 90.5479 230.003 90.982 230.825 91.4927C230.917 91.5499 230.993 91.6227 231.052 91.706C231.11 91.7892 231.152 91.8825 231.175 91.9805C231.198 92.0781 231.202 92.1805 231.187 92.2813C231.171 92.3822 231.136 92.4817 231.079 92.5738C231.042 92.6338 230.999 92.6871 230.95 92.7333C230.901 92.7795 230.847 92.8184 230.789 92.8502C230.732 92.8816 230.671 92.9057 230.607 92.9218C230.545 92.9381 230.48 92.9463 230.414 92.9463Z" fill="#652815"/>
<path d="M218.828 100.268C218.784 100.268 218.74 100.264 218.697 100.257C218.653 100.249 218.61 100.238 218.568 100.223C218.526 100.208 218.484 100.189 218.445 100.167C218.405 100.144 218.366 100.118 218.33 100.088C218.247 100.018 218.182 99.9356 218.135 99.8451C218.088 99.7547 218.06 99.6564 218.05 99.5562C218.041 99.4563 218.051 99.3542 218.08 99.2565C218.109 99.1589 218.158 99.0653 218.227 98.9817C218.52 98.6262 218.807 98.1554 219.067 97.6048C219.328 97.0542 219.563 96.4245 219.751 95.7511C219.94 95.078 220.083 94.3616 220.158 93.6379C220.235 92.9143 220.244 92.1837 220.168 91.4821C220.139 91.2189 220.095 90.9315 220.027 90.6353C219.959 90.3388 219.867 90.0335 219.745 89.7339C219.622 89.4342 219.468 89.1406 219.276 88.8676C219.084 88.5947 218.853 88.3425 218.576 88.1261C218.491 88.0595 218.423 87.9788 218.374 87.8896C218.325 87.8004 218.293 87.703 218.281 87.6034C218.268 87.5039 218.275 87.4018 218.301 87.3032C218.327 87.2046 218.373 87.1097 218.439 87.024C218.506 86.9385 218.586 86.8704 218.674 86.8208C218.763 86.7711 218.86 86.7397 218.959 86.7272C219.058 86.7146 219.16 86.7212 219.258 86.7476C219.356 86.774 219.451 86.8198 219.536 86.8864C219.841 87.1245 220.117 87.399 220.362 87.7065C220.607 88.0143 220.823 88.3554 221.007 88.7276C221.191 89.0997 221.343 89.503 221.463 89.9343C221.582 90.3658 221.669 90.8256 221.722 91.3112C221.803 92.0531 221.802 92.8423 221.73 93.6398C221.657 94.4376 221.513 95.2435 221.308 96.0183C221.104 96.7935 220.838 97.5376 220.521 98.2113C220.205 98.8853 219.837 99.489 219.43 99.9833C219.391 100.03 219.348 100.071 219.302 100.107C219.256 100.142 219.207 100.172 219.155 100.196C219.104 100.22 219.05 100.237 218.995 100.249C218.94 100.261 218.884 100.268 218.828 100.268Z" fill="#652815"/>
<path d="M213.184 66.1576C213.09 66.1576 212.998 66.1403 212.913 66.1086C212.828 66.0768 212.749 66.0304 212.68 65.9719C212.612 65.9135 212.553 65.8432 212.507 65.7631C212.461 65.683 212.428 65.5935 212.413 65.4971C212.338 65.0303 212.248 64.6145 212.146 64.2357C212.044 63.8572 211.93 63.5158 211.808 63.1983C211.685 62.8804 211.554 62.5864 211.418 62.3022C211.282 62.018 211.14 61.7435 210.997 61.4652C210.978 61.4294 210.96 61.3936 210.942 61.3574C210.923 61.3216 210.905 61.2855 210.886 61.2494C210.867 61.2133 210.849 61.1772 210.83 61.1407C210.812 61.1043 210.793 61.0682 210.775 61.0314C210.725 60.9347 210.699 60.8329 210.691 60.7312C210.684 60.6294 210.697 60.528 210.728 60.4325C210.759 60.337 210.808 60.2475 210.873 60.1693C210.939 60.0911 211.021 60.0248 211.117 59.9755C211.213 59.9265 211.315 59.8992 211.416 59.8919C211.517 59.8847 211.618 59.8976 211.713 59.9287C211.808 59.9598 211.897 60.0091 211.975 60.0747C212.053 60.1404 212.119 60.2224 212.168 60.3191C212.186 60.3549 212.204 60.3904 212.222 60.4259C212.24 60.4614 212.258 60.4965 212.277 60.532C212.295 60.5672 212.313 60.6024 212.331 60.6376C212.349 60.6727 212.367 60.7079 212.385 60.7428C212.536 61.0365 212.689 61.3323 212.838 61.6442C212.987 61.9561 213.133 62.2843 213.27 62.6414C213.407 62.9988 213.536 63.3855 213.652 63.8151C213.768 64.2448 213.871 64.7175 213.956 65.2464C213.974 65.3535 213.968 65.4587 213.944 65.558C213.92 65.6569 213.877 65.7499 213.818 65.8312C213.76 65.9126 213.686 65.9829 213.6 66.0373C213.514 66.0916 213.416 66.1296 213.309 66.1469C213.299 66.1488 213.288 66.15 213.278 66.1513C213.267 66.1525 213.257 66.1535 213.246 66.1544C213.236 66.1554 213.225 66.156 213.215 66.1563C213.204 66.1576 213.194 66.1576 213.184 66.1576Z" fill="#652815"/>
<path d="M221.964 68.6627C221.904 68.6627 221.845 68.6561 221.788 68.6426C221.73 68.6294 221.674 68.6093 221.62 68.5832C221.566 68.5568 221.515 68.5242 221.468 68.4852C221.421 68.4463 221.378 68.401 221.339 68.3498C221.274 68.2632 221.23 68.1677 221.205 68.0687C221.18 67.9698 221.175 67.8677 221.189 67.7682C221.203 67.6686 221.236 67.5719 221.287 67.4836C221.338 67.3954 221.407 67.3156 221.493 67.2503C222.092 66.7964 222.724 66.4186 223.369 66.1023C224.015 65.786 224.675 65.5313 225.33 65.3234C225.986 65.1154 226.638 64.9543 227.268 64.8252C227.897 64.6961 228.505 64.5994 229.072 64.5199C229.178 64.5052 229.283 64.5127 229.381 64.5394C229.479 64.5658 229.571 64.611 229.65 64.6716C229.73 64.7322 229.799 64.8079 229.851 64.8956C229.903 64.9832 229.939 65.0824 229.954 65.1899C229.969 65.2973 229.961 65.4025 229.935 65.5011C229.909 65.5998 229.864 65.6915 229.803 65.7716C229.743 65.8516 229.668 65.9204 229.58 65.9729C229.493 66.0253 229.394 66.0611 229.287 66.0762C228.735 66.1535 228.161 66.2446 227.579 66.3626C226.996 66.4807 226.406 66.6255 225.818 66.8105C225.231 66.9955 224.647 67.2204 224.079 67.4984C223.511 67.7763 222.958 68.1074 222.434 68.5047C222.398 68.5314 222.362 68.5546 222.324 68.5744C222.286 68.5942 222.247 68.6109 222.207 68.6237C222.168 68.6369 222.127 68.6467 222.087 68.6533C222.046 68.6595 222.005 68.6627 221.964 68.6627Z" fill="#652815"/>
<path d="M221.713 84.3938C221.666 84.3938 221.62 84.3898 221.573 84.3813C221.527 84.3728 221.482 84.3602 221.437 84.3436C221.393 84.3269 221.35 84.3059 221.308 84.2804C221.267 84.2553 221.227 84.2255 221.19 84.1916L219.896 83.02L218.602 81.8485L217.308 80.677L216.014 79.5055L215.388 79.8123L214.762 80.1192L214.137 80.426L213.511 80.7329C213.414 80.7803 213.312 80.8058 213.211 80.8111C213.109 80.8164 213.008 80.802 212.914 80.7693C212.819 80.7367 212.731 80.6858 212.655 80.6189C212.578 80.552 212.513 80.4688 212.466 80.3714C212.419 80.274 212.393 80.1713 212.388 80.0695C212.382 79.9678 212.397 79.8663 212.429 79.7715C212.462 79.6763 212.513 79.5877 212.579 79.5108C212.646 79.4338 212.729 79.3688 212.826 79.3214L213.57 78.9564L214.314 78.5915L215.058 78.2265L215.802 77.8615C215.874 77.8264 215.949 77.8031 216.025 77.7915C216.101 77.7796 216.178 77.7793 216.254 77.7899C216.329 77.8006 216.403 77.8223 216.473 77.855C216.543 77.8876 216.609 77.9307 216.668 77.9844L218.06 79.2448L219.452 80.5052L220.844 81.7656L222.236 83.026C222.316 83.0986 222.377 83.184 222.42 83.2763C222.463 83.3687 222.488 83.4679 222.493 83.5684C222.498 83.6686 222.484 83.7701 222.451 83.8665C222.418 83.9629 222.365 84.0543 222.293 84.1347C222.254 84.1777 222.212 84.2154 222.167 84.2478C222.122 84.2801 222.074 84.3071 222.025 84.3288C221.975 84.3505 221.924 84.3668 221.871 84.3778C221.82 84.3882 221.766 84.3938 221.713 84.3938Z" fill="#652815"/>
<path d="M216.147 79.3519C216.041 79.3519 215.94 79.3305 215.848 79.2922C215.755 79.2539 215.672 79.198 215.601 79.1289C215.531 79.0598 215.473 78.9772 215.432 78.8855C215.392 78.7934 215.368 78.6923 215.366 78.5855L215.334 77.2748L215.303 75.9642L215.272 74.6535L215.24 73.3428C215.238 73.2345 215.257 73.1308 215.295 73.036C215.332 72.9411 215.387 72.8551 215.456 72.7825C215.525 72.7097 215.608 72.6503 215.7 72.6082C215.793 72.5661 215.895 72.5419 216.003 72.5391C216.112 72.5335 216.216 72.5514 216.311 72.5881C216.405 72.6249 216.491 72.6808 216.563 72.7508C216.635 72.8208 216.694 72.9053 216.735 72.9992C216.776 73.0932 216.801 73.1968 216.803 73.3052L216.834 74.6158L216.866 75.9265L216.897 77.2372L216.928 78.5478C216.931 78.6562 216.911 78.7598 216.874 78.8547C216.837 78.9495 216.781 79.0356 216.712 79.1081C216.643 79.181 216.56 79.2404 216.468 79.2825C216.376 79.3245 216.273 79.3487 216.166 79.3516C216.164 79.3516 216.162 79.3516 216.161 79.3519C216.159 79.3519 216.158 79.3519 216.156 79.3519C216.155 79.3519 216.153 79.3519 216.151 79.3519C216.15 79.3519 216.148 79.3519 216.147 79.3519Z" fill="#652815"/>
<path d="M278.893 89.3017C278.821 89.3017 278.75 89.2919 278.682 89.2728C278.614 89.2536 278.548 89.2254 278.487 89.1883C278.426 89.1512 278.37 89.1057 278.32 89.0523C278.27 88.9989 278.228 88.9374 278.193 88.8686L277.624 87.73L277.055 86.5912L276.486 85.4526L275.917 84.3137C275.869 84.217 275.842 84.1146 275.836 84.0129C275.829 83.9111 275.842 83.8096 275.874 83.7142C275.905 83.6187 275.955 83.5295 276.021 83.4519C276.087 83.3743 276.169 83.3084 276.265 83.2597C276.361 83.211 276.463 83.1843 276.564 83.1777C276.666 83.1711 276.767 83.1846 276.862 83.216C276.957 83.2478 277.046 83.2974 277.123 83.3637C277.2 83.4299 277.266 83.5122 277.314 83.6093L277.883 84.7478L278.452 85.8867L279.021 87.0252L279.59 88.1641C279.639 88.2608 279.665 88.3629 279.672 88.4647C279.678 88.5664 279.665 88.6679 279.634 88.7634C279.602 88.8588 279.553 88.948 279.487 89.0256C279.421 89.1032 279.339 89.1691 279.242 89.2178C279.214 89.232 279.186 89.2442 279.157 89.2549C279.128 89.2653 279.099 89.274 279.069 89.281C279.04 89.2879 279.011 89.2929 278.981 89.2964C278.952 89.2998 278.922 89.3017 278.893 89.3017Z" fill="#652815"/>
<path d="M283.743 99.2496C283.665 99.2496 283.587 99.2376 283.513 99.2147C283.439 99.1918 283.369 99.1582 283.305 99.1145C283.241 99.0712 283.183 99.0178 283.133 98.9559C283.084 98.894 283.043 98.8234 283.013 98.7455L282.543 97.5149L282.073 96.2843L281.602 95.0537L281.132 93.8232C281.093 93.722 281.077 93.6178 281.081 93.5157C281.084 93.4136 281.107 93.314 281.148 93.2223C281.188 93.1306 281.247 93.0464 281.32 92.9758C281.393 92.9051 281.481 92.8473 281.582 92.8087C281.682 92.7697 281.786 92.7531 281.888 92.7565C281.989 92.76 282.088 92.7832 282.18 92.8241C282.271 92.8649 282.355 92.9233 282.425 92.9968C282.496 93.0703 282.553 93.1589 282.592 93.2603L283.062 94.4909L283.532 95.7215L284.002 96.9521L284.472 98.1826C284.511 98.2838 284.527 98.388 284.524 98.4901C284.521 98.5922 284.497 98.6918 284.457 98.7835C284.416 98.8752 284.358 98.9594 284.285 99.03C284.212 99.1007 284.123 99.1585 284.023 99.1971C284 99.2059 283.977 99.2138 283.953 99.2204C283.93 99.227 283.907 99.2323 283.883 99.2367C283.86 99.2411 283.836 99.2442 283.813 99.2464C283.79 99.2483 283.766 99.2496 283.743 99.2496Z" fill="#652815"/>
<path d="M277.352 96.1527C277.278 96.1527 277.204 96.1421 277.133 96.121C277.062 96.1003 276.994 96.0695 276.932 96.0296C276.869 95.9897 276.812 95.9407 276.762 95.8836C276.713 95.8264 276.67 95.7608 276.638 95.6879L276.075 94.4218L275.512 93.1558L274.948 91.8897L274.385 90.6236C274.341 90.5247 274.319 90.4214 274.317 90.3193C274.314 90.2172 274.333 90.1167 274.368 90.0228C274.404 89.9289 274.457 89.8419 274.527 89.7675C274.596 89.6927 274.681 89.6305 274.779 89.5862C274.878 89.5419 274.981 89.52 275.083 89.5178C275.184 89.5156 275.285 89.5338 275.378 89.5696C275.471 89.6054 275.558 89.6591 275.632 89.7288C275.706 89.7982 275.768 89.8837 275.812 89.9823L276.375 91.2484L276.939 92.5144L277.502 93.7805L278.065 95.0466C278.11 95.1455 278.131 95.2488 278.134 95.3509C278.136 95.453 278.118 95.5535 278.082 95.6474C278.046 95.7413 277.993 95.8283 277.924 95.9027C277.854 95.9772 277.769 96.0397 277.671 96.084C277.645 96.0956 277.619 96.1056 277.592 96.1144C277.566 96.1229 277.54 96.1301 277.513 96.1358C277.486 96.1414 277.459 96.1458 277.432 96.1484C277.406 96.1515 277.379 96.1527 277.352 96.1527Z" fill="#652815"/>
<path fill-rule="evenodd" clip-rule="evenodd" d="M108.593 23.3562C108.815 23.4331 108.9 23.4366 108.952 23.4851C109.691 24.1803 110.431 24.8739 111.16 25.5826C111.78 26.1863 112.359 26.8475 113.004 27.4142C114.296 28.5507 115.606 29.6641 116.938 30.7406C117.816 31.4503 118.715 32.1429 119.661 32.7292C121.018 33.5703 122.204 34.8077 123.823 35.0715C123.995 35.0995 124.157 35.2514 124.309 35.3704C125.648 36.4119 127.153 37.0046 128.681 37.6058C130.12 38.1725 131.459 39.0646 132.839 39.8203C133.673 40.2765 134.501 40.7443 135.331 41.2086C136.099 41.6379 136.871 42.0572 137.633 42.502C138.563 43.0472 139.47 43.6434 140.411 44.1652C142.129 45.1182 143.711 46.3001 145.238 47.594C145.891 48.1468 146.654 48.5381 147.306 49.0908C148.62 50.2028 149.876 51.4002 151.187 52.5167C152.944 54.0139 154.714 55.4947 156.508 56.935C158.998 58.9326 161.498 60.9161 164.031 62.8432C164.8 63.4279 165.697 63.7957 166.528 64.2815C167.36 64.7683 168.127 64.6249 168.834 63.9942C169.561 63.3445 169.945 62.5159 169.748 61.4439C169.612 60.7007 169.451 59.9626 169.305 59.2219C168.694 56.1154 167.301 53.4517 165.62 50.9454C164.591 49.4117 163.588 47.8554 162.571 46.3121C162.482 46.1777 162.372 46.0588 162.267 45.9398C161.244 44.7809 160.24 43.6009 159.192 42.4715C157.847 41.0237 156.469 39.6149 155.102 38.192C154.965 38.0496 154.775 37.9581 154.668 37.7942C153.521 36.0281 151.955 34.7877 150.427 33.5038C149.324 32.5767 148.196 31.6882 147.078 30.7836C147.048 30.7596 146.996 30.7566 146.979 30.7261C146.116 29.2208 144.539 28.84 143.357 27.832C142.467 27.0744 141.5 26.4127 140.509 25.833C139.788 25.4117 138.947 25.2592 138.205 24.8754C136.437 23.9614 134.575 23.3412 132.768 22.5595C130.561 21.604 128.222 21.1892 126.031 20.2671C124.866 19.7769 123.581 19.5425 122.544 18.6094C122.071 18.1836 121.364 18.1032 120.794 17.7943C119.105 16.8778 117.399 15.9902 115.762 14.9647C114.463 14.1511 113.188 13.247 112.028 12.207C110.75 11.0625 109.618 9.7137 108.417 8.4608C108.061 8.08948 107.655 7.77513 107.325 7.37882C106.535 6.43177 105.76 5.46923 105.009 4.48271C103.794 2.88697 102.614 1.25875 101.397 -0.334485C101.133 -0.680319 100.776 -0.936696 100.462 -1.23555C100.133 -1.5489 99.8051 -1.86275 99.477 -2.1766C99.5153 -2.25806 99.5539 -2.34052 99.5917 -2.42198C100.946 -2.03967 102.285 -1.53891 103.659 -1.30902C105.063 -1.07363 106.298 -0.492409 107.521 0.263728C108.595 0.92841 109.747 1.43467 110.863 2.01389C112.493 2.86098 114.102 3.76105 115.757 4.54018C116.856 5.05743 118.019 5.40226 119.155 5.82106C119.261 5.86054 119.4 5.84605 119.478 5.91902C120.503 6.87456 121.794 7.02948 123.001 7.45828C123.735 7.71865 124.402 8.21092 125.118 8.54675C126.498 9.19444 127.944 9.68771 129.263 10.4608C130.747 11.3319 132.119 12.4409 133.54 13.4449C133.826 13.6463 134.1 13.8772 134.405 14.0316C136.517 15.1036 138.135 16.7753 139.359 18.9808C139.691 19.578 140.192 20.0622 140.639 20.571C142.453 22.637 144.13 24.8749 146.379 26.3987C146.474 26.4622 146.582 26.5426 146.63 26.6461C147.284 28.0799 148.547 28.7311 149.633 29.6052C150.756 30.5077 151.908 31.3648 153.023 32.2784C154.137 33.1914 155.173 34.2324 156.327 35.072C158.415 36.5908 160.358 38.4464 163.058 38.5659C164.622 38.6348 166.171 39.0726 167.736 39.1561C168.801 39.213 169.881 38.9462 170.954 38.8192C171.471 38.7583 171.985 38.6553 172.503 38.6238C174.279 38.5164 175.254 37.2115 174.942 35.237C174.697 33.6857 174.257 32.2494 173.129 31.1409C171.468 29.5072 169.904 27.7505 168.259 26.0958C166.482 24.3087 164.578 22.671 162.882 20.7949C161.306 19.0522 159.514 17.7518 157.561 16.6669C157.294 16.5184 157.039 16.334 156.796 16.1391C155.459 15.0661 154.167 13.9132 152.783 12.9227C150.674 11.4119 148.475 10.059 146.367 8.54576C145.141 7.66568 144.017 6.60519 142.849 5.62316C142.7 5.49722 142.574 5.3303 142.415 5.22285C140.813 4.14037 139.235 3.00591 137.59 2.01339C136.642 1.44116 135.598 1.04835 134.571 0.668035C132.652 -0.0431242 131.045 -1.36149 129.405 -2.60789C128.674 -3.16263 127.907 -3.50446 127.069 -3.79033C125.001 -4.49649 122.832 -4.2676 120.747 -4.76636C119.278 -5.11719 117.799 -5.3131 116.293 -5.27761C115.972 -5.27012 115.651 -5.49551 115.324 -5.58247C114.273 -5.86083 113.222 -6.1417 112.165 -6.38808C111.329 -6.58349 110.478 -6.69543 109.645 -6.90483C108.123 -7.28715 106.587 -7.01228 105.06 -7.09224C103.143 -7.19169 101.19 -6.88084 99.3156 -7.58001C98.2575 -7.97432 97.2123 -8.41261 96.1617 -8.83141C95.4944 -9.09778 94.8279 -9.36565 94.1606 -9.63252C94.1255 -9.64602 94.0761 -9.6725 94.0525 -9.65651C93.026 -8.94735 92.6512 -10.0063 92.0652 -10.5531C91.2454 -11.3182 90.4678 -11.0733 89.9409 -10.0293C89.3559 -8.87139 89.1682 -7.76242 89.5835 -6.43156C89.9094 -5.38456 89.9543 -4.21312 90.0414 -3.08866C90.1552 -1.62487 90.2286 -0.154071 90.2366 1.31372C90.2401 2.00889 90.0521 2.70456 89.9503 3.40072C89.9076 3.68859 89.8711 3.97795 89.8209 4.26431C89.7426 4.71709 89.7053 5.18887 89.5635 5.61616C88.9104 7.58322 88.2275 9.53778 87.5535 11.4958C87.4992 11.6528 87.4543 11.8212 87.369 11.9561C86.0258 14.0831 85.7506 16.6399 85.1695 19.0572C84.5569 21.6105 84.0376 24.2017 83.6468 26.8095C83.3187 29.0004 83.204 31.2354 83.0506 33.4553C82.9759 34.5373 83.08 35.6353 83.0106 36.7187C82.9413 37.8122 83.2231 38.7987 83.525 39.7983C84.1892 41.9942 84.8077 44.2102 85.515 46.3881C86.1726 48.4156 86.2633 50.4806 86.1343 52.6026C86.0512 53.981 86.0956 55.3688 86.0845 56.7521C86.0828 56.9201 86.1232 57.0945 86.097 57.2564C85.6164 60.2315 85.9352 63.2165 85.9716 66.2011C85.9863 67.4475 86.197 68.6039 86.5602 69.7704C87.5521 72.9544 88.4902 76.1588 89.4452 79.3573C89.5408 79.6761 89.6822 80.0045 89.6813 80.3283C89.6786 81.9735 90.3642 83.4228 90.671 84.9751C91.1627 87.4699 91.6642 89.9577 91.6375 92.5605C91.6144 94.8604 91.7091 97.1887 92.0225 99.4566C92.3093 101.533 93.0051 103.524 94.3086 105.14C95.128 106.156 95.2343 106.152 96.3453 105.742C98.0583 105.11 98.8924 103.715 99.2374 101.809C99.3299 101.299 99.6033 100.826 99.8091 100.345C100.017 99.8579 100.328 99.4062 100.447 98.8954C100.864 97.1078 101.328 95.3196 101.57 93.4975C101.981 90.3865 102.8 87.32 102.611 84.1335C102.54 82.9306 102.477 81.7201 102.104 80.5387C100.948 76.8835 99.9327 73.1702 98.7354 69.5335C98.1677 67.8098 98.0472 66.0137 97.7093 64.2565C97.5328 63.3355 97.6351 62.332 97.6924 61.3709C97.7845 59.8252 98.0054 58.2869 98.0597 56.7401C98.125 54.903 98.0739 53.0609 98.0686 51.2203C98.0672 50.9694 97.9996 50.7145 98.0228 50.4681C98.1828 48.8124 97.7338 47.2192 97.6511 45.5995C97.5688 43.9972 96.9824 42.5954 96.681 41.0901C96.3062 39.2165 96.0808 37.305 95.7847 35.4104C95.7202 34.9986 95.6575 34.5803 95.5424 34.1845C95.0066 32.3408 94.4593 30.5012 93.9023 28.6661C93.4305 27.1109 93.0371 25.5611 92.9357 23.8874C92.8148 21.8744 92.6472 19.8723 92.7681 17.8533C92.7828 17.6034 92.7783 17.343 92.7348 17.0992C92.5507 16.0706 92.6765 15.1091 93.0598 14.1461C93.367 13.3749 93.3812 12.5718 93.2585 11.6887C93.1051 10.5878 93.206 9.42783 93.2909 8.30187C93.4674 5.97049 94.2424 3.73207 94.1477 1.34921C94.1255 0.795474 94.3006 0.231744 94.3882 -0.34348C94.5616 -0.255023 94.6603 -0.241029 94.6767 -0.191053C95.3965 1.92443 96.5067 3.84801 97.0242 6.07044C97.4128 7.73964 97.9512 9.36586 98.4393 11.0051C98.7012 11.8857 98.9982 12.7527 98.9071 13.7078C98.8991 13.7912 98.9053 13.8792 98.9222 13.9602C99.2743 15.7173 99.6282 17.474 99.9856 19.2301C100.027 19.4345 100.143 19.6344 100.14 19.8353C100.118 21.7039 100.877 23.3442 101.324 25.0758C101.437 25.5146 101.467 25.9809 101.536 26.4347C101.611 26.9299 101.684 27.4247 101.76 27.9195C101.867 28.6176 101.973 29.3158 102.086 30.013C102.139 30.3433 102.181 30.6801 102.275 30.997C102.821 32.8376 103.322 34.6992 103.96 36.4993C104.3 37.4584 104.84 38.3445 105.368 39.2025C106.815 41.5509 108.285 43.8803 109.778 46.1917C111.426 48.7425 113.143 51.2373 114.763 53.8105C115.601 55.1424 116.298 56.5862 117.048 57.986C117.453 58.7412 117.767 59.5713 118.248 60.2565C118.829 61.0846 119.08 62.0321 119.354 62.9941C119.892 64.8817 120.446 66.7633 120.999 68.6454C121.315 69.7199 121.622 70.7709 121.707 71.9373C121.785 73.0003 122.277 74.0208 122.547 75.0728C122.691 75.6316 122.752 76.2173 122.85 76.7905C123.141 78.4822 123.518 80.1384 124.357 81.6182C124.535 81.9325 124.656 82.2954 124.765 82.6502C125.083 83.6862 125.357 84.7412 125.7 85.7662C125.881 86.307 126.182 86.7952 126.405 87.3185C126.616 87.8087 126.82 88.305 126.988 88.8147C127.413 90.1071 127.562 91.5334 128.473 92.5884C128.571 92.7009 128.61 92.8883 128.65 93.0487C129.348 95.7929 130.753 98.1448 132.025 100.556C132.527 101.506 133.402 102.198 134.021 103.084C134.481 103.742 135.06 104.142 135.679 104.549C136.281 104.945 136.843 104.934 137.351 104.478C138.201 103.715 139.01 102.861 139.262 101.616C139.719 99.3612 140.219 97.0998 140.125 94.7634C140.077 93.553 139.945 92.3361 139.732 91.1491C139.533 90.0427 139.245 88.9732 139.122 87.8297C138.926 86.0086 138.436 84.2284 138.082 82.4273C137.995 81.981 137.953 81.5237 137.893 81.071C137.833 80.6152 137.79 80.1564 137.715 79.7041C137.667 79.4163 137.493 79.1294 137.513 78.8555C137.624 77.3617 137.061 76.0504 136.664 74.697C135.326 70.1302 133.901 65.5944 132.645 60.9996C131.95 58.4603 130.838 56.2329 129.53 54.0539C127.352 50.4267 124.575 47.4241 121.852 44.3566C121.666 44.1482 121.451 43.9683 121.287 43.7399C120.001 41.9407 118.689 40.1616 117.455 38.3175C116.355 36.6758 115.35 34.9541 114.293 33.2764C114.055 32.9001 113.763 32.5682 113.515 32.1994C112.479 30.6606 111.323 29.1988 110.456 27.5471C109.779 26.2518 108.761 25.0998 108.593 23.3562Z" fill="#652815"/>
<path fill-rule="evenodd" clip-rule="evenodd" d="M-18 91.5315C-17.732 89.6469 -17.5267 87.747 -17.1797 85.8809C-16.7899 83.7849 -16.4111 81.6634 -15.7697 79.6562C-15.0956 77.5449 -14.1345 75.547 -13.266 73.5164C-12.244 71.1303 -11.2356 68.734 -10.1282 66.398C-9.11522 64.2601 -7.9651 62.206 -6.90129 60.0978C-6.01281 58.3378 -5.16249 56.5534 -4.29399 54.7802C-3.51907 53.198 -2.7596 51.6045 -1.96378 50.0346C-1.16161 48.4524 -0.563839 46.8293 -0.452097 44.9631C-0.368519 43.5638 -0.0342045 42.1828 0.18837 40.7936C0.250145 40.4065 0.385508 40.0132 0.360979 39.6322C0.0593681 34.9071 2.05163 31.0134 3.92034 27.0686C4.77884 25.2565 5.88172 23.6427 7.1672 22.2116C8.51536 20.7111 10.0879 19.9277 12.0902 20.4977C13.6046 20.9287 15.1599 20.9093 16.6979 20.3833C17.3602 20.1565 18.0815 20.0656 18.7774 20.0574C22.3513 20.0145 25.9252 19.9645 29.4973 20.036C30.6337 20.0584 31.7902 20.3444 32.8913 20.6958C34.9153 21.3414 36.9694 21.9573 38.889 22.9001C40.5769 23.7295 42.1849 24.8572 43.6675 26.0941C45.3118 27.4649 47.1642 28.0246 49.0838 28.4608C50.7481 28.8397 52.3034 29.6038 53.5616 30.7846C55.7101 32.7998 56.4014 35.5874 55.7828 38.6129C55.1423 41.7405 54.4664 44.8549 53.4226 47.8814C52.3769 50.913 51.8091 54.1489 50.9061 57.2479C50.2493 59.5012 49.5425 61.73 49.1937 64.0763C48.7803 66.8556 47.9627 69.5317 47.7038 72.3642C47.5257 74.3121 46.8798 76.2007 46.4974 78.1302C45.9859 80.7083 45.5843 83.3171 45.0247 85.8809C44.655 87.5744 43.98 89.1852 43.6384 90.8839C43.0788 93.6683 41.7897 96.1147 40.9648 98.7622C39.9255 102.097 37.7089 104.569 36.2253 107.564C35.4686 109.092 34.6165 110.582 34.0468 112.196C33.6126 113.428 33.5726 114.832 33.3237 116.151C33.1466 117.088 32.9494 118.023 32.6987 118.939C31.6421 122.783 27.6731 124.199 24.7278 121.871C22.6338 120.218 20.5434 118.513 18.2913 117.171C16.5407 116.128 14.5639 115.53 12.6489 114.879C10.7756 114.244 8.85785 113.773 6.95189 113.271C5.7827 112.962 4.60623 112.669 3.41887 112.474C0.00940132 111.914 -3.03032 110.357 -5.76026 108.074C-7.60807 106.528 -9.53584 104.987 -11.0257 103.051C-12.6155 100.986 -14.3607 99.1412 -16.1222 97.2985C-17.6412 95.7122 -17.94 93.7306 -18 91.5315Z" fill="#BF7805"/>
<path fill-rule="evenodd" clip-rule="evenodd" d="M68.92 40.3313C68.92 40.7318 68.8848 41.1364 68.9255 41.5317C69.2513 44.7262 68.4813 47.6451 67.1384 50.4184C66.0426 52.6809 64.5609 54.5119 62.4248 55.6049C61.727 55.9631 61.0171 56.3078 60.3591 56.7444C58.8968 57.7136 57.33 58.0387 55.6456 57.9964C54.2684 57.9623 53.0292 57.6661 51.925 56.6722C50.8829 55.735 49.628 55.5636 48.3054 55.5358C44.9931 55.4656 41.826 54.7276 38.8718 52.9224C37.2448 51.9284 35.9833 50.5485 34.9282 48.9208C33.9102 47.3478 32.9893 45.6943 32.0629 44.0501C30.6524 41.5472 30.7542 38.7821 31.7334 36.3029C32.7755 33.6647 34.3285 31.264 35.776 28.8467C36.5941 27.4802 37.6788 26.3159 38.5766 25.0051C38.8274 24.6407 38.9653 24.0679 38.944 23.6034C38.7774 19.897 39.8269 16.5157 41.0995 13.1871C41.8621 11.193 43.2152 10.1681 45.168 10.1413C47.0134 10.1175 48.8866 9.85329 50.6988 10.1144C53.5604 10.5262 56.5313 10.5324 59.156 12.222C61.3124 13.6092 63.0079 15.4681 63.8973 18.0846C64.9135 21.0747 65.8732 24.0927 66.7608 27.1334C67.4707 29.5682 68.1713 32.0247 68.6201 34.5286C68.957 36.4144 68.8885 38.3899 68.9996 40.3262C68.9727 40.3272 68.9459 40.3293 68.92 40.3313Z" fill="#652815"/>
<path fill-rule="evenodd" clip-rule="evenodd" d="M420.101 206.742C419.472 203.209 418.818 199.682 418.231 196.141C418.054 195.071 418.044 193.962 417.995 192.87C417.899 190.744 417.758 188.619 417.77 186.49C417.784 183.991 417.946 181.49 418.034 178.991C418.085 177.534 418.09 176.073 418.167 174.616C418.245 173.153 418.442 171.692 418.485 170.227C418.514 169.271 418.397 168.305 418.285 167.355C417.988 164.826 417.523 162.311 417.376 159.766C417.207 156.854 417.149 153.944 416.809 151.034C416.446 147.919 416.565 144.729 416.475 141.57C416.461 141.084 416.497 140.589 416.433 140.111C415.959 136.549 415.816 132.872 414.892 129.455C413.465 124.174 413.138 118.637 411.67 113.423C410.871 110.582 410.497 107.543 409.313 104.902C408.06 102.108 407.487 99.1936 406.867 96.2299C406.653 95.2092 406.023 94.2594 405.445 93.3832C404.667 92.2022 403.756 91.1242 402.903 90.001C401.231 87.803 399.649 85.515 397.856 83.4377C396.646 82.0341 395.715 80.4898 394.923 78.8116C394.162 77.1981 393.471 75.5412 392.648 73.9667C391.853 72.4418 390.868 71.0326 390.075 69.5071C389.006 67.4524 387.856 65.4128 387.077 63.2223C386.033 60.2901 385.347 57.2077 384.439 54.2158C383.969 52.6639 383.497 51.0762 382.766 49.6638C381.426 47.0805 379.867 44.6329 378.449 42.0954C377.462 40.3298 376.521 38.5328 375.637 36.7044C375.306 36.0192 375.135 35.2222 374.992 34.4523C374.471 31.6439 374.001 28.823 373.495 26.0096C373.192 24.332 372.88 22.6713 373.121 20.9233C373.202 20.3413 372.984 19.7222 372.928 19.1163C372.85 18.2696 372.697 17.4154 372.752 16.5725C372.935 13.7629 372.235 11.1041 371.577 8.48748C371.193 6.9557 370.291 5.50125 369.361 4.23472C367.043 1.07877 365.007 -2.28774 363.629 -6.00122C362.337 -9.4815 361.3 -13.1635 362.595 -17.0461C364.117 -21.6113 366.88 -25.1425 370.599 -27.8597C370.835 -28.0325 371.109 -28.1476 371.335 -28.3349C375.144 -31.4726 379.36 -33.7957 383.776 -35.7285C384.247 -35.9334 384.657 -36.2986 385.113 -36.5532C385.821 -36.9479 386.515 -37.44 387.269 -37.6638C390.003 -38.474 392.608 -39.5143 394.651 -41.7789C394.769 -41.9097 394.911 -42.0448 395.067 -42.1077C397.402 -43.0455 398.969 -45.0926 400.85 -46.6961C402.142 -47.7998 403.685 -48.556 404.989 -49.6484C407.287 -51.5724 409.722 -53.2908 411.466 -55.9615C413.302 -58.7749 415.363 -61.4117 417.751 -63.7926C421.076 -67.1051 424.977 -69.2126 429.024 -71.1184C430.849 -71.9795 432.755 -72.2008 434.726 -71.8217C436.288 -71.5207 437.877 -71.3673 439.457 -71.168C441.846 -70.8651 444.145 -70.2541 446.299 -69.1089C446.705 -68.8946 447.125 -68.7104 447.533 -68.5005C451.197 -66.6129 454.885 -64.7744 458.509 -62.8058C459.809 -62.0993 460.985 -61.1175 462.165 -60.1866C464.254 -58.5386 466.241 -56.7384 468.386 -55.1765C471.199 -53.1274 473.739 -50.7465 476.272 -48.3341C477.364 -47.2945 478.601 -46.4296 479.761 -45.4698C482.438 -43.2522 485.197 -41.2208 488.428 -39.9498C490.44 -39.1585 492.333 -38.0422 494.276 -37.0648C494.53 -36.9359 494.802 -36.8014 494.998 -36.5959C497.487 -33.9837 500.345 -31.7655 502.172 -28.4562C503.467 -26.1142 504.879 -23.842 506.359 -21.6339C507.311 -20.2153 508.56 -19.0311 509.537 -17.6313C511.884 -14.266 514.649 -11.3785 517.816 -8.92461C517.861 -8.88752 517.913 -8.85735 517.951 -8.81461C520.016 -6.42989 522.169 -4.12563 524.111 -1.6328C525.333 -0.0645676 526.432 1.68658 527.248 3.53263C528.711 6.84194 530.754 9.89983 531.111 13.734C531.246 15.1872 531.622 16.6071 531.835 18.0521C531.95 18.8309 532.023 19.6323 531.993 20.4199C531.888 23.1629 531.765 25.9052 531.573 28.6438C531.463 30.2246 531.148 31.7916 531.034 33.3724C530.824 36.2952 530.589 39.2242 530.563 42.1489C530.541 44.5154 530.815 46.8793 530.949 49.2452C531.017 50.4564 531.083 51.6695 531.115 52.8832C531.167 54.8305 531.194 56.7784 531.223 58.7262C531.261 61.2361 531.18 63.7358 530.369 66.1538C530.272 66.4417 530.155 66.7516 530.163 67.0457C530.265 70.5317 528.379 73.3432 527.252 76.4118C526.94 77.2609 526.613 78.1057 526.284 78.9492C526.084 79.4583 525.946 80.0247 525.643 80.4552C524.307 82.356 523.559 84.5571 522.631 86.6747C521.904 88.3335 520.874 89.8451 520.137 91.5001C519.126 93.7698 518.303 96.13 517.33 98.4192C516.114 101.282 515.268 104.273 514.323 107.235C513.49 109.843 512.407 112.364 511.543 114.963C511.223 115.926 511.093 117.003 511.087 118.026C511.066 120.952 511.189 123.877 511.184 126.803C511.183 128.63 511.042 130.461 510.986 132.29C510.968 132.898 510.984 133.514 511.056 134.113C511.26 135.802 511.686 137.473 511.216 139.2C511.201 139.257 511.201 139.326 511.214 139.382C512.271 143.965 512.094 148.826 514.115 153.214C515.922 157.135 516.776 161.455 517.251 165.839C517.284 166.14 517.299 166.455 517.252 166.753C516.701 170.312 516.587 173.956 515.45 177.402C514.763 179.483 513.829 181.474 513.147 183.555C512.325 186.059 511.301 188.459 510.073 190.758C509.189 192.412 508.178 193.992 507.244 195.616C506.854 196.296 506.488 196.995 506.165 197.711C505.07 200.144 503.991 202.588 502.923 205.035C502.681 205.59 502.537 206.193 502.294 206.747C501.907 207.632 501.577 208.579 501.035 209.348C500.226 210.497 499.913 211.738 499.822 213.114C499.632 215.98 499.593 218.875 499.136 221.698C498.652 224.682 498.575 227.788 497.047 230.553C495.453 233.439 493.616 236.117 491.43 238.5C490.767 239.223 489.842 239.757 488.952 240.135C487.729 240.653 486.767 241.477 485.902 242.48C482.681 246.228 478.644 248.702 474.477 250.93C470.87 252.86 467.089 254.257 463.101 254.906C462.311 255.033 461.516 255.188 460.748 255.429C456.939 256.617 453.039 256.614 449.21 256.241C445.995 255.928 442.968 254.864 440.523 252.222C437.837 249.317 435.789 245.941 433.591 242.661C433.031 241.826 432.553 240.928 432.013 240.078C430.706 238.013 429.698 235.807 429.17 233.346C429.032 232.703 428.873 231.969 428.486 231.503C426.407 229.002 425.541 225.812 424.186 222.899C422.884 220.098 422.124 217.13 421.621 214.055C421.217 211.592 420.754 209.143 420.317 206.689C420.246 206.708 420.173 206.725 420.101 206.742Z" fill="#5B5A1B"/>
<path fill-rule="evenodd" clip-rule="evenodd" d="M492.795 79.2493C492.871 78.225 492.847 77.2661 493.592 76.4377C493.801 76.2047 493.768 75.7483 493.833 75.3924C494.038 74.2675 494.685 73.5724 495.813 73.3418C495.92 73.32 496.037 73.3295 496.137 73.292C497.073 72.9452 497.973 72.883 498.832 73.5212C499.817 74.2528 500.472 75.2198 500.599 76.4187C500.711 77.4706 500.849 78.4911 501.156 79.5131C501.465 80.5441 501.366 81.6069 500.763 82.5663C500.629 82.7812 500.53 83.0184 500.416 83.2466C499.645 84.7867 498.041 85.283 496.57 84.3834C496.177 84.1438 495.82 84.0252 495.361 84.0181C494.409 84.0039 493.694 83.4976 493.482 82.6412C493.204 81.5225 493.019 80.3814 492.795 79.2493Z" fill="#F7E5D7"/>
<path fill-rule="evenodd" clip-rule="evenodd" d="M486.261 51.5301C486.485 49.1872 487.838 46.897 490.651 45.6027C491.068 45.4114 491.556 45.3137 492.016 45.2924C493.387 45.2269 494.244 45.9153 494.428 47.2671C494.526 47.9925 494.677 48.6529 495.027 49.3172C495.257 49.7527 495.306 50.4165 495.159 50.8933C494.732 52.2754 494.194 53.6248 493.646 54.9656C493.267 55.8913 492.523 56.3098 491.516 56.4113C490.281 56.5361 489.187 56.4526 488.476 55.2489C488.396 55.1132 488.19 55.0396 488.03 54.9656C486.571 54.2952 486.195 53.7178 486.261 51.5301Z" fill="#F7E5D7"/>
<path fill-rule="evenodd" clip-rule="evenodd" d="M484.982 29.244C484.982 28.4076 484.979 27.5716 484.982 26.7351C484.986 25.651 485.3 24.7386 486.325 24.1768C486.569 24.043 486.737 23.7787 486.955 23.5918C487.396 23.2146 487.811 22.7905 488.301 22.4911C489.637 21.6759 491.108 22.2975 491.617 23.7697C492.2 25.4531 492.272 27.1906 492.204 28.9257C492.167 29.8888 491.861 30.8458 491.629 31.7938C491.544 32.1382 491.347 32.4656 491.155 32.7716C490.538 33.7528 487.854 34.8484 486.718 34.6026C485.69 34.3801 484.966 33.48 484.908 32.2958C484.882 31.789 484.931 31.2785 484.937 30.7699C484.944 30.2608 484.938 29.7517 484.938 29.2431C484.953 29.244 484.968 29.244 484.982 29.244Z" fill="#F7E5D7"/>
<path fill-rule="evenodd" clip-rule="evenodd" d="M461.917 7.69646C461.917 6.89652 461.91 6.09658 461.92 5.29712C461.928 4.56076 462.208 3.97338 462.833 3.5364C463.082 3.36133 463.247 3.06289 463.445 2.81617C463.715 2.47931 463.934 2.08076 464.26 1.81032C465.079 1.12805 466.159 1.27608 466.71 2.1823C466.986 2.6373 467.347 2.92862 467.735 3.25505C468.135 3.59191 468.564 4.02557 468.719 4.50145C469.354 6.4586 469.62 8.45132 468.847 10.4526C468.598 11.096 468.354 11.7417 468.115 12.3893C467.366 14.4162 464.45 14.2279 463.626 12.8709C463.448 12.5767 463.178 12.2987 462.886 12.1198C462.155 11.671 461.855 11.0281 461.855 10.2045C461.856 9.36845 461.855 8.53293 461.855 7.69646C461.876 7.69646 461.896 7.69646 461.917 7.69646Z" fill="#F7E5D7"/>
<path fill-rule="evenodd" clip-rule="evenodd" d="M481.848 34.9496C481.928 37.655 480.869 39.9723 479.284 42.0618C478.327 43.3224 476.963 43.4913 475.586 42.6999C475.397 42.5917 475.212 42.4755 475.037 42.3469C473.505 41.221 473.108 40.0667 473.716 38.2547C474.211 36.7777 474.775 35.3221 475.319 33.8612C475.393 33.66 475.485 33.4162 475.646 33.3047C476.817 32.4938 477.881 31.442 479.469 31.5188C480.865 31.5867 481.752 32.4516 481.845 33.8588C481.868 34.2213 481.848 34.5862 481.848 34.9496Z" fill="#F7E5D7"/>
<path fill-rule="evenodd" clip-rule="evenodd" d="M459.994 105.407C460.205 104.842 459.999 104.441 459.63 104.016C459.1 103.405 459.087 102.66 459.484 101.974C460.155 100.814 460.774 99.6078 461.95 98.8311C462.211 98.6598 462.377 98.35 462.598 98.1142C462.994 97.6895 463.36 97.2255 463.809 96.8635C464.54 96.2714 465.553 96.3397 466.199 96.983C467.447 98.2261 467.933 99.6414 467.49 101.44C467.061 103.183 466.446 104.831 465.674 106.439C465.025 107.792 463.722 108.698 462.433 108.632C461.138 108.565 460.348 107.872 460.127 106.586C460.059 106.193 460.037 105.792 459.994 105.407Z" fill="#F7E5D7"/>
<path fill-rule="evenodd" clip-rule="evenodd" d="M469.34 71.1114C469.34 71.5484 469.309 71.9877 469.346 72.4214C469.496 74.1588 468.531 75.2349 467.164 76.022C466.107 76.6312 464.808 76.4287 463.983 75.4603C463.428 74.8093 463.044 74.0023 462.641 73.2351C461.835 71.6945 461.693 70.0344 461.946 68.3467C462.019 67.8675 462.213 67.3143 462.541 66.985C463.175 66.3492 463.902 65.7804 464.666 65.3078C465.793 64.6118 467.137 64.9904 467.954 66.057C469.109 67.5634 469.382 69.2857 469.34 71.1114Z" fill="#F7E5D7"/>
<path fill-rule="evenodd" clip-rule="evenodd" d="M513.611 30.1336C513.731 31.5081 513.028 32.6108 512.354 33.6797C511.771 34.604 509.21 35.2141 508.147 34.9143C506.97 34.5826 505.953 32.3465 506.381 31.1637C506.563 30.6598 506.675 30.1279 506.781 29.6008C506.904 28.9854 507.233 28.5503 507.77 28.2353C508.303 27.9236 508.838 27.6076 509.33 27.238C511.032 25.9617 513.054 26.7161 513.499 28.8293C513.589 29.2525 513.576 29.6981 513.611 30.1336Z" fill="#F7E5D7"/>
<path fill-rule="evenodd" clip-rule="evenodd" d="M424.864 57.8972C423.852 57.8915 423.015 57.0731 423 56.016C422.996 55.6644 423.058 55.2678 423.225 54.9655C424.059 53.4454 424.866 51.9001 425.832 50.4653C426.302 49.7683 427.052 49.2203 427.764 48.7359C428.409 48.2984 429.161 48.3829 429.819 48.8374C430.451 49.2739 430.803 50.128 430.553 50.8643C430.043 52.3717 429.465 53.8567 428.912 55.3498C428.215 57.2278 426.715 57.8403 424.864 57.8972Z" fill="#F7E5D7"/>
<path fill-rule="evenodd" clip-rule="evenodd" d="M502.213 70.2037C502.122 68.7111 502.937 67.5804 503.775 66.4878C504.144 66.0071 504.656 65.6242 505.145 65.2508C505.696 64.8305 506.158 64.9434 506.727 65.2997C507.775 65.9564 508.253 66.7463 507.733 67.9833C507.633 68.2195 507.777 68.5526 507.789 68.842C507.849 70.3276 507.043 71.5061 505.665 71.9839C505.465 72.0532 505.279 72.1704 505.099 72.2833C503.704 73.1482 502.392 72.503 502.217 70.8571C502.193 70.6412 502.213 70.4215 502.213 70.2037Z" fill="#F7E5D7"/>
<path fill-rule="evenodd" clip-rule="evenodd" d="M449.715 111.096C449.751 111.567 449.812 112.038 449.818 112.509C449.837 113.964 448.924 114.854 447.418 114.872C445.997 114.89 445.094 114.014 445.09 112.581C445.089 112.185 445.149 111.785 445.217 111.394C445.323 110.791 445.482 110.197 445.579 109.594C445.687 108.925 445.931 108.348 446.451 107.887C447.657 106.818 449.184 107.242 449.56 108.82C449.734 109.552 449.702 110.334 449.763 111.093C449.747 111.093 449.731 111.095 449.715 111.096Z" fill="#F7E5D7"/>
<path fill-rule="evenodd" clip-rule="evenodd" d="M476.629 25.0327C475.091 25.038 473.939 23.5074 474.575 22.0778C475.1 20.8978 475.837 19.7795 476.651 18.7708C477.433 17.801 478.64 17.7289 479.492 18.3628C480.359 19.0076 480.531 20.0936 479.974 21.2105C479.553 22.0527 479.186 22.9219 478.758 23.7598C478.322 24.6162 477.588 25.0266 476.629 25.0327Z" fill="#F7E5D7"/>
<path fill-rule="evenodd" clip-rule="evenodd" d="M500.322 20.4566C500.571 19.5148 500.814 18.5716 501.072 17.6317C501.259 16.9518 501.653 16.5608 502.424 16.6927C502.633 16.7283 502.858 16.6657 503.075 16.6685C504.085 16.6804 504.843 17.2274 505.052 18.2067C505.365 19.6752 505.191 21.109 504.468 22.4351C503.896 23.4808 503.51 23.5937 502.35 23.2004C500.766 22.6643 500.401 22.1433 500.322 20.4566Z" fill="#F7E5D7"/>
<path fill-rule="evenodd" clip-rule="evenodd" d="M476.175 62.6816C476.175 63.009 476.209 63.3402 476.169 63.6623C476.04 64.6905 475.269 65.4715 474.261 65.6323C473.284 65.7884 472.338 65.3448 471.883 64.4533C471.688 64.0708 471.518 63.6391 471.482 63.2178C471.387 62.1066 471.686 61.0495 472.207 60.0821C472.628 59.3021 473.411 59.2143 474.211 59.2916C475.063 59.3737 475.649 59.8648 475.898 60.6434C476.104 61.2915 476.144 61.9922 476.258 62.6702C476.231 62.674 476.203 62.6778 476.175 62.6816Z" fill="#F7E5D7"/>
<path fill-rule="evenodd" clip-rule="evenodd" d="M458.111 82.5292C457.981 83.4188 457.923 84.2908 457.712 85.1235C457.47 86.0748 456.326 86.5502 455.316 86.2204C454.385 85.9168 453.86 84.8839 454.203 83.9459C454.536 83.0354 454.897 82.1334 455.287 81.2462C455.53 80.6963 455.918 80.2323 456.585 80.2456C457.249 80.2589 457.635 80.7286 457.854 81.2865C458.01 81.6818 458.034 82.1297 458.111 82.5292Z" fill="#F7E5D7"/>
<path fill-rule="evenodd" clip-rule="evenodd" d="M433.719 37.6356C432.819 37.6166 432.332 37.3556 432.075 36.7559C431.854 36.2397 431.909 35.6936 432.326 35.3525C433.129 34.6968 433.792 33.8295 434.846 33.5192C435.122 33.438 435.405 33.3403 435.687 33.3346C436.216 33.3246 436.694 33.4769 436.96 33.9969C437.219 34.5037 437.138 34.99 436.808 35.4246C436.614 35.6808 436.379 35.9152 436.129 36.1192C435.683 36.4836 435.233 36.8503 434.746 37.1545C434.361 37.396 433.919 37.5445 433.719 37.6356Z" fill="#F7E5D7"/>
<path fill-rule="evenodd" clip-rule="evenodd" d="M455.614 62.1308C455.583 62.2523 455.56 62.5132 455.453 62.7348C455.171 63.3207 454.856 63.892 454.548 64.4656C454.48 64.5918 454.392 64.71 454.3 64.8205C453.623 65.6304 452.869 65.814 452.231 65.3306C451.566 64.8257 451.477 63.9086 452.012 63.0921C452.229 62.7604 452.446 62.4283 452.644 62.0853C452.988 61.4898 453.501 61.0993 454.142 60.9034C454.956 60.6543 455.59 61.1463 455.614 62.1308Z" fill="#F7E5D7"/>
</g>
<defs>
<clipPath id="clip0_200_16829">
<rect width="532" height="130" rx="20" fill="white"/>
</clipPath>
</defs>
</svg>
