<svg width="250" height="140" viewBox="0 0 250 140" fill="none" xmlns="http://www.w3.org/2000/svg">
<g clip-path="url(#clip0_200_16002)">
<rect width="250" height="140" rx="20" fill="#F7E5D7"/>
<path fill-rule="evenodd" clip-rule="evenodd" d="M136.101 203.357C135.472 199.824 134.818 196.298 134.231 192.757C134.054 191.687 134.044 190.577 133.995 189.486C133.899 187.359 133.758 185.234 133.77 183.106C133.784 180.607 133.946 178.106 134.034 175.607C134.085 174.149 134.09 172.688 134.167 171.231C134.245 169.768 134.442 168.307 134.485 166.842C134.514 165.886 134.397 164.921 134.285 163.97C133.988 161.441 133.523 158.926 133.376 156.382C133.207 153.47 133.149 150.559 132.809 147.649C132.446 144.535 132.565 141.344 132.475 138.186C132.461 137.699 132.497 137.204 132.433 136.726C131.959 133.164 131.816 129.487 130.892 126.07C129.465 120.789 129.138 115.252 127.67 110.038C126.871 107.197 126.497 104.158 125.313 101.517C124.06 98.7235 123.487 95.809 122.867 92.8453C122.653 91.8246 122.023 90.8748 121.445 89.9986C120.667 88.8176 119.756 87.7396 118.903 86.6164C117.231 84.4184 115.649 82.1304 113.856 80.0531C112.646 78.6495 111.715 77.1052 110.923 75.427C110.162 73.8135 109.471 72.1566 108.648 70.5821C107.853 69.0572 106.868 67.648 106.075 66.1225C105.006 64.0678 103.856 62.0282 103.077 59.8376C102.033 56.9055 101.347 53.823 100.439 50.8312C99.9685 49.2793 99.4972 47.6916 98.7657 46.2792C97.4264 43.6959 95.867 41.2483 94.4491 38.7108C93.4625 36.9452 92.521 35.1482 91.6374 33.3197C91.3059 32.6346 91.1354 31.8376 90.9922 31.0676C90.4708 28.2593 90.0006 25.4384 89.4947 22.625C89.1922 20.9474 88.8802 19.2867 89.1214 17.5387C89.2017 16.9567 88.9838 16.3376 88.9276 15.7317C88.8501 14.885 88.6969 14.0308 88.7515 13.1879C88.9354 10.3783 88.2345 7.71952 87.5766 5.10287C87.1927 3.57109 86.2907 2.11664 85.3609 0.850105C83.0427 -2.30584 81.007 -5.67236 79.6287 -9.38583C78.3373 -12.8661 77.3 -16.5482 78.5947 -20.4307C80.1168 -24.9959 82.8801 -28.5271 86.5988 -31.2443C86.835 -31.4171 87.1091 -31.5322 87.3353 -31.7195C91.1438 -34.8572 95.36 -37.1803 99.7763 -39.1131C100.247 -39.318 100.657 -39.6832 101.113 -39.9378C101.821 -40.3325 102.515 -40.8247 103.269 -41.0484C106.003 -41.8586 108.608 -42.8989 110.651 -45.1635C110.769 -45.2943 110.911 -45.4294 111.067 -45.4923C113.402 -46.4301 114.969 -48.4773 116.85 -50.0807C118.142 -51.1844 119.685 -51.9406 120.989 -53.033C123.287 -54.957 125.722 -56.6754 127.466 -59.3461C129.302 -62.1595 131.363 -64.7963 133.751 -67.1773C137.076 -70.4897 140.977 -72.5972 145.024 -74.503C146.849 -75.3641 148.755 -75.5854 150.726 -75.2064C152.288 -74.9053 153.877 -74.7519 155.457 -74.5527C157.846 -74.2497 160.145 -73.6387 162.299 -72.4935C162.705 -72.2792 163.125 -72.095 163.533 -71.8851C167.197 -69.9976 170.885 -68.159 174.509 -66.1904C175.809 -65.4839 176.985 -64.5021 178.165 -63.5713C180.254 -61.9232 182.241 -60.123 184.386 -58.5611C187.199 -56.512 189.739 -54.1311 192.272 -51.7187C193.364 -50.6791 194.601 -49.8142 195.761 -48.8544C198.438 -46.6369 201.197 -44.6054 204.428 -43.3345C206.44 -42.5431 208.333 -41.4268 210.276 -40.4494C210.53 -40.3206 210.802 -40.1861 210.998 -39.9805C213.487 -37.3683 216.345 -35.1501 218.172 -31.8408C219.467 -29.4988 220.879 -27.2266 222.359 -25.0185C223.311 -23.5999 224.56 -22.4157 225.537 -21.0159C227.884 -17.6506 230.649 -14.7631 233.816 -12.3092C233.861 -12.2721 233.913 -12.242 233.951 -12.1992C236.016 -9.81451 238.169 -7.51024 240.111 -5.01741C241.333 -3.44918 242.432 -1.69804 243.248 0.148018C244.711 3.45733 246.754 6.51522 247.111 10.3494C247.246 11.8026 247.622 13.2225 247.835 14.6675C247.95 15.4463 248.023 16.2477 247.993 17.0353C247.888 19.7783 247.765 22.5206 247.573 25.2592C247.463 26.84 247.148 28.407 247.034 29.9878C246.824 32.9106 246.589 35.8396 246.563 38.7642C246.541 41.1307 246.815 43.4947 246.949 45.8606C247.017 47.0718 247.083 48.2849 247.115 49.4986C247.167 51.4459 247.194 53.3938 247.223 55.3416C247.261 57.8514 247.18 60.3512 246.369 62.7692C246.272 63.0571 246.155 63.367 246.163 63.6611C246.265 67.1471 244.379 69.9586 243.252 73.0272C242.94 73.8763 242.613 74.7211 242.284 75.5646C242.084 76.0737 241.946 76.64 241.643 77.0706C240.307 78.9713 239.559 81.1725 238.631 83.2901C237.904 84.9489 236.874 86.4605 236.137 88.1155C235.126 90.3852 234.303 92.7454 233.33 95.0346C232.114 97.8976 231.268 100.888 230.323 103.851C229.49 106.458 228.407 108.979 227.543 111.578C227.223 112.541 227.093 113.618 227.087 114.642C227.066 117.567 227.189 120.492 227.184 123.418C227.183 125.246 227.042 127.076 226.986 128.905C226.968 129.514 226.984 130.129 227.056 130.729C227.26 132.418 227.686 134.088 227.216 135.816C227.201 135.873 227.201 135.941 227.214 135.998C228.271 140.58 228.094 145.442 230.115 149.829C231.922 153.751 232.776 158.07 233.251 162.454C233.284 162.755 233.299 163.07 233.252 163.369C232.701 166.928 232.587 170.572 231.45 174.018C230.763 176.098 229.829 178.089 229.147 180.17C228.325 182.675 227.301 185.074 226.073 187.374C225.189 189.027 224.178 190.607 223.244 192.232C222.854 192.912 222.488 193.61 222.165 194.326C221.07 196.76 219.991 199.204 218.923 201.651C218.681 202.206 218.537 202.808 218.294 203.362C217.907 204.248 217.577 205.194 217.035 205.964C216.226 207.112 215.913 208.353 215.822 209.729C215.632 212.595 215.593 215.49 215.136 218.313C214.652 221.298 214.575 224.403 213.047 227.168C211.453 230.054 209.616 232.732 207.43 235.116C206.767 235.839 205.842 236.372 204.952 236.75C203.729 237.269 202.767 238.092 201.902 239.096C198.681 242.844 194.644 245.317 190.477 247.545C186.87 249.476 183.089 250.872 179.101 251.522C178.311 251.649 177.516 251.804 176.748 252.044C172.939 253.233 169.039 253.229 165.21 252.856C161.995 252.544 158.968 251.479 156.523 248.837C153.837 245.933 151.789 242.556 149.591 239.277C149.031 238.441 148.553 237.543 148.013 236.693C146.706 234.629 145.698 232.422 145.17 229.962C145.032 229.318 144.873 228.585 144.486 228.119C142.407 225.618 141.541 222.428 140.186 219.514C138.884 216.714 138.124 213.745 137.621 210.67C137.217 208.208 136.754 205.758 136.317 203.304C136.246 203.324 136.173 203.34 136.101 203.357Z" fill="#5B5A1B"/>
<path d="M151.705 87.769C153.982 88.2771 156.052 88.8479 157.876 89.4717C159.7 90.0956 161.277 90.7721 162.57 91.4912C163.863 92.2104 164.871 92.9724 165.556 93.7666C166.24 94.561 166.602 95.3878 166.602 96.237C166.602 97.7663 165.429 99.2234 163.307 100.548C161.186 101.874 158.116 103.067 154.323 104.069C150.529 105.071 146.013 105.882 140.997 106.443C135.981 107.003 130.466 107.313 124.678 107.313C118.889 107.313 113.375 107.003 108.359 106.443C103.344 105.882 98.8265 105.071 95.0331 104.069C91.2397 103.067 88.17 101.874 86.0485 100.548C83.9271 99.2234 82.7539 97.7663 82.7539 96.237C82.7539 95.2418 83.2506 94.2775 84.1819 93.3599C85.1133 92.4424 86.4794 91.572 88.2186 90.7649C89.9575 89.9579 92.0694 89.2142 94.4922 88.5501C96.9149 87.8862 99.6486 87.3019 102.631 86.8138L114.899 87.0525L127.168 87.2912L139.436 87.5299L151.705 87.769Z" fill="#449AE5"/>
<path d="M145.504 88.2652C147.2 88.6253 148.742 89.03 150.1 89.4722C151.458 89.9143 152.633 90.3938 153.596 90.9035C154.558 91.4133 155.309 91.9533 155.819 92.5164C156.329 93.0795 156.599 93.6655 156.599 94.2675C156.599 95.3515 155.725 96.3841 154.145 97.3236C152.565 98.2629 150.279 99.1087 147.454 99.8193C144.628 100.53 141.264 101.105 137.529 101.502C133.793 101.899 129.687 102.119 125.376 102.119C121.064 102.119 116.958 101.899 113.222 101.502C109.487 101.105 106.123 100.53 103.298 99.8193C100.472 99.109 98.1861 98.2631 96.6061 97.3236C95.0261 96.3844 94.1523 95.3515 94.1523 94.2675C94.1523 93.5621 94.5223 92.8785 95.2159 92.2282C95.9096 91.5779 96.927 90.9609 98.2221 90.3888C99.5172 89.8166 101.09 89.2895 102.894 88.819C104.699 88.3483 106.734 87.9343 108.956 87.5882L118.093 87.7573L127.229 87.9267L136.366 88.0961L145.504 88.2652Z" fill="#3277D1"/>
<path d="M145.941 103.165C145.916 103.316 145.975 103.433 146.093 103.522C146.211 103.611 146.388 103.671 146.599 103.709C146.811 103.747 147.056 103.762 147.311 103.758C147.565 103.755 147.828 103.734 148.076 103.7C148.925 103.584 149.923 103.4 150.932 103.176C151.941 102.951 152.961 102.687 153.854 102.41C154.748 102.133 155.515 101.844 156.018 101.57C156.521 101.296 156.76 101.038 156.597 100.824C156.474 100.661 156.292 100.536 156.064 100.447C155.837 100.358 155.564 100.305 155.258 100.288C154.952 100.27 154.614 100.287 154.255 100.338C153.897 100.389 153.518 100.474 153.132 100.591C152.652 100.738 151.969 100.935 151.212 101.159C150.456 101.382 149.626 101.631 148.853 101.88C148.081 102.129 147.365 102.378 146.837 102.601C146.308 102.823 145.966 103.02 145.941 103.165Z" fill="#E5F8FF"/>
<path d="M159.324 100.097C159.525 100.08 159.724 100.046 159.916 99.9954C160.109 99.9453 160.294 99.8794 160.47 99.7996C160.646 99.7198 160.811 99.6259 160.963 99.5197C161.115 99.4134 161.253 99.2948 161.374 99.1657C161.492 99.0392 161.549 98.9053 161.56 98.7748C161.571 98.644 161.534 98.5166 161.464 98.403C161.393 98.2893 161.288 98.1895 161.161 98.1145C161.034 98.0395 160.886 97.989 160.729 97.9737C160.435 97.9451 160.092 97.967 159.733 98.023C159.375 98.079 159.002 98.1688 158.65 98.2762C158.298 98.3837 157.966 98.5085 157.69 98.6345C157.414 98.7605 157.194 98.8875 157.065 98.999C156.836 99.1964 156.812 99.3682 156.918 99.5137C157.024 99.659 157.26 99.7781 157.549 99.8703C157.838 99.9625 158.181 100.028 158.503 100.066C158.824 100.103 159.123 100.114 159.324 100.097Z" fill="#E5F8FF"/>
<path d="M88.0648 98.9044C88.2639 98.9392 88.4647 98.9563 88.6634 98.9568C88.8621 98.9573 89.0586 98.9408 89.2487 98.9082C89.439 98.8756 89.6229 98.827 89.7968 98.7629C89.9707 98.6988 90.1343 98.6193 90.2839 98.5249C90.4302 98.4327 90.5202 98.3179 90.5638 98.1943C90.6074 98.0707 90.6045 97.938 90.565 97.8101C90.5254 97.6822 90.449 97.559 90.3456 97.4542C90.2422 97.3494 90.1117 97.2627 89.964 97.2081C89.6872 97.1057 89.3492 97.0397 88.9886 97.0026C88.6279 96.9654 88.2444 96.9575 87.8764 96.9718C87.5083 96.9861 87.1558 97.0223 86.8569 97.074C86.5579 97.1257 86.3126 97.1924 86.1594 97.2675C85.8876 97.4004 85.8211 97.5604 85.8866 97.7279C85.9522 97.8954 86.1496 98.0704 86.4062 98.2331C86.6625 98.3958 86.9779 98.5464 87.2787 98.6648C87.5791 98.7831 87.8657 98.8696 88.0648 98.9044Z" fill="#E5F8FF"/>
<path d="M89.5015 96.4072C89.5873 96.422 89.6737 96.4289 89.7595 96.4284C89.8452 96.428 89.93 96.4201 90.0122 96.4049C90.0944 96.3899 90.174 96.3675 90.2492 96.3384C90.3245 96.3093 90.3953 96.2736 90.46 96.2312C90.5234 96.1898 90.5627 96.1385 90.5818 96.0835C90.6011 96.0285 90.6004 95.9697 90.5837 95.9132C90.567 95.8565 90.5346 95.8022 90.4903 95.756C90.446 95.7098 90.39 95.6719 90.3264 95.6481C90.2073 95.6038 90.0618 95.5754 89.9065 95.5602C89.7512 95.5449 89.5856 95.5428 89.427 95.5504C89.2681 95.558 89.1161 95.5754 88.987 95.5993C88.8579 95.6231 88.7519 95.6536 88.6854 95.6874C88.5678 95.7472 88.5387 95.8184 88.5663 95.8925C88.594 95.9666 88.6785 96.0435 88.7886 96.1147C88.8986 96.186 89.0339 96.2517 89.1633 96.3031C89.2924 96.3553 89.4158 96.3927 89.5015 96.4072Z" fill="#E5F8FF"/>
<path d="M153.23 93.1063C153.495 93.7573 152.9 94.4586 151.635 95.1444C150.37 95.8301 148.433 96.5005 146.016 97.0893C143.598 97.6781 140.698 98.1857 137.506 98.5459C134.314 98.9061 130.829 99.1193 127.24 99.1193C123.652 99.1193 120.094 98.8823 116.811 98.489C113.528 98.0955 110.519 97.5455 108.027 96.9194C105.535 96.2932 103.561 95.591 102.348 94.893C101.134 94.1951 100.681 93.5012 101.232 92.8921C101.681 92.2792 102.05 91.583 102.321 90.844C102.591 90.1049 102.765 89.3231 102.824 88.5387C102.883 87.7545 102.827 86.968 102.641 86.2198C102.454 85.4716 102.136 84.7617 101.67 84.1307C100.545 83.9911 99.4892 83.1319 98.5543 81.8273C97.6193 80.5224 96.8056 78.7721 96.1655 76.85C95.5255 74.9279 95.0593 72.8339 94.8197 70.8422C94.5801 68.8504 94.567 66.9609 94.833 65.4471C94.869 65.2428 94.9259 64.9903 95.0019 64.7192C95.0779 64.4481 95.1727 64.1584 95.2844 63.8795C95.3961 63.6006 95.5248 63.3326 95.6682 63.1049C95.8116 62.8771 95.9697 62.6894 96.1405 62.5715C97.5581 61.5932 98.963 60.8024 100.407 60.1414C101.851 59.4803 103.333 58.9489 104.905 58.4897C106.477 58.0304 108.139 57.6428 109.942 57.2696C111.746 56.8963 113.69 56.5373 115.826 56.1348C118.176 56.3613 120.365 56.6845 122.443 57.1588C124.521 57.6328 126.488 58.2579 128.394 59.0875C130.3 59.9172 132.146 60.9517 133.981 62.2447C135.816 63.5379 137.641 65.0896 139.506 66.9543C141.175 68.6236 142.644 70.5447 143.964 72.6245C145.285 74.7042 146.457 76.9424 147.531 79.2461C148.606 81.5498 149.584 83.9187 150.516 86.2598C151.449 88.6006 152.336 90.9141 153.23 93.1063Z" fill="#CD966D"/>
<path d="M134.377 70.3658C133.759 70.1738 133.197 69.761 132.721 69.2155C132.246 68.67 131.857 67.9918 131.586 67.2689C131.316 66.5459 131.163 65.778 131.158 65.0531C131.154 64.3282 131.299 63.6463 131.623 63.0953C132.279 63.0836 133.173 63.0622 134.158 63.0539C135.144 63.0455 136.22 63.05 137.243 63.0898C138.265 63.1298 139.232 63.2051 139.999 63.3383C140.766 63.4714 141.331 63.6627 141.55 63.934C141.707 64.1277 141.814 64.4033 141.867 64.7301C141.919 65.0569 141.917 65.4354 141.854 65.8344C141.791 66.2334 141.668 66.6534 141.478 67.0633C141.289 67.4735 141.033 67.8737 140.705 68.2339C140.377 68.5938 139.949 68.948 139.459 69.2665C138.969 69.5849 138.416 69.8677 137.839 70.0852C137.262 70.3024 136.66 70.4544 136.07 70.5111C135.481 70.5678 134.904 70.5292 134.377 70.3658Z" fill="#B07066"/>
<path d="M120.932 68.0815C120.504 68.413 120.146 68.8256 119.864 69.2901C119.581 69.7544 119.373 70.2706 119.245 70.8094C119.117 71.3482 119.068 71.9094 119.103 72.4644C119.137 73.0192 119.255 73.5678 119.462 74.0804C119.668 74.5933 119.952 75.064 120.295 75.4837C120.639 75.9034 121.042 76.2714 121.486 76.5792C121.93 76.8867 122.415 77.1335 122.922 77.3102C123.429 77.4867 123.959 77.5932 124.491 77.6201C125.024 77.647 125.556 77.5992 126.076 77.4858C126.595 77.3724 127.102 77.1933 127.585 76.9574C128.068 76.7216 128.527 76.4291 128.951 76.0887C129.374 75.7483 129.763 75.3605 130.105 74.9337C130.366 74.6083 130.557 74.2374 130.683 73.8422C130.809 73.447 130.87 73.0271 130.87 72.6038C130.871 72.1805 130.81 71.7541 130.693 71.3453C130.575 70.9366 130.402 70.5457 130.175 70.1936C129.949 69.8416 129.68 69.5264 129.378 69.2484C129.076 68.9704 128.742 68.7294 128.385 68.5255C128.029 68.3216 127.65 68.1548 127.26 68.0252C126.87 67.8957 126.468 67.8035 126.065 67.7482C125.661 67.6932 125.257 67.6717 124.847 67.6741C124.437 67.6765 124.022 67.7029 123.599 67.7437C123.175 67.7844 122.744 67.8392 122.3 67.899C121.857 67.9576 121.402 68.0219 120.932 68.0815Z" fill="#B07066"/>
<path d="M126.451 69.7339C126.467 69.7915 126.495 69.8475 126.533 69.9004C126.57 69.953 126.617 70.0025 126.671 70.0473C126.725 70.0921 126.785 70.1319 126.851 70.1655C126.916 70.1991 126.986 70.2265 127.058 70.2458C127.223 70.2901 127.377 70.2989 127.511 70.2817C127.646 70.2646 127.762 70.2215 127.851 70.1619C127.94 70.1024 128.003 70.0264 128.032 69.9432C128.06 69.8603 128.055 69.7705 128.007 69.6831C127.984 69.641 127.955 69.5995 127.921 69.5607C127.886 69.5216 127.847 69.4852 127.803 69.4521C127.759 69.4192 127.711 69.3899 127.66 69.3656C127.609 69.3413 127.556 69.3222 127.5 69.3094C127.353 69.2756 127.21 69.2708 127.079 69.2863C126.948 69.3018 126.829 69.3372 126.731 69.3844C126.632 69.4316 126.554 69.4899 126.504 69.5512C126.455 69.6124 126.434 69.6762 126.451 69.7339Z" fill="#EDAE84"/>
<path d="M106.512 85.7745C107.827 85.9465 109.172 85.1114 110.382 83.6655C111.592 82.2196 112.667 80.1632 113.441 77.8921C114.215 75.6211 114.689 73.1359 114.696 70.8327C114.704 68.5295 114.245 66.408 113.156 64.8652C112.703 64.2232 111.877 63.4762 110.794 62.7759C109.712 62.0756 108.374 61.4222 106.895 60.9672C105.416 60.5122 103.797 60.2557 102.154 60.3493C100.51 60.4429 98.8423 60.8867 97.2664 61.8323C96.1466 62.5041 95.4548 63.6494 95.0863 65.0781C94.7176 66.5069 94.6721 68.2193 94.845 70.0256C95.018 71.8319 95.4091 73.7321 95.9138 75.5365C96.4186 77.3409 97.0367 79.0495 97.6637 80.4726C97.93 81.0771 98.3643 81.6779 98.9286 82.2472C99.4929 82.8165 100.187 83.3544 100.975 83.8329C101.762 84.3117 102.642 84.7312 103.577 85.0642C104.513 85.3968 105.503 85.6428 106.512 85.7745Z" fill="#B07066"/>
<path d="M124.678 107.909C119.453 107.909 114.182 107.636 109.217 107.112C104.251 106.589 99.5888 105.815 95.5803 104.813C91.5716 103.81 88.2162 102.58 85.8628 101.143C83.5095 99.706 82.1582 98.0633 82.1582 96.2368C82.1582 95.176 82.6225 94.1527 83.521 93.1808C84.4195 92.209 85.7527 91.289 87.4904 90.4353C89.2281 89.5816 91.3705 88.7943 93.8879 88.0878C96.4052 87.3815 99.2975 86.756 102.535 86.2262C102.616 86.2129 102.696 86.2167 102.771 86.2348C102.847 86.2529 102.917 86.2858 102.979 86.3301C103.041 86.3746 103.094 86.4308 103.135 86.4963C103.176 86.5619 103.206 86.6364 103.219 86.7176C103.232 86.7986 103.228 86.8787 103.21 86.9539C103.192 87.0292 103.159 87.0995 103.115 87.1614C103.07 87.2233 103.014 87.2767 102.948 87.3179C102.883 87.3591 102.808 87.3882 102.727 87.4015C99.7844 87.8832 97.1017 88.4613 94.7333 89.1111C92.3648 89.7609 90.3105 90.4827 88.624 91.2516C86.9375 92.0205 85.6188 92.8369 84.7218 93.6758C83.8247 94.5148 83.3495 95.3769 83.3495 96.237C83.3495 97.5024 84.3873 98.7901 86.3306 100.01C88.2739 101.23 91.1221 102.382 94.743 103.376C98.364 104.369 102.757 105.205 107.791 105.792C112.824 106.379 118.498 106.718 124.678 106.718C130.858 106.718 136.532 106.379 141.565 105.792C146.598 105.205 150.992 104.369 154.613 103.376C158.234 102.382 161.082 101.23 163.025 100.01C164.969 98.7901 166.007 97.5024 166.007 96.237C166.007 95.5062 165.669 94.774 165.022 94.0551C164.375 93.3362 163.418 92.6306 162.179 91.9534C160.94 91.2762 159.419 90.6273 157.642 90.0218C155.865 89.4163 153.834 88.8541 151.575 88.3503C151.494 88.3324 151.422 88.2991 151.359 88.2541C151.296 88.209 151.243 88.1526 151.202 88.0883C151.161 88.0239 151.132 87.9518 151.118 87.8758C151.104 87.7998 151.105 87.7195 151.123 87.6393C151.141 87.559 151.174 87.4861 151.219 87.4232C151.264 87.3603 151.321 87.3072 151.385 87.2665C151.449 87.2257 151.522 87.1971 151.598 87.1831C151.674 87.169 151.754 87.1697 151.834 87.1874C154.311 87.7398 156.509 88.3551 158.414 89.0237C160.319 89.6923 161.929 90.4146 163.231 91.1809C164.532 91.9474 165.523 92.758 166.19 93.6037C166.856 94.4493 167.197 95.3302 167.197 96.2365C167.197 98.0631 165.846 99.7057 163.493 101.143C161.14 102.579 157.784 103.81 153.775 104.812C149.767 105.815 145.105 106.589 140.139 107.112C135.173 107.636 129.903 107.909 124.678 107.909Z" fill="#0F50B2"/>
<path d="M103.678 100.352C103.665 100.352 103.651 100.352 103.637 100.351C103.624 100.35 103.61 100.348 103.596 100.347C103.583 100.345 103.569 100.342 103.555 100.339C103.542 100.337 103.528 100.333 103.514 100.329C103.436 100.307 103.358 100.285 103.278 100.262C103.199 100.24 103.119 100.218 103.039 100.196C102.959 100.173 102.878 100.151 102.797 100.129C102.715 100.106 102.633 100.084 102.551 100.061C101.692 99.8246 100.78 99.5738 99.8759 99.2691C98.9714 98.9645 98.0739 98.606 97.243 98.1543C96.4121 97.7025 95.648 97.1574 95.0101 96.4798C94.3722 95.8021 93.8603 94.9917 93.5344 94.0091C93.5084 93.931 93.4996 93.8514 93.5058 93.7742C93.512 93.697 93.5332 93.6225 93.5673 93.5544C93.6016 93.4862 93.6487 93.4245 93.7068 93.3736C93.765 93.3226 93.834 93.2821 93.9122 93.2561C93.9901 93.2302 94.0699 93.2214 94.1468 93.2275C94.224 93.2337 94.2986 93.2549 94.3667 93.289C94.4348 93.3233 94.4965 93.3705 94.5475 93.4286C94.5985 93.4867 94.6389 93.5558 94.6649 93.6339C94.9408 94.4655 95.3833 95.1537 95.9441 95.733C96.5048 96.3123 97.1837 96.7823 97.9319 97.177C98.6801 97.5717 99.4981 97.8911 100.337 98.1691C101.176 98.4471 102.035 98.6834 102.867 98.9123C102.95 98.9352 103.033 98.958 103.115 98.9807C103.197 99.0033 103.279 99.0259 103.361 99.0486C103.442 99.0712 103.523 99.0936 103.603 99.1162C103.683 99.1386 103.762 99.1612 103.841 99.1836C103.92 99.2062 103.991 99.2436 104.051 99.2922C104.111 99.3408 104.161 99.4004 104.198 99.4668C104.235 99.5333 104.26 99.6071 104.269 99.6838C104.278 99.7605 104.273 99.8406 104.25 99.9194C104.232 99.9849 104.203 100.045 104.166 100.097C104.129 100.15 104.084 100.196 104.033 100.234C103.983 100.271 103.926 100.301 103.866 100.321C103.806 100.342 103.743 100.352 103.678 100.352Z" fill="#0F50B2"/>
<path d="M125.781 102.719C125.063 102.719 124.338 102.712 123.606 102.699C122.873 102.685 122.134 102.665 121.386 102.638C120.638 102.611 119.883 102.578 119.119 102.538C118.355 102.497 117.583 102.451 116.803 102.397C116.721 102.391 116.644 102.37 116.575 102.335C116.506 102.3 116.445 102.252 116.395 102.194C116.345 102.137 116.305 102.07 116.28 101.997C116.255 101.924 116.244 101.844 116.25 101.762C116.255 101.68 116.277 101.604 116.312 101.534C116.347 101.466 116.395 101.405 116.452 101.355C116.51 101.305 116.577 101.266 116.65 101.24C116.723 101.215 116.802 101.204 116.884 101.209C118.732 101.336 120.529 101.424 122.283 101.476C124.038 101.527 125.748 101.54 127.421 101.515C129.094 101.491 130.729 101.428 132.332 101.328C133.936 101.227 135.507 101.089 137.052 100.912C137.134 100.902 137.214 100.91 137.288 100.932C137.362 100.953 137.431 100.989 137.49 101.037C137.55 101.084 137.601 101.143 137.639 101.211C137.677 101.279 137.702 101.355 137.712 101.436C137.721 101.518 137.713 101.598 137.692 101.672C137.67 101.746 137.634 101.815 137.586 101.874C137.539 101.934 137.48 101.985 137.413 102.023C137.345 102.061 137.269 102.086 137.187 102.095C136.278 102.199 135.36 102.29 134.432 102.368C133.504 102.446 132.566 102.511 131.617 102.563C130.668 102.614 129.708 102.653 128.736 102.679C127.764 102.706 126.779 102.719 125.781 102.719Z" fill="#0F50B2"/>
<path d="M147.308 100.296C147.241 100.296 147.175 100.284 147.114 100.263C147.053 100.242 146.995 100.21 146.943 100.171C146.892 100.131 146.847 100.083 146.811 100.027C146.774 99.972 146.747 99.9096 146.73 99.8417C146.711 99.7617 146.708 99.6817 146.721 99.6054C146.733 99.529 146.76 99.4563 146.799 99.3911C146.839 99.326 146.891 99.2684 146.953 99.2222C147.015 99.176 147.087 99.1412 147.167 99.1216L147.245 99.1026L147.322 99.0835L147.4 99.0645L147.478 99.0457C148.297 98.846 149.193 98.6278 150.087 98.3589C150.982 98.09 151.874 97.7701 152.689 97.3673C153.503 96.9642 154.239 96.4783 154.819 95.8766C155.399 95.2749 155.824 94.5579 156.015 93.6927C156.033 93.6125 156.066 93.5396 156.111 93.4764C156.156 93.4133 156.212 93.36 156.277 93.319C156.341 93.278 156.413 93.2492 156.489 93.2354C156.565 93.2213 156.645 93.2223 156.726 93.2404C156.806 93.2582 156.879 93.2913 156.942 93.3361C157.005 93.3809 157.058 93.4374 157.099 93.5017C157.14 93.566 157.169 93.6379 157.183 93.7142C157.197 93.7902 157.196 93.8704 157.178 93.9507C156.947 94.9967 156.454 95.859 155.791 96.5769C155.129 97.2949 154.298 97.8685 153.39 98.337C152.482 98.8056 151.497 99.1691 150.528 99.467C149.559 99.765 148.605 99.9973 147.76 100.203L147.683 100.222L147.605 100.241L147.528 100.26L147.451 100.279C147.439 100.281 147.427 100.284 147.415 100.286C147.403 100.288 147.391 100.29 147.379 100.292C147.367 100.293 147.356 100.294 147.344 100.295C147.332 100.296 147.32 100.296 147.308 100.296Z" fill="#0F50B2"/>
<path d="M115.11 102.336C115.103 102.336 115.096 102.336 115.089 102.336C115.082 102.336 115.076 102.335 115.069 102.335C115.062 102.335 115.055 102.334 115.048 102.333C115.041 102.333 115.034 102.332 115.027 102.331L114.323 102.233L113.618 102.135L112.913 102.037L112.209 101.939C112.127 101.928 112.052 101.901 111.986 101.861C111.919 101.821 111.862 101.769 111.816 101.709C111.77 101.648 111.736 101.578 111.716 101.503C111.695 101.429 111.69 101.349 111.701 101.267C111.712 101.186 111.739 101.111 111.779 101.044C111.818 100.978 111.87 100.921 111.931 100.875C111.992 100.829 112.061 100.795 112.136 100.775C112.21 100.755 112.291 100.749 112.372 100.76L113.077 100.857L113.782 100.955L114.486 101.053L115.191 101.151C115.272 101.163 115.348 101.19 115.414 101.23C115.481 101.269 115.538 101.321 115.584 101.382C115.63 101.443 115.664 101.512 115.684 101.587C115.704 101.662 115.71 101.742 115.699 101.823C115.689 101.898 115.665 101.967 115.63 102.029C115.596 102.091 115.551 102.146 115.498 102.192C115.446 102.237 115.385 102.274 115.319 102.298C115.254 102.323 115.183 102.336 115.11 102.336Z" fill="#0F50B2"/>
<path d="M113.528 57.7248C113.28 57.1819 113.168 56.6507 113.139 56.1221C113.111 55.5933 113.166 55.0671 113.254 54.534C113.341 54.0009 113.46 53.4612 113.559 52.9057C113.658 52.3499 113.736 51.7785 113.743 51.1818C113.466 51.1494 113.202 51.0546 112.964 50.9131C112.727 50.7716 112.516 50.5837 112.343 50.365C112.17 50.1463 112.037 49.8971 111.954 49.6332C111.872 49.3693 111.841 49.0906 111.874 48.8133C111.908 48.536 111.983 48.2523 112.1 47.9898C112.216 47.7276 112.375 47.4865 112.574 47.2945C112.773 47.1025 113.012 46.9594 113.291 46.8929C113.571 46.8265 113.89 46.8365 114.248 46.9508C114.541 46.4918 114.91 46.0878 115.332 45.7481C115.755 45.4084 116.23 45.1328 116.735 44.9311C117.24 44.7293 117.774 44.6014 118.315 44.5564C118.855 44.5113 119.401 44.5497 119.93 44.6805C120.458 44.8112 120.959 45.0323 121.416 45.3239C121.873 45.6157 122.286 45.978 122.638 46.392C122.99 46.806 123.282 47.2714 123.498 47.769C123.713 48.2666 123.851 48.7964 123.896 49.3388C124.324 49.3157 124.701 49.3397 125.046 49.4024C125.391 49.465 125.705 49.5665 126.004 49.698C126.304 49.8295 126.591 49.9915 126.883 50.1751C127.175 50.3588 127.472 50.5641 127.793 50.783C127.834 50.5994 127.913 50.4271 128.019 50.2735C128.125 50.1199 128.26 49.9846 128.412 49.8748C128.564 49.7649 128.735 49.6804 128.914 49.628C129.094 49.5758 129.282 49.5556 129.469 49.5746C129.656 49.5937 129.837 49.6511 130.002 49.7383C130.167 49.8254 130.317 49.9426 130.445 50.0808C130.572 50.219 130.676 50.3783 130.749 50.5503C130.822 50.7223 130.865 50.9067 130.868 51.0948C130.886 52.0903 130.734 53.0803 130.438 54.0267C130.142 54.9731 129.702 55.8763 129.142 56.6986C128.583 57.5211 127.905 58.2627 127.134 58.8858C126.362 59.5092 125.498 60.0142 124.565 60.3631C123.632 60.7124 122.566 60.9174 121.468 60.9801C120.37 61.0427 119.241 60.9625 118.183 60.7409C117.126 60.5194 116.141 60.1564 115.331 59.6531C114.52 59.1504 113.885 58.5071 113.528 57.7248Z" fill="#FFD859"/>
<path d="M114.839 51.3964C114.767 51.8816 114.715 52.3797 114.689 52.8752C114.662 53.3706 114.66 53.8635 114.687 54.3387C114.714 54.8139 114.769 55.2715 114.856 55.6962C114.944 56.1209 115.064 56.5128 115.22 56.8567C115.414 57.2824 115.654 57.6845 115.933 58.0585C116.212 58.4325 116.529 58.7786 116.878 59.0918C117.226 59.4051 117.605 59.6854 118.006 59.9284C118.408 60.1714 118.831 60.3767 119.269 60.5399C118.707 60.5408 118.138 60.4908 117.582 60.3846C117.026 60.2783 116.484 60.1159 115.979 59.8919C115.473 59.668 115.003 59.3829 114.591 59.0308C114.18 58.6788 113.826 58.2602 113.551 57.7698C113.277 57.2793 113.125 56.7576 113.06 56.2119C112.995 55.6664 113.017 55.0971 113.09 54.5116C113.163 53.9261 113.287 53.3242 113.427 52.7134C113.568 52.1027 113.724 51.4831 113.86 50.8618C113.962 50.8876 114.063 50.9133 114.16 50.9426C114.258 50.9719 114.352 51.0048 114.438 51.0445C114.524 51.0843 114.604 51.1313 114.672 51.1887C114.74 51.2463 114.796 51.3144 114.839 51.3964Z" fill="#F0AC2E"/>
<path d="M128.963 52.0574C129.127 52.0741 129.292 52.0527 129.447 52.001C129.602 51.9493 129.748 51.8671 129.875 51.7623C130.002 51.6575 130.111 51.5301 130.191 51.3878C130.272 51.2454 130.324 51.0882 130.339 50.9236C130.354 50.759 130.331 50.5949 130.278 50.4403C130.225 50.2857 130.141 50.1406 130.035 50.0146C129.929 49.8883 129.801 49.7812 129.658 49.7021C129.514 49.623 129.357 49.572 129.192 49.5587C129.027 49.5451 128.863 49.5696 128.709 49.6244C128.555 49.6792 128.411 49.764 128.286 49.8712C128.161 49.9784 128.055 50.108 127.977 50.2518C127.899 50.3957 127.85 50.5541 127.838 50.719C127.901 50.855 127.961 51.0027 128.027 51.1484C128.092 51.2942 128.162 51.4381 128.245 51.5672C128.329 51.6963 128.425 51.8104 128.542 51.8966C128.659 51.9826 128.797 52.0405 128.963 52.0574Z" fill="#F0AC2E"/>
<path d="M124.169 53.1787C124.214 53.4452 124.316 53.712 124.461 53.9638C124.606 54.2156 124.793 54.4526 125.007 54.6596C125.221 54.8666 125.461 55.0438 125.713 55.176C125.965 55.3082 126.228 55.3956 126.487 55.423C126.746 55.4504 126.989 55.4168 127.205 55.3342C127.422 55.2515 127.611 55.12 127.763 54.9519C127.915 54.7837 128.029 54.5786 128.094 54.349C128.159 54.1193 128.175 53.8654 128.132 53.5989C128.089 53.3323 127.987 53.0655 127.844 52.8133C127.7 52.561 127.514 52.3233 127.301 52.1153C127.088 51.9074 126.848 51.7292 126.597 51.5958C126.345 51.4624 126.082 51.3736 125.823 51.3447C125.564 51.3159 125.319 51.3478 125.101 51.4293C124.884 51.5108 124.692 51.6415 124.539 51.8099C124.385 51.9784 124.27 52.1846 124.204 52.4167C124.139 52.6482 124.123 52.9064 124.169 53.1787Z" fill="#FFEC8F"/>
<path d="M119.863 47.7617C119.872 47.9327 119.918 48.1059 119.992 48.2709C120.066 48.436 120.169 48.593 120.291 48.7321C120.413 48.871 120.554 48.992 120.706 49.0846C120.858 49.1773 121.02 49.2419 121.185 49.2683C121.349 49.2947 121.507 49.2816 121.652 49.2366C121.797 49.1916 121.929 49.1144 122.039 49.0127C122.149 48.911 122.237 48.7845 122.296 48.6409C122.355 48.4972 122.384 48.3362 122.376 48.1654C122.368 47.9946 122.323 47.8214 122.25 47.6561C122.176 47.4908 122.075 47.3334 121.953 47.1938C121.832 47.0542 121.691 46.9327 121.54 46.8391C121.388 46.7455 121.226 46.68 121.062 46.6528C120.897 46.6254 120.738 46.6376 120.592 46.6816C120.446 46.7259 120.313 46.8024 120.202 46.9041C120.091 47.0058 120.002 47.133 119.943 47.2781C119.883 47.4234 119.854 47.5868 119.863 47.7617Z" fill="#FFEC8F"/>
<path d="M119.267 46.6199C119.261 46.5451 119.239 46.4689 119.205 46.396C119.171 46.3231 119.125 46.2531 119.071 46.1907C119.017 46.1285 118.954 46.0737 118.888 46.0313C118.821 45.9889 118.751 45.9587 118.68 45.9449C118.609 45.9313 118.54 45.9349 118.479 45.9527C118.417 45.9706 118.361 46.0025 118.315 46.0454C118.269 46.0885 118.233 46.1423 118.21 46.2043C118.186 46.2662 118.175 46.3362 118.181 46.4108C118.187 46.4856 118.209 46.5616 118.242 46.6349C118.276 46.7081 118.322 46.7781 118.376 46.8407C118.43 46.9032 118.492 46.9582 118.559 47.0011C118.625 47.0439 118.695 47.0747 118.766 47.0887C118.837 47.1028 118.906 47.0997 118.968 47.0823C119.03 47.0649 119.086 47.0332 119.133 46.9901C119.179 46.947 119.216 46.8929 119.24 46.8303C119.263 46.7674 119.274 46.6964 119.267 46.6199Z" fill="#FFEC8F"/>
<path d="M112.229 47.234C112.08 47.4191 111.982 47.6306 111.929 47.8543C111.875 48.0782 111.866 48.3145 111.895 48.5499C111.925 48.7852 111.993 49.0196 112.093 49.2395C112.193 49.4593 112.325 49.6647 112.483 49.8416C112.641 50.0189 112.819 50.1735 113.01 50.3095C113.201 50.4457 113.407 50.5632 113.621 50.6663C113.835 50.7694 114.058 50.8578 114.285 50.936C114.512 51.0138 114.743 51.0813 114.973 51.142C115.09 51.173 115.208 51.203 115.327 51.2294C115.447 51.2559 115.566 51.279 115.686 51.2966C115.807 51.3142 115.927 51.3264 116.048 51.3311C116.169 51.3359 116.29 51.3328 116.41 51.3202C116.531 51.3076 116.652 51.284 116.77 51.249C116.887 51.2139 117.001 51.168 117.108 51.1106C117.215 51.0531 117.315 50.9843 117.404 50.904C117.493 50.8238 117.571 50.732 117.635 50.6289C117.699 50.5258 117.744 50.4102 117.77 50.2907C117.796 50.1711 117.802 50.047 117.789 49.9267C117.775 49.8064 117.742 49.6894 117.688 49.5841C117.634 49.4786 117.559 49.3848 117.464 49.31C117.082 49.012 116.681 48.7385 116.265 48.4948C115.849 48.2509 115.418 48.0368 114.977 47.8569C114.535 47.6773 114.083 47.532 113.623 47.4265C113.163 47.3214 112.697 47.2554 112.229 47.234Z" fill="#FFB45A"/>
<path d="M113.929 48.8988C113.905 48.699 113.943 48.547 114.028 48.4386C114.113 48.33 114.244 48.265 114.408 48.239C114.572 48.213 114.768 48.2259 114.981 48.2735C115.194 48.3212 115.424 48.4036 115.657 48.5165C115.783 48.5777 115.908 48.6387 116.034 48.6999C116.16 48.7612 116.286 48.8221 116.412 48.8833C116.538 48.9446 116.664 49.0055 116.79 49.0668C116.916 49.128 117.042 49.189 117.168 49.2502C117.268 49.299 117.354 49.3767 117.421 49.4677C117.488 49.5587 117.535 49.6628 117.558 49.7649C117.581 49.8671 117.579 49.9672 117.549 50.0496C117.518 50.132 117.459 50.197 117.365 50.2292C117.014 50.3493 116.627 50.3621 116.245 50.305C115.862 50.2478 115.483 50.1203 115.146 49.96C114.809 49.7997 114.513 49.6063 114.297 49.4172C114.082 49.2276 113.946 49.0425 113.929 48.8988Z" fill="#FFC87A"/>
<path d="M121.522 55.1758C121.406 55.1758 121.294 55.1572 121.189 55.1217C121.085 55.0862 120.986 55.034 120.898 54.9664C120.809 54.8987 120.73 54.8158 120.662 54.7194C120.595 54.6229 120.54 54.5128 120.499 54.3906C120.456 54.2618 120.431 54.1217 120.426 53.98C120.421 53.8382 120.437 53.6946 120.474 53.5588C120.512 53.4228 120.572 53.2947 120.657 53.1834C120.742 53.0722 120.851 52.9781 120.988 52.9104C121.456 52.6784 121.851 52.4061 122.172 52.0936C122.492 51.7813 122.738 51.429 122.909 51.0374C123.081 50.6458 123.177 50.2151 123.2 49.7459C123.222 49.2766 123.169 48.7688 123.041 48.2233C122.953 47.851 122.789 47.4775 122.556 47.1266C122.324 46.7757 122.022 46.4477 121.658 46.1659C121.294 45.8843 120.869 45.6492 120.389 45.4846C119.91 45.32 119.375 45.2257 118.794 45.2257C118.285 45.2257 117.813 45.2765 117.376 45.3774C116.94 45.4784 116.54 45.6297 116.177 45.831C115.814 46.0323 115.488 46.2833 115.2 46.5842C114.911 46.885 114.66 47.2354 114.448 47.6349C114.409 47.7076 114.357 47.7688 114.297 47.8176C114.237 47.8664 114.169 47.9027 114.096 47.9248C114.023 47.9472 113.946 47.9553 113.869 47.9486C113.792 47.9417 113.715 47.9196 113.642 47.881C113.569 47.8424 113.508 47.7909 113.459 47.7307C113.411 47.6706 113.375 47.602 113.352 47.5292C113.33 47.4563 113.322 47.3791 113.328 47.3021C113.335 47.225 113.357 47.148 113.396 47.0756C113.661 46.5785 113.976 46.1397 114.338 45.7614C114.701 45.3832 115.111 45.0654 115.565 44.8096C116.019 44.5537 116.517 44.3603 117.056 44.2307C117.595 44.1011 118.175 44.0354 118.794 44.0354C119.454 44.0354 120.088 44.1362 120.677 44.3232C121.265 44.5101 121.807 44.7836 122.284 45.129C122.761 45.4744 123.172 45.892 123.498 46.3672C123.824 46.8424 124.064 47.3755 124.2 47.952C124.357 48.6211 124.417 49.2552 124.384 49.8483C124.351 50.4417 124.223 50.9943 124.004 51.5C123.785 52.006 123.475 52.465 123.076 52.8716C122.678 53.2782 122.19 53.6322 121.616 53.9278C121.616 53.9319 121.616 53.9359 121.617 53.94C121.617 53.944 121.617 53.9483 121.617 53.9523C121.617 53.9566 121.618 53.9607 121.618 53.9647C121.619 53.969 121.619 53.9731 121.62 53.9771C121.69 53.9781 121.759 53.9914 121.822 54.0152C121.886 54.039 121.945 54.0736 121.997 54.1169C122.049 54.1603 122.094 54.2122 122.128 54.2713C122.163 54.3304 122.188 54.3966 122.201 54.4681C122.215 54.5486 122.213 54.6284 122.196 54.7034C122.18 54.7784 122.149 54.8489 122.106 54.9114C122.063 54.9738 122.008 55.0278 121.944 55.07C121.88 55.1122 121.807 55.1426 121.726 55.1574C121.709 55.1605 121.692 55.1634 121.674 55.1658C121.657 55.1681 121.64 55.17 121.623 55.1717C121.606 55.1734 121.589 55.1743 121.572 55.1753C121.555 55.1762 121.538 55.1758 121.522 55.1758Z" fill="#652815"/>
<path d="M115.951 52.0248C115.827 52.0248 115.703 52.0205 115.581 52.0124C115.459 52.0043 115.339 51.9926 115.221 51.9779C115.103 51.9629 114.988 51.945 114.877 51.9243C114.765 51.9038 114.658 51.8804 114.556 51.8554C114.034 51.727 113.567 51.5319 113.159 51.2928C112.75 51.0536 112.4 50.7699 112.113 50.4643C111.826 50.1585 111.601 49.8307 111.443 49.5027C111.285 49.1747 111.193 48.8469 111.172 48.541C111.159 48.3464 111.168 48.1597 111.198 47.9832C111.229 47.8067 111.28 47.6406 111.352 47.4877C111.424 47.3348 111.515 47.1947 111.626 47.0704C111.736 46.946 111.865 46.8374 112.012 46.7471C112.16 46.6561 112.319 46.5885 112.485 46.5447C112.65 46.5008 112.823 46.4806 112.997 46.4837C113.171 46.4868 113.348 46.5134 113.521 46.5635C113.694 46.6135 113.865 46.6869 114.028 46.7836C114.189 46.8789 114.351 46.9699 114.512 47.0566C114.674 47.1435 114.835 47.2262 114.994 47.3057C115.152 47.385 115.309 47.461 115.463 47.5342C115.617 47.6073 115.767 47.6776 115.912 47.7457C116.272 47.9143 116.62 48.0773 116.938 48.2469C117.257 48.4165 117.545 48.5925 117.786 48.7874C118.027 48.9822 118.221 49.1961 118.349 49.4412C118.478 49.6863 118.542 49.9624 118.523 50.2821C118.516 50.4083 118.496 50.5298 118.464 50.6458C118.431 50.7618 118.386 50.8721 118.33 50.9765C118.273 51.0805 118.204 51.1785 118.124 51.2694C118.043 51.3604 117.951 51.4443 117.848 51.5203C117.723 51.6127 117.585 51.6906 117.438 51.7551C117.29 51.8197 117.134 51.8714 116.971 51.9112C116.809 51.9512 116.64 51.9795 116.469 51.9979C116.298 52.0165 116.124 52.0248 115.951 52.0248ZM112.962 47.674C112.932 47.674 112.903 47.6759 112.874 47.6795C112.846 47.683 112.818 47.6885 112.79 47.6957C112.763 47.7028 112.737 47.7119 112.711 47.7228C112.685 47.7338 112.66 47.7464 112.637 47.7609C112.587 47.7919 112.543 47.8305 112.506 47.8762C112.469 47.922 112.439 47.9748 112.415 48.0339C112.392 48.093 112.375 48.1585 112.366 48.2297C112.357 48.3009 112.355 48.3776 112.361 48.4593C112.372 48.6263 112.432 48.825 112.54 49.0351C112.649 49.2452 112.806 49.467 113.013 49.6804C113.219 49.8936 113.474 50.0987 113.779 50.2749C114.084 50.4515 114.438 50.5994 114.841 50.6987C115.071 50.7552 115.303 50.794 115.529 50.8157C115.756 50.8373 115.976 50.8416 116.18 50.8295C116.384 50.8173 116.572 50.7885 116.736 50.7437C116.899 50.6989 117.037 50.638 117.14 50.5617C117.172 50.5382 117.2 50.5141 117.223 50.4888C117.247 50.4636 117.266 50.4369 117.282 50.4086C117.298 50.3802 117.31 50.3502 117.318 50.3178C117.327 50.2854 117.332 50.2506 117.335 50.213C117.342 50.0946 117.29 49.9793 117.192 49.8652C117.095 49.7511 116.951 49.6385 116.774 49.5251C116.597 49.4117 116.387 49.2978 116.155 49.1816C115.923 49.0653 115.669 48.9467 115.407 48.824C115.255 48.7531 115.099 48.6799 114.938 48.6035C114.778 48.527 114.614 48.4474 114.447 48.3638C114.28 48.2802 114.11 48.1926 113.939 48.1004C113.767 48.0082 113.595 47.9108 113.421 47.8081C113.383 47.7857 113.345 47.7662 113.307 47.7495C113.268 47.7328 113.23 47.7188 113.191 47.7076C113.152 47.6964 113.114 47.688 113.075 47.6823C113.037 47.6768 112.999 47.674 112.962 47.674Z" fill="#652815"/>
<path d="M128.786 53.0091C128.726 53.0091 128.668 53.0003 128.612 52.9831C128.556 52.966 128.503 52.9407 128.454 52.9081C128.405 52.8754 128.361 52.8354 128.323 52.789C128.286 52.7425 128.254 52.6896 128.231 52.6308C128.079 52.2411 127.853 51.8831 127.574 51.5686C127.295 51.2542 126.963 50.9834 126.598 50.7683C126.233 50.5529 125.836 50.3931 125.426 50.3007C125.016 50.2083 124.594 50.1832 124.179 50.2373C124.097 50.248 124.017 50.2416 123.943 50.2211C123.868 50.2004 123.799 50.1656 123.738 50.1192C123.678 50.0727 123.627 50.0148 123.587 49.9479C123.548 49.8812 123.522 49.8054 123.511 49.724C123.5 49.6425 123.507 49.5627 123.527 49.4882C123.548 49.4136 123.583 49.3443 123.629 49.284C123.676 49.2235 123.734 49.1721 123.801 49.133C123.867 49.0939 123.943 49.0673 124.024 49.0565C124.578 48.9844 125.136 49.0144 125.674 49.1328C126.212 49.2511 126.731 49.4577 127.206 49.7383C127.681 50.0189 128.113 50.3733 128.477 50.7878C128.84 51.2023 129.136 51.6763 129.34 52.1963C129.37 52.2728 129.383 52.3519 129.381 52.4293C129.379 52.5067 129.362 52.5822 129.332 52.652C129.301 52.7218 129.257 52.7859 129.202 52.8399C129.147 52.894 129.08 52.9381 129.004 52.9681C128.986 52.975 128.968 52.9812 128.95 52.9864C128.932 52.9917 128.913 52.996 128.895 52.9993C128.877 53.0026 128.859 53.0053 128.841 53.0069C128.822 53.0081 128.804 53.0091 128.786 53.0091Z" fill="#652815"/>
<path d="M121.006 61.5246C121.003 61.5246 120.999 61.5246 120.995 61.5246C120.991 61.5246 120.988 61.5246 120.984 61.5246C120.98 61.5246 120.977 61.5246 120.973 61.5246C120.969 61.5246 120.965 61.5246 120.962 61.5246C120.499 61.5232 119.937 61.4989 119.32 61.4248C118.704 61.3507 118.032 61.2274 117.35 61.0275C116.668 60.8279 115.975 60.552 115.315 60.1738C114.655 59.7953 114.029 59.3143 113.48 58.7043C113.175 58.366 112.965 57.9897 112.824 57.5888C112.683 57.1879 112.612 56.7622 112.587 56.3249C112.562 55.8875 112.583 55.4385 112.625 54.9907C112.668 54.5429 112.733 54.0967 112.795 53.6646C112.83 53.4252 112.864 53.1891 112.894 52.959C112.924 52.7289 112.949 52.505 112.966 52.2897C112.983 52.0746 112.991 51.8681 112.987 51.6732C112.983 51.4784 112.967 51.2949 112.934 51.1258C112.919 51.0451 112.92 50.965 112.936 50.8895C112.952 50.814 112.983 50.7425 113.026 50.6794C113.068 50.6163 113.123 50.5613 113.187 50.5182C113.252 50.475 113.325 50.4438 113.406 50.4283C113.486 50.4129 113.566 50.4145 113.642 50.4307C113.718 50.4469 113.789 50.4774 113.852 50.5201C113.915 50.5627 113.97 50.6175 114.014 50.6816C114.057 50.7459 114.088 50.8195 114.104 50.9002C114.146 51.1187 114.168 51.345 114.176 51.5784C114.184 51.8116 114.177 52.0519 114.16 52.298C114.142 52.5441 114.115 52.7959 114.083 53.0524C114.05 53.309 114.012 53.5703 113.974 53.8354C113.918 54.2206 113.862 54.6088 113.822 54.9895C113.783 55.3701 113.759 55.7429 113.769 56.0971C113.779 56.4513 113.823 56.7865 113.916 57.0919C114.01 57.3973 114.154 57.6729 114.365 57.9075C115.155 58.7853 116.197 59.3917 117.353 59.7781C118.508 60.1645 119.776 60.3305 121.02 60.3274C122.263 60.3243 123.48 60.1521 124.533 59.8615C125.586 59.5709 126.474 59.1621 127.059 58.686C127.544 58.2903 128.009 57.777 128.431 57.1948C128.853 56.6126 129.231 55.9616 129.543 55.2903C129.855 54.6193 130.101 53.9283 130.259 53.2658C130.416 52.6036 130.485 51.9702 130.441 51.4145C130.427 51.2287 130.4 51.0577 130.362 50.9014C130.323 50.7452 130.272 50.6041 130.209 50.4779C130.146 50.3519 130.071 50.2409 129.985 50.1454C129.898 50.0498 129.799 49.9698 129.689 49.9053C129.655 49.8855 129.621 49.8755 129.58 49.8779C129.539 49.8802 129.492 49.895 129.434 49.925C129.375 49.955 129.305 50.0003 129.218 50.0634C129.131 50.1265 129.027 50.208 128.9 50.31C128.8 50.391 128.696 50.4746 128.588 50.5565C128.479 50.6384 128.366 50.7185 128.246 50.7921C128.127 50.8657 128.001 50.9329 127.868 50.9893C127.735 51.0455 127.594 51.091 127.444 51.1208C127.364 51.1368 127.284 51.1358 127.208 51.1201C127.132 51.1044 127.061 51.0744 126.997 51.032C126.934 50.9896 126.879 50.9352 126.835 50.8714C126.792 50.8076 126.76 50.734 126.744 50.6534C126.728 50.5727 126.729 50.4927 126.744 50.4169C126.76 50.3412 126.79 50.2697 126.832 50.2063C126.875 50.143 126.929 50.0877 126.993 50.0441C127.057 50.0005 127.13 49.9691 127.211 49.9529C127.289 49.9374 127.368 49.9095 127.446 49.8726C127.525 49.8357 127.604 49.79 127.683 49.738C127.762 49.6863 127.84 49.6287 127.919 49.5684C127.997 49.5082 128.075 49.4453 128.152 49.3829C128.285 49.2757 128.431 49.1582 128.588 49.0508C128.745 48.9434 128.913 48.8455 129.092 48.7771C129.271 48.7087 129.461 48.6697 129.661 48.6797C129.861 48.6897 130.071 48.7488 130.289 48.8767C130.486 48.9917 130.663 49.1311 130.818 49.2928C130.974 49.4546 131.109 49.6392 131.221 49.8447C131.334 50.0506 131.424 50.2773 131.493 50.5241C131.561 50.7709 131.606 51.0372 131.628 51.3221C131.679 51.9705 131.605 52.6989 131.431 53.4552C131.257 54.2115 130.983 54.9954 130.633 55.7556C130.283 56.5154 129.857 57.2512 129.378 57.9108C128.899 58.5704 128.369 59.1538 127.81 59.609C127.453 59.9003 127.018 60.1657 126.524 60.3998C126.031 60.634 125.479 60.8369 124.887 61.0034C124.295 61.1699 123.663 61.3 123.01 61.3886C122.357 61.4777 121.683 61.5246 121.006 61.5246Z" fill="#652815"/>
<path d="M120.239 49.5039C120.269 49.3714 120.314 49.2492 120.372 49.1416C120.43 49.0339 120.499 48.9407 120.576 48.8667C120.653 48.7926 120.738 48.7376 120.825 48.7059C120.912 48.6742 121.002 48.6659 121.091 48.6854C121.179 48.7049 121.257 48.7502 121.323 48.8157C121.389 48.8812 121.443 48.9665 121.481 49.0663C121.52 49.1659 121.544 49.2795 121.551 49.4014C121.558 49.5234 121.548 49.6535 121.519 49.7861C121.489 49.9186 121.444 50.041 121.386 50.1485C121.328 50.2561 121.259 50.3493 121.182 50.4231C121.105 50.4972 121.02 50.5522 120.933 50.5839C120.846 50.6156 120.756 50.6239 120.667 50.6044C120.579 50.5848 120.501 50.5396 120.435 50.4741C120.369 50.4086 120.316 50.3233 120.277 50.2235C120.238 50.1239 120.214 50.0103 120.207 49.8883C120.2 49.7664 120.21 49.6363 120.239 49.5039Z" fill="#652815"/>
<path d="M127.24 99.7145C124.22 99.7145 121.112 99.5373 118.13 99.2276C115.149 98.9182 112.294 98.4766 109.782 97.9478C107.269 97.4192 105.097 96.8034 103.482 96.146C101.867 95.4885 100.808 94.7889 100.52 94.0929C100.469 93.9695 100.437 93.8449 100.425 93.7213C100.413 93.5974 100.421 93.4745 100.448 93.3545C100.474 93.2344 100.519 93.1172 100.583 93.005C100.647 92.8928 100.729 92.7854 100.83 92.6851C100.888 92.627 100.955 92.5834 101.027 92.5543C101.098 92.5253 101.175 92.5107 101.251 92.5107C101.327 92.5107 101.403 92.5253 101.475 92.5543C101.547 92.5834 101.614 92.627 101.672 92.6851C101.73 92.7432 101.774 92.8104 101.803 92.8821C101.832 92.9538 101.846 93.03 101.846 93.1063C101.846 93.1825 101.832 93.2587 101.803 93.3304C101.774 93.4021 101.73 93.4693 101.672 93.5274C101.659 93.5407 101.648 93.5524 101.64 93.5624C101.632 93.5727 101.626 93.5812 101.621 93.5881C101.617 93.5951 101.614 93.6003 101.612 93.6039C101.611 93.6074 101.61 93.6093 101.61 93.6093C101.615 93.7118 101.74 93.8721 102.016 94.075C102.291 94.278 102.717 94.5233 103.321 94.7961C103.925 95.0688 104.707 95.3685 105.696 95.6803C106.684 95.9921 107.88 96.3154 109.311 96.635C110.653 96.9352 112.069 97.2031 113.531 97.4366C114.993 97.6698 116.501 97.8684 118.03 98.0295C119.559 98.1905 121.109 98.3141 122.653 98.3973C124.197 98.4806 125.734 98.5235 127.24 98.5235C130.612 98.5235 133.799 98.3437 136.704 98.0426C139.61 97.7417 142.233 97.3199 144.477 96.8361C146.72 96.3523 148.585 95.8065 149.971 95.258C151.357 94.7094 152.266 94.1577 152.599 93.6622C152.632 93.6127 152.655 93.5698 152.67 93.5326C152.685 93.4957 152.693 93.4645 152.695 93.4381C152.698 93.4119 152.696 93.3902 152.692 93.3728C152.688 93.3552 152.683 93.3416 152.678 93.3306C152.648 93.2544 152.633 93.1758 152.634 93.0984C152.635 93.021 152.651 92.9452 152.681 92.875C152.71 92.8047 152.753 92.7401 152.808 92.6854C152.863 92.6306 152.929 92.5855 153.005 92.5546C153.081 92.5236 153.16 92.5093 153.238 92.5105C153.315 92.5115 153.391 92.5277 153.461 92.5574C153.531 92.587 153.596 92.6301 153.651 92.6846C153.705 92.7392 153.75 92.8054 153.781 92.8816C153.815 92.9638 153.845 93.0577 153.864 93.1618C153.884 93.2659 153.893 93.38 153.886 93.5026C153.878 93.6253 153.854 93.7563 153.807 93.8945C153.759 94.0324 153.688 94.1772 153.587 94.3271C153.105 95.0445 151.974 95.7401 150.359 96.3797C148.745 97.0193 146.646 97.6031 144.23 98.0971C141.814 98.5912 139.08 98.9956 136.193 99.2765C133.306 99.5571 130.267 99.7145 127.24 99.7145Z" fill="#652815"/>
<path d="M153.228 93.702C153.167 93.702 153.108 93.6927 153.051 93.6749C152.994 93.657 152.94 93.6308 152.891 93.597C152.841 93.5631 152.797 93.5217 152.759 93.4738C152.722 93.4257 152.691 93.3712 152.669 93.3109C151.885 91.1673 151.052 88.9582 150.162 86.7503C149.271 84.5426 148.324 82.3363 147.309 80.1987C146.295 78.061 145.214 75.992 144.057 74.0589C142.901 72.1259 141.669 70.3284 140.353 68.7341C140.301 68.6708 140.264 68.5995 140.242 68.5255C140.219 68.4514 140.212 68.3742 140.22 68.2982C140.227 68.2222 140.249 68.1479 140.284 68.0793C140.32 68.0107 140.37 67.948 140.434 67.8956C140.497 67.8432 140.568 67.8061 140.642 67.7842C140.716 67.762 140.793 67.7549 140.869 67.762C140.945 67.7694 141.019 67.7911 141.088 67.8268C141.157 67.8625 141.22 67.9123 141.272 67.9757C142.617 69.6048 143.873 71.4354 145.051 73.4003C146.229 75.3653 147.328 77.4648 148.358 79.6315C149.388 81.7982 150.349 84.0321 151.251 86.2662C152.153 88.5003 152.995 90.7345 153.788 92.9019C153.816 92.9791 153.827 93.0584 153.823 93.1356C153.82 93.2127 153.801 93.288 153.769 93.3571C153.737 93.4262 153.691 93.4893 153.635 93.542C153.578 93.5948 153.51 93.6372 153.433 93.6656C153.416 93.6718 153.399 93.677 153.382 93.6818C153.365 93.6863 153.348 93.6901 153.331 93.6932C153.314 93.6963 153.297 93.6985 153.28 93.7001C153.262 93.7013 153.245 93.702 153.228 93.702Z" fill="#652815"/>
<path d="M135.549 63.7414C135.516 63.7414 135.483 63.7385 135.45 63.733C135.417 63.7276 135.384 63.719 135.352 63.7078C135.32 63.6966 135.289 63.6823 135.259 63.6654C135.228 63.6485 135.199 63.6285 135.171 63.6058C134.523 63.0718 133.865 62.5851 133.215 62.1435C132.564 61.7019 131.921 61.305 131.302 60.9506C130.683 60.5961 130.087 60.2841 129.531 60.0121C128.976 59.74 128.46 59.5078 128 59.3127C127.924 59.2805 127.859 59.2348 127.805 59.1791C127.751 59.1236 127.709 59.0583 127.68 58.9878C127.652 58.917 127.636 58.841 127.637 58.7636C127.637 58.6862 127.652 58.6076 127.684 58.5319C127.716 58.4561 127.762 58.3906 127.818 58.3368C127.873 58.2829 127.939 58.241 128.009 58.2124C128.08 58.1838 128.156 58.1688 128.233 58.1688C128.311 58.1688 128.389 58.1841 128.465 58.216C128.943 58.4185 129.479 58.66 130.057 58.943C130.635 59.226 131.254 59.5507 131.899 59.9196C132.543 60.2886 133.212 60.7017 133.889 61.1619C134.567 61.6221 135.252 62.129 135.928 62.6857C135.992 62.7381 136.042 62.8007 136.077 62.8691C136.113 62.9377 136.135 63.012 136.142 63.088C136.15 63.1637 136.143 63.2412 136.121 63.3152C136.099 63.3893 136.062 63.4605 136.009 63.5239C135.98 63.5596 135.947 63.5911 135.912 63.6182C135.877 63.6454 135.839 63.668 135.8 63.6861C135.76 63.7042 135.719 63.718 135.677 63.7271C135.635 63.7369 135.592 63.7414 135.549 63.7414Z" fill="#652815"/>
<path d="M135.474 71.0512C135.267 71.0512 135.062 71.0433 134.86 71.0266C134.657 71.0102 134.457 70.985 134.261 70.9506C134.065 70.9163 133.873 70.8728 133.686 70.8192C133.499 70.7656 133.317 70.7024 133.142 70.6286C133.066 70.5967 133 70.5509 132.946 70.4954C132.892 70.4399 132.85 70.3749 132.821 70.3044C132.792 70.2339 132.777 70.1579 132.777 70.0805C132.776 70.0031 132.792 69.9245 132.823 69.8487C132.855 69.773 132.901 69.7072 132.956 69.6531C133.011 69.5991 133.076 69.5569 133.147 69.5283C133.218 69.4995 133.294 69.4843 133.371 69.484C133.449 69.4838 133.527 69.4988 133.603 69.5307C134.01 69.7022 134.468 69.8015 134.949 69.842C135.43 69.8825 135.934 69.864 136.434 69.7994C136.933 69.7348 137.427 69.6243 137.889 69.4809C138.351 69.3373 138.779 69.161 139.147 68.9645C139.535 68.7573 139.882 68.4876 140.181 68.181C140.481 67.8745 140.733 67.531 140.933 67.1763C141.132 66.8216 141.279 66.4557 141.366 66.1041C141.454 65.7525 141.483 65.4152 141.447 65.1182C141.429 64.9646 141.395 64.8262 141.345 64.7025C141.295 64.5787 141.229 64.4698 141.147 64.3752C141.065 64.2807 140.966 64.2004 140.851 64.1344C140.736 64.0684 140.604 64.0163 140.456 63.9779C140.174 63.9053 139.878 63.8521 139.569 63.8136C139.259 63.775 138.935 63.7509 138.598 63.7369C138.261 63.7226 137.909 63.7183 137.545 63.719C137.181 63.7197 136.802 63.7254 136.411 63.7311C136.019 63.7371 135.614 63.7433 135.197 63.7442C134.781 63.7452 134.353 63.7414 133.916 63.7271C133.479 63.7128 133.033 63.6883 132.578 63.6482C132.124 63.6082 131.663 63.5527 131.195 63.4765C131.114 63.4632 131.039 63.4341 130.974 63.3929C130.908 63.3517 130.852 63.2983 130.808 63.2364C130.763 63.1745 130.73 63.1042 130.712 63.0289C130.694 62.9539 130.69 62.8738 130.703 62.7926C130.717 62.7114 130.745 62.6368 130.787 62.5713C130.828 62.5058 130.881 62.4496 130.943 62.4053C131.004 62.3607 131.075 62.3281 131.15 62.3098C131.225 62.2914 131.305 62.2876 131.387 62.3005C131.828 62.3727 132.267 62.4251 132.7 62.4629C133.134 62.5008 133.562 62.5237 133.982 62.537C134.403 62.5504 134.816 62.5539 135.218 62.5527C135.621 62.5516 136.013 62.5456 136.393 62.5399C136.789 62.5339 137.179 62.5282 137.562 62.5277C137.945 62.5275 138.32 62.5327 138.686 62.5489C139.052 62.5654 139.408 62.5928 139.754 62.6366C140.099 62.6807 140.432 62.7412 140.753 62.8238C141.019 62.8922 141.26 62.9927 141.476 63.1218C141.692 63.2509 141.881 63.4088 142.041 63.5925C142.201 63.7762 142.332 63.9853 142.431 64.2168C142.53 64.4484 142.598 64.7025 142.63 64.976C142.684 65.4267 142.643 65.9062 142.522 66.3869C142.401 66.8676 142.2 67.3497 141.935 67.8056C141.671 68.2618 141.342 68.692 140.966 69.0693C140.59 69.4464 140.165 69.7706 139.709 70.0145C139.424 70.1665 139.112 70.3073 138.78 70.4328C138.448 70.5583 138.096 70.6691 137.733 70.7606C137.369 70.852 136.994 70.9247 136.615 70.9745C136.235 71.0242 135.852 71.0512 135.474 71.0512Z" fill="#652815"/>
<path d="M133.621 73.3381C133.607 73.3381 133.593 73.3377 133.579 73.3367C133.564 73.3358 133.55 73.3341 133.536 73.332C133.522 73.3298 133.507 73.3272 133.493 73.3241C133.479 73.321 133.465 73.3172 133.451 73.3129C133.229 73.2469 133.022 73.1607 132.83 73.0549C132.638 72.9492 132.461 72.8243 132.3 72.6809C132.14 72.5375 131.996 72.3758 131.869 72.1967C131.742 72.0175 131.633 71.8213 131.542 71.6083C131.51 71.5328 131.494 71.4542 131.494 71.3768C131.494 71.2994 131.509 71.2234 131.537 71.1526C131.566 71.0819 131.608 71.0166 131.661 70.9609C131.715 70.9051 131.78 70.8591 131.856 70.8268C131.932 70.7946 132.01 70.7794 132.088 70.7791C132.165 70.7789 132.241 70.7939 132.312 70.8222C132.383 70.8506 132.448 70.8925 132.504 70.9461C132.559 70.9997 132.605 71.0652 132.638 71.1409C132.694 71.2715 132.759 71.3911 132.835 71.4994C132.912 71.6078 132.998 71.7053 133.094 71.7912C133.19 71.8772 133.297 71.952 133.413 72.0154C133.529 72.0788 133.655 72.1307 133.791 72.1712C133.87 72.1945 133.94 72.2329 133.999 72.2822C134.059 72.3315 134.108 72.3915 134.144 72.4585C134.181 72.5254 134.204 72.5995 134.213 72.6764C134.221 72.7534 134.215 72.8332 134.191 72.912C134.172 72.9766 134.143 73.0356 134.106 73.0876C134.069 73.1395 134.024 73.1847 133.973 73.2217C133.923 73.2588 133.867 73.2876 133.807 73.3074C133.748 73.3277 133.685 73.3381 133.621 73.3381Z" fill="#652815"/>
<path d="M120.947 68.4107C120.866 68.4107 120.789 68.3945 120.718 68.3649C120.648 68.3354 120.584 68.2927 120.53 68.2401C120.476 68.1872 120.432 68.1243 120.401 68.0543C120.371 67.9843 120.353 67.9071 120.352 67.8256C120.35 67.7434 120.365 67.6648 120.394 67.5929C120.423 67.521 120.466 67.4562 120.519 67.4014C120.572 67.3466 120.635 67.3018 120.706 67.2704C120.776 67.2389 120.854 67.2208 120.936 67.2194L122.303 67.1956L123.67 67.1718L125.036 67.1479L126.403 67.1241C126.404 67.1241 126.404 67.1241 126.405 67.1241C126.406 67.1241 126.407 67.1241 126.408 67.1241C126.409 67.1241 126.41 67.1241 126.411 67.1241C126.412 67.1241 126.412 67.1241 126.413 67.1241C126.494 67.1241 126.572 67.1403 126.642 67.1699C126.713 67.1994 126.777 67.242 126.83 67.2947C126.884 67.3476 126.928 67.4104 126.959 67.4805C126.989 67.5505 127.007 67.6279 127.009 67.7092C127.01 67.7913 126.995 67.8699 126.966 67.9416C126.937 68.0133 126.894 68.0784 126.841 68.1332C126.788 68.1879 126.725 68.2327 126.654 68.2642C126.584 68.2956 126.506 68.3135 126.423 68.3151L125.057 68.339L123.69 68.3628L122.324 68.3866L120.957 68.4104C120.956 68.4104 120.956 68.4104 120.955 68.4104C120.954 68.4104 120.953 68.4104 120.952 68.4104C120.951 68.4104 120.95 68.4104 120.95 68.4104C120.949 68.4107 120.948 68.4107 120.947 68.4107Z" fill="#652815"/>
<path d="M110.077 88.1493C110.05 88.1493 110.023 88.1476 109.996 88.1438C109.97 88.14 109.943 88.1347 109.917 88.1273C109.891 88.12 109.864 88.1107 109.839 88.0997C109.813 88.0885 109.788 88.0754 109.764 88.0604C109.17 87.6929 108.603 87.3801 108.06 87.1095C107.518 86.8387 106.999 86.6102 106.502 86.4111C106.005 86.2119 105.528 86.0423 105.069 85.8896C104.61 85.737 104.169 85.6012 103.742 85.4699C103.237 85.3148 102.75 85.165 102.278 84.9999C101.806 84.8349 101.349 84.6548 100.905 84.4392C100.461 84.2236 100.03 83.9723 99.6095 83.6653C99.1895 83.3582 98.7803 82.995 98.3801 82.5555C97.7698 81.8854 97.1969 80.9567 96.681 79.8414C96.165 78.7261 95.706 77.4241 95.3235 76.007C94.9407 74.5902 94.6343 73.0583 94.4235 71.483C94.2127 69.908 94.0977 68.2899 94.0977 66.7003C94.0977 64.9379 94.7861 63.4963 95.9445 62.3033C97.1028 61.1104 98.731 60.1662 100.61 59.3987C102.49 58.6312 104.621 58.0399 106.784 57.5533C108.948 57.0666 111.145 56.6846 113.155 56.3346C113.236 56.3203 113.316 56.3232 113.392 56.3406C113.467 56.358 113.538 56.3901 113.6 56.434C113.662 56.4778 113.716 56.5338 113.758 56.5988C113.8 56.6638 113.83 56.7382 113.844 56.8191C113.858 56.9001 113.855 56.9802 113.837 57.0554C113.82 57.1307 113.788 57.2015 113.744 57.2639C113.7 57.3263 113.645 57.3801 113.579 57.422C113.514 57.464 113.44 57.4937 113.359 57.5078C111.453 57.8394 109.37 58.2019 107.318 58.6533C105.267 59.1047 103.246 59.6454 101.464 60.3334C99.6817 61.0215 98.1378 61.8572 97.0395 62.8988C95.9411 63.9405 95.2884 65.188 95.2884 66.7001C95.2884 68.1991 95.3975 69.7365 95.596 71.2377C95.7944 72.7388 96.0819 74.2038 96.4392 75.558C96.7965 76.9119 97.2234 78.1551 97.7003 79.2125C98.1772 80.2699 98.7036 81.1417 99.2605 81.753C99.6059 82.1322 99.9601 82.4462 100.327 82.7127C100.695 82.9793 101.075 83.1984 101.472 83.389C101.869 83.5793 102.283 83.7408 102.718 83.8918C103.153 84.0428 103.61 84.1831 104.092 84.3315C104.536 84.468 104.995 84.6093 105.473 84.7684C105.951 84.9275 106.448 85.1045 106.967 85.3129C107.487 85.5214 108.029 85.7613 108.598 86.0457C109.167 86.3303 109.763 86.6595 110.39 87.0468C110.46 87.0902 110.518 87.1455 110.563 87.2086C110.607 87.2717 110.639 87.3425 110.656 87.4168C110.674 87.4909 110.677 87.5685 110.666 87.645C110.654 87.7214 110.627 87.7969 110.584 87.8667C110.555 87.9122 110.522 87.9527 110.485 87.9877C110.448 88.0228 110.407 88.0523 110.363 88.0764C110.319 88.1002 110.272 88.1185 110.224 88.1307C110.176 88.1431 110.127 88.1493 110.077 88.1493Z" fill="#652815"/>
<path d="M101.249 93.7018C101.216 93.7018 101.182 93.699 101.149 93.6935C101.116 93.6878 101.083 93.6794 101.051 93.668C101.019 93.6566 100.988 93.6425 100.957 93.6254C100.927 93.6082 100.898 93.5882 100.87 93.5653C100.807 93.5129 100.757 93.45 100.721 93.3814C100.686 93.3128 100.664 93.2383 100.657 93.1623C100.65 93.0865 100.657 93.0091 100.679 92.935C100.701 92.861 100.739 92.79 100.791 92.7266C101.014 92.457 101.233 92.0999 101.432 91.6823C101.63 91.2648 101.809 90.7872 101.953 90.2764C102.097 89.766 102.205 89.2226 102.263 88.6738C102.321 88.125 102.329 87.5709 102.271 87.0388C102.249 86.8392 102.215 86.6212 102.163 86.3966C102.111 86.1717 102.041 85.9402 101.948 85.7129C101.854 85.4857 101.737 85.263 101.591 85.056C101.444 84.849 101.269 84.6577 101.058 84.4935C100.993 84.443 100.941 84.3818 100.903 84.3142C100.866 84.2465 100.842 84.1727 100.832 84.0972C100.823 84.0217 100.828 83.9442 100.848 83.8695C100.868 83.7947 100.903 83.7227 100.953 83.6577C101.004 83.5929 101.065 83.5412 101.132 83.5036C101.2 83.4659 101.274 83.4421 101.349 83.4326C101.425 83.4231 101.502 83.4281 101.577 83.4481C101.652 83.4681 101.724 83.5029 101.789 83.5534C102.021 83.7339 102.231 83.9421 102.418 84.1753C102.605 84.4087 102.769 84.6674 102.909 84.9497C103.049 85.232 103.166 85.5378 103.257 85.8649C103.348 86.1922 103.414 86.5409 103.454 86.9092C103.516 87.4718 103.515 88.0704 103.46 88.6752C103.405 89.2803 103.296 89.8915 103.139 90.4792C102.983 91.067 102.781 91.6314 102.539 92.1423C102.298 92.6535 102.019 93.1113 101.708 93.4863C101.679 93.5217 101.646 93.553 101.611 93.5799C101.576 93.6068 101.538 93.6292 101.499 93.6473C101.459 93.6654 101.418 93.679 101.377 93.688C101.335 93.6971 101.292 93.7018 101.249 93.7018Z" fill="#652815"/>
<path d="M96.9493 67.8323C96.8776 67.8323 96.8078 67.8192 96.743 67.7951C96.6782 67.7711 96.6182 67.7358 96.5658 67.6915C96.5134 67.6472 96.4683 67.5938 96.4333 67.5331C96.3986 67.4724 96.3738 67.4045 96.3621 67.3313C96.3049 66.9774 96.2361 66.662 96.1584 66.3747C96.0808 66.0877 95.9941 65.8288 95.9007 65.5879C95.8073 65.3469 95.7078 65.1239 95.6039 64.9083C95.5 64.6927 95.3924 64.4846 95.283 64.2735C95.269 64.2464 95.2549 64.2192 95.2409 64.1918C95.2268 64.1646 95.2128 64.1373 95.1985 64.1099C95.1844 64.0825 95.1704 64.0551 95.1561 64.0274C95.142 63.9998 95.128 63.9724 95.1137 63.9445C95.0763 63.8712 95.0558 63.794 95.0503 63.7168C95.0448 63.6396 95.0546 63.5627 95.0782 63.4903C95.1018 63.4179 95.1392 63.35 95.1889 63.2907C95.2387 63.2314 95.3011 63.1811 95.3743 63.1437C95.4476 63.1065 95.5251 63.0858 95.6022 63.0803C95.6794 63.0749 95.7564 63.0846 95.8288 63.1082C95.9012 63.1318 95.9691 63.1692 96.0284 63.219C96.0875 63.2688 96.138 63.3309 96.1751 63.4043C96.1889 63.4315 96.2027 63.4584 96.2166 63.4853C96.2304 63.5122 96.2442 63.5389 96.258 63.5658C96.2718 63.5925 96.2856 63.6192 96.2995 63.6458C96.3133 63.6725 96.3271 63.6992 96.3407 63.7256C96.456 63.9484 96.5722 64.1728 96.6858 64.4093C96.7995 64.6458 96.9102 64.8947 97.015 65.1656C97.1196 65.4367 97.218 65.7299 97.3064 66.0558C97.3947 66.3816 97.4731 66.7401 97.5379 67.1413C97.551 67.2225 97.5469 67.3023 97.5286 67.3776C97.5103 67.4526 97.4774 67.5231 97.4328 67.5848C97.3883 67.6465 97.3318 67.6998 97.2663 67.7411C97.2008 67.7823 97.126 67.8111 97.045 67.8242C97.0369 67.8256 97.0288 67.8266 97.021 67.8275C97.0129 67.8285 97.005 67.8292 96.9969 67.8299C96.9891 67.8306 96.981 67.8311 96.9731 67.8313C96.965 67.8323 96.9571 67.8323 96.9493 67.8323Z" fill="#652815"/>
<path d="M103.639 69.7322C103.594 69.7322 103.549 69.7272 103.505 69.717C103.461 69.707 103.418 69.6917 103.377 69.672C103.336 69.652 103.297 69.6272 103.261 69.5976C103.225 69.5681 103.192 69.5338 103.163 69.495C103.113 69.4292 103.08 69.3568 103.061 69.2818C103.042 69.2067 103.038 69.1293 103.049 69.0538C103.06 68.9783 103.084 68.9049 103.123 68.838C103.162 68.7711 103.214 68.7106 103.28 68.661C103.737 68.3168 104.218 68.0303 104.71 67.7904C105.202 67.5505 105.704 67.3573 106.204 67.1996C106.703 67.0419 107.2 66.9197 107.68 66.8218C108.16 66.7239 108.622 66.6506 109.054 66.5903C109.136 66.5791 109.216 66.5848 109.29 66.6051C109.365 66.6251 109.435 66.6594 109.495 66.7054C109.556 66.7513 109.608 66.8087 109.648 66.8752C109.688 66.9417 109.715 67.0169 109.726 67.0984C109.738 67.1799 109.732 67.2597 109.712 67.3345C109.692 67.4093 109.658 67.4788 109.612 67.5396C109.566 67.6003 109.509 67.6525 109.442 67.6922C109.376 67.732 109.3 67.7592 109.219 67.7706C108.798 67.8292 108.361 67.8983 107.917 67.9879C107.473 68.0774 107.023 68.1872 106.575 68.3275C106.128 68.4678 105.683 68.6384 105.25 68.8492C104.818 69.06 104.397 69.3111 103.997 69.6124C103.97 69.6327 103.942 69.6503 103.913 69.6653C103.884 69.6803 103.855 69.6929 103.824 69.7027C103.794 69.7127 103.763 69.7201 103.733 69.7251C103.701 69.7298 103.67 69.7322 103.639 69.7322Z" fill="#652815"/>
<path d="M103.447 81.663C103.412 81.663 103.376 81.6599 103.341 81.6534C103.306 81.647 103.271 81.6375 103.238 81.6248C103.204 81.6122 103.171 81.5963 103.139 81.577C103.107 81.5579 103.077 81.5353 103.049 81.5096L102.063 80.6211L101.077 79.7325L100.091 78.844L99.1052 77.9555L98.6285 78.1883L98.1519 78.421L97.6752 78.6537L97.1986 78.8864C97.1247 78.9224 97.0471 78.9417 96.9696 78.9458C96.8925 78.9498 96.8155 78.9389 96.7436 78.9141C96.6714 78.8893 96.6042 78.8507 96.5459 78.8C96.4875 78.7492 96.4382 78.6861 96.4022 78.6123C96.3663 78.5384 96.3467 78.4605 96.3427 78.3834C96.3384 78.3062 96.3496 78.2292 96.3744 78.1573C96.3991 78.0851 96.4377 78.018 96.4885 77.9596C96.5392 77.9012 96.6023 77.8519 96.6762 77.816L97.2431 77.5392L97.81 77.2624L98.377 76.9856L98.9439 76.7088C98.9984 76.6821 99.0556 76.6645 99.1137 76.6557C99.1716 76.6466 99.2304 76.6464 99.2881 76.6545C99.3457 76.6626 99.402 76.679 99.4553 76.7038C99.5087 76.7285 99.5587 76.7612 99.6037 76.8019L100.664 77.7578L101.725 78.7138L102.785 79.6697L103.846 80.6256C103.907 80.6806 103.954 80.7454 103.986 80.8154C104.019 80.8855 104.038 80.9607 104.042 81.037C104.046 81.1129 104.035 81.1899 104.01 81.263C103.985 81.3361 103.944 81.4055 103.889 81.4664C103.86 81.4991 103.828 81.5277 103.793 81.5522C103.759 81.5767 103.723 81.5972 103.685 81.6137C103.647 81.6301 103.608 81.6425 103.568 81.6508C103.529 81.6587 103.488 81.663 103.447 81.663Z" fill="#652815"/>
<path d="M99.2063 77.8391C99.1258 77.8391 99.0489 77.8229 98.9784 77.7938C98.9081 77.7647 98.8445 77.7223 98.7907 77.6699C98.7368 77.6175 98.693 77.5549 98.662 77.4853C98.6311 77.4155 98.613 77.3388 98.6111 77.2578L98.5873 76.2638L98.5634 75.2698L98.5396 74.2758L98.5158 73.2817C98.5139 73.1995 98.5287 73.1209 98.557 73.049C98.5853 72.9771 98.6275 72.9118 98.6802 72.8568C98.7328 72.8015 98.7959 72.7565 98.8662 72.7246C98.9367 72.6927 99.0146 72.6743 99.0968 72.6722C99.1799 72.6679 99.2592 72.6815 99.3312 72.7093C99.4033 72.7372 99.4684 72.7796 99.5234 72.8327C99.5784 72.8858 99.6232 72.9499 99.6546 73.0211C99.6861 73.0924 99.7044 73.171 99.7063 73.2531L99.7302 74.2472L99.754 75.2412L99.7778 76.2352L99.8016 77.2293C99.8035 77.3114 99.7888 77.39 99.7604 77.462C99.7321 77.5339 99.6899 77.5992 99.6373 77.6542C99.5846 77.7095 99.5215 77.7545 99.4512 77.7864C99.3807 77.8183 99.3028 77.8367 99.2206 77.8388C99.2194 77.8388 99.2183 77.8388 99.2171 77.8391C99.2159 77.8391 99.2147 77.8391 99.2135 77.8391C99.2123 77.8391 99.2111 77.8391 99.2099 77.8391C99.2087 77.8391 99.2075 77.8391 99.2063 77.8391Z" fill="#652815"/>
<path d="M147.014 85.3851C146.959 85.3851 146.905 85.3777 146.853 85.3632C146.802 85.3487 146.751 85.3273 146.705 85.2991C146.659 85.271 146.616 85.2365 146.578 85.196C146.54 85.1555 146.507 85.1088 146.481 85.0566L146.048 84.1932L145.614 83.3294L145.181 82.4659L144.747 81.6022C144.71 81.5288 144.69 81.4512 144.685 81.374C144.68 81.2968 144.69 81.2199 144.714 81.1475C144.738 81.0751 144.776 81.0074 144.826 80.9486C144.876 80.8897 144.939 80.8397 145.012 80.8028C145.085 80.7659 145.163 80.7456 145.24 80.7406C145.317 80.7356 145.394 80.7459 145.467 80.7697C145.539 80.7937 145.607 80.8314 145.666 80.8816C145.724 80.9319 145.774 80.9943 145.811 81.0679L146.245 81.9314L146.678 82.7951L147.112 83.6586L147.545 84.5224C147.582 84.5957 147.603 84.6731 147.608 84.7503C147.613 84.8275 147.602 84.9044 147.579 84.9769C147.554 85.0493 147.517 85.1169 147.467 85.1758C147.416 85.2346 147.354 85.2846 147.281 85.3215C147.259 85.3323 147.237 85.3415 147.215 85.3496C147.193 85.3575 147.171 85.3642 147.149 85.3694C147.126 85.3746 147.104 85.3785 147.081 85.3811C147.059 85.3837 147.036 85.3851 147.014 85.3851Z" fill="#652815"/>
<path d="M150.711 92.9297C150.651 92.9297 150.592 92.9207 150.535 92.9033C150.479 92.8859 150.426 92.8604 150.377 92.8273C150.328 92.7944 150.284 92.754 150.246 92.707C150.208 92.6601 150.177 92.6065 150.154 92.5474L149.796 91.6141L149.438 90.6809L149.08 89.7476L148.721 88.8143C148.692 88.7376 148.679 88.6585 148.682 88.5811C148.685 88.5037 148.702 88.4282 148.733 88.3586C148.764 88.289 148.808 88.2252 148.864 88.1716C148.92 88.118 148.987 88.0742 149.064 88.0449C149.141 88.0153 149.22 88.0027 149.297 88.0053C149.374 88.008 149.45 88.0256 149.52 88.0566C149.589 88.0875 149.653 88.1318 149.707 88.1876C149.76 88.2433 149.804 88.3105 149.833 88.3874L150.191 89.3207L150.55 90.254L150.908 91.1873L151.266 92.1206C151.296 92.1973 151.308 92.2764 151.306 92.3538C151.303 92.4312 151.285 92.5067 151.254 92.5762C151.223 92.6458 151.179 92.7096 151.123 92.7632C151.068 92.8168 151 92.8607 150.924 92.89C150.906 92.8966 150.888 92.9026 150.871 92.9076C150.853 92.9126 150.835 92.9166 150.817 92.92C150.8 92.9233 150.782 92.9257 150.764 92.9274C150.746 92.9288 150.728 92.9297 150.711 92.9297Z" fill="#652815"/>
<path d="M145.84 90.5811C145.784 90.5811 145.727 90.573 145.673 90.557C145.619 90.5413 145.568 90.518 145.52 90.4877C145.472 90.4575 145.429 90.4203 145.391 90.377C145.353 90.3336 145.321 90.2838 145.296 90.2286L144.867 89.2684L144.438 88.3082L144.009 87.3479L143.579 86.3877C143.546 86.3127 143.529 86.2343 143.527 86.1569C143.526 86.0795 143.54 86.0033 143.567 85.9321C143.594 85.8608 143.635 85.7949 143.688 85.7384C143.74 85.6817 143.805 85.6345 143.88 85.601C143.955 85.5674 144.034 85.5507 144.111 85.549C144.188 85.5474 144.265 85.5612 144.336 85.5883C144.407 85.6155 144.473 85.6562 144.53 85.7091C144.586 85.7617 144.633 85.8265 144.667 85.9013L145.096 86.8615L145.525 87.8217L145.955 88.7819L146.384 89.7421C146.417 89.8172 146.434 89.8955 146.436 89.973C146.437 90.0504 146.424 90.1266 146.396 90.1978C146.369 90.2691 146.329 90.335 146.276 90.3915C146.223 90.4479 146.158 90.4953 146.083 90.5289C146.063 90.5377 146.043 90.5454 146.023 90.552C146.003 90.5585 145.983 90.5639 145.963 90.5682C145.942 90.5725 145.922 90.5759 145.901 90.5778C145.881 90.5801 145.861 90.5811 145.84 90.5811Z" fill="#652815"/>
<path fill-rule="evenodd" clip-rule="evenodd" d="M63.8417 20.9177C63.9975 20.9718 64.0574 20.9743 64.0936 21.0083C64.6123 21.497 65.1323 21.9845 65.6438 22.4826C66.0792 22.907 66.4852 23.3717 66.9381 23.7701C67.8451 24.5689 68.7645 25.3515 69.6996 26.1082C70.316 26.607 70.947 27.0938 71.6115 27.5059C72.5644 28.0971 73.3967 28.9668 74.5331 29.1523C74.6536 29.172 74.7675 29.2788 74.8745 29.3624C75.8146 30.0944 76.871 30.511 77.9434 30.9336C78.9537 31.332 79.8937 31.959 80.8622 32.4901C81.4474 32.8108 82.0291 33.1396 82.6115 33.466C83.1505 33.7677 83.693 34.0624 84.2273 34.3751C84.8805 34.7583 85.5172 35.1774 86.1776 35.5441C87.3836 36.214 88.4943 37.0447 89.5664 37.9542C90.0249 38.3427 90.5601 38.6178 91.0183 39.0063C91.9406 39.7878 92.8222 40.6295 93.7423 41.4143C94.9757 42.4667 96.2185 43.5075 97.4779 44.5199C99.2256 45.9239 100.981 47.3181 102.759 48.6726C103.299 49.0836 103.929 49.3422 104.511 49.6836C105.096 50.0258 105.634 49.9249 106.131 49.4816C106.641 49.025 106.911 48.4426 106.772 47.6891C106.676 47.1667 106.563 46.6479 106.461 46.1273C106.032 43.9438 105.054 42.0715 103.874 40.3098C103.152 39.2318 102.448 38.1379 101.734 37.0532C101.671 36.9587 101.594 36.8751 101.52 36.7915C100.802 35.9769 100.097 35.1475 99.3617 34.3536C98.4179 33.336 97.4504 32.3457 96.4907 31.3457C96.3942 31.2455 96.261 31.1813 96.1861 31.066C95.3808 29.8246 94.2816 28.9528 93.2089 28.0503C92.4343 27.3987 91.6425 26.7742 90.8579 26.1384C90.8367 26.1215 90.8005 26.1194 90.7886 26.098C90.1828 25.0399 89.0755 24.7723 88.2456 24.0637C87.6211 23.5312 86.9422 23.0661 86.2466 22.6586C85.7407 22.3625 85.1502 22.2554 84.6293 21.9856C83.388 21.3431 82.0806 20.9072 80.8123 20.3578C79.263 19.6861 77.6213 19.3946 76.083 18.7465C75.265 18.4019 74.3633 18.2371 73.6355 17.5813C73.3034 17.282 72.8069 17.2255 72.407 17.0084C71.2211 16.3641 70.0232 15.7403 68.8741 15.0195C67.9627 14.4476 67.0676 13.8121 66.253 13.0811C65.3561 12.2767 64.5614 11.3286 63.7181 10.448C63.4685 10.187 63.1832 9.96601 62.9513 9.68745C62.397 9.02179 61.8527 8.34523 61.3259 7.65182C60.4732 6.5302 59.6443 5.38574 58.7901 4.26588C58.6047 4.02279 58.354 3.84259 58.134 3.63253C57.9028 3.41228 57.6727 3.19168 57.4424 2.97108C57.4692 2.91382 57.4964 2.85586 57.5229 2.7986C58.4736 3.06733 59.4136 3.4193 60.378 3.58089C61.364 3.74634 62.2304 4.15487 63.0889 4.68635C63.843 5.15355 64.6516 5.50939 65.435 5.91652C66.5795 6.51193 67.709 7.14457 68.8706 7.69221C69.6425 8.05578 70.4586 8.29816 71.256 8.59253C71.3303 8.62028 71.428 8.61009 71.4826 8.66138C72.2023 9.33302 73.109 9.44191 73.956 9.74331C74.4716 9.92632 74.9394 10.2723 75.4422 10.5084C76.4107 10.9636 77.4263 11.3103 78.352 11.8538C79.3934 12.466 80.3566 13.2455 81.3544 13.9512C81.5551 14.0928 81.7476 14.2551 81.9617 14.3636C83.4439 15.1171 84.5803 16.2921 85.4395 17.8423C85.6723 18.2621 86.024 18.6025 86.338 18.9601C87.6111 20.4122 88.7883 21.9852 90.3676 23.0563C90.434 23.1009 90.5099 23.1574 90.5433 23.2302C91.0024 24.238 91.8891 24.6957 92.6515 25.3101C93.4399 25.9445 94.2486 26.5469 95.0313 27.189C95.8131 27.8308 96.5406 28.5625 97.3508 29.1526C98.8162 30.2202 100.18 31.5245 102.076 31.6084C103.174 31.6569 104.261 31.9646 105.359 32.0233C106.107 32.0633 106.866 31.8757 107.619 31.7865C107.982 31.7437 108.342 31.6713 108.706 31.6492C109.953 31.5736 110.638 30.6565 110.419 29.2686C110.246 28.1782 109.937 27.1686 109.146 26.3895C107.98 25.2412 106.881 24.0065 105.727 22.8434C104.479 21.5872 103.143 20.4361 101.952 19.1174C100.846 17.8925 99.588 16.9785 98.2169 16.2159C98.0293 16.1116 97.8508 15.9819 97.6801 15.845C96.7413 15.0908 95.8347 14.2804 94.8631 13.5841C93.3822 12.5222 91.8388 11.5713 90.3588 10.5077C89.4984 9.88908 88.7094 9.14368 87.8895 8.45342C87.7843 8.3649 87.696 8.24758 87.5846 8.17205C86.4597 7.41119 85.3524 6.6138 84.1976 5.91617C83.5319 5.51396 82.7994 5.23785 82.0778 4.97053C80.7308 4.47067 79.6026 3.54401 78.4515 2.66793C77.9387 2.27801 77.3997 2.03774 76.8121 1.83681C75.3598 1.34046 73.8374 1.50134 72.3737 1.15077C71.3428 0.904176 70.3044 0.766476 69.247 0.791417C69.0217 0.796686 68.7967 0.638261 68.567 0.577139C67.8291 0.381479 67.0913 0.184062 66.3495 0.010884C65.7627 -0.126465 65.1647 -0.20515 64.5805 -0.352334C63.5115 -0.62106 62.4332 -0.427859 61.3615 -0.484062C60.0157 -0.553966 58.6449 -0.335473 57.3291 -0.826907C56.5863 -1.10406 55.8526 -1.41213 55.1151 -1.7065C54.6466 -1.89373 54.1788 -2.08201 53.7103 -2.26959C53.6856 -2.27908 53.651 -2.2977 53.6345 -2.28645C52.9138 -1.788 52.6507 -2.53235 52.2394 -2.91664C51.6638 -3.45444 51.118 -3.28232 50.7481 -2.54851C50.3374 -1.7346 50.2057 -0.955122 50.4972 -0.0196769C50.726 0.716244 50.7575 1.53963 50.8187 2.33C50.8986 3.35888 50.9501 4.39269 50.9557 5.42438C50.9582 5.913 50.8262 6.40198 50.7547 6.8913C50.7247 7.09364 50.6991 7.29703 50.6639 7.49831C50.6089 7.81656 50.5827 8.14817 50.4832 8.44851C50.0247 9.83113 49.5453 11.205 49.0721 12.5813C49.0341 12.6916 49.0026 12.8099 48.9426 12.9048C47.9998 14.3998 47.8066 16.1969 47.3987 17.896C46.9686 19.6907 46.6041 21.5121 46.3297 23.345C46.0994 24.885 46.0189 26.4559 45.9112 28.0163C45.8587 28.7768 45.9318 29.5485 45.8831 30.3101C45.8344 31.0787 46.0323 31.7721 46.2442 32.4747C46.7105 34.0182 47.1446 35.5757 47.6412 37.1066C48.1028 38.5317 48.1664 39.9832 48.0759 41.4747C48.0176 42.4435 48.0488 43.419 48.041 44.3913C48.0397 44.5093 48.0681 44.6319 48.0497 44.7457C47.7123 46.8369 47.9361 48.935 47.9617 51.0329C47.972 51.9089 48.1199 52.7218 48.3749 53.5417C49.0712 55.7796 49.7297 58.032 50.4001 60.2802C50.4672 60.5043 50.5665 60.7351 50.5659 60.9627C50.564 62.1191 51.0453 63.1378 51.2606 64.2289C51.6058 65.9824 51.9578 67.7311 51.9391 69.5605C51.9229 71.1771 51.9894 72.8137 52.2094 74.4077C52.4107 75.8669 52.8991 77.2664 53.8142 78.4024C54.3894 79.1166 54.464 79.1138 55.244 78.8257C56.4465 78.3817 57.032 77.4006 57.2742 76.0612C57.3391 75.7025 57.531 75.3706 57.6755 75.0323C57.8213 74.6898 58.0401 74.3723 58.1234 74.0133C58.4162 72.7568 58.742 71.4999 58.9115 70.2191C59.2005 68.0325 59.7751 65.877 59.6421 63.6373C59.5925 62.7918 59.5485 61.941 59.2863 61.1106C58.4752 58.5414 57.7623 55.9314 56.9218 53.3752C56.5233 52.1636 56.4387 50.9011 56.2015 49.666C56.0776 49.0187 56.1494 48.3133 56.1896 47.6378C56.2542 46.5513 56.4093 45.4701 56.4474 44.3829C56.4933 43.0916 56.4574 41.7968 56.4537 40.503C56.4527 40.3267 56.4053 40.1476 56.4215 39.9744C56.5339 38.8106 56.2187 37.6907 56.1606 36.5523C56.1029 35.4261 55.6912 34.4407 55.4796 33.3827C55.2165 32.0658 55.0583 30.7221 54.8504 29.3905C54.8051 29.101 54.7611 28.807 54.6803 28.5288C54.3042 27.2329 53.92 25.9399 53.529 24.65C53.1978 23.5568 52.9216 22.4675 52.8505 21.2911C52.7656 19.8762 52.6479 18.469 52.7328 17.0498C52.7431 16.8742 52.74 16.6912 52.7094 16.5198C52.5802 15.7968 52.6685 15.121 52.9375 14.4441C53.1532 13.9021 53.1632 13.3376 53.077 12.7168C52.9694 11.943 53.0402 11.1277 53.0998 10.3363C53.2237 8.69756 53.7677 7.1242 53.7012 5.44932C53.6856 5.06011 53.8086 4.66387 53.8701 4.25955C53.9918 4.32173 54.0611 4.33156 54.0726 4.36669C54.5779 5.85364 55.3573 7.2057 55.7205 8.76782C55.9933 9.94107 56.3713 11.0841 56.714 12.2363C56.8978 12.8553 57.1063 13.4647 57.0423 14.136C57.0367 14.1947 57.041 14.2565 57.0529 14.3134C57.3001 15.5485 57.5485 16.7832 57.7994 18.0176C57.8288 18.1613 57.9096 18.3018 57.9081 18.443C57.8921 19.7564 58.4252 20.9093 58.7389 22.1264C58.8182 22.4349 58.8397 22.7626 58.8877 23.0816C58.9402 23.4297 58.9914 23.7774 59.0447 24.1252C59.1199 24.6159 59.1942 25.1067 59.2738 25.5967C59.3113 25.8289 59.3406 26.0656 59.4068 26.2884C59.79 27.5821 60.1418 28.8906 60.5896 30.1559C60.8284 30.83 61.2073 31.4528 61.5781 32.0559C62.5933 33.7066 63.6258 35.3439 64.6738 36.9685C65.8308 38.7614 67.0361 40.515 68.1731 42.3237C68.7614 43.2598 69.2505 44.2747 69.7773 45.2586C70.0613 45.7894 70.2819 46.3728 70.6193 46.8544C71.0272 47.4365 71.2033 48.1025 71.3962 48.7787C71.7738 50.1055 72.1624 51.428 72.5509 52.7509C72.7728 53.5062 72.9879 54.2449 73.0478 55.0648C73.1024 55.812 73.4476 56.5293 73.6374 57.2687C73.7382 57.6614 73.7809 58.0731 73.8499 58.476C74.0546 59.6651 74.3193 60.8292 74.9079 61.8693C75.0328 62.0903 75.1177 62.3453 75.1941 62.5947C75.4179 63.3229 75.6098 64.0645 75.8511 64.7849C75.9778 65.165 76.1888 65.5082 76.3458 65.876C76.4937 66.2206 76.637 66.5694 76.7549 66.9277C77.053 67.8361 77.1579 68.8386 77.7977 69.5802C77.866 69.6592 77.8935 69.7909 77.9219 69.9037C78.4113 71.8326 79.3981 73.4856 80.2911 75.1802C80.6434 75.8483 81.2576 76.3345 81.6918 76.9573C82.0148 77.4199 82.4211 77.7013 82.8559 77.9869C83.2788 78.2651 83.6733 78.2574 84.0297 77.9374C84.6261 77.4006 85.1945 76.8006 85.3714 75.9256C85.692 74.3407 86.0428 72.7511 85.9772 71.1089C85.9435 70.2581 85.8508 69.4028 85.7013 68.5685C85.5615 67.7908 85.3593 67.0391 85.2728 66.2353C85.1352 64.9553 84.7912 63.704 84.5428 62.4381C84.4816 62.1244 84.4523 61.8029 84.4105 61.4847C84.3683 61.1643 84.3381 60.8419 84.2853 60.524C84.2513 60.3216 84.1293 60.12 84.1436 59.9275C84.2213 58.8775 83.8259 57.9558 83.5475 57.0045C82.6078 53.7946 81.6078 50.6064 80.7258 47.3768C80.2383 45.592 79.4574 44.0263 78.5392 42.4948C77.0102 39.9452 75.0609 37.8348 73.1492 35.6786C73.0191 35.5322 72.8677 35.4057 72.7532 35.2452C71.8503 33.9806 70.9289 32.73 70.0625 31.4338C69.2907 30.2799 68.5851 29.0697 67.8429 27.8905C67.6762 27.626 67.4712 27.3928 67.2967 27.1335C66.5695 26.0519 65.7584 25.0245 65.1498 23.8635C64.6741 22.953 63.9597 22.1433 63.8417 20.9177Z" fill="#652815"/>
<path fill-rule="evenodd" clip-rule="evenodd" d="M-26 69.0888C-25.8104 67.7561 -25.6652 66.4126 -25.4197 65.0928C-25.1441 63.6106 -24.8761 62.1103 -24.4224 60.6909C-23.9456 59.1979 -23.2657 57.785 -22.6514 56.349C-21.9285 54.6616 -21.2152 52.967 -20.4319 51.315C-19.7154 49.8032 -18.9018 48.3505 -18.1493 46.8596C-17.5209 45.615 -16.9194 44.3531 -16.3051 43.0992C-15.7569 41.9803 -15.2197 40.8534 -14.6568 39.7432C-14.0894 38.6243 -13.6666 37.4765 -13.5875 36.1568C-13.5284 35.1672 -13.2919 34.1906 -13.1345 33.2082C-13.0908 32.9344 -12.995 32.6563 -13.0124 32.3869C-13.2257 29.0454 -11.8165 26.2918 -10.4947 23.5022C-9.88743 22.2207 -9.10732 21.0795 -8.19803 20.0675C-7.24442 19.0064 -6.13207 18.4523 -4.71578 18.8554C-3.64457 19.1602 -2.54444 19.1465 -1.45651 18.7745C-0.988056 18.6141 -0.477831 18.5498 0.0144005 18.5441C2.54239 18.5137 5.07038 18.4783 7.59708 18.5289C8.40098 18.5448 9.21901 18.747 9.99784 18.9955C11.4296 19.452 12.8825 19.8876 14.2403 20.5543C15.4342 21.1409 16.5717 21.9383 17.6204 22.8131C18.7835 23.7824 20.0937 24.1783 21.4516 24.4867C22.6288 24.7547 23.7289 25.295 24.6189 26.13C26.1387 27.5552 26.6277 29.5265 26.1901 31.666C25.7371 33.8778 25.259 36.0802 24.5206 38.2205C23.781 40.3644 23.3794 42.6527 22.7406 44.8443C22.276 46.4378 21.7761 48.0139 21.5293 49.6731C21.2369 51.6386 20.6586 53.5311 20.4754 55.5342C20.3495 56.9117 19.8926 58.2473 19.6221 59.6118C19.2603 61.4349 18.9763 63.2798 18.5804 65.0928C18.3189 66.2905 17.8414 67.4296 17.5998 68.6308C17.204 70.5999 16.2921 72.3299 15.7086 74.2022C14.9735 76.5606 13.4056 78.3087 12.3562 80.4266C11.8209 81.5072 11.2181 82.5611 10.8152 83.7024C10.5081 84.5735 10.4798 85.5667 10.3037 86.4993C10.1784 87.1617 10.039 87.8233 9.86161 88.4705C9.11427 91.1894 6.30674 92.1906 4.22343 90.5444C2.74224 89.3749 1.26361 88.1693 -0.329393 87.2202C-1.56768 86.4827 -2.96598 86.0601 -4.32058 85.6C-5.64563 85.1507 -7.00216 84.8177 -8.35033 84.4623C-9.17736 84.2441 -10.0095 84.0368 -10.8494 83.8989C-13.2611 83.503 -15.4112 82.4015 -17.3422 80.787C-18.6493 79.6941 -20.0129 78.6041 -21.0668 77.2353C-22.1913 75.7748 -23.4257 74.4702 -24.6717 73.1671C-25.7462 72.0453 -25.9576 70.644 -26 69.0888Z" fill="#BF7805"/>
<path fill-rule="evenodd" clip-rule="evenodd" d="M35.403 32.7978C35.403 33.0796 35.3786 33.3643 35.4068 33.6425C35.6323 35.8903 35.0993 37.9443 34.1698 39.8958C33.4114 41.4878 32.3858 42.7762 30.9073 43.5454C30.4243 43.7974 29.9329 44.04 29.4775 44.3472C28.4653 45.0292 27.3808 45.258 26.2149 45.2282C25.2617 45.2042 24.404 44.9958 23.6397 44.2964C22.9184 43.6369 22.0498 43.5163 21.1344 43.4967C18.8417 43.4473 16.6496 42.928 14.6048 41.6578C13.4786 40.9583 12.6055 39.9873 11.8752 38.8419C11.1706 37.7351 10.5332 36.5716 9.89194 35.4146C8.91568 33.6533 8.98614 31.7076 9.66389 29.9631C10.3852 28.1067 11.4601 26.4174 12.462 24.7164C13.0283 23.7548 13.7791 22.9355 14.4004 22.0132C14.574 21.7568 14.6695 21.3537 14.6548 21.0269C14.5395 18.4188 15.2659 16.0394 16.1467 13.6972C16.6746 12.294 17.6111 11.5728 18.9628 11.5539C20.2401 11.5372 21.5367 11.3513 22.7909 11.535C24.7717 11.8248 26.828 11.8292 28.6447 13.0181C30.1373 13.9942 31.3108 15.3023 31.9265 17.1434C32.6298 19.2475 33.2941 21.3711 33.9084 23.5108C34.3998 25.2241 34.8847 26.9526 35.1954 28.7146C35.4286 30.0415 35.3812 31.4316 35.458 32.7942C35.4395 32.7949 35.4209 32.7963 35.403 32.7978Z" fill="#652815"/>
<path fill-rule="evenodd" clip-rule="evenodd" d="M208.795 75.8647C208.871 74.8403 208.847 73.8814 209.592 73.053C209.801 72.8201 209.768 72.3636 209.833 72.0078C210.038 70.8829 210.685 70.1878 211.813 69.9572C211.92 69.9354 212.037 69.9449 212.137 69.9074C213.073 69.5605 213.973 69.4984 214.832 70.1365C215.817 70.8682 216.472 71.8351 216.599 73.0341C216.711 74.0859 216.849 75.1065 217.156 76.1285C217.465 77.1595 217.366 78.2223 216.763 79.1816C216.629 79.3966 216.53 79.6338 216.416 79.862C215.645 81.4021 214.041 81.8984 212.57 80.9988C212.177 80.7592 211.82 80.6406 211.361 80.6335C210.409 80.6192 209.694 80.113 209.482 79.2566C209.204 78.1378 209.019 76.9967 208.795 75.8647Z" fill="#F7E5D7"/>
<path fill-rule="evenodd" clip-rule="evenodd" d="M202.261 48.1455C202.485 45.8026 203.838 43.5124 206.651 42.218C207.068 42.0268 207.556 41.9291 208.016 41.9077C209.387 41.8423 210.244 42.5307 210.428 43.8824C210.526 44.6079 210.677 45.2683 211.027 45.9326C211.257 46.3681 211.306 47.0319 211.159 47.5087C210.732 48.8908 210.194 50.2402 209.646 51.581C209.267 52.5067 208.523 52.9252 207.516 53.0267C206.281 53.1515 205.187 53.068 204.476 51.8643C204.396 51.7286 204.19 51.655 204.03 51.581C202.571 50.9106 202.195 50.3332 202.261 48.1455Z" fill="#F7E5D7"/>
<path fill-rule="evenodd" clip-rule="evenodd" d="M200.982 25.8594C200.982 25.023 200.979 24.187 200.982 23.3505C200.986 22.2664 201.3 21.354 202.325 20.7922C202.569 20.6584 202.737 20.3941 202.955 20.2072C203.396 19.83 203.811 19.4058 204.301 19.1065C205.637 18.2913 207.108 18.9129 207.617 20.3851C208.2 22.0685 208.272 23.806 208.204 25.5411C208.167 26.5042 207.861 27.4612 207.629 28.4092C207.544 28.7536 207.347 29.081 207.155 29.387C206.538 30.3682 203.854 31.4637 202.718 31.218C201.69 30.9955 200.966 30.0954 200.908 28.9112C200.882 28.4044 200.931 27.8939 200.937 27.3853C200.944 26.8762 200.938 26.3671 200.938 25.8585C200.953 25.8594 200.968 25.8594 200.982 25.8594Z" fill="#F7E5D7"/>
<path fill-rule="evenodd" clip-rule="evenodd" d="M177.917 4.31185C177.917 3.51191 177.91 2.71197 177.92 1.91251C177.928 1.17615 178.208 0.588766 178.833 0.151789C179.082 -0.0232862 179.247 -0.321721 179.445 -0.56844C179.715 -0.905306 179.934 -1.30385 180.26 -1.57429C181.079 -2.25657 182.159 -2.10853 182.71 -1.20232C182.986 -0.747311 183.347 -0.455993 183.735 -0.129565C184.135 0.207301 184.564 0.640957 184.719 1.11684C185.354 3.07398 185.62 5.06671 184.847 7.06798C184.598 7.71135 184.354 8.35709 184.115 9.00472C183.366 11.0316 180.45 10.8433 179.626 9.4863C179.448 9.19213 179.178 8.9141 178.886 8.73523C178.155 8.28639 177.855 7.6435 177.855 6.81984C177.856 5.98384 177.855 5.14832 177.855 4.31185C177.876 4.31185 177.896 4.31185 177.917 4.31185Z" fill="#F7E5D7"/>
<path fill-rule="evenodd" clip-rule="evenodd" d="M197.848 31.565C197.928 34.2704 196.869 36.5876 195.284 38.6772C194.327 39.9378 192.963 40.1067 191.586 39.3153C191.397 39.2071 191.212 39.0909 191.037 38.9623C189.505 37.8364 189.108 36.6821 189.716 34.8701C190.211 33.3931 190.775 31.9375 191.319 30.4766C191.393 30.2754 191.485 30.0316 191.646 29.9201C192.817 29.1092 193.881 28.0573 195.469 28.1342C196.865 28.202 197.752 29.067 197.845 30.4742C197.868 30.8367 197.848 31.2016 197.848 31.565Z" fill="#F7E5D7"/>
<path fill-rule="evenodd" clip-rule="evenodd" d="M175.994 102.022C176.205 101.458 175.999 101.056 175.63 100.632C175.1 100.02 175.087 99.2758 175.484 98.5893C176.155 97.4292 176.774 96.2232 177.95 95.4465C178.211 95.2752 178.377 94.9654 178.598 94.7296C178.994 94.3049 179.36 93.8409 179.809 93.4789C180.54 92.8868 181.553 92.9551 182.199 93.5985C183.447 94.8415 183.933 96.2569 183.49 98.0551C183.061 99.7987 182.446 101.446 181.674 103.055C181.025 104.407 179.722 105.314 178.433 105.247C177.138 105.18 176.348 104.488 176.127 103.201C176.059 102.808 176.037 102.408 175.994 102.022Z" fill="#F7E5D7"/>
<path fill-rule="evenodd" clip-rule="evenodd" d="M185.34 67.7268C185.34 68.1638 185.309 68.6031 185.346 69.0368C185.496 70.7743 184.531 71.8503 183.164 72.6375C182.107 73.2467 180.808 73.0441 179.983 72.0757C179.428 71.4247 179.044 70.6177 178.641 69.8505C177.835 68.3099 177.693 66.6498 177.946 64.9621C178.019 64.4829 178.213 63.9297 178.541 63.6004C179.175 62.9647 179.902 62.3958 180.666 61.9232C181.793 61.2272 183.137 61.6058 183.954 62.6724C185.109 64.1788 185.382 65.9011 185.34 67.7268Z" fill="#F7E5D7"/>
<path fill-rule="evenodd" clip-rule="evenodd" d="M229.611 26.749C229.731 28.1235 229.028 29.2262 228.354 30.2951C227.771 31.2194 225.21 31.8295 224.147 31.5297C222.97 31.198 221.953 28.9619 222.381 27.7791C222.563 27.2752 222.675 26.7433 222.781 26.2162C222.904 25.6008 223.233 25.1657 223.77 24.8507C224.303 24.539 224.838 24.223 225.33 23.8534C227.032 22.5771 229.054 23.3315 229.499 25.4447C229.589 25.8679 229.576 26.3135 229.611 26.749Z" fill="#F7E5D7"/>
<path fill-rule="evenodd" clip-rule="evenodd" d="M140.864 54.5126C139.852 54.5069 139.015 53.6885 139 52.6314C138.996 52.2798 139.058 51.8832 139.225 51.5809C140.059 50.0608 140.866 48.5154 141.832 47.0807C142.302 46.3837 143.052 45.8357 143.764 45.3513C144.409 44.9138 145.161 44.9983 145.819 45.4528C146.451 45.8893 146.803 46.7433 146.553 47.4797C146.043 48.9871 145.465 50.4721 144.912 51.9652C144.215 53.8431 142.715 54.4557 140.864 54.5126Z" fill="#F7E5D7"/>
<path fill-rule="evenodd" clip-rule="evenodd" d="M218.213 66.8191C218.122 65.3265 218.937 64.1958 219.775 63.1031C220.144 62.6225 220.656 62.2396 221.145 61.8662C221.696 61.4459 222.158 61.5588 222.727 61.9151C223.775 62.5717 224.253 63.3617 223.733 64.5986C223.633 64.8349 223.777 65.168 223.789 65.4574C223.849 66.9429 223.043 68.1215 221.665 68.5993C221.465 68.6686 221.279 68.7857 221.099 68.8987C219.704 69.7636 218.392 69.1183 218.217 67.4724C218.193 67.2566 218.213 67.0369 218.213 66.8191Z" fill="#F7E5D7"/>
<path fill-rule="evenodd" clip-rule="evenodd" d="M165.715 107.712C165.751 108.182 165.812 108.653 165.818 109.125C165.837 110.579 164.924 111.469 163.418 111.487C161.997 111.505 161.094 110.629 161.09 109.197C161.089 108.801 161.149 108.401 161.217 108.009C161.323 107.406 161.482 106.813 161.579 106.209C161.687 105.54 161.931 104.963 162.451 104.502C163.657 103.433 165.184 103.858 165.56 105.436C165.734 106.168 165.702 106.949 165.763 107.708C165.747 107.709 165.731 107.71 165.715 107.712Z" fill="#F7E5D7"/>
<path fill-rule="evenodd" clip-rule="evenodd" d="M192.629 21.6481C191.091 21.6533 189.939 20.1227 190.575 18.6932C191.1 17.5132 191.837 16.3949 192.651 15.3862C193.433 14.4164 194.64 14.3443 195.492 14.9782C196.359 15.623 196.531 16.709 195.974 17.8259C195.553 18.668 195.186 19.5373 194.758 20.3752C194.322 21.2316 193.588 21.642 192.629 21.6481Z" fill="#F7E5D7"/>
<path fill-rule="evenodd" clip-rule="evenodd" d="M216.322 17.072C216.571 16.1302 216.814 15.187 217.072 14.2471C217.259 13.5672 217.653 13.1762 218.424 13.3081C218.633 13.3437 218.858 13.2811 219.075 13.2839C220.085 13.2958 220.843 13.8428 221.052 14.8221C221.365 16.2905 221.191 17.7244 220.468 19.0505C219.896 20.0962 219.51 20.2091 218.35 19.8158C216.766 19.2796 216.401 18.7587 216.322 17.072Z" fill="#F7E5D7"/>
<path fill-rule="evenodd" clip-rule="evenodd" d="M192.175 59.297C192.175 59.6244 192.209 59.9556 192.169 60.2777C192.04 61.3059 191.269 62.0868 190.261 62.2477C189.284 62.4038 188.338 61.9602 187.883 61.0686C187.688 60.6862 187.518 60.2545 187.482 59.8332C187.387 58.722 187.686 57.6649 188.207 56.6975C188.628 55.9174 189.411 55.8297 190.211 55.907C191.063 55.9891 191.649 56.4802 191.898 57.2587C192.104 57.9069 192.144 58.6076 192.258 59.2856C192.231 59.2894 192.203 59.2932 192.175 59.297Z" fill="#F7E5D7"/>
<path fill-rule="evenodd" clip-rule="evenodd" d="M174.111 79.1445C173.981 80.0341 173.923 80.9062 173.712 81.7389C173.47 82.6902 172.326 83.1656 171.316 82.8358C170.385 82.5322 169.86 81.4993 170.203 80.5613C170.536 79.6508 170.897 78.7488 171.287 77.8616C171.53 77.3117 171.918 76.8477 172.585 76.861C173.249 76.8743 173.635 77.344 173.854 77.9019C174.01 78.2972 174.034 78.745 174.111 79.1445Z" fill="#F7E5D7"/>
<path fill-rule="evenodd" clip-rule="evenodd" d="M149.719 34.251C148.819 34.232 148.332 33.971 148.075 33.3713C147.854 32.8551 147.909 32.309 148.326 31.9679C149.129 31.3121 149.792 30.4448 150.846 30.1345C151.122 30.0534 151.405 29.9557 151.687 29.95C152.216 29.94 152.694 30.0923 152.96 30.6123C153.219 31.119 153.138 31.6054 152.808 32.04C152.614 32.2962 152.379 32.5306 152.129 32.7346C151.683 33.099 151.233 33.4657 150.746 33.7698C150.361 34.0113 149.919 34.1599 149.719 34.251Z" fill="#F7E5D7"/>
<path fill-rule="evenodd" clip-rule="evenodd" d="M171.614 58.7462C171.583 58.8676 171.56 59.1286 171.453 59.3502C171.171 59.9361 170.856 60.5074 170.548 61.081C170.48 61.2072 170.392 61.3254 170.3 61.4359C169.623 62.2458 168.869 62.4294 168.231 61.9459C167.566 61.4411 167.477 60.524 168.012 59.7074C168.229 59.3758 168.446 59.0437 168.644 58.7006C168.988 58.1052 169.501 57.7147 170.142 57.5188C170.956 57.2697 171.59 57.7617 171.614 58.7462Z" fill="#F7E5D7"/>
</g>
<defs>
<clipPath id="clip0_200_16002">
<rect width="250" height="140" rx="20" fill="white"/>
</clipPath>
</defs>
</svg>
