<svg width="250" height="140" viewBox="0 0 250 140" fill="none" xmlns="http://www.w3.org/2000/svg">
<g clip-path="url(#clip0_273_13224)">
<rect width="250" height="140" rx="20" fill="#F7E5D7"/>
<path fill-rule="evenodd" clip-rule="evenodd" d="M136.101 203.357C135.472 199.824 134.818 196.298 134.231 192.757C134.054 191.687 134.044 190.577 133.995 189.486C133.899 187.359 133.758 185.234 133.77 183.106C133.784 180.607 133.946 178.106 134.034 175.607C134.085 174.149 134.09 172.688 134.167 171.231C134.245 169.768 134.442 168.307 134.485 166.842C134.514 165.886 134.397 164.921 134.285 163.97C133.988 161.441 133.523 158.926 133.376 156.382C133.207 153.47 133.149 150.559 132.809 147.649C132.446 144.535 132.565 141.344 132.475 138.186C132.461 137.699 132.497 137.204 132.433 136.726C131.959 133.164 131.816 129.487 130.892 126.07C129.465 120.789 129.138 115.252 127.67 110.038C126.871 107.197 126.497 104.158 125.313 101.517C124.06 98.7235 123.487 95.809 122.867 92.8453C122.653 91.8246 122.023 90.8748 121.445 89.9986C120.667 88.8176 119.756 87.7396 118.903 86.6164C117.231 84.4184 115.649 82.1304 113.856 80.0531C112.646 78.6495 111.715 77.1052 110.923 75.427C110.162 73.8135 109.471 72.1566 108.648 70.5821C107.853 69.0572 106.868 67.648 106.075 66.1225C105.006 64.0678 103.856 62.0282 103.077 59.8376C102.033 56.9055 101.347 53.823 100.439 50.8312C99.9685 49.2793 99.4972 47.6916 98.7657 46.2792C97.4264 43.6959 95.867 41.2483 94.4491 38.7108C93.4625 36.9452 92.521 35.1482 91.6374 33.3197C91.3059 32.6346 91.1354 31.8376 90.9922 31.0676C90.4708 28.2593 90.0006 25.4384 89.4947 22.625C89.1922 20.9474 88.8802 19.2867 89.1214 17.5387C89.2017 16.9567 88.9838 16.3376 88.9276 15.7317C88.8501 14.885 88.6969 14.0308 88.7515 13.1879C88.9354 10.3783 88.2345 7.71952 87.5766 5.10287C87.1927 3.57109 86.2907 2.11664 85.3609 0.850105C83.0427 -2.30584 81.007 -5.67236 79.6287 -9.38583C78.3373 -12.8661 77.3 -16.5482 78.5947 -20.4307C80.1168 -24.9959 82.8801 -28.5271 86.5988 -31.2443C86.835 -31.4171 87.1091 -31.5322 87.3353 -31.7195C91.1438 -34.8572 95.36 -37.1803 99.7763 -39.1131C100.247 -39.318 100.657 -39.6832 101.113 -39.9378C101.821 -40.3325 102.515 -40.8247 103.269 -41.0484C106.003 -41.8586 108.608 -42.8989 110.651 -45.1635C110.769 -45.2943 110.911 -45.4294 111.067 -45.4923C113.402 -46.4301 114.969 -48.4773 116.85 -50.0807C118.142 -51.1844 119.685 -51.9406 120.989 -53.033C123.287 -54.957 125.722 -56.6754 127.466 -59.3461C129.302 -62.1595 131.363 -64.7963 133.751 -67.1773C137.076 -70.4897 140.977 -72.5972 145.024 -74.503C146.849 -75.3641 148.755 -75.5854 150.726 -75.2064C152.288 -74.9053 153.877 -74.7519 155.457 -74.5527C157.846 -74.2497 160.145 -73.6387 162.299 -72.4935C162.705 -72.2792 163.125 -72.095 163.533 -71.8851C167.197 -69.9976 170.885 -68.159 174.509 -66.1904C175.809 -65.4839 176.985 -64.5021 178.165 -63.5713C180.254 -61.9232 182.241 -60.123 184.386 -58.5611C187.199 -56.512 189.739 -54.1311 192.272 -51.7187C193.364 -50.6791 194.601 -49.8142 195.761 -48.8544C198.438 -46.6369 201.197 -44.6054 204.428 -43.3345C206.44 -42.5431 208.333 -41.4268 210.276 -40.4494C210.53 -40.3206 210.802 -40.1861 210.998 -39.9805C213.487 -37.3683 216.345 -35.1501 218.172 -31.8408C219.467 -29.4988 220.879 -27.2266 222.359 -25.0185C223.311 -23.5999 224.56 -22.4157 225.537 -21.0159C227.884 -17.6506 230.649 -14.7631 233.816 -12.3092C233.861 -12.2721 233.913 -12.242 233.951 -12.1992C236.016 -9.81451 238.169 -7.51024 240.111 -5.01741C241.333 -3.44918 242.432 -1.69804 243.248 0.148018C244.711 3.45733 246.754 6.51522 247.111 10.3494C247.246 11.8026 247.622 13.2225 247.835 14.6675C247.95 15.4463 248.023 16.2477 247.993 17.0353C247.888 19.7783 247.765 22.5206 247.573 25.2592C247.463 26.84 247.148 28.407 247.034 29.9878C246.824 32.9106 246.589 35.8396 246.563 38.7642C246.541 41.1307 246.815 43.4947 246.949 45.8606C247.017 47.0718 247.083 48.2849 247.115 49.4986C247.167 51.4459 247.194 53.3938 247.223 55.3416C247.261 57.8514 247.18 60.3512 246.369 62.7692C246.272 63.0571 246.155 63.367 246.163 63.6611C246.265 67.1471 244.379 69.9586 243.252 73.0272C242.94 73.8763 242.613 74.7211 242.284 75.5646C242.084 76.0737 241.946 76.64 241.643 77.0706C240.307 78.9713 239.559 81.1725 238.631 83.2901C237.904 84.9489 236.874 86.4605 236.137 88.1155C235.126 90.3852 234.303 92.7454 233.33 95.0346C232.114 97.8976 231.268 100.888 230.323 103.851C229.49 106.458 228.407 108.979 227.543 111.578C227.223 112.541 227.093 113.618 227.087 114.642C227.066 117.567 227.189 120.492 227.184 123.418C227.183 125.246 227.042 127.076 226.986 128.905C226.968 129.514 226.984 130.129 227.056 130.729C227.26 132.418 227.686 134.088 227.216 135.816C227.201 135.873 227.201 135.941 227.214 135.998C228.271 140.58 228.094 145.442 230.115 149.829C231.922 153.751 232.776 158.07 233.251 162.454C233.284 162.755 233.299 163.07 233.252 163.369C232.701 166.928 232.587 170.572 231.45 174.018C230.763 176.098 229.829 178.089 229.147 180.17C228.325 182.675 227.301 185.074 226.073 187.374C225.189 189.027 224.178 190.607 223.244 192.232C222.854 192.912 222.488 193.61 222.165 194.326C221.07 196.76 219.991 199.204 218.923 201.651C218.681 202.206 218.537 202.808 218.294 203.362C217.907 204.248 217.577 205.194 217.035 205.964C216.226 207.112 215.913 208.353 215.822 209.729C215.632 212.595 215.593 215.49 215.136 218.313C214.652 221.298 214.575 224.403 213.047 227.168C211.453 230.054 209.616 232.732 207.43 235.116C206.767 235.839 205.842 236.372 204.952 236.75C203.729 237.269 202.767 238.092 201.902 239.096C198.681 242.844 194.644 245.317 190.477 247.545C186.87 249.476 183.089 250.872 179.101 251.522C178.311 251.649 177.516 251.804 176.748 252.044C172.939 253.233 169.039 253.229 165.21 252.856C161.995 252.544 158.968 251.479 156.523 248.837C153.837 245.933 151.789 242.556 149.591 239.277C149.031 238.441 148.553 237.543 148.013 236.693C146.706 234.629 145.698 232.422 145.17 229.962C145.032 229.318 144.873 228.585 144.486 228.119C142.407 225.618 141.541 222.428 140.186 219.514C138.884 216.714 138.124 213.745 137.621 210.67C137.217 208.208 136.754 205.758 136.317 203.304C136.246 203.324 136.173 203.34 136.101 203.357Z" fill="#5B5A1B"/>
<path fill-rule="evenodd" clip-rule="evenodd" d="M63.8417 20.9177C63.9975 20.9718 64.0574 20.9743 64.0936 21.0083C64.6123 21.497 65.1323 21.9845 65.6438 22.4826C66.0792 22.907 66.4852 23.3717 66.9381 23.7701C67.8451 24.5689 68.7645 25.3515 69.6996 26.1082C70.316 26.607 70.947 27.0938 71.6115 27.5059C72.5644 28.0971 73.3967 28.9668 74.5331 29.1523C74.6536 29.172 74.7675 29.2788 74.8745 29.3624C75.8146 30.0944 76.871 30.511 77.9434 30.9336C78.9537 31.332 79.8937 31.959 80.8622 32.4901C81.4474 32.8108 82.0291 33.1396 82.6115 33.466C83.1505 33.7677 83.693 34.0624 84.2273 34.3751C84.8805 34.7583 85.5172 35.1774 86.1776 35.5441C87.3836 36.214 88.4943 37.0447 89.5664 37.9542C90.0249 38.3427 90.5601 38.6178 91.0183 39.0063C91.9406 39.7878 92.8222 40.6295 93.7423 41.4143C94.9757 42.4667 96.2185 43.5075 97.4779 44.5199C99.2256 45.9239 100.981 47.3181 102.759 48.6726C103.299 49.0836 103.929 49.3422 104.511 49.6836C105.096 50.0258 105.634 49.9249 106.131 49.4816C106.641 49.025 106.911 48.4426 106.772 47.6891C106.676 47.1667 106.563 46.6479 106.461 46.1273C106.032 43.9438 105.054 42.0715 103.874 40.3098C103.152 39.2318 102.448 38.1379 101.734 37.0532C101.671 36.9587 101.594 36.8751 101.52 36.7915C100.802 35.9769 100.097 35.1475 99.3617 34.3536C98.4179 33.336 97.4504 32.3457 96.4907 31.3457C96.3942 31.2455 96.261 31.1813 96.1861 31.066C95.3808 29.8246 94.2816 28.9528 93.2089 28.0503C92.4343 27.3987 91.6425 26.7742 90.8579 26.1384C90.8367 26.1215 90.8005 26.1194 90.7886 26.098C90.1828 25.0399 89.0755 24.7723 88.2456 24.0637C87.6211 23.5312 86.9422 23.0661 86.2466 22.6586C85.7407 22.3625 85.1502 22.2554 84.6293 21.9856C83.388 21.3431 82.0806 20.9072 80.8123 20.3578C79.263 19.6861 77.6213 19.3946 76.083 18.7465C75.265 18.4019 74.3633 18.2371 73.6355 17.5813C73.3034 17.282 72.8069 17.2255 72.407 17.0084C71.2211 16.3641 70.0232 15.7403 68.8741 15.0195C67.9627 14.4476 67.0676 13.8121 66.253 13.0811C65.3561 12.2767 64.5614 11.3286 63.7181 10.448C63.4685 10.187 63.1832 9.96601 62.9513 9.68745C62.397 9.02179 61.8527 8.34523 61.3259 7.65182C60.4732 6.5302 59.6443 5.38574 58.7901 4.26588C58.6047 4.02279 58.354 3.84259 58.134 3.63253C57.9028 3.41228 57.6727 3.19168 57.4424 2.97108C57.4692 2.91382 57.4964 2.85586 57.5229 2.7986C58.4736 3.06733 59.4136 3.4193 60.378 3.58089C61.364 3.74634 62.2304 4.15487 63.0889 4.68635C63.843 5.15355 64.6516 5.50939 65.435 5.91652C66.5795 6.51193 67.709 7.14457 68.8706 7.69221C69.6425 8.05578 70.4586 8.29816 71.256 8.59253C71.3303 8.62028 71.428 8.61009 71.4826 8.66138C72.2023 9.33302 73.109 9.44191 73.956 9.74331C74.4716 9.92632 74.9394 10.2723 75.4422 10.5084C76.4107 10.9636 77.4263 11.3103 78.352 11.8538C79.3934 12.466 80.3566 13.2455 81.3544 13.9512C81.5551 14.0928 81.7476 14.2551 81.9617 14.3636C83.4439 15.1171 84.5803 16.2921 85.4395 17.8423C85.6723 18.2621 86.024 18.6025 86.338 18.9601C87.6111 20.4122 88.7883 21.9852 90.3676 23.0563C90.434 23.1009 90.5099 23.1574 90.5433 23.2302C91.0024 24.238 91.8891 24.6957 92.6515 25.3101C93.4399 25.9445 94.2486 26.5469 95.0313 27.189C95.8131 27.8308 96.5406 28.5625 97.3508 29.1526C98.8162 30.2202 100.18 31.5245 102.076 31.6084C103.174 31.6569 104.261 31.9646 105.359 32.0233C106.107 32.0633 106.866 31.8757 107.619 31.7865C107.982 31.7437 108.342 31.6713 108.706 31.6492C109.953 31.5736 110.638 30.6565 110.419 29.2686C110.246 28.1782 109.937 27.1686 109.146 26.3895C107.98 25.2412 106.881 24.0065 105.727 22.8434C104.479 21.5872 103.143 20.4361 101.952 19.1174C100.846 17.8925 99.588 16.9785 98.2169 16.2159C98.0293 16.1116 97.8508 15.9819 97.6801 15.845C96.7413 15.0908 95.8347 14.2804 94.8631 13.5841C93.3822 12.5222 91.8388 11.5713 90.3588 10.5077C89.4984 9.88908 88.7094 9.14368 87.8895 8.45342C87.7843 8.3649 87.696 8.24758 87.5846 8.17205C86.4597 7.41119 85.3524 6.6138 84.1976 5.91617C83.5319 5.51396 82.7994 5.23785 82.0778 4.97053C80.7308 4.47067 79.6026 3.54401 78.4515 2.66793C77.9387 2.27801 77.3997 2.03774 76.8121 1.83681C75.3598 1.34046 73.8374 1.50134 72.3737 1.15077C71.3428 0.904176 70.3044 0.766476 69.247 0.791417C69.0217 0.796686 68.7967 0.638261 68.567 0.577139C67.8291 0.381479 67.0913 0.184062 66.3495 0.010884C65.7627 -0.126465 65.1647 -0.20515 64.5805 -0.352334C63.5115 -0.62106 62.4332 -0.427859 61.3615 -0.484062C60.0157 -0.553966 58.6449 -0.335473 57.3291 -0.826907C56.5863 -1.10406 55.8526 -1.41213 55.1151 -1.7065C54.6466 -1.89373 54.1788 -2.08201 53.7103 -2.26959C53.6856 -2.27908 53.651 -2.2977 53.6345 -2.28645C52.9138 -1.788 52.6507 -2.53235 52.2394 -2.91664C51.6638 -3.45444 51.118 -3.28232 50.7481 -2.54851C50.3374 -1.7346 50.2057 -0.955122 50.4972 -0.0196769C50.726 0.716244 50.7575 1.53963 50.8187 2.33C50.8986 3.35888 50.9501 4.39269 50.9557 5.42438C50.9582 5.913 50.8262 6.40198 50.7547 6.8913C50.7247 7.09364 50.6991 7.29703 50.6639 7.49831C50.6089 7.81656 50.5827 8.14817 50.4832 8.44851C50.0247 9.83113 49.5453 11.205 49.0721 12.5813C49.0341 12.6916 49.0026 12.8099 48.9426 12.9048C47.9998 14.3998 47.8066 16.1969 47.3987 17.896C46.9686 19.6907 46.6041 21.5121 46.3297 23.345C46.0994 24.885 46.0189 26.4559 45.9112 28.0163C45.8587 28.7768 45.9318 29.5485 45.8831 30.3101C45.8344 31.0787 46.0323 31.7721 46.2442 32.4747C46.7105 34.0182 47.1446 35.5757 47.6412 37.1066C48.1028 38.5317 48.1664 39.9832 48.0759 41.4747C48.0176 42.4435 48.0488 43.419 48.041 44.3913C48.0397 44.5093 48.0681 44.6319 48.0497 44.7457C47.7123 46.8369 47.9361 48.935 47.9617 51.0329C47.972 51.9089 48.1199 52.7218 48.3749 53.5417C49.0712 55.7796 49.7297 58.032 50.4001 60.2802C50.4672 60.5043 50.5665 60.7351 50.5659 60.9627C50.564 62.1191 51.0453 63.1378 51.2606 64.2289C51.6058 65.9824 51.9578 67.7311 51.9391 69.5605C51.9229 71.1771 51.9894 72.8137 52.2094 74.4077C52.4107 75.8669 52.8991 77.2664 53.8142 78.4024C54.3894 79.1166 54.464 79.1138 55.244 78.8257C56.4465 78.3817 57.032 77.4006 57.2742 76.0612C57.3391 75.7025 57.531 75.3706 57.6755 75.0323C57.8213 74.6898 58.0401 74.3723 58.1234 74.0133C58.4162 72.7568 58.742 71.4999 58.9115 70.2191C59.2005 68.0325 59.7751 65.877 59.6421 63.6373C59.5925 62.7918 59.5485 61.941 59.2863 61.1106C58.4752 58.5414 57.7623 55.9314 56.9218 53.3752C56.5233 52.1636 56.4387 50.9011 56.2015 49.666C56.0776 49.0187 56.1494 48.3133 56.1896 47.6378C56.2542 46.5513 56.4093 45.4701 56.4474 44.3829C56.4933 43.0916 56.4574 41.7968 56.4537 40.503C56.4527 40.3267 56.4053 40.1476 56.4215 39.9744C56.5339 38.8106 56.2187 37.6907 56.1606 36.5523C56.1029 35.4261 55.6912 34.4407 55.4796 33.3827C55.2165 32.0658 55.0583 30.7221 54.8504 29.3905C54.8051 29.101 54.7611 28.807 54.6803 28.5288C54.3042 27.2329 53.92 25.9399 53.529 24.65C53.1978 23.5568 52.9216 22.4675 52.8505 21.2911C52.7656 19.8762 52.6479 18.469 52.7328 17.0498C52.7431 16.8742 52.74 16.6912 52.7094 16.5198C52.5802 15.7968 52.6685 15.121 52.9375 14.4441C53.1532 13.9021 53.1632 13.3376 53.077 12.7168C52.9694 11.943 53.0402 11.1277 53.0998 10.3363C53.2237 8.69756 53.7677 7.1242 53.7012 5.44932C53.6856 5.06011 53.8086 4.66387 53.8701 4.25955C53.9918 4.32173 54.0611 4.33156 54.0726 4.36669C54.5779 5.85364 55.3573 7.2057 55.7205 8.76782C55.9933 9.94107 56.3713 11.0841 56.714 12.2363C56.8978 12.8553 57.1063 13.4647 57.0423 14.136C57.0367 14.1947 57.041 14.2565 57.0529 14.3134C57.3001 15.5485 57.5485 16.7832 57.7994 18.0176C57.8288 18.1613 57.9096 18.3018 57.9081 18.443C57.8921 19.7564 58.4252 20.9093 58.7389 22.1264C58.8182 22.4349 58.8397 22.7626 58.8877 23.0816C58.9402 23.4297 58.9914 23.7774 59.0447 24.1252C59.1199 24.6159 59.1942 25.1067 59.2738 25.5967C59.3113 25.8289 59.3406 26.0656 59.4068 26.2884C59.79 27.5821 60.1418 28.8906 60.5896 30.1559C60.8284 30.83 61.2073 31.4528 61.5781 32.0559C62.5933 33.7066 63.6258 35.3439 64.6738 36.9685C65.8308 38.7614 67.0361 40.515 68.1731 42.3237C68.7614 43.2598 69.2505 44.2747 69.7773 45.2586C70.0613 45.7894 70.2819 46.3728 70.6193 46.8544C71.0272 47.4365 71.2033 48.1025 71.3962 48.7787C71.7738 50.1055 72.1624 51.428 72.5509 52.7509C72.7728 53.5062 72.9879 54.2449 73.0478 55.0648C73.1024 55.812 73.4476 56.5293 73.6374 57.2687C73.7382 57.6614 73.7809 58.0731 73.8499 58.476C74.0546 59.6651 74.3193 60.8292 74.9079 61.8693C75.0328 62.0903 75.1177 62.3453 75.1941 62.5947C75.4179 63.3229 75.6098 64.0645 75.8511 64.7849C75.9778 65.165 76.1888 65.5082 76.3458 65.876C76.4937 66.2206 76.637 66.5694 76.7549 66.9277C77.053 67.8361 77.1579 68.8386 77.7977 69.5802C77.866 69.6592 77.8935 69.7909 77.9219 69.9037C78.4113 71.8326 79.3981 73.4856 80.2911 75.1802C80.6434 75.8483 81.2576 76.3345 81.6918 76.9573C82.0148 77.4199 82.4211 77.7013 82.8559 77.9869C83.2788 78.2651 83.6733 78.2574 84.0297 77.9374C84.6261 77.4006 85.1945 76.8006 85.3714 75.9256C85.692 74.3407 86.0428 72.7511 85.9772 71.1089C85.9435 70.2581 85.8508 69.4028 85.7013 68.5685C85.5615 67.7908 85.3593 67.0391 85.2728 66.2353C85.1352 64.9553 84.7912 63.704 84.5428 62.4381C84.4816 62.1244 84.4523 61.8029 84.4105 61.4847C84.3683 61.1643 84.3381 60.8419 84.2853 60.524C84.2513 60.3216 84.1293 60.12 84.1436 59.9275C84.2213 58.8775 83.8259 57.9558 83.5475 57.0045C82.6078 53.7946 81.6078 50.6064 80.7258 47.3768C80.2383 45.592 79.4574 44.0263 78.5392 42.4948C77.0102 39.9452 75.0609 37.8348 73.1492 35.6786C73.0191 35.5322 72.8677 35.4057 72.7532 35.2452C71.8503 33.9806 70.9289 32.73 70.0625 31.4338C69.2907 30.2799 68.5851 29.0697 67.8429 27.8905C67.6762 27.626 67.4712 27.3928 67.2967 27.1335C66.5695 26.0519 65.7584 25.0245 65.1498 23.8635C64.6741 22.953 63.9597 22.1433 63.8417 20.9177Z" fill="#652815"/>
<path fill-rule="evenodd" clip-rule="evenodd" d="M-26 69.0888C-25.8104 67.7561 -25.6652 66.4126 -25.4197 65.0928C-25.1441 63.6106 -24.8761 62.1103 -24.4224 60.6909C-23.9456 59.1979 -23.2657 57.785 -22.6514 56.349C-21.9285 54.6616 -21.2152 52.967 -20.4319 51.315C-19.7154 49.8032 -18.9018 48.3505 -18.1493 46.8596C-17.5209 45.615 -16.9194 44.3531 -16.3051 43.0992C-15.7569 41.9803 -15.2197 40.8534 -14.6568 39.7432C-14.0894 38.6243 -13.6666 37.4765 -13.5875 36.1568C-13.5284 35.1672 -13.2919 34.1906 -13.1345 33.2082C-13.0908 32.9344 -12.995 32.6563 -13.0124 32.3869C-13.2257 29.0454 -11.8165 26.2918 -10.4947 23.5022C-9.88743 22.2207 -9.10732 21.0795 -8.19803 20.0675C-7.24442 19.0064 -6.13207 18.4523 -4.71578 18.8554C-3.64457 19.1602 -2.54444 19.1465 -1.45651 18.7745C-0.988056 18.6141 -0.477831 18.5498 0.0144005 18.5441C2.54239 18.5137 5.07038 18.4783 7.59708 18.5289C8.40098 18.5448 9.21901 18.747 9.99784 18.9955C11.4296 19.452 12.8825 19.8876 14.2403 20.5543C15.4342 21.1409 16.5717 21.9383 17.6204 22.8131C18.7835 23.7824 20.0937 24.1783 21.4516 24.4867C22.6288 24.7547 23.7289 25.295 24.6189 26.13C26.1387 27.5552 26.6277 29.5265 26.1901 31.666C25.7371 33.8778 25.259 36.0802 24.5206 38.2205C23.781 40.3644 23.3794 42.6527 22.7406 44.8443C22.276 46.4378 21.7761 48.0139 21.5293 49.6731C21.2369 51.6386 20.6586 53.5311 20.4754 55.5342C20.3495 56.9117 19.8926 58.2473 19.6221 59.6118C19.2603 61.4349 18.9763 63.2798 18.5804 65.0928C18.3189 66.2905 17.8414 67.4296 17.5998 68.6308C17.204 70.5999 16.2921 72.3299 15.7086 74.2022C14.9735 76.5606 13.4056 78.3087 12.3562 80.4266C11.8209 81.5072 11.2181 82.5611 10.8152 83.7024C10.5081 84.5735 10.4798 85.5667 10.3037 86.4993C10.1784 87.1617 10.039 87.8233 9.86161 88.4705C9.11427 91.1894 6.30674 92.1906 4.22343 90.5444C2.74224 89.3749 1.26361 88.1693 -0.329393 87.2202C-1.56768 86.4827 -2.96598 86.0601 -4.32058 85.6C-5.64563 85.1507 -7.00216 84.8177 -8.35033 84.4623C-9.17736 84.2441 -10.0095 84.0368 -10.8494 83.8989C-13.2611 83.503 -15.4112 82.4015 -17.3422 80.787C-18.6493 79.6941 -20.0129 78.6041 -21.0668 77.2353C-22.1913 75.7748 -23.4257 74.4702 -24.6717 73.1671C-25.7462 72.0453 -25.9576 70.644 -26 69.0888Z" fill="#BF7805"/>
<path fill-rule="evenodd" clip-rule="evenodd" d="M35.403 32.7978C35.403 33.0796 35.3786 33.3643 35.4068 33.6425C35.6323 35.8903 35.0993 37.9443 34.1698 39.8958C33.4114 41.4878 32.3858 42.7762 30.9073 43.5454C30.4243 43.7974 29.9329 44.04 29.4775 44.3472C28.4653 45.0292 27.3808 45.258 26.2149 45.2282C25.2617 45.2042 24.404 44.9958 23.6397 44.2964C22.9184 43.6369 22.0498 43.5163 21.1344 43.4967C18.8417 43.4473 16.6496 42.928 14.6048 41.6578C13.4786 40.9583 12.6055 39.9873 11.8752 38.8419C11.1706 37.7351 10.5332 36.5716 9.89194 35.4146C8.91568 33.6533 8.98614 31.7076 9.66389 29.9631C10.3852 28.1067 11.4601 26.4174 12.462 24.7164C13.0283 23.7548 13.7791 22.9355 14.4004 22.0132C14.574 21.7568 14.6695 21.3537 14.6548 21.0269C14.5395 18.4188 15.2659 16.0394 16.1467 13.6972C16.6746 12.294 17.6111 11.5728 18.9628 11.5539C20.2401 11.5372 21.5367 11.3513 22.7909 11.535C24.7717 11.8248 26.828 11.8292 28.6447 13.0181C30.1373 13.9942 31.3108 15.3023 31.9265 17.1434C32.6298 19.2475 33.2941 21.3711 33.9084 23.5108C34.3998 25.2241 34.8847 26.9526 35.1954 28.7146C35.4286 30.0415 35.3812 31.4316 35.458 32.7942C35.4395 32.7949 35.4209 32.7963 35.403 32.7978Z" fill="#652815"/>
<path fill-rule="evenodd" clip-rule="evenodd" d="M208.795 75.8647C208.871 74.8403 208.847 73.8814 209.592 73.053C209.801 72.8201 209.768 72.3636 209.833 72.0078C210.038 70.8829 210.685 70.1878 211.813 69.9572C211.92 69.9354 212.037 69.9449 212.137 69.9074C213.073 69.5605 213.973 69.4984 214.832 70.1365C215.817 70.8682 216.472 71.8351 216.599 73.0341C216.711 74.0859 216.849 75.1065 217.156 76.1285C217.465 77.1595 217.366 78.2223 216.763 79.1816C216.629 79.3966 216.53 79.6338 216.416 79.862C215.645 81.4021 214.041 81.8984 212.57 80.9988C212.177 80.7592 211.82 80.6406 211.361 80.6335C210.409 80.6192 209.694 80.113 209.482 79.2566C209.204 78.1378 209.019 76.9967 208.795 75.8647Z" fill="#F7E5D7"/>
<path fill-rule="evenodd" clip-rule="evenodd" d="M202.261 48.1455C202.485 45.8026 203.838 43.5124 206.651 42.218C207.068 42.0268 207.556 41.9291 208.016 41.9077C209.387 41.8423 210.244 42.5307 210.428 43.8824C210.526 44.6079 210.677 45.2683 211.027 45.9326C211.257 46.3681 211.306 47.0319 211.159 47.5087C210.732 48.8908 210.194 50.2402 209.646 51.581C209.267 52.5067 208.523 52.9252 207.516 53.0267C206.281 53.1515 205.187 53.068 204.476 51.8643C204.396 51.7286 204.19 51.655 204.03 51.581C202.571 50.9106 202.195 50.3332 202.261 48.1455Z" fill="#F7E5D7"/>
<path fill-rule="evenodd" clip-rule="evenodd" d="M200.982 25.8594C200.982 25.023 200.979 24.187 200.982 23.3505C200.986 22.2664 201.3 21.354 202.325 20.7922C202.569 20.6584 202.737 20.3941 202.955 20.2072C203.396 19.83 203.811 19.4058 204.301 19.1065C205.637 18.2913 207.108 18.9129 207.617 20.3851C208.2 22.0685 208.272 23.806 208.204 25.5411C208.167 26.5042 207.861 27.4612 207.629 28.4092C207.544 28.7536 207.347 29.081 207.155 29.387C206.538 30.3682 203.854 31.4637 202.718 31.218C201.69 30.9955 200.966 30.0954 200.908 28.9112C200.882 28.4044 200.931 27.8939 200.937 27.3853C200.944 26.8762 200.938 26.3671 200.938 25.8585C200.953 25.8594 200.968 25.8594 200.982 25.8594Z" fill="#F7E5D7"/>
<path fill-rule="evenodd" clip-rule="evenodd" d="M177.917 4.31185C177.917 3.51191 177.91 2.71197 177.92 1.91251C177.928 1.17615 178.208 0.588766 178.833 0.151789C179.082 -0.0232862 179.247 -0.321721 179.445 -0.56844C179.715 -0.905306 179.934 -1.30385 180.26 -1.57429C181.079 -2.25657 182.159 -2.10853 182.71 -1.20232C182.986 -0.747311 183.347 -0.455993 183.735 -0.129565C184.135 0.207301 184.564 0.640957 184.719 1.11684C185.354 3.07398 185.62 5.06671 184.847 7.06798C184.598 7.71135 184.354 8.35709 184.115 9.00472C183.366 11.0316 180.45 10.8433 179.626 9.4863C179.448 9.19213 179.178 8.9141 178.886 8.73523C178.155 8.28639 177.855 7.6435 177.855 6.81984C177.856 5.98384 177.855 5.14832 177.855 4.31185C177.876 4.31185 177.896 4.31185 177.917 4.31185Z" fill="#F7E5D7"/>
<path fill-rule="evenodd" clip-rule="evenodd" d="M197.848 31.565C197.928 34.2704 196.869 36.5876 195.284 38.6772C194.327 39.9378 192.963 40.1067 191.586 39.3153C191.397 39.2071 191.212 39.0909 191.037 38.9623C189.505 37.8364 189.108 36.6821 189.716 34.8701C190.211 33.3931 190.775 31.9375 191.319 30.4766C191.393 30.2754 191.485 30.0316 191.646 29.9201C192.817 29.1092 193.881 28.0573 195.469 28.1342C196.865 28.202 197.752 29.067 197.845 30.4742C197.868 30.8367 197.848 31.2016 197.848 31.565Z" fill="#F7E5D7"/>
<path fill-rule="evenodd" clip-rule="evenodd" d="M175.994 102.022C176.205 101.458 175.999 101.056 175.63 100.632C175.1 100.02 175.087 99.2758 175.484 98.5893C176.155 97.4292 176.774 96.2231 177.95 95.4464C178.211 95.2752 178.377 94.9653 178.598 94.7295C178.994 94.3049 179.36 93.8409 179.809 93.4789C180.54 92.8867 181.553 92.9551 182.199 93.5984C183.447 94.8415 183.933 96.2568 183.49 98.055C183.061 99.7987 182.446 101.446 181.674 103.055C181.025 104.407 179.722 105.314 178.433 105.247C177.138 105.18 176.348 104.488 176.127 103.201C176.059 102.808 176.037 102.408 175.994 102.022Z" fill="#F7E5D7"/>
<path fill-rule="evenodd" clip-rule="evenodd" d="M185.34 67.7268C185.34 68.1638 185.309 68.6031 185.346 69.0368C185.496 70.7743 184.531 71.8503 183.164 72.6375C182.107 73.2467 180.808 73.0441 179.983 72.0757C179.428 71.4247 179.044 70.6177 178.641 69.8505C177.835 68.3099 177.693 66.6498 177.946 64.9621C178.019 64.4829 178.213 63.9297 178.541 63.6004C179.175 62.9647 179.902 62.3958 180.666 61.9232C181.793 61.2272 183.137 61.6058 183.954 62.6724C185.109 64.1788 185.382 65.9011 185.34 67.7268Z" fill="#F7E5D7"/>
<path fill-rule="evenodd" clip-rule="evenodd" d="M229.611 26.749C229.731 28.1235 229.028 29.2262 228.354 30.2951C227.771 31.2194 225.21 31.8295 224.147 31.5297C222.97 31.198 221.953 28.9619 222.381 27.7791C222.563 27.2752 222.675 26.7433 222.781 26.2162C222.904 25.6008 223.233 25.1657 223.77 24.8507C224.303 24.539 224.838 24.223 225.33 23.8534C227.032 22.5771 229.054 23.3315 229.499 25.4447C229.589 25.8679 229.576 26.3135 229.611 26.749Z" fill="#F7E5D7"/>
<path fill-rule="evenodd" clip-rule="evenodd" d="M140.864 54.5126C139.852 54.5069 139.015 53.6885 139 52.6314C138.996 52.2798 139.058 51.8832 139.225 51.5809C140.059 50.0608 140.866 48.5154 141.832 47.0807C142.302 46.3837 143.052 45.8357 143.764 45.3513C144.409 44.9138 145.161 44.9983 145.819 45.4528C146.451 45.8893 146.803 46.7433 146.553 47.4797C146.043 48.9871 145.465 50.4721 144.912 51.9652C144.215 53.8431 142.715 54.4557 140.864 54.5126Z" fill="#F7E5D7"/>
<path fill-rule="evenodd" clip-rule="evenodd" d="M218.213 66.8191C218.122 65.3265 218.937 64.1958 219.775 63.1031C220.144 62.6225 220.656 62.2396 221.145 61.8662C221.696 61.4459 222.158 61.5588 222.727 61.9151C223.775 62.5717 224.253 63.3617 223.733 64.5986C223.633 64.8349 223.777 65.168 223.789 65.4574C223.849 66.9429 223.043 68.1215 221.665 68.5993C221.465 68.6686 221.279 68.7857 221.099 68.8987C219.704 69.7636 218.392 69.1183 218.217 67.4724C218.193 67.2566 218.213 67.0369 218.213 66.8191Z" fill="#F7E5D7"/>
<path fill-rule="evenodd" clip-rule="evenodd" d="M165.715 107.712C165.751 108.182 165.812 108.653 165.818 109.125C165.837 110.579 164.924 111.469 163.418 111.487C161.997 111.505 161.094 110.629 161.09 109.197C161.089 108.801 161.149 108.401 161.217 108.009C161.323 107.406 161.482 106.813 161.579 106.209C161.687 105.54 161.931 104.963 162.451 104.502C163.657 103.433 165.184 103.858 165.56 105.436C165.734 106.168 165.702 106.949 165.763 107.708C165.747 107.709 165.731 107.71 165.715 107.712Z" fill="#F7E5D7"/>
<path fill-rule="evenodd" clip-rule="evenodd" d="M192.629 21.6481C191.091 21.6533 189.939 20.1227 190.575 18.6932C191.1 17.5132 191.837 16.3949 192.651 15.3862C193.433 14.4164 194.64 14.3443 195.492 14.9782C196.359 15.623 196.531 16.709 195.974 17.8259C195.553 18.668 195.186 19.5373 194.758 20.3752C194.322 21.2316 193.588 21.642 192.629 21.6481Z" fill="#F7E5D7"/>
<path fill-rule="evenodd" clip-rule="evenodd" d="M216.322 17.072C216.571 16.1302 216.814 15.187 217.072 14.2471C217.259 13.5672 217.653 13.1762 218.424 13.3081C218.633 13.3437 218.858 13.2811 219.075 13.2839C220.085 13.2958 220.843 13.8428 221.052 14.8221C221.365 16.2905 221.191 17.7244 220.468 19.0505C219.896 20.0962 219.51 20.2091 218.35 19.8158C216.766 19.2796 216.401 18.7587 216.322 17.072Z" fill="#F7E5D7"/>
<path fill-rule="evenodd" clip-rule="evenodd" d="M192.175 59.297C192.175 59.6244 192.209 59.9556 192.169 60.2777C192.04 61.3059 191.269 62.0868 190.261 62.2477C189.284 62.4038 188.338 61.9602 187.883 61.0686C187.688 60.6862 187.518 60.2545 187.482 59.8332C187.387 58.722 187.686 57.6649 188.207 56.6975C188.628 55.9174 189.411 55.8297 190.211 55.907C191.063 55.9891 191.649 56.4802 191.898 57.2587C192.104 57.9069 192.144 58.6076 192.258 59.2856C192.231 59.2894 192.203 59.2932 192.175 59.297Z" fill="#F7E5D7"/>
<path fill-rule="evenodd" clip-rule="evenodd" d="M174.111 79.1445C173.981 80.0341 173.923 80.9062 173.712 81.7389C173.47 82.6902 172.326 83.1656 171.316 82.8358C170.385 82.5322 169.86 81.4993 170.203 80.5613C170.536 79.6508 170.897 78.7488 171.287 77.8616C171.53 77.3117 171.918 76.8477 172.585 76.861C173.249 76.8743 173.635 77.344 173.854 77.9019C174.01 78.2972 174.034 78.745 174.111 79.1445Z" fill="#F7E5D7"/>
<path fill-rule="evenodd" clip-rule="evenodd" d="M149.719 34.251C148.819 34.232 148.332 33.971 148.075 33.3713C147.854 32.8551 147.909 32.309 148.326 31.9679C149.129 31.3121 149.792 30.4448 150.846 30.1345C151.122 30.0534 151.405 29.9557 151.687 29.95C152.216 29.94 152.694 30.0923 152.96 30.6123C153.219 31.119 153.138 31.6054 152.808 32.04C152.614 32.2962 152.379 32.5306 152.129 32.7346C151.683 33.099 151.233 33.4657 150.746 33.7698C150.361 34.0113 149.919 34.1599 149.719 34.251Z" fill="#F7E5D7"/>
<path fill-rule="evenodd" clip-rule="evenodd" d="M171.614 58.7462C171.583 58.8676 171.56 59.1286 171.453 59.3502C171.171 59.9361 170.856 60.5074 170.548 61.081C170.48 61.2072 170.392 61.3254 170.3 61.4359C169.623 62.2458 168.869 62.4294 168.231 61.9459C167.566 61.4411 167.477 60.524 168.012 59.7074C168.229 59.3758 168.446 59.0437 168.644 58.7006C168.988 58.1052 169.501 57.7147 170.142 57.5188C170.956 57.2697 171.59 57.7617 171.614 58.7462Z" fill="#F7E5D7"/>
<g clip-path="url(#clip1_273_13224)">
<path d="M141.556 52.3563C145.086 48.9408 144.577 41.9421 141.68 40.8586C139.975 40.2226 137.022 42.1806 134.328 44.2269C133.176 41.2178 131.619 37.876 129.961 37.5256C128.112 37.1311 125.445 39.728 124.158 42.4927C105.508 37.9378 88.5431 45.5048 86.4732 49.6828C85.269 52.1178 85.1659 63.6655 89.3852 68.2822C86.9737 70.1902 84.5211 72.6988 84.1648 74.1356C83.7055 75.9846 85.7695 76.2555 87.6333 74.7569C84.9716 78.3755 83.9823 81.2786 85.7783 82.3091C87.0385 83.0334 90.0035 81.6702 92.7829 79.3468C92.0675 89.1338 86.2995 94.4398 82.9488 109.968C82.1627 113.61 82.1156 118.574 83.4288 122.626C82.519 120.476 80.9791 118.171 79.024 119.207C76.5007 120.547 79.7071 129.637 83.0931 129.795H96.3427C96.3574 129.934 96.3927 130.072 96.4487 130.205C97.4026 132.493 107.54 132.186 109.972 129.795H112.604C112.637 129.922 112.687 130.058 112.751 130.205C113.644 132.224 121.158 132.269 125.377 129.795H155.815C162.228 130.119 165.776 121.578 166.05 115.277C166.807 97.7463 154.829 70.4581 141.556 52.3563ZM83.6499 123.259C83.5733 123.056 83.5027 122.849 83.4349 122.638C83.5144 122.82 83.588 123.006 83.6558 123.185L83.6499 123.259Z" fill="#CD966D"/>
<path d="M91.9626 66.1806C89.1199 67.7691 86.6325 69.9891 84.7322 72.6338C84.2408 73.3174 83.7768 74.2243 84.1922 74.9568C84.436 75.387 84.9356 75.6214 85.4274 75.6717C85.9191 75.7221 86.4119 75.6155 86.8948 75.5095C85.9185 76.8774 85.3317 78.5207 85.2207 80.1975C85.183 80.7719 85.2109 81.3876 85.5372 81.8619C85.9358 82.4417 86.7067 82.6737 87.4062 82.6015C88.1058 82.5297 88.7515 82.2029 89.3642 81.8581C91.5142 80.6471 93.4925 79.1313 95.2211 77.3703C94.922 78.1388 94.6361 79.0565 95.0966 79.7405C95.5638 80.4345 96.6232 80.4975 97.3543 80.0906C98.0857 79.6834 98.558 78.9403 98.9708 78.2121C100.246 75.9615 101.251 73.5577 101.956 71.0688C102.014 70.8642 102.066 70.6289 101.95 70.4508C101.81 70.2371 101.508 70.2203 101.253 70.2262C99.7731 70.2606 98.2927 70.2951 96.8125 70.3295C96.1486 70.3448 95.4682 70.3581 94.8395 70.1434C94.0243 69.8652 93.373 69.2239 92.9175 68.4928C92.4626 67.7617 92.1805 66.9385 91.9626 66.1806Z" fill="#9CBA4E"/>
<path d="M86.6693 80.8919C85.6176 79.3173 89.4379 74.1544 91.8717 72.1145C92.9517 71.2094 94.7981 71.1379 95.5191 71.7335C96.9304 72.8992 94.7881 75.7805 92.7585 77.7391C91.2925 79.1536 87.5044 82.1412 86.6693 80.8919Z" fill="#CCE070"/>
<path d="M114.926 90.2535C115.188 89.7998 115.544 89.4005 115.965 89.0876L114.926 90.2535Z" fill="#CCE070"/>
<path d="M96.9195 79.4538C95.8822 79.5292 96.0936 76.4432 96.7316 74.1937C97.5837 71.1896 99.789 71.4717 100.348 72.3691C101.39 74.0385 98.5103 79.3387 96.9195 79.4538Z" fill="#CCE070"/>
<path d="M102.285 69.5065C101.784 67.8155 103.09 62.9388 106.51 62.3776C107.072 61.6348 110.166 56.1586 109.617 51.9758C109.238 49.0863 105.98 44.5116 97.4845 43.7414C93.7429 43.4019 88.0688 47.0909 86.3882 49.8806C85.5912 51.2038 85.6733 58.2732 86.5283 62.12C86.952 64.0268 88.0503 67.2811 89.3867 68.2831C89.9232 68.6856 91.2755 67.1701 92.3143 66.1119C92.1008 68.2687 94.1068 70.1439 96.2373 70.5408C98.3672 70.9374 100.538 70.2346 102.285 69.5065Z" fill="#B07066"/>
<path d="M123.78 54.099C140.828 54.099 133.981 68.7224 121.298 64.9085C115.451 63.1505 112.702 54.099 123.78 54.099Z" fill="#B07066"/>
<path d="M124.449 42.3816C124.961 40.3111 126.462 38.5092 128.406 37.6321C128.985 37.3709 129.656 37.1892 130.248 37.4207C130.747 37.6165 131.093 38.0684 131.4 38.508C132.639 40.2826 133.673 42.2008 134.474 44.2115C133.749 44.498 133.074 44.9078 132.486 45.4181C129.777 44.0825 126.983 42.9195 124.449 42.3816Z" fill="#B07066"/>
<path d="M135.62 43.0789C134.021 45.7865 134.037 49.3703 135.659 52.0641C136.145 52.8712 136.819 53.637 137.726 53.8908C138.926 54.2265 140.191 53.5775 141.113 52.7401C143.303 50.7512 144.299 47.6241 143.975 44.6835C143.867 43.7107 143.602 42.7067 142.93 41.9953C141.955 40.9642 140.322 40.7985 138.966 41.2166C137.61 41.635 136.13 42.215 135.62 43.0789Z" fill="#B07066"/>
<path d="M141.387 129.313C139.682 127.103 139.038 124.11 139.684 121.395C139.821 120.818 140.02 120.242 140.39 119.779C140.761 119.316 141.328 118.98 141.921 119.01C142.906 119.059 143.568 120.027 143.968 120.93C144.464 122.049 144.811 123.234 144.996 124.444C145.179 125.637 145.193 126.913 144.64 127.986C144.087 129.058 142.831 129.84 141.387 129.313Z" fill="#B07066"/>
<path d="M114.67 123.72C118.629 118.729 128.325 120.466 129.262 122.484C129.568 123.141 129.29 123.908 129.012 124.577C128.334 126.212 127.584 127.937 126.129 128.943C125.239 129.559 123.641 130.689 122.594 130.962C120.14 131.602 118.156 131.403 115.627 131.205C114.851 131.144 114.038 130.984 113.452 130.47C112.866 129.957 112.614 128.996 113.094 128.382C113.499 127.863 114.289 127.721 114.609 127.145C115.194 126.094 114.481 123.958 114.67 123.72Z" fill="#B07066"/>
<path d="M83.5253 123.012C83.1514 121.594 82.287 120.308 81.1133 119.427C80.4662 118.942 79.5543 118.581 78.8748 119.019C78.2414 119.428 78.149 120.312 78.2055 121.063C78.3454 122.919 78.986 124.697 79.6721 126.427C80.0442 127.365 80.4665 128.344 81.2756 128.948C81.9042 129.417 82.6965 129.603 83.472 129.718C85.1038 129.961 86.7741 129.94 88.3991 129.656C86.0952 127.934 84.1837 125.512 83.5253 123.012Z" fill="#B07066"/>
<path d="M97.1618 123.622C100.156 121.259 104.17 120.238 107.928 120.884C109.043 121.075 110.22 121.466 110.861 122.397C111.596 123.462 111.41 124.887 111.195 126.163C110.925 127.762 110.55 129.534 109.215 130.455C108.497 130.951 107.606 131.114 106.741 131.23C104.401 131.541 102.035 131.588 99.6742 131.634C98.9555 131.648 98.2 131.654 97.5667 131.314C96.8156 130.911 96.361 130.017 96.477 129.173C96.5933 128.329 97.2725 127.591 98.1043 127.405C97.6897 126.113 97.362 124.792 97.1618 123.622Z" fill="#B07066"/>
<path d="M125.857 57.0931C125.577 56.6179 125.881 55.8079 127.215 55.9796C128.67 56.1669 128.92 57.1924 128.737 57.4659C128.255 58.1843 126.133 57.5592 125.857 57.0931Z" fill="#EDAE84"/>
<path d="M118.539 55.142C118.212 55.142 117.914 54.9236 117.827 54.5932C117.724 54.2001 117.958 53.7973 118.352 53.694C120.381 53.1593 122.586 53.1016 124.903 53.5232C125.303 53.596 125.568 53.9793 125.495 54.3791C125.423 54.779 125.04 55.0452 124.64 54.9716C122.536 54.5891 120.547 54.6383 118.727 55.1176C118.664 55.1341 118.6 55.142 118.539 55.142Z" fill="#652815"/>
<path d="M98.52 55.7756C98.2612 55.7756 98.01 55.639 97.8758 55.3967C97.6785 55.041 97.8069 54.5929 98.1623 54.3959C99.9981 53.3772 102.12 52.778 104.469 52.6155C104.877 52.5896 105.226 52.8937 105.255 53.2991C105.283 53.7046 104.977 54.0561 104.571 54.0841C102.438 54.2316 100.522 54.7695 98.8769 55.6832C98.7632 55.7459 98.6407 55.7756 98.52 55.7756Z" fill="#652815"/>
<path d="M88.6328 54.41C88.3775 54.41 88.1293 54.2769 87.9933 54.0396C87.4162 53.0314 86.6636 52.0786 85.7574 51.2077C85.4641 50.9262 85.455 50.4601 85.7365 50.1669C86.0179 49.8739 86.484 49.8645 86.7773 50.146C87.7848 51.1141 88.624 52.1779 89.2709 53.3079C89.4728 53.6606 89.3507 54.1105 88.9979 54.3125C88.8825 54.3785 88.7565 54.41 88.6328 54.41Z" fill="#652815"/>
<path d="M97.6092 71.3378C96.2442 71.3378 94.8377 71.0216 93.6406 70.0447C91.2615 68.1035 91.4105 66.1116 91.6814 62.4954C91.7132 62.0687 91.7473 61.6153 91.7794 61.131C91.8065 60.7255 92.156 60.422 92.5632 60.4455C92.9689 60.4726 93.2758 60.8236 93.2487 61.2293C93.216 61.7175 93.1815 62.175 93.1494 62.6052C92.8856 66.1293 92.787 67.4478 94.5713 68.9037C96.622 70.5776 99.8172 69.6431 101.533 69.1411L101.788 69.0669C102.179 68.9541 102.587 69.1793 102.7 69.5698C102.812 69.9602 102.588 70.3683 102.197 70.4813L101.947 70.5544C100.863 70.8712 99.2669 71.3378 97.6092 71.3378Z" fill="#652815"/>
<path d="M104.755 74.2548C104.637 74.2548 104.518 74.2266 104.407 74.1674C102.525 73.1589 101.477 70.8727 101.674 68.201C101.887 65.2981 103.513 62.8876 105.814 62.0602C106.197 61.9221 106.619 62.1215 106.756 62.5039C106.894 62.8864 106.695 63.308 106.312 63.4455C104.18 64.2123 103.272 66.5445 103.142 68.3087C103.022 69.9417 103.474 71.9971 105.103 72.8695C105.461 73.0615 105.596 73.5075 105.404 73.8659C105.271 74.1138 105.017 74.2548 104.755 74.2548Z" fill="#652815"/>
<path d="M86.6045 83.2305C86.1514 83.2305 85.7477 83.1407 85.4109 82.9472C84.7296 82.5559 84.3018 81.9332 84.174 81.1465C83.735 78.4436 86.8925 74.2258 89.6186 71.1637C89.8889 70.8598 90.3544 70.833 90.6577 71.1033C90.9613 71.3736 90.9884 71.8388 90.7181 72.1424C87.2679 76.018 85.3647 79.2957 85.6267 80.9103C85.6841 81.2637 85.8437 81.498 86.1437 81.6706C87.1648 82.2574 91.2813 80.3047 94.6603 76.5112C94.8834 76.2606 95.2482 76.1929 95.5465 76.3463C95.8451 76.5 96.0017 76.8359 95.9278 77.1631C95.5094 79.0133 95.8433 79.5168 95.9148 79.5986C95.9425 79.6304 96.0167 79.7143 96.2929 79.692C97.9965 79.5553 100.056 74.4057 100.987 69.713C101.066 69.3143 101.453 69.0546 101.852 69.1341C102.251 69.2133 102.51 69.6008 102.431 69.9995C102.211 71.1101 100.17 80.8576 96.4113 81.1597C95.5674 81.2274 95.0713 80.8723 94.8031 80.5632C94.4815 80.1925 94.3002 79.6828 94.2584 79.0245C91.71 81.402 88.65 83.2305 86.6045 83.2305Z" fill="#652815"/>
<path d="M104.801 78.5461C104.659 78.5461 104.516 78.5052 104.39 78.4195C103.032 77.5014 101.436 77.1363 100.153 76.8434L99.7183 76.743C99.3226 76.6502 99.077 76.2539 99.1701 75.8582C99.2628 75.4628 99.6594 75.2166 100.055 75.31L100.481 75.408C101.884 75.7287 103.629 76.1273 105.214 77.1999C105.551 77.4275 105.639 77.8854 105.412 78.2219C105.269 78.4327 105.037 78.5461 104.801 78.5461Z" fill="#652815"/>
<path d="M89.3857 69.0193C89.1863 69.0193 88.9873 68.9387 88.8421 68.7797C84.3311 63.8441 84.5469 51.9171 85.8139 49.3567C87.1162 46.7256 93.2713 42.9513 102.114 41.1376C109.486 39.6259 120.828 39.0323 132.998 44.7891C133.366 44.9628 133.523 45.4019 133.349 45.7693C133.176 46.1365 132.737 46.2943 132.369 46.12C110.457 35.7547 89.2329 45.7681 87.1332 50.0098C86.0429 52.2127 85.9629 63.4477 89.9286 67.7865C90.203 68.0866 90.1818 68.5524 89.8818 68.8265C89.7407 68.9557 89.5629 69.0193 89.3857 69.0193Z" fill="#652815"/>
<path d="M85.3179 76.46C84.8816 76.46 84.4832 76.3581 84.1543 76.1479C83.8305 75.9412 83.1141 75.3138 83.4515 73.9573C84.0292 71.6348 88.9857 67.2763 91.9144 65.6619C92.271 65.4652 92.7183 65.5954 92.9143 65.951C93.1107 66.3073 92.9812 66.7548 92.6252 66.9512C89.7942 68.5117 85.3109 72.5826 84.8804 74.3127C84.8363 74.4908 84.7859 74.8047 84.9473 74.9074C85.2455 75.0982 86.1594 74.999 87.1744 74.1826C87.4912 73.9279 87.954 73.9779 88.2093 74.2944C88.4643 74.6112 88.4139 75.0744 88.0974 75.3294C87.1805 76.0666 86.1753 76.46 85.3179 76.46Z" fill="#652815"/>
<path d="M138.677 54.7193C138.351 54.7193 138.053 54.5014 137.965 54.1716C137.861 53.7786 138.095 53.3758 138.488 53.2716C141.82 52.3883 143.15 49.1439 143.284 46.4021C143.4 44.0351 142.618 41.9941 141.423 41.5486C139.726 40.9168 135.706 44.0696 133.046 46.1565C132.059 46.9312 131.127 47.6629 130.389 48.1558C130.051 48.3822 129.594 48.2906 129.368 47.9529C129.142 47.6149 129.233 47.1576 129.571 46.9318C130.262 46.4701 131.173 45.7552 132.137 44.9985C135.573 42.3027 139.465 39.247 141.938 40.1695C143.773 40.8544 144.906 43.3883 144.755 46.4745C144.602 49.5867 142.968 53.6069 138.865 54.6949C138.803 54.7113 138.739 54.7193 138.677 54.7193Z" fill="#652815"/>
<path d="M134.325 44.9503C134.026 44.9503 133.746 44.7671 133.635 44.4706C133.095 43.017 131.45 38.5934 129.811 38.246C128.254 37.9145 126.056 39.9372 125.016 42.6608C124.871 43.0409 124.445 43.2308 124.065 43.0856C123.686 42.9405 123.495 42.515 123.641 42.1355C124.805 39.0875 127.544 36.2597 130.116 36.8056C132.253 37.2588 133.733 40.5105 135.015 43.9571C135.157 44.3381 134.963 44.7618 134.582 44.9038C134.497 44.9356 134.411 44.9503 134.325 44.9503Z" fill="#652815"/>
<path d="M156.176 130.54C156.045 130.54 155.913 130.537 155.78 130.53C155.374 130.51 155.062 130.164 155.082 129.758C155.103 129.352 155.444 129.038 155.855 129.06C157.551 129.15 159.115 128.541 160.516 127.265C163.594 124.462 165.145 119.208 165.316 115.244C166.108 96.903 153.648 69.9649 140.93 52.8341C140.688 52.5079 140.756 52.0468 141.083 51.8045C141.409 51.5622 141.87 51.6308 142.112 51.9567C154.985 69.296 167.594 96.6242 166.787 115.308C166.603 119.577 164.899 125.266 161.508 128.354C159.913 129.806 158.121 130.54 156.176 130.54Z" fill="#652815"/>
<path d="M142.573 130.531C142.561 130.531 142.55 130.531 142.538 130.53C140.926 130.455 139.672 128.942 139.098 126.379C138.427 123.39 138.86 119.55 140.727 118.559C141.708 118.038 142.476 118.197 142.946 118.422C144.082 118.964 144.881 120.491 145.388 123.091C145.465 123.49 145.205 123.876 144.806 123.954C144.409 124.032 144.02 123.772 143.942 123.373C143.39 120.543 142.619 119.897 142.312 119.751C142.156 119.676 141.894 119.607 141.417 119.859C140.392 120.403 139.954 123.473 140.534 126.057C140.852 127.477 141.564 129.011 142.606 129.06C143.013 129.079 143.326 129.423 143.307 129.829C143.289 130.224 142.963 130.531 142.573 130.531Z" fill="#652815"/>
<path d="M83.0935 130.531C83.082 130.531 83.0703 130.531 83.0588 130.53C80.383 130.405 78.2745 126.316 77.6324 123.452C77.08 120.989 77.4616 119.205 78.6794 118.559C79.4075 118.172 80.1769 118.112 80.9056 118.387C82.5535 119.006 83.6845 121.196 84.3428 122.923C84.4877 123.303 84.2972 123.729 83.9171 123.874C83.5378 124.018 83.1118 123.828 82.9672 123.448C82.1999 121.435 81.2598 120.093 80.3877 119.765C80.052 119.639 79.7284 119.669 79.3695 119.859C78.8254 120.148 78.7018 121.493 79.0686 123.13C79.7496 126.166 81.6841 128.992 83.1271 129.06C83.5331 129.079 83.847 129.423 83.8281 129.829C83.8102 130.224 83.4845 130.531 83.0935 130.531Z" fill="#652815"/>
<path d="M143.481 120.331C143.46 120.331 143.439 120.33 143.418 120.328C143.013 120.294 142.713 119.938 142.747 119.532C143.205 114.118 147.045 110.465 153.558 109.245C153.958 109.169 154.343 109.434 154.417 109.833C154.492 110.232 154.229 110.617 153.829 110.692C149.724 111.461 144.723 113.641 144.214 119.657C144.181 120.041 143.859 120.331 143.481 120.331Z" fill="#652815"/>
<path d="M156.383 130.531H125.761C125.355 130.531 125.025 130.202 125.025 129.795C125.025 129.388 125.355 129.059 125.761 129.059H156.383C156.789 129.059 157.119 129.388 157.119 129.795C157.119 130.201 156.789 130.531 156.383 130.531Z" fill="#652815"/>
<path d="M112.617 130.531H109.974C109.568 130.531 109.238 130.202 109.238 129.795C109.238 129.388 109.568 129.059 109.974 129.059H112.617C113.024 129.059 113.353 129.388 113.353 129.795C113.353 130.201 113.023 130.531 112.617 130.531Z" fill="#652815"/>
<path d="M95.9503 130.531H83.0935C82.6869 130.531 82.3574 130.202 82.3574 129.795C82.3574 129.388 82.6869 129.059 83.0935 129.059H95.9503C96.3569 129.059 96.6864 129.388 96.6864 129.795C96.6864 130.201 96.3566 130.531 95.9503 130.531Z" fill="#652815"/>
<path d="M92.048 130.531C89.1502 130.531 86.7753 129.409 84.9898 127.198C81.4596 122.825 81.0839 115.121 82.2289 109.813C83.9443 101.862 86.341 96.9327 88.2666 92.9723C90.4177 88.5487 92.1166 85.0543 92.1166 79.2884C92.1166 78.8818 92.4461 78.5523 92.8527 78.5523C93.2593 78.5523 93.5888 78.8818 93.5888 79.2884C93.5888 85.3932 91.8246 89.0221 89.5907 93.6159C87.6009 97.7077 85.3458 102.346 83.6681 110.124C82.5608 115.258 83.0525 122.454 86.1355 126.273C87.6277 128.121 89.6172 129.059 92.0483 129.059C92.4549 129.059 92.7844 129.388 92.7844 129.795C92.7841 130.201 92.4546 130.531 92.048 130.531Z" fill="#652815"/>
<path d="M117.484 132.418C116.758 132.418 116.085 132.374 115.499 132.291C113.665 132.032 112.483 131.413 112.079 130.502C111.295 128.73 112.332 127.876 113.167 127.19C113.317 127.066 113.471 126.939 113.621 126.804C113.632 122.689 113.865 115.098 115.225 108.269C115.305 107.87 115.691 107.613 116.091 107.691C116.49 107.77 116.748 108.158 116.669 108.556C115.297 115.441 115.093 123.143 115.093 127.121C115.093 127.316 115.015 127.504 114.877 127.642C114.613 127.906 114.342 128.129 114.102 128.327C113.27 129.011 113.105 129.181 113.426 129.906C113.557 130.204 114.234 130.625 115.705 130.833C119.267 131.335 124.635 130.227 126.643 127.831C127.67 126.605 130.452 119.082 132.688 113.037C133.329 111.303 133.948 109.63 134.507 108.152C134.651 107.772 135.075 107.581 135.456 107.724C135.836 107.868 136.028 108.293 135.884 108.673C135.326 110.148 134.709 111.817 134.069 113.548C131.079 121.633 128.877 127.457 127.771 128.776C125.556 131.42 120.924 132.418 117.484 132.418Z" fill="#652815"/>
<path d="M101.982 132.5C101.286 132.5 100.621 132.469 100.018 132.407C97.6293 132.165 96.1998 131.519 95.7694 130.488C95.217 129.164 96.0049 127.637 97.1803 126.791C95.5556 121.546 94.0278 116.529 93.0485 108.502C92.999 108.098 93.2864 107.731 93.6901 107.682C94.0946 107.631 94.4606 107.92 94.5098 108.323C95.4914 116.368 97.0387 121.361 98.6766 126.647L98.7564 126.903C98.8636 127.249 98.7031 127.622 98.3778 127.782C97.5725 128.177 96.8355 129.22 97.1279 129.92C97.2354 130.178 98.0088 130.724 100.166 130.942C104.034 131.335 108.722 130.406 109.632 129.067C110.591 127.657 111.26 117.05 111.26 108.413C111.26 108.006 111.59 107.677 111.996 107.677C112.403 107.677 112.732 108.006 112.732 108.413C112.732 113.618 112.394 127.625 110.849 129.895C109.603 131.727 105.415 132.5 101.982 132.5Z" fill="#652815"/>
<path d="M158.884 106.564C158.532 106.564 158.22 106.311 158.159 105.952C157.959 104.778 157.669 103.608 157.298 102.473C157.172 102.087 157.383 101.671 157.769 101.545C158.156 101.417 158.572 101.63 158.698 102.016C159.091 103.219 159.398 104.46 159.61 105.705C159.678 106.105 159.409 106.485 159.008 106.554C158.966 106.561 158.925 106.564 158.884 106.564Z" fill="#652815"/>
<path d="M157.046 99.2952C156.709 99.2952 156.406 99.0635 156.328 98.7223C156.064 97.5598 155.711 96.4071 155.279 95.2962C155.131 94.9173 155.319 94.491 155.698 94.3434C156.077 94.1968 156.503 94.3841 156.651 94.7627C157.109 95.9407 157.483 97.1629 157.764 98.3957C157.854 98.7923 157.606 99.1866 157.209 99.2767C157.155 99.2891 157.099 99.2952 157.046 99.2952Z" fill="#652815"/>
<path d="M161.242 102.253C160.915 102.253 160.616 102.034 160.53 101.702C160.234 100.569 159.876 99.4544 159.466 98.3912C159.319 98.0119 159.508 97.5856 159.887 97.4393C160.268 97.2926 160.693 97.482 160.839 97.8606C161.27 98.9759 161.645 100.144 161.954 101.332C162.057 101.725 161.821 102.127 161.428 102.229C161.366 102.246 161.303 102.253 161.242 102.253Z" fill="#652815"/>
</g>
</g>
<defs>
<clipPath id="clip0_273_13224">
<rect width="250" height="140" rx="20" fill="white"/>
</clipPath>
<clipPath id="clip1_273_13224">
<rect width="115" height="115" fill="white" transform="translate(67 17)"/>
</clipPath>
</defs>
</svg>
